G04 (created by PCBNEW-RS274X (2012-01-19 BZR 3256)-stable) date 2012/09/03 0:26:34*
G01*
G70*
G90*
%MOIN*%
G04 Gerber Fmt 3.4, Leading zero omitted, Abs format*
%FSLAX34Y34*%
G04 APERTURE LIST*
%ADD10C,0.006000*%
%ADD11C,0.007900*%
%ADD12C,0.006300*%
%ADD13C,0.007100*%
%ADD14C,0.015700*%
%ADD15C,0.011800*%
%ADD16C,0.000100*%
%ADD17C,0.012000*%
%ADD18C,0.002600*%
%ADD19C,0.008000*%
%ADD20C,0.007800*%
%ADD21C,0.005000*%
%ADD22C,0.005900*%
%ADD23C,0.010000*%
%ADD24C,0.150800*%
%ADD25R,0.118900X0.040200*%
%ADD26C,0.099200*%
%ADD27R,0.050000X0.048100*%
%ADD28R,0.048100X0.050000*%
%ADD29R,0.028400X0.071700*%
%ADD30R,0.079500X0.103200*%
%ADD31R,0.050800X0.015800*%
%ADD32R,0.012600X0.046000*%
%ADD33R,0.046000X0.012600*%
%ADD34R,0.124800X0.124800*%
%ADD35R,0.134700X0.040200*%
%ADD36R,0.065800X0.048100*%
%ADD37R,0.040100X0.063700*%
%ADD38R,0.213300X0.252800*%
%ADD39R,0.016500X0.048000*%
%ADD40R,0.063800X0.099200*%
%ADD41C,0.237000*%
%ADD42R,0.087400X0.024400*%
%ADD43R,0.060800X0.060800*%
%ADD44C,0.060800*%
%ADD45R,0.170100X0.048000*%
%ADD46R,0.040200X0.028400*%
%ADD47R,0.030800X0.020800*%
%ADD48R,0.060800X0.010800*%
%ADD49R,0.010800X0.060800*%
%ADD50C,0.075600*%
%ADD51R,0.071700X0.090800*%
%ADD52R,0.020800X0.045800*%
%ADD53R,0.045800X0.020800*%
%ADD54R,0.048000X0.016500*%
%ADD55R,0.012600X0.055900*%
%ADD56R,0.118900X0.118900*%
%ADD57R,0.055900X0.012600*%
%ADD58R,0.040200X0.032300*%
%ADD59R,0.032300X0.040200*%
%ADD60R,0.055900X0.016500*%
%ADD61C,0.048000*%
%ADD62R,0.063800X0.063800*%
%ADD63R,0.048000X0.055900*%
%ADD64C,0.052000*%
G04 APERTURE END LIST*
G54D10*
G54D11*
X21654Y-07874D02*
X21654Y-07283D01*
X23622Y-07874D02*
X23622Y-06496D01*
X08583Y-03963D02*
X08583Y-04356D01*
X08561Y-04435D01*
X08516Y-04487D01*
X08448Y-04514D01*
X08403Y-04514D01*
X08741Y-03963D02*
X09011Y-03963D01*
X08876Y-04514D02*
X08876Y-03963D01*
X09146Y-04356D02*
X09371Y-04356D01*
X09101Y-04514D02*
X09258Y-03963D01*
X09416Y-04514D01*
X09821Y-03989D02*
X09776Y-03963D01*
X09708Y-03963D01*
X09641Y-03989D01*
X09596Y-04041D01*
X09573Y-04094D01*
X09551Y-04199D01*
X09551Y-04277D01*
X09573Y-04382D01*
X09596Y-04435D01*
X09641Y-04487D01*
X09708Y-04514D01*
X09753Y-04514D01*
X09821Y-04487D01*
X09843Y-04461D01*
X09843Y-04277D01*
X09753Y-04277D01*
X28583Y-16378D02*
X28858Y-16378D01*
X28583Y-16811D02*
X28583Y-16378D01*
X10000Y-06811D02*
X10630Y-06811D01*
X10000Y-07520D02*
X10000Y-06811D01*
X42717Y-10945D02*
X42717Y-13346D01*
X43661Y-10945D02*
X42717Y-10945D01*
X45945Y-03661D02*
X47441Y-03661D01*
X45945Y-06496D02*
X45945Y-03661D01*
X21063Y-09488D02*
X21063Y-09646D01*
X20394Y-09488D02*
X21063Y-09488D01*
X21063Y-09646D02*
X21063Y-11220D01*
X34882Y-09843D02*
X34882Y-11299D01*
X34646Y-09843D02*
X34882Y-09843D01*
X06417Y-14173D02*
X08661Y-14173D01*
X06417Y-14488D02*
X06417Y-16496D01*
X06417Y-13780D02*
X06417Y-14488D01*
X04173Y-13780D02*
X06417Y-13780D01*
X05048Y-17285D02*
X05048Y-16891D01*
X05273Y-17285D02*
X05104Y-17060D01*
X05273Y-16891D02*
X05048Y-17117D01*
X05442Y-17079D02*
X05573Y-17079D01*
X05629Y-17285D02*
X05442Y-17285D01*
X05442Y-16891D01*
X05629Y-16891D01*
X05873Y-17098D02*
X05873Y-17285D01*
X05742Y-16891D02*
X05873Y-17098D01*
X06004Y-16891D01*
X06567Y-17079D02*
X06623Y-17098D01*
X06642Y-17117D01*
X06661Y-17154D01*
X06661Y-17210D01*
X06642Y-17248D01*
X06623Y-17267D01*
X06586Y-17285D01*
X06436Y-17285D01*
X06436Y-16891D01*
X06567Y-16891D01*
X06605Y-16910D01*
X06623Y-16929D01*
X06642Y-16967D01*
X06642Y-17004D01*
X06623Y-17042D01*
X06605Y-17060D01*
X06567Y-17079D01*
X06436Y-17079D01*
X06905Y-16891D02*
X06980Y-16891D01*
X07017Y-16910D01*
X07055Y-16948D01*
X07074Y-17023D01*
X07074Y-17154D01*
X07055Y-17229D01*
X07017Y-17267D01*
X06980Y-17285D01*
X06905Y-17285D01*
X06867Y-17267D01*
X06830Y-17229D01*
X06811Y-17154D01*
X06811Y-17023D01*
X06830Y-16948D01*
X06867Y-16910D01*
X06905Y-16891D01*
X07224Y-17173D02*
X07412Y-17173D01*
X07187Y-17285D02*
X07318Y-16891D01*
X07449Y-17285D01*
X07806Y-17285D02*
X07675Y-17098D01*
X07581Y-17285D02*
X07581Y-16891D01*
X07731Y-16891D01*
X07768Y-16910D01*
X07787Y-16929D01*
X07806Y-16967D01*
X07806Y-17023D01*
X07787Y-17060D01*
X07768Y-17079D01*
X07731Y-17098D01*
X07581Y-17098D01*
X07975Y-17285D02*
X07975Y-16891D01*
X08069Y-16891D01*
X08125Y-16910D01*
X08162Y-16948D01*
X08181Y-16985D01*
X08200Y-17060D01*
X08200Y-17117D01*
X08181Y-17192D01*
X08162Y-17229D01*
X08125Y-17267D01*
X08069Y-17285D01*
X07975Y-17285D01*
X42667Y-19529D02*
X42667Y-19135D01*
X42817Y-19135D01*
X42854Y-19154D01*
X42873Y-19173D01*
X42892Y-19211D01*
X42892Y-19267D01*
X42873Y-19304D01*
X42854Y-19323D01*
X42817Y-19342D01*
X42667Y-19342D01*
X43023Y-19135D02*
X43117Y-19529D01*
X43192Y-19248D01*
X43267Y-19529D01*
X43361Y-19135D01*
X43736Y-19529D02*
X43605Y-19342D01*
X43511Y-19529D02*
X43511Y-19135D01*
X43661Y-19135D01*
X43698Y-19154D01*
X43717Y-19173D01*
X43736Y-19211D01*
X43736Y-19267D01*
X43717Y-19304D01*
X43698Y-19323D01*
X43661Y-19342D01*
X43511Y-19342D01*
X43905Y-19529D02*
X43905Y-19135D01*
X44093Y-19529D02*
X44093Y-19135D01*
X44318Y-19529D01*
X44318Y-19135D01*
X44450Y-19135D02*
X44581Y-19529D01*
X44712Y-19135D01*
G54D12*
X44984Y-16262D02*
X45153Y-16262D01*
X44951Y-16363D02*
X45069Y-16009D01*
X45187Y-16363D01*
X45254Y-16009D02*
X45372Y-16363D01*
X45490Y-16009D01*
X45810Y-16363D02*
X45692Y-16195D01*
X45607Y-16363D02*
X45607Y-16009D01*
X45742Y-16009D01*
X45776Y-16026D01*
X45793Y-16043D01*
X45810Y-16077D01*
X45810Y-16127D01*
X45793Y-16161D01*
X45776Y-16178D01*
X45742Y-16195D01*
X45607Y-16195D01*
X45961Y-16363D02*
X45961Y-16009D01*
X46113Y-16346D02*
X46164Y-16363D01*
X46248Y-16363D01*
X46282Y-16346D01*
X46299Y-16330D01*
X46316Y-16296D01*
X46316Y-16262D01*
X46299Y-16228D01*
X46282Y-16212D01*
X46248Y-16195D01*
X46181Y-16178D01*
X46147Y-16161D01*
X46130Y-16144D01*
X46113Y-16110D01*
X46113Y-16077D01*
X46130Y-16043D01*
X46147Y-16026D01*
X46181Y-16009D01*
X46265Y-16009D01*
X46316Y-16026D01*
X46467Y-16363D02*
X46467Y-16009D01*
X46602Y-16009D01*
X46636Y-16026D01*
X46653Y-16043D01*
X46670Y-16077D01*
X46670Y-16127D01*
X46653Y-16161D01*
X46636Y-16178D01*
X46602Y-16195D01*
X46467Y-16195D01*
G54D11*
X34646Y-09409D02*
X34646Y-09843D01*
X26575Y-15000D02*
X26575Y-17717D01*
G54D12*
X08114Y-13631D02*
X08009Y-13481D01*
X07934Y-13631D02*
X07934Y-13316D01*
X08054Y-13316D01*
X08084Y-13331D01*
X08099Y-13346D01*
X08114Y-13376D01*
X08114Y-13421D01*
X08099Y-13451D01*
X08084Y-13466D01*
X08054Y-13481D01*
X07934Y-13481D01*
X08369Y-13616D02*
X08339Y-13631D01*
X08279Y-13631D01*
X08249Y-13616D01*
X08234Y-13586D01*
X08234Y-13466D01*
X08249Y-13436D01*
X08279Y-13421D01*
X08339Y-13421D01*
X08369Y-13436D01*
X08384Y-13466D01*
X08384Y-13496D01*
X08234Y-13526D01*
X08489Y-13421D02*
X08564Y-13631D01*
X08639Y-13421D01*
X08759Y-13601D02*
X08774Y-13616D01*
X08759Y-13631D01*
X08744Y-13616D01*
X08759Y-13601D01*
X08759Y-13631D01*
X09089Y-13601D02*
X09074Y-13616D01*
X09029Y-13631D01*
X08999Y-13631D01*
X08954Y-13616D01*
X08924Y-13586D01*
X08909Y-13556D01*
X08894Y-13496D01*
X08894Y-13451D01*
X08909Y-13391D01*
X08924Y-13361D01*
X08954Y-13331D01*
X08999Y-13316D01*
X09029Y-13316D01*
X09074Y-13331D01*
X09089Y-13346D01*
G54D11*
X40551Y-19409D02*
X40551Y-18150D01*
X31496Y-16339D02*
X32362Y-16339D01*
X39724Y-07874D02*
X42205Y-07874D01*
X39724Y-06614D02*
X39724Y-07874D01*
X31024Y-12992D02*
X31024Y-14370D01*
X30827Y-12992D02*
X31024Y-12992D01*
X30827Y-12835D02*
X30827Y-12992D01*
X22756Y-17953D02*
X22756Y-18543D01*
X22598Y-17953D02*
X22756Y-17953D01*
X22598Y-16968D02*
X22598Y-17953D01*
X24213Y-16968D02*
X22598Y-16968D01*
X39173Y-13622D02*
X39173Y-13780D01*
X38504Y-13622D02*
X39173Y-13622D01*
X38583Y-15354D02*
X40945Y-15354D01*
X39173Y-14961D02*
X39173Y-15118D01*
X28307Y-14961D02*
X28307Y-14134D01*
X28307Y-14961D02*
X28150Y-14961D01*
X26575Y-14961D02*
X26378Y-14961D01*
X26575Y-14961D02*
X28150Y-14961D01*
X23622Y-07873D02*
X21654Y-07873D01*
X20079Y-11220D02*
X23819Y-11220D01*
X20079Y-12598D02*
X20079Y-11220D01*
X23819Y-10826D02*
X23819Y-11220D01*
X25000Y-10826D02*
X23819Y-10826D01*
X20079Y-12598D02*
X20079Y-12795D01*
X04724Y-07283D02*
X05118Y-07283D01*
X04724Y-06693D02*
X04724Y-07283D01*
X39173Y-14961D02*
X39173Y-13780D01*
X38583Y-16732D02*
X38583Y-15354D01*
X29331Y-15748D02*
X29528Y-15748D01*
X29331Y-14567D02*
X29331Y-15748D01*
X26575Y-16339D02*
X28150Y-16339D01*
X38780Y-07087D02*
X38780Y-08661D01*
X37992Y-07087D02*
X38780Y-07087D01*
X35236Y-06102D02*
X36811Y-06102D01*
X35236Y-08268D02*
X35236Y-06102D01*
X34646Y-06102D02*
X34646Y-09449D01*
X33071Y-06102D02*
X34646Y-06102D01*
X31693Y-19291D02*
X28150Y-19291D01*
X31496Y-17717D02*
X31496Y-16339D01*
X26575Y-17717D02*
X28150Y-17717D01*
X39292Y-18149D02*
X39292Y-19409D01*
X30827Y-12244D02*
X30827Y-12835D01*
X29528Y-12244D02*
X30827Y-12244D01*
X11483Y-03123D02*
X11457Y-03149D01*
X11378Y-03176D01*
X11326Y-03176D01*
X11247Y-03149D01*
X11194Y-03097D01*
X11168Y-03044D01*
X11142Y-02939D01*
X11142Y-02861D01*
X11168Y-02756D01*
X11194Y-02703D01*
X11247Y-02651D01*
X11326Y-02625D01*
X11378Y-02625D01*
X11457Y-02651D01*
X11483Y-02677D01*
X11824Y-02913D02*
X11824Y-03176D01*
X11640Y-02625D02*
X11824Y-02913D01*
X12008Y-02625D01*
X12139Y-02625D02*
X12506Y-02625D01*
X12270Y-03176D01*
X13031Y-03123D02*
X13005Y-03149D01*
X12926Y-03176D01*
X12874Y-03176D01*
X12795Y-03149D01*
X12742Y-03097D01*
X12716Y-03044D01*
X12690Y-02939D01*
X12690Y-02861D01*
X12716Y-02756D01*
X12742Y-02703D01*
X12795Y-02651D01*
X12874Y-02625D01*
X12926Y-02625D01*
X13005Y-02651D01*
X13031Y-02677D01*
X13556Y-03176D02*
X13241Y-03176D01*
X13398Y-03176D02*
X13398Y-02625D01*
X13346Y-02703D01*
X13293Y-02756D01*
X13241Y-02782D01*
X13897Y-02625D02*
X13950Y-02625D01*
X14002Y-02651D01*
X14028Y-02677D01*
X14055Y-02729D01*
X14081Y-02834D01*
X14081Y-02966D01*
X14055Y-03071D01*
X14028Y-03123D01*
X14002Y-03149D01*
X13950Y-03176D01*
X13897Y-03176D01*
X13845Y-03149D01*
X13818Y-03123D01*
X13792Y-03071D01*
X13766Y-02966D01*
X13766Y-02834D01*
X13792Y-02729D01*
X13818Y-02677D01*
X13845Y-02651D01*
X13897Y-02625D01*
X14553Y-02808D02*
X14553Y-03176D01*
X14422Y-02598D02*
X14291Y-02992D01*
X14632Y-02992D01*
X15131Y-03176D02*
X14816Y-03176D01*
X14973Y-03176D02*
X14973Y-02625D01*
X14921Y-02703D01*
X14868Y-02756D01*
X14816Y-02782D01*
X15682Y-03123D02*
X15656Y-03149D01*
X15577Y-03176D01*
X15525Y-03176D01*
X15446Y-03149D01*
X15393Y-03097D01*
X15367Y-03044D01*
X15341Y-02939D01*
X15341Y-02861D01*
X15367Y-02756D01*
X15393Y-02703D01*
X15446Y-02651D01*
X15525Y-02625D01*
X15577Y-02625D01*
X15656Y-02651D01*
X15682Y-02677D01*
X15839Y-02625D02*
X16023Y-03176D01*
X16207Y-02625D01*
X16338Y-02625D02*
X16679Y-02625D01*
X16495Y-02834D01*
X16574Y-02834D01*
X16626Y-02861D01*
X16653Y-02887D01*
X16679Y-02939D01*
X16679Y-03071D01*
X16653Y-03123D01*
X16626Y-03149D01*
X16574Y-03176D01*
X16416Y-03176D01*
X16364Y-03149D01*
X16338Y-03123D01*
X16863Y-02625D02*
X17204Y-02625D01*
X17020Y-02834D01*
X17099Y-02834D01*
X17151Y-02861D01*
X17178Y-02887D01*
X17204Y-02939D01*
X17204Y-03071D01*
X17178Y-03123D01*
X17151Y-03149D01*
X17099Y-03176D01*
X16941Y-03176D01*
X16889Y-03149D01*
X16863Y-03123D01*
X43780Y-16102D02*
X43780Y-15787D01*
X44803Y-16102D02*
X44803Y-15787D01*
X43780Y-16102D02*
X44803Y-16102D01*
X22719Y-16551D02*
X22325Y-16551D01*
X22325Y-16401D01*
X22344Y-16364D01*
X22363Y-16345D01*
X22401Y-16326D01*
X22457Y-16326D01*
X22494Y-16345D01*
X22513Y-16364D01*
X22532Y-16401D01*
X22532Y-16551D01*
X22682Y-15932D02*
X22701Y-15951D01*
X22719Y-16007D01*
X22719Y-16045D01*
X22701Y-16101D01*
X22663Y-16138D01*
X22626Y-16157D01*
X22551Y-16176D01*
X22494Y-16176D01*
X22419Y-16157D01*
X22382Y-16138D01*
X22344Y-16101D01*
X22325Y-16045D01*
X22325Y-16007D01*
X22344Y-15951D01*
X22363Y-15932D01*
X22719Y-15763D02*
X22325Y-15763D01*
X22607Y-15632D01*
X22325Y-15501D01*
X22719Y-15501D01*
X22719Y-15107D02*
X22719Y-15332D01*
X22719Y-15219D02*
X22325Y-15219D01*
X22382Y-15257D01*
X22419Y-15294D01*
X22438Y-15332D01*
X22494Y-14882D02*
X22476Y-14919D01*
X22457Y-14938D01*
X22419Y-14957D01*
X22401Y-14957D01*
X22363Y-14938D01*
X22344Y-14919D01*
X22325Y-14882D01*
X22325Y-14807D01*
X22344Y-14769D01*
X22363Y-14751D01*
X22401Y-14732D01*
X22419Y-14732D01*
X22457Y-14751D01*
X22476Y-14769D01*
X22494Y-14807D01*
X22494Y-14882D01*
X22513Y-14919D01*
X22532Y-14938D01*
X22569Y-14957D01*
X22644Y-14957D01*
X22682Y-14938D01*
X22701Y-14919D01*
X22719Y-14882D01*
X22719Y-14807D01*
X22701Y-14769D01*
X22682Y-14751D01*
X22644Y-14732D01*
X22569Y-14732D01*
X22532Y-14751D01*
X22513Y-14769D01*
X22494Y-14807D01*
X22325Y-14488D02*
X22325Y-14451D01*
X22344Y-14413D01*
X22363Y-14394D01*
X22401Y-14376D01*
X22476Y-14357D01*
X22569Y-14357D01*
X22644Y-14376D01*
X22682Y-14394D01*
X22701Y-14413D01*
X22719Y-14451D01*
X22719Y-14488D01*
X22701Y-14526D01*
X22682Y-14544D01*
X22644Y-14563D01*
X22569Y-14582D01*
X22476Y-14582D01*
X22401Y-14563D01*
X22363Y-14544D01*
X22344Y-14526D01*
X22325Y-14488D01*
X22363Y-14207D02*
X22344Y-14188D01*
X22325Y-14151D01*
X22325Y-14057D01*
X22344Y-14019D01*
X22363Y-14001D01*
X22401Y-13982D01*
X22438Y-13982D01*
X22494Y-14001D01*
X22719Y-14226D01*
X22719Y-13982D01*
X28995Y-10814D02*
X28995Y-11114D01*
X28365Y-11114D01*
X28995Y-10604D02*
X28365Y-10604D01*
X28815Y-10394D01*
X28365Y-10184D01*
X28995Y-10184D01*
X28995Y-09554D02*
X28995Y-09914D01*
X28995Y-09734D02*
X28365Y-09734D01*
X28455Y-09794D01*
X28515Y-09854D01*
X28545Y-09914D01*
X28995Y-09254D02*
X28995Y-09134D01*
X28965Y-09074D01*
X28935Y-09044D01*
X28845Y-08984D01*
X28725Y-08954D01*
X28485Y-08954D01*
X28425Y-08984D01*
X28395Y-09014D01*
X28365Y-09074D01*
X28365Y-09194D01*
X28395Y-09254D01*
X28425Y-09284D01*
X28485Y-09314D01*
X28635Y-09314D01*
X28695Y-09284D01*
X28725Y-09254D01*
X28755Y-09194D01*
X28755Y-09074D01*
X28725Y-09014D01*
X28695Y-08984D01*
X28635Y-08954D01*
X28365Y-08744D02*
X28365Y-08324D01*
X28995Y-08594D01*
X28425Y-08114D02*
X28395Y-08084D01*
X28365Y-08024D01*
X28365Y-07874D01*
X28395Y-07814D01*
X28425Y-07784D01*
X28485Y-07754D01*
X28545Y-07754D01*
X28635Y-07784D01*
X28995Y-08144D01*
X28995Y-07754D01*
X45663Y-05461D02*
X45191Y-05461D01*
X45191Y-05348D01*
X45214Y-05281D01*
X45258Y-05236D01*
X45303Y-05213D01*
X45393Y-05191D01*
X45461Y-05191D01*
X45551Y-05213D01*
X45596Y-05236D01*
X45641Y-05281D01*
X45663Y-05348D01*
X45663Y-05461D01*
X45618Y-04719D02*
X45641Y-04741D01*
X45663Y-04809D01*
X45663Y-04854D01*
X45641Y-04921D01*
X45596Y-04966D01*
X45551Y-04989D01*
X45461Y-05011D01*
X45393Y-05011D01*
X45303Y-04989D01*
X45258Y-04966D01*
X45214Y-04921D01*
X45191Y-04854D01*
X45191Y-04809D01*
X45214Y-04741D01*
X45236Y-04719D01*
X45191Y-04292D02*
X45191Y-04517D01*
X45416Y-04539D01*
X45393Y-04517D01*
X45371Y-04472D01*
X45371Y-04359D01*
X45393Y-04314D01*
X45416Y-04292D01*
X45461Y-04269D01*
X45573Y-04269D01*
X45618Y-04292D01*
X45641Y-04314D01*
X45663Y-04359D01*
X45663Y-04472D01*
X45641Y-04517D01*
X45618Y-04539D01*
X45191Y-04134D02*
X45663Y-03977D01*
X45191Y-03819D01*
X45663Y-03302D02*
X45191Y-03302D01*
X45663Y-03077D02*
X45191Y-03077D01*
X45663Y-02807D01*
X45191Y-02807D01*
X40720Y-03873D02*
X40742Y-03806D01*
X40742Y-03693D01*
X40720Y-03648D01*
X40697Y-03626D01*
X40652Y-03603D01*
X40607Y-03603D01*
X40562Y-03626D01*
X40540Y-03648D01*
X40517Y-03693D01*
X40495Y-03783D01*
X40472Y-03828D01*
X40450Y-03851D01*
X40405Y-03873D01*
X40360Y-03873D01*
X40315Y-03851D01*
X40293Y-03828D01*
X40270Y-03783D01*
X40270Y-03671D01*
X40293Y-03603D01*
X40248Y-03063D02*
X40854Y-03468D01*
X40742Y-02907D02*
X40270Y-02907D01*
X40270Y-02727D01*
X40293Y-02682D01*
X40315Y-02659D01*
X40360Y-02637D01*
X40427Y-02637D01*
X40472Y-02659D01*
X40495Y-02682D01*
X40517Y-02727D01*
X40517Y-02907D01*
X40742Y-02435D02*
X40270Y-02435D01*
X40270Y-02322D01*
X40293Y-02255D01*
X40337Y-02210D01*
X40382Y-02187D01*
X40472Y-02165D01*
X40540Y-02165D01*
X40630Y-02187D01*
X40675Y-02210D01*
X40720Y-02255D01*
X40742Y-02322D01*
X40742Y-02435D01*
X40742Y-01963D02*
X40270Y-01963D01*
X40495Y-01580D02*
X40495Y-01738D01*
X40742Y-01738D02*
X40270Y-01738D01*
X40270Y-01513D01*
X40742Y-00973D02*
X40270Y-00973D01*
X40742Y-00748D02*
X40270Y-00748D01*
X40742Y-00478D01*
X40270Y-00478D01*
X34224Y-04818D02*
X34246Y-04751D01*
X34246Y-04638D01*
X34224Y-04593D01*
X34201Y-04571D01*
X34156Y-04548D01*
X34111Y-04548D01*
X34066Y-04571D01*
X34044Y-04593D01*
X34021Y-04638D01*
X33999Y-04728D01*
X33976Y-04773D01*
X33954Y-04796D01*
X33909Y-04818D01*
X33864Y-04818D01*
X33819Y-04796D01*
X33797Y-04773D01*
X33774Y-04728D01*
X33774Y-04616D01*
X33797Y-04548D01*
X33752Y-04008D02*
X34358Y-04413D01*
X34246Y-03852D02*
X33774Y-03852D01*
X33774Y-03672D01*
X33797Y-03627D01*
X33819Y-03604D01*
X33864Y-03582D01*
X33931Y-03582D01*
X33976Y-03604D01*
X33999Y-03627D01*
X34021Y-03672D01*
X34021Y-03852D01*
X34246Y-03380D02*
X33774Y-03380D01*
X33774Y-03267D01*
X33797Y-03200D01*
X33841Y-03155D01*
X33886Y-03132D01*
X33976Y-03110D01*
X34044Y-03110D01*
X34134Y-03132D01*
X34179Y-03155D01*
X34224Y-03200D01*
X34246Y-03267D01*
X34246Y-03380D01*
X34246Y-02908D02*
X33774Y-02908D01*
X33999Y-02525D02*
X33999Y-02683D01*
X34246Y-02683D02*
X33774Y-02683D01*
X33774Y-02458D01*
X33774Y-01985D02*
X33774Y-01715D01*
X34246Y-01850D02*
X33774Y-01850D01*
X34246Y-01558D02*
X33774Y-01558D01*
X33999Y-01558D02*
X33999Y-01288D01*
X34246Y-01288D02*
X33774Y-01288D01*
X34246Y-00794D02*
X34021Y-00951D01*
X34246Y-01064D02*
X33774Y-01064D01*
X33774Y-00884D01*
X33797Y-00839D01*
X33819Y-00816D01*
X33864Y-00794D01*
X33931Y-00794D01*
X33976Y-00816D01*
X33999Y-00839D01*
X34021Y-00884D01*
X34021Y-01064D01*
X33774Y-00592D02*
X34156Y-00592D01*
X34201Y-00569D01*
X34224Y-00547D01*
X34246Y-00502D01*
X34246Y-00412D01*
X34224Y-00367D01*
X34201Y-00344D01*
X34156Y-00322D01*
X33774Y-00322D01*
X27553Y-02541D02*
X27553Y-02766D01*
X27081Y-02766D01*
X27553Y-02384D02*
X27081Y-02384D01*
X27553Y-02159D02*
X27081Y-02159D01*
X27553Y-01889D01*
X27081Y-01889D01*
X27306Y-01665D02*
X27306Y-01507D01*
X27553Y-01440D02*
X27553Y-01665D01*
X27081Y-01665D01*
X27081Y-01440D01*
X27553Y-00878D02*
X27081Y-00878D01*
X27553Y-00653D02*
X27081Y-00653D01*
X27553Y-00383D01*
X27081Y-00383D01*
X22041Y-03682D02*
X22041Y-03907D01*
X21569Y-03907D01*
X22041Y-03525D02*
X21569Y-03525D01*
X22041Y-03300D02*
X21569Y-03300D01*
X22041Y-03030D01*
X21569Y-03030D01*
X21794Y-02806D02*
X21794Y-02648D01*
X22041Y-02581D02*
X22041Y-02806D01*
X21569Y-02806D01*
X21569Y-02581D01*
X21569Y-02086D02*
X21569Y-01816D01*
X22041Y-01951D02*
X21569Y-01951D01*
X22041Y-01659D02*
X21569Y-01659D01*
X21794Y-01659D02*
X21794Y-01389D01*
X22041Y-01389D02*
X21569Y-01389D01*
X22041Y-00895D02*
X21816Y-01052D01*
X22041Y-01165D02*
X21569Y-01165D01*
X21569Y-00985D01*
X21592Y-00940D01*
X21614Y-00917D01*
X21659Y-00895D01*
X21726Y-00895D01*
X21771Y-00917D01*
X21794Y-00940D01*
X21816Y-00985D01*
X21816Y-01165D01*
X21569Y-00693D02*
X21951Y-00693D01*
X21996Y-00670D01*
X22019Y-00648D01*
X22041Y-00603D01*
X22041Y-00513D01*
X22019Y-00468D01*
X21996Y-00445D01*
X21951Y-00423D01*
X21569Y-00423D01*
G54D13*
X08564Y-03308D02*
X08695Y-03702D01*
X08826Y-03308D01*
X09183Y-03702D02*
X09052Y-03515D01*
X08958Y-03702D02*
X08958Y-03308D01*
X09108Y-03308D01*
X09145Y-03327D01*
X09164Y-03346D01*
X09183Y-03384D01*
X09183Y-03440D01*
X09164Y-03477D01*
X09145Y-03496D01*
X09108Y-03515D01*
X08958Y-03515D01*
X09502Y-03684D02*
X09464Y-03702D01*
X09389Y-03702D01*
X09352Y-03684D01*
X09333Y-03646D01*
X09333Y-03496D01*
X09352Y-03459D01*
X09389Y-03440D01*
X09464Y-03440D01*
X09502Y-03459D01*
X09521Y-03496D01*
X09521Y-03534D01*
X09333Y-03571D01*
X09634Y-03440D02*
X09784Y-03440D01*
X09690Y-03702D02*
X09690Y-03365D01*
X09709Y-03327D01*
X09746Y-03308D01*
X09784Y-03308D01*
X07878Y-03665D02*
X07859Y-03684D01*
X07803Y-03702D01*
X07765Y-03702D01*
X07709Y-03684D01*
X07672Y-03646D01*
X07653Y-03609D01*
X07634Y-03534D01*
X07634Y-03477D01*
X07653Y-03402D01*
X07672Y-03365D01*
X07709Y-03327D01*
X07765Y-03308D01*
X07803Y-03308D01*
X07859Y-03327D01*
X07878Y-03346D01*
X08047Y-03702D02*
X08047Y-03308D01*
X08272Y-03702D02*
X08103Y-03477D01*
X08272Y-03308D02*
X08047Y-03534D01*
X06811Y-03702D02*
X06811Y-03308D01*
X06905Y-03308D01*
X06961Y-03327D01*
X06998Y-03365D01*
X07017Y-03402D01*
X07036Y-03477D01*
X07036Y-03534D01*
X07017Y-03609D01*
X06998Y-03646D01*
X06961Y-03684D01*
X06905Y-03702D01*
X06811Y-03702D01*
X07205Y-03702D02*
X07205Y-03308D01*
X05666Y-03702D02*
X05666Y-03308D01*
X05797Y-03590D01*
X05928Y-03308D01*
X05928Y-03702D01*
X06097Y-03684D02*
X06153Y-03702D01*
X06247Y-03702D01*
X06285Y-03684D01*
X06303Y-03665D01*
X06322Y-03627D01*
X06322Y-03590D01*
X06303Y-03552D01*
X06285Y-03534D01*
X06247Y-03515D01*
X06172Y-03496D01*
X06135Y-03477D01*
X06116Y-03459D01*
X06097Y-03421D01*
X06097Y-03384D01*
X06116Y-03346D01*
X06135Y-03327D01*
X06172Y-03308D01*
X06266Y-03308D01*
X06322Y-03327D01*
X04652Y-03702D02*
X04652Y-03308D01*
X04746Y-03308D01*
X04802Y-03327D01*
X04839Y-03365D01*
X04858Y-03402D01*
X04877Y-03477D01*
X04877Y-03534D01*
X04858Y-03609D01*
X04839Y-03646D01*
X04802Y-03684D01*
X04746Y-03702D01*
X04652Y-03702D01*
X05121Y-03308D02*
X05196Y-03308D01*
X05233Y-03327D01*
X05271Y-03365D01*
X05290Y-03440D01*
X05290Y-03571D01*
X05271Y-03646D01*
X05233Y-03684D01*
X05196Y-03702D01*
X05121Y-03702D01*
X05083Y-03684D01*
X05046Y-03646D01*
X05027Y-03571D01*
X05027Y-03440D01*
X05046Y-03365D01*
X05083Y-03327D01*
X05121Y-03308D01*
X04040Y-03327D02*
X04003Y-03308D01*
X03946Y-03308D01*
X03890Y-03327D01*
X03853Y-03365D01*
X03834Y-03402D01*
X03815Y-03477D01*
X03815Y-03534D01*
X03834Y-03609D01*
X03853Y-03646D01*
X03890Y-03684D01*
X03946Y-03702D01*
X03984Y-03702D01*
X04040Y-03684D01*
X04059Y-03665D01*
X04059Y-03534D01*
X03984Y-03534D01*
G54D11*
X11222Y-11420D02*
X10978Y-11420D01*
X10978Y-10829D01*
X11563Y-11110D02*
X11392Y-11110D01*
X11392Y-11420D02*
X11392Y-10829D01*
X11636Y-10829D01*
X11782Y-10829D02*
X12123Y-11420D01*
X12123Y-10829D02*
X11782Y-11420D01*
X12319Y-11420D02*
X12319Y-10829D01*
X12514Y-10829D01*
X12563Y-10857D01*
X12587Y-10885D01*
X12611Y-10941D01*
X12611Y-11026D01*
X12587Y-11082D01*
X12563Y-11110D01*
X12514Y-11138D01*
X12319Y-11138D01*
X12807Y-10885D02*
X12831Y-10857D01*
X12880Y-10829D01*
X13002Y-10829D01*
X13050Y-10857D01*
X13075Y-10885D01*
X13099Y-10941D01*
X13099Y-10998D01*
X13075Y-11082D01*
X12782Y-11420D01*
X13099Y-11420D01*
X13319Y-11195D02*
X13709Y-11195D01*
X14026Y-11082D02*
X13977Y-11054D01*
X13953Y-11026D01*
X13929Y-10969D01*
X13929Y-10941D01*
X13953Y-10885D01*
X13977Y-10857D01*
X14026Y-10829D01*
X14124Y-10829D01*
X14172Y-10857D01*
X14197Y-10885D01*
X14221Y-10941D01*
X14221Y-10969D01*
X14197Y-11026D01*
X14172Y-11054D01*
X14124Y-11082D01*
X14026Y-11082D01*
X13977Y-11110D01*
X13953Y-11138D01*
X13929Y-11195D01*
X13929Y-11307D01*
X13953Y-11363D01*
X13977Y-11392D01*
X14026Y-11420D01*
X14124Y-11420D01*
X14172Y-11392D01*
X14197Y-11363D01*
X14221Y-11307D01*
X14221Y-11195D01*
X14197Y-11138D01*
X14172Y-11110D01*
X14124Y-11082D01*
X14441Y-11110D02*
X14612Y-11110D01*
X14685Y-11420D02*
X14441Y-11420D01*
X14441Y-10829D01*
X14685Y-10829D01*
X14904Y-11195D02*
X15294Y-11195D01*
X15465Y-10829D02*
X15757Y-10829D01*
X15611Y-11420D02*
X15611Y-10829D01*
X15928Y-11420D02*
X15928Y-10829D01*
X16220Y-11420D01*
X16220Y-10829D01*
X16732Y-11420D02*
X16440Y-11420D01*
X16586Y-11420D02*
X16586Y-10829D01*
X16537Y-10913D01*
X16488Y-10969D01*
X16440Y-10998D01*
X17171Y-11026D02*
X17171Y-11420D01*
X17049Y-10801D02*
X16928Y-11223D01*
X17244Y-11223D01*
X17659Y-11026D02*
X17659Y-11420D01*
X17537Y-10801D02*
X17416Y-11223D01*
X17732Y-11223D01*
X04337Y-18797D02*
X04292Y-18774D01*
X04224Y-18774D01*
X04157Y-18797D01*
X04112Y-18841D01*
X04089Y-18886D01*
X04067Y-18976D01*
X04067Y-19044D01*
X04089Y-19134D01*
X04112Y-19179D01*
X04157Y-19224D01*
X04224Y-19246D01*
X04269Y-19246D01*
X04337Y-19224D01*
X04359Y-19201D01*
X04359Y-19044D01*
X04269Y-19044D01*
G54D14*
X09036Y-07954D02*
X09036Y-08544D01*
X03229Y-08544D02*
X03229Y-07954D01*
X09036Y-08544D02*
X03229Y-08544D01*
X03229Y-07954D02*
X09036Y-07954D01*
G54D12*
X00787Y-03505D02*
X00600Y-03505D01*
X00600Y-03111D01*
X01444Y-03468D02*
X01425Y-03487D01*
X01369Y-03505D01*
X01331Y-03505D01*
X01275Y-03487D01*
X01238Y-03449D01*
X01219Y-03412D01*
X01200Y-03337D01*
X01200Y-03280D01*
X01219Y-03205D01*
X01238Y-03168D01*
X01275Y-03130D01*
X01331Y-03111D01*
X01369Y-03111D01*
X01425Y-03130D01*
X01444Y-03149D01*
X01688Y-03111D02*
X01763Y-03111D01*
X01800Y-03130D01*
X01838Y-03168D01*
X01857Y-03243D01*
X01857Y-03374D01*
X01838Y-03449D01*
X01800Y-03487D01*
X01763Y-03505D01*
X01688Y-03505D01*
X01650Y-03487D01*
X01613Y-03449D01*
X01594Y-03374D01*
X01594Y-03243D01*
X01613Y-03168D01*
X01650Y-03130D01*
X01688Y-03111D01*
X02026Y-03505D02*
X02026Y-03111D01*
X02251Y-03505D01*
X02251Y-03111D01*
X02383Y-03111D02*
X02608Y-03111D01*
X02495Y-03505D02*
X02495Y-03111D01*
X21929Y-19293D02*
X21798Y-19106D01*
X21704Y-19293D02*
X21704Y-18899D01*
X21854Y-18899D01*
X21891Y-18918D01*
X21910Y-18937D01*
X21929Y-18975D01*
X21929Y-19031D01*
X21910Y-19068D01*
X21891Y-19087D01*
X21854Y-19106D01*
X21704Y-19106D01*
X22623Y-19256D02*
X22604Y-19275D01*
X22548Y-19293D01*
X22510Y-19293D01*
X22454Y-19275D01*
X22417Y-19237D01*
X22398Y-19200D01*
X22379Y-19125D01*
X22379Y-19068D01*
X22398Y-18993D01*
X22417Y-18956D01*
X22454Y-18918D01*
X22510Y-18899D01*
X22548Y-18899D01*
X22604Y-18918D01*
X22623Y-18937D01*
X22867Y-18899D02*
X22942Y-18899D01*
X22979Y-18918D01*
X23017Y-18956D01*
X23036Y-19031D01*
X23036Y-19162D01*
X23017Y-19237D01*
X22979Y-19275D01*
X22942Y-19293D01*
X22867Y-19293D01*
X22829Y-19275D01*
X22792Y-19237D01*
X22773Y-19162D01*
X22773Y-19031D01*
X22792Y-18956D01*
X22829Y-18918D01*
X22867Y-18899D01*
X23205Y-19293D02*
X23205Y-18899D01*
X23430Y-19293D01*
X23430Y-18899D01*
X23562Y-18899D02*
X23787Y-18899D01*
X23674Y-19293D02*
X23674Y-18899D01*
G54D14*
X03228Y-12559D02*
X09035Y-12559D01*
X09035Y-13149D02*
X03228Y-13149D01*
X03386Y-11378D02*
X04173Y-11378D01*
X04173Y-10000D02*
X03386Y-10000D01*
X03228Y-13149D02*
X03228Y-12559D01*
X09035Y-12559D02*
X09035Y-13149D01*
X08110Y-11378D02*
X07519Y-11378D01*
X08110Y-10788D02*
X08110Y-11378D01*
X07519Y-10788D02*
X08110Y-10788D01*
X07519Y-10788D02*
X07519Y-11870D01*
X08897Y-11083D02*
X08897Y-10788D01*
X08307Y-11083D02*
X08897Y-11083D01*
X08307Y-10788D02*
X08897Y-10788D01*
X08307Y-11378D02*
X08307Y-10788D01*
X08897Y-11378D02*
X08307Y-11378D01*
X06732Y-10788D02*
X07323Y-10788D01*
X07323Y-11378D02*
X07323Y-10788D01*
X06732Y-11378D02*
X07323Y-11378D01*
X06732Y-10788D02*
X06732Y-11378D01*
X06240Y-10591D02*
X06240Y-11378D01*
X05945Y-10788D02*
X06536Y-10788D01*
X05748Y-10788D02*
X05158Y-10788D01*
X05748Y-11378D02*
X05748Y-10788D01*
X05158Y-11378D02*
X05748Y-11378D01*
X05158Y-10788D02*
X05158Y-11378D01*
X04961Y-11378D02*
X04371Y-11378D01*
X04371Y-10788D02*
X04961Y-11378D01*
X04961Y-10788D02*
X04371Y-10788D01*
X03780Y-10000D02*
X03780Y-11378D01*
G54D12*
X04976Y-12270D02*
X04976Y-11916D01*
X05128Y-12253D02*
X05179Y-12270D01*
X05263Y-12270D01*
X05297Y-12253D01*
X05314Y-12237D01*
X05331Y-12203D01*
X05331Y-12169D01*
X05314Y-12135D01*
X05297Y-12119D01*
X05263Y-12102D01*
X05196Y-12085D01*
X05162Y-12068D01*
X05145Y-12051D01*
X05128Y-12017D01*
X05128Y-11984D01*
X05145Y-11950D01*
X05162Y-11933D01*
X05196Y-11916D01*
X05280Y-11916D01*
X05331Y-11933D01*
X05482Y-12135D02*
X05752Y-12135D01*
X06106Y-12270D02*
X05903Y-12270D01*
X06005Y-12270D02*
X06005Y-11916D01*
X05971Y-11967D01*
X05937Y-12001D01*
X05903Y-12017D01*
X06240Y-12253D02*
X06291Y-12270D01*
X06375Y-12270D01*
X06409Y-12253D01*
X06426Y-12237D01*
X06443Y-12203D01*
X06443Y-12169D01*
X06426Y-12135D01*
X06409Y-12119D01*
X06375Y-12102D01*
X06308Y-12085D01*
X06274Y-12068D01*
X06257Y-12051D01*
X06240Y-12017D01*
X06240Y-11984D01*
X06257Y-11950D01*
X06274Y-11933D01*
X06308Y-11916D01*
X06392Y-11916D01*
X06443Y-11933D01*
X06847Y-11899D02*
X06544Y-12355D01*
X06965Y-12270D02*
X06965Y-11916D01*
X07050Y-11916D01*
X07100Y-11933D01*
X07134Y-11967D01*
X07151Y-12001D01*
X07168Y-12068D01*
X07168Y-12119D01*
X07151Y-12186D01*
X07134Y-12220D01*
X07100Y-12253D01*
X07050Y-12270D01*
X06965Y-12270D01*
G54D11*
X42407Y-18246D02*
X42362Y-18223D01*
X42294Y-18223D01*
X42227Y-18246D01*
X42182Y-18290D01*
X42159Y-18335D01*
X42137Y-18425D01*
X42137Y-18493D01*
X42159Y-18583D01*
X42182Y-18628D01*
X42227Y-18673D01*
X42294Y-18695D01*
X42339Y-18695D01*
X42407Y-18673D01*
X42429Y-18650D01*
X42429Y-18493D01*
X42339Y-18493D01*
X42407Y-16671D02*
X42362Y-16648D01*
X42294Y-16648D01*
X42227Y-16671D01*
X42182Y-16715D01*
X42159Y-16760D01*
X42137Y-16850D01*
X42137Y-16918D01*
X42159Y-17008D01*
X42182Y-17053D01*
X42227Y-17098D01*
X42294Y-17120D01*
X42339Y-17120D01*
X42407Y-17098D01*
X42429Y-17075D01*
X42429Y-16918D01*
X42339Y-16918D01*
G54D12*
X02951Y-09506D02*
X02951Y-09073D01*
X03069Y-09382D01*
X03187Y-09073D01*
X03187Y-09506D01*
X03508Y-09217D02*
X03508Y-09506D01*
X03356Y-09217D02*
X03356Y-09444D01*
X03373Y-09485D01*
X03407Y-09506D01*
X03457Y-09506D01*
X03491Y-09485D01*
X03508Y-09465D01*
X03659Y-09485D02*
X03693Y-09506D01*
X03761Y-09506D01*
X03794Y-09485D01*
X03811Y-09444D01*
X03811Y-09423D01*
X03794Y-09382D01*
X03761Y-09361D01*
X03710Y-09361D01*
X03676Y-09341D01*
X03659Y-09300D01*
X03659Y-09279D01*
X03676Y-09238D01*
X03710Y-09217D01*
X03761Y-09217D01*
X03794Y-09238D01*
X03963Y-09506D02*
X03963Y-09217D01*
X03963Y-09073D02*
X03946Y-09093D01*
X03963Y-09114D01*
X03980Y-09093D01*
X03963Y-09073D01*
X03963Y-09114D01*
X04284Y-09485D02*
X04250Y-09506D01*
X04183Y-09506D01*
X04149Y-09485D01*
X04132Y-09465D01*
X04115Y-09423D01*
X04115Y-09300D01*
X04132Y-09258D01*
X04149Y-09238D01*
X04183Y-09217D01*
X04250Y-09217D01*
X04284Y-09238D01*
X04688Y-09485D02*
X04739Y-09506D01*
X04823Y-09506D01*
X04857Y-09485D01*
X04874Y-09465D01*
X04891Y-09423D01*
X04891Y-09382D01*
X04874Y-09341D01*
X04857Y-09320D01*
X04823Y-09300D01*
X04756Y-09279D01*
X04722Y-09258D01*
X04705Y-09238D01*
X04688Y-09196D01*
X04688Y-09155D01*
X04705Y-09114D01*
X04722Y-09093D01*
X04756Y-09073D01*
X04840Y-09073D01*
X04891Y-09093D01*
X05042Y-09217D02*
X05042Y-09650D01*
X05042Y-09238D02*
X05076Y-09217D01*
X05143Y-09217D01*
X05177Y-09238D01*
X05194Y-09258D01*
X05211Y-09300D01*
X05211Y-09423D01*
X05194Y-09465D01*
X05177Y-09485D01*
X05143Y-09506D01*
X05076Y-09506D01*
X05042Y-09485D01*
X05497Y-09485D02*
X05463Y-09506D01*
X05396Y-09506D01*
X05362Y-09485D01*
X05345Y-09444D01*
X05345Y-09279D01*
X05362Y-09238D01*
X05396Y-09217D01*
X05463Y-09217D01*
X05497Y-09238D01*
X05514Y-09279D01*
X05514Y-09320D01*
X05345Y-09361D01*
X05817Y-09485D02*
X05783Y-09506D01*
X05716Y-09506D01*
X05682Y-09485D01*
X05665Y-09465D01*
X05648Y-09423D01*
X05648Y-09300D01*
X05665Y-09258D01*
X05682Y-09238D01*
X05716Y-09217D01*
X05783Y-09217D01*
X05817Y-09238D01*
X05918Y-09217D02*
X06053Y-09217D01*
X05968Y-09073D02*
X05968Y-09444D01*
X05985Y-09485D01*
X06019Y-09506D01*
X06053Y-09506D01*
X06170Y-09506D02*
X06170Y-09217D01*
X06170Y-09300D02*
X06187Y-09258D01*
X06204Y-09238D01*
X06238Y-09217D01*
X06271Y-09217D01*
X06541Y-09217D02*
X06541Y-09506D01*
X06389Y-09217D02*
X06389Y-09444D01*
X06406Y-09485D01*
X06440Y-09506D01*
X06490Y-09506D01*
X06524Y-09485D01*
X06541Y-09465D01*
X06709Y-09506D02*
X06709Y-09217D01*
X06709Y-09258D02*
X06726Y-09238D01*
X06760Y-09217D01*
X06810Y-09217D01*
X06844Y-09238D01*
X06861Y-09279D01*
X06861Y-09506D01*
X06861Y-09279D02*
X06878Y-09238D01*
X06912Y-09217D01*
X06962Y-09217D01*
X06996Y-09238D01*
X07013Y-09279D01*
X07013Y-09506D01*
X07434Y-09382D02*
X07603Y-09382D01*
X07401Y-09506D02*
X07519Y-09073D01*
X07637Y-09506D01*
X07754Y-09217D02*
X07754Y-09506D01*
X07754Y-09258D02*
X07771Y-09238D01*
X07805Y-09217D01*
X07855Y-09217D01*
X07889Y-09238D01*
X07906Y-09279D01*
X07906Y-09506D01*
X08226Y-09506D02*
X08226Y-09279D01*
X08209Y-09238D01*
X08175Y-09217D01*
X08108Y-09217D01*
X08074Y-09238D01*
X08226Y-09485D02*
X08192Y-09506D01*
X08108Y-09506D01*
X08074Y-09485D01*
X08057Y-09444D01*
X08057Y-09403D01*
X08074Y-09361D01*
X08108Y-09341D01*
X08192Y-09341D01*
X08226Y-09320D01*
X08445Y-09506D02*
X08411Y-09485D01*
X08394Y-09444D01*
X08394Y-09073D01*
X08546Y-09217D02*
X08630Y-09506D01*
X08714Y-09217D02*
X08630Y-09506D01*
X08596Y-09609D01*
X08579Y-09629D01*
X08546Y-09650D01*
X08816Y-09217D02*
X09001Y-09217D01*
X08816Y-09506D01*
X09001Y-09506D01*
X09271Y-09485D02*
X09237Y-09506D01*
X09170Y-09506D01*
X09136Y-09485D01*
X09119Y-09444D01*
X09119Y-09279D01*
X09136Y-09238D01*
X09170Y-09217D01*
X09237Y-09217D01*
X09271Y-09238D01*
X09288Y-09279D01*
X09288Y-09320D01*
X09119Y-09361D01*
X09439Y-09506D02*
X09439Y-09217D01*
X09439Y-09300D02*
X09456Y-09258D01*
X09473Y-09238D01*
X09507Y-09217D01*
X09540Y-09217D01*
G54D15*
X33464Y-05709D02*
X29133Y-05709D01*
X29133Y-05670D02*
X29133Y-04134D01*
X33071Y-00985D02*
X33071Y-00197D01*
X33071Y-00197D02*
X29133Y-00197D01*
X29133Y-00197D02*
X29133Y-00985D01*
G54D16*
X32677Y-00198D02*
X29527Y-00198D01*
X29134Y-05709D02*
X33464Y-05709D01*
X33464Y-05709D02*
X33464Y-04528D01*
X33464Y-04528D02*
X33071Y-04528D01*
G54D15*
X33071Y-00985D02*
X33071Y-04528D01*
G54D17*
X33071Y-04528D02*
X33464Y-04528D01*
G54D15*
X33464Y-04528D02*
X33464Y-05709D01*
X29134Y-04135D02*
X29134Y-00985D01*
X40157Y-05709D02*
X35826Y-05709D01*
X35826Y-05670D02*
X35826Y-04134D01*
X39764Y-00985D02*
X39764Y-00197D01*
X39764Y-00197D02*
X35826Y-00197D01*
X35826Y-00197D02*
X35826Y-00985D01*
G54D16*
X39370Y-00198D02*
X36220Y-00198D01*
X35827Y-05709D02*
X40157Y-05709D01*
X40157Y-05709D02*
X40157Y-04528D01*
X40157Y-04528D02*
X39764Y-04528D01*
G54D15*
X39764Y-00985D02*
X39764Y-04528D01*
G54D17*
X39764Y-04528D02*
X40157Y-04528D01*
G54D15*
X40157Y-04528D02*
X40157Y-05709D01*
X35827Y-04135D02*
X35827Y-00985D01*
X37126Y-15944D02*
X37126Y-14370D01*
X35324Y-16257D02*
X35324Y-14057D01*
X35224Y-14057D02*
X35224Y-16257D01*
X35124Y-16257D02*
X35124Y-14057D01*
X35024Y-14057D02*
X35024Y-16257D01*
X34924Y-16257D02*
X34924Y-14057D01*
X37008Y-15157D02*
X36989Y-15348D01*
X36933Y-15531D01*
X36843Y-15701D01*
X36722Y-15850D01*
X36574Y-15972D01*
X36405Y-16064D01*
X36221Y-16120D01*
X36030Y-16140D01*
X35840Y-16123D01*
X35656Y-16069D01*
X35486Y-15980D01*
X35336Y-15860D01*
X35213Y-15712D01*
X35120Y-15544D01*
X35062Y-15361D01*
X35041Y-15170D01*
X35057Y-14980D01*
X35110Y-14795D01*
X35197Y-14624D01*
X35317Y-14474D01*
X35463Y-14349D01*
X35631Y-14256D01*
X35813Y-14196D01*
X36004Y-14174D01*
X36194Y-14188D01*
X36379Y-14240D01*
X36551Y-14327D01*
X36702Y-14445D01*
X36828Y-14590D01*
X36922Y-14757D01*
X36983Y-14939D01*
X37007Y-15130D01*
X37008Y-15157D01*
X34922Y-14055D02*
X36811Y-14055D01*
X36811Y-14055D02*
X37126Y-14370D01*
X37126Y-15944D02*
X36811Y-16259D01*
X36811Y-16259D02*
X34922Y-16259D01*
X37126Y-18897D02*
X37126Y-17323D01*
X35324Y-19210D02*
X35324Y-17010D01*
X35224Y-17010D02*
X35224Y-19210D01*
X35124Y-19210D02*
X35124Y-17010D01*
X35024Y-17010D02*
X35024Y-19210D01*
X34924Y-19210D02*
X34924Y-17010D01*
X37008Y-18110D02*
X36989Y-18301D01*
X36933Y-18484D01*
X36843Y-18654D01*
X36722Y-18803D01*
X36574Y-18925D01*
X36405Y-19017D01*
X36221Y-19073D01*
X36030Y-19093D01*
X35840Y-19076D01*
X35656Y-19022D01*
X35486Y-18933D01*
X35336Y-18813D01*
X35213Y-18665D01*
X35120Y-18497D01*
X35062Y-18314D01*
X35041Y-18123D01*
X35057Y-17933D01*
X35110Y-17748D01*
X35197Y-17577D01*
X35317Y-17427D01*
X35463Y-17302D01*
X35631Y-17209D01*
X35813Y-17149D01*
X36004Y-17127D01*
X36194Y-17141D01*
X36379Y-17193D01*
X36551Y-17280D01*
X36702Y-17398D01*
X36828Y-17543D01*
X36922Y-17710D01*
X36983Y-17892D01*
X37007Y-18083D01*
X37008Y-18110D01*
X34922Y-17008D02*
X36811Y-17008D01*
X36811Y-17008D02*
X37126Y-17323D01*
X37126Y-18897D02*
X36811Y-19212D01*
X36811Y-19212D02*
X34922Y-19212D01*
X41732Y-05512D02*
X41732Y-00197D01*
X44882Y-05512D02*
X41732Y-05512D01*
X44882Y-05512D02*
X44882Y-00197D01*
X44882Y-00197D02*
X41732Y-00197D01*
G54D11*
X33386Y-14173D02*
X33780Y-14173D01*
X31968Y-13189D02*
X32047Y-13189D01*
X33780Y-14173D02*
X33780Y-13189D01*
X33780Y-13189D02*
X33701Y-13189D01*
X31968Y-13189D02*
X31968Y-14173D01*
X31968Y-14173D02*
X32362Y-14173D01*
X29524Y-16574D02*
X29524Y-17598D01*
X30390Y-16574D02*
X30390Y-17598D01*
X29808Y-16770D02*
X29806Y-16787D01*
X29801Y-16803D01*
X29793Y-16818D01*
X29782Y-16832D01*
X29769Y-16842D01*
X29754Y-16851D01*
X29737Y-16856D01*
X29720Y-16857D01*
X29704Y-16856D01*
X29688Y-16851D01*
X29672Y-16843D01*
X29659Y-16832D01*
X29648Y-16819D01*
X29640Y-16804D01*
X29634Y-16788D01*
X29633Y-16771D01*
X29634Y-16755D01*
X29639Y-16738D01*
X29647Y-16723D01*
X29657Y-16709D01*
X29670Y-16698D01*
X29685Y-16690D01*
X29702Y-16685D01*
X29719Y-16683D01*
X29735Y-16684D01*
X29751Y-16688D01*
X29767Y-16696D01*
X29780Y-16707D01*
X29791Y-16720D01*
X29800Y-16735D01*
X29805Y-16751D01*
X29807Y-16768D01*
X29808Y-16770D01*
X30390Y-17598D02*
X29524Y-17598D01*
X30390Y-16574D02*
X29524Y-16574D01*
X21850Y-10666D02*
X21496Y-10666D01*
X21496Y-10666D02*
X21496Y-10312D01*
X21771Y-10430D02*
X21732Y-10391D01*
X21890Y-10469D02*
X21693Y-10272D01*
X21968Y-10469D02*
X21693Y-10194D01*
X21693Y-08501D02*
X21968Y-08501D01*
X21693Y-10194D02*
X21693Y-10469D01*
X21693Y-10469D02*
X21968Y-10469D01*
X23661Y-10469D02*
X23386Y-10469D01*
X23661Y-10469D02*
X23661Y-10194D01*
X23661Y-08501D02*
X23661Y-08737D01*
X23661Y-08501D02*
X23425Y-08501D01*
X21693Y-08776D02*
X21693Y-08501D01*
G54D15*
X36011Y-13505D02*
X36011Y-10905D01*
X35911Y-10905D02*
X35911Y-13505D01*
X35811Y-13505D02*
X35811Y-10905D01*
X35711Y-10905D02*
X35711Y-13505D01*
X35611Y-13505D02*
X35611Y-10905D01*
X38110Y-11339D02*
X38110Y-13071D01*
X38110Y-13071D02*
X37677Y-13504D01*
X37677Y-13504D02*
X35512Y-13504D01*
X37677Y-10906D02*
X35512Y-10906D01*
X37677Y-10906D02*
X38110Y-11339D01*
X35512Y-13504D02*
X35512Y-10906D01*
X38051Y-12205D02*
X38027Y-12445D01*
X37957Y-12677D01*
X37843Y-12891D01*
X37690Y-13078D01*
X37504Y-13233D01*
X37291Y-13348D01*
X37060Y-13419D01*
X36819Y-13444D01*
X36579Y-13423D01*
X36347Y-13354D01*
X36133Y-13242D01*
X35944Y-13090D01*
X35788Y-12905D01*
X35672Y-12693D01*
X35599Y-12462D01*
X35572Y-12222D01*
X35592Y-11982D01*
X35659Y-11749D01*
X35769Y-11534D01*
X35920Y-11344D01*
X36104Y-11187D01*
X36315Y-11069D01*
X36545Y-10994D01*
X36786Y-10966D01*
X37026Y-10984D01*
X37259Y-11049D01*
X37475Y-11159D01*
X37666Y-11308D01*
X37824Y-11491D01*
X37943Y-11701D01*
X38020Y-11931D01*
X38050Y-12171D01*
X38051Y-12205D01*
G54D11*
X38996Y-17971D02*
X38444Y-17971D01*
X38996Y-17932D02*
X38444Y-17932D01*
X38996Y-17892D02*
X38444Y-17892D01*
X38996Y-17853D02*
X38996Y-18011D01*
X38996Y-18011D02*
X38444Y-18011D01*
X38444Y-18011D02*
X38444Y-17853D01*
X38444Y-17853D02*
X38996Y-17853D01*
G54D18*
X41621Y-08403D02*
X41281Y-08403D01*
X41281Y-08403D02*
X41281Y-09543D01*
X41621Y-09543D02*
X41281Y-09543D01*
X41621Y-08403D02*
X41621Y-09543D01*
X39821Y-08403D02*
X39481Y-08403D01*
X39481Y-08403D02*
X39481Y-09543D01*
X39821Y-09543D02*
X39481Y-09543D01*
X39821Y-08403D02*
X39821Y-09543D01*
X40721Y-09243D02*
X40381Y-09243D01*
X40381Y-09243D02*
X40381Y-09543D01*
X40721Y-09543D02*
X40381Y-09543D01*
X40721Y-09243D02*
X40721Y-09543D01*
G54D19*
X39261Y-11943D02*
X39261Y-09583D01*
X39261Y-09583D02*
X41841Y-09583D01*
X41841Y-09583D02*
X41841Y-11943D01*
X41841Y-11942D02*
X39261Y-11942D01*
X41561Y-11983D02*
X41561Y-12263D01*
X41561Y-12263D02*
X41381Y-12443D01*
X41381Y-12443D02*
X39721Y-12443D01*
X39721Y-12443D02*
X39541Y-12263D01*
X39541Y-12263D02*
X39541Y-11983D01*
X39541Y-11983D02*
X41561Y-11983D01*
G54D20*
X41561Y-11983D02*
X41561Y-12263D01*
X41561Y-12263D02*
X41381Y-12443D01*
X41381Y-12443D02*
X39721Y-12443D01*
X39721Y-12443D02*
X39541Y-12263D01*
X39541Y-12263D02*
X39541Y-11983D01*
X39541Y-11983D02*
X41561Y-11983D01*
G54D11*
X10630Y-00985D02*
X17716Y-00985D01*
X17716Y-00985D02*
X17716Y-04725D01*
X17716Y-04725D02*
X10630Y-04725D01*
X10630Y-04725D02*
X10630Y-00985D01*
X11497Y-04135D02*
X11491Y-04188D01*
X11476Y-04240D01*
X11450Y-04288D01*
X11416Y-04330D01*
X11374Y-04364D01*
X11327Y-04390D01*
X11275Y-04406D01*
X11221Y-04411D01*
X11169Y-04407D01*
X11117Y-04391D01*
X11069Y-04366D01*
X11027Y-04332D01*
X10992Y-04291D01*
X10966Y-04244D01*
X10950Y-04192D01*
X10944Y-04138D01*
X10948Y-04085D01*
X10963Y-04034D01*
X10988Y-03985D01*
X11021Y-03943D01*
X11062Y-03908D01*
X11110Y-03882D01*
X11161Y-03865D01*
X11215Y-03859D01*
X11268Y-03863D01*
X11320Y-03877D01*
X11368Y-03902D01*
X11411Y-03935D01*
X11446Y-03976D01*
X11473Y-04023D01*
X11490Y-04074D01*
X11496Y-04128D01*
X11497Y-04135D01*
G54D15*
X48194Y-18110D02*
X48168Y-18371D01*
X48092Y-18622D01*
X47969Y-18853D01*
X47803Y-19057D01*
X47601Y-19224D01*
X47370Y-19348D01*
X47120Y-19426D01*
X46859Y-19453D01*
X46599Y-19430D01*
X46347Y-19356D01*
X46115Y-19234D01*
X45910Y-19070D01*
X45742Y-18869D01*
X45615Y-18639D01*
X45536Y-18389D01*
X45507Y-18128D01*
X45529Y-17868D01*
X45601Y-17616D01*
X45721Y-17382D01*
X45884Y-17177D01*
X46083Y-17007D01*
X46312Y-16879D01*
X46562Y-16798D01*
X46822Y-16767D01*
X47083Y-16787D01*
X47336Y-16857D01*
X47570Y-16976D01*
X47776Y-17137D01*
X47948Y-17336D01*
X48077Y-17564D01*
X48160Y-17813D01*
X48193Y-18073D01*
X48194Y-18110D01*
X48194Y-01575D02*
X48168Y-01836D01*
X48092Y-02087D01*
X47969Y-02318D01*
X47803Y-02522D01*
X47601Y-02689D01*
X47370Y-02813D01*
X47120Y-02891D01*
X46859Y-02918D01*
X46599Y-02895D01*
X46347Y-02821D01*
X46115Y-02699D01*
X45910Y-02535D01*
X45742Y-02334D01*
X45615Y-02104D01*
X45536Y-01854D01*
X45507Y-01593D01*
X45529Y-01333D01*
X45601Y-01081D01*
X45721Y-00847D01*
X45884Y-00642D01*
X46083Y-00472D01*
X46312Y-00344D01*
X46562Y-00263D01*
X46822Y-00232D01*
X47083Y-00252D01*
X47336Y-00322D01*
X47570Y-00441D01*
X47776Y-00602D01*
X47948Y-00801D01*
X48077Y-01029D01*
X48160Y-01278D01*
X48193Y-01538D01*
X48194Y-01575D01*
X02919Y-18110D02*
X02893Y-18371D01*
X02817Y-18622D01*
X02694Y-18853D01*
X02528Y-19057D01*
X02326Y-19224D01*
X02095Y-19348D01*
X01845Y-19426D01*
X01584Y-19453D01*
X01324Y-19430D01*
X01072Y-19356D01*
X00840Y-19234D01*
X00635Y-19070D01*
X00467Y-18869D01*
X00340Y-18639D01*
X00261Y-18389D01*
X00232Y-18128D01*
X00254Y-17868D01*
X00326Y-17616D01*
X00446Y-17382D01*
X00609Y-17177D01*
X00808Y-17007D01*
X01037Y-16879D01*
X01287Y-16798D01*
X01547Y-16767D01*
X01808Y-16787D01*
X02061Y-16857D01*
X02295Y-16976D01*
X02501Y-17137D01*
X02673Y-17336D01*
X02802Y-17564D01*
X02885Y-17813D01*
X02918Y-18073D01*
X02919Y-18110D01*
X02919Y-01575D02*
X02893Y-01836D01*
X02817Y-02087D01*
X02694Y-02318D01*
X02528Y-02522D01*
X02326Y-02689D01*
X02095Y-02813D01*
X01845Y-02891D01*
X01584Y-02918D01*
X01324Y-02895D01*
X01072Y-02821D01*
X00840Y-02699D01*
X00635Y-02535D01*
X00467Y-02334D01*
X00340Y-02104D01*
X00261Y-01854D01*
X00232Y-01593D01*
X00254Y-01333D01*
X00326Y-01081D01*
X00446Y-00847D01*
X00609Y-00642D01*
X00808Y-00472D01*
X01037Y-00344D01*
X01287Y-00263D01*
X01547Y-00232D01*
X01808Y-00252D01*
X02061Y-00322D01*
X02295Y-00441D01*
X02501Y-00602D01*
X02673Y-00801D01*
X02802Y-01029D01*
X02885Y-01278D01*
X02918Y-01538D01*
X02919Y-01575D01*
X30240Y-06949D02*
X30240Y-11949D01*
X30240Y-11949D02*
X27240Y-11949D01*
X27240Y-11949D02*
X27240Y-06949D01*
X27240Y-06949D02*
X30240Y-06949D01*
X27902Y-07373D02*
X27897Y-07419D01*
X27883Y-07464D01*
X27862Y-07505D01*
X27832Y-07541D01*
X27796Y-07571D01*
X27755Y-07593D01*
X27711Y-07607D01*
X27664Y-07611D01*
X27619Y-07607D01*
X27574Y-07594D01*
X27533Y-07572D01*
X27496Y-07543D01*
X27466Y-07508D01*
X27444Y-07467D01*
X27430Y-07422D01*
X27425Y-07376D01*
X27428Y-07330D01*
X27441Y-07286D01*
X27463Y-07244D01*
X27492Y-07207D01*
X27527Y-07177D01*
X27568Y-07154D01*
X27612Y-07140D01*
X27658Y-07135D01*
X27704Y-07138D01*
X27749Y-07151D01*
X27791Y-07172D01*
X27827Y-07200D01*
X27858Y-07236D01*
X27881Y-07276D01*
X27896Y-07321D01*
X27901Y-07367D01*
X27902Y-07373D01*
G54D18*
X26396Y-07103D02*
X26396Y-07296D01*
X26396Y-07103D02*
X26994Y-07103D01*
X26396Y-07603D02*
X26396Y-07796D01*
X26396Y-07796D02*
X26994Y-07796D01*
X26396Y-07603D02*
X26994Y-07603D01*
X26396Y-08103D02*
X26396Y-08296D01*
X26396Y-08296D02*
X26994Y-08296D01*
X26396Y-08103D02*
X26994Y-08103D01*
X26396Y-08603D02*
X26396Y-08796D01*
X26396Y-08796D02*
X26994Y-08796D01*
X26396Y-08603D02*
X26994Y-08603D01*
X26396Y-09103D02*
X26396Y-09296D01*
X26396Y-09296D02*
X26994Y-09296D01*
X26396Y-09103D02*
X26994Y-09103D01*
X26396Y-09602D02*
X26396Y-09795D01*
X26396Y-09795D02*
X26994Y-09795D01*
X26396Y-09602D02*
X26994Y-09602D01*
X26396Y-10102D02*
X26396Y-10295D01*
X26396Y-10295D02*
X26994Y-10295D01*
X26396Y-10102D02*
X26994Y-10102D01*
X26396Y-10602D02*
X26396Y-10795D01*
X26396Y-10795D02*
X26994Y-10795D01*
X26396Y-10602D02*
X26994Y-10602D01*
X26396Y-11102D02*
X26396Y-11295D01*
X26396Y-11295D02*
X26994Y-11295D01*
X26396Y-11102D02*
X26994Y-11102D01*
X26396Y-11602D02*
X26396Y-11795D01*
X26396Y-11795D02*
X26994Y-11795D01*
X26396Y-11602D02*
X26994Y-11602D01*
X30486Y-11795D02*
X31084Y-11795D01*
X31084Y-11602D02*
X31084Y-11795D01*
X30486Y-11602D02*
X31084Y-11602D01*
X30486Y-11295D02*
X31084Y-11295D01*
X31084Y-11102D02*
X31084Y-11295D01*
X30486Y-11102D02*
X31084Y-11102D01*
X30486Y-10795D02*
X31084Y-10795D01*
X31084Y-10602D02*
X31084Y-10795D01*
X30486Y-10602D02*
X31084Y-10602D01*
X30486Y-10295D02*
X31084Y-10295D01*
X31084Y-10102D02*
X31084Y-10295D01*
X30486Y-10102D02*
X31084Y-10102D01*
X30486Y-09795D02*
X31084Y-09795D01*
X31084Y-09602D02*
X31084Y-09795D01*
X30486Y-09602D02*
X31084Y-09602D01*
X30486Y-09296D02*
X31084Y-09296D01*
X31084Y-09103D02*
X31084Y-09296D01*
X30486Y-09103D02*
X31084Y-09103D01*
X30486Y-08796D02*
X31084Y-08796D01*
X31084Y-08603D02*
X31084Y-08796D01*
X30486Y-08603D02*
X31084Y-08603D01*
X30486Y-08296D02*
X31084Y-08296D01*
X31084Y-08103D02*
X31084Y-08296D01*
X30486Y-08103D02*
X31084Y-08103D01*
X30486Y-07796D02*
X31084Y-07796D01*
X31084Y-07603D02*
X31084Y-07796D01*
X30486Y-07603D02*
X31084Y-07603D01*
X30486Y-07296D02*
X31084Y-07296D01*
X31084Y-07103D02*
X31084Y-07296D01*
X30486Y-07103D02*
X31084Y-07103D01*
G54D17*
X03496Y-03059D02*
X03496Y-02059D01*
X03496Y-02059D02*
X09496Y-02059D01*
X09496Y-02059D02*
X09496Y-03059D01*
X09496Y-03059D02*
X03496Y-03059D01*
X04496Y-03059D02*
X04496Y-02059D01*
G54D10*
X44701Y-18004D02*
X44701Y-19004D01*
X44701Y-19004D02*
X42701Y-19004D01*
X42701Y-19004D02*
X42701Y-18004D01*
X42701Y-18004D02*
X44701Y-18004D01*
X44701Y-16429D02*
X44701Y-17429D01*
X44701Y-17429D02*
X42701Y-17429D01*
X42701Y-17429D02*
X42701Y-16429D01*
X42701Y-16429D02*
X44701Y-16429D01*
G54D19*
X45791Y-15764D02*
X42791Y-15764D01*
X42791Y-13764D02*
X45791Y-13764D01*
X45791Y-13764D02*
X45791Y-15764D01*
X42791Y-15764D02*
X42791Y-13764D01*
G54D11*
X26220Y-12756D02*
X27362Y-12756D01*
X26220Y-14016D02*
X27362Y-14016D01*
X26220Y-14016D02*
X26220Y-12756D01*
X27165Y-14016D02*
X27165Y-12756D01*
X27205Y-12756D02*
X27205Y-14016D01*
X27244Y-14016D02*
X27244Y-12756D01*
X27283Y-12756D02*
X27283Y-14016D01*
X27323Y-14016D02*
X27323Y-12756D01*
X27362Y-12756D02*
X27362Y-14016D01*
X32323Y-10000D02*
X33465Y-10000D01*
X32323Y-11260D02*
X33465Y-11260D01*
X32323Y-11260D02*
X32323Y-10000D01*
X33268Y-11260D02*
X33268Y-10000D01*
X33308Y-10000D02*
X33308Y-11260D01*
X33347Y-11260D02*
X33347Y-10000D01*
X33386Y-10000D02*
X33386Y-11260D01*
X33426Y-11260D02*
X33426Y-10000D01*
X33465Y-10000D02*
X33465Y-11260D01*
G54D15*
X46417Y-07007D02*
X46417Y-10315D01*
X46339Y-10315D02*
X46339Y-07007D01*
X46260Y-07007D02*
X46260Y-10315D01*
X46142Y-10315D02*
X46142Y-07007D01*
X46063Y-07007D02*
X46063Y-10315D01*
X46536Y-07007D02*
X46536Y-10315D01*
X46536Y-07007D02*
X43937Y-07007D01*
X46536Y-10315D02*
X43937Y-10315D01*
X43937Y-10315D02*
X43228Y-09606D01*
X43228Y-09606D02*
X43228Y-07716D01*
X43228Y-07716D02*
X43937Y-07007D01*
X46457Y-08661D02*
X46427Y-08966D01*
X46338Y-09261D01*
X46193Y-09532D01*
X45999Y-09770D01*
X45762Y-09966D01*
X45492Y-10112D01*
X45198Y-10203D01*
X44892Y-10235D01*
X44587Y-10208D01*
X44292Y-10121D01*
X44020Y-09978D01*
X43781Y-09786D01*
X43583Y-09550D01*
X43435Y-09281D01*
X43342Y-08988D01*
X43308Y-08682D01*
X43333Y-08377D01*
X43418Y-08082D01*
X43559Y-07808D01*
X43750Y-07567D01*
X43984Y-07368D01*
X44252Y-07218D01*
X44544Y-07123D01*
X44850Y-07087D01*
X45155Y-07110D01*
X45451Y-07193D01*
X45725Y-07332D01*
X45968Y-07521D01*
X46169Y-07754D01*
X46320Y-08021D01*
X46417Y-08313D01*
X46456Y-08618D01*
X46457Y-08661D01*
G54D21*
X39857Y-14170D02*
X40057Y-13870D01*
X39857Y-14870D02*
X39857Y-13845D01*
X39857Y-13845D02*
X40457Y-13845D01*
X40457Y-13845D02*
X40457Y-14870D01*
X40457Y-14870D02*
X39857Y-14870D01*
X46944Y-11020D02*
X47144Y-10720D01*
X46944Y-11720D02*
X46944Y-10695D01*
X46944Y-10695D02*
X47544Y-10695D01*
X47544Y-10695D02*
X47544Y-11720D01*
X47544Y-11720D02*
X46944Y-11720D01*
X08421Y-16545D02*
X07721Y-16545D01*
X07721Y-16545D02*
X07721Y-15345D01*
X07721Y-15345D02*
X08421Y-15345D01*
X08421Y-15345D02*
X08421Y-16545D01*
X47594Y-14970D02*
X46894Y-14970D01*
X46894Y-14970D02*
X46894Y-13770D01*
X46894Y-13770D02*
X47594Y-13770D01*
X47594Y-13770D02*
X47594Y-14970D01*
X29768Y-13180D02*
X30468Y-13180D01*
X30468Y-13180D02*
X30468Y-14380D01*
X30468Y-14380D02*
X29768Y-14380D01*
X29768Y-14380D02*
X29768Y-13180D01*
X40251Y-18020D02*
X39551Y-18020D01*
X39551Y-18020D02*
X39551Y-16820D01*
X39551Y-16820D02*
X40251Y-16820D01*
X40251Y-16820D02*
X40251Y-18020D01*
G54D15*
X18131Y-14681D02*
X17831Y-14981D01*
X17831Y-14981D02*
X10831Y-14981D01*
X10831Y-14981D02*
X10531Y-14681D01*
X10531Y-14681D02*
X10531Y-07681D01*
X10531Y-07681D02*
X10831Y-07381D01*
X10831Y-07381D02*
X17831Y-07381D01*
X17831Y-07381D02*
X18131Y-07681D01*
X18131Y-07681D02*
X18131Y-14681D01*
G54D17*
X11331Y-07931D02*
X11326Y-07979D01*
X11312Y-08026D01*
X11289Y-08069D01*
X11258Y-08107D01*
X11220Y-08138D01*
X11177Y-08161D01*
X11131Y-08175D01*
X11082Y-08180D01*
X11035Y-08176D01*
X10988Y-08162D01*
X10945Y-08140D01*
X10907Y-08109D01*
X10875Y-08072D01*
X10852Y-08029D01*
X10837Y-07982D01*
X10832Y-07934D01*
X10836Y-07886D01*
X10849Y-07839D01*
X10871Y-07796D01*
X10902Y-07758D01*
X10939Y-07726D01*
X10981Y-07702D01*
X11028Y-07687D01*
X11076Y-07682D01*
X11124Y-07685D01*
X11171Y-07698D01*
X11214Y-07720D01*
X11253Y-07750D01*
X11285Y-07787D01*
X11309Y-07830D01*
X11324Y-07876D01*
X11330Y-07925D01*
X11331Y-07931D01*
G54D15*
X19685Y-00197D02*
X18425Y-00197D01*
X18425Y-00197D02*
X18425Y-05000D01*
X18425Y-05000D02*
X20945Y-05000D01*
X20945Y-05000D02*
X20945Y-00197D01*
X20945Y-00197D02*
X19685Y-00197D01*
X25197Y-00197D02*
X23937Y-00197D01*
X23937Y-00197D02*
X23937Y-05000D01*
X23937Y-05000D02*
X26457Y-05000D01*
X26457Y-05000D02*
X26457Y-00197D01*
X26457Y-00197D02*
X25197Y-00197D01*
X04996Y-05809D02*
X06196Y-05809D01*
X06196Y-05809D02*
X06196Y-06709D01*
X05000Y-06733D02*
X07992Y-06733D01*
X05000Y-04685D02*
X07992Y-04685D01*
X07992Y-04685D02*
X07992Y-06733D01*
X05000Y-04685D02*
X05000Y-06733D01*
X05930Y-15079D02*
X05927Y-15106D01*
X05919Y-15133D01*
X05906Y-15157D01*
X05888Y-15179D01*
X05867Y-15196D01*
X05843Y-15209D01*
X05816Y-15218D01*
X05788Y-15220D01*
X05762Y-15218D01*
X05735Y-15210D01*
X05711Y-15197D01*
X05689Y-15180D01*
X05671Y-15159D01*
X05658Y-15134D01*
X05650Y-15108D01*
X05647Y-15080D01*
X05649Y-15054D01*
X05656Y-15027D01*
X05669Y-15003D01*
X05686Y-14981D01*
X05707Y-14963D01*
X05732Y-14949D01*
X05758Y-14941D01*
X05786Y-14938D01*
X05812Y-14940D01*
X05839Y-14947D01*
X05864Y-14960D01*
X05885Y-14977D01*
X05904Y-14998D01*
X05917Y-15022D01*
X05926Y-15048D01*
X05929Y-15076D01*
X05930Y-15079D01*
X06102Y-15945D02*
X04134Y-15945D01*
X04134Y-15945D02*
X04134Y-14763D01*
X04134Y-14763D02*
X06102Y-14763D01*
X06102Y-14763D02*
X06102Y-15945D01*
X48056Y-05040D02*
X48053Y-05067D01*
X48045Y-05094D01*
X48032Y-05118D01*
X48014Y-05140D01*
X47993Y-05157D01*
X47969Y-05170D01*
X47942Y-05179D01*
X47914Y-05181D01*
X47888Y-05179D01*
X47861Y-05171D01*
X47837Y-05158D01*
X47815Y-05141D01*
X47797Y-05120D01*
X47784Y-05095D01*
X47776Y-05069D01*
X47773Y-05041D01*
X47775Y-05015D01*
X47782Y-04988D01*
X47795Y-04964D01*
X47812Y-04942D01*
X47833Y-04924D01*
X47858Y-04910D01*
X47884Y-04902D01*
X47912Y-04899D01*
X47938Y-04901D01*
X47965Y-04908D01*
X47990Y-04921D01*
X48011Y-04938D01*
X48030Y-04959D01*
X48043Y-04983D01*
X48052Y-05009D01*
X48055Y-05037D01*
X48056Y-05040D01*
X48228Y-05906D02*
X46260Y-05906D01*
X46260Y-05906D02*
X46260Y-04724D01*
X46260Y-04724D02*
X48228Y-04724D01*
X48228Y-04724D02*
X48228Y-05906D01*
X44708Y-12875D02*
X44705Y-12902D01*
X44697Y-12929D01*
X44684Y-12953D01*
X44666Y-12975D01*
X44645Y-12992D01*
X44621Y-13005D01*
X44594Y-13014D01*
X44566Y-13016D01*
X44540Y-13014D01*
X44513Y-13006D01*
X44489Y-12993D01*
X44467Y-12976D01*
X44449Y-12955D01*
X44436Y-12930D01*
X44428Y-12904D01*
X44425Y-12876D01*
X44427Y-12850D01*
X44434Y-12823D01*
X44447Y-12799D01*
X44464Y-12777D01*
X44485Y-12759D01*
X44510Y-12745D01*
X44536Y-12737D01*
X44564Y-12734D01*
X44590Y-12736D01*
X44617Y-12743D01*
X44642Y-12756D01*
X44663Y-12773D01*
X44682Y-12794D01*
X44695Y-12818D01*
X44704Y-12844D01*
X44707Y-12872D01*
X44708Y-12875D01*
X43700Y-13189D02*
X43700Y-11221D01*
X43700Y-11221D02*
X44882Y-11221D01*
X44882Y-11221D02*
X44882Y-13189D01*
X44882Y-13189D02*
X43700Y-13189D01*
X37126Y-10315D02*
X37126Y-08543D01*
X36102Y-08543D02*
X36102Y-10315D01*
X36102Y-08543D02*
X37126Y-08543D01*
X37126Y-10315D02*
X36102Y-10315D01*
G54D11*
X36538Y-08820D02*
X36535Y-08846D01*
X36527Y-08872D01*
X36514Y-08896D01*
X36497Y-08917D01*
X36477Y-08934D01*
X36453Y-08947D01*
X36427Y-08955D01*
X36400Y-08957D01*
X36375Y-08955D01*
X36349Y-08947D01*
X36325Y-08935D01*
X36304Y-08918D01*
X36287Y-08897D01*
X36274Y-08874D01*
X36266Y-08848D01*
X36263Y-08821D01*
X36265Y-08796D01*
X36272Y-08770D01*
X36285Y-08746D01*
X36301Y-08725D01*
X36322Y-08707D01*
X36345Y-08694D01*
X36371Y-08686D01*
X36398Y-08683D01*
X36423Y-08685D01*
X36449Y-08692D01*
X36473Y-08704D01*
X36495Y-08721D01*
X36512Y-08741D01*
X36526Y-08764D01*
X36534Y-08790D01*
X36537Y-08817D01*
X36538Y-08820D01*
G54D15*
X10236Y-17835D02*
X10236Y-19409D01*
X18701Y-17835D02*
X10236Y-17835D01*
X18701Y-19409D02*
X18701Y-17835D01*
X18700Y-19409D02*
X10236Y-19409D01*
X01929Y-07283D02*
X00355Y-07283D01*
X01929Y-15748D02*
X01929Y-07283D01*
X00355Y-15748D02*
X01929Y-15748D01*
X00355Y-15747D02*
X00355Y-07283D01*
G54D17*
X04575Y-17425D02*
X08575Y-17425D01*
X08575Y-17425D02*
X08575Y-19425D01*
X08575Y-19425D02*
X04575Y-19425D01*
X04575Y-19425D02*
X04575Y-17425D01*
G54D15*
X21536Y-13779D02*
X23504Y-13779D01*
X21536Y-16693D02*
X23504Y-16693D01*
X23308Y-16300D02*
X23304Y-16338D01*
X23293Y-16375D01*
X23275Y-16409D01*
X23250Y-16438D01*
X23221Y-16463D01*
X23187Y-16481D01*
X23150Y-16492D01*
X23112Y-16496D01*
X23075Y-16493D01*
X23038Y-16482D01*
X23004Y-16464D01*
X22974Y-16440D01*
X22949Y-16411D01*
X22930Y-16377D01*
X22919Y-16340D01*
X22915Y-16302D01*
X22918Y-16265D01*
X22928Y-16228D01*
X22946Y-16194D01*
X22970Y-16164D01*
X22999Y-16139D01*
X23033Y-16120D01*
X23069Y-16108D01*
X23107Y-16104D01*
X23145Y-16106D01*
X23182Y-16117D01*
X23216Y-16134D01*
X23246Y-16158D01*
X23271Y-16187D01*
X23290Y-16220D01*
X23303Y-16257D01*
X23307Y-16295D01*
X23308Y-16300D01*
X21537Y-16693D02*
X21537Y-13779D01*
X23504Y-13779D02*
X23504Y-16693D01*
G54D11*
X32795Y-16752D02*
X33189Y-16752D01*
X33189Y-16556D02*
X32795Y-16556D01*
X32795Y-16063D02*
X32598Y-16260D01*
X32598Y-16260D02*
X32598Y-17048D01*
X32598Y-17048D02*
X32795Y-17245D01*
X33189Y-16063D02*
X33386Y-16260D01*
X33386Y-16260D02*
X33386Y-17048D01*
X33386Y-17048D02*
X33189Y-17245D01*
X32992Y-16556D02*
X32992Y-16063D01*
X32992Y-16752D02*
X32992Y-17245D01*
X25630Y-16752D02*
X26024Y-16752D01*
X26024Y-16556D02*
X25630Y-16556D01*
X25630Y-16063D02*
X25433Y-16260D01*
X25433Y-16260D02*
X25433Y-17048D01*
X25433Y-17048D02*
X25630Y-17245D01*
X26024Y-16063D02*
X26221Y-16260D01*
X26221Y-16260D02*
X26221Y-17048D01*
X26221Y-17048D02*
X26024Y-17245D01*
X25827Y-16556D02*
X25827Y-16063D01*
X25827Y-16752D02*
X25827Y-17245D01*
G54D15*
X00748Y-06024D02*
X00748Y-03662D01*
X02402Y-03662D02*
X02402Y-06024D01*
X00748Y-06024D02*
X02402Y-06024D01*
X00748Y-03662D02*
X02402Y-03662D01*
X19842Y-19410D02*
X19842Y-17048D01*
X21496Y-17048D02*
X21496Y-19410D01*
X19842Y-19410D02*
X21496Y-19410D01*
X19842Y-17048D02*
X21496Y-17048D01*
G54D11*
X25945Y-06457D02*
X25926Y-06648D01*
X25870Y-06831D01*
X25780Y-07001D01*
X25659Y-07150D01*
X25511Y-07272D01*
X25342Y-07364D01*
X25158Y-07420D01*
X24967Y-07440D01*
X24777Y-07423D01*
X24593Y-07369D01*
X24423Y-07280D01*
X24273Y-07160D01*
X24150Y-07012D01*
X24057Y-06844D01*
X23999Y-06661D01*
X23978Y-06470D01*
X23994Y-06280D01*
X24047Y-06095D01*
X24134Y-05924D01*
X24254Y-05774D01*
X24400Y-05649D01*
X24568Y-05556D01*
X24750Y-05496D01*
X24941Y-05474D01*
X25131Y-05488D01*
X25316Y-05540D01*
X25488Y-05627D01*
X25639Y-05745D01*
X25765Y-05890D01*
X25859Y-06057D01*
X25920Y-06239D01*
X25944Y-06430D01*
X25945Y-06457D01*
X21496Y-06457D02*
X21477Y-06648D01*
X21421Y-06831D01*
X21331Y-07001D01*
X21210Y-07150D01*
X21062Y-07272D01*
X20893Y-07364D01*
X20709Y-07420D01*
X20518Y-07440D01*
X20328Y-07423D01*
X20144Y-07369D01*
X19974Y-07280D01*
X19824Y-07160D01*
X19701Y-07012D01*
X19608Y-06844D01*
X19550Y-06661D01*
X19529Y-06470D01*
X19545Y-06280D01*
X19598Y-06095D01*
X19685Y-05924D01*
X19805Y-05774D01*
X19951Y-05649D01*
X20119Y-05556D01*
X20301Y-05496D01*
X20492Y-05474D01*
X20682Y-05488D01*
X20867Y-05540D01*
X21039Y-05627D01*
X21190Y-05745D01*
X21316Y-05890D01*
X21410Y-06057D01*
X21471Y-06239D01*
X21495Y-06430D01*
X21496Y-06457D01*
X29670Y-06022D02*
X29670Y-06308D01*
X29650Y-06365D01*
X29612Y-06403D01*
X29555Y-06422D01*
X29517Y-06422D01*
X29822Y-06022D02*
X30070Y-06022D01*
X29936Y-06174D01*
X29994Y-06174D01*
X30032Y-06193D01*
X30051Y-06212D01*
X30070Y-06250D01*
X30070Y-06346D01*
X30051Y-06384D01*
X30032Y-06403D01*
X29994Y-06422D01*
X29879Y-06422D01*
X29841Y-06403D01*
X29822Y-06384D01*
X38922Y-05943D02*
X38922Y-06229D01*
X38902Y-06286D01*
X38864Y-06324D01*
X38807Y-06343D01*
X38769Y-06343D01*
X39093Y-05981D02*
X39112Y-05962D01*
X39150Y-05943D01*
X39246Y-05943D01*
X39284Y-05962D01*
X39303Y-05981D01*
X39322Y-06019D01*
X39322Y-06057D01*
X39303Y-06114D01*
X39074Y-06343D01*
X39322Y-06343D01*
X37503Y-15949D02*
X37484Y-15968D01*
X37428Y-15986D01*
X37390Y-15986D01*
X37334Y-15968D01*
X37297Y-15930D01*
X37278Y-15893D01*
X37259Y-15818D01*
X37259Y-15761D01*
X37278Y-15686D01*
X37297Y-15649D01*
X37334Y-15611D01*
X37390Y-15592D01*
X37428Y-15592D01*
X37484Y-15611D01*
X37503Y-15630D01*
X37653Y-15630D02*
X37672Y-15611D01*
X37709Y-15592D01*
X37803Y-15592D01*
X37841Y-15611D01*
X37859Y-15630D01*
X37878Y-15668D01*
X37878Y-15705D01*
X37859Y-15761D01*
X37634Y-15986D01*
X37878Y-15986D01*
X38028Y-15630D02*
X38047Y-15611D01*
X38084Y-15592D01*
X38178Y-15592D01*
X38216Y-15611D01*
X38234Y-15630D01*
X38253Y-15668D01*
X38253Y-15705D01*
X38234Y-15761D01*
X38009Y-15986D01*
X38253Y-15986D01*
X33999Y-19177D02*
X33980Y-19196D01*
X33924Y-19214D01*
X33886Y-19214D01*
X33830Y-19196D01*
X33793Y-19158D01*
X33774Y-19121D01*
X33755Y-19046D01*
X33755Y-18989D01*
X33774Y-18914D01*
X33793Y-18877D01*
X33830Y-18839D01*
X33886Y-18820D01*
X33924Y-18820D01*
X33980Y-18839D01*
X33999Y-18858D01*
X34374Y-19214D02*
X34149Y-19214D01*
X34262Y-19214D02*
X34262Y-18820D01*
X34224Y-18877D01*
X34187Y-18914D01*
X34149Y-18933D01*
X34749Y-19214D02*
X34524Y-19214D01*
X34637Y-19214D02*
X34637Y-18820D01*
X34599Y-18877D01*
X34562Y-18914D01*
X34524Y-18933D01*
X41875Y-05746D02*
X41875Y-06032D01*
X41855Y-06089D01*
X41817Y-06127D01*
X41760Y-06146D01*
X41722Y-06146D01*
X42275Y-06146D02*
X42046Y-06146D01*
X42160Y-06146D02*
X42160Y-05746D01*
X42122Y-05803D01*
X42084Y-05841D01*
X42046Y-05860D01*
X25240Y-12024D02*
X25259Y-12043D01*
X25277Y-12099D01*
X25277Y-12137D01*
X25259Y-12193D01*
X25221Y-12230D01*
X25184Y-12249D01*
X25109Y-12268D01*
X25052Y-12268D01*
X24977Y-12249D01*
X24940Y-12230D01*
X24902Y-12193D01*
X24883Y-12137D01*
X24883Y-12099D01*
X24902Y-12043D01*
X24921Y-12024D01*
X25015Y-11686D02*
X25277Y-11686D01*
X24865Y-11780D02*
X25146Y-11874D01*
X25146Y-11630D01*
X24883Y-11518D02*
X24883Y-11255D01*
X25277Y-11424D01*
X47179Y-16342D02*
X47160Y-16361D01*
X47104Y-16379D01*
X47066Y-16379D01*
X47010Y-16361D01*
X46973Y-16323D01*
X46954Y-16286D01*
X46935Y-16211D01*
X46935Y-16154D01*
X46954Y-16079D01*
X46973Y-16042D01*
X47010Y-16004D01*
X47066Y-15985D01*
X47104Y-15985D01*
X47160Y-16004D01*
X47179Y-16023D01*
X47517Y-15985D02*
X47442Y-15985D01*
X47404Y-16004D01*
X47385Y-16023D01*
X47348Y-16079D01*
X47329Y-16154D01*
X47329Y-16304D01*
X47348Y-16342D01*
X47367Y-16361D01*
X47404Y-16379D01*
X47479Y-16379D01*
X47517Y-16361D01*
X47535Y-16342D01*
X47554Y-16304D01*
X47554Y-16211D01*
X47535Y-16173D01*
X47517Y-16154D01*
X47479Y-16136D01*
X47404Y-16136D01*
X47367Y-16154D01*
X47348Y-16173D01*
X47329Y-16211D01*
X32574Y-14765D02*
X32574Y-15084D01*
X32593Y-15122D01*
X32611Y-15141D01*
X32649Y-15159D01*
X32724Y-15159D01*
X32761Y-15141D01*
X32780Y-15122D01*
X32799Y-15084D01*
X32799Y-14765D01*
X33043Y-14934D02*
X33006Y-14916D01*
X32987Y-14897D01*
X32968Y-14859D01*
X32968Y-14841D01*
X32987Y-14803D01*
X33006Y-14784D01*
X33043Y-14765D01*
X33118Y-14765D01*
X33156Y-14784D01*
X33174Y-14803D01*
X33193Y-14841D01*
X33193Y-14859D01*
X33174Y-14897D01*
X33156Y-14916D01*
X33118Y-14934D01*
X33043Y-14934D01*
X33006Y-14953D01*
X32987Y-14972D01*
X32968Y-15009D01*
X32968Y-15084D01*
X32987Y-15122D01*
X33006Y-15141D01*
X33043Y-15159D01*
X33118Y-15159D01*
X33156Y-15141D01*
X33174Y-15122D01*
X33193Y-15084D01*
X33193Y-15009D01*
X33174Y-14972D01*
X33156Y-14953D01*
X33118Y-14934D01*
G54D10*
X29059Y-16072D02*
X29059Y-16327D01*
X29074Y-16357D01*
X29089Y-16372D01*
X29119Y-16387D01*
X29179Y-16387D01*
X29209Y-16372D01*
X29224Y-16357D01*
X29239Y-16327D01*
X29239Y-16072D01*
X29554Y-16387D02*
X29374Y-16387D01*
X29464Y-16387D02*
X29464Y-16072D01*
X29434Y-16117D01*
X29404Y-16147D01*
X29374Y-16162D01*
X29674Y-16102D02*
X29689Y-16087D01*
X29719Y-16072D01*
X29794Y-16072D01*
X29824Y-16087D01*
X29839Y-16102D01*
X29854Y-16132D01*
X29854Y-16162D01*
X29839Y-16207D01*
X29659Y-16387D01*
X29854Y-16387D01*
G54D22*
X20749Y-09345D02*
X21068Y-09345D01*
X21106Y-09326D01*
X21125Y-09308D01*
X21143Y-09270D01*
X21143Y-09195D01*
X21125Y-09158D01*
X21106Y-09139D01*
X21068Y-09120D01*
X20749Y-09120D01*
X21143Y-08726D02*
X21143Y-08951D01*
X21143Y-08838D02*
X20749Y-08838D01*
X20806Y-08876D01*
X20843Y-08913D01*
X20862Y-08951D01*
X20749Y-08370D02*
X20749Y-08557D01*
X20937Y-08576D01*
X20918Y-08557D01*
X20900Y-08520D01*
X20900Y-08426D01*
X20918Y-08388D01*
X20937Y-08370D01*
X20975Y-08351D01*
X21068Y-08351D01*
X21106Y-08370D01*
X21125Y-08388D01*
X21143Y-08426D01*
X21143Y-08520D01*
X21125Y-08557D01*
X21106Y-08576D01*
G54D11*
X38557Y-13075D02*
X38538Y-13094D01*
X38482Y-13112D01*
X38444Y-13112D01*
X38388Y-13094D01*
X38351Y-13056D01*
X38332Y-13019D01*
X38313Y-12944D01*
X38313Y-12887D01*
X38332Y-12812D01*
X38351Y-12775D01*
X38388Y-12737D01*
X38444Y-12718D01*
X38482Y-12718D01*
X38538Y-12737D01*
X38557Y-12756D01*
X38895Y-12850D02*
X38895Y-13112D01*
X38801Y-12700D02*
X38707Y-12981D01*
X38951Y-12981D01*
G54D12*
X47042Y-12184D02*
X47027Y-12199D01*
X46982Y-12214D01*
X46952Y-12214D01*
X46907Y-12199D01*
X46877Y-12169D01*
X46862Y-12139D01*
X46847Y-12079D01*
X46847Y-12034D01*
X46862Y-11974D01*
X46877Y-11944D01*
X46907Y-11914D01*
X46952Y-11899D01*
X46982Y-11899D01*
X47027Y-11914D01*
X47042Y-11929D01*
X47327Y-11899D02*
X47177Y-11899D01*
X47162Y-12049D01*
X47177Y-12034D01*
X47207Y-12019D01*
X47282Y-12019D01*
X47312Y-12034D01*
X47327Y-12049D01*
X47342Y-12079D01*
X47342Y-12154D01*
X47327Y-12184D01*
X47312Y-12199D01*
X47282Y-12214D01*
X47207Y-12214D01*
X47177Y-12199D01*
X47162Y-12184D01*
X47612Y-11899D02*
X47552Y-11899D01*
X47522Y-11914D01*
X47507Y-11929D01*
X47477Y-11974D01*
X47462Y-12034D01*
X47462Y-12154D01*
X47477Y-12184D01*
X47492Y-12199D01*
X47522Y-12214D01*
X47582Y-12214D01*
X47612Y-12199D01*
X47627Y-12184D01*
X47642Y-12154D01*
X47642Y-12079D01*
X47627Y-12049D01*
X47612Y-12034D01*
X47582Y-12019D01*
X47522Y-12019D01*
X47492Y-12034D01*
X47477Y-12049D01*
X47462Y-12079D01*
G54D22*
X25743Y-14664D02*
X25728Y-14679D01*
X25683Y-14694D01*
X25653Y-14694D01*
X25608Y-14679D01*
X25578Y-14649D01*
X25563Y-14619D01*
X25548Y-14559D01*
X25548Y-14514D01*
X25563Y-14454D01*
X25578Y-14424D01*
X25608Y-14394D01*
X25653Y-14379D01*
X25683Y-14379D01*
X25728Y-14394D01*
X25743Y-14409D01*
X26013Y-14379D02*
X25953Y-14379D01*
X25923Y-14394D01*
X25908Y-14409D01*
X25878Y-14454D01*
X25863Y-14514D01*
X25863Y-14634D01*
X25878Y-14664D01*
X25893Y-14679D01*
X25923Y-14694D01*
X25983Y-14694D01*
X26013Y-14679D01*
X26028Y-14664D01*
X26043Y-14634D01*
X26043Y-14559D01*
X26028Y-14529D01*
X26013Y-14514D01*
X25983Y-14499D01*
X25923Y-14499D01*
X25893Y-14514D01*
X25878Y-14529D01*
X25863Y-14559D01*
X26313Y-14379D02*
X26253Y-14379D01*
X26223Y-14394D01*
X26208Y-14409D01*
X26178Y-14454D01*
X26163Y-14514D01*
X26163Y-14634D01*
X26178Y-14664D01*
X26193Y-14679D01*
X26223Y-14694D01*
X26283Y-14694D01*
X26313Y-14679D01*
X26328Y-14664D01*
X26343Y-14634D01*
X26343Y-14559D01*
X26328Y-14529D01*
X26313Y-14514D01*
X26283Y-14499D01*
X26223Y-14499D01*
X26193Y-14514D01*
X26178Y-14529D01*
X26163Y-14559D01*
G54D11*
X24590Y-17642D02*
X24571Y-17661D01*
X24515Y-17679D01*
X24477Y-17679D01*
X24421Y-17661D01*
X24384Y-17623D01*
X24365Y-17586D01*
X24346Y-17511D01*
X24346Y-17454D01*
X24365Y-17379D01*
X24384Y-17342D01*
X24421Y-17304D01*
X24477Y-17285D01*
X24515Y-17285D01*
X24571Y-17304D01*
X24590Y-17323D01*
X24928Y-17285D02*
X24853Y-17285D01*
X24815Y-17304D01*
X24796Y-17323D01*
X24759Y-17379D01*
X24740Y-17454D01*
X24740Y-17604D01*
X24759Y-17642D01*
X24778Y-17661D01*
X24815Y-17679D01*
X24890Y-17679D01*
X24928Y-17661D01*
X24946Y-17642D01*
X24965Y-17604D01*
X24965Y-17511D01*
X24946Y-17473D01*
X24928Y-17454D01*
X24890Y-17436D01*
X24815Y-17436D01*
X24778Y-17454D01*
X24759Y-17473D01*
X24740Y-17511D01*
X25303Y-17417D02*
X25303Y-17679D01*
X25209Y-17267D02*
X25115Y-17548D01*
X25359Y-17548D01*
X38190Y-18007D02*
X37796Y-18007D01*
X37796Y-17913D01*
X37815Y-17857D01*
X37853Y-17820D01*
X37890Y-17801D01*
X37965Y-17782D01*
X38022Y-17782D01*
X38097Y-17801D01*
X38134Y-17820D01*
X38172Y-17857D01*
X38190Y-17913D01*
X38190Y-18007D01*
X37834Y-17632D02*
X37815Y-17613D01*
X37796Y-17576D01*
X37796Y-17482D01*
X37815Y-17444D01*
X37834Y-17426D01*
X37872Y-17407D01*
X37909Y-17407D01*
X37965Y-17426D01*
X38190Y-17651D01*
X38190Y-17407D01*
X42064Y-10775D02*
X42469Y-10775D01*
X42517Y-10751D01*
X42541Y-10727D01*
X42564Y-10680D01*
X42564Y-10584D01*
X42541Y-10537D01*
X42517Y-10513D01*
X42469Y-10489D01*
X42064Y-10489D01*
X42112Y-10275D02*
X42088Y-10251D01*
X42064Y-10203D01*
X42064Y-10084D01*
X42088Y-10037D01*
X42112Y-10013D01*
X42160Y-09989D01*
X42207Y-09989D01*
X42279Y-10013D01*
X42564Y-10299D01*
X42564Y-09989D01*
X17836Y-03253D02*
X18155Y-03253D01*
X18193Y-03234D01*
X18212Y-03216D01*
X18230Y-03178D01*
X18230Y-03103D01*
X18212Y-03066D01*
X18193Y-03047D01*
X18155Y-03028D01*
X17836Y-03028D01*
X18230Y-02821D02*
X18230Y-02746D01*
X18212Y-02709D01*
X18193Y-02690D01*
X18137Y-02653D01*
X18062Y-02634D01*
X17912Y-02634D01*
X17874Y-02653D01*
X17855Y-02671D01*
X17836Y-02709D01*
X17836Y-02784D01*
X17855Y-02821D01*
X17874Y-02840D01*
X17912Y-02859D01*
X18005Y-02859D01*
X18043Y-02840D01*
X18062Y-02821D01*
X18080Y-02784D01*
X18080Y-02709D01*
X18062Y-02671D01*
X18043Y-02653D01*
X18005Y-02634D01*
X41391Y-16340D02*
X41204Y-16340D01*
X41204Y-15946D01*
X41729Y-16340D02*
X41504Y-16340D01*
X41617Y-16340D02*
X41617Y-15946D01*
X41579Y-16003D01*
X41542Y-16040D01*
X41504Y-16059D01*
X28254Y-06300D02*
X28254Y-06619D01*
X28273Y-06657D01*
X28291Y-06676D01*
X28329Y-06694D01*
X28404Y-06694D01*
X28441Y-06676D01*
X28460Y-06657D01*
X28479Y-06619D01*
X28479Y-06300D01*
X28873Y-06694D02*
X28648Y-06694D01*
X28761Y-06694D02*
X28761Y-06300D01*
X28723Y-06357D01*
X28686Y-06394D01*
X28648Y-06413D01*
X29248Y-06694D02*
X29023Y-06694D01*
X29136Y-06694D02*
X29136Y-06300D01*
X29098Y-06357D01*
X29061Y-06394D01*
X29023Y-06413D01*
G54D19*
X41949Y-15674D02*
X41949Y-15274D01*
X42102Y-15274D01*
X42140Y-15293D01*
X42159Y-15312D01*
X42178Y-15350D01*
X42178Y-15407D01*
X42159Y-15445D01*
X42140Y-15464D01*
X42102Y-15483D01*
X41949Y-15483D01*
X42330Y-15312D02*
X42349Y-15293D01*
X42387Y-15274D01*
X42483Y-15274D01*
X42521Y-15293D01*
X42540Y-15312D01*
X42559Y-15350D01*
X42559Y-15388D01*
X42540Y-15445D01*
X42311Y-15674D01*
X42559Y-15674D01*
G54D11*
X09148Y-15004D02*
X09129Y-15023D01*
X09073Y-15041D01*
X09035Y-15041D01*
X08979Y-15023D01*
X08942Y-14985D01*
X08923Y-14948D01*
X08904Y-14873D01*
X08904Y-14816D01*
X08923Y-14741D01*
X08942Y-14704D01*
X08979Y-14666D01*
X09035Y-14647D01*
X09073Y-14647D01*
X09129Y-14666D01*
X09148Y-14685D01*
X09523Y-15041D02*
X09298Y-15041D01*
X09411Y-15041D02*
X09411Y-14647D01*
X09373Y-14704D01*
X09336Y-14741D01*
X09298Y-14760D01*
X25259Y-13508D02*
X25240Y-13527D01*
X25184Y-13545D01*
X25146Y-13545D01*
X25090Y-13527D01*
X25053Y-13489D01*
X25034Y-13452D01*
X25015Y-13377D01*
X25015Y-13320D01*
X25034Y-13245D01*
X25053Y-13208D01*
X25090Y-13170D01*
X25146Y-13151D01*
X25184Y-13151D01*
X25240Y-13170D01*
X25259Y-13189D01*
X25634Y-13545D02*
X25409Y-13545D01*
X25522Y-13545D02*
X25522Y-13151D01*
X25484Y-13208D01*
X25447Y-13245D01*
X25409Y-13264D01*
X25784Y-13189D02*
X25803Y-13170D01*
X25840Y-13151D01*
X25934Y-13151D01*
X25972Y-13170D01*
X25990Y-13189D01*
X26009Y-13227D01*
X26009Y-13264D01*
X25990Y-13320D01*
X25765Y-13545D01*
X26009Y-13545D01*
G54D22*
X33212Y-09846D02*
X33193Y-09865D01*
X33137Y-09883D01*
X33099Y-09883D01*
X33043Y-09865D01*
X33006Y-09827D01*
X32987Y-09790D01*
X32968Y-09715D01*
X32968Y-09658D01*
X32987Y-09583D01*
X33006Y-09546D01*
X33043Y-09508D01*
X33099Y-09489D01*
X33137Y-09489D01*
X33193Y-09508D01*
X33212Y-09527D01*
X33587Y-09883D02*
X33362Y-09883D01*
X33475Y-09883D02*
X33475Y-09489D01*
X33437Y-09546D01*
X33400Y-09583D01*
X33362Y-09602D01*
X33812Y-09658D02*
X33775Y-09640D01*
X33756Y-09621D01*
X33737Y-09583D01*
X33737Y-09565D01*
X33756Y-09527D01*
X33775Y-09508D01*
X33812Y-09489D01*
X33887Y-09489D01*
X33925Y-09508D01*
X33943Y-09527D01*
X33962Y-09565D01*
X33962Y-09583D01*
X33943Y-09621D01*
X33925Y-09640D01*
X33887Y-09658D01*
X33812Y-09658D01*
X33775Y-09677D01*
X33756Y-09696D01*
X33737Y-09733D01*
X33737Y-09808D01*
X33756Y-09846D01*
X33775Y-09865D01*
X33812Y-09883D01*
X33887Y-09883D01*
X33925Y-09865D01*
X33943Y-09846D01*
X33962Y-09808D01*
X33962Y-09733D01*
X33943Y-09696D01*
X33925Y-09677D01*
X33887Y-09658D01*
G54D17*
X47184Y-07981D02*
X47155Y-08009D01*
X47069Y-08038D01*
X47012Y-08038D01*
X46927Y-08009D01*
X46869Y-07952D01*
X46841Y-07895D01*
X46812Y-07781D01*
X46812Y-07695D01*
X46841Y-07581D01*
X46869Y-07524D01*
X46927Y-07466D01*
X47012Y-07438D01*
X47069Y-07438D01*
X47155Y-07466D01*
X47184Y-07495D01*
X47384Y-07438D02*
X47755Y-07438D01*
X47555Y-07666D01*
X47641Y-07666D01*
X47698Y-07695D01*
X47727Y-07724D01*
X47755Y-07781D01*
X47755Y-07924D01*
X47727Y-07981D01*
X47698Y-08009D01*
X47641Y-08038D01*
X47469Y-08038D01*
X47412Y-08009D01*
X47384Y-07981D01*
G54D12*
X39867Y-13584D02*
X39867Y-13190D01*
X39961Y-13190D01*
X40017Y-13209D01*
X40054Y-13247D01*
X40073Y-13284D01*
X40092Y-13359D01*
X40092Y-13416D01*
X40073Y-13491D01*
X40054Y-13528D01*
X40017Y-13566D01*
X39961Y-13584D01*
X39867Y-13584D01*
X40223Y-13190D02*
X40467Y-13190D01*
X40336Y-13341D01*
X40392Y-13341D01*
X40430Y-13359D01*
X40448Y-13378D01*
X40467Y-13416D01*
X40467Y-13509D01*
X40448Y-13547D01*
X40430Y-13566D01*
X40392Y-13584D01*
X40280Y-13584D01*
X40242Y-13566D01*
X40223Y-13547D01*
G54D22*
X46112Y-11377D02*
X46082Y-11362D01*
X46052Y-11332D01*
X46007Y-11287D01*
X45977Y-11272D01*
X45947Y-11272D01*
X45962Y-11347D02*
X45932Y-11332D01*
X45902Y-11302D01*
X45887Y-11242D01*
X45887Y-11137D01*
X45902Y-11077D01*
X45932Y-11047D01*
X45962Y-11032D01*
X46022Y-11032D01*
X46052Y-11047D01*
X46082Y-11077D01*
X46097Y-11137D01*
X46097Y-11242D01*
X46082Y-11302D01*
X46052Y-11332D01*
X46022Y-11347D01*
X45962Y-11347D01*
X46217Y-11062D02*
X46232Y-11047D01*
X46262Y-11032D01*
X46337Y-11032D01*
X46367Y-11047D01*
X46382Y-11062D01*
X46397Y-11092D01*
X46397Y-11122D01*
X46382Y-11167D01*
X46202Y-11347D01*
X46397Y-11347D01*
X09031Y-15710D02*
X09031Y-16029D01*
X09050Y-16067D01*
X09068Y-16086D01*
X09106Y-16104D01*
X09181Y-16104D01*
X09218Y-16086D01*
X09237Y-16067D01*
X09256Y-16029D01*
X09256Y-15710D01*
X09650Y-16104D02*
X09425Y-16104D01*
X09538Y-16104D02*
X09538Y-15710D01*
X09500Y-15767D01*
X09463Y-15804D01*
X09425Y-15823D01*
X45946Y-14670D02*
X46265Y-14670D01*
X46303Y-14651D01*
X46322Y-14633D01*
X46340Y-14595D01*
X46340Y-14520D01*
X46322Y-14483D01*
X46303Y-14464D01*
X46265Y-14445D01*
X45946Y-14445D01*
X46078Y-14088D02*
X46340Y-14088D01*
X45928Y-14182D02*
X46209Y-14276D01*
X46209Y-14032D01*
X28716Y-13545D02*
X28716Y-13864D01*
X28735Y-13902D01*
X28753Y-13921D01*
X28791Y-13939D01*
X28866Y-13939D01*
X28903Y-13921D01*
X28922Y-13902D01*
X28941Y-13864D01*
X28941Y-13545D01*
X29316Y-13545D02*
X29129Y-13545D01*
X29110Y-13733D01*
X29129Y-13714D01*
X29166Y-13696D01*
X29260Y-13696D01*
X29298Y-13714D01*
X29316Y-13733D01*
X29335Y-13771D01*
X29335Y-13864D01*
X29316Y-13902D01*
X29298Y-13921D01*
X29260Y-13939D01*
X29166Y-13939D01*
X29129Y-13921D01*
X29110Y-13902D01*
G54D12*
X40710Y-18725D02*
X41029Y-18725D01*
X41067Y-18706D01*
X41086Y-18688D01*
X41104Y-18650D01*
X41104Y-18575D01*
X41086Y-18538D01*
X41067Y-18519D01*
X41029Y-18500D01*
X40710Y-18500D01*
X40710Y-18350D02*
X40710Y-18087D01*
X41104Y-18256D01*
G54D23*
X18317Y-06572D02*
X18317Y-07058D01*
X18336Y-07115D01*
X18355Y-07143D01*
X18393Y-07172D01*
X18470Y-07172D01*
X18508Y-07143D01*
X18527Y-07115D01*
X18546Y-07058D01*
X18546Y-06572D01*
X18908Y-06572D02*
X18831Y-06572D01*
X18793Y-06600D01*
X18774Y-06629D01*
X18736Y-06715D01*
X18717Y-06829D01*
X18717Y-07058D01*
X18736Y-07115D01*
X18755Y-07143D01*
X18793Y-07172D01*
X18870Y-07172D01*
X18908Y-07143D01*
X18927Y-07115D01*
X18946Y-07058D01*
X18946Y-06915D01*
X18927Y-06858D01*
X18908Y-06829D01*
X18870Y-06800D01*
X18793Y-06800D01*
X18755Y-06829D01*
X18736Y-06858D01*
X18717Y-06915D01*
G54D11*
X19554Y-05159D02*
X19554Y-05441D01*
X19536Y-05497D01*
X19498Y-05535D01*
X19442Y-05553D01*
X19404Y-05553D01*
X19929Y-05159D02*
X19742Y-05159D01*
X19723Y-05347D01*
X19742Y-05328D01*
X19779Y-05310D01*
X19873Y-05310D01*
X19911Y-05328D01*
X19929Y-05347D01*
X19948Y-05385D01*
X19948Y-05478D01*
X19929Y-05516D01*
X19911Y-05535D01*
X19873Y-05553D01*
X19779Y-05553D01*
X19742Y-05535D01*
X19723Y-05516D01*
X26089Y-05237D02*
X26089Y-05519D01*
X26071Y-05575D01*
X26033Y-05613D01*
X25977Y-05631D01*
X25939Y-05631D01*
X26446Y-05369D02*
X26446Y-05631D01*
X26352Y-05219D02*
X26258Y-05500D01*
X26502Y-05500D01*
X08269Y-06196D02*
X08269Y-05971D01*
X08663Y-06084D02*
X08269Y-06084D01*
X08269Y-05878D02*
X08663Y-05615D01*
X08269Y-05615D02*
X08663Y-05878D01*
X08663Y-05259D02*
X08663Y-05484D01*
X08663Y-05371D02*
X08269Y-05371D01*
X08326Y-05409D01*
X08363Y-05446D01*
X08382Y-05484D01*
G54D10*
X03393Y-15911D02*
X03757Y-15911D01*
X03800Y-15889D01*
X03822Y-15868D01*
X03843Y-15825D01*
X03843Y-15739D01*
X03822Y-15697D01*
X03800Y-15675D01*
X03757Y-15654D01*
X03393Y-15654D01*
X03843Y-15204D02*
X03843Y-15461D01*
X03843Y-15333D02*
X03393Y-15333D01*
X03457Y-15376D01*
X03500Y-15418D01*
X03522Y-15461D01*
X03543Y-14818D02*
X03843Y-14818D01*
X03372Y-14925D02*
X03693Y-15032D01*
X03693Y-14754D01*
X48178Y-03468D02*
X48157Y-03511D01*
X48114Y-03554D01*
X48049Y-03618D01*
X48028Y-03661D01*
X48028Y-03704D01*
X48135Y-03682D02*
X48114Y-03725D01*
X48071Y-03768D01*
X47985Y-03789D01*
X47835Y-03789D01*
X47749Y-03768D01*
X47707Y-03725D01*
X47685Y-03682D01*
X47685Y-03596D01*
X47707Y-03554D01*
X47749Y-03511D01*
X47835Y-03489D01*
X47985Y-03489D01*
X48071Y-03511D01*
X48114Y-03554D01*
X48135Y-03596D01*
X48135Y-03682D01*
X48135Y-03061D02*
X48135Y-03318D01*
X48135Y-03190D02*
X47685Y-03190D01*
X47749Y-03233D01*
X47792Y-03275D01*
X47814Y-03318D01*
X43948Y-10598D02*
X43948Y-10962D01*
X43970Y-11005D01*
X43991Y-11027D01*
X44034Y-11048D01*
X44120Y-11048D01*
X44162Y-11027D01*
X44184Y-11005D01*
X44205Y-10962D01*
X44205Y-10598D01*
X44376Y-10598D02*
X44655Y-10598D01*
X44505Y-10770D01*
X44569Y-10770D01*
X44612Y-10791D01*
X44633Y-10812D01*
X44655Y-10855D01*
X44655Y-10962D01*
X44633Y-11005D01*
X44612Y-11027D01*
X44569Y-11048D01*
X44441Y-11048D01*
X44398Y-11027D01*
X44376Y-11005D01*
G54D11*
X38033Y-09896D02*
X38352Y-09896D01*
X38390Y-09877D01*
X38409Y-09859D01*
X38427Y-09821D01*
X38427Y-09746D01*
X38409Y-09709D01*
X38390Y-09690D01*
X38352Y-09671D01*
X38033Y-09671D01*
X38427Y-09277D02*
X38427Y-09502D01*
X38427Y-09389D02*
X38033Y-09389D01*
X38090Y-09427D01*
X38127Y-09464D01*
X38146Y-09502D01*
X38033Y-09033D02*
X38033Y-08996D01*
X38052Y-08958D01*
X38071Y-08939D01*
X38109Y-08921D01*
X38184Y-08902D01*
X38277Y-08902D01*
X38352Y-08921D01*
X38390Y-08939D01*
X38409Y-08958D01*
X38427Y-08996D01*
X38427Y-09033D01*
X38409Y-09071D01*
X38390Y-09089D01*
X38352Y-09108D01*
X38277Y-09127D01*
X38184Y-09127D01*
X38109Y-09108D01*
X38071Y-09089D01*
X38052Y-09071D01*
X38033Y-09033D01*
X10188Y-16985D02*
X10188Y-17343D01*
X10164Y-17414D01*
X10116Y-17462D01*
X10045Y-17485D01*
X09997Y-17485D01*
X10640Y-16985D02*
X10545Y-16985D01*
X10497Y-17009D01*
X10474Y-17033D01*
X10426Y-17104D01*
X10402Y-17200D01*
X10402Y-17390D01*
X10426Y-17438D01*
X10450Y-17462D01*
X10497Y-17485D01*
X10593Y-17485D01*
X10640Y-17462D01*
X10664Y-17438D01*
X10688Y-17390D01*
X10688Y-17271D01*
X10664Y-17223D01*
X10640Y-17200D01*
X10593Y-17176D01*
X10497Y-17176D01*
X10450Y-17200D01*
X10426Y-17223D01*
X10402Y-17271D01*
X02379Y-15875D02*
X02737Y-15875D01*
X02808Y-15899D01*
X02856Y-15947D01*
X02879Y-16018D01*
X02879Y-16066D01*
X02379Y-15685D02*
X02379Y-15351D01*
X02879Y-15566D01*
G54D12*
X32782Y-07381D02*
X32767Y-07396D01*
X32721Y-07412D01*
X32691Y-07412D01*
X32646Y-07396D01*
X32615Y-07366D01*
X32600Y-07336D01*
X32585Y-07275D01*
X32585Y-07229D01*
X32600Y-07169D01*
X32615Y-07138D01*
X32646Y-07108D01*
X32691Y-07093D01*
X32721Y-07093D01*
X32767Y-07108D01*
X32782Y-07123D01*
X32889Y-07093D02*
X33101Y-07093D01*
X32965Y-07412D01*
X06988Y-15048D02*
X07003Y-15063D01*
X07019Y-15109D01*
X07019Y-15139D01*
X07003Y-15184D01*
X06973Y-15215D01*
X06943Y-15230D01*
X06882Y-15245D01*
X06836Y-15245D01*
X06776Y-15230D01*
X06745Y-15215D01*
X06715Y-15184D01*
X06700Y-15139D01*
X06700Y-15109D01*
X06715Y-15063D01*
X06730Y-15048D01*
X06700Y-14774D02*
X06700Y-14835D01*
X06715Y-14865D01*
X06730Y-14881D01*
X06776Y-14911D01*
X06836Y-14926D01*
X06958Y-14926D01*
X06988Y-14911D01*
X07003Y-14896D01*
X07019Y-14865D01*
X07019Y-14805D01*
X07003Y-14774D01*
X06988Y-14759D01*
X06958Y-14744D01*
X06882Y-14744D01*
X06852Y-14759D01*
X06836Y-14774D01*
X06821Y-14805D01*
X06821Y-14865D01*
X06836Y-14896D01*
X06852Y-14911D01*
X06882Y-14926D01*
X07019Y-14592D02*
X07019Y-14531D01*
X07003Y-14501D01*
X06988Y-14486D01*
X06943Y-14455D01*
X06882Y-14440D01*
X06760Y-14440D01*
X06730Y-14455D01*
X06715Y-14470D01*
X06700Y-14501D01*
X06700Y-14561D01*
X06715Y-14592D01*
X06730Y-14607D01*
X06760Y-14622D01*
X06836Y-14622D01*
X06867Y-14607D01*
X06882Y-14592D01*
X06897Y-14561D01*
X06897Y-14501D01*
X06882Y-14470D01*
X06867Y-14455D01*
X06836Y-14440D01*
X30976Y-15846D02*
X30961Y-15861D01*
X30915Y-15877D01*
X30885Y-15877D01*
X30840Y-15861D01*
X30809Y-15831D01*
X30794Y-15801D01*
X30779Y-15740D01*
X30779Y-15694D01*
X30794Y-15634D01*
X30809Y-15603D01*
X30840Y-15573D01*
X30885Y-15558D01*
X30915Y-15558D01*
X30961Y-15573D01*
X30976Y-15588D01*
X31250Y-15558D02*
X31189Y-15558D01*
X31159Y-15573D01*
X31143Y-15588D01*
X31113Y-15634D01*
X31098Y-15694D01*
X31098Y-15816D01*
X31113Y-15846D01*
X31128Y-15861D01*
X31159Y-15877D01*
X31219Y-15877D01*
X31250Y-15861D01*
X31265Y-15846D01*
X31280Y-15816D01*
X31280Y-15740D01*
X31265Y-15710D01*
X31250Y-15694D01*
X31219Y-15679D01*
X31159Y-15679D01*
X31128Y-15694D01*
X31113Y-15710D01*
X31098Y-15740D01*
X31387Y-15558D02*
X31599Y-15558D01*
X31463Y-15877D01*
X28299Y-15452D02*
X28284Y-15467D01*
X28238Y-15483D01*
X28208Y-15483D01*
X28163Y-15467D01*
X28132Y-15437D01*
X28117Y-15407D01*
X28102Y-15346D01*
X28102Y-15300D01*
X28117Y-15240D01*
X28132Y-15209D01*
X28163Y-15179D01*
X28208Y-15164D01*
X28238Y-15164D01*
X28284Y-15179D01*
X28299Y-15194D01*
X28573Y-15164D02*
X28512Y-15164D01*
X28482Y-15179D01*
X28466Y-15194D01*
X28436Y-15240D01*
X28421Y-15300D01*
X28421Y-15422D01*
X28436Y-15452D01*
X28451Y-15467D01*
X28482Y-15483D01*
X28542Y-15483D01*
X28573Y-15467D01*
X28588Y-15452D01*
X28603Y-15422D01*
X28603Y-15346D01*
X28588Y-15316D01*
X28573Y-15300D01*
X28542Y-15285D01*
X28482Y-15285D01*
X28451Y-15300D01*
X28436Y-15316D01*
X28421Y-15346D01*
X28892Y-15164D02*
X28740Y-15164D01*
X28725Y-15316D01*
X28740Y-15300D01*
X28770Y-15285D01*
X28846Y-15285D01*
X28877Y-15300D01*
X28892Y-15316D01*
X28907Y-15346D01*
X28907Y-15422D01*
X28892Y-15452D01*
X28877Y-15467D01*
X28846Y-15483D01*
X28770Y-15483D01*
X28740Y-15467D01*
X28725Y-15452D01*
X41567Y-07578D02*
X41552Y-07593D01*
X41506Y-07609D01*
X41476Y-07609D01*
X41431Y-07593D01*
X41400Y-07563D01*
X41385Y-07533D01*
X41370Y-07472D01*
X41370Y-07426D01*
X41385Y-07366D01*
X41400Y-07335D01*
X41431Y-07305D01*
X41476Y-07290D01*
X41506Y-07290D01*
X41552Y-07305D01*
X41567Y-07320D01*
X41841Y-07290D02*
X41780Y-07290D01*
X41750Y-07305D01*
X41734Y-07320D01*
X41704Y-07366D01*
X41689Y-07426D01*
X41689Y-07548D01*
X41704Y-07578D01*
X41719Y-07593D01*
X41750Y-07609D01*
X41810Y-07609D01*
X41841Y-07593D01*
X41856Y-07578D01*
X41871Y-07548D01*
X41871Y-07472D01*
X41856Y-07442D01*
X41841Y-07426D01*
X41810Y-07411D01*
X41750Y-07411D01*
X41719Y-07426D01*
X41704Y-07442D01*
X41689Y-07472D01*
X41978Y-07290D02*
X42175Y-07290D01*
X42069Y-07411D01*
X42114Y-07411D01*
X42145Y-07426D01*
X42160Y-07442D01*
X42175Y-07472D01*
X42175Y-07548D01*
X42160Y-07578D01*
X42145Y-07593D01*
X42114Y-07609D01*
X42023Y-07609D01*
X41993Y-07593D01*
X41978Y-07578D01*
X38248Y-14575D02*
X38263Y-14590D01*
X38279Y-14636D01*
X38279Y-14666D01*
X38263Y-14711D01*
X38233Y-14742D01*
X38203Y-14757D01*
X38142Y-14772D01*
X38096Y-14772D01*
X38036Y-14757D01*
X38005Y-14742D01*
X37975Y-14711D01*
X37960Y-14666D01*
X37960Y-14636D01*
X37975Y-14590D01*
X37990Y-14575D01*
X37960Y-14301D02*
X37960Y-14362D01*
X37975Y-14392D01*
X37990Y-14408D01*
X38036Y-14438D01*
X38096Y-14453D01*
X38218Y-14453D01*
X38248Y-14438D01*
X38263Y-14423D01*
X38279Y-14392D01*
X38279Y-14332D01*
X38263Y-14301D01*
X38248Y-14286D01*
X38218Y-14271D01*
X38142Y-14271D01*
X38112Y-14286D01*
X38096Y-14301D01*
X38081Y-14332D01*
X38081Y-14392D01*
X38096Y-14423D01*
X38112Y-14438D01*
X38142Y-14453D01*
X37990Y-14149D02*
X37975Y-14134D01*
X37960Y-14104D01*
X37960Y-14028D01*
X37975Y-13997D01*
X37990Y-13982D01*
X38020Y-13967D01*
X38051Y-13967D01*
X38096Y-13982D01*
X38279Y-14164D01*
X38279Y-13967D01*
X31094Y-15334D02*
X31079Y-15349D01*
X31033Y-15365D01*
X31003Y-15365D01*
X30958Y-15349D01*
X30927Y-15319D01*
X30912Y-15289D01*
X30897Y-15228D01*
X30897Y-15182D01*
X30912Y-15122D01*
X30927Y-15091D01*
X30958Y-15061D01*
X31003Y-15046D01*
X31033Y-15046D01*
X31079Y-15061D01*
X31094Y-15076D01*
X31368Y-15046D02*
X31307Y-15046D01*
X31277Y-15061D01*
X31261Y-15076D01*
X31231Y-15122D01*
X31216Y-15182D01*
X31216Y-15304D01*
X31231Y-15334D01*
X31246Y-15349D01*
X31277Y-15365D01*
X31337Y-15365D01*
X31368Y-15349D01*
X31383Y-15334D01*
X31398Y-15304D01*
X31398Y-15228D01*
X31383Y-15198D01*
X31368Y-15182D01*
X31337Y-15167D01*
X31277Y-15167D01*
X31246Y-15182D01*
X31231Y-15198D01*
X31216Y-15228D01*
X31702Y-15365D02*
X31520Y-15365D01*
X31611Y-15365D02*
X31611Y-15046D01*
X31581Y-15091D01*
X31550Y-15122D01*
X31520Y-15137D01*
X04035Y-05323D02*
X04050Y-05338D01*
X04066Y-05384D01*
X04066Y-05414D01*
X04050Y-05459D01*
X04020Y-05490D01*
X03990Y-05505D01*
X03929Y-05520D01*
X03883Y-05520D01*
X03823Y-05505D01*
X03792Y-05490D01*
X03762Y-05459D01*
X03747Y-05414D01*
X03747Y-05384D01*
X03762Y-05338D01*
X03777Y-05323D01*
X03747Y-05049D02*
X03747Y-05110D01*
X03762Y-05140D01*
X03777Y-05156D01*
X03823Y-05186D01*
X03883Y-05201D01*
X04005Y-05201D01*
X04035Y-05186D01*
X04050Y-05171D01*
X04066Y-05140D01*
X04066Y-05080D01*
X04050Y-05049D01*
X04035Y-05034D01*
X04005Y-05019D01*
X03929Y-05019D01*
X03899Y-05034D01*
X03883Y-05049D01*
X03868Y-05080D01*
X03868Y-05140D01*
X03883Y-05171D01*
X03899Y-05186D01*
X03929Y-05201D01*
X03747Y-04821D02*
X03747Y-04791D01*
X03762Y-04761D01*
X03777Y-04745D01*
X03807Y-04730D01*
X03868Y-04715D01*
X03944Y-04715D01*
X04005Y-04730D01*
X04035Y-04745D01*
X04050Y-04761D01*
X04066Y-04791D01*
X04066Y-04821D01*
X04050Y-04852D01*
X04035Y-04867D01*
X04005Y-04882D01*
X03944Y-04897D01*
X03868Y-04897D01*
X03807Y-04882D01*
X03777Y-04867D01*
X03762Y-04852D01*
X03747Y-04821D01*
X24519Y-18326D02*
X24504Y-18341D01*
X24458Y-18357D01*
X24428Y-18357D01*
X24383Y-18341D01*
X24352Y-18311D01*
X24337Y-18281D01*
X24322Y-18220D01*
X24322Y-18174D01*
X24337Y-18114D01*
X24352Y-18083D01*
X24383Y-18053D01*
X24428Y-18038D01*
X24458Y-18038D01*
X24504Y-18053D01*
X24519Y-18068D01*
X24808Y-18038D02*
X24656Y-18038D01*
X24641Y-18190D01*
X24656Y-18174D01*
X24686Y-18159D01*
X24762Y-18159D01*
X24793Y-18174D01*
X24808Y-18190D01*
X24823Y-18220D01*
X24823Y-18296D01*
X24808Y-18326D01*
X24793Y-18341D01*
X24762Y-18357D01*
X24686Y-18357D01*
X24656Y-18341D01*
X24641Y-18326D01*
X25112Y-18038D02*
X24960Y-18038D01*
X24945Y-18190D01*
X24960Y-18174D01*
X24990Y-18159D01*
X25066Y-18159D01*
X25097Y-18174D01*
X25112Y-18190D01*
X25127Y-18220D01*
X25127Y-18296D01*
X25112Y-18326D01*
X25097Y-18341D01*
X25066Y-18357D01*
X24990Y-18357D01*
X24960Y-18341D01*
X24945Y-18326D01*
X22775Y-06189D02*
X22790Y-06204D01*
X22806Y-06250D01*
X22806Y-06280D01*
X22790Y-06325D01*
X22760Y-06356D01*
X22730Y-06371D01*
X22669Y-06386D01*
X22623Y-06386D01*
X22563Y-06371D01*
X22532Y-06356D01*
X22502Y-06325D01*
X22487Y-06280D01*
X22487Y-06250D01*
X22502Y-06204D01*
X22517Y-06189D01*
X22593Y-05915D02*
X22806Y-05915D01*
X22471Y-05991D02*
X22699Y-06067D01*
X22699Y-05870D01*
X22806Y-05733D02*
X22806Y-05672D01*
X22790Y-05642D01*
X22775Y-05627D01*
X22730Y-05596D01*
X22669Y-05581D01*
X22547Y-05581D01*
X22517Y-05596D01*
X22502Y-05611D01*
X22487Y-05642D01*
X22487Y-05702D01*
X22502Y-05733D01*
X22517Y-05748D01*
X22547Y-05763D01*
X22623Y-05763D01*
X22654Y-05748D01*
X22669Y-05733D01*
X22684Y-05702D01*
X22684Y-05642D01*
X22669Y-05611D01*
X22654Y-05596D01*
X22623Y-05581D01*
X22145Y-06189D02*
X22160Y-06204D01*
X22176Y-06250D01*
X22176Y-06280D01*
X22160Y-06325D01*
X22130Y-06356D01*
X22100Y-06371D01*
X22039Y-06386D01*
X21993Y-06386D01*
X21933Y-06371D01*
X21902Y-06356D01*
X21872Y-06325D01*
X21857Y-06280D01*
X21857Y-06250D01*
X21872Y-06204D01*
X21887Y-06189D01*
X21963Y-05915D02*
X22176Y-05915D01*
X21841Y-05991D02*
X22069Y-06067D01*
X22069Y-05870D01*
X21993Y-05702D02*
X21978Y-05733D01*
X21963Y-05748D01*
X21933Y-05763D01*
X21917Y-05763D01*
X21887Y-05748D01*
X21872Y-05733D01*
X21857Y-05702D01*
X21857Y-05642D01*
X21872Y-05611D01*
X21887Y-05596D01*
X21917Y-05581D01*
X21933Y-05581D01*
X21963Y-05596D01*
X21978Y-05611D01*
X21993Y-05642D01*
X21993Y-05702D01*
X22009Y-05733D01*
X22024Y-05748D01*
X22054Y-05763D01*
X22115Y-05763D01*
X22145Y-05748D01*
X22160Y-05733D01*
X22176Y-05702D01*
X22176Y-05642D01*
X22160Y-05611D01*
X22145Y-05596D01*
X22115Y-05581D01*
X22054Y-05581D01*
X22024Y-05596D01*
X22009Y-05611D01*
X21993Y-05642D01*
G54D22*
X22487Y-13091D02*
X22501Y-13104D01*
X22514Y-13143D01*
X22514Y-13169D01*
X22501Y-13209D01*
X22474Y-13235D01*
X22448Y-13248D01*
X22395Y-13261D01*
X22356Y-13261D01*
X22303Y-13248D01*
X22277Y-13235D01*
X22251Y-13209D01*
X22238Y-13169D01*
X22238Y-13143D01*
X22251Y-13104D01*
X22264Y-13091D01*
X22330Y-12854D02*
X22514Y-12854D01*
X22225Y-12920D02*
X22422Y-12985D01*
X22422Y-12815D01*
X22238Y-12591D02*
X22238Y-12644D01*
X22251Y-12670D01*
X22264Y-12683D01*
X22303Y-12709D01*
X22356Y-12722D01*
X22461Y-12722D01*
X22487Y-12709D01*
X22501Y-12696D01*
X22514Y-12670D01*
X22514Y-12617D01*
X22501Y-12591D01*
X22487Y-12578D01*
X22461Y-12565D01*
X22395Y-12565D01*
X22369Y-12578D01*
X22356Y-12591D01*
X22343Y-12617D01*
X22343Y-12670D01*
X22356Y-12696D01*
X22369Y-12709D01*
X22395Y-12722D01*
G54D12*
X21909Y-13197D02*
X21924Y-13212D01*
X21940Y-13258D01*
X21940Y-13288D01*
X21924Y-13333D01*
X21894Y-13364D01*
X21864Y-13379D01*
X21803Y-13394D01*
X21757Y-13394D01*
X21697Y-13379D01*
X21666Y-13364D01*
X21636Y-13333D01*
X21621Y-13288D01*
X21621Y-13258D01*
X21636Y-13212D01*
X21651Y-13197D01*
X21727Y-12923D02*
X21940Y-12923D01*
X21605Y-12999D02*
X21833Y-13075D01*
X21833Y-12878D01*
X21621Y-12604D02*
X21621Y-12756D01*
X21773Y-12771D01*
X21757Y-12756D01*
X21742Y-12726D01*
X21742Y-12650D01*
X21757Y-12619D01*
X21773Y-12604D01*
X21803Y-12589D01*
X21879Y-12589D01*
X21909Y-12604D01*
X21924Y-12619D01*
X21940Y-12650D01*
X21940Y-12726D01*
X21924Y-12756D01*
X21909Y-12771D01*
X32551Y-08366D02*
X32536Y-08381D01*
X32490Y-08397D01*
X32460Y-08397D01*
X32415Y-08381D01*
X32384Y-08351D01*
X32369Y-08321D01*
X32354Y-08260D01*
X32354Y-08214D01*
X32369Y-08154D01*
X32384Y-08123D01*
X32415Y-08093D01*
X32460Y-08078D01*
X32490Y-08078D01*
X32536Y-08093D01*
X32551Y-08108D01*
X32825Y-08184D02*
X32825Y-08397D01*
X32749Y-08062D02*
X32673Y-08290D01*
X32870Y-08290D01*
X33129Y-08184D02*
X33129Y-08397D01*
X33053Y-08062D02*
X32977Y-08290D01*
X33174Y-08290D01*
X20649Y-13236D02*
X20664Y-13251D01*
X20680Y-13297D01*
X20680Y-13327D01*
X20664Y-13372D01*
X20634Y-13403D01*
X20604Y-13418D01*
X20543Y-13433D01*
X20497Y-13433D01*
X20437Y-13418D01*
X20406Y-13403D01*
X20376Y-13372D01*
X20361Y-13327D01*
X20361Y-13297D01*
X20376Y-13251D01*
X20391Y-13236D01*
X20467Y-12962D02*
X20680Y-12962D01*
X20345Y-13038D02*
X20573Y-13114D01*
X20573Y-12917D01*
X20361Y-12825D02*
X20361Y-12628D01*
X20482Y-12734D01*
X20482Y-12689D01*
X20497Y-12658D01*
X20513Y-12643D01*
X20543Y-12628D01*
X20619Y-12628D01*
X20649Y-12643D01*
X20664Y-12658D01*
X20680Y-12689D01*
X20680Y-12780D01*
X20664Y-12810D01*
X20649Y-12825D01*
X20255Y-10441D02*
X20270Y-10456D01*
X20286Y-10502D01*
X20286Y-10532D01*
X20270Y-10577D01*
X20240Y-10608D01*
X20210Y-10623D01*
X20149Y-10638D01*
X20103Y-10638D01*
X20043Y-10623D01*
X20012Y-10608D01*
X19982Y-10577D01*
X19967Y-10532D01*
X19967Y-10502D01*
X19982Y-10456D01*
X19997Y-10441D01*
X20073Y-10167D02*
X20286Y-10167D01*
X19951Y-10243D02*
X20179Y-10319D01*
X20179Y-10122D01*
X19997Y-10015D02*
X19982Y-10000D01*
X19967Y-09970D01*
X19967Y-09894D01*
X19982Y-09863D01*
X19997Y-09848D01*
X20027Y-09833D01*
X20058Y-09833D01*
X20103Y-09848D01*
X20286Y-10030D01*
X20286Y-09833D01*
X37893Y-08079D02*
X37908Y-08094D01*
X37924Y-08140D01*
X37924Y-08170D01*
X37908Y-08215D01*
X37878Y-08246D01*
X37848Y-08261D01*
X37787Y-08276D01*
X37741Y-08276D01*
X37681Y-08261D01*
X37650Y-08246D01*
X37620Y-08215D01*
X37605Y-08170D01*
X37605Y-08140D01*
X37620Y-08094D01*
X37635Y-08079D01*
X37711Y-07805D02*
X37924Y-07805D01*
X37589Y-07881D02*
X37817Y-07957D01*
X37817Y-07760D01*
X37924Y-07471D02*
X37924Y-07653D01*
X37924Y-07562D02*
X37605Y-07562D01*
X37650Y-07592D01*
X37681Y-07623D01*
X37696Y-07653D01*
X36960Y-07381D02*
X36945Y-07396D01*
X36899Y-07412D01*
X36869Y-07412D01*
X36824Y-07396D01*
X36793Y-07366D01*
X36778Y-07336D01*
X36763Y-07275D01*
X36763Y-07229D01*
X36778Y-07169D01*
X36793Y-07138D01*
X36824Y-07108D01*
X36869Y-07093D01*
X36899Y-07093D01*
X36945Y-07108D01*
X36960Y-07123D01*
X37234Y-07199D02*
X37234Y-07412D01*
X37158Y-07077D02*
X37082Y-07305D01*
X37279Y-07305D01*
X37462Y-07093D02*
X37492Y-07093D01*
X37522Y-07108D01*
X37538Y-07123D01*
X37553Y-07153D01*
X37568Y-07214D01*
X37568Y-07290D01*
X37553Y-07351D01*
X37538Y-07381D01*
X37522Y-07396D01*
X37492Y-07412D01*
X37462Y-07412D01*
X37431Y-07396D01*
X37416Y-07381D01*
X37401Y-07351D01*
X37386Y-07290D01*
X37386Y-07214D01*
X37401Y-07153D01*
X37416Y-07123D01*
X37431Y-07108D01*
X37462Y-07093D01*
X42145Y-14575D02*
X42160Y-14590D01*
X42176Y-14636D01*
X42176Y-14666D01*
X42160Y-14711D01*
X42130Y-14742D01*
X42100Y-14757D01*
X42039Y-14772D01*
X41993Y-14772D01*
X41933Y-14757D01*
X41902Y-14742D01*
X41872Y-14711D01*
X41857Y-14666D01*
X41857Y-14636D01*
X41872Y-14590D01*
X41887Y-14575D01*
X41887Y-14453D02*
X41872Y-14438D01*
X41857Y-14408D01*
X41857Y-14332D01*
X41872Y-14301D01*
X41887Y-14286D01*
X41917Y-14271D01*
X41948Y-14271D01*
X41993Y-14286D01*
X42176Y-14468D01*
X42176Y-14271D01*
X41857Y-14164D02*
X41857Y-13967D01*
X41978Y-14073D01*
X41978Y-14028D01*
X41993Y-13997D01*
X42009Y-13982D01*
X42039Y-13967D01*
X42115Y-13967D01*
X42145Y-13982D01*
X42160Y-13997D01*
X42176Y-14028D01*
X42176Y-14119D01*
X42160Y-14149D01*
X42145Y-14164D01*
X34429Y-12725D02*
X34444Y-12740D01*
X34460Y-12786D01*
X34460Y-12816D01*
X34444Y-12861D01*
X34414Y-12892D01*
X34384Y-12907D01*
X34323Y-12922D01*
X34277Y-12922D01*
X34217Y-12907D01*
X34186Y-12892D01*
X34156Y-12861D01*
X34141Y-12816D01*
X34141Y-12786D01*
X34156Y-12740D01*
X34171Y-12725D01*
X34171Y-12603D02*
X34156Y-12588D01*
X34141Y-12558D01*
X34141Y-12482D01*
X34156Y-12451D01*
X34171Y-12436D01*
X34201Y-12421D01*
X34232Y-12421D01*
X34277Y-12436D01*
X34460Y-12618D01*
X34460Y-12421D01*
X34460Y-12117D02*
X34460Y-12299D01*
X34460Y-12208D02*
X34141Y-12208D01*
X34186Y-12238D01*
X34217Y-12269D01*
X34232Y-12299D01*
X33811Y-11830D02*
X33796Y-11845D01*
X33750Y-11861D01*
X33720Y-11861D01*
X33675Y-11845D01*
X33644Y-11815D01*
X33629Y-11785D01*
X33614Y-11724D01*
X33614Y-11678D01*
X33629Y-11618D01*
X33644Y-11587D01*
X33675Y-11557D01*
X33720Y-11542D01*
X33750Y-11542D01*
X33796Y-11557D01*
X33811Y-11572D01*
X34115Y-11861D02*
X33933Y-11861D01*
X34024Y-11861D02*
X34024Y-11542D01*
X33994Y-11587D01*
X33963Y-11618D01*
X33933Y-11633D01*
X34267Y-11861D02*
X34328Y-11861D01*
X34358Y-11845D01*
X34373Y-11830D01*
X34404Y-11785D01*
X34419Y-11724D01*
X34419Y-11602D01*
X34404Y-11572D01*
X34389Y-11557D01*
X34358Y-11542D01*
X34298Y-11542D01*
X34267Y-11557D01*
X34252Y-11572D01*
X34237Y-11602D01*
X34237Y-11678D01*
X34252Y-11709D01*
X34267Y-11724D01*
X34298Y-11739D01*
X34358Y-11739D01*
X34389Y-11724D01*
X34404Y-11709D01*
X34419Y-11678D01*
X28732Y-12696D02*
X28717Y-12711D01*
X28671Y-12727D01*
X28641Y-12727D01*
X28596Y-12711D01*
X28565Y-12681D01*
X28550Y-12651D01*
X28535Y-12590D01*
X28535Y-12544D01*
X28550Y-12484D01*
X28565Y-12453D01*
X28596Y-12423D01*
X28641Y-12408D01*
X28671Y-12408D01*
X28717Y-12423D01*
X28732Y-12438D01*
X29036Y-12727D02*
X28854Y-12727D01*
X28945Y-12727D02*
X28945Y-12408D01*
X28915Y-12453D01*
X28884Y-12484D01*
X28854Y-12499D01*
X29325Y-12408D02*
X29173Y-12408D01*
X29158Y-12560D01*
X29173Y-12544D01*
X29203Y-12529D01*
X29279Y-12529D01*
X29310Y-12544D01*
X29325Y-12560D01*
X29340Y-12590D01*
X29340Y-12666D01*
X29325Y-12696D01*
X29310Y-12711D01*
X29279Y-12727D01*
X29203Y-12727D01*
X29173Y-12711D01*
X29158Y-12696D01*
X31094Y-14862D02*
X31079Y-14877D01*
X31033Y-14893D01*
X31003Y-14893D01*
X30958Y-14877D01*
X30927Y-14847D01*
X30912Y-14817D01*
X30897Y-14756D01*
X30897Y-14710D01*
X30912Y-14650D01*
X30927Y-14619D01*
X30958Y-14589D01*
X31003Y-14574D01*
X31033Y-14574D01*
X31079Y-14589D01*
X31094Y-14604D01*
X31398Y-14893D02*
X31216Y-14893D01*
X31307Y-14893D02*
X31307Y-14574D01*
X31277Y-14619D01*
X31246Y-14650D01*
X31216Y-14665D01*
X31672Y-14680D02*
X31672Y-14893D01*
X31596Y-14558D02*
X31520Y-14786D01*
X31717Y-14786D01*
X31555Y-12882D02*
X31570Y-12897D01*
X31586Y-12943D01*
X31586Y-12973D01*
X31570Y-13018D01*
X31540Y-13049D01*
X31510Y-13064D01*
X31449Y-13079D01*
X31403Y-13079D01*
X31343Y-13064D01*
X31312Y-13049D01*
X31282Y-13018D01*
X31267Y-12973D01*
X31267Y-12943D01*
X31282Y-12897D01*
X31297Y-12882D01*
X31586Y-12578D02*
X31586Y-12760D01*
X31586Y-12669D02*
X31267Y-12669D01*
X31312Y-12699D01*
X31343Y-12730D01*
X31358Y-12760D01*
X31267Y-12380D02*
X31267Y-12350D01*
X31282Y-12320D01*
X31297Y-12304D01*
X31327Y-12289D01*
X31388Y-12274D01*
X31464Y-12274D01*
X31525Y-12289D01*
X31555Y-12304D01*
X31570Y-12320D01*
X31586Y-12350D01*
X31586Y-12380D01*
X31570Y-12411D01*
X31555Y-12426D01*
X31525Y-12441D01*
X31464Y-12456D01*
X31388Y-12456D01*
X31327Y-12441D01*
X31297Y-12426D01*
X31282Y-12411D01*
X31267Y-12380D01*
X41752Y-17415D02*
X41767Y-17430D01*
X41783Y-17476D01*
X41783Y-17506D01*
X41767Y-17551D01*
X41737Y-17582D01*
X41707Y-17597D01*
X41646Y-17612D01*
X41600Y-17612D01*
X41540Y-17597D01*
X41509Y-17582D01*
X41479Y-17551D01*
X41464Y-17506D01*
X41464Y-17476D01*
X41479Y-17430D01*
X41494Y-17415D01*
X41783Y-17263D02*
X41783Y-17202D01*
X41767Y-17172D01*
X41752Y-17157D01*
X41707Y-17126D01*
X41646Y-17111D01*
X41524Y-17111D01*
X41494Y-17126D01*
X41479Y-17141D01*
X41464Y-17172D01*
X41464Y-17232D01*
X41479Y-17263D01*
X41494Y-17278D01*
X41524Y-17293D01*
X41600Y-17293D01*
X41631Y-17278D01*
X41646Y-17263D01*
X41661Y-17232D01*
X41661Y-17172D01*
X41646Y-17141D01*
X41631Y-17126D01*
X41600Y-17111D01*
X41561Y-06909D02*
X41546Y-06924D01*
X41500Y-06940D01*
X41470Y-06940D01*
X41425Y-06924D01*
X41394Y-06894D01*
X41379Y-06864D01*
X41364Y-06803D01*
X41364Y-06757D01*
X41379Y-06697D01*
X41394Y-06666D01*
X41425Y-06636D01*
X41470Y-06621D01*
X41500Y-06621D01*
X41546Y-06636D01*
X41561Y-06651D01*
X41850Y-06621D02*
X41698Y-06621D01*
X41683Y-06773D01*
X41698Y-06757D01*
X41728Y-06742D01*
X41804Y-06742D01*
X41835Y-06757D01*
X41850Y-06773D01*
X41865Y-06803D01*
X41865Y-06879D01*
X41850Y-06909D01*
X41835Y-06924D01*
X41804Y-06940D01*
X41728Y-06940D01*
X41698Y-06924D01*
X41683Y-06909D01*
X46128Y-13484D02*
X46113Y-13499D01*
X46067Y-13515D01*
X46037Y-13515D01*
X45992Y-13499D01*
X45961Y-13469D01*
X45946Y-13439D01*
X45931Y-13378D01*
X45931Y-13332D01*
X45946Y-13272D01*
X45961Y-13241D01*
X45992Y-13211D01*
X46037Y-13196D01*
X46067Y-13196D01*
X46113Y-13211D01*
X46128Y-13226D01*
X46250Y-13226D02*
X46265Y-13211D01*
X46295Y-13196D01*
X46371Y-13196D01*
X46402Y-13211D01*
X46417Y-13226D01*
X46432Y-13256D01*
X46432Y-13287D01*
X46417Y-13332D01*
X46235Y-13515D01*
X46432Y-13515D01*
X36994Y-08200D02*
X36888Y-08048D01*
X36812Y-08200D02*
X36812Y-07881D01*
X36933Y-07881D01*
X36964Y-07896D01*
X36979Y-07911D01*
X36994Y-07941D01*
X36994Y-07987D01*
X36979Y-08017D01*
X36964Y-08033D01*
X36933Y-08048D01*
X36812Y-08048D01*
X37268Y-07987D02*
X37268Y-08200D01*
X37192Y-07865D02*
X37116Y-08093D01*
X37313Y-08093D01*
X41035Y-19266D02*
X40883Y-19372D01*
X41035Y-19448D02*
X40716Y-19448D01*
X40716Y-19327D01*
X40731Y-19296D01*
X40746Y-19281D01*
X40776Y-19266D01*
X40822Y-19266D01*
X40852Y-19281D01*
X40868Y-19296D01*
X40883Y-19327D01*
X40883Y-19448D01*
X40716Y-19159D02*
X40716Y-18962D01*
X40837Y-19068D01*
X40837Y-19023D01*
X40852Y-18992D01*
X40868Y-18977D01*
X40898Y-18962D01*
X40974Y-18962D01*
X41004Y-18977D01*
X41019Y-18992D01*
X41035Y-19023D01*
X41035Y-19114D01*
X41019Y-19144D01*
X41004Y-19159D01*
X23357Y-06076D02*
X23205Y-06182D01*
X23357Y-06258D02*
X23038Y-06258D01*
X23038Y-06137D01*
X23053Y-06106D01*
X23068Y-06091D01*
X23098Y-06076D01*
X23144Y-06076D01*
X23174Y-06091D01*
X23190Y-06106D01*
X23205Y-06137D01*
X23205Y-06258D01*
X23357Y-05924D02*
X23357Y-05863D01*
X23341Y-05833D01*
X23326Y-05818D01*
X23281Y-05787D01*
X23220Y-05772D01*
X23098Y-05772D01*
X23068Y-05787D01*
X23053Y-05802D01*
X23038Y-05833D01*
X23038Y-05893D01*
X23053Y-05924D01*
X23068Y-05939D01*
X23098Y-05954D01*
X23174Y-05954D01*
X23205Y-05939D01*
X23220Y-05924D01*
X23235Y-05893D01*
X23235Y-05833D01*
X23220Y-05802D01*
X23205Y-05787D01*
X23174Y-05772D01*
X39145Y-19226D02*
X38993Y-19332D01*
X39145Y-19408D02*
X38826Y-19408D01*
X38826Y-19287D01*
X38841Y-19256D01*
X38856Y-19241D01*
X38886Y-19226D01*
X38932Y-19226D01*
X38962Y-19241D01*
X38978Y-19256D01*
X38993Y-19287D01*
X38993Y-19408D01*
X38856Y-19104D02*
X38841Y-19089D01*
X38826Y-19059D01*
X38826Y-18983D01*
X38841Y-18952D01*
X38856Y-18937D01*
X38886Y-18922D01*
X38917Y-18922D01*
X38962Y-18937D01*
X39145Y-19119D01*
X39145Y-18922D01*
X47427Y-09696D02*
X47321Y-09544D01*
X47245Y-09696D02*
X47245Y-09377D01*
X47366Y-09377D01*
X47397Y-09392D01*
X47412Y-09407D01*
X47427Y-09437D01*
X47427Y-09483D01*
X47412Y-09513D01*
X47397Y-09529D01*
X47366Y-09544D01*
X47245Y-09544D01*
X47731Y-09696D02*
X47549Y-09696D01*
X47640Y-09696D02*
X47640Y-09377D01*
X47610Y-09422D01*
X47579Y-09453D01*
X47549Y-09468D01*
X23116Y-13091D02*
X23130Y-13104D01*
X23143Y-13143D01*
X23143Y-13169D01*
X23130Y-13209D01*
X23103Y-13235D01*
X23077Y-13248D01*
X23024Y-13261D01*
X22985Y-13261D01*
X22932Y-13248D01*
X22906Y-13235D01*
X22880Y-13209D01*
X22867Y-13169D01*
X22867Y-13143D01*
X22880Y-13104D01*
X22893Y-13091D01*
X22867Y-12841D02*
X22867Y-12972D01*
X22998Y-12985D01*
X22985Y-12972D01*
X22972Y-12946D01*
X22972Y-12880D01*
X22985Y-12854D01*
X22998Y-12841D01*
X23024Y-12828D01*
X23090Y-12828D01*
X23116Y-12841D01*
X23130Y-12854D01*
X23143Y-12880D01*
X23143Y-12946D01*
X23130Y-12972D01*
X23116Y-12985D01*
X22867Y-12657D02*
X22867Y-12630D01*
X22880Y-12604D01*
X22893Y-12591D01*
X22919Y-12578D01*
X22972Y-12565D01*
X23038Y-12565D01*
X23090Y-12578D01*
X23116Y-12591D01*
X23130Y-12604D01*
X23143Y-12630D01*
X23143Y-12657D01*
X23130Y-12683D01*
X23116Y-12696D01*
X23090Y-12709D01*
X23038Y-12722D01*
X22972Y-12722D01*
X22919Y-12709D01*
X22893Y-12696D01*
X22880Y-12683D01*
X22867Y-12657D01*
X36955Y-06743D02*
X36849Y-06591D01*
X36773Y-06743D02*
X36773Y-06424D01*
X36894Y-06424D01*
X36925Y-06439D01*
X36940Y-06454D01*
X36955Y-06484D01*
X36955Y-06530D01*
X36940Y-06560D01*
X36925Y-06576D01*
X36894Y-06591D01*
X36773Y-06591D01*
X37244Y-06424D02*
X37092Y-06424D01*
X37077Y-06576D01*
X37092Y-06560D01*
X37122Y-06545D01*
X37198Y-06545D01*
X37229Y-06560D01*
X37244Y-06576D01*
X37259Y-06606D01*
X37259Y-06682D01*
X37244Y-06712D01*
X37229Y-06727D01*
X37198Y-06743D01*
X37122Y-06743D01*
X37092Y-06727D01*
X37077Y-06712D01*
X31882Y-18987D02*
X31776Y-18835D01*
X31700Y-18987D02*
X31700Y-18668D01*
X31821Y-18668D01*
X31852Y-18683D01*
X31867Y-18698D01*
X31882Y-18728D01*
X31882Y-18774D01*
X31867Y-18804D01*
X31852Y-18820D01*
X31821Y-18835D01*
X31700Y-18835D01*
X32186Y-18987D02*
X32004Y-18987D01*
X32095Y-18987D02*
X32095Y-18668D01*
X32065Y-18713D01*
X32034Y-18744D01*
X32004Y-18759D01*
X32460Y-18668D02*
X32399Y-18668D01*
X32369Y-18683D01*
X32353Y-18698D01*
X32323Y-18744D01*
X32308Y-18804D01*
X32308Y-18926D01*
X32323Y-18956D01*
X32338Y-18971D01*
X32369Y-18987D01*
X32429Y-18987D01*
X32460Y-18971D01*
X32475Y-18956D01*
X32490Y-18926D01*
X32490Y-18850D01*
X32475Y-18820D01*
X32460Y-18804D01*
X32429Y-18789D01*
X32369Y-18789D01*
X32338Y-18804D01*
X32323Y-18820D01*
X32308Y-18850D01*
X31882Y-18279D02*
X31776Y-18127D01*
X31700Y-18279D02*
X31700Y-17960D01*
X31821Y-17960D01*
X31852Y-17975D01*
X31867Y-17990D01*
X31882Y-18020D01*
X31882Y-18066D01*
X31867Y-18096D01*
X31852Y-18112D01*
X31821Y-18127D01*
X31700Y-18127D01*
X32186Y-18279D02*
X32004Y-18279D01*
X32095Y-18279D02*
X32095Y-17960D01*
X32065Y-18005D01*
X32034Y-18036D01*
X32004Y-18051D01*
X32475Y-17960D02*
X32323Y-17960D01*
X32308Y-18112D01*
X32323Y-18096D01*
X32353Y-18081D01*
X32429Y-18081D01*
X32460Y-18096D01*
X32475Y-18112D01*
X32490Y-18142D01*
X32490Y-18218D01*
X32475Y-18248D01*
X32460Y-18263D01*
X32429Y-18279D01*
X32353Y-18279D01*
X32323Y-18263D01*
X32308Y-18248D01*
X32098Y-16032D02*
X31946Y-16138D01*
X32098Y-16214D02*
X31779Y-16214D01*
X31779Y-16093D01*
X31794Y-16062D01*
X31809Y-16047D01*
X31839Y-16032D01*
X31885Y-16032D01*
X31915Y-16047D01*
X31931Y-16062D01*
X31946Y-16093D01*
X31946Y-16214D01*
X32098Y-15728D02*
X32098Y-15910D01*
X32098Y-15819D02*
X31779Y-15819D01*
X31824Y-15849D01*
X31855Y-15880D01*
X31870Y-15910D01*
X31885Y-15454D02*
X32098Y-15454D01*
X31763Y-15530D02*
X31991Y-15606D01*
X31991Y-15409D01*
X27630Y-18987D02*
X27524Y-18835D01*
X27448Y-18987D02*
X27448Y-18668D01*
X27569Y-18668D01*
X27600Y-18683D01*
X27615Y-18698D01*
X27630Y-18728D01*
X27630Y-18774D01*
X27615Y-18804D01*
X27600Y-18820D01*
X27569Y-18835D01*
X27448Y-18835D01*
X27934Y-18987D02*
X27752Y-18987D01*
X27843Y-18987D02*
X27843Y-18668D01*
X27813Y-18713D01*
X27782Y-18744D01*
X27752Y-18759D01*
X28041Y-18668D02*
X28238Y-18668D01*
X28132Y-18789D01*
X28177Y-18789D01*
X28208Y-18804D01*
X28223Y-18820D01*
X28238Y-18850D01*
X28238Y-18926D01*
X28223Y-18956D01*
X28208Y-18971D01*
X28177Y-18987D01*
X28086Y-18987D01*
X28056Y-18971D01*
X28041Y-18956D01*
X27669Y-18279D02*
X27563Y-18127D01*
X27487Y-18279D02*
X27487Y-17960D01*
X27608Y-17960D01*
X27639Y-17975D01*
X27654Y-17990D01*
X27669Y-18020D01*
X27669Y-18066D01*
X27654Y-18096D01*
X27639Y-18112D01*
X27608Y-18127D01*
X27487Y-18127D01*
X27973Y-18279D02*
X27791Y-18279D01*
X27882Y-18279D02*
X27882Y-17960D01*
X27852Y-18005D01*
X27821Y-18036D01*
X27791Y-18051D01*
X28095Y-17990D02*
X28110Y-17975D01*
X28140Y-17960D01*
X28216Y-17960D01*
X28247Y-17975D01*
X28262Y-17990D01*
X28277Y-18020D01*
X28277Y-18051D01*
X28262Y-18096D01*
X28080Y-18279D01*
X28277Y-18279D01*
X27157Y-16979D02*
X27051Y-16827D01*
X26975Y-16979D02*
X26975Y-16660D01*
X27096Y-16660D01*
X27127Y-16675D01*
X27142Y-16690D01*
X27157Y-16720D01*
X27157Y-16766D01*
X27142Y-16796D01*
X27127Y-16812D01*
X27096Y-16827D01*
X26975Y-16827D01*
X27461Y-16979D02*
X27279Y-16979D01*
X27370Y-16979D02*
X27370Y-16660D01*
X27340Y-16705D01*
X27309Y-16736D01*
X27279Y-16751D01*
X27765Y-16979D02*
X27583Y-16979D01*
X27674Y-16979D02*
X27674Y-16660D01*
X27644Y-16705D01*
X27613Y-16736D01*
X27583Y-16751D01*
X23734Y-13091D02*
X23602Y-13183D01*
X23734Y-13248D02*
X23458Y-13248D01*
X23458Y-13143D01*
X23471Y-13117D01*
X23484Y-13104D01*
X23510Y-13091D01*
X23550Y-13091D01*
X23576Y-13104D01*
X23589Y-13117D01*
X23602Y-13143D01*
X23602Y-13248D01*
X23734Y-12828D02*
X23734Y-12985D01*
X23734Y-12907D02*
X23458Y-12907D01*
X23497Y-12933D01*
X23523Y-12959D01*
X23537Y-12985D01*
X23458Y-12657D02*
X23458Y-12630D01*
X23471Y-12604D01*
X23484Y-12591D01*
X23510Y-12578D01*
X23563Y-12565D01*
X23629Y-12565D01*
X23681Y-12578D01*
X23707Y-12591D01*
X23721Y-12604D01*
X23734Y-12630D01*
X23734Y-12657D01*
X23721Y-12683D01*
X23707Y-12696D01*
X23681Y-12709D01*
X23629Y-12722D01*
X23563Y-12722D01*
X23510Y-12709D01*
X23484Y-12696D01*
X23471Y-12683D01*
X23458Y-12657D01*
X32782Y-06625D02*
X32676Y-06473D01*
X32600Y-06625D02*
X32600Y-06306D01*
X32721Y-06306D01*
X32752Y-06321D01*
X32767Y-06336D01*
X32782Y-06366D01*
X32782Y-06412D01*
X32767Y-06442D01*
X32752Y-06458D01*
X32721Y-06473D01*
X32600Y-06473D01*
X32965Y-06442D02*
X32934Y-06427D01*
X32919Y-06412D01*
X32904Y-06382D01*
X32904Y-06366D01*
X32919Y-06336D01*
X32934Y-06321D01*
X32965Y-06306D01*
X33025Y-06306D01*
X33056Y-06321D01*
X33071Y-06336D01*
X33086Y-06366D01*
X33086Y-06382D01*
X33071Y-06412D01*
X33056Y-06427D01*
X33025Y-06442D01*
X32965Y-06442D01*
X32934Y-06458D01*
X32919Y-06473D01*
X32904Y-06503D01*
X32904Y-06564D01*
X32919Y-06594D01*
X32934Y-06609D01*
X32965Y-06625D01*
X33025Y-06625D01*
X33056Y-06609D01*
X33071Y-06594D01*
X33086Y-06564D01*
X33086Y-06503D01*
X33071Y-06473D01*
X33056Y-06458D01*
X33025Y-06442D01*
X32821Y-09184D02*
X32715Y-09032D01*
X32639Y-09184D02*
X32639Y-08865D01*
X32760Y-08865D01*
X32791Y-08880D01*
X32806Y-08895D01*
X32821Y-08925D01*
X32821Y-08971D01*
X32806Y-09001D01*
X32791Y-09017D01*
X32760Y-09032D01*
X32639Y-09032D01*
X33095Y-08865D02*
X33034Y-08865D01*
X33004Y-08880D01*
X32988Y-08895D01*
X32958Y-08941D01*
X32943Y-09001D01*
X32943Y-09123D01*
X32958Y-09153D01*
X32973Y-09168D01*
X33004Y-09184D01*
X33064Y-09184D01*
X33095Y-09168D01*
X33110Y-09153D01*
X33125Y-09123D01*
X33125Y-09047D01*
X33110Y-09017D01*
X33095Y-09001D01*
X33064Y-08986D01*
X33004Y-08986D01*
X32973Y-09001D01*
X32958Y-09017D01*
X32943Y-09047D01*
X28260Y-16113D02*
X28154Y-15961D01*
X28078Y-16113D02*
X28078Y-15794D01*
X28199Y-15794D01*
X28230Y-15809D01*
X28245Y-15824D01*
X28260Y-15854D01*
X28260Y-15900D01*
X28245Y-15930D01*
X28230Y-15946D01*
X28199Y-15961D01*
X28078Y-15961D01*
X28564Y-16113D02*
X28382Y-16113D01*
X28473Y-16113D02*
X28473Y-15794D01*
X28443Y-15839D01*
X28412Y-15870D01*
X28382Y-15885D01*
X28671Y-15794D02*
X28883Y-15794D01*
X28747Y-16113D01*
X21310Y-12887D02*
X21310Y-13039D01*
X20991Y-13039D01*
X21097Y-12644D02*
X21310Y-12644D01*
X20975Y-12720D02*
X21203Y-12796D01*
X21203Y-12599D01*
G54D21*
X19549Y-15097D02*
X19549Y-15340D01*
X19564Y-15369D01*
X19578Y-15383D01*
X19607Y-15397D01*
X19664Y-15397D01*
X19692Y-15383D01*
X19707Y-15369D01*
X19721Y-15340D01*
X19721Y-15097D01*
X20021Y-15397D02*
X19849Y-15397D01*
X19935Y-15397D02*
X19935Y-15097D01*
X19906Y-15140D01*
X19878Y-15169D01*
X19849Y-15183D01*
X20121Y-15097D02*
X20307Y-15097D01*
X20207Y-15212D01*
X20249Y-15212D01*
X20278Y-15226D01*
X20292Y-15240D01*
X20307Y-15269D01*
X20307Y-15340D01*
X20292Y-15369D01*
X20278Y-15383D01*
X20249Y-15397D01*
X20164Y-15397D01*
X20135Y-15383D01*
X20121Y-15369D01*
G54D22*
X33902Y-16907D02*
X33921Y-16926D01*
X33939Y-16982D01*
X33939Y-17020D01*
X33921Y-17076D01*
X33883Y-17113D01*
X33846Y-17132D01*
X33771Y-17151D01*
X33714Y-17151D01*
X33639Y-17132D01*
X33602Y-17113D01*
X33564Y-17076D01*
X33545Y-17020D01*
X33545Y-16982D01*
X33564Y-16926D01*
X33583Y-16907D01*
X33545Y-16551D02*
X33545Y-16738D01*
X33733Y-16757D01*
X33714Y-16738D01*
X33696Y-16701D01*
X33696Y-16607D01*
X33714Y-16569D01*
X33733Y-16551D01*
X33771Y-16532D01*
X33864Y-16532D01*
X33902Y-16551D01*
X33921Y-16569D01*
X33939Y-16607D01*
X33939Y-16701D01*
X33921Y-16738D01*
X33902Y-16757D01*
X33939Y-16157D02*
X33939Y-16382D01*
X33939Y-16269D02*
X33545Y-16269D01*
X33602Y-16307D01*
X33639Y-16344D01*
X33658Y-16382D01*
X25201Y-16719D02*
X25220Y-16738D01*
X25238Y-16794D01*
X25238Y-16832D01*
X25220Y-16888D01*
X25182Y-16925D01*
X25145Y-16944D01*
X25070Y-16963D01*
X25013Y-16963D01*
X24938Y-16944D01*
X24901Y-16925D01*
X24863Y-16888D01*
X24844Y-16832D01*
X24844Y-16794D01*
X24863Y-16738D01*
X24882Y-16719D01*
X25013Y-16494D02*
X24995Y-16531D01*
X24976Y-16550D01*
X24938Y-16569D01*
X24920Y-16569D01*
X24882Y-16550D01*
X24863Y-16531D01*
X24844Y-16494D01*
X24844Y-16419D01*
X24863Y-16381D01*
X24882Y-16363D01*
X24920Y-16344D01*
X24938Y-16344D01*
X24976Y-16363D01*
X24995Y-16381D01*
X25013Y-16419D01*
X25013Y-16494D01*
X25032Y-16531D01*
X25051Y-16550D01*
X25088Y-16569D01*
X25163Y-16569D01*
X25201Y-16550D01*
X25220Y-16531D01*
X25238Y-16494D01*
X25238Y-16419D01*
X25220Y-16381D01*
X25201Y-16363D01*
X25163Y-16344D01*
X25088Y-16344D01*
X25051Y-16363D01*
X25032Y-16381D01*
X25013Y-16419D01*
G54D11*
X02241Y-06182D02*
X02372Y-06576D01*
X02503Y-06182D01*
X02860Y-06576D02*
X02729Y-06389D01*
X02635Y-06576D02*
X02635Y-06182D01*
X02785Y-06182D01*
X02822Y-06201D01*
X02841Y-06220D01*
X02860Y-06258D01*
X02860Y-06314D01*
X02841Y-06351D01*
X02822Y-06370D01*
X02785Y-06389D01*
X02635Y-06389D01*
X03010Y-06220D02*
X03029Y-06201D01*
X03066Y-06182D01*
X03160Y-06182D01*
X03198Y-06201D01*
X03216Y-06220D01*
X03235Y-06258D01*
X03235Y-06295D01*
X03216Y-06351D01*
X02991Y-06576D01*
X03235Y-06576D01*
X18698Y-17048D02*
X18829Y-17442D01*
X18960Y-17048D01*
X19317Y-17442D02*
X19186Y-17255D01*
X19092Y-17442D02*
X19092Y-17048D01*
X19242Y-17048D01*
X19279Y-17067D01*
X19298Y-17086D01*
X19317Y-17124D01*
X19317Y-17180D01*
X19298Y-17217D01*
X19279Y-17236D01*
X19242Y-17255D01*
X19092Y-17255D01*
X19692Y-17442D02*
X19467Y-17442D01*
X19580Y-17442D02*
X19580Y-17048D01*
X19542Y-17105D01*
X19505Y-17142D01*
X19467Y-17161D01*
X24708Y-07976D02*
X24689Y-07995D01*
X24633Y-08013D01*
X24595Y-08013D01*
X24539Y-07995D01*
X24502Y-07957D01*
X24483Y-07920D01*
X24464Y-07845D01*
X24464Y-07788D01*
X24483Y-07713D01*
X24502Y-07676D01*
X24539Y-07638D01*
X24595Y-07619D01*
X24633Y-07619D01*
X24689Y-07638D01*
X24708Y-07657D01*
X24839Y-07619D02*
X25083Y-07619D01*
X24952Y-07770D01*
X25008Y-07770D01*
X25046Y-07788D01*
X25064Y-07807D01*
X25083Y-07845D01*
X25083Y-07938D01*
X25064Y-07976D01*
X25046Y-07995D01*
X25008Y-08013D01*
X24896Y-08013D01*
X24858Y-07995D01*
X24839Y-07976D01*
X25421Y-07751D02*
X25421Y-08013D01*
X25327Y-07601D02*
X25233Y-07882D01*
X25477Y-07882D01*
X20259Y-08016D02*
X20240Y-08035D01*
X20184Y-08053D01*
X20146Y-08053D01*
X20090Y-08035D01*
X20053Y-07997D01*
X20034Y-07960D01*
X20015Y-07885D01*
X20015Y-07828D01*
X20034Y-07753D01*
X20053Y-07716D01*
X20090Y-07678D01*
X20146Y-07659D01*
X20184Y-07659D01*
X20240Y-07678D01*
X20259Y-07697D01*
X20615Y-07659D02*
X20428Y-07659D01*
X20409Y-07847D01*
X20428Y-07828D01*
X20465Y-07810D01*
X20559Y-07810D01*
X20597Y-07828D01*
X20615Y-07847D01*
X20634Y-07885D01*
X20634Y-07978D01*
X20615Y-08016D01*
X20597Y-08035D01*
X20559Y-08053D01*
X20465Y-08053D01*
X20428Y-08035D01*
X20409Y-08016D01*
X20784Y-07697D02*
X20803Y-07678D01*
X20840Y-07659D01*
X20934Y-07659D01*
X20972Y-07678D01*
X20990Y-07697D01*
X21009Y-07735D01*
X21009Y-07772D01*
X20990Y-07828D01*
X20765Y-08053D01*
X21009Y-08053D01*
%LPC*%
G54D24*
X31102Y-01772D03*
X31102Y-05709D03*
X29134Y-05020D03*
X37795Y-01772D03*
X37795Y-05709D03*
X35827Y-05020D03*
G54D25*
X36969Y-15157D03*
X35079Y-15157D03*
X36969Y-18110D03*
X35079Y-18110D03*
G54D26*
X43306Y-03149D03*
X41653Y-04331D03*
X43307Y-05512D03*
G54D27*
X24370Y-11337D03*
X24370Y-12203D03*
G54D28*
X47677Y-15551D03*
X46811Y-15551D03*
G54D29*
X33465Y-12953D03*
X32874Y-12953D03*
X32283Y-12953D03*
G54D30*
X32874Y-14055D03*
G54D31*
X29107Y-16702D03*
X29107Y-16958D03*
X29107Y-17214D03*
X29107Y-17470D03*
X30807Y-17470D03*
X30807Y-17214D03*
X30807Y-16958D03*
X30807Y-16702D03*
G54D32*
X22087Y-10469D03*
X22284Y-10469D03*
X22481Y-10469D03*
X22677Y-10469D03*
X22873Y-10469D03*
X23070Y-10469D03*
X23267Y-10469D03*
G54D33*
X23661Y-10075D03*
X23661Y-09878D03*
X23661Y-09681D03*
X23661Y-09485D03*
X23661Y-09289D03*
X23661Y-09092D03*
X23661Y-08895D03*
G54D32*
X23267Y-08501D03*
X23070Y-08501D03*
X22873Y-08501D03*
X22677Y-08501D03*
X22481Y-08501D03*
X22284Y-08501D03*
X22087Y-08501D03*
G54D33*
X21693Y-08895D03*
X21693Y-09092D03*
X21693Y-09289D03*
X21693Y-09485D03*
X21693Y-09681D03*
X21693Y-09878D03*
X21693Y-10075D03*
G54D34*
X22677Y-09485D03*
G54D35*
X37835Y-12205D03*
X35787Y-12205D03*
G54D28*
X46811Y-12598D03*
X47677Y-12598D03*
X26929Y-14567D03*
X27795Y-14567D03*
X23898Y-17480D03*
X23032Y-17480D03*
G54D36*
X38720Y-17146D03*
X38720Y-18327D03*
G54D37*
X41448Y-08544D03*
G54D38*
X40551Y-11496D03*
G54D37*
X39654Y-08544D03*
G54D39*
X10866Y-05158D03*
X11181Y-05158D03*
X11496Y-05158D03*
X11811Y-05158D03*
X12126Y-05158D03*
X12441Y-05158D03*
X12756Y-05158D03*
X13071Y-05158D03*
X13386Y-05158D03*
X13701Y-05158D03*
X14016Y-05158D03*
X14331Y-05158D03*
X14646Y-05158D03*
X14960Y-05158D03*
X15275Y-05158D03*
X15590Y-05158D03*
X15905Y-05158D03*
X16220Y-05158D03*
X16535Y-05158D03*
X16850Y-05158D03*
X17165Y-05158D03*
X17480Y-05158D03*
X10866Y-00591D03*
X11181Y-00591D03*
X11496Y-00591D03*
X11811Y-00591D03*
X12126Y-00591D03*
X12441Y-00591D03*
X12756Y-00591D03*
X13071Y-00591D03*
X13386Y-00591D03*
X13701Y-00591D03*
X14016Y-00591D03*
X14331Y-00591D03*
X14646Y-00591D03*
X14961Y-00591D03*
X15275Y-00591D03*
X15590Y-00591D03*
X15905Y-00591D03*
X16220Y-00591D03*
X16535Y-00591D03*
X16850Y-00591D03*
X17165Y-00591D03*
X17480Y-00591D03*
G54D40*
X40609Y-16160D03*
X39271Y-16160D03*
G54D41*
X46850Y-18110D03*
X46850Y-01575D03*
X01575Y-18110D03*
X01575Y-01575D03*
G54D42*
X26679Y-07199D03*
X26679Y-07699D03*
X26679Y-08199D03*
X26679Y-08699D03*
X26679Y-09199D03*
X26679Y-09699D03*
X26679Y-10199D03*
X26679Y-10699D03*
X26679Y-11199D03*
X26679Y-11699D03*
X30801Y-11699D03*
X30801Y-11199D03*
X30801Y-10699D03*
X30801Y-10199D03*
X30801Y-09699D03*
X30801Y-09199D03*
X30801Y-08699D03*
X30801Y-08199D03*
X30801Y-07699D03*
X30801Y-07199D03*
G54D43*
X03996Y-02559D03*
G54D44*
X04996Y-02559D03*
X05996Y-02559D03*
X06996Y-02559D03*
X07996Y-02559D03*
X08996Y-02559D03*
G54D43*
X44201Y-18504D03*
G54D44*
X43201Y-18504D03*
G54D43*
X44201Y-16929D03*
G54D44*
X43201Y-16929D03*
G54D43*
X43291Y-15264D03*
G54D44*
X43291Y-14264D03*
X44291Y-15264D03*
X44291Y-14264D03*
X45291Y-15264D03*
X45291Y-14264D03*
G54D28*
X07638Y-14882D03*
X08504Y-14882D03*
G54D40*
X28031Y-13386D03*
X26693Y-13386D03*
X34134Y-10630D03*
X32796Y-10630D03*
G54D45*
X43425Y-08661D03*
X46339Y-08661D03*
G54D46*
X40657Y-14370D03*
X39657Y-14745D03*
X39657Y-13995D03*
X47744Y-11220D03*
X46744Y-11595D03*
X46744Y-10845D03*
G54D47*
X07571Y-15570D03*
X07571Y-16320D03*
X08571Y-15570D03*
X07571Y-15945D03*
X08571Y-16320D03*
X46744Y-13995D03*
X46744Y-14745D03*
X47744Y-13995D03*
X46744Y-14370D03*
X47744Y-14745D03*
X30618Y-14155D03*
X30618Y-13405D03*
X29618Y-14155D03*
X30618Y-13780D03*
X29618Y-13405D03*
X39401Y-17045D03*
X39401Y-17795D03*
X40401Y-17045D03*
X39401Y-17420D03*
X40401Y-17795D03*
G54D48*
X10006Y-07736D03*
X10006Y-07936D03*
X10006Y-08131D03*
X10006Y-08326D03*
X10006Y-08526D03*
X10006Y-08721D03*
X10006Y-08916D03*
X10006Y-09116D03*
X10006Y-09311D03*
X10006Y-09506D03*
X10006Y-09706D03*
X10006Y-09901D03*
X10006Y-10096D03*
X10006Y-10296D03*
X10006Y-10491D03*
X10006Y-10686D03*
X10006Y-10886D03*
X10006Y-11081D03*
X10006Y-11281D03*
X10006Y-11476D03*
X10006Y-11676D03*
X10006Y-11871D03*
X10006Y-12066D03*
X10006Y-12266D03*
X10006Y-12461D03*
X10006Y-12656D03*
X10006Y-12856D03*
X10006Y-13051D03*
X10006Y-13246D03*
X10006Y-13446D03*
X10006Y-13641D03*
X10006Y-13836D03*
X10006Y-14036D03*
X10006Y-14231D03*
X10006Y-14426D03*
X10006Y-14626D03*
G54D49*
X16596Y-15506D03*
X16791Y-15506D03*
X16986Y-15506D03*
X17186Y-15506D03*
X17381Y-15506D03*
X17576Y-15506D03*
X17776Y-15506D03*
X16791Y-06856D03*
X16596Y-06856D03*
X16396Y-06856D03*
X16201Y-06856D03*
X16006Y-06856D03*
X15806Y-06856D03*
X15611Y-06856D03*
X15416Y-06856D03*
X15216Y-06856D03*
X15021Y-06856D03*
X14826Y-06856D03*
X14626Y-06856D03*
X14431Y-06856D03*
X14231Y-06856D03*
X14036Y-06856D03*
X13836Y-06856D03*
X13641Y-06856D03*
X13446Y-06856D03*
X13246Y-06856D03*
X13051Y-06856D03*
X12856Y-06856D03*
X12656Y-06856D03*
X12461Y-06856D03*
X12266Y-06856D03*
X12066Y-06856D03*
X11871Y-06856D03*
X11676Y-06856D03*
X11476Y-06856D03*
X11281Y-06856D03*
X11086Y-06856D03*
X10886Y-06856D03*
X10886Y-15506D03*
X11086Y-15506D03*
X11281Y-15506D03*
X11476Y-15506D03*
X11676Y-15506D03*
X11871Y-15506D03*
X12066Y-15506D03*
X12266Y-15506D03*
X12461Y-15506D03*
X12656Y-15506D03*
X12856Y-15506D03*
X13051Y-15506D03*
X13246Y-15506D03*
X13446Y-15506D03*
X13641Y-15506D03*
X13836Y-15506D03*
X14036Y-15506D03*
X14231Y-15506D03*
X14431Y-15506D03*
X14626Y-15506D03*
X14826Y-15506D03*
X15021Y-15506D03*
X15216Y-15506D03*
X15416Y-15506D03*
X15611Y-15506D03*
X15806Y-15506D03*
X16006Y-15506D03*
X16201Y-15506D03*
X16396Y-15506D03*
G54D48*
X18656Y-13641D03*
X18656Y-13446D03*
X18656Y-13246D03*
X18656Y-13051D03*
X18656Y-12856D03*
X18656Y-12656D03*
X18656Y-12461D03*
X18656Y-12266D03*
X18656Y-12066D03*
X18656Y-11871D03*
X18656Y-11676D03*
X18656Y-11476D03*
X18656Y-11281D03*
X18656Y-11081D03*
X18656Y-10886D03*
X18656Y-10686D03*
X18656Y-10491D03*
X18656Y-10296D03*
X18656Y-10096D03*
X18656Y-09901D03*
X18656Y-09706D03*
X18656Y-09506D03*
X18656Y-09311D03*
X18656Y-09116D03*
X18656Y-08916D03*
X18656Y-08721D03*
X18656Y-08526D03*
X18656Y-08326D03*
X18656Y-08131D03*
X18656Y-07936D03*
X18656Y-07736D03*
X18656Y-14626D03*
X18656Y-14426D03*
X18656Y-14231D03*
X18656Y-14036D03*
X18656Y-13836D03*
G54D49*
X17776Y-06856D03*
X17576Y-06856D03*
X17381Y-06856D03*
X17186Y-06856D03*
X16986Y-06856D03*
G54D50*
X20669Y-04528D03*
X18701Y-04528D03*
X18504Y-01576D03*
X20866Y-01576D03*
X26181Y-04528D03*
X24213Y-04528D03*
X24016Y-01576D03*
X26378Y-01576D03*
G54D51*
X07496Y-06609D03*
X05496Y-06609D03*
X05496Y-04809D03*
X07496Y-04809D03*
G54D52*
X05868Y-16404D03*
X05868Y-14304D03*
X05368Y-16404D03*
X04868Y-16404D03*
X04368Y-16404D03*
X05368Y-14304D03*
X04868Y-14304D03*
X04368Y-14304D03*
X47994Y-06365D03*
X47994Y-04265D03*
X47494Y-06365D03*
X46994Y-06365D03*
X46494Y-06365D03*
X47494Y-04265D03*
X46994Y-04265D03*
X46494Y-04265D03*
G54D53*
X43241Y-12955D03*
X45341Y-12955D03*
X43241Y-12455D03*
X43241Y-11955D03*
X43241Y-11455D03*
X45341Y-12455D03*
X45341Y-11955D03*
X45341Y-11455D03*
G54D54*
X35721Y-08699D03*
X35721Y-09199D03*
X35721Y-09699D03*
X35721Y-10199D03*
X37508Y-08699D03*
X37508Y-09199D03*
X37508Y-09699D03*
X37508Y-10199D03*
G54D55*
X11025Y-17324D03*
G54D56*
X18701Y-18307D03*
X10236Y-18307D03*
G54D55*
X11222Y-17324D03*
X11419Y-17324D03*
X11616Y-17324D03*
X11812Y-17324D03*
X12009Y-17324D03*
X12206Y-17324D03*
X12403Y-17324D03*
X12600Y-17324D03*
X12797Y-17324D03*
X13191Y-17324D03*
X13387Y-17324D03*
X13584Y-17324D03*
X13781Y-17324D03*
X13978Y-17324D03*
X14175Y-17324D03*
X14372Y-17324D03*
X14568Y-17324D03*
X14765Y-17324D03*
X14962Y-17324D03*
X15159Y-17324D03*
X15356Y-17324D03*
X15553Y-17324D03*
X15750Y-17324D03*
X15946Y-17324D03*
X16143Y-17324D03*
X16340Y-17324D03*
X16537Y-17324D03*
X16734Y-17324D03*
X16931Y-17324D03*
X17128Y-17324D03*
X17324Y-17324D03*
X17521Y-17324D03*
X17718Y-17324D03*
X17915Y-17324D03*
G54D10*
G36*
X12930Y-17044D02*
X13056Y-17044D01*
X13056Y-17602D01*
X12930Y-17602D01*
X12930Y-17044D01*
X12930Y-17044D01*
G37*
G54D57*
X02440Y-08072D03*
G54D56*
X01457Y-15748D03*
X01457Y-07283D03*
G54D57*
X02440Y-08269D03*
X02440Y-08466D03*
X02440Y-08663D03*
X02440Y-08859D03*
X02440Y-09056D03*
X02440Y-09253D03*
X02440Y-09450D03*
X02440Y-09647D03*
X02440Y-09844D03*
X02440Y-10238D03*
X02440Y-10434D03*
X02440Y-10631D03*
X02440Y-10828D03*
X02440Y-11025D03*
X02440Y-11222D03*
X02440Y-11419D03*
X02440Y-11615D03*
X02440Y-11812D03*
X02440Y-12009D03*
X02440Y-12206D03*
X02440Y-12403D03*
X02440Y-12600D03*
X02440Y-12797D03*
X02440Y-12993D03*
X02440Y-13190D03*
X02440Y-13387D03*
X02440Y-13584D03*
X02440Y-13781D03*
X02440Y-13978D03*
X02440Y-14175D03*
X02440Y-14371D03*
X02440Y-14568D03*
X02440Y-14765D03*
X02440Y-14962D03*
G54D10*
G36*
X02720Y-09977D02*
X02720Y-10103D01*
X02162Y-10103D01*
X02162Y-09977D01*
X02720Y-09977D01*
X02720Y-09977D01*
G37*
G54D58*
X33543Y-07283D03*
X34173Y-07283D03*
G54D59*
X06850Y-16260D03*
X06850Y-15630D03*
G54D58*
X30906Y-16220D03*
X30276Y-16220D03*
X27047Y-15354D03*
X27677Y-15354D03*
X40236Y-07480D03*
X40866Y-07480D03*
G54D59*
X38780Y-14685D03*
X38780Y-14055D03*
G54D58*
X30433Y-15354D03*
X29803Y-15354D03*
G54D59*
X04449Y-04803D03*
X04449Y-05433D03*
G54D58*
X23780Y-18228D03*
X23150Y-18228D03*
G54D59*
X22638Y-06771D03*
X22638Y-07401D03*
X22047Y-06771D03*
X22047Y-07401D03*
X22362Y-12242D03*
X22362Y-11612D03*
X21772Y-12242D03*
X21772Y-11612D03*
G54D58*
X34173Y-08267D03*
X33543Y-08267D03*
G54D59*
X20551Y-12244D03*
X20551Y-11614D03*
X20669Y-10551D03*
X20669Y-09921D03*
X38386Y-07559D03*
X38386Y-08189D03*
G54D58*
X36339Y-07283D03*
X35709Y-07283D03*
G54D59*
X41339Y-14685D03*
X41339Y-14055D03*
X34331Y-13346D03*
X34331Y-13976D03*
G54D58*
X33189Y-11732D03*
X32559Y-11732D03*
X29803Y-12598D03*
X30433Y-12598D03*
X29803Y-14764D03*
X30433Y-14764D03*
G54D59*
X31417Y-14095D03*
X31417Y-13465D03*
X41121Y-17696D03*
X41121Y-17066D03*
G54D58*
X40866Y-06811D03*
X40236Y-06811D03*
X46929Y-13386D03*
X47559Y-13386D03*
X36339Y-08071D03*
X35709Y-08071D03*
G54D59*
X40176Y-18483D03*
X40176Y-19113D03*
X23228Y-07401D03*
X23228Y-06771D03*
X39665Y-19113D03*
X39665Y-18483D03*
G54D58*
X47165Y-10079D03*
X47795Y-10079D03*
G54D59*
X23031Y-12242D03*
X23031Y-11612D03*
G54D58*
X36339Y-06496D03*
X35709Y-06496D03*
X31260Y-18858D03*
X30630Y-18858D03*
X31257Y-18149D03*
X30627Y-18149D03*
G54D59*
X31969Y-17402D03*
X31969Y-16772D03*
G54D58*
X28701Y-18858D03*
X29331Y-18858D03*
X28701Y-18150D03*
X29331Y-18150D03*
X27677Y-17323D03*
X27047Y-17323D03*
G54D59*
X23622Y-11612D03*
X23622Y-12242D03*
G54D58*
X34173Y-06496D03*
X33543Y-06496D03*
X34173Y-09055D03*
X33543Y-09055D03*
X27677Y-15945D03*
X27047Y-15945D03*
G54D59*
X21181Y-11612D03*
X21181Y-12242D03*
G54D43*
X05075Y-18925D03*
G54D44*
X05075Y-17925D03*
X06075Y-18925D03*
X06075Y-17925D03*
X07075Y-18925D03*
X07075Y-17925D03*
X08075Y-18925D03*
X08075Y-17925D03*
G54D60*
X24113Y-16388D03*
X24113Y-16132D03*
X24113Y-15876D03*
X24113Y-15620D03*
X24113Y-15364D03*
X24113Y-15108D03*
X24113Y-14852D03*
X24113Y-14596D03*
X24113Y-14340D03*
X24113Y-14084D03*
X20926Y-14085D03*
X20926Y-14340D03*
X20926Y-14596D03*
X20926Y-14852D03*
X20926Y-15108D03*
X20926Y-15364D03*
X20926Y-15620D03*
X20926Y-15876D03*
X20926Y-16132D03*
X20926Y-16388D03*
G54D61*
X32992Y-15670D03*
X32992Y-17638D03*
X25827Y-15670D03*
X25827Y-17638D03*
G54D62*
X01575Y-04173D03*
G54D63*
X01181Y-05551D03*
X01969Y-05551D03*
G54D62*
X20669Y-17559D03*
G54D63*
X20275Y-18937D03*
X21063Y-18937D03*
G54D64*
X24567Y-06457D03*
X25355Y-06457D03*
X20512Y-06063D03*
X20512Y-06851D03*
M02*
