G04 (created by PCBNEW-RS274X (2012-01-19 BZR 3256)-stable) date 2012/09/03 0:26:34*
G01*
G70*
G90*
%MOIN*%
G04 Gerber Fmt 3.4, Leading zero omitted, Abs format*
%FSLAX34Y34*%
G04 APERTURE LIST*
%ADD10C,0.006000*%
%ADD11C,0.007900*%
%ADD12C,0.011800*%
%ADD13C,0.006300*%
%ADD14C,0.150800*%
%ADD15C,0.099200*%
%ADD16R,0.124800X0.124800*%
%ADD17R,0.036200X0.026400*%
%ADD18R,0.036200X0.020500*%
%ADD19R,0.213300X0.252800*%
%ADD20C,0.237000*%
%ADD21R,0.060800X0.060800*%
%ADD22C,0.060800*%
%ADD23C,0.075600*%
%ADD24R,0.032300X0.040200*%
%ADD25R,0.040200X0.032300*%
%ADD26C,0.048000*%
%ADD27C,0.052000*%
G04 APERTURE END LIST*
G54D10*
G54D11*
X16142Y-09843D02*
X16142Y-09646D01*
X10433Y-10039D02*
X10433Y-09606D01*
X14724Y-02598D02*
X14724Y-01220D01*
X14094Y-02598D02*
X14724Y-02598D01*
X13543Y-02913D02*
X14252Y-02913D01*
X13543Y-04370D02*
X13543Y-02913D01*
X30197Y-10236D02*
X28858Y-10236D01*
X30197Y-11142D02*
X28858Y-11142D01*
X30197Y-08386D02*
X30197Y-11142D01*
X30197Y-07795D02*
X30197Y-08425D01*
X28858Y-07795D02*
X30197Y-07795D01*
X24646Y-10630D02*
X26063Y-10630D01*
X24646Y-09961D02*
X24646Y-10630D01*
X21732Y-15866D02*
X23150Y-15866D01*
X21732Y-14449D02*
X21732Y-15866D01*
X06299Y-14567D02*
X06299Y-16142D01*
X05512Y-14567D02*
X06299Y-14567D01*
X05512Y-16142D02*
X05512Y-14567D01*
X06299Y-16142D02*
X05512Y-16142D01*
X18307Y-12992D02*
X18307Y-13386D01*
X17717Y-12992D02*
X18307Y-12992D01*
X14567Y-12795D02*
X16142Y-12795D01*
X14567Y-13189D02*
X14567Y-12795D01*
X12205Y-13189D02*
X14567Y-13189D01*
X18307Y-13386D02*
X18307Y-14764D01*
X10433Y-13189D02*
X10433Y-14764D01*
X16142Y-12992D02*
X17717Y-12992D01*
X16142Y-09843D02*
X16142Y-12992D01*
X10433Y-13189D02*
X12205Y-13189D01*
X10433Y-10039D02*
X10433Y-13189D01*
X18307Y-09646D02*
X18307Y-08071D01*
X10433Y-09646D02*
X18307Y-09646D01*
X10433Y-07480D02*
X10433Y-09646D01*
X24390Y-07676D02*
X24390Y-09172D01*
X25925Y-07676D02*
X24390Y-07676D01*
X25925Y-09172D02*
X25925Y-07676D01*
X24390Y-09172D02*
X25925Y-09172D01*
G54D12*
X07267Y-01484D02*
X07295Y-01484D01*
X07352Y-01446D01*
X07381Y-01371D01*
X07381Y-00997D01*
X07410Y-00922D01*
X07467Y-00884D01*
X07410Y-00847D01*
X07381Y-00772D01*
X07381Y-00397D01*
X07352Y-00322D01*
X07295Y-00285D01*
X07267Y-00285D01*
X05724Y-01484D02*
X05696Y-01484D01*
X05639Y-01446D01*
X05610Y-01371D01*
X05610Y-00997D01*
X05581Y-00922D01*
X05524Y-00884D01*
X05581Y-00847D01*
X05610Y-00772D01*
X05610Y-00397D01*
X05639Y-00322D01*
X05696Y-00285D01*
X05724Y-00285D01*
G54D11*
X25419Y-07541D02*
X25550Y-07354D01*
X25644Y-07541D02*
X25644Y-07147D01*
X25494Y-07147D01*
X25457Y-07166D01*
X25438Y-07185D01*
X25419Y-07223D01*
X25419Y-07279D01*
X25438Y-07316D01*
X25457Y-07335D01*
X25494Y-07354D01*
X25644Y-07354D01*
X25250Y-07541D02*
X25250Y-07147D01*
X25100Y-07147D01*
X25063Y-07166D01*
X25044Y-07185D01*
X25025Y-07223D01*
X25025Y-07279D01*
X25044Y-07316D01*
X25063Y-07335D01*
X25100Y-07354D01*
X25250Y-07354D01*
X24650Y-07541D02*
X24875Y-07541D01*
X24762Y-07541D02*
X24762Y-07147D01*
X24800Y-07204D01*
X24837Y-07241D01*
X24875Y-07260D01*
G54D13*
X11122Y-15071D02*
X11137Y-15056D01*
X11153Y-15010D01*
X11153Y-14980D01*
X11137Y-14935D01*
X11107Y-14904D01*
X11077Y-14889D01*
X11016Y-14874D01*
X10970Y-14874D01*
X10910Y-14889D01*
X10879Y-14904D01*
X10849Y-14935D01*
X10834Y-14980D01*
X10834Y-15010D01*
X10849Y-15056D01*
X10864Y-15071D01*
X10834Y-15178D02*
X10834Y-15390D01*
X11153Y-15254D01*
X10970Y-15558D02*
X10955Y-15527D01*
X10940Y-15512D01*
X10910Y-15497D01*
X10894Y-15497D01*
X10864Y-15512D01*
X10849Y-15527D01*
X10834Y-15558D01*
X10834Y-15618D01*
X10849Y-15649D01*
X10864Y-15664D01*
X10894Y-15679D01*
X10910Y-15679D01*
X10940Y-15664D01*
X10955Y-15649D01*
X10970Y-15618D01*
X10970Y-15558D01*
X10986Y-15527D01*
X11001Y-15512D01*
X11031Y-15497D01*
X11092Y-15497D01*
X11122Y-15512D01*
X11137Y-15527D01*
X11153Y-15558D01*
X11153Y-15618D01*
X11137Y-15649D01*
X11122Y-15664D01*
X11092Y-15679D01*
X11031Y-15679D01*
X11001Y-15664D01*
X10986Y-15649D01*
X10970Y-15618D01*
X13484Y-14992D02*
X13499Y-14977D01*
X13515Y-14931D01*
X13515Y-14901D01*
X13499Y-14856D01*
X13469Y-14825D01*
X13439Y-14810D01*
X13378Y-14795D01*
X13332Y-14795D01*
X13272Y-14810D01*
X13241Y-14825D01*
X13211Y-14856D01*
X13196Y-14901D01*
X13196Y-14931D01*
X13211Y-14977D01*
X13226Y-14992D01*
X13196Y-15099D02*
X13196Y-15311D01*
X13515Y-15175D01*
X13196Y-15403D02*
X13196Y-15615D01*
X13515Y-15479D01*
X05217Y-15149D02*
X05232Y-15134D01*
X05248Y-15088D01*
X05248Y-15058D01*
X05232Y-15013D01*
X05202Y-14982D01*
X05172Y-14967D01*
X05111Y-14952D01*
X05065Y-14952D01*
X05005Y-14967D01*
X04974Y-14982D01*
X04944Y-15013D01*
X04929Y-15058D01*
X04929Y-15088D01*
X04944Y-15134D01*
X04959Y-15149D01*
X04929Y-15256D02*
X04929Y-15468D01*
X05248Y-15332D01*
X04929Y-15727D02*
X04929Y-15666D01*
X04944Y-15636D01*
X04959Y-15620D01*
X05005Y-15590D01*
X05065Y-15575D01*
X05187Y-15575D01*
X05217Y-15590D01*
X05232Y-15605D01*
X05248Y-15636D01*
X05248Y-15696D01*
X05232Y-15727D01*
X05217Y-15742D01*
X05187Y-15757D01*
X05111Y-15757D01*
X05081Y-15742D01*
X05065Y-15727D01*
X05050Y-15696D01*
X05050Y-15636D01*
X05065Y-15605D01*
X05081Y-15590D01*
X05111Y-15575D01*
X17775Y-14952D02*
X17790Y-14937D01*
X17806Y-14891D01*
X17806Y-14861D01*
X17790Y-14816D01*
X17760Y-14785D01*
X17730Y-14770D01*
X17669Y-14755D01*
X17623Y-14755D01*
X17563Y-14770D01*
X17532Y-14785D01*
X17502Y-14816D01*
X17487Y-14861D01*
X17487Y-14891D01*
X17502Y-14937D01*
X17517Y-14952D01*
X17487Y-15059D02*
X17487Y-15271D01*
X17806Y-15135D01*
X17487Y-15363D02*
X17487Y-15560D01*
X17608Y-15454D01*
X17608Y-15499D01*
X17623Y-15530D01*
X17639Y-15545D01*
X17669Y-15560D01*
X17745Y-15560D01*
X17775Y-15545D01*
X17790Y-15530D01*
X17806Y-15499D01*
X17806Y-15408D01*
X17790Y-15378D01*
X17775Y-15363D01*
X13118Y-10413D02*
X13133Y-10428D01*
X13179Y-10444D01*
X13209Y-10444D01*
X13254Y-10428D01*
X13285Y-10398D01*
X13300Y-10368D01*
X13315Y-10307D01*
X13315Y-10261D01*
X13300Y-10201D01*
X13285Y-10170D01*
X13254Y-10140D01*
X13209Y-10125D01*
X13179Y-10125D01*
X13133Y-10140D01*
X13118Y-10155D01*
X13011Y-10125D02*
X12799Y-10125D01*
X12935Y-10444D01*
X12692Y-10155D02*
X12677Y-10140D01*
X12647Y-10125D01*
X12571Y-10125D01*
X12540Y-10140D01*
X12525Y-10155D01*
X12510Y-10185D01*
X12510Y-10216D01*
X12525Y-10261D01*
X12707Y-10444D01*
X12510Y-10444D01*
X18315Y-10374D02*
X18330Y-10389D01*
X18376Y-10405D01*
X18406Y-10405D01*
X18451Y-10389D01*
X18482Y-10359D01*
X18497Y-10329D01*
X18512Y-10268D01*
X18512Y-10222D01*
X18497Y-10162D01*
X18482Y-10131D01*
X18451Y-10101D01*
X18406Y-10086D01*
X18376Y-10086D01*
X18330Y-10101D01*
X18315Y-10116D01*
X18208Y-10086D02*
X17996Y-10086D01*
X18132Y-10405D01*
X17707Y-10405D02*
X17889Y-10405D01*
X17798Y-10405D02*
X17798Y-10086D01*
X17828Y-10131D01*
X17859Y-10162D01*
X17889Y-10177D01*
X13040Y-12893D02*
X13055Y-12908D01*
X13101Y-12924D01*
X13131Y-12924D01*
X13176Y-12908D01*
X13207Y-12878D01*
X13222Y-12848D01*
X13237Y-12787D01*
X13237Y-12741D01*
X13222Y-12681D01*
X13207Y-12650D01*
X13176Y-12620D01*
X13131Y-12605D01*
X13101Y-12605D01*
X13055Y-12620D01*
X13040Y-12635D01*
X12933Y-12605D02*
X12721Y-12605D01*
X12857Y-12924D01*
X12538Y-12605D02*
X12508Y-12605D01*
X12478Y-12620D01*
X12462Y-12635D01*
X12447Y-12665D01*
X12432Y-12726D01*
X12432Y-12802D01*
X12447Y-12863D01*
X12462Y-12893D01*
X12478Y-12908D01*
X12508Y-12924D01*
X12538Y-12924D01*
X12569Y-12908D01*
X12584Y-12893D01*
X12599Y-12863D01*
X12614Y-12802D01*
X12614Y-12726D01*
X12599Y-12665D01*
X12584Y-12635D01*
X12569Y-12620D01*
X12538Y-12605D01*
X23985Y-14783D02*
X24000Y-14798D01*
X24046Y-14814D01*
X24076Y-14814D01*
X24121Y-14798D01*
X24152Y-14768D01*
X24167Y-14738D01*
X24182Y-14677D01*
X24182Y-14631D01*
X24167Y-14571D01*
X24152Y-14540D01*
X24121Y-14510D01*
X24076Y-14495D01*
X24046Y-14495D01*
X24000Y-14510D01*
X23985Y-14525D01*
X23711Y-14495D02*
X23772Y-14495D01*
X23802Y-14510D01*
X23818Y-14525D01*
X23848Y-14571D01*
X23863Y-14631D01*
X23863Y-14753D01*
X23848Y-14783D01*
X23833Y-14798D01*
X23802Y-14814D01*
X23742Y-14814D01*
X23711Y-14798D01*
X23696Y-14783D01*
X23681Y-14753D01*
X23681Y-14677D01*
X23696Y-14647D01*
X23711Y-14631D01*
X23742Y-14616D01*
X23802Y-14616D01*
X23833Y-14631D01*
X23848Y-14647D01*
X23863Y-14677D01*
X23498Y-14631D02*
X23529Y-14616D01*
X23544Y-14601D01*
X23559Y-14571D01*
X23559Y-14555D01*
X23544Y-14525D01*
X23529Y-14510D01*
X23498Y-14495D01*
X23438Y-14495D01*
X23407Y-14510D01*
X23392Y-14525D01*
X23377Y-14555D01*
X23377Y-14571D01*
X23392Y-14601D01*
X23407Y-14616D01*
X23438Y-14631D01*
X23498Y-14631D01*
X23529Y-14647D01*
X23544Y-14662D01*
X23559Y-14692D01*
X23559Y-14753D01*
X23544Y-14783D01*
X23529Y-14798D01*
X23498Y-14814D01*
X23438Y-14814D01*
X23407Y-14798D01*
X23392Y-14783D01*
X23377Y-14753D01*
X23377Y-14692D01*
X23392Y-14662D01*
X23407Y-14647D01*
X23438Y-14631D01*
X15728Y-14992D02*
X15743Y-14977D01*
X15759Y-14931D01*
X15759Y-14901D01*
X15743Y-14856D01*
X15713Y-14825D01*
X15683Y-14810D01*
X15622Y-14795D01*
X15576Y-14795D01*
X15516Y-14810D01*
X15485Y-14825D01*
X15455Y-14856D01*
X15440Y-14901D01*
X15440Y-14931D01*
X15455Y-14977D01*
X15470Y-14992D01*
X15440Y-15281D02*
X15440Y-15129D01*
X15592Y-15114D01*
X15576Y-15129D01*
X15561Y-15159D01*
X15561Y-15235D01*
X15576Y-15266D01*
X15592Y-15281D01*
X15622Y-15296D01*
X15698Y-15296D01*
X15728Y-15281D01*
X15743Y-15266D01*
X15759Y-15235D01*
X15759Y-15159D01*
X15743Y-15129D01*
X15728Y-15114D01*
X15576Y-15479D02*
X15561Y-15448D01*
X15546Y-15433D01*
X15516Y-15418D01*
X15500Y-15418D01*
X15470Y-15433D01*
X15455Y-15448D01*
X15440Y-15479D01*
X15440Y-15539D01*
X15455Y-15570D01*
X15470Y-15585D01*
X15500Y-15600D01*
X15516Y-15600D01*
X15546Y-15585D01*
X15561Y-15570D01*
X15576Y-15539D01*
X15576Y-15479D01*
X15592Y-15448D01*
X15607Y-15433D01*
X15637Y-15418D01*
X15698Y-15418D01*
X15728Y-15433D01*
X15743Y-15448D01*
X15759Y-15479D01*
X15759Y-15539D01*
X15743Y-15570D01*
X15728Y-15585D01*
X15698Y-15600D01*
X15637Y-15600D01*
X15607Y-15585D01*
X15592Y-15570D01*
X15576Y-15539D01*
X25638Y-09783D02*
X25653Y-09798D01*
X25699Y-09814D01*
X25729Y-09814D01*
X25774Y-09798D01*
X25805Y-09768D01*
X25820Y-09738D01*
X25835Y-09677D01*
X25835Y-09631D01*
X25820Y-09571D01*
X25805Y-09540D01*
X25774Y-09510D01*
X25729Y-09495D01*
X25699Y-09495D01*
X25653Y-09510D01*
X25638Y-09525D01*
X25349Y-09495D02*
X25501Y-09495D01*
X25516Y-09647D01*
X25501Y-09631D01*
X25471Y-09616D01*
X25395Y-09616D01*
X25364Y-09631D01*
X25349Y-09647D01*
X25334Y-09677D01*
X25334Y-09753D01*
X25349Y-09783D01*
X25364Y-09798D01*
X25395Y-09814D01*
X25471Y-09814D01*
X25501Y-09798D01*
X25516Y-09783D01*
X25227Y-09495D02*
X25015Y-09495D01*
X25151Y-09814D01*
X28433Y-09822D02*
X28448Y-09837D01*
X28494Y-09853D01*
X28524Y-09853D01*
X28569Y-09837D01*
X28600Y-09807D01*
X28615Y-09777D01*
X28630Y-09716D01*
X28630Y-09670D01*
X28615Y-09610D01*
X28600Y-09579D01*
X28569Y-09549D01*
X28524Y-09534D01*
X28494Y-09534D01*
X28448Y-09549D01*
X28433Y-09564D01*
X28144Y-09534D02*
X28296Y-09534D01*
X28311Y-09686D01*
X28296Y-09670D01*
X28266Y-09655D01*
X28190Y-09655D01*
X28159Y-09670D01*
X28144Y-09686D01*
X28129Y-09716D01*
X28129Y-09792D01*
X28144Y-09822D01*
X28159Y-09837D01*
X28190Y-09853D01*
X28266Y-09853D01*
X28296Y-09837D01*
X28311Y-09822D01*
X27855Y-09640D02*
X27855Y-09853D01*
X27931Y-09518D02*
X28007Y-09746D01*
X27810Y-09746D01*
X23985Y-15492D02*
X24000Y-15507D01*
X24046Y-15523D01*
X24076Y-15523D01*
X24121Y-15507D01*
X24152Y-15477D01*
X24167Y-15447D01*
X24182Y-15386D01*
X24182Y-15340D01*
X24167Y-15280D01*
X24152Y-15249D01*
X24121Y-15219D01*
X24076Y-15204D01*
X24046Y-15204D01*
X24000Y-15219D01*
X23985Y-15234D01*
X23696Y-15204D02*
X23848Y-15204D01*
X23863Y-15356D01*
X23848Y-15340D01*
X23818Y-15325D01*
X23742Y-15325D01*
X23711Y-15340D01*
X23696Y-15356D01*
X23681Y-15386D01*
X23681Y-15462D01*
X23696Y-15492D01*
X23711Y-15507D01*
X23742Y-15523D01*
X23818Y-15523D01*
X23848Y-15507D01*
X23863Y-15492D01*
X23574Y-15204D02*
X23377Y-15204D01*
X23483Y-15325D01*
X23438Y-15325D01*
X23407Y-15340D01*
X23392Y-15356D01*
X23377Y-15386D01*
X23377Y-15462D01*
X23392Y-15492D01*
X23407Y-15507D01*
X23438Y-15523D01*
X23529Y-15523D01*
X23559Y-15507D01*
X23574Y-15492D01*
X14744Y-03535D02*
X14759Y-03520D01*
X14775Y-03474D01*
X14775Y-03444D01*
X14759Y-03399D01*
X14729Y-03368D01*
X14699Y-03353D01*
X14638Y-03338D01*
X14592Y-03338D01*
X14532Y-03353D01*
X14501Y-03368D01*
X14471Y-03399D01*
X14456Y-03444D01*
X14456Y-03474D01*
X14471Y-03520D01*
X14486Y-03535D01*
X14456Y-03642D02*
X14456Y-03839D01*
X14577Y-03733D01*
X14577Y-03778D01*
X14592Y-03809D01*
X14608Y-03824D01*
X14638Y-03839D01*
X14714Y-03839D01*
X14744Y-03824D01*
X14759Y-03809D01*
X14775Y-03778D01*
X14775Y-03687D01*
X14759Y-03657D01*
X14744Y-03642D01*
X14775Y-03991D02*
X14775Y-04052D01*
X14759Y-04082D01*
X14744Y-04097D01*
X14699Y-04128D01*
X14638Y-04143D01*
X14516Y-04143D01*
X14486Y-04128D01*
X14471Y-04113D01*
X14456Y-04082D01*
X14456Y-04022D01*
X14471Y-03991D01*
X14486Y-03976D01*
X14516Y-03961D01*
X14592Y-03961D01*
X14623Y-03976D01*
X14638Y-03991D01*
X14653Y-04022D01*
X14653Y-04082D01*
X14638Y-04113D01*
X14623Y-04128D01*
X14592Y-04143D01*
X13878Y-01645D02*
X13893Y-01630D01*
X13909Y-01584D01*
X13909Y-01554D01*
X13893Y-01509D01*
X13863Y-01478D01*
X13833Y-01463D01*
X13772Y-01448D01*
X13726Y-01448D01*
X13666Y-01463D01*
X13635Y-01478D01*
X13605Y-01509D01*
X13590Y-01554D01*
X13590Y-01584D01*
X13605Y-01630D01*
X13620Y-01645D01*
X13590Y-01752D02*
X13590Y-01949D01*
X13711Y-01843D01*
X13711Y-01888D01*
X13726Y-01919D01*
X13742Y-01934D01*
X13772Y-01949D01*
X13848Y-01949D01*
X13878Y-01934D01*
X13893Y-01919D01*
X13909Y-01888D01*
X13909Y-01797D01*
X13893Y-01767D01*
X13878Y-01752D01*
X13726Y-02132D02*
X13711Y-02101D01*
X13696Y-02086D01*
X13666Y-02071D01*
X13650Y-02071D01*
X13620Y-02086D01*
X13605Y-02101D01*
X13590Y-02132D01*
X13590Y-02192D01*
X13605Y-02223D01*
X13620Y-02238D01*
X13650Y-02253D01*
X13666Y-02253D01*
X13696Y-02238D01*
X13711Y-02223D01*
X13726Y-02192D01*
X13726Y-02132D01*
X13742Y-02101D01*
X13757Y-02086D01*
X13787Y-02071D01*
X13848Y-02071D01*
X13878Y-02086D01*
X13893Y-02101D01*
X13909Y-02132D01*
X13909Y-02192D01*
X13893Y-02223D01*
X13878Y-02238D01*
X13848Y-02253D01*
X13787Y-02253D01*
X13757Y-02238D01*
X13742Y-02223D01*
X13726Y-02192D01*
X11909Y-15071D02*
X11924Y-15056D01*
X11940Y-15010D01*
X11940Y-14980D01*
X11924Y-14935D01*
X11894Y-14904D01*
X11864Y-14889D01*
X11803Y-14874D01*
X11757Y-14874D01*
X11697Y-14889D01*
X11666Y-14904D01*
X11636Y-14935D01*
X11621Y-14980D01*
X11621Y-15010D01*
X11636Y-15056D01*
X11651Y-15071D01*
X11621Y-15178D02*
X11621Y-15375D01*
X11742Y-15269D01*
X11742Y-15314D01*
X11757Y-15345D01*
X11773Y-15360D01*
X11803Y-15375D01*
X11879Y-15375D01*
X11909Y-15360D01*
X11924Y-15345D01*
X11940Y-15314D01*
X11940Y-15223D01*
X11924Y-15193D01*
X11909Y-15178D01*
X11621Y-15482D02*
X11621Y-15694D01*
X11940Y-15558D01*
X11082Y-09677D02*
X11097Y-09662D01*
X11113Y-09616D01*
X11113Y-09586D01*
X11097Y-09541D01*
X11067Y-09510D01*
X11037Y-09495D01*
X10976Y-09480D01*
X10930Y-09480D01*
X10870Y-09495D01*
X10839Y-09510D01*
X10809Y-09541D01*
X10794Y-09586D01*
X10794Y-09616D01*
X10809Y-09662D01*
X10824Y-09677D01*
X10794Y-09784D02*
X10794Y-09981D01*
X10915Y-09875D01*
X10915Y-09920D01*
X10930Y-09951D01*
X10946Y-09966D01*
X10976Y-09981D01*
X11052Y-09981D01*
X11082Y-09966D01*
X11097Y-09951D01*
X11113Y-09920D01*
X11113Y-09829D01*
X11097Y-09799D01*
X11082Y-09784D01*
X10794Y-10255D02*
X10794Y-10194D01*
X10809Y-10164D01*
X10824Y-10148D01*
X10870Y-10118D01*
X10930Y-10103D01*
X11052Y-10103D01*
X11082Y-10118D01*
X11097Y-10133D01*
X11113Y-10164D01*
X11113Y-10224D01*
X11097Y-10255D01*
X11082Y-10270D01*
X11052Y-10285D01*
X10976Y-10285D01*
X10946Y-10270D01*
X10930Y-10255D01*
X10915Y-10224D01*
X10915Y-10164D01*
X10930Y-10133D01*
X10946Y-10118D01*
X10976Y-10103D01*
X13040Y-11712D02*
X13055Y-11727D01*
X13101Y-11743D01*
X13131Y-11743D01*
X13176Y-11727D01*
X13207Y-11697D01*
X13222Y-11667D01*
X13237Y-11606D01*
X13237Y-11560D01*
X13222Y-11500D01*
X13207Y-11469D01*
X13176Y-11439D01*
X13131Y-11424D01*
X13101Y-11424D01*
X13055Y-11439D01*
X13040Y-11454D01*
X12933Y-11424D02*
X12736Y-11424D01*
X12842Y-11545D01*
X12797Y-11545D01*
X12766Y-11560D01*
X12751Y-11576D01*
X12736Y-11606D01*
X12736Y-11682D01*
X12751Y-11712D01*
X12766Y-11727D01*
X12797Y-11743D01*
X12888Y-11743D01*
X12918Y-11727D01*
X12933Y-11712D01*
X12447Y-11424D02*
X12599Y-11424D01*
X12614Y-11576D01*
X12599Y-11560D01*
X12569Y-11545D01*
X12493Y-11545D01*
X12462Y-11560D01*
X12447Y-11576D01*
X12432Y-11606D01*
X12432Y-11682D01*
X12447Y-11712D01*
X12462Y-11727D01*
X12493Y-11743D01*
X12569Y-11743D01*
X12599Y-11727D01*
X12614Y-11712D01*
X14153Y-07315D02*
X14168Y-07300D01*
X14184Y-07254D01*
X14184Y-07224D01*
X14168Y-07179D01*
X14138Y-07148D01*
X14108Y-07133D01*
X14047Y-07118D01*
X14001Y-07118D01*
X13941Y-07133D01*
X13910Y-07148D01*
X13880Y-07179D01*
X13865Y-07224D01*
X13865Y-07254D01*
X13880Y-07300D01*
X13895Y-07315D01*
X13865Y-07422D02*
X13865Y-07619D01*
X13986Y-07513D01*
X13986Y-07558D01*
X14001Y-07589D01*
X14017Y-07604D01*
X14047Y-07619D01*
X14123Y-07619D01*
X14153Y-07604D01*
X14168Y-07589D01*
X14184Y-07558D01*
X14184Y-07467D01*
X14168Y-07437D01*
X14153Y-07422D01*
X13865Y-07726D02*
X13865Y-07923D01*
X13986Y-07817D01*
X13986Y-07862D01*
X14001Y-07893D01*
X14017Y-07908D01*
X14047Y-07923D01*
X14123Y-07923D01*
X14153Y-07908D01*
X14168Y-07893D01*
X14184Y-07862D01*
X14184Y-07771D01*
X14168Y-07741D01*
X14153Y-07726D01*
X16515Y-07315D02*
X16530Y-07300D01*
X16546Y-07254D01*
X16546Y-07224D01*
X16530Y-07179D01*
X16500Y-07148D01*
X16470Y-07133D01*
X16409Y-07118D01*
X16363Y-07118D01*
X16303Y-07133D01*
X16272Y-07148D01*
X16242Y-07179D01*
X16227Y-07224D01*
X16227Y-07254D01*
X16242Y-07300D01*
X16257Y-07315D01*
X16227Y-07422D02*
X16227Y-07619D01*
X16348Y-07513D01*
X16348Y-07558D01*
X16363Y-07589D01*
X16379Y-07604D01*
X16409Y-07619D01*
X16485Y-07619D01*
X16515Y-07604D01*
X16530Y-07589D01*
X16546Y-07558D01*
X16546Y-07467D01*
X16530Y-07437D01*
X16515Y-07422D01*
X16257Y-07741D02*
X16242Y-07756D01*
X16227Y-07786D01*
X16227Y-07862D01*
X16242Y-07893D01*
X16257Y-07908D01*
X16287Y-07923D01*
X16318Y-07923D01*
X16363Y-07908D01*
X16546Y-07726D01*
X16546Y-07923D01*
X17342Y-07315D02*
X17357Y-07300D01*
X17373Y-07254D01*
X17373Y-07224D01*
X17357Y-07179D01*
X17327Y-07148D01*
X17297Y-07133D01*
X17236Y-07118D01*
X17190Y-07118D01*
X17130Y-07133D01*
X17099Y-07148D01*
X17069Y-07179D01*
X17054Y-07224D01*
X17054Y-07254D01*
X17069Y-07300D01*
X17084Y-07315D01*
X17054Y-07422D02*
X17054Y-07619D01*
X17175Y-07513D01*
X17175Y-07558D01*
X17190Y-07589D01*
X17206Y-07604D01*
X17236Y-07619D01*
X17312Y-07619D01*
X17342Y-07604D01*
X17357Y-07589D01*
X17373Y-07558D01*
X17373Y-07467D01*
X17357Y-07437D01*
X17342Y-07422D01*
X17373Y-07923D02*
X17373Y-07741D01*
X17373Y-07832D02*
X17054Y-07832D01*
X17099Y-07802D01*
X17130Y-07771D01*
X17145Y-07741D01*
X17893Y-07315D02*
X17908Y-07300D01*
X17924Y-07254D01*
X17924Y-07224D01*
X17908Y-07179D01*
X17878Y-07148D01*
X17848Y-07133D01*
X17787Y-07118D01*
X17741Y-07118D01*
X17681Y-07133D01*
X17650Y-07148D01*
X17620Y-07179D01*
X17605Y-07224D01*
X17605Y-07254D01*
X17620Y-07300D01*
X17635Y-07315D01*
X17605Y-07422D02*
X17605Y-07619D01*
X17726Y-07513D01*
X17726Y-07558D01*
X17741Y-07589D01*
X17757Y-07604D01*
X17787Y-07619D01*
X17863Y-07619D01*
X17893Y-07604D01*
X17908Y-07589D01*
X17924Y-07558D01*
X17924Y-07467D01*
X17908Y-07437D01*
X17893Y-07422D01*
X17605Y-07817D02*
X17605Y-07847D01*
X17620Y-07877D01*
X17635Y-07893D01*
X17665Y-07908D01*
X17726Y-07923D01*
X17802Y-07923D01*
X17863Y-07908D01*
X17893Y-07893D01*
X17908Y-07877D01*
X17924Y-07847D01*
X17924Y-07817D01*
X17908Y-07786D01*
X17893Y-07771D01*
X17863Y-07756D01*
X17802Y-07741D01*
X17726Y-07741D01*
X17665Y-07756D01*
X17635Y-07771D01*
X17620Y-07786D01*
X17605Y-07817D01*
X18315Y-11830D02*
X18330Y-11845D01*
X18376Y-11861D01*
X18406Y-11861D01*
X18451Y-11845D01*
X18482Y-11815D01*
X18497Y-11785D01*
X18512Y-11724D01*
X18512Y-11678D01*
X18497Y-11618D01*
X18482Y-11587D01*
X18451Y-11557D01*
X18406Y-11542D01*
X18376Y-11542D01*
X18330Y-11557D01*
X18315Y-11572D01*
X18193Y-11572D02*
X18178Y-11557D01*
X18148Y-11542D01*
X18072Y-11542D01*
X18041Y-11557D01*
X18026Y-11572D01*
X18011Y-11602D01*
X18011Y-11633D01*
X18026Y-11678D01*
X18208Y-11861D01*
X18011Y-11861D01*
X17859Y-11861D02*
X17798Y-11861D01*
X17768Y-11845D01*
X17753Y-11830D01*
X17722Y-11785D01*
X17707Y-11724D01*
X17707Y-11602D01*
X17722Y-11572D01*
X17737Y-11557D01*
X17768Y-11542D01*
X17828Y-11542D01*
X17859Y-11557D01*
X17874Y-11572D01*
X17889Y-11602D01*
X17889Y-11678D01*
X17874Y-11709D01*
X17859Y-11724D01*
X17828Y-11739D01*
X17768Y-11739D01*
X17737Y-11724D01*
X17722Y-11709D01*
X17707Y-11678D01*
X12893Y-07275D02*
X12908Y-07260D01*
X12924Y-07214D01*
X12924Y-07184D01*
X12908Y-07139D01*
X12878Y-07108D01*
X12848Y-07093D01*
X12787Y-07078D01*
X12741Y-07078D01*
X12681Y-07093D01*
X12650Y-07108D01*
X12620Y-07139D01*
X12605Y-07184D01*
X12605Y-07214D01*
X12620Y-07260D01*
X12635Y-07275D01*
X12635Y-07397D02*
X12620Y-07412D01*
X12605Y-07442D01*
X12605Y-07518D01*
X12620Y-07549D01*
X12635Y-07564D01*
X12665Y-07579D01*
X12696Y-07579D01*
X12741Y-07564D01*
X12924Y-07382D01*
X12924Y-07579D01*
X12741Y-07762D02*
X12726Y-07731D01*
X12711Y-07716D01*
X12681Y-07701D01*
X12665Y-07701D01*
X12635Y-07716D01*
X12620Y-07731D01*
X12605Y-07762D01*
X12605Y-07822D01*
X12620Y-07853D01*
X12635Y-07868D01*
X12665Y-07883D01*
X12681Y-07883D01*
X12711Y-07868D01*
X12726Y-07853D01*
X12741Y-07822D01*
X12741Y-07762D01*
X12757Y-07731D01*
X12772Y-07716D01*
X12802Y-07701D01*
X12863Y-07701D01*
X12893Y-07716D01*
X12908Y-07731D01*
X12924Y-07762D01*
X12924Y-07822D01*
X12908Y-07853D01*
X12893Y-07868D01*
X12863Y-07883D01*
X12802Y-07883D01*
X12772Y-07868D01*
X12757Y-07853D01*
X12741Y-07822D01*
X13040Y-12303D02*
X13055Y-12318D01*
X13101Y-12334D01*
X13131Y-12334D01*
X13176Y-12318D01*
X13207Y-12288D01*
X13222Y-12258D01*
X13237Y-12197D01*
X13237Y-12151D01*
X13222Y-12091D01*
X13207Y-12060D01*
X13176Y-12030D01*
X13131Y-12015D01*
X13101Y-12015D01*
X13055Y-12030D01*
X13040Y-12045D01*
X12918Y-12045D02*
X12903Y-12030D01*
X12873Y-12015D01*
X12797Y-12015D01*
X12766Y-12030D01*
X12751Y-12045D01*
X12736Y-12075D01*
X12736Y-12106D01*
X12751Y-12151D01*
X12933Y-12334D01*
X12736Y-12334D01*
X12629Y-12015D02*
X12417Y-12015D01*
X12553Y-12334D01*
X15177Y-15031D02*
X15192Y-15016D01*
X15208Y-14970D01*
X15208Y-14940D01*
X15192Y-14895D01*
X15162Y-14864D01*
X15132Y-14849D01*
X15071Y-14834D01*
X15025Y-14834D01*
X14965Y-14849D01*
X14934Y-14864D01*
X14904Y-14895D01*
X14889Y-14940D01*
X14889Y-14970D01*
X14904Y-15016D01*
X14919Y-15031D01*
X14919Y-15153D02*
X14904Y-15168D01*
X14889Y-15198D01*
X14889Y-15274D01*
X14904Y-15305D01*
X14919Y-15320D01*
X14949Y-15335D01*
X14980Y-15335D01*
X15025Y-15320D01*
X15208Y-15138D01*
X15208Y-15335D01*
X14889Y-15609D02*
X14889Y-15548D01*
X14904Y-15518D01*
X14919Y-15502D01*
X14965Y-15472D01*
X15025Y-15457D01*
X15147Y-15457D01*
X15177Y-15472D01*
X15192Y-15487D01*
X15208Y-15518D01*
X15208Y-15578D01*
X15192Y-15609D01*
X15177Y-15624D01*
X15147Y-15639D01*
X15071Y-15639D01*
X15041Y-15624D01*
X15025Y-15609D01*
X15010Y-15578D01*
X15010Y-15518D01*
X15025Y-15487D01*
X15041Y-15472D01*
X15071Y-15457D01*
X18315Y-12421D02*
X18330Y-12436D01*
X18376Y-12452D01*
X18406Y-12452D01*
X18451Y-12436D01*
X18482Y-12406D01*
X18497Y-12376D01*
X18512Y-12315D01*
X18512Y-12269D01*
X18497Y-12209D01*
X18482Y-12178D01*
X18451Y-12148D01*
X18406Y-12133D01*
X18376Y-12133D01*
X18330Y-12148D01*
X18315Y-12163D01*
X18193Y-12163D02*
X18178Y-12148D01*
X18148Y-12133D01*
X18072Y-12133D01*
X18041Y-12148D01*
X18026Y-12163D01*
X18011Y-12193D01*
X18011Y-12224D01*
X18026Y-12269D01*
X18208Y-12452D01*
X18011Y-12452D01*
X17722Y-12133D02*
X17874Y-12133D01*
X17889Y-12285D01*
X17874Y-12269D01*
X17844Y-12254D01*
X17768Y-12254D01*
X17737Y-12269D01*
X17722Y-12285D01*
X17707Y-12315D01*
X17707Y-12391D01*
X17722Y-12421D01*
X17737Y-12436D01*
X17768Y-12452D01*
X17844Y-12452D01*
X17874Y-12436D01*
X17889Y-12421D01*
X15885Y-07315D02*
X15900Y-07300D01*
X15916Y-07254D01*
X15916Y-07224D01*
X15900Y-07179D01*
X15870Y-07148D01*
X15840Y-07133D01*
X15779Y-07118D01*
X15733Y-07118D01*
X15673Y-07133D01*
X15642Y-07148D01*
X15612Y-07179D01*
X15597Y-07224D01*
X15597Y-07254D01*
X15612Y-07300D01*
X15627Y-07315D01*
X15627Y-07437D02*
X15612Y-07452D01*
X15597Y-07482D01*
X15597Y-07558D01*
X15612Y-07589D01*
X15627Y-07604D01*
X15657Y-07619D01*
X15688Y-07619D01*
X15733Y-07604D01*
X15916Y-07422D01*
X15916Y-07619D01*
X15703Y-07893D02*
X15916Y-07893D01*
X15581Y-07817D02*
X15809Y-07741D01*
X15809Y-07938D01*
X28433Y-08287D02*
X28448Y-08302D01*
X28494Y-08318D01*
X28524Y-08318D01*
X28569Y-08302D01*
X28600Y-08272D01*
X28615Y-08242D01*
X28630Y-08181D01*
X28630Y-08135D01*
X28615Y-08075D01*
X28600Y-08044D01*
X28569Y-08014D01*
X28524Y-07999D01*
X28494Y-07999D01*
X28448Y-08014D01*
X28433Y-08029D01*
X28311Y-08029D02*
X28296Y-08014D01*
X28266Y-07999D01*
X28190Y-07999D01*
X28159Y-08014D01*
X28144Y-08029D01*
X28129Y-08059D01*
X28129Y-08090D01*
X28144Y-08135D01*
X28326Y-08318D01*
X28129Y-08318D01*
X27931Y-07999D02*
X27901Y-07999D01*
X27871Y-08014D01*
X27855Y-08029D01*
X27840Y-08059D01*
X27825Y-08120D01*
X27825Y-08196D01*
X27840Y-08257D01*
X27855Y-08287D01*
X27871Y-08302D01*
X27901Y-08318D01*
X27931Y-08318D01*
X27962Y-08302D01*
X27977Y-08287D01*
X27992Y-08257D01*
X28007Y-08196D01*
X28007Y-08120D01*
X27992Y-08059D01*
X27977Y-08029D01*
X27962Y-08014D01*
X27931Y-07999D01*
X11712Y-07315D02*
X11727Y-07300D01*
X11743Y-07254D01*
X11743Y-07224D01*
X11727Y-07179D01*
X11697Y-07148D01*
X11667Y-07133D01*
X11606Y-07118D01*
X11560Y-07118D01*
X11500Y-07133D01*
X11469Y-07148D01*
X11439Y-07179D01*
X11424Y-07224D01*
X11424Y-07254D01*
X11439Y-07300D01*
X11454Y-07315D01*
X11743Y-07619D02*
X11743Y-07437D01*
X11743Y-07528D02*
X11424Y-07528D01*
X11469Y-07498D01*
X11500Y-07467D01*
X11515Y-07437D01*
X11424Y-07726D02*
X11424Y-07938D01*
X11743Y-07802D01*
X16988Y-14952D02*
X17003Y-14937D01*
X17019Y-14891D01*
X17019Y-14861D01*
X17003Y-14816D01*
X16973Y-14785D01*
X16943Y-14770D01*
X16882Y-14755D01*
X16836Y-14755D01*
X16776Y-14770D01*
X16745Y-14785D01*
X16715Y-14816D01*
X16700Y-14861D01*
X16700Y-14891D01*
X16715Y-14937D01*
X16730Y-14952D01*
X17019Y-15256D02*
X17019Y-15074D01*
X17019Y-15165D02*
X16700Y-15165D01*
X16745Y-15135D01*
X16776Y-15104D01*
X16791Y-15074D01*
X16700Y-15530D02*
X16700Y-15469D01*
X16715Y-15439D01*
X16730Y-15423D01*
X16776Y-15393D01*
X16836Y-15378D01*
X16958Y-15378D01*
X16988Y-15393D01*
X17003Y-15408D01*
X17019Y-15439D01*
X17019Y-15499D01*
X17003Y-15530D01*
X16988Y-15545D01*
X16958Y-15560D01*
X16882Y-15560D01*
X16852Y-15545D01*
X16836Y-15530D01*
X16821Y-15499D01*
X16821Y-15439D01*
X16836Y-15408D01*
X16852Y-15393D01*
X16882Y-15378D01*
X28433Y-10807D02*
X28448Y-10822D01*
X28494Y-10838D01*
X28524Y-10838D01*
X28569Y-10822D01*
X28600Y-10792D01*
X28615Y-10762D01*
X28630Y-10701D01*
X28630Y-10655D01*
X28615Y-10595D01*
X28600Y-10564D01*
X28569Y-10534D01*
X28524Y-10519D01*
X28494Y-10519D01*
X28448Y-10534D01*
X28433Y-10549D01*
X28129Y-10838D02*
X28311Y-10838D01*
X28220Y-10838D02*
X28220Y-10519D01*
X28250Y-10564D01*
X28281Y-10595D01*
X28311Y-10610D01*
X28022Y-10519D02*
X27825Y-10519D01*
X27931Y-10640D01*
X27886Y-10640D01*
X27855Y-10655D01*
X27840Y-10671D01*
X27825Y-10701D01*
X27825Y-10777D01*
X27840Y-10807D01*
X27855Y-10822D01*
X27886Y-10838D01*
X27977Y-10838D01*
X28007Y-10822D01*
X28022Y-10807D01*
X16389Y-15104D02*
X16389Y-14952D01*
X16070Y-14952D01*
X16070Y-15180D02*
X16070Y-15377D01*
X16191Y-15271D01*
X16191Y-15316D01*
X16206Y-15347D01*
X16222Y-15362D01*
X16252Y-15377D01*
X16328Y-15377D01*
X16358Y-15362D01*
X16373Y-15347D01*
X16389Y-15316D01*
X16389Y-15225D01*
X16373Y-15195D01*
X16358Y-15180D01*
X12373Y-07467D02*
X12373Y-07315D01*
X12054Y-07315D01*
X12084Y-07558D02*
X12069Y-07573D01*
X12054Y-07603D01*
X12054Y-07679D01*
X12069Y-07710D01*
X12084Y-07725D01*
X12114Y-07740D01*
X12145Y-07740D01*
X12190Y-07725D01*
X12373Y-07543D01*
X12373Y-07740D01*
%LPC*%
G54D14*
X31102Y-01772D03*
X31102Y-05709D03*
X29134Y-05020D03*
X37795Y-01772D03*
X37795Y-05709D03*
X35827Y-05020D03*
G54D15*
X43306Y-03149D03*
X41653Y-04331D03*
X43307Y-05512D03*
G54D16*
X22677Y-09485D03*
G54D17*
X24763Y-08896D03*
G54D18*
X24763Y-08581D03*
X24763Y-08266D03*
G54D17*
X24763Y-07951D03*
X25550Y-07951D03*
G54D18*
X25550Y-08266D03*
X25550Y-08581D03*
G54D17*
X25550Y-08896D03*
G54D19*
X40551Y-11496D03*
G54D20*
X46850Y-18110D03*
X46850Y-01575D03*
X01575Y-18110D03*
X01575Y-01575D03*
G54D21*
X03996Y-02559D03*
G54D22*
X04996Y-02559D03*
X05996Y-02559D03*
X06996Y-02559D03*
X07996Y-02559D03*
X08996Y-02559D03*
G54D21*
X44201Y-18504D03*
G54D22*
X43201Y-18504D03*
G54D21*
X44201Y-16929D03*
G54D22*
X43201Y-16929D03*
G54D21*
X43291Y-15264D03*
G54D22*
X43291Y-14264D03*
X44291Y-15264D03*
X44291Y-14264D03*
X45291Y-15264D03*
X45291Y-14264D03*
G54D23*
X20669Y-04528D03*
X18701Y-04528D03*
X18504Y-01576D03*
X20866Y-01576D03*
X26181Y-04528D03*
X24213Y-04528D03*
X24016Y-01576D03*
X26378Y-01576D03*
G54D24*
X11024Y-13661D03*
X11024Y-14291D03*
X13386Y-13661D03*
X13386Y-14291D03*
X05906Y-15039D03*
X05906Y-15669D03*
X17677Y-13661D03*
X17677Y-14291D03*
G54D25*
X11929Y-10315D03*
X11299Y-10315D03*
X16614Y-10276D03*
X17244Y-10276D03*
X11929Y-12795D03*
X11299Y-12795D03*
X22205Y-14646D03*
X22835Y-14646D03*
G54D24*
X15630Y-14291D03*
X15630Y-13661D03*
G54D25*
X25748Y-10197D03*
X25118Y-10197D03*
X29764Y-09724D03*
X29134Y-09724D03*
X22835Y-15394D03*
X22205Y-15394D03*
G54D24*
X14016Y-04055D03*
X14016Y-03425D03*
X14331Y-01535D03*
X14331Y-02165D03*
X11811Y-13661D03*
X11811Y-14291D03*
X10984Y-08976D03*
X10984Y-08346D03*
G54D25*
X11929Y-11614D03*
X11299Y-11614D03*
G54D24*
X14055Y-08976D03*
X14055Y-08346D03*
X16417Y-08976D03*
X16417Y-08346D03*
X17205Y-08976D03*
X17205Y-08346D03*
X17795Y-08976D03*
X17795Y-08346D03*
G54D25*
X16614Y-11732D03*
X17244Y-11732D03*
G54D24*
X12795Y-08976D03*
X12795Y-08346D03*
G54D25*
X11929Y-12205D03*
X11299Y-12205D03*
G54D24*
X15079Y-13465D03*
X15079Y-14095D03*
G54D25*
X16614Y-12323D03*
X17244Y-12323D03*
G54D24*
X15748Y-08976D03*
X15748Y-08346D03*
G54D25*
X29134Y-08189D03*
X29764Y-08189D03*
G54D24*
X11614Y-08976D03*
X11614Y-08346D03*
X16850Y-13661D03*
X16850Y-14291D03*
G54D25*
X29764Y-10709D03*
X29134Y-10709D03*
G54D24*
X16260Y-13661D03*
X16260Y-14291D03*
X12204Y-08976D03*
X12204Y-08346D03*
G54D21*
X05075Y-18925D03*
G54D22*
X05075Y-17925D03*
X06075Y-18925D03*
X06075Y-17925D03*
X07075Y-18925D03*
X07075Y-17925D03*
X08075Y-18925D03*
X08075Y-17925D03*
G54D26*
X32992Y-15670D03*
X32992Y-17638D03*
X25827Y-15670D03*
X25827Y-17638D03*
G54D27*
X24567Y-06457D03*
X25355Y-06457D03*
X20512Y-06063D03*
X20512Y-06851D03*
M02*
