G04 #@! TF.FileFunction,Soldermask,Top*
%FSLAX46Y46*%
G04 Gerber Fmt 4.6, Leading zero omitted, Abs format (unit mm)*
G04 Created by KiCad (PCBNEW 4.0.6) date 08/04/17 18:38:55*
%MOMM*%
%LPD*%
G01*
G04 APERTURE LIST*
%ADD10C,0.150000*%
%ADD11C,3.830320*%
%ADD12R,3.020060X1.021080*%
%ADD13C,2.519680*%
%ADD14R,1.270000X1.221740*%
%ADD15R,1.221740X1.270000*%
%ADD16R,0.721360X1.821180*%
%ADD17R,2.019300X2.621280*%
%ADD18R,1.290320X0.401320*%
%ADD19R,0.320040X1.168400*%
%ADD20R,1.168400X0.320040*%
%ADD21R,3.169920X3.169920*%
%ADD22R,3.421380X1.021080*%
%ADD23R,1.671320X1.221740*%
%ADD24R,1.018540X1.617980*%
%ADD25R,5.417820X6.421120*%
%ADD26R,0.419100X1.219200*%
%ADD27R,1.620520X2.519680*%
%ADD28C,6.019800*%
%ADD29R,2.219960X0.619760*%
%ADD30R,1.544320X1.544320*%
%ADD31C,1.544320*%
%ADD32R,4.320540X1.219200*%
%ADD33R,1.021080X0.721360*%
%ADD34R,0.782320X0.528320*%
%ADD35R,1.544320X0.274320*%
%ADD36R,0.274320X1.544320*%
%ADD37C,1.920240*%
%ADD38R,1.821180X2.306320*%
%ADD39R,0.528320X1.163320*%
%ADD40R,1.163320X0.528320*%
%ADD41R,1.219200X0.419100*%
%ADD42R,0.320040X1.419860*%
%ADD43R,3.020060X3.020060*%
%ADD44R,1.419860X0.320040*%
%ADD45R,1.021080X0.820420*%
%ADD46R,0.820420X1.021080*%
%ADD47R,1.419860X0.419100*%
%ADD48C,1.219200*%
%ADD49R,1.620520X1.620520*%
%ADD50R,1.219200X1.419860*%
%ADD51C,1.320800*%
G04 APERTURE END LIST*
D10*
D11*
X78999080Y-4500880D03*
X78999080Y-14500860D03*
X74000360Y-12750800D03*
X95999300Y-4500880D03*
X95999300Y-14500860D03*
X91000580Y-12750800D03*
D12*
X93901260Y-38498780D03*
X89100660Y-38498780D03*
X93901260Y-45999400D03*
X89100660Y-45999400D03*
D13*
X109997240Y-7998460D03*
X105798620Y-11000740D03*
X109999780Y-14000480D03*
D14*
X61899800Y-28795980D03*
X61899800Y-30995620D03*
D15*
X121099580Y-39499540D03*
X118899940Y-39499540D03*
D16*
X85001100Y-32900620D03*
X83499960Y-32900620D03*
X81998820Y-32900620D03*
D17*
X83499960Y-35699700D03*
D18*
X73931780Y-42423080D03*
X73931780Y-43073320D03*
X73931780Y-43723560D03*
X73931780Y-44373800D03*
X78249780Y-44373800D03*
X78249780Y-43723560D03*
X78249780Y-43073320D03*
X78249780Y-42423080D03*
D19*
X56100980Y-26591260D03*
X56601360Y-26591260D03*
X57101740Y-26591260D03*
X57599580Y-26591260D03*
X58097420Y-26591260D03*
X58597800Y-26591260D03*
X59098180Y-26591260D03*
D20*
X60098940Y-25590500D03*
X60098940Y-25090120D03*
X60098940Y-24589740D03*
X60098940Y-24091900D03*
X60098940Y-23594060D03*
X60098940Y-23093680D03*
X60098940Y-22593300D03*
D19*
X59098180Y-21592540D03*
X58597800Y-21592540D03*
X58097420Y-21592540D03*
X57599580Y-21592540D03*
X57101740Y-21592540D03*
X56601360Y-21592540D03*
X56100980Y-21592540D03*
D20*
X55100220Y-22593300D03*
X55100220Y-23093680D03*
X55100220Y-23594060D03*
X55100220Y-24091900D03*
X55100220Y-24589740D03*
X55100220Y-25090120D03*
X55100220Y-25590500D03*
D21*
X57599580Y-24091900D03*
D22*
X96100900Y-31000700D03*
X90898980Y-31000700D03*
D15*
X118899940Y-31998920D03*
X121099580Y-31998920D03*
X68399660Y-37000180D03*
X70599300Y-37000180D03*
X60700920Y-44399200D03*
X58501280Y-44399200D03*
D23*
X98348800Y-43550840D03*
X98348800Y-46550580D03*
D24*
X105277920Y-21701760D03*
D25*
X102999540Y-29199840D03*
D24*
X100721160Y-21701760D03*
D26*
X27599640Y-13101320D03*
X28399740Y-13101320D03*
X29199840Y-13101320D03*
X29999940Y-13101320D03*
X30800040Y-13101320D03*
X31600140Y-13101320D03*
X32400240Y-13101320D03*
X33200340Y-13101320D03*
X34000440Y-13101320D03*
X34800540Y-13101320D03*
X35600640Y-13101320D03*
X36400740Y-13101320D03*
X37200840Y-13101320D03*
X37998400Y-13101320D03*
X38798500Y-13101320D03*
X39598600Y-13101320D03*
X40398700Y-13101320D03*
X41198800Y-13101320D03*
X41998900Y-13101320D03*
X42799000Y-13101320D03*
X43599100Y-13101320D03*
X44399200Y-13101320D03*
X27599640Y-1501140D03*
X28399740Y-1501140D03*
X29199840Y-1501140D03*
X29999940Y-1501140D03*
X30800040Y-1501140D03*
X31600140Y-1501140D03*
X32400240Y-1501140D03*
X33200340Y-1501140D03*
X34000440Y-1501140D03*
X34800540Y-1501140D03*
X35600640Y-1501140D03*
X36400740Y-1501140D03*
X37200840Y-1501140D03*
X38000940Y-1501140D03*
X38798500Y-1501140D03*
X39598600Y-1501140D03*
X40398700Y-1501140D03*
X41198800Y-1501140D03*
X41998900Y-1501140D03*
X42799000Y-1501140D03*
X43599100Y-1501140D03*
X44399200Y-1501140D03*
D27*
X103146860Y-41046400D03*
X99748340Y-41046400D03*
D28*
X118999000Y-45999400D03*
X118999000Y-4000500D03*
X4000500Y-45999400D03*
X4000500Y-4000500D03*
D29*
X67764660Y-18285460D03*
X67764660Y-19555460D03*
X67764660Y-20825460D03*
X67764660Y-22095460D03*
X67764660Y-23365460D03*
X67764660Y-24635460D03*
X67764660Y-25905460D03*
X67764660Y-27175460D03*
X67764660Y-28445460D03*
X67764660Y-29715460D03*
X78234540Y-29715460D03*
X78234540Y-28445460D03*
X78234540Y-27175460D03*
X78234540Y-25905460D03*
X78234540Y-24635460D03*
X78234540Y-23365460D03*
X78234540Y-22095460D03*
X78234540Y-20825460D03*
X78234540Y-19555460D03*
X78234540Y-18285460D03*
D30*
X10149840Y-6499860D03*
D31*
X12689840Y-6499860D03*
X15229840Y-6499860D03*
X17769840Y-6499860D03*
X20309840Y-6499860D03*
X22849840Y-6499860D03*
D30*
X112270540Y-47000160D03*
D31*
X109730540Y-47000160D03*
D30*
X112270540Y-42999660D03*
D31*
X109730540Y-42999660D03*
D30*
X109959140Y-38770560D03*
D31*
X109959140Y-36230560D03*
X112499140Y-38770560D03*
X112499140Y-36230560D03*
X115039140Y-38770560D03*
X115039140Y-36230560D03*
D15*
X19400520Y-37800280D03*
X21600160Y-37800280D03*
D27*
X71198740Y-34000440D03*
X67800220Y-34000440D03*
X86700360Y-27000200D03*
X83301840Y-27000200D03*
D32*
X110299500Y-21998940D03*
X117701060Y-21998940D03*
D33*
X103268780Y-36499800D03*
X100728780Y-37452300D03*
X100728780Y-35547300D03*
X121269760Y-28498800D03*
X118729760Y-29451300D03*
X118729760Y-27546300D03*
D34*
X19230340Y-39547800D03*
X19230340Y-41452800D03*
X21770340Y-39547800D03*
X19230340Y-40500300D03*
X21770340Y-41452800D03*
X118729760Y-35547300D03*
X118729760Y-37452300D03*
X121269760Y-35547300D03*
X118729760Y-36499800D03*
X121269760Y-37452300D03*
X77769720Y-35953700D03*
X77769720Y-34048700D03*
X75229720Y-35953700D03*
X77769720Y-35001200D03*
X75229720Y-34048700D03*
X100078540Y-43294300D03*
X100078540Y-45199300D03*
X102618540Y-43294300D03*
X100078540Y-44246800D03*
X102618540Y-45199300D03*
D35*
X25415240Y-19649440D03*
X25415240Y-20157440D03*
X25415240Y-20652740D03*
X25415240Y-21148040D03*
X25415240Y-21656040D03*
X25415240Y-22151340D03*
X25415240Y-22646640D03*
X25415240Y-23154640D03*
X25415240Y-23649940D03*
X25415240Y-24145240D03*
X25415240Y-24653240D03*
X25415240Y-25148540D03*
X25415240Y-25643840D03*
X25415240Y-26151840D03*
X25415240Y-26647140D03*
X25415240Y-27142440D03*
X25415240Y-27650440D03*
X25415240Y-28145740D03*
X25415240Y-28653740D03*
X25415240Y-29149040D03*
X25415240Y-29657040D03*
X25415240Y-30152340D03*
X25415240Y-30647640D03*
X25415240Y-31155640D03*
X25415240Y-31650940D03*
X25415240Y-32146240D03*
X25415240Y-32654240D03*
X25415240Y-33149540D03*
X25415240Y-33644840D03*
X25415240Y-34152840D03*
X25415240Y-34648140D03*
X25415240Y-35143440D03*
X25415240Y-35651440D03*
X25415240Y-36146740D03*
X25415240Y-36642040D03*
X25415240Y-37150040D03*
D36*
X42153840Y-39385240D03*
X42649140Y-39385240D03*
X43144440Y-39385240D03*
X43652440Y-39385240D03*
X44147740Y-39385240D03*
X44643040Y-39385240D03*
X45151040Y-39385240D03*
X42649140Y-17414240D03*
X42153840Y-17414240D03*
X41645840Y-17414240D03*
X41150540Y-17414240D03*
X40655240Y-17414240D03*
X40147240Y-17414240D03*
X39651940Y-17414240D03*
X39156640Y-17414240D03*
X38648640Y-17414240D03*
X38153340Y-17414240D03*
X37658040Y-17414240D03*
X37150040Y-17414240D03*
X36654740Y-17414240D03*
X36146740Y-17414240D03*
X35651440Y-17414240D03*
X35143440Y-17414240D03*
X34648140Y-17414240D03*
X34152840Y-17414240D03*
X33644840Y-17414240D03*
X33149540Y-17414240D03*
X32654240Y-17414240D03*
X32146240Y-17414240D03*
X31650940Y-17414240D03*
X31155640Y-17414240D03*
X30647640Y-17414240D03*
X30152340Y-17414240D03*
X29657040Y-17414240D03*
X29149040Y-17414240D03*
X28653740Y-17414240D03*
X28158440Y-17414240D03*
X27650440Y-17414240D03*
X27650440Y-39385240D03*
X28158440Y-39385240D03*
X28653740Y-39385240D03*
X29149040Y-39385240D03*
X29657040Y-39385240D03*
X30152340Y-39385240D03*
X30647640Y-39385240D03*
X31155640Y-39385240D03*
X31650940Y-39385240D03*
X32146240Y-39385240D03*
X32654240Y-39385240D03*
X33149540Y-39385240D03*
X33644840Y-39385240D03*
X34152840Y-39385240D03*
X34648140Y-39385240D03*
X35143440Y-39385240D03*
X35651440Y-39385240D03*
X36146740Y-39385240D03*
X36654740Y-39385240D03*
X37150040Y-39385240D03*
X37658040Y-39385240D03*
X38153340Y-39385240D03*
X38648640Y-39385240D03*
X39156640Y-39385240D03*
X39651940Y-39385240D03*
X40147240Y-39385240D03*
X40655240Y-39385240D03*
X41150540Y-39385240D03*
X41645840Y-39385240D03*
D35*
X47386240Y-34648140D03*
X47386240Y-34152840D03*
X47386240Y-33644840D03*
X47386240Y-33149540D03*
X47386240Y-32654240D03*
X47386240Y-32146240D03*
X47386240Y-31650940D03*
X47386240Y-31155640D03*
X47386240Y-30647640D03*
X47386240Y-30152340D03*
X47386240Y-29657040D03*
X47386240Y-29149040D03*
X47386240Y-28653740D03*
X47386240Y-28145740D03*
X47386240Y-27650440D03*
X47386240Y-27142440D03*
X47386240Y-26647140D03*
X47386240Y-26151840D03*
X47386240Y-25643840D03*
X47386240Y-25148540D03*
X47386240Y-24653240D03*
X47386240Y-24145240D03*
X47386240Y-23649940D03*
X47386240Y-23154640D03*
X47386240Y-22646640D03*
X47386240Y-22151340D03*
X47386240Y-21656040D03*
X47386240Y-21148040D03*
X47386240Y-20652740D03*
X47386240Y-20157440D03*
X47386240Y-19649440D03*
X47386240Y-37150040D03*
X47386240Y-36642040D03*
X47386240Y-36146740D03*
X47386240Y-35651440D03*
X47386240Y-35143440D03*
D36*
X45151040Y-17414240D03*
X44643040Y-17414240D03*
X44147740Y-17414240D03*
X43652440Y-17414240D03*
X43144440Y-17414240D03*
D37*
X52499260Y-11501120D03*
X47500540Y-11501120D03*
X47000160Y-4003040D03*
X52999640Y-4003040D03*
X66499740Y-11501120D03*
X61501020Y-11501120D03*
X61000640Y-4003040D03*
X67000120Y-4003040D03*
D38*
X19039840Y-16786860D03*
X13959840Y-16786860D03*
X13959840Y-12214860D03*
X19039840Y-12214860D03*
D39*
X14904720Y-41666160D03*
X14904720Y-36332160D03*
X13634720Y-41666160D03*
X12364720Y-41666160D03*
X11094720Y-41666160D03*
X13634720Y-36332160D03*
X12364720Y-36332160D03*
X11094720Y-36332160D03*
X121904760Y-16167100D03*
X121904760Y-10833100D03*
X120634760Y-16167100D03*
X119364760Y-16167100D03*
X118094760Y-16167100D03*
X120634760Y-10833100D03*
X119364760Y-10833100D03*
X118094760Y-10833100D03*
D40*
X109832140Y-32905700D03*
X115166140Y-32905700D03*
X109832140Y-31635700D03*
X109832140Y-30365700D03*
X109832140Y-29095700D03*
X115166140Y-31635700D03*
X115166140Y-30365700D03*
X115166140Y-29095700D03*
D41*
X90731340Y-22095460D03*
X90731340Y-23365460D03*
X90731340Y-24635460D03*
X90731340Y-25905460D03*
X95270320Y-22095460D03*
X95270320Y-23365460D03*
X95270320Y-24635460D03*
X95270320Y-25905460D03*
D42*
X28003500Y-44002960D03*
D43*
X47500540Y-46499780D03*
X25999440Y-46499780D03*
D42*
X28503880Y-44002960D03*
X29004260Y-44002960D03*
X29504640Y-44002960D03*
X30002480Y-44002960D03*
X30502860Y-44002960D03*
X31003240Y-44002960D03*
X31503620Y-44002960D03*
X32004000Y-44002960D03*
X32504380Y-44002960D03*
X33505140Y-44002960D03*
X34002980Y-44002960D03*
X34503360Y-44002960D03*
X35003740Y-44002960D03*
X35504120Y-44002960D03*
X36004500Y-44002960D03*
X36504880Y-44002960D03*
X37002720Y-44002960D03*
X37503100Y-44002960D03*
X38003480Y-44002960D03*
X38503860Y-44002960D03*
X39004240Y-44002960D03*
X39504620Y-44002960D03*
X40005000Y-44002960D03*
X40502840Y-44002960D03*
X41003220Y-44002960D03*
X41503600Y-44002960D03*
X42003980Y-44002960D03*
X42504360Y-44002960D03*
X43004740Y-44002960D03*
X43505120Y-44002960D03*
X44002960Y-44002960D03*
X44503340Y-44002960D03*
X45003720Y-44002960D03*
X45504100Y-44002960D03*
D10*
G36*
X32842200Y-43290490D02*
X33162240Y-43290490D01*
X33162240Y-44710350D01*
X32842200Y-44710350D01*
X32842200Y-43290490D01*
X32842200Y-43290490D01*
G37*
D44*
X6197600Y-20502880D03*
D43*
X3700780Y-39999920D03*
X3700780Y-18498820D03*
D44*
X6197600Y-21003260D03*
X6197600Y-21503640D03*
X6197600Y-22004020D03*
X6197600Y-22501860D03*
X6197600Y-23002240D03*
X6197600Y-23502620D03*
X6197600Y-24003000D03*
X6197600Y-24503380D03*
X6197600Y-25003760D03*
X6197600Y-26004520D03*
X6197600Y-26502360D03*
X6197600Y-27002740D03*
X6197600Y-27503120D03*
X6197600Y-28003500D03*
X6197600Y-28503880D03*
X6197600Y-29004260D03*
X6197600Y-29502100D03*
X6197600Y-30002480D03*
X6197600Y-30502860D03*
X6197600Y-31003240D03*
X6197600Y-31503620D03*
X6197600Y-32004000D03*
X6197600Y-32504380D03*
X6197600Y-33002220D03*
X6197600Y-33502600D03*
X6197600Y-34002980D03*
X6197600Y-34503360D03*
X6197600Y-35003740D03*
X6197600Y-35504120D03*
X6197600Y-36004500D03*
X6197600Y-36502340D03*
X6197600Y-37002720D03*
X6197600Y-37503100D03*
X6197600Y-38003480D03*
D10*
G36*
X6910070Y-25341580D02*
X6910070Y-25661620D01*
X5490210Y-25661620D01*
X5490210Y-25341580D01*
X6910070Y-25341580D01*
X6910070Y-25341580D01*
G37*
D45*
X85199220Y-18498820D03*
X86799420Y-18498820D03*
D46*
X17399000Y-41300400D03*
X17399000Y-39700200D03*
D45*
X78501240Y-41198800D03*
X76901040Y-41198800D03*
X68699380Y-38999160D03*
X70299580Y-38999160D03*
X102199440Y-18999200D03*
X103799640Y-18999200D03*
D46*
X98501200Y-37299900D03*
X98501200Y-35699700D03*
D45*
X77299820Y-38999160D03*
X75699620Y-38999160D03*
D46*
X11300460Y-12199620D03*
X11300460Y-13799820D03*
D45*
X60401200Y-46299120D03*
X58801000Y-46299120D03*
D46*
X57500520Y-17198340D03*
X57500520Y-18798540D03*
X55999380Y-17198340D03*
X55999380Y-18798540D03*
X56799480Y-31094680D03*
X56799480Y-29494480D03*
X55300880Y-31094680D03*
X55300880Y-29494480D03*
D45*
X86799420Y-20998180D03*
X85199220Y-20998180D03*
D46*
X52199540Y-31099760D03*
X52199540Y-29499560D03*
X52499260Y-26799540D03*
X52499260Y-25199340D03*
X97500440Y-19199860D03*
X97500440Y-20800060D03*
D45*
X92301060Y-18498820D03*
X90700860Y-18498820D03*
D46*
X105001060Y-37299900D03*
X105001060Y-35699700D03*
X87200740Y-33898840D03*
X87200740Y-35499040D03*
D45*
X84300060Y-29799280D03*
X82699860Y-29799280D03*
X75699620Y-31998920D03*
X77299820Y-31998920D03*
X75699620Y-37500560D03*
X77299820Y-37500560D03*
D46*
X79799180Y-35801300D03*
X79799180Y-34201100D03*
X104447340Y-44947840D03*
X104447340Y-43347640D03*
D45*
X103799640Y-17299940D03*
X102199440Y-17299940D03*
X119199660Y-34000440D03*
X120799860Y-34000440D03*
X92301060Y-20500340D03*
X90700860Y-20500340D03*
D46*
X102047040Y-46946820D03*
X102047040Y-48547020D03*
X58999120Y-18798540D03*
X58999120Y-17198340D03*
X100749100Y-48547020D03*
X100749100Y-46946820D03*
D45*
X119799100Y-25600660D03*
X121399300Y-25600660D03*
D46*
X58498740Y-31094680D03*
X58498740Y-29494480D03*
D45*
X92301060Y-16499840D03*
X90700860Y-16499840D03*
X79400400Y-47899320D03*
X77800200Y-47899320D03*
X79392780Y-46098460D03*
X77792580Y-46098460D03*
D46*
X81201260Y-44201080D03*
X81201260Y-42600880D03*
D45*
X72900540Y-47899320D03*
X74500740Y-47899320D03*
X72900540Y-46101000D03*
X74500740Y-46101000D03*
X70299580Y-44000420D03*
X68699380Y-44000420D03*
D46*
X59999880Y-29494480D03*
X59999880Y-31094680D03*
D45*
X86799420Y-16499840D03*
X85199220Y-16499840D03*
X86799420Y-22999700D03*
X85199220Y-22999700D03*
X70299580Y-40500300D03*
X68699380Y-40500300D03*
D46*
X53799740Y-29494480D03*
X53799740Y-31094680D03*
D30*
X12890500Y-48069500D03*
D31*
X12890500Y-45529500D03*
X15430500Y-48069500D03*
X15430500Y-45529500D03*
X17970500Y-48069500D03*
X17970500Y-45529500D03*
X20510500Y-48069500D03*
X20510500Y-45529500D03*
D47*
X61247020Y-41625520D03*
X61247020Y-40975280D03*
X61247020Y-40325040D03*
X61247020Y-39674800D03*
X61247020Y-39024560D03*
X61247020Y-38374320D03*
X61247020Y-37724080D03*
X61247020Y-37073840D03*
X61247020Y-36423600D03*
X61247020Y-35773360D03*
X53152040Y-35775900D03*
X53152040Y-36423600D03*
X53152040Y-37073840D03*
X53152040Y-37724080D03*
X53152040Y-38374320D03*
X53152040Y-39024560D03*
X53152040Y-39674800D03*
X53152040Y-40325040D03*
X53152040Y-40975280D03*
X53152040Y-41625520D03*
D48*
X83799680Y-39801800D03*
X83799680Y-44800520D03*
X65600580Y-39801800D03*
X65600580Y-44800520D03*
D49*
X4000500Y-10599420D03*
D50*
X2999740Y-14099540D03*
X5001260Y-14099540D03*
D49*
X52499260Y-44599860D03*
D50*
X51498500Y-48099980D03*
X53500020Y-48099980D03*
D51*
X62400180Y-16400780D03*
X64401700Y-16400780D03*
X52100480Y-15400020D03*
X52100480Y-17401540D03*
M02*
