G04 #@! TF.FileFunction,Soldermask,Bot*
%FSLAX46Y46*%
G04 Gerber Fmt 4.6, Leading zero omitted, Abs format (unit mm)*
G04 Created by KiCad (PCBNEW 4.0.6) date 08/04/17 18:38:55*
%MOMM*%
%LPD*%
G01*
G04 APERTURE LIST*
%ADD10C,0.150000*%
%ADD11C,3.830320*%
%ADD12C,2.519680*%
%ADD13R,3.169920X3.169920*%
%ADD14R,0.919480X0.670560*%
%ADD15R,0.919480X0.520700*%
%ADD16R,5.417820X6.421120*%
%ADD17C,6.019800*%
%ADD18R,1.544320X1.544320*%
%ADD19C,1.544320*%
%ADD20C,1.920240*%
%ADD21R,0.820420X1.021080*%
%ADD22R,1.021080X0.820420*%
%ADD23C,1.219200*%
%ADD24C,1.320800*%
G04 APERTURE END LIST*
D10*
D11*
X78999080Y-4500880D03*
X78999080Y-14500860D03*
X74000360Y-12750800D03*
X95999300Y-4500880D03*
X95999300Y-14500860D03*
X91000580Y-12750800D03*
D12*
X109997240Y-7998460D03*
X105798620Y-11000740D03*
X109999780Y-14000480D03*
D13*
X57599580Y-24091900D03*
D14*
X62898020Y-22595840D03*
D15*
X62898020Y-21795740D03*
X62898020Y-20995640D03*
D14*
X62898020Y-20195540D03*
X64897000Y-20195540D03*
D15*
X64897000Y-20995640D03*
X64897000Y-21795740D03*
D14*
X64897000Y-22595840D03*
D16*
X102999540Y-29199840D03*
D17*
X118999000Y-45999400D03*
X118999000Y-4000500D03*
X4000500Y-45999400D03*
X4000500Y-4000500D03*
D18*
X10149840Y-6499860D03*
D19*
X12689840Y-6499860D03*
X15229840Y-6499860D03*
X17769840Y-6499860D03*
X20309840Y-6499860D03*
X22849840Y-6499860D03*
D18*
X112270540Y-47000160D03*
D19*
X109730540Y-47000160D03*
D18*
X112270540Y-42999660D03*
D19*
X109730540Y-42999660D03*
D18*
X109959140Y-38770560D03*
D19*
X109959140Y-36230560D03*
X112499140Y-38770560D03*
X112499140Y-36230560D03*
X115039140Y-38770560D03*
X115039140Y-36230560D03*
D20*
X52499260Y-11501120D03*
X47500540Y-11501120D03*
X47000160Y-4003040D03*
X52999640Y-4003040D03*
X66499740Y-11501120D03*
X61501020Y-11501120D03*
X61000640Y-4003040D03*
X67000120Y-4003040D03*
D21*
X28000960Y-34698940D03*
X28000960Y-36299140D03*
X34000440Y-34698940D03*
X34000440Y-36299140D03*
X15001240Y-38199060D03*
X15001240Y-39799260D03*
X44899580Y-34698940D03*
X44899580Y-36299140D03*
D22*
X30299660Y-26200100D03*
X28699460Y-26200100D03*
X42199560Y-26101040D03*
X43799760Y-26101040D03*
X30299660Y-32499300D03*
X28699460Y-32499300D03*
X56400700Y-37200840D03*
X58000900Y-37200840D03*
D21*
X39700200Y-36299140D03*
X39700200Y-34698940D03*
D22*
X65399920Y-25900380D03*
X63799720Y-25900380D03*
X75600560Y-24698960D03*
X74000360Y-24698960D03*
X58000900Y-39100760D03*
X56400700Y-39100760D03*
D21*
X35600640Y-10299700D03*
X35600640Y-8699500D03*
X36400740Y-3898900D03*
X36400740Y-5499100D03*
X29999940Y-34698940D03*
X29999940Y-36299140D03*
X27899360Y-22799040D03*
X27899360Y-21198840D03*
D22*
X30299660Y-29499560D03*
X28699460Y-29499560D03*
D21*
X35699700Y-22799040D03*
X35699700Y-21198840D03*
X41699180Y-22799040D03*
X41699180Y-21198840D03*
X43700700Y-22799040D03*
X43700700Y-21198840D03*
X45199300Y-22799040D03*
X45199300Y-21198840D03*
D22*
X42199560Y-29799280D03*
X43799760Y-29799280D03*
D21*
X32499300Y-22799040D03*
X32499300Y-21198840D03*
D22*
X30299660Y-31000700D03*
X28699460Y-31000700D03*
D21*
X38300660Y-34201100D03*
X38300660Y-35801300D03*
D22*
X42199560Y-31300420D03*
X43799760Y-31300420D03*
D21*
X39999920Y-22799040D03*
X39999920Y-21198840D03*
D22*
X74000360Y-20800060D03*
X75600560Y-20800060D03*
D21*
X29499560Y-22799040D03*
X29499560Y-21198840D03*
X42799000Y-34698940D03*
X42799000Y-36299140D03*
D22*
X75600560Y-27200860D03*
X74000360Y-27200860D03*
D21*
X41300400Y-34698940D03*
X41300400Y-36299140D03*
X30998160Y-22799040D03*
X30998160Y-21198840D03*
D18*
X12890500Y-48069500D03*
D19*
X12890500Y-45529500D03*
X15430500Y-48069500D03*
X15430500Y-45529500D03*
X17970500Y-48069500D03*
X17970500Y-45529500D03*
X20510500Y-48069500D03*
X20510500Y-45529500D03*
D23*
X83799680Y-39801800D03*
X83799680Y-44800520D03*
X65600580Y-39801800D03*
X65600580Y-44800520D03*
D24*
X62400180Y-16400780D03*
X64401700Y-16400780D03*
X52100480Y-15400020D03*
X52100480Y-17401540D03*
M02*
