G04 #@! TF.FileFunction,Copper,L3,Inr,Plane*
%FSLAX46Y46*%
G04 Gerber Fmt 4.6, Leading zero omitted, Abs format (unit mm)*
G04 Created by KiCad (PCBNEW 4.0.6) date 08/04/17 18:38:55*
%MOMM*%
%LPD*%
G01*
G04 APERTURE LIST*
%ADD10C,0.150000*%
%ADD11C,3.810000*%
%ADD12C,2.499360*%
%ADD13R,3.149600X3.149600*%
%ADD14R,5.397500X6.400800*%
%ADD15C,5.999480*%
%ADD16R,1.524000X1.524000*%
%ADD17C,1.524000*%
%ADD18C,1.899920*%
%ADD19C,1.198880*%
%ADD20C,1.300480*%
%ADD21C,0.508000*%
%ADD22C,0.899160*%
%ADD23C,1.000760*%
%ADD24C,0.200660*%
G04 APERTURE END LIST*
D10*
D11*
X78999080Y-4500880D03*
X78999080Y-14500860D03*
X74000360Y-12750800D03*
X95999300Y-4500880D03*
X95999300Y-14500860D03*
X91000580Y-12750800D03*
D12*
X109997240Y-7998460D03*
X105798620Y-11000740D03*
X109999780Y-14000480D03*
D13*
X57599580Y-24091900D03*
D14*
X102999540Y-29199840D03*
D15*
X118999000Y-45999400D03*
X118999000Y-4000500D03*
X4000500Y-45999400D03*
X4000500Y-4000500D03*
D16*
X10149840Y-6499860D03*
D17*
X12689840Y-6499860D03*
X15229840Y-6499860D03*
X17769840Y-6499860D03*
X20309840Y-6499860D03*
X22849840Y-6499860D03*
D16*
X112270540Y-47000160D03*
D17*
X109730540Y-47000160D03*
D16*
X112270540Y-42999660D03*
D17*
X109730540Y-42999660D03*
D16*
X109959140Y-38770560D03*
D17*
X109959140Y-36230560D03*
X112499140Y-38770560D03*
X112499140Y-36230560D03*
X115039140Y-38770560D03*
X115039140Y-36230560D03*
D18*
X52499260Y-11501120D03*
X47500540Y-11501120D03*
X47000160Y-4003040D03*
X52999640Y-4003040D03*
X66499740Y-11501120D03*
X61501020Y-11501120D03*
X61000640Y-4003040D03*
X67000120Y-4003040D03*
D16*
X12890500Y-48069500D03*
D17*
X12890500Y-45529500D03*
X15430500Y-48069500D03*
X15430500Y-45529500D03*
X17970500Y-48069500D03*
X17970500Y-45529500D03*
X20510500Y-48069500D03*
X20510500Y-45529500D03*
D19*
X83799680Y-39801800D03*
X83799680Y-44800520D03*
X65600580Y-39801800D03*
X65600580Y-44800520D03*
D20*
X62400180Y-16400780D03*
X64401700Y-16400780D03*
X52100480Y-15400020D03*
X52100480Y-17401540D03*
D21*
X44698920Y-31198820D03*
X39999920Y-20299680D03*
X27800300Y-31000700D03*
D22*
X22600920Y-38600380D03*
X21198840Y-38600380D03*
D21*
X38300660Y-36799520D03*
X56598820Y-19898360D03*
D22*
X36400740Y-3200400D03*
D21*
X31899860Y-18999200D03*
D22*
X97599500Y-29499560D03*
D21*
X58999120Y-16299180D03*
X57299860Y-19898360D03*
X30099000Y-37800280D03*
X41699180Y-19298920D03*
D22*
X101998780Y-21699220D03*
D21*
X23599140Y-31699200D03*
D22*
X98699320Y-26299160D03*
D21*
X35600640Y-19298920D03*
D22*
X21800820Y-40700960D03*
D21*
X46101000Y-21198840D03*
X65999360Y-21000720D03*
D22*
X100700840Y-23299420D03*
D21*
X26700480Y-21198840D03*
X26799540Y-30401260D03*
D22*
X95999300Y-29499560D03*
X35600640Y-11501120D03*
D21*
X45250100Y-32049720D03*
X43599100Y-19298920D03*
X45699680Y-26200100D03*
D22*
X99499420Y-21699220D03*
D21*
X31000700Y-18999200D03*
D22*
X53799740Y-31094680D03*
D21*
X34000440Y-37701220D03*
D22*
X54602380Y-38000940D03*
D21*
X44899580Y-30200600D03*
X26700480Y-26200100D03*
D22*
X12400280Y-12199620D03*
D21*
X40401240Y-37701220D03*
X39499540Y-37701220D03*
X41300400Y-37800280D03*
X45798740Y-36101020D03*
D22*
X100700840Y-20200620D03*
D21*
X51300380Y-40899080D03*
D22*
X16299180Y-39700200D03*
X101998780Y-23299420D03*
D21*
X61501020Y-24698960D03*
X26799540Y-31998920D03*
D22*
X94698820Y-29499560D03*
D21*
X27599640Y-36700460D03*
D22*
X119999760Y-35547300D03*
D21*
X121399300Y-24698960D03*
D22*
X118899940Y-30899100D03*
D21*
X30700980Y-42699940D03*
X4749800Y-30500320D03*
X2999740Y-12900660D03*
X7500620Y-34000440D03*
D22*
X116799360Y-16200120D03*
X115199160Y-17500600D03*
D21*
X54099460Y-44300140D03*
D22*
X102600760Y-44201080D03*
D21*
X7500620Y-35499040D03*
D22*
X110700820Y-20299680D03*
X116799360Y-17500600D03*
D21*
X31998920Y-42699940D03*
D22*
X116799360Y-18999200D03*
X103499920Y-43299380D03*
D21*
X35600640Y-42600880D03*
D22*
X107000040Y-21998940D03*
D21*
X76598780Y-27200860D03*
X76598780Y-24698960D03*
D22*
X59199780Y-38999160D03*
X91099640Y-48699420D03*
X93901260Y-48699420D03*
D21*
X3200400Y-37500560D03*
D22*
X79799180Y-38900100D03*
D21*
X28498800Y-48399700D03*
D22*
X92600780Y-48699420D03*
D21*
X66299080Y-25900380D03*
X76598780Y-20800060D03*
D22*
X89100660Y-41800780D03*
X89100660Y-40500300D03*
D21*
X5199380Y-36499800D03*
X30099000Y-46299120D03*
D22*
X121300240Y-36499800D03*
D21*
X61699140Y-22600920D03*
X55199280Y-21300440D03*
X61699140Y-23500080D03*
X61699140Y-19298920D03*
X61699140Y-21800820D03*
X61699140Y-20200620D03*
X37548820Y-15199360D03*
X38000940Y-2600960D03*
X37200840Y-2750820D03*
X36949380Y-14749780D03*
X36149280Y-14351000D03*
X34800540Y-2750820D03*
X35450780Y-14549120D03*
X34000440Y-2750820D03*
X34749740Y-15349220D03*
X33200340Y-2750820D03*
X26901140Y-22400260D03*
X26799540Y-23200360D03*
X26101040Y-18100040D03*
X26901140Y-24300180D03*
X51198780Y-26700480D03*
X108800900Y-29100780D03*
X51198780Y-27800300D03*
X108501180Y-33700720D03*
X23098760Y-12199620D03*
X25499060Y-14599920D03*
X31600140Y-14000480D03*
X75001120Y-38999160D03*
D22*
X71800720Y-37000180D03*
D21*
X32499300Y-23700740D03*
X61300360Y-25798780D03*
D22*
X57599580Y-31094680D03*
D21*
X45499020Y-45300900D03*
D22*
X120898920Y-21899880D03*
D21*
X31099760Y-32499300D03*
D22*
X62999620Y-38100000D03*
X78399640Y-31998920D03*
D21*
X29100780Y-46200060D03*
X104899460Y-17299940D03*
X72999600Y-27200860D03*
X7749540Y-30248860D03*
X72999600Y-24698960D03*
D22*
X36400740Y-6299200D03*
X85001100Y-31501080D03*
D21*
X31099760Y-31000700D03*
D22*
X52199540Y-31099760D03*
D21*
X45199300Y-23700740D03*
X43799760Y-15999460D03*
X42799000Y-40899080D03*
D22*
X18498820Y-40500300D03*
D21*
X29999940Y-33898840D03*
X35600640Y-2700020D03*
X4800600Y-35300920D03*
D22*
X61899800Y-27899360D03*
D21*
X11099800Y-40700960D03*
X79900780Y-25900380D03*
X29799280Y-15900400D03*
X40700960Y-40700960D03*
X26700480Y-25199340D03*
D22*
X121099580Y-30899100D03*
D21*
X32499300Y-45300900D03*
X41351200Y-31300420D03*
X45999400Y-20299680D03*
X24099520Y-35798760D03*
X28000960Y-33898840D03*
X27200860Y-44399200D03*
D22*
X78699360Y-35001200D03*
D21*
X30401260Y-24000460D03*
X69400420Y-20800060D03*
X43500040Y-34800540D03*
D22*
X117701060Y-23401020D03*
X91201240Y-45999400D03*
X35600640Y-7899400D03*
X76100940Y-41198800D03*
D21*
X59400440Y-27500580D03*
D22*
X89100660Y-44800520D03*
X102999540Y-48600360D03*
X66400680Y-34000440D03*
D21*
X30299660Y-45499020D03*
X72999600Y-20800060D03*
X44500800Y-45300900D03*
X31000700Y-45300900D03*
X35999420Y-45399960D03*
D22*
X86700360Y-28600400D03*
D21*
X51302920Y-40098980D03*
X52499260Y-27498040D03*
X7698740Y-26901140D03*
X4800600Y-21501100D03*
X42100500Y-45399960D03*
X43200320Y-45399960D03*
X41351200Y-29799280D03*
X45999400Y-25100280D03*
X29298900Y-37899340D03*
X75100180Y-44399200D03*
X41699180Y-23700740D03*
X31998920Y-15900400D03*
X54000400Y-22298660D03*
D22*
X93901260Y-39601140D03*
D21*
X102199440Y-19900900D03*
D22*
X119999760Y-37599620D03*
D21*
X34000440Y-33898840D03*
D22*
X101201220Y-44201080D03*
X54602380Y-36700460D03*
X98600260Y-44899580D03*
D21*
X66400680Y-23299420D03*
X35699700Y-23700740D03*
X4800600Y-26499820D03*
X43700700Y-23700740D03*
X18999200Y-18300700D03*
X66299080Y-27200860D03*
X4800600Y-22999700D03*
X10200640Y-13799820D03*
X40401240Y-35199320D03*
D22*
X90898980Y-29700220D03*
D21*
X79900780Y-19601180D03*
X38498780Y-45399960D03*
X7800340Y-23401020D03*
X66400680Y-24599900D03*
X30599380Y-2700020D03*
D22*
X99700080Y-37398960D03*
D21*
X117800120Y-29400500D03*
X85199220Y-15600680D03*
D22*
X118899940Y-40599360D03*
D21*
X57500520Y-16299180D03*
X31699200Y-2700020D03*
X115100100Y-28498800D03*
X48801020Y-35999420D03*
X39799260Y-45399960D03*
X36400740Y-11899900D03*
X45999400Y-30099000D03*
X24099520Y-20800060D03*
X7698740Y-20299680D03*
D22*
X79799180Y-33200340D03*
D21*
X90700860Y-15600680D03*
D22*
X85600540Y-29700220D03*
D21*
X91998800Y-25900380D03*
D22*
X104399080Y-46200060D03*
X90898980Y-32301180D03*
D21*
X44201080Y-34800540D03*
X28699460Y-22499320D03*
D22*
X78501240Y-37500560D03*
X70299580Y-38300660D03*
D21*
X55999380Y-16299180D03*
X39999920Y-23700740D03*
X36700460Y-18900140D03*
D22*
X114698780Y-21998940D03*
D21*
X31099760Y-29499560D03*
X37200840Y-34800540D03*
X54701440Y-39700200D03*
X34698940Y-37899340D03*
D22*
X57398920Y-44399200D03*
D21*
X41501060Y-26101040D03*
X119301260Y-24599900D03*
X119301260Y-9298940D03*
X29499560Y-18999200D03*
X42699940Y-37899340D03*
X64800480Y-30500320D03*
X55699660Y-27599640D03*
X84201000Y-18399760D03*
D23*
X59400440Y-25499060D02*
X58900060Y-25999440D01*
X59499500Y-22298660D02*
X59400440Y-22397720D01*
X58900060Y-25999440D02*
X55900320Y-25999440D01*
X106100880Y-25699720D02*
X105999280Y-25801320D01*
X99999800Y-25600660D02*
X102999540Y-25600660D01*
X57602120Y-22298660D02*
X58900060Y-22298660D01*
X105801160Y-32600900D02*
X100299520Y-32600900D01*
X59400440Y-22397720D02*
X59400440Y-25499060D01*
X55999380Y-22199600D02*
X57299860Y-22199600D01*
X57599580Y-22301200D02*
X57602120Y-22298660D01*
X57599580Y-24091900D02*
X57599580Y-22301200D01*
X58900060Y-22298660D02*
X59499500Y-22298660D01*
X55801260Y-25900380D02*
X55801260Y-22397720D01*
X105999280Y-25801320D02*
X105999280Y-32402780D01*
X102999540Y-29199840D02*
X102999540Y-25699720D01*
X55900320Y-25999440D02*
X55801260Y-25900380D01*
X102999540Y-25699720D02*
X106100880Y-25699720D01*
X105999280Y-32402780D02*
X105801160Y-32600900D01*
X100299520Y-32600900D02*
X99999800Y-32301180D01*
X55801260Y-22397720D02*
X55999380Y-22199600D01*
X99999800Y-32301180D02*
X99999800Y-25600660D01*
D24*
G36*
X122679460Y-49679860D02*
X122537220Y-49679860D01*
X122537220Y-46692820D01*
X122537220Y-4693920D01*
X122534680Y-3286760D01*
X122001280Y-2006600D01*
X121546620Y-1666240D01*
X121333260Y-1879600D01*
X121333260Y-1452880D01*
X120992900Y-998220D01*
X119692420Y-462280D01*
X118285260Y-464820D01*
X117005100Y-998220D01*
X116664740Y-1452880D01*
X118999000Y-3784600D01*
X121333260Y-1452880D01*
X121333260Y-1879600D01*
X119214900Y-4000500D01*
X121546620Y-6334760D01*
X122001280Y-5994400D01*
X122537220Y-4693920D01*
X122537220Y-46692820D01*
X122534680Y-45285660D01*
X122067320Y-44162980D01*
X122067320Y-36652200D01*
X122067320Y-36347400D01*
X121973340Y-36118800D01*
X121973340Y-24813260D01*
X121973340Y-24584660D01*
X121886980Y-24373840D01*
X121724420Y-24211280D01*
X121513600Y-24124920D01*
X121333260Y-24124920D01*
X121333260Y-6548120D01*
X118999000Y-4216400D01*
X118783100Y-4429760D01*
X118783100Y-4000500D01*
X116451380Y-1666240D01*
X115996720Y-2006600D01*
X115460780Y-3307080D01*
X115463320Y-4714240D01*
X115996720Y-5994400D01*
X116451380Y-6334760D01*
X118783100Y-4000500D01*
X118783100Y-4429760D01*
X116664740Y-6548120D01*
X117005100Y-7002780D01*
X118305580Y-7538720D01*
X119712740Y-7536180D01*
X120992900Y-7002780D01*
X121333260Y-6548120D01*
X121333260Y-24124920D01*
X121285000Y-24124920D01*
X121074180Y-24211280D01*
X120911620Y-24373840D01*
X120825260Y-24584660D01*
X120825260Y-24813260D01*
X120911620Y-25024080D01*
X121074180Y-25186640D01*
X121285000Y-25273000D01*
X121513600Y-25273000D01*
X121724420Y-25186640D01*
X121886980Y-25024080D01*
X121973340Y-24813260D01*
X121973340Y-36118800D01*
X121950480Y-36065460D01*
X121734580Y-35849560D01*
X121452640Y-35732720D01*
X121147840Y-35732720D01*
X120865900Y-35849560D01*
X120766840Y-35948620D01*
X120766840Y-35699700D01*
X120766840Y-35394900D01*
X120650000Y-35112960D01*
X120434100Y-34897060D01*
X120152160Y-34780220D01*
X119875300Y-34780220D01*
X119875300Y-24714200D01*
X119875300Y-24485600D01*
X119875300Y-9413240D01*
X119875300Y-9184640D01*
X119788940Y-8973820D01*
X119626380Y-8811260D01*
X119415560Y-8724900D01*
X119186960Y-8724900D01*
X118976140Y-8811260D01*
X118813580Y-8973820D01*
X118727220Y-9184640D01*
X118727220Y-9413240D01*
X118813580Y-9624060D01*
X118976140Y-9786620D01*
X119186960Y-9872980D01*
X119415560Y-9872980D01*
X119626380Y-9786620D01*
X119788940Y-9624060D01*
X119875300Y-9413240D01*
X119875300Y-24485600D01*
X119788940Y-24274780D01*
X119626380Y-24112220D01*
X119415560Y-24025860D01*
X119186960Y-24025860D01*
X118976140Y-24112220D01*
X118813580Y-24274780D01*
X118727220Y-24485600D01*
X118727220Y-24714200D01*
X118813580Y-24925020D01*
X118976140Y-25087580D01*
X119186960Y-25173940D01*
X119415560Y-25173940D01*
X119626380Y-25087580D01*
X119788940Y-24925020D01*
X119875300Y-24714200D01*
X119875300Y-34780220D01*
X119847360Y-34780220D01*
X119667020Y-34853880D01*
X119667020Y-31051500D01*
X119667020Y-30746700D01*
X119550180Y-30464760D01*
X119334280Y-30248860D01*
X119052340Y-30132020D01*
X118747540Y-30132020D01*
X118465600Y-30248860D01*
X118249700Y-30464760D01*
X118132860Y-30746700D01*
X118132860Y-31051500D01*
X118249700Y-31333440D01*
X118465600Y-31549340D01*
X118747540Y-31666180D01*
X119052340Y-31666180D01*
X119334280Y-31549340D01*
X119550180Y-31333440D01*
X119667020Y-31051500D01*
X119667020Y-34853880D01*
X119565420Y-34897060D01*
X119349520Y-35112960D01*
X119232680Y-35394900D01*
X119232680Y-35699700D01*
X119349520Y-35981640D01*
X119565420Y-36197540D01*
X119847360Y-36314380D01*
X120152160Y-36314380D01*
X120434100Y-36197540D01*
X120650000Y-35981640D01*
X120766840Y-35699700D01*
X120766840Y-35948620D01*
X120650000Y-36065460D01*
X120533160Y-36347400D01*
X120533160Y-36652200D01*
X120650000Y-36934140D01*
X120865900Y-37150040D01*
X121147840Y-37266880D01*
X121452640Y-37266880D01*
X121734580Y-37150040D01*
X121950480Y-36934140D01*
X122067320Y-36652200D01*
X122067320Y-44162980D01*
X122001280Y-44005500D01*
X121546620Y-43665140D01*
X121333260Y-43878500D01*
X121333260Y-43451780D01*
X120992900Y-42997120D01*
X119692420Y-42461180D01*
X118285260Y-42463720D01*
X117566440Y-42760900D01*
X117566440Y-19151600D01*
X117566440Y-18846800D01*
X117449600Y-18564860D01*
X117233700Y-18348960D01*
X116992400Y-18249900D01*
X117233700Y-18150840D01*
X117449600Y-17934940D01*
X117566440Y-17653000D01*
X117566440Y-17348200D01*
X117449600Y-17066260D01*
X117233700Y-16850360D01*
X117449600Y-16634460D01*
X117566440Y-16352520D01*
X117566440Y-16047720D01*
X117449600Y-15765780D01*
X117233700Y-15549880D01*
X116951760Y-15433040D01*
X116646960Y-15433040D01*
X116365020Y-15549880D01*
X116149120Y-15765780D01*
X116032280Y-16047720D01*
X116032280Y-16352520D01*
X116149120Y-16634460D01*
X116365020Y-16850360D01*
X116149120Y-17066260D01*
X116032280Y-17348200D01*
X116032280Y-17653000D01*
X116149120Y-17934940D01*
X116365020Y-18150840D01*
X116603780Y-18249900D01*
X116365020Y-18348960D01*
X116149120Y-18564860D01*
X116032280Y-18846800D01*
X116032280Y-19151600D01*
X116149120Y-19433540D01*
X116365020Y-19649440D01*
X116646960Y-19766280D01*
X116951760Y-19766280D01*
X117233700Y-19649440D01*
X117449600Y-19433540D01*
X117566440Y-19151600D01*
X117566440Y-42760900D01*
X117005100Y-42997120D01*
X116664740Y-43451780D01*
X118999000Y-45783500D01*
X121333260Y-43451780D01*
X121333260Y-43878500D01*
X119214900Y-45999400D01*
X121546620Y-48333660D01*
X122001280Y-47993300D01*
X122537220Y-46692820D01*
X122537220Y-49679860D01*
X121333260Y-49679860D01*
X121333260Y-48547020D01*
X118999000Y-46215300D01*
X118783100Y-46428660D01*
X118783100Y-45999400D01*
X116451380Y-43665140D01*
X116398040Y-43703240D01*
X116398040Y-36398200D01*
X116357400Y-35867340D01*
X116227860Y-35554920D01*
X116001800Y-35483800D01*
X115966240Y-35519360D01*
X115966240Y-17653000D01*
X115966240Y-17348200D01*
X115849400Y-17066260D01*
X115633500Y-16850360D01*
X115351560Y-16733520D01*
X115046760Y-16733520D01*
X114764820Y-16850360D01*
X114548920Y-17066260D01*
X114432080Y-17348200D01*
X114432080Y-17653000D01*
X114548920Y-17934940D01*
X114764820Y-18150840D01*
X115046760Y-18267680D01*
X115351560Y-18267680D01*
X115633500Y-18150840D01*
X115849400Y-17934940D01*
X115966240Y-17653000D01*
X115966240Y-35519360D01*
X115785900Y-35699700D01*
X115785900Y-35267900D01*
X115714780Y-35041840D01*
X115206780Y-34871660D01*
X114675920Y-34912300D01*
X114363500Y-35041840D01*
X114292380Y-35267900D01*
X115039140Y-36014660D01*
X115785900Y-35267900D01*
X115785900Y-35699700D01*
X115255040Y-36230560D01*
X116001800Y-36977320D01*
X116227860Y-36906200D01*
X116398040Y-36398200D01*
X116398040Y-43703240D01*
X116121180Y-43911520D01*
X116121180Y-38986460D01*
X116121180Y-38557200D01*
X115956080Y-38158420D01*
X115785900Y-37985700D01*
X115785900Y-37193220D01*
X115039140Y-36446460D01*
X114823240Y-36662360D01*
X114823240Y-36230560D01*
X114076480Y-35483800D01*
X113850420Y-35554920D01*
X113680240Y-36062920D01*
X113720880Y-36593780D01*
X113850420Y-36906200D01*
X114076480Y-36977320D01*
X114823240Y-36230560D01*
X114823240Y-36662360D01*
X114292380Y-37193220D01*
X114363500Y-37419280D01*
X114871500Y-37589460D01*
X115402360Y-37548820D01*
X115714780Y-37419280D01*
X115785900Y-37193220D01*
X115785900Y-37985700D01*
X115653820Y-37853620D01*
X115255040Y-37688520D01*
X114825780Y-37688520D01*
X114427000Y-37853620D01*
X114122200Y-38155880D01*
X113957100Y-38554660D01*
X113957100Y-38983920D01*
X114122200Y-39382700D01*
X114424460Y-39687500D01*
X114823240Y-39852600D01*
X115252500Y-39852600D01*
X115651280Y-39687500D01*
X115956080Y-39385240D01*
X116121180Y-38986460D01*
X116121180Y-43911520D01*
X115996720Y-44005500D01*
X115460780Y-45305980D01*
X115463320Y-46713140D01*
X115996720Y-47993300D01*
X116451380Y-48333660D01*
X118783100Y-45999400D01*
X118783100Y-46428660D01*
X116664740Y-48547020D01*
X117005100Y-49001680D01*
X118305580Y-49537620D01*
X119712740Y-49535080D01*
X120992900Y-49001680D01*
X121333260Y-48547020D01*
X121333260Y-49679860D01*
X113581180Y-49679860D01*
X113581180Y-38986460D01*
X113581180Y-38557200D01*
X113581180Y-36446460D01*
X113581180Y-36017200D01*
X113416080Y-35618420D01*
X113113820Y-35313620D01*
X112715040Y-35148520D01*
X112285780Y-35148520D01*
X111887000Y-35313620D01*
X111833660Y-35364420D01*
X111833660Y-8282940D01*
X111803180Y-7559040D01*
X111582200Y-7033260D01*
X111305340Y-6903720D01*
X111091980Y-7117080D01*
X111091980Y-6690360D01*
X110962440Y-6413500D01*
X110281720Y-6162040D01*
X109557820Y-6192520D01*
X109032040Y-6413500D01*
X108902500Y-6690360D01*
X109997240Y-7782560D01*
X111091980Y-6690360D01*
X111091980Y-7117080D01*
X110213140Y-7998460D01*
X111305340Y-9093200D01*
X111582200Y-8963660D01*
X111833660Y-8282940D01*
X111833660Y-35364420D01*
X111582200Y-35615880D01*
X111569500Y-35646360D01*
X111569500Y-14315440D01*
X111569500Y-13690600D01*
X111330740Y-13114020D01*
X111091980Y-12872720D01*
X111091980Y-9306560D01*
X109997240Y-8214360D01*
X109781340Y-8427720D01*
X109781340Y-7998460D01*
X108689140Y-6903720D01*
X108412280Y-7033260D01*
X108160820Y-7713980D01*
X108191300Y-8437880D01*
X108412280Y-8963660D01*
X108689140Y-9093200D01*
X109781340Y-7998460D01*
X109781340Y-8427720D01*
X108902500Y-9306560D01*
X109032040Y-9583420D01*
X109712760Y-9834880D01*
X110436660Y-9804400D01*
X110962440Y-9583420D01*
X111091980Y-9306560D01*
X111091980Y-12872720D01*
X110891320Y-12672060D01*
X110314740Y-12430760D01*
X109689900Y-12430760D01*
X109113320Y-12669520D01*
X108671360Y-13108940D01*
X108430060Y-13685520D01*
X108430060Y-14310360D01*
X108668820Y-14886940D01*
X109108240Y-15328900D01*
X109684820Y-15570200D01*
X110309660Y-15570200D01*
X110886240Y-15331440D01*
X111328200Y-14892020D01*
X111569500Y-14315440D01*
X111569500Y-35646360D01*
X111467900Y-35890200D01*
X111467900Y-20452080D01*
X111467900Y-20147280D01*
X111351060Y-19865340D01*
X111135160Y-19649440D01*
X110853220Y-19532600D01*
X110548420Y-19532600D01*
X110266480Y-19649440D01*
X110050580Y-19865340D01*
X109933740Y-20147280D01*
X109933740Y-20452080D01*
X110050580Y-20734020D01*
X110266480Y-20949920D01*
X110548420Y-21066760D01*
X110853220Y-21066760D01*
X111135160Y-20949920D01*
X111351060Y-20734020D01*
X111467900Y-20452080D01*
X111467900Y-35890200D01*
X111417100Y-36014660D01*
X111417100Y-36443920D01*
X111582200Y-36842700D01*
X111884460Y-37147500D01*
X112283240Y-37312600D01*
X112712500Y-37312600D01*
X113111280Y-37147500D01*
X113416080Y-36845240D01*
X113581180Y-36446460D01*
X113581180Y-38557200D01*
X113416080Y-38158420D01*
X113113820Y-37853620D01*
X112715040Y-37688520D01*
X112285780Y-37688520D01*
X111887000Y-37853620D01*
X111582200Y-38155880D01*
X111417100Y-38554660D01*
X111417100Y-38983920D01*
X111582200Y-39382700D01*
X111884460Y-39687500D01*
X112283240Y-39852600D01*
X112712500Y-39852600D01*
X113111280Y-39687500D01*
X113416080Y-39385240D01*
X113581180Y-38986460D01*
X113581180Y-49679860D01*
X113352580Y-49679860D01*
X113352580Y-47825660D01*
X113352580Y-47698660D01*
X113352580Y-46174660D01*
X113352580Y-43825160D01*
X113352580Y-43698160D01*
X113352580Y-42174160D01*
X113304320Y-42057320D01*
X113212880Y-41965880D01*
X113096040Y-41917620D01*
X112969040Y-41917620D01*
X111445040Y-41917620D01*
X111328200Y-41965880D01*
X111236760Y-42057320D01*
X111188500Y-42174160D01*
X111188500Y-42301160D01*
X111188500Y-43825160D01*
X111236760Y-43942000D01*
X111328200Y-44033440D01*
X111445040Y-44081700D01*
X111572040Y-44081700D01*
X113096040Y-44081700D01*
X113212880Y-44033440D01*
X113304320Y-43942000D01*
X113352580Y-43825160D01*
X113352580Y-46174660D01*
X113304320Y-46057820D01*
X113212880Y-45966380D01*
X113096040Y-45918120D01*
X112969040Y-45918120D01*
X111445040Y-45918120D01*
X111328200Y-45966380D01*
X111236760Y-46057820D01*
X111188500Y-46174660D01*
X111188500Y-46301660D01*
X111188500Y-47825660D01*
X111236760Y-47942500D01*
X111328200Y-48033940D01*
X111445040Y-48082200D01*
X111572040Y-48082200D01*
X113096040Y-48082200D01*
X113212880Y-48033940D01*
X113304320Y-47942500D01*
X113352580Y-47825660D01*
X113352580Y-49679860D01*
X111089440Y-49679860D01*
X111089440Y-47167800D01*
X111089440Y-43167300D01*
X111048800Y-42636440D01*
X111041180Y-42616120D01*
X111041180Y-39596060D01*
X111041180Y-39469060D01*
X111041180Y-37945060D01*
X111041180Y-36446460D01*
X111041180Y-36017200D01*
X110876080Y-35618420D01*
X110573820Y-35313620D01*
X110175040Y-35148520D01*
X109745780Y-35148520D01*
X109374940Y-35300920D01*
X109374940Y-29215080D01*
X109374940Y-28986480D01*
X109288580Y-28775660D01*
X109126020Y-28613100D01*
X108915200Y-28526740D01*
X108686600Y-28526740D01*
X108475780Y-28613100D01*
X108313220Y-28775660D01*
X108226860Y-28986480D01*
X108226860Y-29215080D01*
X108313220Y-29425900D01*
X108475780Y-29588460D01*
X108686600Y-29674820D01*
X108915200Y-29674820D01*
X109126020Y-29588460D01*
X109288580Y-29425900D01*
X109374940Y-29215080D01*
X109374940Y-35300920D01*
X109347000Y-35313620D01*
X109075220Y-35582860D01*
X109075220Y-33815020D01*
X109075220Y-33586420D01*
X108988860Y-33375600D01*
X108826300Y-33213040D01*
X108615480Y-33126680D01*
X108386880Y-33126680D01*
X108176060Y-33213040D01*
X108013500Y-33375600D01*
X107927140Y-33586420D01*
X107927140Y-33815020D01*
X108013500Y-34025840D01*
X108176060Y-34188400D01*
X108386880Y-34274760D01*
X108615480Y-34274760D01*
X108826300Y-34188400D01*
X108988860Y-34025840D01*
X109075220Y-33815020D01*
X109075220Y-35582860D01*
X109042200Y-35615880D01*
X108877100Y-36014660D01*
X108877100Y-36443920D01*
X109042200Y-36842700D01*
X109344460Y-37147500D01*
X109743240Y-37312600D01*
X110172500Y-37312600D01*
X110571280Y-37147500D01*
X110876080Y-36845240D01*
X111041180Y-36446460D01*
X111041180Y-37945060D01*
X110992920Y-37828220D01*
X110901480Y-37736780D01*
X110784640Y-37688520D01*
X110657640Y-37688520D01*
X109133640Y-37688520D01*
X109016800Y-37736780D01*
X108925360Y-37828220D01*
X108877100Y-37945060D01*
X108877100Y-38072060D01*
X108877100Y-39596060D01*
X108925360Y-39712900D01*
X109016800Y-39804340D01*
X109133640Y-39852600D01*
X109260640Y-39852600D01*
X110784640Y-39852600D01*
X110901480Y-39804340D01*
X110992920Y-39712900D01*
X111041180Y-39596060D01*
X111041180Y-42616120D01*
X110919260Y-42324020D01*
X110693200Y-42252900D01*
X110477300Y-42468800D01*
X110477300Y-42037000D01*
X110406180Y-41810940D01*
X109898180Y-41640760D01*
X109367320Y-41681400D01*
X109054900Y-41810940D01*
X108983780Y-42037000D01*
X109730540Y-42783760D01*
X110477300Y-42037000D01*
X110477300Y-42468800D01*
X109946440Y-42999660D01*
X110693200Y-43746420D01*
X110919260Y-43675300D01*
X111089440Y-43167300D01*
X111089440Y-47167800D01*
X111048800Y-46636940D01*
X110919260Y-46324520D01*
X110693200Y-46253400D01*
X110477300Y-46469300D01*
X110477300Y-46037500D01*
X110477300Y-43962320D01*
X109730540Y-43215560D01*
X109514640Y-43431460D01*
X109514640Y-42999660D01*
X108767880Y-42252900D01*
X108541820Y-42324020D01*
X108371640Y-42832020D01*
X108412280Y-43362880D01*
X108541820Y-43675300D01*
X108767880Y-43746420D01*
X109514640Y-42999660D01*
X109514640Y-43431460D01*
X108983780Y-43962320D01*
X109054900Y-44188380D01*
X109562900Y-44358560D01*
X110093760Y-44317920D01*
X110406180Y-44188380D01*
X110477300Y-43962320D01*
X110477300Y-46037500D01*
X110406180Y-45811440D01*
X109898180Y-45641260D01*
X109367320Y-45681900D01*
X109054900Y-45811440D01*
X108983780Y-46037500D01*
X109730540Y-46784260D01*
X110477300Y-46037500D01*
X110477300Y-46469300D01*
X109946440Y-47000160D01*
X110693200Y-47746920D01*
X110919260Y-47675800D01*
X111089440Y-47167800D01*
X111089440Y-49679860D01*
X110477300Y-49679860D01*
X110477300Y-47962820D01*
X109730540Y-47216060D01*
X109514640Y-47431960D01*
X109514640Y-47000160D01*
X108767880Y-46253400D01*
X108541820Y-46324520D01*
X108371640Y-46832520D01*
X108412280Y-47363380D01*
X108541820Y-47675800D01*
X108767880Y-47746920D01*
X109514640Y-47000160D01*
X109514640Y-47431960D01*
X108983780Y-47962820D01*
X109054900Y-48188880D01*
X109562900Y-48359060D01*
X110093760Y-48318420D01*
X110406180Y-48188880D01*
X110477300Y-47962820D01*
X110477300Y-49679860D01*
X107767120Y-49679860D01*
X107767120Y-22151340D01*
X107767120Y-21846540D01*
X107650280Y-21564600D01*
X107434380Y-21348700D01*
X107368340Y-21320760D01*
X107368340Y-11315700D01*
X107368340Y-10690860D01*
X107129580Y-10114280D01*
X106690160Y-9672320D01*
X106113580Y-9431020D01*
X105488740Y-9431020D01*
X104912160Y-9669780D01*
X104470200Y-10109200D01*
X104228900Y-10685780D01*
X104228900Y-11310620D01*
X104467660Y-11887200D01*
X104907080Y-12329160D01*
X105483660Y-12570460D01*
X106108500Y-12570460D01*
X106685080Y-12331700D01*
X107127040Y-11892280D01*
X107368340Y-11315700D01*
X107368340Y-21320760D01*
X107152440Y-21231860D01*
X106847640Y-21231860D01*
X106565700Y-21348700D01*
X106349800Y-21564600D01*
X106232960Y-21846540D01*
X106232960Y-22151340D01*
X106349800Y-22433280D01*
X106565700Y-22649180D01*
X106847640Y-22766020D01*
X107152440Y-22766020D01*
X107434380Y-22649180D01*
X107650280Y-22433280D01*
X107767120Y-22151340D01*
X107767120Y-49679860D01*
X106304080Y-49679860D01*
X106304080Y-29502100D01*
X106304080Y-28897580D01*
X106301540Y-26118820D01*
X106301540Y-25877520D01*
X106210100Y-25656540D01*
X106039920Y-25486360D01*
X105816400Y-25394920D01*
X103301800Y-25392380D01*
X103151940Y-25542240D01*
X103151940Y-29047440D01*
X106154220Y-29047440D01*
X106304080Y-28897580D01*
X106304080Y-29502100D01*
X106154220Y-29352240D01*
X103151940Y-29352240D01*
X103151940Y-32857440D01*
X103301800Y-33007300D01*
X105816400Y-33004760D01*
X106039920Y-32913320D01*
X106210100Y-32743140D01*
X106301540Y-32522160D01*
X106301540Y-32280860D01*
X106304080Y-29502100D01*
X106304080Y-49679860D01*
X105597960Y-49679860D01*
X105597960Y-43599100D01*
X105597960Y-38399720D01*
X102847140Y-38399720D01*
X102847140Y-32857440D01*
X102847140Y-29352240D01*
X102847140Y-29047440D01*
X102847140Y-25542240D01*
X102765860Y-25460960D01*
X102765860Y-23451820D01*
X102765860Y-23147020D01*
X102765860Y-21851620D01*
X102765860Y-21546820D01*
X102649020Y-21264880D01*
X102433120Y-21048980D01*
X102151180Y-20932140D01*
X101846380Y-20932140D01*
X101564440Y-21048980D01*
X101467920Y-21145500D01*
X101467920Y-20353020D01*
X101467920Y-20048220D01*
X101351080Y-19766280D01*
X101216460Y-19631660D01*
X101216460Y-4782820D01*
X101216460Y-4218940D01*
X101000560Y-3698240D01*
X100601780Y-3299460D01*
X100081080Y-3083560D01*
X99517200Y-3083560D01*
X98996500Y-3299460D01*
X98597720Y-3698240D01*
X98450400Y-4046220D01*
X98450400Y-3957320D01*
X98117660Y-3152140D01*
X97774760Y-2941320D01*
X97558860Y-3157220D01*
X97558860Y-2725420D01*
X97348040Y-2382520D01*
X96436180Y-2026920D01*
X95455740Y-2049780D01*
X94650560Y-2382520D01*
X94439740Y-2725420D01*
X95999300Y-4284980D01*
X97558860Y-2725420D01*
X97558860Y-3157220D01*
X96215200Y-4500880D01*
X97774760Y-6060440D01*
X98117660Y-5849620D01*
X98458020Y-4970780D01*
X98597720Y-5303520D01*
X98996500Y-5702300D01*
X99517200Y-5918200D01*
X100081080Y-5918200D01*
X100601780Y-5702300D01*
X101000560Y-5303520D01*
X101216460Y-4782820D01*
X101216460Y-19631660D01*
X101135180Y-19550380D01*
X100853240Y-19433540D01*
X100548440Y-19433540D01*
X100266500Y-19550380D01*
X100050600Y-19766280D01*
X99933760Y-20048220D01*
X99933760Y-20353020D01*
X100050600Y-20634960D01*
X100266500Y-20850860D01*
X100548440Y-20967700D01*
X100853240Y-20967700D01*
X101135180Y-20850860D01*
X101351080Y-20634960D01*
X101467920Y-20353020D01*
X101467920Y-21145500D01*
X101348540Y-21264880D01*
X101231700Y-21546820D01*
X101231700Y-21851620D01*
X101348540Y-22133560D01*
X101564440Y-22349460D01*
X101846380Y-22466300D01*
X102151180Y-22466300D01*
X102433120Y-22349460D01*
X102649020Y-22133560D01*
X102765860Y-21851620D01*
X102765860Y-23147020D01*
X102649020Y-22865080D01*
X102433120Y-22649180D01*
X102151180Y-22532340D01*
X101846380Y-22532340D01*
X101564440Y-22649180D01*
X101348540Y-22862540D01*
X101135180Y-22649180D01*
X100853240Y-22532340D01*
X100548440Y-22532340D01*
X100266500Y-22649180D01*
X100266500Y-21851620D01*
X100266500Y-21546820D01*
X100149660Y-21264880D01*
X99933760Y-21048980D01*
X99651820Y-20932140D01*
X99347020Y-20932140D01*
X99065080Y-21048980D01*
X98849180Y-21264880D01*
X98732340Y-21546820D01*
X98732340Y-21851620D01*
X98849180Y-22133560D01*
X99065080Y-22349460D01*
X99347020Y-22466300D01*
X99651820Y-22466300D01*
X99933760Y-22349460D01*
X100149660Y-22133560D01*
X100266500Y-21851620D01*
X100266500Y-22649180D01*
X100050600Y-22865080D01*
X99933760Y-23147020D01*
X99933760Y-23451820D01*
X100050600Y-23733760D01*
X100266500Y-23949660D01*
X100548440Y-24066500D01*
X100853240Y-24066500D01*
X101135180Y-23949660D01*
X101348540Y-23733760D01*
X101564440Y-23949660D01*
X101846380Y-24066500D01*
X102151180Y-24066500D01*
X102433120Y-23949660D01*
X102649020Y-23733760D01*
X102765860Y-23451820D01*
X102765860Y-25460960D01*
X102697280Y-25392380D01*
X100182680Y-25394920D01*
X99959160Y-25486360D01*
X99788980Y-25656540D01*
X99697540Y-25877520D01*
X99697540Y-26118820D01*
X99695000Y-28897580D01*
X99844860Y-29047440D01*
X102847140Y-29047440D01*
X102847140Y-29352240D01*
X99844860Y-29352240D01*
X99695000Y-29502100D01*
X99697540Y-32280860D01*
X99697540Y-32522160D01*
X99788980Y-32743140D01*
X99959160Y-32913320D01*
X100182680Y-33004760D01*
X102697280Y-33007300D01*
X102847140Y-32857440D01*
X102847140Y-38399720D01*
X99466400Y-38399720D01*
X99466400Y-26451560D01*
X99466400Y-26146760D01*
X99349560Y-25864820D01*
X99133660Y-25648920D01*
X98851720Y-25532080D01*
X98546920Y-25532080D01*
X98264980Y-25648920D01*
X98224340Y-25689560D01*
X98224340Y-14945360D01*
X98224340Y-14061440D01*
X97886520Y-13243560D01*
X97558860Y-12913360D01*
X97558860Y-6276340D01*
X95999300Y-4716780D01*
X95783400Y-4932680D01*
X95783400Y-4500880D01*
X94223840Y-2941320D01*
X93880940Y-3152140D01*
X93538040Y-4028440D01*
X93400880Y-3698240D01*
X93002100Y-3299460D01*
X92481400Y-3083560D01*
X91917520Y-3083560D01*
X91396820Y-3299460D01*
X90998040Y-3698240D01*
X90782140Y-4218940D01*
X90782140Y-4782820D01*
X90998040Y-5303520D01*
X91396820Y-5702300D01*
X91917520Y-5918200D01*
X92481400Y-5918200D01*
X93002100Y-5702300D01*
X93400880Y-5303520D01*
X93545660Y-4953000D01*
X93548200Y-5044440D01*
X93880940Y-5849620D01*
X94223840Y-6060440D01*
X95783400Y-4500880D01*
X95783400Y-4932680D01*
X94439740Y-6276340D01*
X94650560Y-6619240D01*
X95562420Y-6974840D01*
X96542860Y-6951980D01*
X97348040Y-6619240D01*
X97558860Y-6276340D01*
X97558860Y-12913360D01*
X97416620Y-12771120D01*
X97416620Y-10982960D01*
X97416620Y-10419080D01*
X97200720Y-9898380D01*
X96801940Y-9499600D01*
X96281240Y-9283700D01*
X95717360Y-9283700D01*
X95196660Y-9499600D01*
X94797880Y-9898380D01*
X94581980Y-10419080D01*
X94581980Y-10982960D01*
X94797880Y-11503660D01*
X95196660Y-11902440D01*
X95717360Y-12118340D01*
X96281240Y-12118340D01*
X96801940Y-11902440D01*
X97200720Y-11503660D01*
X97416620Y-10982960D01*
X97416620Y-12771120D01*
X97261680Y-12616180D01*
X96443800Y-12275820D01*
X95559880Y-12275820D01*
X94742000Y-12613640D01*
X94114620Y-13238480D01*
X93774260Y-14056360D01*
X93774260Y-14940280D01*
X94112080Y-15758160D01*
X94736920Y-16385540D01*
X95554800Y-16725900D01*
X96438720Y-16725900D01*
X97256600Y-16388080D01*
X97883980Y-15763240D01*
X98224340Y-14945360D01*
X98224340Y-25689560D01*
X98049080Y-25864820D01*
X97932240Y-26146760D01*
X97932240Y-26451560D01*
X98049080Y-26733500D01*
X98264980Y-26949400D01*
X98546920Y-27066240D01*
X98851720Y-27066240D01*
X99133660Y-26949400D01*
X99349560Y-26733500D01*
X99466400Y-26451560D01*
X99466400Y-38399720D01*
X98366580Y-38399720D01*
X98366580Y-29651960D01*
X98366580Y-29347160D01*
X98249740Y-29065220D01*
X98033840Y-28849320D01*
X97751900Y-28732480D01*
X97447100Y-28732480D01*
X97165160Y-28849320D01*
X96949260Y-29065220D01*
X96832420Y-29347160D01*
X96832420Y-29651960D01*
X96949260Y-29933900D01*
X97165160Y-30149800D01*
X97447100Y-30266640D01*
X97751900Y-30266640D01*
X98033840Y-30149800D01*
X98249740Y-29933900D01*
X98366580Y-29651960D01*
X98366580Y-38399720D01*
X97401380Y-38399720D01*
X97401380Y-43599100D01*
X102118160Y-43599100D01*
X101950520Y-43766740D01*
X101833680Y-44048680D01*
X101833680Y-44353480D01*
X101950520Y-44635420D01*
X102166420Y-44851320D01*
X102448360Y-44968160D01*
X102753160Y-44968160D01*
X103035100Y-44851320D01*
X103251000Y-44635420D01*
X103367840Y-44353480D01*
X103367840Y-44066460D01*
X103652320Y-44066460D01*
X103934260Y-43949620D01*
X104150160Y-43733720D01*
X104203500Y-43599100D01*
X105597960Y-43599100D01*
X105597960Y-49679860D01*
X96766380Y-49679860D01*
X96766380Y-29651960D01*
X96766380Y-29347160D01*
X96649540Y-29065220D01*
X96433640Y-28849320D01*
X96151700Y-28732480D01*
X95846900Y-28732480D01*
X95564960Y-28849320D01*
X95349060Y-29065220D01*
X95133160Y-28849320D01*
X94851220Y-28732480D01*
X94546420Y-28732480D01*
X94264480Y-28849320D01*
X94048580Y-29065220D01*
X93931740Y-29347160D01*
X93931740Y-29651960D01*
X94048580Y-29933900D01*
X94264480Y-30149800D01*
X94546420Y-30266640D01*
X94851220Y-30266640D01*
X95133160Y-30149800D01*
X95349060Y-29933900D01*
X95564960Y-30149800D01*
X95846900Y-30266640D01*
X96151700Y-30266640D01*
X96433640Y-30149800D01*
X96649540Y-29933900D01*
X96766380Y-29651960D01*
X96766380Y-49679860D01*
X94668340Y-49679860D01*
X94668340Y-48851820D01*
X94668340Y-48547020D01*
X94551500Y-48265080D01*
X94335600Y-48049180D01*
X94053660Y-47932340D01*
X93748860Y-47932340D01*
X93466920Y-48049180D01*
X93251020Y-48265080D01*
X93225620Y-48239680D01*
X93225620Y-13195300D01*
X93225620Y-12311380D01*
X92887800Y-11493500D01*
X92262960Y-10866120D01*
X91445080Y-10525760D01*
X90561160Y-10525760D01*
X89743280Y-10863580D01*
X89115900Y-11488420D01*
X88775540Y-12306300D01*
X88775540Y-13190220D01*
X89113360Y-14008100D01*
X89738200Y-14635480D01*
X90556080Y-14975840D01*
X91440000Y-14975840D01*
X92257880Y-14638020D01*
X92885260Y-14013180D01*
X93225620Y-13195300D01*
X93225620Y-48239680D01*
X93035120Y-48049180D01*
X92753180Y-47932340D01*
X92448380Y-47932340D01*
X92166440Y-48049180D01*
X91950540Y-48265080D01*
X91848940Y-48506380D01*
X91749880Y-48265080D01*
X91533980Y-48049180D01*
X91252040Y-47932340D01*
X90947240Y-47932340D01*
X90665300Y-48049180D01*
X90449400Y-48265080D01*
X90332560Y-48547020D01*
X90332560Y-48851820D01*
X90449400Y-49133760D01*
X90665300Y-49349660D01*
X90947240Y-49466500D01*
X91252040Y-49466500D01*
X91533980Y-49349660D01*
X91749880Y-49133760D01*
X91848940Y-48889920D01*
X91950540Y-49133760D01*
X92166440Y-49349660D01*
X92448380Y-49466500D01*
X92753180Y-49466500D01*
X93035120Y-49349660D01*
X93251020Y-49133760D01*
X93466920Y-49349660D01*
X93748860Y-49466500D01*
X94053660Y-49466500D01*
X94335600Y-49349660D01*
X94551500Y-49133760D01*
X94668340Y-48851820D01*
X94668340Y-49679860D01*
X89867740Y-49679860D01*
X89867740Y-41953180D01*
X89867740Y-41648380D01*
X89750900Y-41366440D01*
X89535000Y-41150540D01*
X89750900Y-40934640D01*
X89867740Y-40652700D01*
X89867740Y-40347900D01*
X89750900Y-40065960D01*
X89535000Y-39850060D01*
X89253060Y-39733220D01*
X88948260Y-39733220D01*
X88666320Y-39850060D01*
X88450420Y-40065960D01*
X88333580Y-40347900D01*
X88333580Y-40652700D01*
X88450420Y-40934640D01*
X88666320Y-41150540D01*
X88450420Y-41366440D01*
X88333580Y-41648380D01*
X88333580Y-41953180D01*
X88450420Y-42235120D01*
X88666320Y-42451020D01*
X88948260Y-42567860D01*
X89253060Y-42567860D01*
X89535000Y-42451020D01*
X89750900Y-42235120D01*
X89867740Y-41953180D01*
X89867740Y-49679860D01*
X84775040Y-49679860D01*
X84775040Y-18514060D01*
X84775040Y-18285460D01*
X84688680Y-18074640D01*
X84526120Y-17912080D01*
X84315300Y-17825720D01*
X84216240Y-17825720D01*
X84216240Y-4782820D01*
X84216240Y-4218940D01*
X84000340Y-3698240D01*
X83601560Y-3299460D01*
X83080860Y-3083560D01*
X82516980Y-3083560D01*
X81996280Y-3299460D01*
X81597500Y-3698240D01*
X81450180Y-4046220D01*
X81450180Y-3957320D01*
X81117440Y-3152140D01*
X80774540Y-2941320D01*
X80558640Y-3157220D01*
X80558640Y-2725420D01*
X80347820Y-2382520D01*
X79435960Y-2026920D01*
X78455520Y-2049780D01*
X77650340Y-2382520D01*
X77439520Y-2725420D01*
X78999080Y-4284980D01*
X80558640Y-2725420D01*
X80558640Y-3157220D01*
X79214980Y-4500880D01*
X80774540Y-6060440D01*
X81117440Y-5849620D01*
X81457800Y-4970780D01*
X81597500Y-5303520D01*
X81996280Y-5702300D01*
X82516980Y-5918200D01*
X83080860Y-5918200D01*
X83601560Y-5702300D01*
X84000340Y-5303520D01*
X84216240Y-4782820D01*
X84216240Y-17825720D01*
X84086700Y-17825720D01*
X83875880Y-17912080D01*
X83713320Y-18074640D01*
X83626960Y-18285460D01*
X83626960Y-18514060D01*
X83713320Y-18724880D01*
X83875880Y-18887440D01*
X84086700Y-18973800D01*
X84315300Y-18973800D01*
X84526120Y-18887440D01*
X84688680Y-18724880D01*
X84775040Y-18514060D01*
X84775040Y-49679860D01*
X84719160Y-49679860D01*
X84719160Y-44983400D01*
X84719160Y-44617640D01*
X84719160Y-39984680D01*
X84719160Y-39618920D01*
X84579460Y-39281100D01*
X84320380Y-39022020D01*
X83982560Y-38882320D01*
X83616800Y-38882320D01*
X83278980Y-39022020D01*
X83019900Y-39281100D01*
X82880200Y-39618920D01*
X82880200Y-39984680D01*
X83019900Y-40322500D01*
X83278980Y-40581580D01*
X83616800Y-40721280D01*
X83982560Y-40721280D01*
X84320380Y-40581580D01*
X84579460Y-40322500D01*
X84719160Y-39984680D01*
X84719160Y-44617640D01*
X84579460Y-44279820D01*
X84320380Y-44020740D01*
X83982560Y-43881040D01*
X83616800Y-43881040D01*
X83278980Y-44020740D01*
X83019900Y-44279820D01*
X82880200Y-44617640D01*
X82880200Y-44983400D01*
X83019900Y-45321220D01*
X83278980Y-45580300D01*
X83616800Y-45720000D01*
X83982560Y-45720000D01*
X84320380Y-45580300D01*
X84579460Y-45321220D01*
X84719160Y-44983400D01*
X84719160Y-49679860D01*
X81224120Y-49679860D01*
X81224120Y-14945360D01*
X81224120Y-14061440D01*
X80886300Y-13243560D01*
X80558640Y-12913360D01*
X80558640Y-6276340D01*
X78999080Y-4716780D01*
X78783180Y-4932680D01*
X78783180Y-4500880D01*
X77223620Y-2941320D01*
X76880720Y-3152140D01*
X76537820Y-4028440D01*
X76400660Y-3698240D01*
X76001880Y-3299460D01*
X75481180Y-3083560D01*
X74917300Y-3083560D01*
X74396600Y-3299460D01*
X73997820Y-3698240D01*
X73781920Y-4218940D01*
X73781920Y-4782820D01*
X73997820Y-5303520D01*
X74396600Y-5702300D01*
X74917300Y-5918200D01*
X75481180Y-5918200D01*
X76001880Y-5702300D01*
X76400660Y-5303520D01*
X76545440Y-4953000D01*
X76547980Y-5044440D01*
X76880720Y-5849620D01*
X77223620Y-6060440D01*
X78783180Y-4500880D01*
X78783180Y-4932680D01*
X77439520Y-6276340D01*
X77650340Y-6619240D01*
X78562200Y-6974840D01*
X79542640Y-6951980D01*
X80347820Y-6619240D01*
X80558640Y-6276340D01*
X80558640Y-12913360D01*
X80416400Y-12771120D01*
X80416400Y-10982960D01*
X80416400Y-10419080D01*
X80200500Y-9898380D01*
X79801720Y-9499600D01*
X79281020Y-9283700D01*
X78717140Y-9283700D01*
X78196440Y-9499600D01*
X77797660Y-9898380D01*
X77581760Y-10419080D01*
X77581760Y-10982960D01*
X77797660Y-11503660D01*
X78196440Y-11902440D01*
X78717140Y-12118340D01*
X79281020Y-12118340D01*
X79801720Y-11902440D01*
X80200500Y-11503660D01*
X80416400Y-10982960D01*
X80416400Y-12771120D01*
X80261460Y-12616180D01*
X79443580Y-12275820D01*
X78559660Y-12275820D01*
X77741780Y-12613640D01*
X77114400Y-13238480D01*
X76774040Y-14056360D01*
X76774040Y-14940280D01*
X77111860Y-15758160D01*
X77736700Y-16385540D01*
X78554580Y-16725900D01*
X79438500Y-16725900D01*
X80256380Y-16388080D01*
X80883760Y-15763240D01*
X81224120Y-14945360D01*
X81224120Y-49679860D01*
X80566260Y-49679860D01*
X80566260Y-39052500D01*
X80566260Y-38747700D01*
X80449420Y-38465760D01*
X80233520Y-38249860D01*
X79951580Y-38133020D01*
X79646780Y-38133020D01*
X79364840Y-38249860D01*
X79148940Y-38465760D01*
X79032100Y-38747700D01*
X79032100Y-39052500D01*
X79148940Y-39334440D01*
X79364840Y-39550340D01*
X79646780Y-39667180D01*
X79951580Y-39667180D01*
X80233520Y-39550340D01*
X80449420Y-39334440D01*
X80566260Y-39052500D01*
X80566260Y-49679860D01*
X77172820Y-49679860D01*
X77172820Y-27315160D01*
X77172820Y-27086560D01*
X77172820Y-24813260D01*
X77172820Y-24584660D01*
X77172820Y-20914360D01*
X77172820Y-20685760D01*
X77086460Y-20474940D01*
X76923900Y-20312380D01*
X76713080Y-20226020D01*
X76484480Y-20226020D01*
X76273660Y-20312380D01*
X76225400Y-20360640D01*
X76225400Y-13195300D01*
X76225400Y-12311380D01*
X75887580Y-11493500D01*
X75262740Y-10866120D01*
X74444860Y-10525760D01*
X73560940Y-10525760D01*
X72743060Y-10863580D01*
X72115680Y-11488420D01*
X71775320Y-12306300D01*
X71775320Y-13190220D01*
X72113140Y-14008100D01*
X72737980Y-14635480D01*
X73555860Y-14975840D01*
X74439780Y-14975840D01*
X75257660Y-14638020D01*
X75885040Y-14013180D01*
X76225400Y-13195300D01*
X76225400Y-20360640D01*
X76111100Y-20474940D01*
X76024740Y-20685760D01*
X76024740Y-20914360D01*
X76111100Y-21125180D01*
X76273660Y-21287740D01*
X76484480Y-21374100D01*
X76713080Y-21374100D01*
X76923900Y-21287740D01*
X77086460Y-21125180D01*
X77172820Y-20914360D01*
X77172820Y-24584660D01*
X77086460Y-24373840D01*
X76923900Y-24211280D01*
X76713080Y-24124920D01*
X76484480Y-24124920D01*
X76273660Y-24211280D01*
X76111100Y-24373840D01*
X76024740Y-24584660D01*
X76024740Y-24813260D01*
X76111100Y-25024080D01*
X76273660Y-25186640D01*
X76484480Y-25273000D01*
X76713080Y-25273000D01*
X76923900Y-25186640D01*
X77086460Y-25024080D01*
X77172820Y-24813260D01*
X77172820Y-27086560D01*
X77086460Y-26875740D01*
X76923900Y-26713180D01*
X76713080Y-26626820D01*
X76484480Y-26626820D01*
X76273660Y-26713180D01*
X76111100Y-26875740D01*
X76024740Y-27086560D01*
X76024740Y-27315160D01*
X76111100Y-27525980D01*
X76273660Y-27688540D01*
X76484480Y-27774900D01*
X76713080Y-27774900D01*
X76923900Y-27688540D01*
X77086460Y-27525980D01*
X77172820Y-27315160D01*
X77172820Y-49679860D01*
X68267580Y-49679860D01*
X68267580Y-4254500D01*
X68267580Y-3751580D01*
X68074540Y-3286760D01*
X67718940Y-2928620D01*
X67251580Y-2735580D01*
X66748660Y-2735580D01*
X66283840Y-2928620D01*
X65925700Y-3284220D01*
X65732660Y-3751580D01*
X65732660Y-4254500D01*
X65925700Y-4719320D01*
X66281300Y-5077460D01*
X66748660Y-5270500D01*
X67251580Y-5270500D01*
X67716400Y-5077460D01*
X68074540Y-4721860D01*
X68267580Y-4254500D01*
X68267580Y-49679860D01*
X67767200Y-49679860D01*
X67767200Y-11752580D01*
X67767200Y-11249660D01*
X67574160Y-10784840D01*
X67365880Y-10574020D01*
X67365880Y-7675880D01*
X67365880Y-7330440D01*
X67233800Y-7012940D01*
X66989960Y-6769100D01*
X66672460Y-6637020D01*
X66327020Y-6637020D01*
X66009520Y-6769100D01*
X65765680Y-7012940D01*
X65633600Y-7330440D01*
X65633600Y-7675880D01*
X65765680Y-7993380D01*
X66009520Y-8237220D01*
X66327020Y-8369300D01*
X66672460Y-8369300D01*
X66989960Y-8237220D01*
X67233800Y-7993380D01*
X67365880Y-7675880D01*
X67365880Y-10574020D01*
X67218560Y-10426700D01*
X66751200Y-10233660D01*
X66248280Y-10233660D01*
X65783460Y-10426700D01*
X65425320Y-10782300D01*
X65232280Y-11249660D01*
X65232280Y-11752580D01*
X65425320Y-12217400D01*
X65780920Y-12575540D01*
X66248280Y-12768580D01*
X66751200Y-12768580D01*
X67216020Y-12575540D01*
X67574160Y-12219940D01*
X67767200Y-11752580D01*
X67767200Y-49679860D01*
X66873120Y-49679860D01*
X66873120Y-26014680D01*
X66873120Y-25786080D01*
X66786760Y-25575260D01*
X66624200Y-25412700D01*
X66573400Y-25389840D01*
X66573400Y-21115020D01*
X66573400Y-20886420D01*
X66487040Y-20675600D01*
X66324480Y-20513040D01*
X66113660Y-20426680D01*
X65885060Y-20426680D01*
X65674240Y-20513040D01*
X65511680Y-20675600D01*
X65425320Y-20886420D01*
X65425320Y-21115020D01*
X65511680Y-21325840D01*
X65674240Y-21488400D01*
X65885060Y-21574760D01*
X66113660Y-21574760D01*
X66324480Y-21488400D01*
X66487040Y-21325840D01*
X66573400Y-21115020D01*
X66573400Y-25389840D01*
X66413380Y-25326340D01*
X66184780Y-25326340D01*
X65973960Y-25412700D01*
X65811400Y-25575260D01*
X65725040Y-25786080D01*
X65725040Y-26014680D01*
X65811400Y-26225500D01*
X65973960Y-26388060D01*
X66184780Y-26474420D01*
X66413380Y-26474420D01*
X66624200Y-26388060D01*
X66786760Y-26225500D01*
X66873120Y-26014680D01*
X66873120Y-49679860D01*
X66520060Y-49679860D01*
X66520060Y-44983400D01*
X66520060Y-44617640D01*
X66520060Y-39984680D01*
X66520060Y-39618920D01*
X66380360Y-39281100D01*
X66121280Y-39022020D01*
X65783460Y-38882320D01*
X65417700Y-38882320D01*
X65374520Y-38900100D01*
X65374520Y-30614620D01*
X65374520Y-30386020D01*
X65371980Y-30378400D01*
X65371980Y-16593820D01*
X65371980Y-16207740D01*
X65224660Y-15852140D01*
X64950340Y-15577820D01*
X64594740Y-15430500D01*
X64208660Y-15430500D01*
X63853060Y-15577820D01*
X63578740Y-15852140D01*
X63431420Y-16207740D01*
X63431420Y-16593820D01*
X63578740Y-16949420D01*
X63853060Y-17223740D01*
X64208660Y-17371060D01*
X64594740Y-17371060D01*
X64950340Y-17223740D01*
X65224660Y-16949420D01*
X65371980Y-16593820D01*
X65371980Y-30378400D01*
X65288160Y-30175200D01*
X65125600Y-30012640D01*
X64914780Y-29926280D01*
X64686180Y-29926280D01*
X64475360Y-30012640D01*
X64312800Y-30175200D01*
X64226440Y-30386020D01*
X64226440Y-30614620D01*
X64312800Y-30825440D01*
X64475360Y-30988000D01*
X64686180Y-31074360D01*
X64914780Y-31074360D01*
X65125600Y-30988000D01*
X65288160Y-30825440D01*
X65374520Y-30614620D01*
X65374520Y-38900100D01*
X65079880Y-39022020D01*
X64820800Y-39281100D01*
X64681100Y-39618920D01*
X64681100Y-39984680D01*
X64820800Y-40322500D01*
X65079880Y-40581580D01*
X65417700Y-40721280D01*
X65783460Y-40721280D01*
X66121280Y-40581580D01*
X66380360Y-40322500D01*
X66520060Y-39984680D01*
X66520060Y-44617640D01*
X66380360Y-44279820D01*
X66121280Y-44020740D01*
X65783460Y-43881040D01*
X65417700Y-43881040D01*
X65079880Y-44020740D01*
X64820800Y-44279820D01*
X64681100Y-44617640D01*
X64681100Y-44983400D01*
X64820800Y-45321220D01*
X65079880Y-45580300D01*
X65417700Y-45720000D01*
X65783460Y-45720000D01*
X66121280Y-45580300D01*
X66380360Y-45321220D01*
X66520060Y-44983400D01*
X66520060Y-49679860D01*
X63370460Y-49679860D01*
X63370460Y-16593820D01*
X63370460Y-16207740D01*
X63223140Y-15852140D01*
X63042800Y-15671800D01*
X63042800Y-11714480D01*
X63007240Y-11107420D01*
X62844680Y-10713720D01*
X62595760Y-10622280D01*
X62379860Y-10838180D01*
X62379860Y-10406380D01*
X62367160Y-10370820D01*
X62367160Y-7675880D01*
X62367160Y-7330440D01*
X62268100Y-7091680D01*
X62268100Y-4254500D01*
X62268100Y-3751580D01*
X62075060Y-3286760D01*
X61719460Y-2928620D01*
X61252100Y-2735580D01*
X60749180Y-2735580D01*
X60284360Y-2928620D01*
X59926220Y-3284220D01*
X59733180Y-3751580D01*
X59733180Y-4254500D01*
X59926220Y-4719320D01*
X60281820Y-5077460D01*
X60749180Y-5270500D01*
X61252100Y-5270500D01*
X61716920Y-5077460D01*
X62075060Y-4721860D01*
X62268100Y-4254500D01*
X62268100Y-7091680D01*
X62235080Y-7012940D01*
X61991240Y-6769100D01*
X61673740Y-6637020D01*
X61328300Y-6637020D01*
X61010800Y-6769100D01*
X60766960Y-7012940D01*
X60634880Y-7330440D01*
X60634880Y-7675880D01*
X60766960Y-7993380D01*
X61010800Y-8237220D01*
X61328300Y-8369300D01*
X61673740Y-8369300D01*
X61991240Y-8237220D01*
X62235080Y-7993380D01*
X62367160Y-7675880D01*
X62367160Y-10370820D01*
X62288420Y-10157460D01*
X61714380Y-9959340D01*
X61107320Y-9994900D01*
X60713620Y-10157460D01*
X60622180Y-10406380D01*
X61501020Y-11285220D01*
X62379860Y-10406380D01*
X62379860Y-10838180D01*
X61716920Y-11501120D01*
X62595760Y-12379960D01*
X62844680Y-12288520D01*
X63042800Y-11714480D01*
X63042800Y-15671800D01*
X62948820Y-15577820D01*
X62593220Y-15430500D01*
X62379860Y-15430500D01*
X62379860Y-12595860D01*
X61501020Y-11717020D01*
X61285120Y-11932920D01*
X61285120Y-11501120D01*
X60406280Y-10622280D01*
X60157360Y-10713720D01*
X59959240Y-11287760D01*
X59994800Y-11894820D01*
X60157360Y-12288520D01*
X60406280Y-12379960D01*
X61285120Y-11501120D01*
X61285120Y-11932920D01*
X60622180Y-12595860D01*
X60713620Y-12844780D01*
X61287660Y-13042900D01*
X61894720Y-13007340D01*
X62288420Y-12844780D01*
X62379860Y-12595860D01*
X62379860Y-15430500D01*
X62207140Y-15430500D01*
X61851540Y-15577820D01*
X61577220Y-15852140D01*
X61429900Y-16207740D01*
X61429900Y-16593820D01*
X61577220Y-16949420D01*
X61851540Y-17223740D01*
X62207140Y-17371060D01*
X62593220Y-17371060D01*
X62948820Y-17223740D01*
X63223140Y-16949420D01*
X63370460Y-16593820D01*
X63370460Y-49679860D01*
X62273180Y-49679860D01*
X62273180Y-23614380D01*
X62273180Y-23385780D01*
X62186820Y-23174960D01*
X62062360Y-23050500D01*
X62186820Y-22926040D01*
X62273180Y-22715220D01*
X62273180Y-22486620D01*
X62186820Y-22275800D01*
X62110620Y-22199600D01*
X62186820Y-22125940D01*
X62273180Y-21915120D01*
X62273180Y-21686520D01*
X62273180Y-20314920D01*
X62273180Y-20086320D01*
X62186820Y-19875500D01*
X62059820Y-19748500D01*
X62186820Y-19624040D01*
X62273180Y-19413220D01*
X62273180Y-19184620D01*
X62186820Y-18973800D01*
X62024260Y-18811240D01*
X61813440Y-18724880D01*
X61584840Y-18724880D01*
X61374020Y-18811240D01*
X61211460Y-18973800D01*
X61125100Y-19184620D01*
X61125100Y-19413220D01*
X61211460Y-19624040D01*
X61335920Y-19748500D01*
X61211460Y-19875500D01*
X61125100Y-20086320D01*
X61125100Y-20314920D01*
X61211460Y-20525740D01*
X61374020Y-20688300D01*
X61584840Y-20774660D01*
X61813440Y-20774660D01*
X62024260Y-20688300D01*
X62186820Y-20525740D01*
X62273180Y-20314920D01*
X62273180Y-21686520D01*
X62186820Y-21475700D01*
X62024260Y-21313140D01*
X61813440Y-21226780D01*
X61584840Y-21226780D01*
X61374020Y-21313140D01*
X61211460Y-21475700D01*
X61125100Y-21686520D01*
X61125100Y-21915120D01*
X61211460Y-22125940D01*
X61285120Y-22199600D01*
X61211460Y-22275800D01*
X61125100Y-22486620D01*
X61125100Y-22715220D01*
X61211460Y-22926040D01*
X61335920Y-23050500D01*
X61211460Y-23174960D01*
X61125100Y-23385780D01*
X61125100Y-23614380D01*
X61211460Y-23825200D01*
X61374020Y-23987760D01*
X61584840Y-24074120D01*
X61813440Y-24074120D01*
X62024260Y-23987760D01*
X62186820Y-23825200D01*
X62273180Y-23614380D01*
X62273180Y-49679860D01*
X62075060Y-49679860D01*
X62075060Y-24813260D01*
X62075060Y-24584660D01*
X61988700Y-24373840D01*
X61826140Y-24211280D01*
X61615320Y-24124920D01*
X61386720Y-24124920D01*
X61175900Y-24211280D01*
X61013340Y-24373840D01*
X60926980Y-24584660D01*
X60926980Y-24813260D01*
X61013340Y-25024080D01*
X61175900Y-25186640D01*
X61386720Y-25273000D01*
X61615320Y-25273000D01*
X61826140Y-25186640D01*
X61988700Y-25024080D01*
X62075060Y-24813260D01*
X62075060Y-49679860D01*
X59966860Y-49679860D01*
X59966860Y-39151560D01*
X59966860Y-38846760D01*
X59850020Y-38564820D01*
X59781440Y-38496240D01*
X59781440Y-24394160D01*
X59781440Y-23789640D01*
X59778900Y-22397720D01*
X59687460Y-22174200D01*
X59573160Y-22059900D01*
X59573160Y-16413480D01*
X59573160Y-16184880D01*
X59486800Y-15974060D01*
X59324240Y-15811500D01*
X59113420Y-15725140D01*
X58884820Y-15725140D01*
X58674000Y-15811500D01*
X58511440Y-15974060D01*
X58425080Y-16184880D01*
X58425080Y-16413480D01*
X58511440Y-16624300D01*
X58674000Y-16786860D01*
X58884820Y-16873220D01*
X59113420Y-16873220D01*
X59324240Y-16786860D01*
X59486800Y-16624300D01*
X59573160Y-16413480D01*
X59573160Y-22059900D01*
X59517280Y-22004020D01*
X59296300Y-21912580D01*
X59055000Y-21912580D01*
X57901840Y-21910040D01*
X57873900Y-21937980D01*
X57873900Y-20012660D01*
X57873900Y-19784060D01*
X57787540Y-19573240D01*
X57624980Y-19410680D01*
X57414160Y-19324320D01*
X57185560Y-19324320D01*
X56974740Y-19410680D01*
X56949340Y-19436080D01*
X56923940Y-19410680D01*
X56713120Y-19324320D01*
X56484520Y-19324320D01*
X56273700Y-19410680D01*
X56111140Y-19573240D01*
X56024780Y-19784060D01*
X56024780Y-20012660D01*
X56111140Y-20223480D01*
X56273700Y-20386040D01*
X56484520Y-20472400D01*
X56713120Y-20472400D01*
X56923940Y-20386040D01*
X56949340Y-20360640D01*
X56974740Y-20386040D01*
X57185560Y-20472400D01*
X57414160Y-20472400D01*
X57624980Y-20386040D01*
X57787540Y-20223480D01*
X57873900Y-20012660D01*
X57873900Y-21937980D01*
X57751980Y-22059900D01*
X57751980Y-23939500D01*
X59631580Y-23939500D01*
X59781440Y-23789640D01*
X59781440Y-24394160D01*
X59631580Y-24244300D01*
X57751980Y-24244300D01*
X57751980Y-26123900D01*
X57901840Y-26273760D01*
X59055000Y-26271220D01*
X59296300Y-26271220D01*
X59517280Y-26179780D01*
X59687460Y-26009600D01*
X59778900Y-25786080D01*
X59781440Y-24394160D01*
X59781440Y-38496240D01*
X59634120Y-38348920D01*
X59352180Y-38232080D01*
X59047380Y-38232080D01*
X58765440Y-38348920D01*
X58549540Y-38564820D01*
X58432700Y-38846760D01*
X58432700Y-39151560D01*
X58549540Y-39433500D01*
X58765440Y-39649400D01*
X59047380Y-39766240D01*
X59352180Y-39766240D01*
X59634120Y-39649400D01*
X59850020Y-39433500D01*
X59966860Y-39151560D01*
X59966860Y-49679860D01*
X57447180Y-49679860D01*
X57447180Y-26123900D01*
X57447180Y-24244300D01*
X57447180Y-23939500D01*
X57447180Y-22059900D01*
X57297320Y-21910040D01*
X56144160Y-21912580D01*
X55902860Y-21912580D01*
X55773320Y-21965920D01*
X55773320Y-21414740D01*
X55773320Y-21186140D01*
X55686960Y-20975320D01*
X55524400Y-20812760D01*
X55313580Y-20726400D01*
X55084980Y-20726400D01*
X54874160Y-20812760D01*
X54711600Y-20975320D01*
X54625240Y-21186140D01*
X54625240Y-21414740D01*
X54711600Y-21625560D01*
X54874160Y-21788120D01*
X55084980Y-21874480D01*
X55313580Y-21874480D01*
X55524400Y-21788120D01*
X55686960Y-21625560D01*
X55773320Y-21414740D01*
X55773320Y-21965920D01*
X55681880Y-22004020D01*
X55511700Y-22174200D01*
X55420260Y-22397720D01*
X55417720Y-23789640D01*
X55567580Y-23939500D01*
X57447180Y-23939500D01*
X57447180Y-24244300D01*
X55567580Y-24244300D01*
X55417720Y-24394160D01*
X55420260Y-25786080D01*
X55511700Y-26009600D01*
X55681880Y-26179780D01*
X55902860Y-26271220D01*
X56144160Y-26271220D01*
X57297320Y-26273760D01*
X57447180Y-26123900D01*
X57447180Y-49679860D01*
X56273700Y-49679860D01*
X56273700Y-27713940D01*
X56273700Y-27485340D01*
X56187340Y-27274520D01*
X56024780Y-27111960D01*
X55813960Y-27025600D01*
X55585360Y-27025600D01*
X55374540Y-27111960D01*
X55211980Y-27274520D01*
X55125620Y-27485340D01*
X55125620Y-27713940D01*
X55211980Y-27924760D01*
X55374540Y-28087320D01*
X55585360Y-28173680D01*
X55813960Y-28173680D01*
X56024780Y-28087320D01*
X56187340Y-27924760D01*
X56273700Y-27713940D01*
X56273700Y-49679860D01*
X55369460Y-49679860D01*
X55369460Y-38153340D01*
X55369460Y-37848540D01*
X55252620Y-37566600D01*
X55036720Y-37350700D01*
X54754780Y-37233860D01*
X54566820Y-37233860D01*
X54566820Y-31247080D01*
X54566820Y-30942280D01*
X54449980Y-30660340D01*
X54267100Y-30477460D01*
X54267100Y-4254500D01*
X54267100Y-3751580D01*
X54074060Y-3286760D01*
X53718460Y-2928620D01*
X53251100Y-2735580D01*
X52748180Y-2735580D01*
X52283360Y-2928620D01*
X51925220Y-3284220D01*
X51732180Y-3751580D01*
X51732180Y-4254500D01*
X51925220Y-4719320D01*
X52280820Y-5077460D01*
X52748180Y-5270500D01*
X53251100Y-5270500D01*
X53715920Y-5077460D01*
X54074060Y-4721860D01*
X54267100Y-4254500D01*
X54267100Y-30477460D01*
X54234080Y-30444440D01*
X53952140Y-30327600D01*
X53766720Y-30327600D01*
X53766720Y-11752580D01*
X53766720Y-11249660D01*
X53573680Y-10784840D01*
X53365400Y-10574020D01*
X53365400Y-7675880D01*
X53365400Y-7330440D01*
X53233320Y-7012940D01*
X52989480Y-6769100D01*
X52671980Y-6637020D01*
X52326540Y-6637020D01*
X52009040Y-6769100D01*
X51765200Y-7012940D01*
X51633120Y-7330440D01*
X51633120Y-7675880D01*
X51765200Y-7993380D01*
X52009040Y-8237220D01*
X52326540Y-8369300D01*
X52671980Y-8369300D01*
X52989480Y-8237220D01*
X53233320Y-7993380D01*
X53365400Y-7675880D01*
X53365400Y-10574020D01*
X53218080Y-10426700D01*
X52750720Y-10233660D01*
X52247800Y-10233660D01*
X51782980Y-10426700D01*
X51424840Y-10782300D01*
X51231800Y-11249660D01*
X51231800Y-11752580D01*
X51424840Y-12217400D01*
X51780440Y-12575540D01*
X52247800Y-12768580D01*
X52750720Y-12768580D01*
X53215540Y-12575540D01*
X53573680Y-12219940D01*
X53766720Y-11752580D01*
X53766720Y-30327600D01*
X53647340Y-30327600D01*
X53365400Y-30444440D01*
X53149500Y-30660340D01*
X53070760Y-30848300D01*
X53070760Y-17594580D01*
X53070760Y-17208500D01*
X53070760Y-15593060D01*
X53070760Y-15206980D01*
X52923440Y-14851380D01*
X52649120Y-14577060D01*
X52293520Y-14429740D01*
X51907440Y-14429740D01*
X51551840Y-14577060D01*
X51277520Y-14851380D01*
X51130200Y-15206980D01*
X51130200Y-15593060D01*
X51277520Y-15948660D01*
X51551840Y-16222980D01*
X51907440Y-16370300D01*
X52293520Y-16370300D01*
X52649120Y-16222980D01*
X52923440Y-15948660D01*
X53070760Y-15593060D01*
X53070760Y-17208500D01*
X52923440Y-16852900D01*
X52649120Y-16578580D01*
X52293520Y-16431260D01*
X51907440Y-16431260D01*
X51551840Y-16578580D01*
X51277520Y-16852900D01*
X51130200Y-17208500D01*
X51130200Y-17594580D01*
X51277520Y-17950180D01*
X51551840Y-18224500D01*
X51907440Y-18371820D01*
X52293520Y-18371820D01*
X52649120Y-18224500D01*
X52923440Y-17950180D01*
X53070760Y-17594580D01*
X53070760Y-30848300D01*
X53032660Y-30942280D01*
X53032660Y-31247080D01*
X53149500Y-31529020D01*
X53365400Y-31744920D01*
X53647340Y-31861760D01*
X53952140Y-31861760D01*
X54234080Y-31744920D01*
X54449980Y-31529020D01*
X54566820Y-31247080D01*
X54566820Y-37233860D01*
X54449980Y-37233860D01*
X54168040Y-37350700D01*
X53952140Y-37566600D01*
X53835300Y-37848540D01*
X53835300Y-38153340D01*
X53952140Y-38435280D01*
X54168040Y-38651180D01*
X54449980Y-38768020D01*
X54754780Y-38768020D01*
X55036720Y-38651180D01*
X55252620Y-38435280D01*
X55369460Y-38153340D01*
X55369460Y-49679860D01*
X54673500Y-49679860D01*
X54673500Y-44414440D01*
X54673500Y-44185840D01*
X54587140Y-43975020D01*
X54424580Y-43812460D01*
X54213760Y-43726100D01*
X53985160Y-43726100D01*
X53774340Y-43812460D01*
X53611780Y-43975020D01*
X53525420Y-44185840D01*
X53525420Y-44414440D01*
X53611780Y-44625260D01*
X53774340Y-44787820D01*
X53985160Y-44874180D01*
X54213760Y-44874180D01*
X54424580Y-44787820D01*
X54587140Y-44625260D01*
X54673500Y-44414440D01*
X54673500Y-49679860D01*
X51874420Y-49679860D01*
X51874420Y-41013380D01*
X51874420Y-40784780D01*
X51788060Y-40573960D01*
X51772820Y-40558720D01*
X51772820Y-27914600D01*
X51772820Y-27686000D01*
X51686460Y-27475180D01*
X51523900Y-27312620D01*
X51371500Y-27249120D01*
X51523900Y-27188160D01*
X51686460Y-27025600D01*
X51772820Y-26814780D01*
X51772820Y-26586180D01*
X51686460Y-26375360D01*
X51523900Y-26212800D01*
X51313080Y-26126440D01*
X51084480Y-26126440D01*
X50873660Y-26212800D01*
X50711100Y-26375360D01*
X50624740Y-26586180D01*
X50624740Y-26814780D01*
X50711100Y-27025600D01*
X50873660Y-27188160D01*
X51023520Y-27249120D01*
X50873660Y-27312620D01*
X50711100Y-27475180D01*
X50624740Y-27686000D01*
X50624740Y-27914600D01*
X50711100Y-28125420D01*
X50873660Y-28287980D01*
X51084480Y-28374340D01*
X51313080Y-28374340D01*
X51523900Y-28287980D01*
X51686460Y-28125420D01*
X51772820Y-27914600D01*
X51772820Y-40558720D01*
X51625500Y-40411400D01*
X51414680Y-40325040D01*
X51186080Y-40325040D01*
X50975260Y-40411400D01*
X50812700Y-40573960D01*
X50726340Y-40784780D01*
X50726340Y-41013380D01*
X50812700Y-41224200D01*
X50975260Y-41386760D01*
X51186080Y-41473120D01*
X51414680Y-41473120D01*
X51625500Y-41386760D01*
X51788060Y-41224200D01*
X51874420Y-41013380D01*
X51874420Y-49679860D01*
X49042320Y-49679860D01*
X49042320Y-11714480D01*
X49006760Y-11107420D01*
X48844200Y-10713720D01*
X48595280Y-10622280D01*
X48379380Y-10838180D01*
X48379380Y-10406380D01*
X48366680Y-10370820D01*
X48366680Y-7675880D01*
X48366680Y-7330440D01*
X48267620Y-7091680D01*
X48267620Y-4254500D01*
X48267620Y-3751580D01*
X48074580Y-3286760D01*
X47718980Y-2928620D01*
X47251620Y-2735580D01*
X46748700Y-2735580D01*
X46283880Y-2928620D01*
X45925740Y-3284220D01*
X45732700Y-3751580D01*
X45732700Y-4254500D01*
X45925740Y-4719320D01*
X46281340Y-5077460D01*
X46748700Y-5270500D01*
X47251620Y-5270500D01*
X47716440Y-5077460D01*
X48074580Y-4721860D01*
X48267620Y-4254500D01*
X48267620Y-7091680D01*
X48234600Y-7012940D01*
X47990760Y-6769100D01*
X47673260Y-6637020D01*
X47327820Y-6637020D01*
X47010320Y-6769100D01*
X46766480Y-7012940D01*
X46634400Y-7330440D01*
X46634400Y-7675880D01*
X46766480Y-7993380D01*
X47010320Y-8237220D01*
X47327820Y-8369300D01*
X47673260Y-8369300D01*
X47990760Y-8237220D01*
X48234600Y-7993380D01*
X48366680Y-7675880D01*
X48366680Y-10370820D01*
X48287940Y-10157460D01*
X47713900Y-9959340D01*
X47106840Y-9994900D01*
X46713140Y-10157460D01*
X46621700Y-10406380D01*
X47500540Y-11285220D01*
X48379380Y-10406380D01*
X48379380Y-10838180D01*
X47716440Y-11501120D01*
X48595280Y-12379960D01*
X48844200Y-12288520D01*
X49042320Y-11714480D01*
X49042320Y-49679860D01*
X48379380Y-49679860D01*
X48379380Y-12595860D01*
X47500540Y-11717020D01*
X47284640Y-11932920D01*
X47284640Y-11501120D01*
X46405800Y-10622280D01*
X46156880Y-10713720D01*
X45958760Y-11287760D01*
X45994320Y-11894820D01*
X46156880Y-12288520D01*
X46405800Y-12379960D01*
X47284640Y-11501120D01*
X47284640Y-11932920D01*
X46621700Y-12595860D01*
X46713140Y-12844780D01*
X47287180Y-13042900D01*
X47894240Y-13007340D01*
X48287940Y-12844780D01*
X48379380Y-12595860D01*
X48379380Y-49679860D01*
X46675040Y-49679860D01*
X46675040Y-21313140D01*
X46675040Y-21084540D01*
X46588680Y-20873720D01*
X46426120Y-20711160D01*
X46215300Y-20624800D01*
X45986700Y-20624800D01*
X45775880Y-20711160D01*
X45613320Y-20873720D01*
X45526960Y-21084540D01*
X45526960Y-21313140D01*
X45613320Y-21523960D01*
X45775880Y-21686520D01*
X45986700Y-21772880D01*
X46215300Y-21772880D01*
X46426120Y-21686520D01*
X46588680Y-21523960D01*
X46675040Y-21313140D01*
X46675040Y-49679860D01*
X46372780Y-49679860D01*
X46372780Y-36215320D01*
X46372780Y-35986720D01*
X46286420Y-35775900D01*
X46273720Y-35763200D01*
X46273720Y-26314400D01*
X46273720Y-26085800D01*
X46187360Y-25874980D01*
X46024800Y-25712420D01*
X45813980Y-25626060D01*
X45585380Y-25626060D01*
X45374560Y-25712420D01*
X45212000Y-25874980D01*
X45125640Y-26085800D01*
X45125640Y-26314400D01*
X45212000Y-26525220D01*
X45374560Y-26687780D01*
X45585380Y-26774140D01*
X45813980Y-26774140D01*
X46024800Y-26687780D01*
X46187360Y-26525220D01*
X46273720Y-26314400D01*
X46273720Y-35763200D01*
X46123860Y-35613340D01*
X45913040Y-35526980D01*
X45824140Y-35526980D01*
X45824140Y-32164020D01*
X45824140Y-31935420D01*
X45737780Y-31724600D01*
X45575220Y-31562040D01*
X45364400Y-31475680D01*
X45204380Y-31475680D01*
X45272960Y-31313120D01*
X45272960Y-31084520D01*
X45186600Y-30873700D01*
X45064680Y-30751780D01*
X45224700Y-30688280D01*
X45387260Y-30525720D01*
X45473620Y-30314900D01*
X45473620Y-30086300D01*
X45387260Y-29875480D01*
X45224700Y-29712920D01*
X45013880Y-29626560D01*
X44785280Y-29626560D01*
X44574460Y-29712920D01*
X44411900Y-29875480D01*
X44325540Y-30086300D01*
X44325540Y-30314900D01*
X44411900Y-30525720D01*
X44531280Y-30645100D01*
X44373800Y-30711140D01*
X44211240Y-30873700D01*
X44173140Y-30965140D01*
X44173140Y-19413220D01*
X44173140Y-19184620D01*
X44086780Y-18973800D01*
X43924220Y-18811240D01*
X43713400Y-18724880D01*
X43484800Y-18724880D01*
X43273980Y-18811240D01*
X43111420Y-18973800D01*
X43025060Y-19184620D01*
X43025060Y-19413220D01*
X43111420Y-19624040D01*
X43273980Y-19786600D01*
X43484800Y-19872960D01*
X43713400Y-19872960D01*
X43924220Y-19786600D01*
X44086780Y-19624040D01*
X44173140Y-19413220D01*
X44173140Y-30965140D01*
X44124880Y-31084520D01*
X44124880Y-31313120D01*
X44211240Y-31523940D01*
X44373800Y-31686500D01*
X44584620Y-31772860D01*
X44742100Y-31772860D01*
X44676060Y-31935420D01*
X44676060Y-32164020D01*
X44762420Y-32374840D01*
X44924980Y-32537400D01*
X45135800Y-32623760D01*
X45364400Y-32623760D01*
X45575220Y-32537400D01*
X45737780Y-32374840D01*
X45824140Y-32164020D01*
X45824140Y-35526980D01*
X45684440Y-35526980D01*
X45473620Y-35613340D01*
X45311060Y-35775900D01*
X45224700Y-35986720D01*
X45224700Y-36215320D01*
X45311060Y-36426140D01*
X45473620Y-36588700D01*
X45684440Y-36675060D01*
X45913040Y-36675060D01*
X46123860Y-36588700D01*
X46286420Y-36426140D01*
X46372780Y-36215320D01*
X46372780Y-49679860D01*
X43273980Y-49679860D01*
X43273980Y-38013640D01*
X43273980Y-37785040D01*
X43187620Y-37574220D01*
X43025060Y-37411660D01*
X42814240Y-37325300D01*
X42585640Y-37325300D01*
X42374820Y-37411660D01*
X42273220Y-37513260D01*
X42273220Y-19413220D01*
X42273220Y-19184620D01*
X42186860Y-18973800D01*
X42024300Y-18811240D01*
X41813480Y-18724880D01*
X41584880Y-18724880D01*
X41374060Y-18811240D01*
X41211500Y-18973800D01*
X41125140Y-19184620D01*
X41125140Y-19413220D01*
X41211500Y-19624040D01*
X41374060Y-19786600D01*
X41584880Y-19872960D01*
X41813480Y-19872960D01*
X42024300Y-19786600D01*
X42186860Y-19624040D01*
X42273220Y-19413220D01*
X42273220Y-37513260D01*
X42212260Y-37574220D01*
X42125900Y-37785040D01*
X42125900Y-38013640D01*
X42212260Y-38224460D01*
X42374820Y-38387020D01*
X42585640Y-38473380D01*
X42814240Y-38473380D01*
X43025060Y-38387020D01*
X43187620Y-38224460D01*
X43273980Y-38013640D01*
X43273980Y-49679860D01*
X41874440Y-49679860D01*
X41874440Y-37914580D01*
X41874440Y-37685980D01*
X41788080Y-37475160D01*
X41625520Y-37312600D01*
X41414700Y-37226240D01*
X41186100Y-37226240D01*
X40975280Y-37312600D01*
X40894000Y-37391340D01*
X40888920Y-37376100D01*
X40726360Y-37213540D01*
X40573960Y-37150040D01*
X40573960Y-20413980D01*
X40573960Y-20185380D01*
X40487600Y-19974560D01*
X40325040Y-19812000D01*
X40114220Y-19725640D01*
X39885620Y-19725640D01*
X39674800Y-19812000D01*
X39512240Y-19974560D01*
X39425880Y-20185380D01*
X39425880Y-20413980D01*
X39512240Y-20624800D01*
X39674800Y-20787360D01*
X39885620Y-20873720D01*
X40114220Y-20873720D01*
X40325040Y-20787360D01*
X40487600Y-20624800D01*
X40573960Y-20413980D01*
X40573960Y-37150040D01*
X40515540Y-37127180D01*
X40286940Y-37127180D01*
X40076120Y-37213540D01*
X39949120Y-37338000D01*
X39824660Y-37213540D01*
X39613840Y-37127180D01*
X39385240Y-37127180D01*
X39174420Y-37213540D01*
X39011860Y-37376100D01*
X38925500Y-37586920D01*
X38925500Y-37815520D01*
X39011860Y-38026340D01*
X39174420Y-38188900D01*
X39385240Y-38275260D01*
X39613840Y-38275260D01*
X39824660Y-38188900D01*
X39949120Y-38061900D01*
X40076120Y-38188900D01*
X40286940Y-38275260D01*
X40515540Y-38275260D01*
X40726360Y-38188900D01*
X40805100Y-38107620D01*
X40812720Y-38125400D01*
X40975280Y-38287960D01*
X41186100Y-38374320D01*
X41414700Y-38374320D01*
X41625520Y-38287960D01*
X41788080Y-38125400D01*
X41874440Y-37914580D01*
X41874440Y-49679860D01*
X38874700Y-49679860D01*
X38874700Y-36913820D01*
X38874700Y-36685220D01*
X38788340Y-36474400D01*
X38625780Y-36311840D01*
X38574980Y-36288980D01*
X38574980Y-2715260D01*
X38574980Y-2486660D01*
X38488620Y-2275840D01*
X38326060Y-2113280D01*
X38115240Y-2026920D01*
X37886640Y-2026920D01*
X37675820Y-2113280D01*
X37525960Y-2263140D01*
X37315140Y-2176780D01*
X37086540Y-2176780D01*
X36875720Y-2263140D01*
X36713160Y-2425700D01*
X36685220Y-2486660D01*
X36553140Y-2433320D01*
X36248340Y-2433320D01*
X35966400Y-2550160D01*
X35750500Y-2766060D01*
X35633660Y-3048000D01*
X35633660Y-3352800D01*
X35750500Y-3634740D01*
X35966400Y-3850640D01*
X36248340Y-3967480D01*
X36553140Y-3967480D01*
X36835080Y-3850640D01*
X37050980Y-3634740D01*
X37167820Y-3352800D01*
X37167820Y-3324860D01*
X37315140Y-3324860D01*
X37525960Y-3238500D01*
X37675820Y-3088640D01*
X37886640Y-3175000D01*
X38115240Y-3175000D01*
X38326060Y-3088640D01*
X38488620Y-2926080D01*
X38574980Y-2715260D01*
X38574980Y-36288980D01*
X38414960Y-36225480D01*
X38186360Y-36225480D01*
X38122860Y-36250880D01*
X38122860Y-15313660D01*
X38122860Y-15085060D01*
X38036500Y-14874240D01*
X37873940Y-14711680D01*
X37663120Y-14625320D01*
X37518340Y-14625320D01*
X37437060Y-14424660D01*
X37274500Y-14262100D01*
X37063680Y-14175740D01*
X36835080Y-14175740D01*
X36715700Y-14221460D01*
X36636960Y-14025880D01*
X36474400Y-13863320D01*
X36367720Y-13817600D01*
X36367720Y-11653520D01*
X36367720Y-11348720D01*
X36250880Y-11066780D01*
X36034980Y-10850880D01*
X35753040Y-10734040D01*
X35448240Y-10734040D01*
X35374580Y-10764520D01*
X35374580Y-2865120D01*
X35374580Y-2636520D01*
X35288220Y-2425700D01*
X35125660Y-2263140D01*
X34914840Y-2176780D01*
X34686240Y-2176780D01*
X34475420Y-2263140D01*
X34399220Y-2336800D01*
X34325560Y-2263140D01*
X34114740Y-2176780D01*
X33886140Y-2176780D01*
X33675320Y-2263140D01*
X33599120Y-2336800D01*
X33525460Y-2263140D01*
X33314640Y-2176780D01*
X33086040Y-2176780D01*
X32875220Y-2263140D01*
X32712660Y-2425700D01*
X32626300Y-2636520D01*
X32626300Y-2865120D01*
X32712660Y-3075940D01*
X32875220Y-3238500D01*
X33086040Y-3324860D01*
X33314640Y-3324860D01*
X33525460Y-3238500D01*
X33599120Y-3162300D01*
X33675320Y-3238500D01*
X33886140Y-3324860D01*
X34114740Y-3324860D01*
X34325560Y-3238500D01*
X34399220Y-3162300D01*
X34475420Y-3238500D01*
X34686240Y-3324860D01*
X34914840Y-3324860D01*
X35125660Y-3238500D01*
X35288220Y-3075940D01*
X35374580Y-2865120D01*
X35374580Y-10764520D01*
X35166300Y-10850880D01*
X34950400Y-11066780D01*
X34833560Y-11348720D01*
X34833560Y-11653520D01*
X34950400Y-11935460D01*
X35166300Y-12151360D01*
X35448240Y-12268200D01*
X35753040Y-12268200D01*
X36034980Y-12151360D01*
X36250880Y-11935460D01*
X36367720Y-11653520D01*
X36367720Y-13817600D01*
X36263580Y-13776960D01*
X36034980Y-13776960D01*
X35824160Y-13863320D01*
X35669220Y-14015720D01*
X35565080Y-13975080D01*
X35336480Y-13975080D01*
X35125660Y-14061440D01*
X34963100Y-14224000D01*
X34876740Y-14434820D01*
X34876740Y-14663420D01*
X34932620Y-14803120D01*
X34864040Y-14775180D01*
X34635440Y-14775180D01*
X34424620Y-14861540D01*
X34262060Y-15024100D01*
X34175700Y-15234920D01*
X34175700Y-15463520D01*
X34262060Y-15674340D01*
X34424620Y-15836900D01*
X34635440Y-15923260D01*
X34864040Y-15923260D01*
X35074860Y-15836900D01*
X35237420Y-15674340D01*
X35323780Y-15463520D01*
X35323780Y-15234920D01*
X35265360Y-15092680D01*
X35336480Y-15123160D01*
X35565080Y-15123160D01*
X35775900Y-15036800D01*
X35928300Y-14881860D01*
X36034980Y-14925040D01*
X36263580Y-14925040D01*
X36380420Y-14876780D01*
X36461700Y-15074900D01*
X36624260Y-15237460D01*
X36835080Y-15323820D01*
X36977320Y-15323820D01*
X37061140Y-15524480D01*
X37223700Y-15687040D01*
X37434520Y-15773400D01*
X37663120Y-15773400D01*
X37873940Y-15687040D01*
X38036500Y-15524480D01*
X38122860Y-15313660D01*
X38122860Y-36250880D01*
X37975540Y-36311840D01*
X37812980Y-36474400D01*
X37726620Y-36685220D01*
X37726620Y-36913820D01*
X37812980Y-37124640D01*
X37975540Y-37287200D01*
X38186360Y-37373560D01*
X38414960Y-37373560D01*
X38625780Y-37287200D01*
X38788340Y-37124640D01*
X38874700Y-36913820D01*
X38874700Y-49679860D01*
X36174680Y-49679860D01*
X36174680Y-42715180D01*
X36174680Y-42486580D01*
X36174680Y-19413220D01*
X36174680Y-19184620D01*
X36088320Y-18973800D01*
X35925760Y-18811240D01*
X35714940Y-18724880D01*
X35486340Y-18724880D01*
X35275520Y-18811240D01*
X35112960Y-18973800D01*
X35026600Y-19184620D01*
X35026600Y-19413220D01*
X35112960Y-19624040D01*
X35275520Y-19786600D01*
X35486340Y-19872960D01*
X35714940Y-19872960D01*
X35925760Y-19786600D01*
X36088320Y-19624040D01*
X36174680Y-19413220D01*
X36174680Y-42486580D01*
X36088320Y-42275760D01*
X35925760Y-42113200D01*
X35714940Y-42026840D01*
X35486340Y-42026840D01*
X35275520Y-42113200D01*
X35112960Y-42275760D01*
X35026600Y-42486580D01*
X35026600Y-42715180D01*
X35112960Y-42926000D01*
X35275520Y-43088560D01*
X35486340Y-43174920D01*
X35714940Y-43174920D01*
X35925760Y-43088560D01*
X36088320Y-42926000D01*
X36174680Y-42715180D01*
X36174680Y-49679860D01*
X34574480Y-49679860D01*
X34574480Y-37815520D01*
X34574480Y-37586920D01*
X34488120Y-37376100D01*
X34325560Y-37213540D01*
X34114740Y-37127180D01*
X33886140Y-37127180D01*
X33675320Y-37213540D01*
X33512760Y-37376100D01*
X33426400Y-37586920D01*
X33426400Y-37815520D01*
X33512760Y-38026340D01*
X33675320Y-38188900D01*
X33886140Y-38275260D01*
X34114740Y-38275260D01*
X34325560Y-38188900D01*
X34488120Y-38026340D01*
X34574480Y-37815520D01*
X34574480Y-49679860D01*
X32572960Y-49679860D01*
X32572960Y-42814240D01*
X32572960Y-42585640D01*
X32486600Y-42374820D01*
X32473900Y-42362120D01*
X32473900Y-19113500D01*
X32473900Y-18884900D01*
X32387540Y-18674080D01*
X32224980Y-18511520D01*
X32014160Y-18425160D01*
X31785560Y-18425160D01*
X31574740Y-18511520D01*
X31450280Y-18635980D01*
X31325820Y-18511520D01*
X31115000Y-18425160D01*
X30886400Y-18425160D01*
X30675580Y-18511520D01*
X30513020Y-18674080D01*
X30426660Y-18884900D01*
X30426660Y-19113500D01*
X30513020Y-19324320D01*
X30675580Y-19486880D01*
X30886400Y-19573240D01*
X31115000Y-19573240D01*
X31325820Y-19486880D01*
X31450280Y-19362420D01*
X31574740Y-19486880D01*
X31785560Y-19573240D01*
X32014160Y-19573240D01*
X32224980Y-19486880D01*
X32387540Y-19324320D01*
X32473900Y-19113500D01*
X32473900Y-42362120D01*
X32324040Y-42212260D01*
X32113220Y-42125900D01*
X31884620Y-42125900D01*
X31673800Y-42212260D01*
X31511240Y-42374820D01*
X31424880Y-42585640D01*
X31424880Y-42814240D01*
X31511240Y-43025060D01*
X31673800Y-43187620D01*
X31884620Y-43273980D01*
X32113220Y-43273980D01*
X32324040Y-43187620D01*
X32486600Y-43025060D01*
X32572960Y-42814240D01*
X32572960Y-49679860D01*
X31275020Y-49679860D01*
X31275020Y-42814240D01*
X31275020Y-42585640D01*
X31188660Y-42374820D01*
X31026100Y-42212260D01*
X30815280Y-42125900D01*
X30673040Y-42125900D01*
X30673040Y-37914580D01*
X30673040Y-37685980D01*
X30586680Y-37475160D01*
X30424120Y-37312600D01*
X30213300Y-37226240D01*
X30073600Y-37226240D01*
X30073600Y-19113500D01*
X30073600Y-18884900D01*
X29987240Y-18674080D01*
X29824680Y-18511520D01*
X29613860Y-18425160D01*
X29385260Y-18425160D01*
X29174440Y-18511520D01*
X29011880Y-18674080D01*
X28925520Y-18884900D01*
X28925520Y-19113500D01*
X29011880Y-19324320D01*
X29174440Y-19486880D01*
X29385260Y-19573240D01*
X29613860Y-19573240D01*
X29824680Y-19486880D01*
X29987240Y-19324320D01*
X30073600Y-19113500D01*
X30073600Y-37226240D01*
X29984700Y-37226240D01*
X29773880Y-37312600D01*
X29611320Y-37475160D01*
X29524960Y-37685980D01*
X29524960Y-37914580D01*
X29611320Y-38125400D01*
X29773880Y-38287960D01*
X29984700Y-38374320D01*
X30213300Y-38374320D01*
X30424120Y-38287960D01*
X30586680Y-38125400D01*
X30673040Y-37914580D01*
X30673040Y-42125900D01*
X30586680Y-42125900D01*
X30375860Y-42212260D01*
X30213300Y-42374820D01*
X30126940Y-42585640D01*
X30126940Y-42814240D01*
X30213300Y-43025060D01*
X30375860Y-43187620D01*
X30586680Y-43273980D01*
X30815280Y-43273980D01*
X31026100Y-43187620D01*
X31188660Y-43025060D01*
X31275020Y-42814240D01*
X31275020Y-49679860D01*
X30673040Y-49679860D01*
X30673040Y-46413420D01*
X30673040Y-46184820D01*
X30586680Y-45974000D01*
X30424120Y-45811440D01*
X30213300Y-45725080D01*
X29984700Y-45725080D01*
X29773880Y-45811440D01*
X29611320Y-45974000D01*
X29524960Y-46184820D01*
X29524960Y-46413420D01*
X29611320Y-46624240D01*
X29773880Y-46786800D01*
X29984700Y-46873160D01*
X30213300Y-46873160D01*
X30424120Y-46786800D01*
X30586680Y-46624240D01*
X30673040Y-46413420D01*
X30673040Y-49679860D01*
X29072840Y-49679860D01*
X29072840Y-48514000D01*
X29072840Y-48285400D01*
X28986480Y-48074580D01*
X28823920Y-47912020D01*
X28613100Y-47825660D01*
X28384500Y-47825660D01*
X28374340Y-47828200D01*
X28374340Y-31115000D01*
X28374340Y-30886400D01*
X28287980Y-30675580D01*
X28125420Y-30513020D01*
X27914600Y-30426660D01*
X27686000Y-30426660D01*
X27475180Y-30513020D01*
X27475180Y-24414480D01*
X27475180Y-24185880D01*
X27388820Y-23975060D01*
X27226260Y-23812500D01*
X27023060Y-23728680D01*
X27124660Y-23688040D01*
X27287220Y-23525480D01*
X27373580Y-23314660D01*
X27373580Y-23086060D01*
X27287220Y-22875240D01*
X27261820Y-22849840D01*
X27388820Y-22725380D01*
X27475180Y-22514560D01*
X27475180Y-22285960D01*
X27388820Y-22075140D01*
X27274520Y-21960840D01*
X27274520Y-21313140D01*
X27274520Y-21084540D01*
X27188160Y-20873720D01*
X27025600Y-20711160D01*
X26814780Y-20624800D01*
X26675080Y-20624800D01*
X26675080Y-18214340D01*
X26675080Y-17985740D01*
X26588720Y-17774920D01*
X26426160Y-17612360D01*
X26215340Y-17526000D01*
X26073100Y-17526000D01*
X26073100Y-14714220D01*
X26073100Y-14485620D01*
X25986740Y-14274800D01*
X25824180Y-14112240D01*
X25613360Y-14025880D01*
X25384760Y-14025880D01*
X25173940Y-14112240D01*
X25011380Y-14274800D01*
X24925020Y-14485620D01*
X24925020Y-14714220D01*
X25011380Y-14925040D01*
X25173940Y-15087600D01*
X25384760Y-15173960D01*
X25613360Y-15173960D01*
X25824180Y-15087600D01*
X25986740Y-14925040D01*
X26073100Y-14714220D01*
X26073100Y-17526000D01*
X25986740Y-17526000D01*
X25775920Y-17612360D01*
X25613360Y-17774920D01*
X25527000Y-17985740D01*
X25527000Y-18214340D01*
X25613360Y-18425160D01*
X25775920Y-18587720D01*
X25986740Y-18674080D01*
X26215340Y-18674080D01*
X26426160Y-18587720D01*
X26588720Y-18425160D01*
X26675080Y-18214340D01*
X26675080Y-20624800D01*
X26586180Y-20624800D01*
X26375360Y-20711160D01*
X26212800Y-20873720D01*
X26126440Y-21084540D01*
X26126440Y-21313140D01*
X26212800Y-21523960D01*
X26375360Y-21686520D01*
X26586180Y-21772880D01*
X26814780Y-21772880D01*
X27025600Y-21686520D01*
X27188160Y-21523960D01*
X27274520Y-21313140D01*
X27274520Y-21960840D01*
X27226260Y-21912580D01*
X27015440Y-21826220D01*
X26786840Y-21826220D01*
X26576020Y-21912580D01*
X26413460Y-22075140D01*
X26327100Y-22285960D01*
X26327100Y-22514560D01*
X26413460Y-22725380D01*
X26436320Y-22748240D01*
X26311860Y-22875240D01*
X26225500Y-23086060D01*
X26225500Y-23314660D01*
X26311860Y-23525480D01*
X26474420Y-23688040D01*
X26675080Y-23769320D01*
X26576020Y-23812500D01*
X26413460Y-23975060D01*
X26327100Y-24185880D01*
X26327100Y-24414480D01*
X26413460Y-24625300D01*
X26576020Y-24787860D01*
X26786840Y-24874220D01*
X27015440Y-24874220D01*
X27226260Y-24787860D01*
X27388820Y-24625300D01*
X27475180Y-24414480D01*
X27475180Y-30513020D01*
X27373580Y-30614620D01*
X27373580Y-30515560D01*
X27373580Y-30286960D01*
X27287220Y-30076140D01*
X27274520Y-30063440D01*
X27274520Y-26314400D01*
X27274520Y-26085800D01*
X27188160Y-25874980D01*
X27025600Y-25712420D01*
X26814780Y-25626060D01*
X26586180Y-25626060D01*
X26375360Y-25712420D01*
X26212800Y-25874980D01*
X26126440Y-26085800D01*
X26126440Y-26314400D01*
X26212800Y-26525220D01*
X26375360Y-26687780D01*
X26586180Y-26774140D01*
X26814780Y-26774140D01*
X27025600Y-26687780D01*
X27188160Y-26525220D01*
X27274520Y-26314400D01*
X27274520Y-30063440D01*
X27124660Y-29913580D01*
X26913840Y-29827220D01*
X26685240Y-29827220D01*
X26474420Y-29913580D01*
X26311860Y-30076140D01*
X26225500Y-30286960D01*
X26225500Y-30515560D01*
X26311860Y-30726380D01*
X26474420Y-30888940D01*
X26685240Y-30975300D01*
X26913840Y-30975300D01*
X27124660Y-30888940D01*
X27287220Y-30726380D01*
X27373580Y-30515560D01*
X27373580Y-30614620D01*
X27312620Y-30675580D01*
X27226260Y-30886400D01*
X27226260Y-31115000D01*
X27312620Y-31325820D01*
X27475180Y-31488380D01*
X27686000Y-31574740D01*
X27914600Y-31574740D01*
X28125420Y-31488380D01*
X28287980Y-31325820D01*
X28374340Y-31115000D01*
X28374340Y-47828200D01*
X28173680Y-47912020D01*
X28173680Y-36814760D01*
X28173680Y-36586160D01*
X28087320Y-36375340D01*
X27924760Y-36212780D01*
X27713940Y-36126420D01*
X27485340Y-36126420D01*
X27373580Y-36172140D01*
X27373580Y-32113220D01*
X27373580Y-31884620D01*
X27287220Y-31673800D01*
X27124660Y-31511240D01*
X26913840Y-31424880D01*
X26685240Y-31424880D01*
X26474420Y-31511240D01*
X26311860Y-31673800D01*
X26225500Y-31884620D01*
X26225500Y-32113220D01*
X26311860Y-32324040D01*
X26474420Y-32486600D01*
X26685240Y-32572960D01*
X26913840Y-32572960D01*
X27124660Y-32486600D01*
X27287220Y-32324040D01*
X27373580Y-32113220D01*
X27373580Y-36172140D01*
X27274520Y-36212780D01*
X27111960Y-36375340D01*
X27025600Y-36586160D01*
X27025600Y-36814760D01*
X27111960Y-37025580D01*
X27274520Y-37188140D01*
X27485340Y-37274500D01*
X27713940Y-37274500D01*
X27924760Y-37188140D01*
X28087320Y-37025580D01*
X28173680Y-36814760D01*
X28173680Y-47912020D01*
X28011120Y-48074580D01*
X27924760Y-48285400D01*
X27924760Y-48514000D01*
X28011120Y-48724820D01*
X28173680Y-48887380D01*
X28384500Y-48973740D01*
X28613100Y-48973740D01*
X28823920Y-48887380D01*
X28986480Y-48724820D01*
X29072840Y-48514000D01*
X29072840Y-49679860D01*
X24173180Y-49679860D01*
X24173180Y-31813500D01*
X24173180Y-31584900D01*
X24086820Y-31374080D01*
X23931880Y-31219140D01*
X23931880Y-6715760D01*
X23931880Y-6286500D01*
X23766780Y-5887720D01*
X23464520Y-5582920D01*
X23065740Y-5417820D01*
X22636480Y-5417820D01*
X22237700Y-5582920D01*
X21932900Y-5885180D01*
X21767800Y-6283960D01*
X21767800Y-6713220D01*
X21932900Y-7112000D01*
X22235160Y-7416800D01*
X22633940Y-7581900D01*
X23063200Y-7581900D01*
X23461980Y-7416800D01*
X23766780Y-7114540D01*
X23931880Y-6715760D01*
X23931880Y-31219140D01*
X23924260Y-31211520D01*
X23713440Y-31125160D01*
X23672800Y-31125160D01*
X23672800Y-12313920D01*
X23672800Y-12085320D01*
X23586440Y-11874500D01*
X23423880Y-11711940D01*
X23213060Y-11625580D01*
X22984460Y-11625580D01*
X22773640Y-11711940D01*
X22611080Y-11874500D01*
X22524720Y-12085320D01*
X22524720Y-12313920D01*
X22611080Y-12524740D01*
X22773640Y-12687300D01*
X22984460Y-12773660D01*
X23213060Y-12773660D01*
X23423880Y-12687300D01*
X23586440Y-12524740D01*
X23672800Y-12313920D01*
X23672800Y-31125160D01*
X23484840Y-31125160D01*
X23274020Y-31211520D01*
X23111460Y-31374080D01*
X23025100Y-31584900D01*
X23025100Y-31813500D01*
X23111460Y-32024320D01*
X23274020Y-32186880D01*
X23484840Y-32273240D01*
X23713440Y-32273240D01*
X23924260Y-32186880D01*
X24086820Y-32024320D01*
X24173180Y-31813500D01*
X24173180Y-49679860D01*
X23368000Y-49679860D01*
X23368000Y-38752780D01*
X23368000Y-38447980D01*
X23251160Y-38166040D01*
X23035260Y-37950140D01*
X22753320Y-37833300D01*
X22448520Y-37833300D01*
X22166580Y-37950140D01*
X21950680Y-38166040D01*
X21899880Y-38287960D01*
X21849080Y-38166040D01*
X21633180Y-37950140D01*
X21391880Y-37848540D01*
X21391880Y-6715760D01*
X21391880Y-6286500D01*
X21226780Y-5887720D01*
X20924520Y-5582920D01*
X20525740Y-5417820D01*
X20096480Y-5417820D01*
X19697700Y-5582920D01*
X19392900Y-5885180D01*
X19227800Y-6283960D01*
X19227800Y-6713220D01*
X19392900Y-7112000D01*
X19695160Y-7416800D01*
X20093940Y-7581900D01*
X20523200Y-7581900D01*
X20921980Y-7416800D01*
X21226780Y-7114540D01*
X21391880Y-6715760D01*
X21391880Y-37848540D01*
X21351240Y-37833300D01*
X21046440Y-37833300D01*
X20764500Y-37950140D01*
X20548600Y-38166040D01*
X20431760Y-38447980D01*
X20431760Y-38752780D01*
X20548600Y-39034720D01*
X20764500Y-39250620D01*
X21046440Y-39367460D01*
X21351240Y-39367460D01*
X21633180Y-39250620D01*
X21849080Y-39034720D01*
X21899880Y-38910260D01*
X21950680Y-39034720D01*
X22166580Y-39250620D01*
X22448520Y-39367460D01*
X22753320Y-39367460D01*
X23035260Y-39250620D01*
X23251160Y-39034720D01*
X23368000Y-38752780D01*
X23368000Y-49679860D01*
X22567900Y-49679860D01*
X22567900Y-40853360D01*
X22567900Y-40548560D01*
X22451060Y-40266620D01*
X22235160Y-40050720D01*
X21953220Y-39933880D01*
X21648420Y-39933880D01*
X21366480Y-40050720D01*
X21150580Y-40266620D01*
X21033740Y-40548560D01*
X21033740Y-40853360D01*
X21150580Y-41135300D01*
X21366480Y-41351200D01*
X21648420Y-41468040D01*
X21953220Y-41468040D01*
X22235160Y-41351200D01*
X22451060Y-41135300D01*
X22567900Y-40853360D01*
X22567900Y-49679860D01*
X21592540Y-49679860D01*
X21592540Y-48285400D01*
X21592540Y-47856140D01*
X21592540Y-45745400D01*
X21592540Y-45316140D01*
X21427440Y-44917360D01*
X21125180Y-44612560D01*
X20726400Y-44447460D01*
X20297140Y-44447460D01*
X19898360Y-44612560D01*
X19593560Y-44914820D01*
X19428460Y-45313600D01*
X19428460Y-45742860D01*
X19593560Y-46141640D01*
X19895820Y-46446440D01*
X20294600Y-46611540D01*
X20723860Y-46611540D01*
X21122640Y-46446440D01*
X21427440Y-46144180D01*
X21592540Y-45745400D01*
X21592540Y-47856140D01*
X21427440Y-47457360D01*
X21125180Y-47152560D01*
X20726400Y-46987460D01*
X20297140Y-46987460D01*
X19898360Y-47152560D01*
X19593560Y-47454820D01*
X19428460Y-47853600D01*
X19428460Y-48282860D01*
X19593560Y-48681640D01*
X19895820Y-48986440D01*
X20294600Y-49151540D01*
X20723860Y-49151540D01*
X21122640Y-48986440D01*
X21427440Y-48684180D01*
X21592540Y-48285400D01*
X21592540Y-49679860D01*
X19052540Y-49679860D01*
X19052540Y-48285400D01*
X19052540Y-47856140D01*
X19052540Y-45745400D01*
X19052540Y-45316140D01*
X18887440Y-44917360D01*
X18851880Y-44879260D01*
X18851880Y-6715760D01*
X18851880Y-6286500D01*
X18686780Y-5887720D01*
X18384520Y-5582920D01*
X17985740Y-5417820D01*
X17556480Y-5417820D01*
X17157700Y-5582920D01*
X16852900Y-5885180D01*
X16687800Y-6283960D01*
X16687800Y-6713220D01*
X16852900Y-7112000D01*
X17155160Y-7416800D01*
X17553940Y-7581900D01*
X17983200Y-7581900D01*
X18381980Y-7416800D01*
X18686780Y-7114540D01*
X18851880Y-6715760D01*
X18851880Y-44879260D01*
X18585180Y-44612560D01*
X18186400Y-44447460D01*
X17757140Y-44447460D01*
X17358360Y-44612560D01*
X17066260Y-44902120D01*
X17066260Y-39852600D01*
X17066260Y-39547800D01*
X16949420Y-39265860D01*
X16733520Y-39049960D01*
X16451580Y-38933120D01*
X16311880Y-38933120D01*
X16311880Y-6715760D01*
X16311880Y-6286500D01*
X16146780Y-5887720D01*
X15844520Y-5582920D01*
X15445740Y-5417820D01*
X15016480Y-5417820D01*
X14617700Y-5582920D01*
X14312900Y-5885180D01*
X14147800Y-6283960D01*
X14147800Y-6713220D01*
X14312900Y-7112000D01*
X14615160Y-7416800D01*
X15013940Y-7581900D01*
X15443200Y-7581900D01*
X15841980Y-7416800D01*
X16146780Y-7114540D01*
X16311880Y-6715760D01*
X16311880Y-38933120D01*
X16146780Y-38933120D01*
X15864840Y-39049960D01*
X15648940Y-39265860D01*
X15532100Y-39547800D01*
X15532100Y-39852600D01*
X15648940Y-40134540D01*
X15864840Y-40350440D01*
X16146780Y-40467280D01*
X16451580Y-40467280D01*
X16733520Y-40350440D01*
X16949420Y-40134540D01*
X17066260Y-39852600D01*
X17066260Y-44902120D01*
X17053560Y-44914820D01*
X16888460Y-45313600D01*
X16888460Y-45742860D01*
X17053560Y-46141640D01*
X17355820Y-46446440D01*
X17754600Y-46611540D01*
X18183860Y-46611540D01*
X18582640Y-46446440D01*
X18887440Y-46144180D01*
X19052540Y-45745400D01*
X19052540Y-47856140D01*
X18887440Y-47457360D01*
X18585180Y-47152560D01*
X18186400Y-46987460D01*
X17757140Y-46987460D01*
X17358360Y-47152560D01*
X17053560Y-47454820D01*
X16888460Y-47853600D01*
X16888460Y-48282860D01*
X17053560Y-48681640D01*
X17355820Y-48986440D01*
X17754600Y-49151540D01*
X18183860Y-49151540D01*
X18582640Y-48986440D01*
X18887440Y-48684180D01*
X19052540Y-48285400D01*
X19052540Y-49679860D01*
X16512540Y-49679860D01*
X16512540Y-48285400D01*
X16512540Y-47856140D01*
X16512540Y-45745400D01*
X16512540Y-45316140D01*
X16347440Y-44917360D01*
X16045180Y-44612560D01*
X15646400Y-44447460D01*
X15217140Y-44447460D01*
X14818360Y-44612560D01*
X14513560Y-44914820D01*
X14348460Y-45313600D01*
X14348460Y-45742860D01*
X14513560Y-46141640D01*
X14815820Y-46446440D01*
X15214600Y-46611540D01*
X15643860Y-46611540D01*
X16042640Y-46446440D01*
X16347440Y-46144180D01*
X16512540Y-45745400D01*
X16512540Y-47856140D01*
X16347440Y-47457360D01*
X16045180Y-47152560D01*
X15646400Y-46987460D01*
X15217140Y-46987460D01*
X14818360Y-47152560D01*
X14513560Y-47454820D01*
X14348460Y-47853600D01*
X14348460Y-48282860D01*
X14513560Y-48681640D01*
X14815820Y-48986440D01*
X15214600Y-49151540D01*
X15643860Y-49151540D01*
X16042640Y-48986440D01*
X16347440Y-48684180D01*
X16512540Y-48285400D01*
X16512540Y-49679860D01*
X14259560Y-49679860D01*
X14259560Y-48371760D01*
X14259560Y-47767240D01*
X14257020Y-47426880D01*
X14257020Y-47185580D01*
X14165580Y-46964600D01*
X13995400Y-46794420D01*
X13972540Y-46784260D01*
X13972540Y-45745400D01*
X13972540Y-45316140D01*
X13807440Y-44917360D01*
X13771880Y-44879260D01*
X13771880Y-6715760D01*
X13771880Y-6286500D01*
X13606780Y-5887720D01*
X13304520Y-5582920D01*
X12905740Y-5417820D01*
X12476480Y-5417820D01*
X12077700Y-5582920D01*
X11772900Y-5885180D01*
X11607800Y-6283960D01*
X11607800Y-6713220D01*
X11772900Y-7112000D01*
X12075160Y-7416800D01*
X12473940Y-7581900D01*
X12903200Y-7581900D01*
X13301980Y-7416800D01*
X13606780Y-7114540D01*
X13771880Y-6715760D01*
X13771880Y-44879260D01*
X13505180Y-44612560D01*
X13167360Y-44470320D01*
X13167360Y-12352020D01*
X13167360Y-12047220D01*
X13050520Y-11765280D01*
X12834620Y-11549380D01*
X12552680Y-11432540D01*
X12247880Y-11432540D01*
X11965940Y-11549380D01*
X11750040Y-11765280D01*
X11633200Y-12047220D01*
X11633200Y-12352020D01*
X11750040Y-12633960D01*
X11965940Y-12849860D01*
X12247880Y-12966700D01*
X12552680Y-12966700D01*
X12834620Y-12849860D01*
X13050520Y-12633960D01*
X13167360Y-12352020D01*
X13167360Y-44470320D01*
X13106400Y-44447460D01*
X12677140Y-44447460D01*
X12278360Y-44612560D01*
X11973560Y-44914820D01*
X11808460Y-45313600D01*
X11808460Y-45742860D01*
X11973560Y-46141640D01*
X12275820Y-46446440D01*
X12674600Y-46611540D01*
X13103860Y-46611540D01*
X13502640Y-46446440D01*
X13807440Y-46144180D01*
X13972540Y-45745400D01*
X13972540Y-46784260D01*
X13771880Y-46702980D01*
X13192760Y-46700440D01*
X13042900Y-46850300D01*
X13042900Y-47917100D01*
X14109700Y-47917100D01*
X14259560Y-47767240D01*
X14259560Y-48371760D01*
X14109700Y-48221900D01*
X13042900Y-48221900D01*
X13042900Y-49288700D01*
X13192760Y-49438560D01*
X13771880Y-49436020D01*
X13995400Y-49344580D01*
X14165580Y-49174400D01*
X14257020Y-48953420D01*
X14257020Y-48712120D01*
X14259560Y-48371760D01*
X14259560Y-49679860D01*
X12738100Y-49679860D01*
X12738100Y-49288700D01*
X12738100Y-48221900D01*
X12738100Y-47917100D01*
X12738100Y-46850300D01*
X12588240Y-46700440D01*
X12009120Y-46702980D01*
X11785600Y-46794420D01*
X11615420Y-46964600D01*
X11523980Y-47185580D01*
X11523980Y-47426880D01*
X11521440Y-47767240D01*
X11671300Y-47917100D01*
X12738100Y-47917100D01*
X12738100Y-48221900D01*
X11671300Y-48221900D01*
X11521440Y-48371760D01*
X11523980Y-48712120D01*
X11523980Y-48953420D01*
X11615420Y-49174400D01*
X11785600Y-49344580D01*
X12009120Y-49436020D01*
X12588240Y-49438560D01*
X12738100Y-49288700D01*
X12738100Y-49679860D01*
X11518900Y-49679860D01*
X11518900Y-6802120D01*
X11518900Y-6197600D01*
X11516360Y-5857240D01*
X11516360Y-5615940D01*
X11424920Y-5394960D01*
X11254740Y-5224780D01*
X11031220Y-5133340D01*
X10452100Y-5130800D01*
X10302240Y-5280660D01*
X10302240Y-6347460D01*
X11369040Y-6347460D01*
X11518900Y-6197600D01*
X11518900Y-6802120D01*
X11369040Y-6652260D01*
X10302240Y-6652260D01*
X10302240Y-7719060D01*
X10452100Y-7868920D01*
X11031220Y-7866380D01*
X11254740Y-7774940D01*
X11424920Y-7604760D01*
X11516360Y-7383780D01*
X11516360Y-7142480D01*
X11518900Y-6802120D01*
X11518900Y-49679860D01*
X9997440Y-49679860D01*
X9997440Y-7719060D01*
X9997440Y-6652260D01*
X9997440Y-6347460D01*
X9997440Y-5280660D01*
X9847580Y-5130800D01*
X9268460Y-5133340D01*
X9044940Y-5224780D01*
X8874760Y-5394960D01*
X8783320Y-5615940D01*
X8783320Y-5857240D01*
X8780780Y-6197600D01*
X8930640Y-6347460D01*
X9997440Y-6347460D01*
X9997440Y-6652260D01*
X8930640Y-6652260D01*
X8780780Y-6802120D01*
X8783320Y-7142480D01*
X8783320Y-7383780D01*
X8874760Y-7604760D01*
X9044940Y-7774940D01*
X9268460Y-7866380D01*
X9847580Y-7868920D01*
X9997440Y-7719060D01*
X9997440Y-49679860D01*
X8074660Y-49679860D01*
X8074660Y-35613340D01*
X8074660Y-35384740D01*
X8074660Y-34114740D01*
X8074660Y-33886140D01*
X7988300Y-33675320D01*
X7825740Y-33512760D01*
X7614920Y-33426400D01*
X7538720Y-33426400D01*
X7538720Y-4693920D01*
X7536180Y-3286760D01*
X7002780Y-2006600D01*
X6548120Y-1666240D01*
X6334760Y-1879600D01*
X6334760Y-1452880D01*
X5994400Y-998220D01*
X4693920Y-462280D01*
X3286760Y-464820D01*
X2006600Y-998220D01*
X1666240Y-1452880D01*
X4000500Y-3784600D01*
X6334760Y-1452880D01*
X6334760Y-1879600D01*
X4216400Y-4000500D01*
X6548120Y-6334760D01*
X7002780Y-5994400D01*
X7538720Y-4693920D01*
X7538720Y-33426400D01*
X7386320Y-33426400D01*
X7175500Y-33512760D01*
X7012940Y-33675320D01*
X6926580Y-33886140D01*
X6926580Y-34114740D01*
X7012940Y-34325560D01*
X7175500Y-34488120D01*
X7386320Y-34574480D01*
X7614920Y-34574480D01*
X7825740Y-34488120D01*
X7988300Y-34325560D01*
X8074660Y-34114740D01*
X8074660Y-35384740D01*
X7988300Y-35173920D01*
X7825740Y-35011360D01*
X7614920Y-34925000D01*
X7386320Y-34925000D01*
X7175500Y-35011360D01*
X7012940Y-35173920D01*
X6926580Y-35384740D01*
X6926580Y-35613340D01*
X7012940Y-35824160D01*
X7175500Y-35986720D01*
X7386320Y-36073080D01*
X7614920Y-36073080D01*
X7825740Y-35986720D01*
X7988300Y-35824160D01*
X8074660Y-35613340D01*
X8074660Y-49679860D01*
X7538720Y-49679860D01*
X7538720Y-46692820D01*
X7536180Y-45285660D01*
X7002780Y-44005500D01*
X6548120Y-43665140D01*
X6334760Y-43878500D01*
X6334760Y-43451780D01*
X6334760Y-6548120D01*
X4000500Y-4216400D01*
X3784600Y-4429760D01*
X3784600Y-4000500D01*
X1452880Y-1666240D01*
X998220Y-2006600D01*
X462280Y-3307080D01*
X464820Y-4714240D01*
X998220Y-5994400D01*
X1452880Y-6334760D01*
X3784600Y-4000500D01*
X3784600Y-4429760D01*
X1666240Y-6548120D01*
X2006600Y-7002780D01*
X3307080Y-7538720D01*
X4714240Y-7536180D01*
X5994400Y-7002780D01*
X6334760Y-6548120D01*
X6334760Y-43451780D01*
X5994400Y-42997120D01*
X5773420Y-42905680D01*
X5773420Y-36614100D01*
X5773420Y-36385500D01*
X5687060Y-36174680D01*
X5524500Y-36012120D01*
X5323840Y-35928300D01*
X5323840Y-30614620D01*
X5323840Y-30386020D01*
X5237480Y-30175200D01*
X5074920Y-30012640D01*
X4864100Y-29926280D01*
X4635500Y-29926280D01*
X4424680Y-30012640D01*
X4262120Y-30175200D01*
X4175760Y-30386020D01*
X4175760Y-30614620D01*
X4262120Y-30825440D01*
X4424680Y-30988000D01*
X4635500Y-31074360D01*
X4864100Y-31074360D01*
X5074920Y-30988000D01*
X5237480Y-30825440D01*
X5323840Y-30614620D01*
X5323840Y-35928300D01*
X5313680Y-35925760D01*
X5085080Y-35925760D01*
X4874260Y-36012120D01*
X4711700Y-36174680D01*
X4625340Y-36385500D01*
X4625340Y-36614100D01*
X4711700Y-36824920D01*
X4874260Y-36987480D01*
X5085080Y-37073840D01*
X5313680Y-37073840D01*
X5524500Y-36987480D01*
X5687060Y-36824920D01*
X5773420Y-36614100D01*
X5773420Y-42905680D01*
X4693920Y-42461180D01*
X3774440Y-42461180D01*
X3774440Y-37614860D01*
X3774440Y-37386260D01*
X3688080Y-37175440D01*
X3573780Y-37061140D01*
X3573780Y-13014960D01*
X3573780Y-12786360D01*
X3487420Y-12575540D01*
X3324860Y-12412980D01*
X3114040Y-12326620D01*
X2885440Y-12326620D01*
X2674620Y-12412980D01*
X2512060Y-12575540D01*
X2425700Y-12786360D01*
X2425700Y-13014960D01*
X2512060Y-13225780D01*
X2674620Y-13388340D01*
X2885440Y-13474700D01*
X3114040Y-13474700D01*
X3324860Y-13388340D01*
X3487420Y-13225780D01*
X3573780Y-13014960D01*
X3573780Y-37061140D01*
X3525520Y-37012880D01*
X3314700Y-36926520D01*
X3086100Y-36926520D01*
X2875280Y-37012880D01*
X2712720Y-37175440D01*
X2626360Y-37386260D01*
X2626360Y-37614860D01*
X2712720Y-37825680D01*
X2875280Y-37988240D01*
X3086100Y-38074600D01*
X3314700Y-38074600D01*
X3525520Y-37988240D01*
X3688080Y-37825680D01*
X3774440Y-37614860D01*
X3774440Y-42461180D01*
X3286760Y-42463720D01*
X2006600Y-42997120D01*
X1666240Y-43451780D01*
X4000500Y-45783500D01*
X6334760Y-43451780D01*
X6334760Y-43878500D01*
X4216400Y-45999400D01*
X6548120Y-48333660D01*
X7002780Y-47993300D01*
X7538720Y-46692820D01*
X7538720Y-49679860D01*
X6334760Y-49679860D01*
X6334760Y-48547020D01*
X4000500Y-46215300D01*
X3784600Y-46428660D01*
X3784600Y-45999400D01*
X1452880Y-43665140D01*
X998220Y-44005500D01*
X462280Y-45305980D01*
X464820Y-46713140D01*
X998220Y-47993300D01*
X1452880Y-48333660D01*
X3784600Y-45999400D01*
X3784600Y-46428660D01*
X1666240Y-48547020D01*
X2006600Y-49001680D01*
X3307080Y-49537620D01*
X4714240Y-49535080D01*
X5994400Y-49001680D01*
X6334760Y-48547020D01*
X6334760Y-49679860D01*
X99060Y-49679860D01*
X99060Y-320040D01*
X122679460Y-320040D01*
X122679460Y-49679860D01*
X122679460Y-49679860D01*
G37*
X122679460Y-49679860D02*
X122537220Y-49679860D01*
X122537220Y-46692820D01*
X122537220Y-4693920D01*
X122534680Y-3286760D01*
X122001280Y-2006600D01*
X121546620Y-1666240D01*
X121333260Y-1879600D01*
X121333260Y-1452880D01*
X120992900Y-998220D01*
X119692420Y-462280D01*
X118285260Y-464820D01*
X117005100Y-998220D01*
X116664740Y-1452880D01*
X118999000Y-3784600D01*
X121333260Y-1452880D01*
X121333260Y-1879600D01*
X119214900Y-4000500D01*
X121546620Y-6334760D01*
X122001280Y-5994400D01*
X122537220Y-4693920D01*
X122537220Y-46692820D01*
X122534680Y-45285660D01*
X122067320Y-44162980D01*
X122067320Y-36652200D01*
X122067320Y-36347400D01*
X121973340Y-36118800D01*
X121973340Y-24813260D01*
X121973340Y-24584660D01*
X121886980Y-24373840D01*
X121724420Y-24211280D01*
X121513600Y-24124920D01*
X121333260Y-24124920D01*
X121333260Y-6548120D01*
X118999000Y-4216400D01*
X118783100Y-4429760D01*
X118783100Y-4000500D01*
X116451380Y-1666240D01*
X115996720Y-2006600D01*
X115460780Y-3307080D01*
X115463320Y-4714240D01*
X115996720Y-5994400D01*
X116451380Y-6334760D01*
X118783100Y-4000500D01*
X118783100Y-4429760D01*
X116664740Y-6548120D01*
X117005100Y-7002780D01*
X118305580Y-7538720D01*
X119712740Y-7536180D01*
X120992900Y-7002780D01*
X121333260Y-6548120D01*
X121333260Y-24124920D01*
X121285000Y-24124920D01*
X121074180Y-24211280D01*
X120911620Y-24373840D01*
X120825260Y-24584660D01*
X120825260Y-24813260D01*
X120911620Y-25024080D01*
X121074180Y-25186640D01*
X121285000Y-25273000D01*
X121513600Y-25273000D01*
X121724420Y-25186640D01*
X121886980Y-25024080D01*
X121973340Y-24813260D01*
X121973340Y-36118800D01*
X121950480Y-36065460D01*
X121734580Y-35849560D01*
X121452640Y-35732720D01*
X121147840Y-35732720D01*
X120865900Y-35849560D01*
X120766840Y-35948620D01*
X120766840Y-35699700D01*
X120766840Y-35394900D01*
X120650000Y-35112960D01*
X120434100Y-34897060D01*
X120152160Y-34780220D01*
X119875300Y-34780220D01*
X119875300Y-24714200D01*
X119875300Y-24485600D01*
X119875300Y-9413240D01*
X119875300Y-9184640D01*
X119788940Y-8973820D01*
X119626380Y-8811260D01*
X119415560Y-8724900D01*
X119186960Y-8724900D01*
X118976140Y-8811260D01*
X118813580Y-8973820D01*
X118727220Y-9184640D01*
X118727220Y-9413240D01*
X118813580Y-9624060D01*
X118976140Y-9786620D01*
X119186960Y-9872980D01*
X119415560Y-9872980D01*
X119626380Y-9786620D01*
X119788940Y-9624060D01*
X119875300Y-9413240D01*
X119875300Y-24485600D01*
X119788940Y-24274780D01*
X119626380Y-24112220D01*
X119415560Y-24025860D01*
X119186960Y-24025860D01*
X118976140Y-24112220D01*
X118813580Y-24274780D01*
X118727220Y-24485600D01*
X118727220Y-24714200D01*
X118813580Y-24925020D01*
X118976140Y-25087580D01*
X119186960Y-25173940D01*
X119415560Y-25173940D01*
X119626380Y-25087580D01*
X119788940Y-24925020D01*
X119875300Y-24714200D01*
X119875300Y-34780220D01*
X119847360Y-34780220D01*
X119667020Y-34853880D01*
X119667020Y-31051500D01*
X119667020Y-30746700D01*
X119550180Y-30464760D01*
X119334280Y-30248860D01*
X119052340Y-30132020D01*
X118747540Y-30132020D01*
X118465600Y-30248860D01*
X118249700Y-30464760D01*
X118132860Y-30746700D01*
X118132860Y-31051500D01*
X118249700Y-31333440D01*
X118465600Y-31549340D01*
X118747540Y-31666180D01*
X119052340Y-31666180D01*
X119334280Y-31549340D01*
X119550180Y-31333440D01*
X119667020Y-31051500D01*
X119667020Y-34853880D01*
X119565420Y-34897060D01*
X119349520Y-35112960D01*
X119232680Y-35394900D01*
X119232680Y-35699700D01*
X119349520Y-35981640D01*
X119565420Y-36197540D01*
X119847360Y-36314380D01*
X120152160Y-36314380D01*
X120434100Y-36197540D01*
X120650000Y-35981640D01*
X120766840Y-35699700D01*
X120766840Y-35948620D01*
X120650000Y-36065460D01*
X120533160Y-36347400D01*
X120533160Y-36652200D01*
X120650000Y-36934140D01*
X120865900Y-37150040D01*
X121147840Y-37266880D01*
X121452640Y-37266880D01*
X121734580Y-37150040D01*
X121950480Y-36934140D01*
X122067320Y-36652200D01*
X122067320Y-44162980D01*
X122001280Y-44005500D01*
X121546620Y-43665140D01*
X121333260Y-43878500D01*
X121333260Y-43451780D01*
X120992900Y-42997120D01*
X119692420Y-42461180D01*
X118285260Y-42463720D01*
X117566440Y-42760900D01*
X117566440Y-19151600D01*
X117566440Y-18846800D01*
X117449600Y-18564860D01*
X117233700Y-18348960D01*
X116992400Y-18249900D01*
X117233700Y-18150840D01*
X117449600Y-17934940D01*
X117566440Y-17653000D01*
X117566440Y-17348200D01*
X117449600Y-17066260D01*
X117233700Y-16850360D01*
X117449600Y-16634460D01*
X117566440Y-16352520D01*
X117566440Y-16047720D01*
X117449600Y-15765780D01*
X117233700Y-15549880D01*
X116951760Y-15433040D01*
X116646960Y-15433040D01*
X116365020Y-15549880D01*
X116149120Y-15765780D01*
X116032280Y-16047720D01*
X116032280Y-16352520D01*
X116149120Y-16634460D01*
X116365020Y-16850360D01*
X116149120Y-17066260D01*
X116032280Y-17348200D01*
X116032280Y-17653000D01*
X116149120Y-17934940D01*
X116365020Y-18150840D01*
X116603780Y-18249900D01*
X116365020Y-18348960D01*
X116149120Y-18564860D01*
X116032280Y-18846800D01*
X116032280Y-19151600D01*
X116149120Y-19433540D01*
X116365020Y-19649440D01*
X116646960Y-19766280D01*
X116951760Y-19766280D01*
X117233700Y-19649440D01*
X117449600Y-19433540D01*
X117566440Y-19151600D01*
X117566440Y-42760900D01*
X117005100Y-42997120D01*
X116664740Y-43451780D01*
X118999000Y-45783500D01*
X121333260Y-43451780D01*
X121333260Y-43878500D01*
X119214900Y-45999400D01*
X121546620Y-48333660D01*
X122001280Y-47993300D01*
X122537220Y-46692820D01*
X122537220Y-49679860D01*
X121333260Y-49679860D01*
X121333260Y-48547020D01*
X118999000Y-46215300D01*
X118783100Y-46428660D01*
X118783100Y-45999400D01*
X116451380Y-43665140D01*
X116398040Y-43703240D01*
X116398040Y-36398200D01*
X116357400Y-35867340D01*
X116227860Y-35554920D01*
X116001800Y-35483800D01*
X115966240Y-35519360D01*
X115966240Y-17653000D01*
X115966240Y-17348200D01*
X115849400Y-17066260D01*
X115633500Y-16850360D01*
X115351560Y-16733520D01*
X115046760Y-16733520D01*
X114764820Y-16850360D01*
X114548920Y-17066260D01*
X114432080Y-17348200D01*
X114432080Y-17653000D01*
X114548920Y-17934940D01*
X114764820Y-18150840D01*
X115046760Y-18267680D01*
X115351560Y-18267680D01*
X115633500Y-18150840D01*
X115849400Y-17934940D01*
X115966240Y-17653000D01*
X115966240Y-35519360D01*
X115785900Y-35699700D01*
X115785900Y-35267900D01*
X115714780Y-35041840D01*
X115206780Y-34871660D01*
X114675920Y-34912300D01*
X114363500Y-35041840D01*
X114292380Y-35267900D01*
X115039140Y-36014660D01*
X115785900Y-35267900D01*
X115785900Y-35699700D01*
X115255040Y-36230560D01*
X116001800Y-36977320D01*
X116227860Y-36906200D01*
X116398040Y-36398200D01*
X116398040Y-43703240D01*
X116121180Y-43911520D01*
X116121180Y-38986460D01*
X116121180Y-38557200D01*
X115956080Y-38158420D01*
X115785900Y-37985700D01*
X115785900Y-37193220D01*
X115039140Y-36446460D01*
X114823240Y-36662360D01*
X114823240Y-36230560D01*
X114076480Y-35483800D01*
X113850420Y-35554920D01*
X113680240Y-36062920D01*
X113720880Y-36593780D01*
X113850420Y-36906200D01*
X114076480Y-36977320D01*
X114823240Y-36230560D01*
X114823240Y-36662360D01*
X114292380Y-37193220D01*
X114363500Y-37419280D01*
X114871500Y-37589460D01*
X115402360Y-37548820D01*
X115714780Y-37419280D01*
X115785900Y-37193220D01*
X115785900Y-37985700D01*
X115653820Y-37853620D01*
X115255040Y-37688520D01*
X114825780Y-37688520D01*
X114427000Y-37853620D01*
X114122200Y-38155880D01*
X113957100Y-38554660D01*
X113957100Y-38983920D01*
X114122200Y-39382700D01*
X114424460Y-39687500D01*
X114823240Y-39852600D01*
X115252500Y-39852600D01*
X115651280Y-39687500D01*
X115956080Y-39385240D01*
X116121180Y-38986460D01*
X116121180Y-43911520D01*
X115996720Y-44005500D01*
X115460780Y-45305980D01*
X115463320Y-46713140D01*
X115996720Y-47993300D01*
X116451380Y-48333660D01*
X118783100Y-45999400D01*
X118783100Y-46428660D01*
X116664740Y-48547020D01*
X117005100Y-49001680D01*
X118305580Y-49537620D01*
X119712740Y-49535080D01*
X120992900Y-49001680D01*
X121333260Y-48547020D01*
X121333260Y-49679860D01*
X113581180Y-49679860D01*
X113581180Y-38986460D01*
X113581180Y-38557200D01*
X113581180Y-36446460D01*
X113581180Y-36017200D01*
X113416080Y-35618420D01*
X113113820Y-35313620D01*
X112715040Y-35148520D01*
X112285780Y-35148520D01*
X111887000Y-35313620D01*
X111833660Y-35364420D01*
X111833660Y-8282940D01*
X111803180Y-7559040D01*
X111582200Y-7033260D01*
X111305340Y-6903720D01*
X111091980Y-7117080D01*
X111091980Y-6690360D01*
X110962440Y-6413500D01*
X110281720Y-6162040D01*
X109557820Y-6192520D01*
X109032040Y-6413500D01*
X108902500Y-6690360D01*
X109997240Y-7782560D01*
X111091980Y-6690360D01*
X111091980Y-7117080D01*
X110213140Y-7998460D01*
X111305340Y-9093200D01*
X111582200Y-8963660D01*
X111833660Y-8282940D01*
X111833660Y-35364420D01*
X111582200Y-35615880D01*
X111569500Y-35646360D01*
X111569500Y-14315440D01*
X111569500Y-13690600D01*
X111330740Y-13114020D01*
X111091980Y-12872720D01*
X111091980Y-9306560D01*
X109997240Y-8214360D01*
X109781340Y-8427720D01*
X109781340Y-7998460D01*
X108689140Y-6903720D01*
X108412280Y-7033260D01*
X108160820Y-7713980D01*
X108191300Y-8437880D01*
X108412280Y-8963660D01*
X108689140Y-9093200D01*
X109781340Y-7998460D01*
X109781340Y-8427720D01*
X108902500Y-9306560D01*
X109032040Y-9583420D01*
X109712760Y-9834880D01*
X110436660Y-9804400D01*
X110962440Y-9583420D01*
X111091980Y-9306560D01*
X111091980Y-12872720D01*
X110891320Y-12672060D01*
X110314740Y-12430760D01*
X109689900Y-12430760D01*
X109113320Y-12669520D01*
X108671360Y-13108940D01*
X108430060Y-13685520D01*
X108430060Y-14310360D01*
X108668820Y-14886940D01*
X109108240Y-15328900D01*
X109684820Y-15570200D01*
X110309660Y-15570200D01*
X110886240Y-15331440D01*
X111328200Y-14892020D01*
X111569500Y-14315440D01*
X111569500Y-35646360D01*
X111467900Y-35890200D01*
X111467900Y-20452080D01*
X111467900Y-20147280D01*
X111351060Y-19865340D01*
X111135160Y-19649440D01*
X110853220Y-19532600D01*
X110548420Y-19532600D01*
X110266480Y-19649440D01*
X110050580Y-19865340D01*
X109933740Y-20147280D01*
X109933740Y-20452080D01*
X110050580Y-20734020D01*
X110266480Y-20949920D01*
X110548420Y-21066760D01*
X110853220Y-21066760D01*
X111135160Y-20949920D01*
X111351060Y-20734020D01*
X111467900Y-20452080D01*
X111467900Y-35890200D01*
X111417100Y-36014660D01*
X111417100Y-36443920D01*
X111582200Y-36842700D01*
X111884460Y-37147500D01*
X112283240Y-37312600D01*
X112712500Y-37312600D01*
X113111280Y-37147500D01*
X113416080Y-36845240D01*
X113581180Y-36446460D01*
X113581180Y-38557200D01*
X113416080Y-38158420D01*
X113113820Y-37853620D01*
X112715040Y-37688520D01*
X112285780Y-37688520D01*
X111887000Y-37853620D01*
X111582200Y-38155880D01*
X111417100Y-38554660D01*
X111417100Y-38983920D01*
X111582200Y-39382700D01*
X111884460Y-39687500D01*
X112283240Y-39852600D01*
X112712500Y-39852600D01*
X113111280Y-39687500D01*
X113416080Y-39385240D01*
X113581180Y-38986460D01*
X113581180Y-49679860D01*
X113352580Y-49679860D01*
X113352580Y-47825660D01*
X113352580Y-47698660D01*
X113352580Y-46174660D01*
X113352580Y-43825160D01*
X113352580Y-43698160D01*
X113352580Y-42174160D01*
X113304320Y-42057320D01*
X113212880Y-41965880D01*
X113096040Y-41917620D01*
X112969040Y-41917620D01*
X111445040Y-41917620D01*
X111328200Y-41965880D01*
X111236760Y-42057320D01*
X111188500Y-42174160D01*
X111188500Y-42301160D01*
X111188500Y-43825160D01*
X111236760Y-43942000D01*
X111328200Y-44033440D01*
X111445040Y-44081700D01*
X111572040Y-44081700D01*
X113096040Y-44081700D01*
X113212880Y-44033440D01*
X113304320Y-43942000D01*
X113352580Y-43825160D01*
X113352580Y-46174660D01*
X113304320Y-46057820D01*
X113212880Y-45966380D01*
X113096040Y-45918120D01*
X112969040Y-45918120D01*
X111445040Y-45918120D01*
X111328200Y-45966380D01*
X111236760Y-46057820D01*
X111188500Y-46174660D01*
X111188500Y-46301660D01*
X111188500Y-47825660D01*
X111236760Y-47942500D01*
X111328200Y-48033940D01*
X111445040Y-48082200D01*
X111572040Y-48082200D01*
X113096040Y-48082200D01*
X113212880Y-48033940D01*
X113304320Y-47942500D01*
X113352580Y-47825660D01*
X113352580Y-49679860D01*
X111089440Y-49679860D01*
X111089440Y-47167800D01*
X111089440Y-43167300D01*
X111048800Y-42636440D01*
X111041180Y-42616120D01*
X111041180Y-39596060D01*
X111041180Y-39469060D01*
X111041180Y-37945060D01*
X111041180Y-36446460D01*
X111041180Y-36017200D01*
X110876080Y-35618420D01*
X110573820Y-35313620D01*
X110175040Y-35148520D01*
X109745780Y-35148520D01*
X109374940Y-35300920D01*
X109374940Y-29215080D01*
X109374940Y-28986480D01*
X109288580Y-28775660D01*
X109126020Y-28613100D01*
X108915200Y-28526740D01*
X108686600Y-28526740D01*
X108475780Y-28613100D01*
X108313220Y-28775660D01*
X108226860Y-28986480D01*
X108226860Y-29215080D01*
X108313220Y-29425900D01*
X108475780Y-29588460D01*
X108686600Y-29674820D01*
X108915200Y-29674820D01*
X109126020Y-29588460D01*
X109288580Y-29425900D01*
X109374940Y-29215080D01*
X109374940Y-35300920D01*
X109347000Y-35313620D01*
X109075220Y-35582860D01*
X109075220Y-33815020D01*
X109075220Y-33586420D01*
X108988860Y-33375600D01*
X108826300Y-33213040D01*
X108615480Y-33126680D01*
X108386880Y-33126680D01*
X108176060Y-33213040D01*
X108013500Y-33375600D01*
X107927140Y-33586420D01*
X107927140Y-33815020D01*
X108013500Y-34025840D01*
X108176060Y-34188400D01*
X108386880Y-34274760D01*
X108615480Y-34274760D01*
X108826300Y-34188400D01*
X108988860Y-34025840D01*
X109075220Y-33815020D01*
X109075220Y-35582860D01*
X109042200Y-35615880D01*
X108877100Y-36014660D01*
X108877100Y-36443920D01*
X109042200Y-36842700D01*
X109344460Y-37147500D01*
X109743240Y-37312600D01*
X110172500Y-37312600D01*
X110571280Y-37147500D01*
X110876080Y-36845240D01*
X111041180Y-36446460D01*
X111041180Y-37945060D01*
X110992920Y-37828220D01*
X110901480Y-37736780D01*
X110784640Y-37688520D01*
X110657640Y-37688520D01*
X109133640Y-37688520D01*
X109016800Y-37736780D01*
X108925360Y-37828220D01*
X108877100Y-37945060D01*
X108877100Y-38072060D01*
X108877100Y-39596060D01*
X108925360Y-39712900D01*
X109016800Y-39804340D01*
X109133640Y-39852600D01*
X109260640Y-39852600D01*
X110784640Y-39852600D01*
X110901480Y-39804340D01*
X110992920Y-39712900D01*
X111041180Y-39596060D01*
X111041180Y-42616120D01*
X110919260Y-42324020D01*
X110693200Y-42252900D01*
X110477300Y-42468800D01*
X110477300Y-42037000D01*
X110406180Y-41810940D01*
X109898180Y-41640760D01*
X109367320Y-41681400D01*
X109054900Y-41810940D01*
X108983780Y-42037000D01*
X109730540Y-42783760D01*
X110477300Y-42037000D01*
X110477300Y-42468800D01*
X109946440Y-42999660D01*
X110693200Y-43746420D01*
X110919260Y-43675300D01*
X111089440Y-43167300D01*
X111089440Y-47167800D01*
X111048800Y-46636940D01*
X110919260Y-46324520D01*
X110693200Y-46253400D01*
X110477300Y-46469300D01*
X110477300Y-46037500D01*
X110477300Y-43962320D01*
X109730540Y-43215560D01*
X109514640Y-43431460D01*
X109514640Y-42999660D01*
X108767880Y-42252900D01*
X108541820Y-42324020D01*
X108371640Y-42832020D01*
X108412280Y-43362880D01*
X108541820Y-43675300D01*
X108767880Y-43746420D01*
X109514640Y-42999660D01*
X109514640Y-43431460D01*
X108983780Y-43962320D01*
X109054900Y-44188380D01*
X109562900Y-44358560D01*
X110093760Y-44317920D01*
X110406180Y-44188380D01*
X110477300Y-43962320D01*
X110477300Y-46037500D01*
X110406180Y-45811440D01*
X109898180Y-45641260D01*
X109367320Y-45681900D01*
X109054900Y-45811440D01*
X108983780Y-46037500D01*
X109730540Y-46784260D01*
X110477300Y-46037500D01*
X110477300Y-46469300D01*
X109946440Y-47000160D01*
X110693200Y-47746920D01*
X110919260Y-47675800D01*
X111089440Y-47167800D01*
X111089440Y-49679860D01*
X110477300Y-49679860D01*
X110477300Y-47962820D01*
X109730540Y-47216060D01*
X109514640Y-47431960D01*
X109514640Y-47000160D01*
X108767880Y-46253400D01*
X108541820Y-46324520D01*
X108371640Y-46832520D01*
X108412280Y-47363380D01*
X108541820Y-47675800D01*
X108767880Y-47746920D01*
X109514640Y-47000160D01*
X109514640Y-47431960D01*
X108983780Y-47962820D01*
X109054900Y-48188880D01*
X109562900Y-48359060D01*
X110093760Y-48318420D01*
X110406180Y-48188880D01*
X110477300Y-47962820D01*
X110477300Y-49679860D01*
X107767120Y-49679860D01*
X107767120Y-22151340D01*
X107767120Y-21846540D01*
X107650280Y-21564600D01*
X107434380Y-21348700D01*
X107368340Y-21320760D01*
X107368340Y-11315700D01*
X107368340Y-10690860D01*
X107129580Y-10114280D01*
X106690160Y-9672320D01*
X106113580Y-9431020D01*
X105488740Y-9431020D01*
X104912160Y-9669780D01*
X104470200Y-10109200D01*
X104228900Y-10685780D01*
X104228900Y-11310620D01*
X104467660Y-11887200D01*
X104907080Y-12329160D01*
X105483660Y-12570460D01*
X106108500Y-12570460D01*
X106685080Y-12331700D01*
X107127040Y-11892280D01*
X107368340Y-11315700D01*
X107368340Y-21320760D01*
X107152440Y-21231860D01*
X106847640Y-21231860D01*
X106565700Y-21348700D01*
X106349800Y-21564600D01*
X106232960Y-21846540D01*
X106232960Y-22151340D01*
X106349800Y-22433280D01*
X106565700Y-22649180D01*
X106847640Y-22766020D01*
X107152440Y-22766020D01*
X107434380Y-22649180D01*
X107650280Y-22433280D01*
X107767120Y-22151340D01*
X107767120Y-49679860D01*
X106304080Y-49679860D01*
X106304080Y-29502100D01*
X106304080Y-28897580D01*
X106301540Y-26118820D01*
X106301540Y-25877520D01*
X106210100Y-25656540D01*
X106039920Y-25486360D01*
X105816400Y-25394920D01*
X103301800Y-25392380D01*
X103151940Y-25542240D01*
X103151940Y-29047440D01*
X106154220Y-29047440D01*
X106304080Y-28897580D01*
X106304080Y-29502100D01*
X106154220Y-29352240D01*
X103151940Y-29352240D01*
X103151940Y-32857440D01*
X103301800Y-33007300D01*
X105816400Y-33004760D01*
X106039920Y-32913320D01*
X106210100Y-32743140D01*
X106301540Y-32522160D01*
X106301540Y-32280860D01*
X106304080Y-29502100D01*
X106304080Y-49679860D01*
X105597960Y-49679860D01*
X105597960Y-43599100D01*
X105597960Y-38399720D01*
X102847140Y-38399720D01*
X102847140Y-32857440D01*
X102847140Y-29352240D01*
X102847140Y-29047440D01*
X102847140Y-25542240D01*
X102765860Y-25460960D01*
X102765860Y-23451820D01*
X102765860Y-23147020D01*
X102765860Y-21851620D01*
X102765860Y-21546820D01*
X102649020Y-21264880D01*
X102433120Y-21048980D01*
X102151180Y-20932140D01*
X101846380Y-20932140D01*
X101564440Y-21048980D01*
X101467920Y-21145500D01*
X101467920Y-20353020D01*
X101467920Y-20048220D01*
X101351080Y-19766280D01*
X101216460Y-19631660D01*
X101216460Y-4782820D01*
X101216460Y-4218940D01*
X101000560Y-3698240D01*
X100601780Y-3299460D01*
X100081080Y-3083560D01*
X99517200Y-3083560D01*
X98996500Y-3299460D01*
X98597720Y-3698240D01*
X98450400Y-4046220D01*
X98450400Y-3957320D01*
X98117660Y-3152140D01*
X97774760Y-2941320D01*
X97558860Y-3157220D01*
X97558860Y-2725420D01*
X97348040Y-2382520D01*
X96436180Y-2026920D01*
X95455740Y-2049780D01*
X94650560Y-2382520D01*
X94439740Y-2725420D01*
X95999300Y-4284980D01*
X97558860Y-2725420D01*
X97558860Y-3157220D01*
X96215200Y-4500880D01*
X97774760Y-6060440D01*
X98117660Y-5849620D01*
X98458020Y-4970780D01*
X98597720Y-5303520D01*
X98996500Y-5702300D01*
X99517200Y-5918200D01*
X100081080Y-5918200D01*
X100601780Y-5702300D01*
X101000560Y-5303520D01*
X101216460Y-4782820D01*
X101216460Y-19631660D01*
X101135180Y-19550380D01*
X100853240Y-19433540D01*
X100548440Y-19433540D01*
X100266500Y-19550380D01*
X100050600Y-19766280D01*
X99933760Y-20048220D01*
X99933760Y-20353020D01*
X100050600Y-20634960D01*
X100266500Y-20850860D01*
X100548440Y-20967700D01*
X100853240Y-20967700D01*
X101135180Y-20850860D01*
X101351080Y-20634960D01*
X101467920Y-20353020D01*
X101467920Y-21145500D01*
X101348540Y-21264880D01*
X101231700Y-21546820D01*
X101231700Y-21851620D01*
X101348540Y-22133560D01*
X101564440Y-22349460D01*
X101846380Y-22466300D01*
X102151180Y-22466300D01*
X102433120Y-22349460D01*
X102649020Y-22133560D01*
X102765860Y-21851620D01*
X102765860Y-23147020D01*
X102649020Y-22865080D01*
X102433120Y-22649180D01*
X102151180Y-22532340D01*
X101846380Y-22532340D01*
X101564440Y-22649180D01*
X101348540Y-22862540D01*
X101135180Y-22649180D01*
X100853240Y-22532340D01*
X100548440Y-22532340D01*
X100266500Y-22649180D01*
X100266500Y-21851620D01*
X100266500Y-21546820D01*
X100149660Y-21264880D01*
X99933760Y-21048980D01*
X99651820Y-20932140D01*
X99347020Y-20932140D01*
X99065080Y-21048980D01*
X98849180Y-21264880D01*
X98732340Y-21546820D01*
X98732340Y-21851620D01*
X98849180Y-22133560D01*
X99065080Y-22349460D01*
X99347020Y-22466300D01*
X99651820Y-22466300D01*
X99933760Y-22349460D01*
X100149660Y-22133560D01*
X100266500Y-21851620D01*
X100266500Y-22649180D01*
X100050600Y-22865080D01*
X99933760Y-23147020D01*
X99933760Y-23451820D01*
X100050600Y-23733760D01*
X100266500Y-23949660D01*
X100548440Y-24066500D01*
X100853240Y-24066500D01*
X101135180Y-23949660D01*
X101348540Y-23733760D01*
X101564440Y-23949660D01*
X101846380Y-24066500D01*
X102151180Y-24066500D01*
X102433120Y-23949660D01*
X102649020Y-23733760D01*
X102765860Y-23451820D01*
X102765860Y-25460960D01*
X102697280Y-25392380D01*
X100182680Y-25394920D01*
X99959160Y-25486360D01*
X99788980Y-25656540D01*
X99697540Y-25877520D01*
X99697540Y-26118820D01*
X99695000Y-28897580D01*
X99844860Y-29047440D01*
X102847140Y-29047440D01*
X102847140Y-29352240D01*
X99844860Y-29352240D01*
X99695000Y-29502100D01*
X99697540Y-32280860D01*
X99697540Y-32522160D01*
X99788980Y-32743140D01*
X99959160Y-32913320D01*
X100182680Y-33004760D01*
X102697280Y-33007300D01*
X102847140Y-32857440D01*
X102847140Y-38399720D01*
X99466400Y-38399720D01*
X99466400Y-26451560D01*
X99466400Y-26146760D01*
X99349560Y-25864820D01*
X99133660Y-25648920D01*
X98851720Y-25532080D01*
X98546920Y-25532080D01*
X98264980Y-25648920D01*
X98224340Y-25689560D01*
X98224340Y-14945360D01*
X98224340Y-14061440D01*
X97886520Y-13243560D01*
X97558860Y-12913360D01*
X97558860Y-6276340D01*
X95999300Y-4716780D01*
X95783400Y-4932680D01*
X95783400Y-4500880D01*
X94223840Y-2941320D01*
X93880940Y-3152140D01*
X93538040Y-4028440D01*
X93400880Y-3698240D01*
X93002100Y-3299460D01*
X92481400Y-3083560D01*
X91917520Y-3083560D01*
X91396820Y-3299460D01*
X90998040Y-3698240D01*
X90782140Y-4218940D01*
X90782140Y-4782820D01*
X90998040Y-5303520D01*
X91396820Y-5702300D01*
X91917520Y-5918200D01*
X92481400Y-5918200D01*
X93002100Y-5702300D01*
X93400880Y-5303520D01*
X93545660Y-4953000D01*
X93548200Y-5044440D01*
X93880940Y-5849620D01*
X94223840Y-6060440D01*
X95783400Y-4500880D01*
X95783400Y-4932680D01*
X94439740Y-6276340D01*
X94650560Y-6619240D01*
X95562420Y-6974840D01*
X96542860Y-6951980D01*
X97348040Y-6619240D01*
X97558860Y-6276340D01*
X97558860Y-12913360D01*
X97416620Y-12771120D01*
X97416620Y-10982960D01*
X97416620Y-10419080D01*
X97200720Y-9898380D01*
X96801940Y-9499600D01*
X96281240Y-9283700D01*
X95717360Y-9283700D01*
X95196660Y-9499600D01*
X94797880Y-9898380D01*
X94581980Y-10419080D01*
X94581980Y-10982960D01*
X94797880Y-11503660D01*
X95196660Y-11902440D01*
X95717360Y-12118340D01*
X96281240Y-12118340D01*
X96801940Y-11902440D01*
X97200720Y-11503660D01*
X97416620Y-10982960D01*
X97416620Y-12771120D01*
X97261680Y-12616180D01*
X96443800Y-12275820D01*
X95559880Y-12275820D01*
X94742000Y-12613640D01*
X94114620Y-13238480D01*
X93774260Y-14056360D01*
X93774260Y-14940280D01*
X94112080Y-15758160D01*
X94736920Y-16385540D01*
X95554800Y-16725900D01*
X96438720Y-16725900D01*
X97256600Y-16388080D01*
X97883980Y-15763240D01*
X98224340Y-14945360D01*
X98224340Y-25689560D01*
X98049080Y-25864820D01*
X97932240Y-26146760D01*
X97932240Y-26451560D01*
X98049080Y-26733500D01*
X98264980Y-26949400D01*
X98546920Y-27066240D01*
X98851720Y-27066240D01*
X99133660Y-26949400D01*
X99349560Y-26733500D01*
X99466400Y-26451560D01*
X99466400Y-38399720D01*
X98366580Y-38399720D01*
X98366580Y-29651960D01*
X98366580Y-29347160D01*
X98249740Y-29065220D01*
X98033840Y-28849320D01*
X97751900Y-28732480D01*
X97447100Y-28732480D01*
X97165160Y-28849320D01*
X96949260Y-29065220D01*
X96832420Y-29347160D01*
X96832420Y-29651960D01*
X96949260Y-29933900D01*
X97165160Y-30149800D01*
X97447100Y-30266640D01*
X97751900Y-30266640D01*
X98033840Y-30149800D01*
X98249740Y-29933900D01*
X98366580Y-29651960D01*
X98366580Y-38399720D01*
X97401380Y-38399720D01*
X97401380Y-43599100D01*
X102118160Y-43599100D01*
X101950520Y-43766740D01*
X101833680Y-44048680D01*
X101833680Y-44353480D01*
X101950520Y-44635420D01*
X102166420Y-44851320D01*
X102448360Y-44968160D01*
X102753160Y-44968160D01*
X103035100Y-44851320D01*
X103251000Y-44635420D01*
X103367840Y-44353480D01*
X103367840Y-44066460D01*
X103652320Y-44066460D01*
X103934260Y-43949620D01*
X104150160Y-43733720D01*
X104203500Y-43599100D01*
X105597960Y-43599100D01*
X105597960Y-49679860D01*
X96766380Y-49679860D01*
X96766380Y-29651960D01*
X96766380Y-29347160D01*
X96649540Y-29065220D01*
X96433640Y-28849320D01*
X96151700Y-28732480D01*
X95846900Y-28732480D01*
X95564960Y-28849320D01*
X95349060Y-29065220D01*
X95133160Y-28849320D01*
X94851220Y-28732480D01*
X94546420Y-28732480D01*
X94264480Y-28849320D01*
X94048580Y-29065220D01*
X93931740Y-29347160D01*
X93931740Y-29651960D01*
X94048580Y-29933900D01*
X94264480Y-30149800D01*
X94546420Y-30266640D01*
X94851220Y-30266640D01*
X95133160Y-30149800D01*
X95349060Y-29933900D01*
X95564960Y-30149800D01*
X95846900Y-30266640D01*
X96151700Y-30266640D01*
X96433640Y-30149800D01*
X96649540Y-29933900D01*
X96766380Y-29651960D01*
X96766380Y-49679860D01*
X94668340Y-49679860D01*
X94668340Y-48851820D01*
X94668340Y-48547020D01*
X94551500Y-48265080D01*
X94335600Y-48049180D01*
X94053660Y-47932340D01*
X93748860Y-47932340D01*
X93466920Y-48049180D01*
X93251020Y-48265080D01*
X93225620Y-48239680D01*
X93225620Y-13195300D01*
X93225620Y-12311380D01*
X92887800Y-11493500D01*
X92262960Y-10866120D01*
X91445080Y-10525760D01*
X90561160Y-10525760D01*
X89743280Y-10863580D01*
X89115900Y-11488420D01*
X88775540Y-12306300D01*
X88775540Y-13190220D01*
X89113360Y-14008100D01*
X89738200Y-14635480D01*
X90556080Y-14975840D01*
X91440000Y-14975840D01*
X92257880Y-14638020D01*
X92885260Y-14013180D01*
X93225620Y-13195300D01*
X93225620Y-48239680D01*
X93035120Y-48049180D01*
X92753180Y-47932340D01*
X92448380Y-47932340D01*
X92166440Y-48049180D01*
X91950540Y-48265080D01*
X91848940Y-48506380D01*
X91749880Y-48265080D01*
X91533980Y-48049180D01*
X91252040Y-47932340D01*
X90947240Y-47932340D01*
X90665300Y-48049180D01*
X90449400Y-48265080D01*
X90332560Y-48547020D01*
X90332560Y-48851820D01*
X90449400Y-49133760D01*
X90665300Y-49349660D01*
X90947240Y-49466500D01*
X91252040Y-49466500D01*
X91533980Y-49349660D01*
X91749880Y-49133760D01*
X91848940Y-48889920D01*
X91950540Y-49133760D01*
X92166440Y-49349660D01*
X92448380Y-49466500D01*
X92753180Y-49466500D01*
X93035120Y-49349660D01*
X93251020Y-49133760D01*
X93466920Y-49349660D01*
X93748860Y-49466500D01*
X94053660Y-49466500D01*
X94335600Y-49349660D01*
X94551500Y-49133760D01*
X94668340Y-48851820D01*
X94668340Y-49679860D01*
X89867740Y-49679860D01*
X89867740Y-41953180D01*
X89867740Y-41648380D01*
X89750900Y-41366440D01*
X89535000Y-41150540D01*
X89750900Y-40934640D01*
X89867740Y-40652700D01*
X89867740Y-40347900D01*
X89750900Y-40065960D01*
X89535000Y-39850060D01*
X89253060Y-39733220D01*
X88948260Y-39733220D01*
X88666320Y-39850060D01*
X88450420Y-40065960D01*
X88333580Y-40347900D01*
X88333580Y-40652700D01*
X88450420Y-40934640D01*
X88666320Y-41150540D01*
X88450420Y-41366440D01*
X88333580Y-41648380D01*
X88333580Y-41953180D01*
X88450420Y-42235120D01*
X88666320Y-42451020D01*
X88948260Y-42567860D01*
X89253060Y-42567860D01*
X89535000Y-42451020D01*
X89750900Y-42235120D01*
X89867740Y-41953180D01*
X89867740Y-49679860D01*
X84775040Y-49679860D01*
X84775040Y-18514060D01*
X84775040Y-18285460D01*
X84688680Y-18074640D01*
X84526120Y-17912080D01*
X84315300Y-17825720D01*
X84216240Y-17825720D01*
X84216240Y-4782820D01*
X84216240Y-4218940D01*
X84000340Y-3698240D01*
X83601560Y-3299460D01*
X83080860Y-3083560D01*
X82516980Y-3083560D01*
X81996280Y-3299460D01*
X81597500Y-3698240D01*
X81450180Y-4046220D01*
X81450180Y-3957320D01*
X81117440Y-3152140D01*
X80774540Y-2941320D01*
X80558640Y-3157220D01*
X80558640Y-2725420D01*
X80347820Y-2382520D01*
X79435960Y-2026920D01*
X78455520Y-2049780D01*
X77650340Y-2382520D01*
X77439520Y-2725420D01*
X78999080Y-4284980D01*
X80558640Y-2725420D01*
X80558640Y-3157220D01*
X79214980Y-4500880D01*
X80774540Y-6060440D01*
X81117440Y-5849620D01*
X81457800Y-4970780D01*
X81597500Y-5303520D01*
X81996280Y-5702300D01*
X82516980Y-5918200D01*
X83080860Y-5918200D01*
X83601560Y-5702300D01*
X84000340Y-5303520D01*
X84216240Y-4782820D01*
X84216240Y-17825720D01*
X84086700Y-17825720D01*
X83875880Y-17912080D01*
X83713320Y-18074640D01*
X83626960Y-18285460D01*
X83626960Y-18514060D01*
X83713320Y-18724880D01*
X83875880Y-18887440D01*
X84086700Y-18973800D01*
X84315300Y-18973800D01*
X84526120Y-18887440D01*
X84688680Y-18724880D01*
X84775040Y-18514060D01*
X84775040Y-49679860D01*
X84719160Y-49679860D01*
X84719160Y-44983400D01*
X84719160Y-44617640D01*
X84719160Y-39984680D01*
X84719160Y-39618920D01*
X84579460Y-39281100D01*
X84320380Y-39022020D01*
X83982560Y-38882320D01*
X83616800Y-38882320D01*
X83278980Y-39022020D01*
X83019900Y-39281100D01*
X82880200Y-39618920D01*
X82880200Y-39984680D01*
X83019900Y-40322500D01*
X83278980Y-40581580D01*
X83616800Y-40721280D01*
X83982560Y-40721280D01*
X84320380Y-40581580D01*
X84579460Y-40322500D01*
X84719160Y-39984680D01*
X84719160Y-44617640D01*
X84579460Y-44279820D01*
X84320380Y-44020740D01*
X83982560Y-43881040D01*
X83616800Y-43881040D01*
X83278980Y-44020740D01*
X83019900Y-44279820D01*
X82880200Y-44617640D01*
X82880200Y-44983400D01*
X83019900Y-45321220D01*
X83278980Y-45580300D01*
X83616800Y-45720000D01*
X83982560Y-45720000D01*
X84320380Y-45580300D01*
X84579460Y-45321220D01*
X84719160Y-44983400D01*
X84719160Y-49679860D01*
X81224120Y-49679860D01*
X81224120Y-14945360D01*
X81224120Y-14061440D01*
X80886300Y-13243560D01*
X80558640Y-12913360D01*
X80558640Y-6276340D01*
X78999080Y-4716780D01*
X78783180Y-4932680D01*
X78783180Y-4500880D01*
X77223620Y-2941320D01*
X76880720Y-3152140D01*
X76537820Y-4028440D01*
X76400660Y-3698240D01*
X76001880Y-3299460D01*
X75481180Y-3083560D01*
X74917300Y-3083560D01*
X74396600Y-3299460D01*
X73997820Y-3698240D01*
X73781920Y-4218940D01*
X73781920Y-4782820D01*
X73997820Y-5303520D01*
X74396600Y-5702300D01*
X74917300Y-5918200D01*
X75481180Y-5918200D01*
X76001880Y-5702300D01*
X76400660Y-5303520D01*
X76545440Y-4953000D01*
X76547980Y-5044440D01*
X76880720Y-5849620D01*
X77223620Y-6060440D01*
X78783180Y-4500880D01*
X78783180Y-4932680D01*
X77439520Y-6276340D01*
X77650340Y-6619240D01*
X78562200Y-6974840D01*
X79542640Y-6951980D01*
X80347820Y-6619240D01*
X80558640Y-6276340D01*
X80558640Y-12913360D01*
X80416400Y-12771120D01*
X80416400Y-10982960D01*
X80416400Y-10419080D01*
X80200500Y-9898380D01*
X79801720Y-9499600D01*
X79281020Y-9283700D01*
X78717140Y-9283700D01*
X78196440Y-9499600D01*
X77797660Y-9898380D01*
X77581760Y-10419080D01*
X77581760Y-10982960D01*
X77797660Y-11503660D01*
X78196440Y-11902440D01*
X78717140Y-12118340D01*
X79281020Y-12118340D01*
X79801720Y-11902440D01*
X80200500Y-11503660D01*
X80416400Y-10982960D01*
X80416400Y-12771120D01*
X80261460Y-12616180D01*
X79443580Y-12275820D01*
X78559660Y-12275820D01*
X77741780Y-12613640D01*
X77114400Y-13238480D01*
X76774040Y-14056360D01*
X76774040Y-14940280D01*
X77111860Y-15758160D01*
X77736700Y-16385540D01*
X78554580Y-16725900D01*
X79438500Y-16725900D01*
X80256380Y-16388080D01*
X80883760Y-15763240D01*
X81224120Y-14945360D01*
X81224120Y-49679860D01*
X80566260Y-49679860D01*
X80566260Y-39052500D01*
X80566260Y-38747700D01*
X80449420Y-38465760D01*
X80233520Y-38249860D01*
X79951580Y-38133020D01*
X79646780Y-38133020D01*
X79364840Y-38249860D01*
X79148940Y-38465760D01*
X79032100Y-38747700D01*
X79032100Y-39052500D01*
X79148940Y-39334440D01*
X79364840Y-39550340D01*
X79646780Y-39667180D01*
X79951580Y-39667180D01*
X80233520Y-39550340D01*
X80449420Y-39334440D01*
X80566260Y-39052500D01*
X80566260Y-49679860D01*
X77172820Y-49679860D01*
X77172820Y-27315160D01*
X77172820Y-27086560D01*
X77172820Y-24813260D01*
X77172820Y-24584660D01*
X77172820Y-20914360D01*
X77172820Y-20685760D01*
X77086460Y-20474940D01*
X76923900Y-20312380D01*
X76713080Y-20226020D01*
X76484480Y-20226020D01*
X76273660Y-20312380D01*
X76225400Y-20360640D01*
X76225400Y-13195300D01*
X76225400Y-12311380D01*
X75887580Y-11493500D01*
X75262740Y-10866120D01*
X74444860Y-10525760D01*
X73560940Y-10525760D01*
X72743060Y-10863580D01*
X72115680Y-11488420D01*
X71775320Y-12306300D01*
X71775320Y-13190220D01*
X72113140Y-14008100D01*
X72737980Y-14635480D01*
X73555860Y-14975840D01*
X74439780Y-14975840D01*
X75257660Y-14638020D01*
X75885040Y-14013180D01*
X76225400Y-13195300D01*
X76225400Y-20360640D01*
X76111100Y-20474940D01*
X76024740Y-20685760D01*
X76024740Y-20914360D01*
X76111100Y-21125180D01*
X76273660Y-21287740D01*
X76484480Y-21374100D01*
X76713080Y-21374100D01*
X76923900Y-21287740D01*
X77086460Y-21125180D01*
X77172820Y-20914360D01*
X77172820Y-24584660D01*
X77086460Y-24373840D01*
X76923900Y-24211280D01*
X76713080Y-24124920D01*
X76484480Y-24124920D01*
X76273660Y-24211280D01*
X76111100Y-24373840D01*
X76024740Y-24584660D01*
X76024740Y-24813260D01*
X76111100Y-25024080D01*
X76273660Y-25186640D01*
X76484480Y-25273000D01*
X76713080Y-25273000D01*
X76923900Y-25186640D01*
X77086460Y-25024080D01*
X77172820Y-24813260D01*
X77172820Y-27086560D01*
X77086460Y-26875740D01*
X76923900Y-26713180D01*
X76713080Y-26626820D01*
X76484480Y-26626820D01*
X76273660Y-26713180D01*
X76111100Y-26875740D01*
X76024740Y-27086560D01*
X76024740Y-27315160D01*
X76111100Y-27525980D01*
X76273660Y-27688540D01*
X76484480Y-27774900D01*
X76713080Y-27774900D01*
X76923900Y-27688540D01*
X77086460Y-27525980D01*
X77172820Y-27315160D01*
X77172820Y-49679860D01*
X68267580Y-49679860D01*
X68267580Y-4254500D01*
X68267580Y-3751580D01*
X68074540Y-3286760D01*
X67718940Y-2928620D01*
X67251580Y-2735580D01*
X66748660Y-2735580D01*
X66283840Y-2928620D01*
X65925700Y-3284220D01*
X65732660Y-3751580D01*
X65732660Y-4254500D01*
X65925700Y-4719320D01*
X66281300Y-5077460D01*
X66748660Y-5270500D01*
X67251580Y-5270500D01*
X67716400Y-5077460D01*
X68074540Y-4721860D01*
X68267580Y-4254500D01*
X68267580Y-49679860D01*
X67767200Y-49679860D01*
X67767200Y-11752580D01*
X67767200Y-11249660D01*
X67574160Y-10784840D01*
X67365880Y-10574020D01*
X67365880Y-7675880D01*
X67365880Y-7330440D01*
X67233800Y-7012940D01*
X66989960Y-6769100D01*
X66672460Y-6637020D01*
X66327020Y-6637020D01*
X66009520Y-6769100D01*
X65765680Y-7012940D01*
X65633600Y-7330440D01*
X65633600Y-7675880D01*
X65765680Y-7993380D01*
X66009520Y-8237220D01*
X66327020Y-8369300D01*
X66672460Y-8369300D01*
X66989960Y-8237220D01*
X67233800Y-7993380D01*
X67365880Y-7675880D01*
X67365880Y-10574020D01*
X67218560Y-10426700D01*
X66751200Y-10233660D01*
X66248280Y-10233660D01*
X65783460Y-10426700D01*
X65425320Y-10782300D01*
X65232280Y-11249660D01*
X65232280Y-11752580D01*
X65425320Y-12217400D01*
X65780920Y-12575540D01*
X66248280Y-12768580D01*
X66751200Y-12768580D01*
X67216020Y-12575540D01*
X67574160Y-12219940D01*
X67767200Y-11752580D01*
X67767200Y-49679860D01*
X66873120Y-49679860D01*
X66873120Y-26014680D01*
X66873120Y-25786080D01*
X66786760Y-25575260D01*
X66624200Y-25412700D01*
X66573400Y-25389840D01*
X66573400Y-21115020D01*
X66573400Y-20886420D01*
X66487040Y-20675600D01*
X66324480Y-20513040D01*
X66113660Y-20426680D01*
X65885060Y-20426680D01*
X65674240Y-20513040D01*
X65511680Y-20675600D01*
X65425320Y-20886420D01*
X65425320Y-21115020D01*
X65511680Y-21325840D01*
X65674240Y-21488400D01*
X65885060Y-21574760D01*
X66113660Y-21574760D01*
X66324480Y-21488400D01*
X66487040Y-21325840D01*
X66573400Y-21115020D01*
X66573400Y-25389840D01*
X66413380Y-25326340D01*
X66184780Y-25326340D01*
X65973960Y-25412700D01*
X65811400Y-25575260D01*
X65725040Y-25786080D01*
X65725040Y-26014680D01*
X65811400Y-26225500D01*
X65973960Y-26388060D01*
X66184780Y-26474420D01*
X66413380Y-26474420D01*
X66624200Y-26388060D01*
X66786760Y-26225500D01*
X66873120Y-26014680D01*
X66873120Y-49679860D01*
X66520060Y-49679860D01*
X66520060Y-44983400D01*
X66520060Y-44617640D01*
X66520060Y-39984680D01*
X66520060Y-39618920D01*
X66380360Y-39281100D01*
X66121280Y-39022020D01*
X65783460Y-38882320D01*
X65417700Y-38882320D01*
X65374520Y-38900100D01*
X65374520Y-30614620D01*
X65374520Y-30386020D01*
X65371980Y-30378400D01*
X65371980Y-16593820D01*
X65371980Y-16207740D01*
X65224660Y-15852140D01*
X64950340Y-15577820D01*
X64594740Y-15430500D01*
X64208660Y-15430500D01*
X63853060Y-15577820D01*
X63578740Y-15852140D01*
X63431420Y-16207740D01*
X63431420Y-16593820D01*
X63578740Y-16949420D01*
X63853060Y-17223740D01*
X64208660Y-17371060D01*
X64594740Y-17371060D01*
X64950340Y-17223740D01*
X65224660Y-16949420D01*
X65371980Y-16593820D01*
X65371980Y-30378400D01*
X65288160Y-30175200D01*
X65125600Y-30012640D01*
X64914780Y-29926280D01*
X64686180Y-29926280D01*
X64475360Y-30012640D01*
X64312800Y-30175200D01*
X64226440Y-30386020D01*
X64226440Y-30614620D01*
X64312800Y-30825440D01*
X64475360Y-30988000D01*
X64686180Y-31074360D01*
X64914780Y-31074360D01*
X65125600Y-30988000D01*
X65288160Y-30825440D01*
X65374520Y-30614620D01*
X65374520Y-38900100D01*
X65079880Y-39022020D01*
X64820800Y-39281100D01*
X64681100Y-39618920D01*
X64681100Y-39984680D01*
X64820800Y-40322500D01*
X65079880Y-40581580D01*
X65417700Y-40721280D01*
X65783460Y-40721280D01*
X66121280Y-40581580D01*
X66380360Y-40322500D01*
X66520060Y-39984680D01*
X66520060Y-44617640D01*
X66380360Y-44279820D01*
X66121280Y-44020740D01*
X65783460Y-43881040D01*
X65417700Y-43881040D01*
X65079880Y-44020740D01*
X64820800Y-44279820D01*
X64681100Y-44617640D01*
X64681100Y-44983400D01*
X64820800Y-45321220D01*
X65079880Y-45580300D01*
X65417700Y-45720000D01*
X65783460Y-45720000D01*
X66121280Y-45580300D01*
X66380360Y-45321220D01*
X66520060Y-44983400D01*
X66520060Y-49679860D01*
X63370460Y-49679860D01*
X63370460Y-16593820D01*
X63370460Y-16207740D01*
X63223140Y-15852140D01*
X63042800Y-15671800D01*
X63042800Y-11714480D01*
X63007240Y-11107420D01*
X62844680Y-10713720D01*
X62595760Y-10622280D01*
X62379860Y-10838180D01*
X62379860Y-10406380D01*
X62367160Y-10370820D01*
X62367160Y-7675880D01*
X62367160Y-7330440D01*
X62268100Y-7091680D01*
X62268100Y-4254500D01*
X62268100Y-3751580D01*
X62075060Y-3286760D01*
X61719460Y-2928620D01*
X61252100Y-2735580D01*
X60749180Y-2735580D01*
X60284360Y-2928620D01*
X59926220Y-3284220D01*
X59733180Y-3751580D01*
X59733180Y-4254500D01*
X59926220Y-4719320D01*
X60281820Y-5077460D01*
X60749180Y-5270500D01*
X61252100Y-5270500D01*
X61716920Y-5077460D01*
X62075060Y-4721860D01*
X62268100Y-4254500D01*
X62268100Y-7091680D01*
X62235080Y-7012940D01*
X61991240Y-6769100D01*
X61673740Y-6637020D01*
X61328300Y-6637020D01*
X61010800Y-6769100D01*
X60766960Y-7012940D01*
X60634880Y-7330440D01*
X60634880Y-7675880D01*
X60766960Y-7993380D01*
X61010800Y-8237220D01*
X61328300Y-8369300D01*
X61673740Y-8369300D01*
X61991240Y-8237220D01*
X62235080Y-7993380D01*
X62367160Y-7675880D01*
X62367160Y-10370820D01*
X62288420Y-10157460D01*
X61714380Y-9959340D01*
X61107320Y-9994900D01*
X60713620Y-10157460D01*
X60622180Y-10406380D01*
X61501020Y-11285220D01*
X62379860Y-10406380D01*
X62379860Y-10838180D01*
X61716920Y-11501120D01*
X62595760Y-12379960D01*
X62844680Y-12288520D01*
X63042800Y-11714480D01*
X63042800Y-15671800D01*
X62948820Y-15577820D01*
X62593220Y-15430500D01*
X62379860Y-15430500D01*
X62379860Y-12595860D01*
X61501020Y-11717020D01*
X61285120Y-11932920D01*
X61285120Y-11501120D01*
X60406280Y-10622280D01*
X60157360Y-10713720D01*
X59959240Y-11287760D01*
X59994800Y-11894820D01*
X60157360Y-12288520D01*
X60406280Y-12379960D01*
X61285120Y-11501120D01*
X61285120Y-11932920D01*
X60622180Y-12595860D01*
X60713620Y-12844780D01*
X61287660Y-13042900D01*
X61894720Y-13007340D01*
X62288420Y-12844780D01*
X62379860Y-12595860D01*
X62379860Y-15430500D01*
X62207140Y-15430500D01*
X61851540Y-15577820D01*
X61577220Y-15852140D01*
X61429900Y-16207740D01*
X61429900Y-16593820D01*
X61577220Y-16949420D01*
X61851540Y-17223740D01*
X62207140Y-17371060D01*
X62593220Y-17371060D01*
X62948820Y-17223740D01*
X63223140Y-16949420D01*
X63370460Y-16593820D01*
X63370460Y-49679860D01*
X62273180Y-49679860D01*
X62273180Y-23614380D01*
X62273180Y-23385780D01*
X62186820Y-23174960D01*
X62062360Y-23050500D01*
X62186820Y-22926040D01*
X62273180Y-22715220D01*
X62273180Y-22486620D01*
X62186820Y-22275800D01*
X62110620Y-22199600D01*
X62186820Y-22125940D01*
X62273180Y-21915120D01*
X62273180Y-21686520D01*
X62273180Y-20314920D01*
X62273180Y-20086320D01*
X62186820Y-19875500D01*
X62059820Y-19748500D01*
X62186820Y-19624040D01*
X62273180Y-19413220D01*
X62273180Y-19184620D01*
X62186820Y-18973800D01*
X62024260Y-18811240D01*
X61813440Y-18724880D01*
X61584840Y-18724880D01*
X61374020Y-18811240D01*
X61211460Y-18973800D01*
X61125100Y-19184620D01*
X61125100Y-19413220D01*
X61211460Y-19624040D01*
X61335920Y-19748500D01*
X61211460Y-19875500D01*
X61125100Y-20086320D01*
X61125100Y-20314920D01*
X61211460Y-20525740D01*
X61374020Y-20688300D01*
X61584840Y-20774660D01*
X61813440Y-20774660D01*
X62024260Y-20688300D01*
X62186820Y-20525740D01*
X62273180Y-20314920D01*
X62273180Y-21686520D01*
X62186820Y-21475700D01*
X62024260Y-21313140D01*
X61813440Y-21226780D01*
X61584840Y-21226780D01*
X61374020Y-21313140D01*
X61211460Y-21475700D01*
X61125100Y-21686520D01*
X61125100Y-21915120D01*
X61211460Y-22125940D01*
X61285120Y-22199600D01*
X61211460Y-22275800D01*
X61125100Y-22486620D01*
X61125100Y-22715220D01*
X61211460Y-22926040D01*
X61335920Y-23050500D01*
X61211460Y-23174960D01*
X61125100Y-23385780D01*
X61125100Y-23614380D01*
X61211460Y-23825200D01*
X61374020Y-23987760D01*
X61584840Y-24074120D01*
X61813440Y-24074120D01*
X62024260Y-23987760D01*
X62186820Y-23825200D01*
X62273180Y-23614380D01*
X62273180Y-49679860D01*
X62075060Y-49679860D01*
X62075060Y-24813260D01*
X62075060Y-24584660D01*
X61988700Y-24373840D01*
X61826140Y-24211280D01*
X61615320Y-24124920D01*
X61386720Y-24124920D01*
X61175900Y-24211280D01*
X61013340Y-24373840D01*
X60926980Y-24584660D01*
X60926980Y-24813260D01*
X61013340Y-25024080D01*
X61175900Y-25186640D01*
X61386720Y-25273000D01*
X61615320Y-25273000D01*
X61826140Y-25186640D01*
X61988700Y-25024080D01*
X62075060Y-24813260D01*
X62075060Y-49679860D01*
X59966860Y-49679860D01*
X59966860Y-39151560D01*
X59966860Y-38846760D01*
X59850020Y-38564820D01*
X59781440Y-38496240D01*
X59781440Y-24394160D01*
X59781440Y-23789640D01*
X59778900Y-22397720D01*
X59687460Y-22174200D01*
X59573160Y-22059900D01*
X59573160Y-16413480D01*
X59573160Y-16184880D01*
X59486800Y-15974060D01*
X59324240Y-15811500D01*
X59113420Y-15725140D01*
X58884820Y-15725140D01*
X58674000Y-15811500D01*
X58511440Y-15974060D01*
X58425080Y-16184880D01*
X58425080Y-16413480D01*
X58511440Y-16624300D01*
X58674000Y-16786860D01*
X58884820Y-16873220D01*
X59113420Y-16873220D01*
X59324240Y-16786860D01*
X59486800Y-16624300D01*
X59573160Y-16413480D01*
X59573160Y-22059900D01*
X59517280Y-22004020D01*
X59296300Y-21912580D01*
X59055000Y-21912580D01*
X57901840Y-21910040D01*
X57873900Y-21937980D01*
X57873900Y-20012660D01*
X57873900Y-19784060D01*
X57787540Y-19573240D01*
X57624980Y-19410680D01*
X57414160Y-19324320D01*
X57185560Y-19324320D01*
X56974740Y-19410680D01*
X56949340Y-19436080D01*
X56923940Y-19410680D01*
X56713120Y-19324320D01*
X56484520Y-19324320D01*
X56273700Y-19410680D01*
X56111140Y-19573240D01*
X56024780Y-19784060D01*
X56024780Y-20012660D01*
X56111140Y-20223480D01*
X56273700Y-20386040D01*
X56484520Y-20472400D01*
X56713120Y-20472400D01*
X56923940Y-20386040D01*
X56949340Y-20360640D01*
X56974740Y-20386040D01*
X57185560Y-20472400D01*
X57414160Y-20472400D01*
X57624980Y-20386040D01*
X57787540Y-20223480D01*
X57873900Y-20012660D01*
X57873900Y-21937980D01*
X57751980Y-22059900D01*
X57751980Y-23939500D01*
X59631580Y-23939500D01*
X59781440Y-23789640D01*
X59781440Y-24394160D01*
X59631580Y-24244300D01*
X57751980Y-24244300D01*
X57751980Y-26123900D01*
X57901840Y-26273760D01*
X59055000Y-26271220D01*
X59296300Y-26271220D01*
X59517280Y-26179780D01*
X59687460Y-26009600D01*
X59778900Y-25786080D01*
X59781440Y-24394160D01*
X59781440Y-38496240D01*
X59634120Y-38348920D01*
X59352180Y-38232080D01*
X59047380Y-38232080D01*
X58765440Y-38348920D01*
X58549540Y-38564820D01*
X58432700Y-38846760D01*
X58432700Y-39151560D01*
X58549540Y-39433500D01*
X58765440Y-39649400D01*
X59047380Y-39766240D01*
X59352180Y-39766240D01*
X59634120Y-39649400D01*
X59850020Y-39433500D01*
X59966860Y-39151560D01*
X59966860Y-49679860D01*
X57447180Y-49679860D01*
X57447180Y-26123900D01*
X57447180Y-24244300D01*
X57447180Y-23939500D01*
X57447180Y-22059900D01*
X57297320Y-21910040D01*
X56144160Y-21912580D01*
X55902860Y-21912580D01*
X55773320Y-21965920D01*
X55773320Y-21414740D01*
X55773320Y-21186140D01*
X55686960Y-20975320D01*
X55524400Y-20812760D01*
X55313580Y-20726400D01*
X55084980Y-20726400D01*
X54874160Y-20812760D01*
X54711600Y-20975320D01*
X54625240Y-21186140D01*
X54625240Y-21414740D01*
X54711600Y-21625560D01*
X54874160Y-21788120D01*
X55084980Y-21874480D01*
X55313580Y-21874480D01*
X55524400Y-21788120D01*
X55686960Y-21625560D01*
X55773320Y-21414740D01*
X55773320Y-21965920D01*
X55681880Y-22004020D01*
X55511700Y-22174200D01*
X55420260Y-22397720D01*
X55417720Y-23789640D01*
X55567580Y-23939500D01*
X57447180Y-23939500D01*
X57447180Y-24244300D01*
X55567580Y-24244300D01*
X55417720Y-24394160D01*
X55420260Y-25786080D01*
X55511700Y-26009600D01*
X55681880Y-26179780D01*
X55902860Y-26271220D01*
X56144160Y-26271220D01*
X57297320Y-26273760D01*
X57447180Y-26123900D01*
X57447180Y-49679860D01*
X56273700Y-49679860D01*
X56273700Y-27713940D01*
X56273700Y-27485340D01*
X56187340Y-27274520D01*
X56024780Y-27111960D01*
X55813960Y-27025600D01*
X55585360Y-27025600D01*
X55374540Y-27111960D01*
X55211980Y-27274520D01*
X55125620Y-27485340D01*
X55125620Y-27713940D01*
X55211980Y-27924760D01*
X55374540Y-28087320D01*
X55585360Y-28173680D01*
X55813960Y-28173680D01*
X56024780Y-28087320D01*
X56187340Y-27924760D01*
X56273700Y-27713940D01*
X56273700Y-49679860D01*
X55369460Y-49679860D01*
X55369460Y-38153340D01*
X55369460Y-37848540D01*
X55252620Y-37566600D01*
X55036720Y-37350700D01*
X54754780Y-37233860D01*
X54566820Y-37233860D01*
X54566820Y-31247080D01*
X54566820Y-30942280D01*
X54449980Y-30660340D01*
X54267100Y-30477460D01*
X54267100Y-4254500D01*
X54267100Y-3751580D01*
X54074060Y-3286760D01*
X53718460Y-2928620D01*
X53251100Y-2735580D01*
X52748180Y-2735580D01*
X52283360Y-2928620D01*
X51925220Y-3284220D01*
X51732180Y-3751580D01*
X51732180Y-4254500D01*
X51925220Y-4719320D01*
X52280820Y-5077460D01*
X52748180Y-5270500D01*
X53251100Y-5270500D01*
X53715920Y-5077460D01*
X54074060Y-4721860D01*
X54267100Y-4254500D01*
X54267100Y-30477460D01*
X54234080Y-30444440D01*
X53952140Y-30327600D01*
X53766720Y-30327600D01*
X53766720Y-11752580D01*
X53766720Y-11249660D01*
X53573680Y-10784840D01*
X53365400Y-10574020D01*
X53365400Y-7675880D01*
X53365400Y-7330440D01*
X53233320Y-7012940D01*
X52989480Y-6769100D01*
X52671980Y-6637020D01*
X52326540Y-6637020D01*
X52009040Y-6769100D01*
X51765200Y-7012940D01*
X51633120Y-7330440D01*
X51633120Y-7675880D01*
X51765200Y-7993380D01*
X52009040Y-8237220D01*
X52326540Y-8369300D01*
X52671980Y-8369300D01*
X52989480Y-8237220D01*
X53233320Y-7993380D01*
X53365400Y-7675880D01*
X53365400Y-10574020D01*
X53218080Y-10426700D01*
X52750720Y-10233660D01*
X52247800Y-10233660D01*
X51782980Y-10426700D01*
X51424840Y-10782300D01*
X51231800Y-11249660D01*
X51231800Y-11752580D01*
X51424840Y-12217400D01*
X51780440Y-12575540D01*
X52247800Y-12768580D01*
X52750720Y-12768580D01*
X53215540Y-12575540D01*
X53573680Y-12219940D01*
X53766720Y-11752580D01*
X53766720Y-30327600D01*
X53647340Y-30327600D01*
X53365400Y-30444440D01*
X53149500Y-30660340D01*
X53070760Y-30848300D01*
X53070760Y-17594580D01*
X53070760Y-17208500D01*
X53070760Y-15593060D01*
X53070760Y-15206980D01*
X52923440Y-14851380D01*
X52649120Y-14577060D01*
X52293520Y-14429740D01*
X51907440Y-14429740D01*
X51551840Y-14577060D01*
X51277520Y-14851380D01*
X51130200Y-15206980D01*
X51130200Y-15593060D01*
X51277520Y-15948660D01*
X51551840Y-16222980D01*
X51907440Y-16370300D01*
X52293520Y-16370300D01*
X52649120Y-16222980D01*
X52923440Y-15948660D01*
X53070760Y-15593060D01*
X53070760Y-17208500D01*
X52923440Y-16852900D01*
X52649120Y-16578580D01*
X52293520Y-16431260D01*
X51907440Y-16431260D01*
X51551840Y-16578580D01*
X51277520Y-16852900D01*
X51130200Y-17208500D01*
X51130200Y-17594580D01*
X51277520Y-17950180D01*
X51551840Y-18224500D01*
X51907440Y-18371820D01*
X52293520Y-18371820D01*
X52649120Y-18224500D01*
X52923440Y-17950180D01*
X53070760Y-17594580D01*
X53070760Y-30848300D01*
X53032660Y-30942280D01*
X53032660Y-31247080D01*
X53149500Y-31529020D01*
X53365400Y-31744920D01*
X53647340Y-31861760D01*
X53952140Y-31861760D01*
X54234080Y-31744920D01*
X54449980Y-31529020D01*
X54566820Y-31247080D01*
X54566820Y-37233860D01*
X54449980Y-37233860D01*
X54168040Y-37350700D01*
X53952140Y-37566600D01*
X53835300Y-37848540D01*
X53835300Y-38153340D01*
X53952140Y-38435280D01*
X54168040Y-38651180D01*
X54449980Y-38768020D01*
X54754780Y-38768020D01*
X55036720Y-38651180D01*
X55252620Y-38435280D01*
X55369460Y-38153340D01*
X55369460Y-49679860D01*
X54673500Y-49679860D01*
X54673500Y-44414440D01*
X54673500Y-44185840D01*
X54587140Y-43975020D01*
X54424580Y-43812460D01*
X54213760Y-43726100D01*
X53985160Y-43726100D01*
X53774340Y-43812460D01*
X53611780Y-43975020D01*
X53525420Y-44185840D01*
X53525420Y-44414440D01*
X53611780Y-44625260D01*
X53774340Y-44787820D01*
X53985160Y-44874180D01*
X54213760Y-44874180D01*
X54424580Y-44787820D01*
X54587140Y-44625260D01*
X54673500Y-44414440D01*
X54673500Y-49679860D01*
X51874420Y-49679860D01*
X51874420Y-41013380D01*
X51874420Y-40784780D01*
X51788060Y-40573960D01*
X51772820Y-40558720D01*
X51772820Y-27914600D01*
X51772820Y-27686000D01*
X51686460Y-27475180D01*
X51523900Y-27312620D01*
X51371500Y-27249120D01*
X51523900Y-27188160D01*
X51686460Y-27025600D01*
X51772820Y-26814780D01*
X51772820Y-26586180D01*
X51686460Y-26375360D01*
X51523900Y-26212800D01*
X51313080Y-26126440D01*
X51084480Y-26126440D01*
X50873660Y-26212800D01*
X50711100Y-26375360D01*
X50624740Y-26586180D01*
X50624740Y-26814780D01*
X50711100Y-27025600D01*
X50873660Y-27188160D01*
X51023520Y-27249120D01*
X50873660Y-27312620D01*
X50711100Y-27475180D01*
X50624740Y-27686000D01*
X50624740Y-27914600D01*
X50711100Y-28125420D01*
X50873660Y-28287980D01*
X51084480Y-28374340D01*
X51313080Y-28374340D01*
X51523900Y-28287980D01*
X51686460Y-28125420D01*
X51772820Y-27914600D01*
X51772820Y-40558720D01*
X51625500Y-40411400D01*
X51414680Y-40325040D01*
X51186080Y-40325040D01*
X50975260Y-40411400D01*
X50812700Y-40573960D01*
X50726340Y-40784780D01*
X50726340Y-41013380D01*
X50812700Y-41224200D01*
X50975260Y-41386760D01*
X51186080Y-41473120D01*
X51414680Y-41473120D01*
X51625500Y-41386760D01*
X51788060Y-41224200D01*
X51874420Y-41013380D01*
X51874420Y-49679860D01*
X49042320Y-49679860D01*
X49042320Y-11714480D01*
X49006760Y-11107420D01*
X48844200Y-10713720D01*
X48595280Y-10622280D01*
X48379380Y-10838180D01*
X48379380Y-10406380D01*
X48366680Y-10370820D01*
X48366680Y-7675880D01*
X48366680Y-7330440D01*
X48267620Y-7091680D01*
X48267620Y-4254500D01*
X48267620Y-3751580D01*
X48074580Y-3286760D01*
X47718980Y-2928620D01*
X47251620Y-2735580D01*
X46748700Y-2735580D01*
X46283880Y-2928620D01*
X45925740Y-3284220D01*
X45732700Y-3751580D01*
X45732700Y-4254500D01*
X45925740Y-4719320D01*
X46281340Y-5077460D01*
X46748700Y-5270500D01*
X47251620Y-5270500D01*
X47716440Y-5077460D01*
X48074580Y-4721860D01*
X48267620Y-4254500D01*
X48267620Y-7091680D01*
X48234600Y-7012940D01*
X47990760Y-6769100D01*
X47673260Y-6637020D01*
X47327820Y-6637020D01*
X47010320Y-6769100D01*
X46766480Y-7012940D01*
X46634400Y-7330440D01*
X46634400Y-7675880D01*
X46766480Y-7993380D01*
X47010320Y-8237220D01*
X47327820Y-8369300D01*
X47673260Y-8369300D01*
X47990760Y-8237220D01*
X48234600Y-7993380D01*
X48366680Y-7675880D01*
X48366680Y-10370820D01*
X48287940Y-10157460D01*
X47713900Y-9959340D01*
X47106840Y-9994900D01*
X46713140Y-10157460D01*
X46621700Y-10406380D01*
X47500540Y-11285220D01*
X48379380Y-10406380D01*
X48379380Y-10838180D01*
X47716440Y-11501120D01*
X48595280Y-12379960D01*
X48844200Y-12288520D01*
X49042320Y-11714480D01*
X49042320Y-49679860D01*
X48379380Y-49679860D01*
X48379380Y-12595860D01*
X47500540Y-11717020D01*
X47284640Y-11932920D01*
X47284640Y-11501120D01*
X46405800Y-10622280D01*
X46156880Y-10713720D01*
X45958760Y-11287760D01*
X45994320Y-11894820D01*
X46156880Y-12288520D01*
X46405800Y-12379960D01*
X47284640Y-11501120D01*
X47284640Y-11932920D01*
X46621700Y-12595860D01*
X46713140Y-12844780D01*
X47287180Y-13042900D01*
X47894240Y-13007340D01*
X48287940Y-12844780D01*
X48379380Y-12595860D01*
X48379380Y-49679860D01*
X46675040Y-49679860D01*
X46675040Y-21313140D01*
X46675040Y-21084540D01*
X46588680Y-20873720D01*
X46426120Y-20711160D01*
X46215300Y-20624800D01*
X45986700Y-20624800D01*
X45775880Y-20711160D01*
X45613320Y-20873720D01*
X45526960Y-21084540D01*
X45526960Y-21313140D01*
X45613320Y-21523960D01*
X45775880Y-21686520D01*
X45986700Y-21772880D01*
X46215300Y-21772880D01*
X46426120Y-21686520D01*
X46588680Y-21523960D01*
X46675040Y-21313140D01*
X46675040Y-49679860D01*
X46372780Y-49679860D01*
X46372780Y-36215320D01*
X46372780Y-35986720D01*
X46286420Y-35775900D01*
X46273720Y-35763200D01*
X46273720Y-26314400D01*
X46273720Y-26085800D01*
X46187360Y-25874980D01*
X46024800Y-25712420D01*
X45813980Y-25626060D01*
X45585380Y-25626060D01*
X45374560Y-25712420D01*
X45212000Y-25874980D01*
X45125640Y-26085800D01*
X45125640Y-26314400D01*
X45212000Y-26525220D01*
X45374560Y-26687780D01*
X45585380Y-26774140D01*
X45813980Y-26774140D01*
X46024800Y-26687780D01*
X46187360Y-26525220D01*
X46273720Y-26314400D01*
X46273720Y-35763200D01*
X46123860Y-35613340D01*
X45913040Y-35526980D01*
X45824140Y-35526980D01*
X45824140Y-32164020D01*
X45824140Y-31935420D01*
X45737780Y-31724600D01*
X45575220Y-31562040D01*
X45364400Y-31475680D01*
X45204380Y-31475680D01*
X45272960Y-31313120D01*
X45272960Y-31084520D01*
X45186600Y-30873700D01*
X45064680Y-30751780D01*
X45224700Y-30688280D01*
X45387260Y-30525720D01*
X45473620Y-30314900D01*
X45473620Y-30086300D01*
X45387260Y-29875480D01*
X45224700Y-29712920D01*
X45013880Y-29626560D01*
X44785280Y-29626560D01*
X44574460Y-29712920D01*
X44411900Y-29875480D01*
X44325540Y-30086300D01*
X44325540Y-30314900D01*
X44411900Y-30525720D01*
X44531280Y-30645100D01*
X44373800Y-30711140D01*
X44211240Y-30873700D01*
X44173140Y-30965140D01*
X44173140Y-19413220D01*
X44173140Y-19184620D01*
X44086780Y-18973800D01*
X43924220Y-18811240D01*
X43713400Y-18724880D01*
X43484800Y-18724880D01*
X43273980Y-18811240D01*
X43111420Y-18973800D01*
X43025060Y-19184620D01*
X43025060Y-19413220D01*
X43111420Y-19624040D01*
X43273980Y-19786600D01*
X43484800Y-19872960D01*
X43713400Y-19872960D01*
X43924220Y-19786600D01*
X44086780Y-19624040D01*
X44173140Y-19413220D01*
X44173140Y-30965140D01*
X44124880Y-31084520D01*
X44124880Y-31313120D01*
X44211240Y-31523940D01*
X44373800Y-31686500D01*
X44584620Y-31772860D01*
X44742100Y-31772860D01*
X44676060Y-31935420D01*
X44676060Y-32164020D01*
X44762420Y-32374840D01*
X44924980Y-32537400D01*
X45135800Y-32623760D01*
X45364400Y-32623760D01*
X45575220Y-32537400D01*
X45737780Y-32374840D01*
X45824140Y-32164020D01*
X45824140Y-35526980D01*
X45684440Y-35526980D01*
X45473620Y-35613340D01*
X45311060Y-35775900D01*
X45224700Y-35986720D01*
X45224700Y-36215320D01*
X45311060Y-36426140D01*
X45473620Y-36588700D01*
X45684440Y-36675060D01*
X45913040Y-36675060D01*
X46123860Y-36588700D01*
X46286420Y-36426140D01*
X46372780Y-36215320D01*
X46372780Y-49679860D01*
X43273980Y-49679860D01*
X43273980Y-38013640D01*
X43273980Y-37785040D01*
X43187620Y-37574220D01*
X43025060Y-37411660D01*
X42814240Y-37325300D01*
X42585640Y-37325300D01*
X42374820Y-37411660D01*
X42273220Y-37513260D01*
X42273220Y-19413220D01*
X42273220Y-19184620D01*
X42186860Y-18973800D01*
X42024300Y-18811240D01*
X41813480Y-18724880D01*
X41584880Y-18724880D01*
X41374060Y-18811240D01*
X41211500Y-18973800D01*
X41125140Y-19184620D01*
X41125140Y-19413220D01*
X41211500Y-19624040D01*
X41374060Y-19786600D01*
X41584880Y-19872960D01*
X41813480Y-19872960D01*
X42024300Y-19786600D01*
X42186860Y-19624040D01*
X42273220Y-19413220D01*
X42273220Y-37513260D01*
X42212260Y-37574220D01*
X42125900Y-37785040D01*
X42125900Y-38013640D01*
X42212260Y-38224460D01*
X42374820Y-38387020D01*
X42585640Y-38473380D01*
X42814240Y-38473380D01*
X43025060Y-38387020D01*
X43187620Y-38224460D01*
X43273980Y-38013640D01*
X43273980Y-49679860D01*
X41874440Y-49679860D01*
X41874440Y-37914580D01*
X41874440Y-37685980D01*
X41788080Y-37475160D01*
X41625520Y-37312600D01*
X41414700Y-37226240D01*
X41186100Y-37226240D01*
X40975280Y-37312600D01*
X40894000Y-37391340D01*
X40888920Y-37376100D01*
X40726360Y-37213540D01*
X40573960Y-37150040D01*
X40573960Y-20413980D01*
X40573960Y-20185380D01*
X40487600Y-19974560D01*
X40325040Y-19812000D01*
X40114220Y-19725640D01*
X39885620Y-19725640D01*
X39674800Y-19812000D01*
X39512240Y-19974560D01*
X39425880Y-20185380D01*
X39425880Y-20413980D01*
X39512240Y-20624800D01*
X39674800Y-20787360D01*
X39885620Y-20873720D01*
X40114220Y-20873720D01*
X40325040Y-20787360D01*
X40487600Y-20624800D01*
X40573960Y-20413980D01*
X40573960Y-37150040D01*
X40515540Y-37127180D01*
X40286940Y-37127180D01*
X40076120Y-37213540D01*
X39949120Y-37338000D01*
X39824660Y-37213540D01*
X39613840Y-37127180D01*
X39385240Y-37127180D01*
X39174420Y-37213540D01*
X39011860Y-37376100D01*
X38925500Y-37586920D01*
X38925500Y-37815520D01*
X39011860Y-38026340D01*
X39174420Y-38188900D01*
X39385240Y-38275260D01*
X39613840Y-38275260D01*
X39824660Y-38188900D01*
X39949120Y-38061900D01*
X40076120Y-38188900D01*
X40286940Y-38275260D01*
X40515540Y-38275260D01*
X40726360Y-38188900D01*
X40805100Y-38107620D01*
X40812720Y-38125400D01*
X40975280Y-38287960D01*
X41186100Y-38374320D01*
X41414700Y-38374320D01*
X41625520Y-38287960D01*
X41788080Y-38125400D01*
X41874440Y-37914580D01*
X41874440Y-49679860D01*
X38874700Y-49679860D01*
X38874700Y-36913820D01*
X38874700Y-36685220D01*
X38788340Y-36474400D01*
X38625780Y-36311840D01*
X38574980Y-36288980D01*
X38574980Y-2715260D01*
X38574980Y-2486660D01*
X38488620Y-2275840D01*
X38326060Y-2113280D01*
X38115240Y-2026920D01*
X37886640Y-2026920D01*
X37675820Y-2113280D01*
X37525960Y-2263140D01*
X37315140Y-2176780D01*
X37086540Y-2176780D01*
X36875720Y-2263140D01*
X36713160Y-2425700D01*
X36685220Y-2486660D01*
X36553140Y-2433320D01*
X36248340Y-2433320D01*
X35966400Y-2550160D01*
X35750500Y-2766060D01*
X35633660Y-3048000D01*
X35633660Y-3352800D01*
X35750500Y-3634740D01*
X35966400Y-3850640D01*
X36248340Y-3967480D01*
X36553140Y-3967480D01*
X36835080Y-3850640D01*
X37050980Y-3634740D01*
X37167820Y-3352800D01*
X37167820Y-3324860D01*
X37315140Y-3324860D01*
X37525960Y-3238500D01*
X37675820Y-3088640D01*
X37886640Y-3175000D01*
X38115240Y-3175000D01*
X38326060Y-3088640D01*
X38488620Y-2926080D01*
X38574980Y-2715260D01*
X38574980Y-36288980D01*
X38414960Y-36225480D01*
X38186360Y-36225480D01*
X38122860Y-36250880D01*
X38122860Y-15313660D01*
X38122860Y-15085060D01*
X38036500Y-14874240D01*
X37873940Y-14711680D01*
X37663120Y-14625320D01*
X37518340Y-14625320D01*
X37437060Y-14424660D01*
X37274500Y-14262100D01*
X37063680Y-14175740D01*
X36835080Y-14175740D01*
X36715700Y-14221460D01*
X36636960Y-14025880D01*
X36474400Y-13863320D01*
X36367720Y-13817600D01*
X36367720Y-11653520D01*
X36367720Y-11348720D01*
X36250880Y-11066780D01*
X36034980Y-10850880D01*
X35753040Y-10734040D01*
X35448240Y-10734040D01*
X35374580Y-10764520D01*
X35374580Y-2865120D01*
X35374580Y-2636520D01*
X35288220Y-2425700D01*
X35125660Y-2263140D01*
X34914840Y-2176780D01*
X34686240Y-2176780D01*
X34475420Y-2263140D01*
X34399220Y-2336800D01*
X34325560Y-2263140D01*
X34114740Y-2176780D01*
X33886140Y-2176780D01*
X33675320Y-2263140D01*
X33599120Y-2336800D01*
X33525460Y-2263140D01*
X33314640Y-2176780D01*
X33086040Y-2176780D01*
X32875220Y-2263140D01*
X32712660Y-2425700D01*
X32626300Y-2636520D01*
X32626300Y-2865120D01*
X32712660Y-3075940D01*
X32875220Y-3238500D01*
X33086040Y-3324860D01*
X33314640Y-3324860D01*
X33525460Y-3238500D01*
X33599120Y-3162300D01*
X33675320Y-3238500D01*
X33886140Y-3324860D01*
X34114740Y-3324860D01*
X34325560Y-3238500D01*
X34399220Y-3162300D01*
X34475420Y-3238500D01*
X34686240Y-3324860D01*
X34914840Y-3324860D01*
X35125660Y-3238500D01*
X35288220Y-3075940D01*
X35374580Y-2865120D01*
X35374580Y-10764520D01*
X35166300Y-10850880D01*
X34950400Y-11066780D01*
X34833560Y-11348720D01*
X34833560Y-11653520D01*
X34950400Y-11935460D01*
X35166300Y-12151360D01*
X35448240Y-12268200D01*
X35753040Y-12268200D01*
X36034980Y-12151360D01*
X36250880Y-11935460D01*
X36367720Y-11653520D01*
X36367720Y-13817600D01*
X36263580Y-13776960D01*
X36034980Y-13776960D01*
X35824160Y-13863320D01*
X35669220Y-14015720D01*
X35565080Y-13975080D01*
X35336480Y-13975080D01*
X35125660Y-14061440D01*
X34963100Y-14224000D01*
X34876740Y-14434820D01*
X34876740Y-14663420D01*
X34932620Y-14803120D01*
X34864040Y-14775180D01*
X34635440Y-14775180D01*
X34424620Y-14861540D01*
X34262060Y-15024100D01*
X34175700Y-15234920D01*
X34175700Y-15463520D01*
X34262060Y-15674340D01*
X34424620Y-15836900D01*
X34635440Y-15923260D01*
X34864040Y-15923260D01*
X35074860Y-15836900D01*
X35237420Y-15674340D01*
X35323780Y-15463520D01*
X35323780Y-15234920D01*
X35265360Y-15092680D01*
X35336480Y-15123160D01*
X35565080Y-15123160D01*
X35775900Y-15036800D01*
X35928300Y-14881860D01*
X36034980Y-14925040D01*
X36263580Y-14925040D01*
X36380420Y-14876780D01*
X36461700Y-15074900D01*
X36624260Y-15237460D01*
X36835080Y-15323820D01*
X36977320Y-15323820D01*
X37061140Y-15524480D01*
X37223700Y-15687040D01*
X37434520Y-15773400D01*
X37663120Y-15773400D01*
X37873940Y-15687040D01*
X38036500Y-15524480D01*
X38122860Y-15313660D01*
X38122860Y-36250880D01*
X37975540Y-36311840D01*
X37812980Y-36474400D01*
X37726620Y-36685220D01*
X37726620Y-36913820D01*
X37812980Y-37124640D01*
X37975540Y-37287200D01*
X38186360Y-37373560D01*
X38414960Y-37373560D01*
X38625780Y-37287200D01*
X38788340Y-37124640D01*
X38874700Y-36913820D01*
X38874700Y-49679860D01*
X36174680Y-49679860D01*
X36174680Y-42715180D01*
X36174680Y-42486580D01*
X36174680Y-19413220D01*
X36174680Y-19184620D01*
X36088320Y-18973800D01*
X35925760Y-18811240D01*
X35714940Y-18724880D01*
X35486340Y-18724880D01*
X35275520Y-18811240D01*
X35112960Y-18973800D01*
X35026600Y-19184620D01*
X35026600Y-19413220D01*
X35112960Y-19624040D01*
X35275520Y-19786600D01*
X35486340Y-19872960D01*
X35714940Y-19872960D01*
X35925760Y-19786600D01*
X36088320Y-19624040D01*
X36174680Y-19413220D01*
X36174680Y-42486580D01*
X36088320Y-42275760D01*
X35925760Y-42113200D01*
X35714940Y-42026840D01*
X35486340Y-42026840D01*
X35275520Y-42113200D01*
X35112960Y-42275760D01*
X35026600Y-42486580D01*
X35026600Y-42715180D01*
X35112960Y-42926000D01*
X35275520Y-43088560D01*
X35486340Y-43174920D01*
X35714940Y-43174920D01*
X35925760Y-43088560D01*
X36088320Y-42926000D01*
X36174680Y-42715180D01*
X36174680Y-49679860D01*
X34574480Y-49679860D01*
X34574480Y-37815520D01*
X34574480Y-37586920D01*
X34488120Y-37376100D01*
X34325560Y-37213540D01*
X34114740Y-37127180D01*
X33886140Y-37127180D01*
X33675320Y-37213540D01*
X33512760Y-37376100D01*
X33426400Y-37586920D01*
X33426400Y-37815520D01*
X33512760Y-38026340D01*
X33675320Y-38188900D01*
X33886140Y-38275260D01*
X34114740Y-38275260D01*
X34325560Y-38188900D01*
X34488120Y-38026340D01*
X34574480Y-37815520D01*
X34574480Y-49679860D01*
X32572960Y-49679860D01*
X32572960Y-42814240D01*
X32572960Y-42585640D01*
X32486600Y-42374820D01*
X32473900Y-42362120D01*
X32473900Y-19113500D01*
X32473900Y-18884900D01*
X32387540Y-18674080D01*
X32224980Y-18511520D01*
X32014160Y-18425160D01*
X31785560Y-18425160D01*
X31574740Y-18511520D01*
X31450280Y-18635980D01*
X31325820Y-18511520D01*
X31115000Y-18425160D01*
X30886400Y-18425160D01*
X30675580Y-18511520D01*
X30513020Y-18674080D01*
X30426660Y-18884900D01*
X30426660Y-19113500D01*
X30513020Y-19324320D01*
X30675580Y-19486880D01*
X30886400Y-19573240D01*
X31115000Y-19573240D01*
X31325820Y-19486880D01*
X31450280Y-19362420D01*
X31574740Y-19486880D01*
X31785560Y-19573240D01*
X32014160Y-19573240D01*
X32224980Y-19486880D01*
X32387540Y-19324320D01*
X32473900Y-19113500D01*
X32473900Y-42362120D01*
X32324040Y-42212260D01*
X32113220Y-42125900D01*
X31884620Y-42125900D01*
X31673800Y-42212260D01*
X31511240Y-42374820D01*
X31424880Y-42585640D01*
X31424880Y-42814240D01*
X31511240Y-43025060D01*
X31673800Y-43187620D01*
X31884620Y-43273980D01*
X32113220Y-43273980D01*
X32324040Y-43187620D01*
X32486600Y-43025060D01*
X32572960Y-42814240D01*
X32572960Y-49679860D01*
X31275020Y-49679860D01*
X31275020Y-42814240D01*
X31275020Y-42585640D01*
X31188660Y-42374820D01*
X31026100Y-42212260D01*
X30815280Y-42125900D01*
X30673040Y-42125900D01*
X30673040Y-37914580D01*
X30673040Y-37685980D01*
X30586680Y-37475160D01*
X30424120Y-37312600D01*
X30213300Y-37226240D01*
X30073600Y-37226240D01*
X30073600Y-19113500D01*
X30073600Y-18884900D01*
X29987240Y-18674080D01*
X29824680Y-18511520D01*
X29613860Y-18425160D01*
X29385260Y-18425160D01*
X29174440Y-18511520D01*
X29011880Y-18674080D01*
X28925520Y-18884900D01*
X28925520Y-19113500D01*
X29011880Y-19324320D01*
X29174440Y-19486880D01*
X29385260Y-19573240D01*
X29613860Y-19573240D01*
X29824680Y-19486880D01*
X29987240Y-19324320D01*
X30073600Y-19113500D01*
X30073600Y-37226240D01*
X29984700Y-37226240D01*
X29773880Y-37312600D01*
X29611320Y-37475160D01*
X29524960Y-37685980D01*
X29524960Y-37914580D01*
X29611320Y-38125400D01*
X29773880Y-38287960D01*
X29984700Y-38374320D01*
X30213300Y-38374320D01*
X30424120Y-38287960D01*
X30586680Y-38125400D01*
X30673040Y-37914580D01*
X30673040Y-42125900D01*
X30586680Y-42125900D01*
X30375860Y-42212260D01*
X30213300Y-42374820D01*
X30126940Y-42585640D01*
X30126940Y-42814240D01*
X30213300Y-43025060D01*
X30375860Y-43187620D01*
X30586680Y-43273980D01*
X30815280Y-43273980D01*
X31026100Y-43187620D01*
X31188660Y-43025060D01*
X31275020Y-42814240D01*
X31275020Y-49679860D01*
X30673040Y-49679860D01*
X30673040Y-46413420D01*
X30673040Y-46184820D01*
X30586680Y-45974000D01*
X30424120Y-45811440D01*
X30213300Y-45725080D01*
X29984700Y-45725080D01*
X29773880Y-45811440D01*
X29611320Y-45974000D01*
X29524960Y-46184820D01*
X29524960Y-46413420D01*
X29611320Y-46624240D01*
X29773880Y-46786800D01*
X29984700Y-46873160D01*
X30213300Y-46873160D01*
X30424120Y-46786800D01*
X30586680Y-46624240D01*
X30673040Y-46413420D01*
X30673040Y-49679860D01*
X29072840Y-49679860D01*
X29072840Y-48514000D01*
X29072840Y-48285400D01*
X28986480Y-48074580D01*
X28823920Y-47912020D01*
X28613100Y-47825660D01*
X28384500Y-47825660D01*
X28374340Y-47828200D01*
X28374340Y-31115000D01*
X28374340Y-30886400D01*
X28287980Y-30675580D01*
X28125420Y-30513020D01*
X27914600Y-30426660D01*
X27686000Y-30426660D01*
X27475180Y-30513020D01*
X27475180Y-24414480D01*
X27475180Y-24185880D01*
X27388820Y-23975060D01*
X27226260Y-23812500D01*
X27023060Y-23728680D01*
X27124660Y-23688040D01*
X27287220Y-23525480D01*
X27373580Y-23314660D01*
X27373580Y-23086060D01*
X27287220Y-22875240D01*
X27261820Y-22849840D01*
X27388820Y-22725380D01*
X27475180Y-22514560D01*
X27475180Y-22285960D01*
X27388820Y-22075140D01*
X27274520Y-21960840D01*
X27274520Y-21313140D01*
X27274520Y-21084540D01*
X27188160Y-20873720D01*
X27025600Y-20711160D01*
X26814780Y-20624800D01*
X26675080Y-20624800D01*
X26675080Y-18214340D01*
X26675080Y-17985740D01*
X26588720Y-17774920D01*
X26426160Y-17612360D01*
X26215340Y-17526000D01*
X26073100Y-17526000D01*
X26073100Y-14714220D01*
X26073100Y-14485620D01*
X25986740Y-14274800D01*
X25824180Y-14112240D01*
X25613360Y-14025880D01*
X25384760Y-14025880D01*
X25173940Y-14112240D01*
X25011380Y-14274800D01*
X24925020Y-14485620D01*
X24925020Y-14714220D01*
X25011380Y-14925040D01*
X25173940Y-15087600D01*
X25384760Y-15173960D01*
X25613360Y-15173960D01*
X25824180Y-15087600D01*
X25986740Y-14925040D01*
X26073100Y-14714220D01*
X26073100Y-17526000D01*
X25986740Y-17526000D01*
X25775920Y-17612360D01*
X25613360Y-17774920D01*
X25527000Y-17985740D01*
X25527000Y-18214340D01*
X25613360Y-18425160D01*
X25775920Y-18587720D01*
X25986740Y-18674080D01*
X26215340Y-18674080D01*
X26426160Y-18587720D01*
X26588720Y-18425160D01*
X26675080Y-18214340D01*
X26675080Y-20624800D01*
X26586180Y-20624800D01*
X26375360Y-20711160D01*
X26212800Y-20873720D01*
X26126440Y-21084540D01*
X26126440Y-21313140D01*
X26212800Y-21523960D01*
X26375360Y-21686520D01*
X26586180Y-21772880D01*
X26814780Y-21772880D01*
X27025600Y-21686520D01*
X27188160Y-21523960D01*
X27274520Y-21313140D01*
X27274520Y-21960840D01*
X27226260Y-21912580D01*
X27015440Y-21826220D01*
X26786840Y-21826220D01*
X26576020Y-21912580D01*
X26413460Y-22075140D01*
X26327100Y-22285960D01*
X26327100Y-22514560D01*
X26413460Y-22725380D01*
X26436320Y-22748240D01*
X26311860Y-22875240D01*
X26225500Y-23086060D01*
X26225500Y-23314660D01*
X26311860Y-23525480D01*
X26474420Y-23688040D01*
X26675080Y-23769320D01*
X26576020Y-23812500D01*
X26413460Y-23975060D01*
X26327100Y-24185880D01*
X26327100Y-24414480D01*
X26413460Y-24625300D01*
X26576020Y-24787860D01*
X26786840Y-24874220D01*
X27015440Y-24874220D01*
X27226260Y-24787860D01*
X27388820Y-24625300D01*
X27475180Y-24414480D01*
X27475180Y-30513020D01*
X27373580Y-30614620D01*
X27373580Y-30515560D01*
X27373580Y-30286960D01*
X27287220Y-30076140D01*
X27274520Y-30063440D01*
X27274520Y-26314400D01*
X27274520Y-26085800D01*
X27188160Y-25874980D01*
X27025600Y-25712420D01*
X26814780Y-25626060D01*
X26586180Y-25626060D01*
X26375360Y-25712420D01*
X26212800Y-25874980D01*
X26126440Y-26085800D01*
X26126440Y-26314400D01*
X26212800Y-26525220D01*
X26375360Y-26687780D01*
X26586180Y-26774140D01*
X26814780Y-26774140D01*
X27025600Y-26687780D01*
X27188160Y-26525220D01*
X27274520Y-26314400D01*
X27274520Y-30063440D01*
X27124660Y-29913580D01*
X26913840Y-29827220D01*
X26685240Y-29827220D01*
X26474420Y-29913580D01*
X26311860Y-30076140D01*
X26225500Y-30286960D01*
X26225500Y-30515560D01*
X26311860Y-30726380D01*
X26474420Y-30888940D01*
X26685240Y-30975300D01*
X26913840Y-30975300D01*
X27124660Y-30888940D01*
X27287220Y-30726380D01*
X27373580Y-30515560D01*
X27373580Y-30614620D01*
X27312620Y-30675580D01*
X27226260Y-30886400D01*
X27226260Y-31115000D01*
X27312620Y-31325820D01*
X27475180Y-31488380D01*
X27686000Y-31574740D01*
X27914600Y-31574740D01*
X28125420Y-31488380D01*
X28287980Y-31325820D01*
X28374340Y-31115000D01*
X28374340Y-47828200D01*
X28173680Y-47912020D01*
X28173680Y-36814760D01*
X28173680Y-36586160D01*
X28087320Y-36375340D01*
X27924760Y-36212780D01*
X27713940Y-36126420D01*
X27485340Y-36126420D01*
X27373580Y-36172140D01*
X27373580Y-32113220D01*
X27373580Y-31884620D01*
X27287220Y-31673800D01*
X27124660Y-31511240D01*
X26913840Y-31424880D01*
X26685240Y-31424880D01*
X26474420Y-31511240D01*
X26311860Y-31673800D01*
X26225500Y-31884620D01*
X26225500Y-32113220D01*
X26311860Y-32324040D01*
X26474420Y-32486600D01*
X26685240Y-32572960D01*
X26913840Y-32572960D01*
X27124660Y-32486600D01*
X27287220Y-32324040D01*
X27373580Y-32113220D01*
X27373580Y-36172140D01*
X27274520Y-36212780D01*
X27111960Y-36375340D01*
X27025600Y-36586160D01*
X27025600Y-36814760D01*
X27111960Y-37025580D01*
X27274520Y-37188140D01*
X27485340Y-37274500D01*
X27713940Y-37274500D01*
X27924760Y-37188140D01*
X28087320Y-37025580D01*
X28173680Y-36814760D01*
X28173680Y-47912020D01*
X28011120Y-48074580D01*
X27924760Y-48285400D01*
X27924760Y-48514000D01*
X28011120Y-48724820D01*
X28173680Y-48887380D01*
X28384500Y-48973740D01*
X28613100Y-48973740D01*
X28823920Y-48887380D01*
X28986480Y-48724820D01*
X29072840Y-48514000D01*
X29072840Y-49679860D01*
X24173180Y-49679860D01*
X24173180Y-31813500D01*
X24173180Y-31584900D01*
X24086820Y-31374080D01*
X23931880Y-31219140D01*
X23931880Y-6715760D01*
X23931880Y-6286500D01*
X23766780Y-5887720D01*
X23464520Y-5582920D01*
X23065740Y-5417820D01*
X22636480Y-5417820D01*
X22237700Y-5582920D01*
X21932900Y-5885180D01*
X21767800Y-6283960D01*
X21767800Y-6713220D01*
X21932900Y-7112000D01*
X22235160Y-7416800D01*
X22633940Y-7581900D01*
X23063200Y-7581900D01*
X23461980Y-7416800D01*
X23766780Y-7114540D01*
X23931880Y-6715760D01*
X23931880Y-31219140D01*
X23924260Y-31211520D01*
X23713440Y-31125160D01*
X23672800Y-31125160D01*
X23672800Y-12313920D01*
X23672800Y-12085320D01*
X23586440Y-11874500D01*
X23423880Y-11711940D01*
X23213060Y-11625580D01*
X22984460Y-11625580D01*
X22773640Y-11711940D01*
X22611080Y-11874500D01*
X22524720Y-12085320D01*
X22524720Y-12313920D01*
X22611080Y-12524740D01*
X22773640Y-12687300D01*
X22984460Y-12773660D01*
X23213060Y-12773660D01*
X23423880Y-12687300D01*
X23586440Y-12524740D01*
X23672800Y-12313920D01*
X23672800Y-31125160D01*
X23484840Y-31125160D01*
X23274020Y-31211520D01*
X23111460Y-31374080D01*
X23025100Y-31584900D01*
X23025100Y-31813500D01*
X23111460Y-32024320D01*
X23274020Y-32186880D01*
X23484840Y-32273240D01*
X23713440Y-32273240D01*
X23924260Y-32186880D01*
X24086820Y-32024320D01*
X24173180Y-31813500D01*
X24173180Y-49679860D01*
X23368000Y-49679860D01*
X23368000Y-38752780D01*
X23368000Y-38447980D01*
X23251160Y-38166040D01*
X23035260Y-37950140D01*
X22753320Y-37833300D01*
X22448520Y-37833300D01*
X22166580Y-37950140D01*
X21950680Y-38166040D01*
X21899880Y-38287960D01*
X21849080Y-38166040D01*
X21633180Y-37950140D01*
X21391880Y-37848540D01*
X21391880Y-6715760D01*
X21391880Y-6286500D01*
X21226780Y-5887720D01*
X20924520Y-5582920D01*
X20525740Y-5417820D01*
X20096480Y-5417820D01*
X19697700Y-5582920D01*
X19392900Y-5885180D01*
X19227800Y-6283960D01*
X19227800Y-6713220D01*
X19392900Y-7112000D01*
X19695160Y-7416800D01*
X20093940Y-7581900D01*
X20523200Y-7581900D01*
X20921980Y-7416800D01*
X21226780Y-7114540D01*
X21391880Y-6715760D01*
X21391880Y-37848540D01*
X21351240Y-37833300D01*
X21046440Y-37833300D01*
X20764500Y-37950140D01*
X20548600Y-38166040D01*
X20431760Y-38447980D01*
X20431760Y-38752780D01*
X20548600Y-39034720D01*
X20764500Y-39250620D01*
X21046440Y-39367460D01*
X21351240Y-39367460D01*
X21633180Y-39250620D01*
X21849080Y-39034720D01*
X21899880Y-38910260D01*
X21950680Y-39034720D01*
X22166580Y-39250620D01*
X22448520Y-39367460D01*
X22753320Y-39367460D01*
X23035260Y-39250620D01*
X23251160Y-39034720D01*
X23368000Y-38752780D01*
X23368000Y-49679860D01*
X22567900Y-49679860D01*
X22567900Y-40853360D01*
X22567900Y-40548560D01*
X22451060Y-40266620D01*
X22235160Y-40050720D01*
X21953220Y-39933880D01*
X21648420Y-39933880D01*
X21366480Y-40050720D01*
X21150580Y-40266620D01*
X21033740Y-40548560D01*
X21033740Y-40853360D01*
X21150580Y-41135300D01*
X21366480Y-41351200D01*
X21648420Y-41468040D01*
X21953220Y-41468040D01*
X22235160Y-41351200D01*
X22451060Y-41135300D01*
X22567900Y-40853360D01*
X22567900Y-49679860D01*
X21592540Y-49679860D01*
X21592540Y-48285400D01*
X21592540Y-47856140D01*
X21592540Y-45745400D01*
X21592540Y-45316140D01*
X21427440Y-44917360D01*
X21125180Y-44612560D01*
X20726400Y-44447460D01*
X20297140Y-44447460D01*
X19898360Y-44612560D01*
X19593560Y-44914820D01*
X19428460Y-45313600D01*
X19428460Y-45742860D01*
X19593560Y-46141640D01*
X19895820Y-46446440D01*
X20294600Y-46611540D01*
X20723860Y-46611540D01*
X21122640Y-46446440D01*
X21427440Y-46144180D01*
X21592540Y-45745400D01*
X21592540Y-47856140D01*
X21427440Y-47457360D01*
X21125180Y-47152560D01*
X20726400Y-46987460D01*
X20297140Y-46987460D01*
X19898360Y-47152560D01*
X19593560Y-47454820D01*
X19428460Y-47853600D01*
X19428460Y-48282860D01*
X19593560Y-48681640D01*
X19895820Y-48986440D01*
X20294600Y-49151540D01*
X20723860Y-49151540D01*
X21122640Y-48986440D01*
X21427440Y-48684180D01*
X21592540Y-48285400D01*
X21592540Y-49679860D01*
X19052540Y-49679860D01*
X19052540Y-48285400D01*
X19052540Y-47856140D01*
X19052540Y-45745400D01*
X19052540Y-45316140D01*
X18887440Y-44917360D01*
X18851880Y-44879260D01*
X18851880Y-6715760D01*
X18851880Y-6286500D01*
X18686780Y-5887720D01*
X18384520Y-5582920D01*
X17985740Y-5417820D01*
X17556480Y-5417820D01*
X17157700Y-5582920D01*
X16852900Y-5885180D01*
X16687800Y-6283960D01*
X16687800Y-6713220D01*
X16852900Y-7112000D01*
X17155160Y-7416800D01*
X17553940Y-7581900D01*
X17983200Y-7581900D01*
X18381980Y-7416800D01*
X18686780Y-7114540D01*
X18851880Y-6715760D01*
X18851880Y-44879260D01*
X18585180Y-44612560D01*
X18186400Y-44447460D01*
X17757140Y-44447460D01*
X17358360Y-44612560D01*
X17066260Y-44902120D01*
X17066260Y-39852600D01*
X17066260Y-39547800D01*
X16949420Y-39265860D01*
X16733520Y-39049960D01*
X16451580Y-38933120D01*
X16311880Y-38933120D01*
X16311880Y-6715760D01*
X16311880Y-6286500D01*
X16146780Y-5887720D01*
X15844520Y-5582920D01*
X15445740Y-5417820D01*
X15016480Y-5417820D01*
X14617700Y-5582920D01*
X14312900Y-5885180D01*
X14147800Y-6283960D01*
X14147800Y-6713220D01*
X14312900Y-7112000D01*
X14615160Y-7416800D01*
X15013940Y-7581900D01*
X15443200Y-7581900D01*
X15841980Y-7416800D01*
X16146780Y-7114540D01*
X16311880Y-6715760D01*
X16311880Y-38933120D01*
X16146780Y-38933120D01*
X15864840Y-39049960D01*
X15648940Y-39265860D01*
X15532100Y-39547800D01*
X15532100Y-39852600D01*
X15648940Y-40134540D01*
X15864840Y-40350440D01*
X16146780Y-40467280D01*
X16451580Y-40467280D01*
X16733520Y-40350440D01*
X16949420Y-40134540D01*
X17066260Y-39852600D01*
X17066260Y-44902120D01*
X17053560Y-44914820D01*
X16888460Y-45313600D01*
X16888460Y-45742860D01*
X17053560Y-46141640D01*
X17355820Y-46446440D01*
X17754600Y-46611540D01*
X18183860Y-46611540D01*
X18582640Y-46446440D01*
X18887440Y-46144180D01*
X19052540Y-45745400D01*
X19052540Y-47856140D01*
X18887440Y-47457360D01*
X18585180Y-47152560D01*
X18186400Y-46987460D01*
X17757140Y-46987460D01*
X17358360Y-47152560D01*
X17053560Y-47454820D01*
X16888460Y-47853600D01*
X16888460Y-48282860D01*
X17053560Y-48681640D01*
X17355820Y-48986440D01*
X17754600Y-49151540D01*
X18183860Y-49151540D01*
X18582640Y-48986440D01*
X18887440Y-48684180D01*
X19052540Y-48285400D01*
X19052540Y-49679860D01*
X16512540Y-49679860D01*
X16512540Y-48285400D01*
X16512540Y-47856140D01*
X16512540Y-45745400D01*
X16512540Y-45316140D01*
X16347440Y-44917360D01*
X16045180Y-44612560D01*
X15646400Y-44447460D01*
X15217140Y-44447460D01*
X14818360Y-44612560D01*
X14513560Y-44914820D01*
X14348460Y-45313600D01*
X14348460Y-45742860D01*
X14513560Y-46141640D01*
X14815820Y-46446440D01*
X15214600Y-46611540D01*
X15643860Y-46611540D01*
X16042640Y-46446440D01*
X16347440Y-46144180D01*
X16512540Y-45745400D01*
X16512540Y-47856140D01*
X16347440Y-47457360D01*
X16045180Y-47152560D01*
X15646400Y-46987460D01*
X15217140Y-46987460D01*
X14818360Y-47152560D01*
X14513560Y-47454820D01*
X14348460Y-47853600D01*
X14348460Y-48282860D01*
X14513560Y-48681640D01*
X14815820Y-48986440D01*
X15214600Y-49151540D01*
X15643860Y-49151540D01*
X16042640Y-48986440D01*
X16347440Y-48684180D01*
X16512540Y-48285400D01*
X16512540Y-49679860D01*
X14259560Y-49679860D01*
X14259560Y-48371760D01*
X14259560Y-47767240D01*
X14257020Y-47426880D01*
X14257020Y-47185580D01*
X14165580Y-46964600D01*
X13995400Y-46794420D01*
X13972540Y-46784260D01*
X13972540Y-45745400D01*
X13972540Y-45316140D01*
X13807440Y-44917360D01*
X13771880Y-44879260D01*
X13771880Y-6715760D01*
X13771880Y-6286500D01*
X13606780Y-5887720D01*
X13304520Y-5582920D01*
X12905740Y-5417820D01*
X12476480Y-5417820D01*
X12077700Y-5582920D01*
X11772900Y-5885180D01*
X11607800Y-6283960D01*
X11607800Y-6713220D01*
X11772900Y-7112000D01*
X12075160Y-7416800D01*
X12473940Y-7581900D01*
X12903200Y-7581900D01*
X13301980Y-7416800D01*
X13606780Y-7114540D01*
X13771880Y-6715760D01*
X13771880Y-44879260D01*
X13505180Y-44612560D01*
X13167360Y-44470320D01*
X13167360Y-12352020D01*
X13167360Y-12047220D01*
X13050520Y-11765280D01*
X12834620Y-11549380D01*
X12552680Y-11432540D01*
X12247880Y-11432540D01*
X11965940Y-11549380D01*
X11750040Y-11765280D01*
X11633200Y-12047220D01*
X11633200Y-12352020D01*
X11750040Y-12633960D01*
X11965940Y-12849860D01*
X12247880Y-12966700D01*
X12552680Y-12966700D01*
X12834620Y-12849860D01*
X13050520Y-12633960D01*
X13167360Y-12352020D01*
X13167360Y-44470320D01*
X13106400Y-44447460D01*
X12677140Y-44447460D01*
X12278360Y-44612560D01*
X11973560Y-44914820D01*
X11808460Y-45313600D01*
X11808460Y-45742860D01*
X11973560Y-46141640D01*
X12275820Y-46446440D01*
X12674600Y-46611540D01*
X13103860Y-46611540D01*
X13502640Y-46446440D01*
X13807440Y-46144180D01*
X13972540Y-45745400D01*
X13972540Y-46784260D01*
X13771880Y-46702980D01*
X13192760Y-46700440D01*
X13042900Y-46850300D01*
X13042900Y-47917100D01*
X14109700Y-47917100D01*
X14259560Y-47767240D01*
X14259560Y-48371760D01*
X14109700Y-48221900D01*
X13042900Y-48221900D01*
X13042900Y-49288700D01*
X13192760Y-49438560D01*
X13771880Y-49436020D01*
X13995400Y-49344580D01*
X14165580Y-49174400D01*
X14257020Y-48953420D01*
X14257020Y-48712120D01*
X14259560Y-48371760D01*
X14259560Y-49679860D01*
X12738100Y-49679860D01*
X12738100Y-49288700D01*
X12738100Y-48221900D01*
X12738100Y-47917100D01*
X12738100Y-46850300D01*
X12588240Y-46700440D01*
X12009120Y-46702980D01*
X11785600Y-46794420D01*
X11615420Y-46964600D01*
X11523980Y-47185580D01*
X11523980Y-47426880D01*
X11521440Y-47767240D01*
X11671300Y-47917100D01*
X12738100Y-47917100D01*
X12738100Y-48221900D01*
X11671300Y-48221900D01*
X11521440Y-48371760D01*
X11523980Y-48712120D01*
X11523980Y-48953420D01*
X11615420Y-49174400D01*
X11785600Y-49344580D01*
X12009120Y-49436020D01*
X12588240Y-49438560D01*
X12738100Y-49288700D01*
X12738100Y-49679860D01*
X11518900Y-49679860D01*
X11518900Y-6802120D01*
X11518900Y-6197600D01*
X11516360Y-5857240D01*
X11516360Y-5615940D01*
X11424920Y-5394960D01*
X11254740Y-5224780D01*
X11031220Y-5133340D01*
X10452100Y-5130800D01*
X10302240Y-5280660D01*
X10302240Y-6347460D01*
X11369040Y-6347460D01*
X11518900Y-6197600D01*
X11518900Y-6802120D01*
X11369040Y-6652260D01*
X10302240Y-6652260D01*
X10302240Y-7719060D01*
X10452100Y-7868920D01*
X11031220Y-7866380D01*
X11254740Y-7774940D01*
X11424920Y-7604760D01*
X11516360Y-7383780D01*
X11516360Y-7142480D01*
X11518900Y-6802120D01*
X11518900Y-49679860D01*
X9997440Y-49679860D01*
X9997440Y-7719060D01*
X9997440Y-6652260D01*
X9997440Y-6347460D01*
X9997440Y-5280660D01*
X9847580Y-5130800D01*
X9268460Y-5133340D01*
X9044940Y-5224780D01*
X8874760Y-5394960D01*
X8783320Y-5615940D01*
X8783320Y-5857240D01*
X8780780Y-6197600D01*
X8930640Y-6347460D01*
X9997440Y-6347460D01*
X9997440Y-6652260D01*
X8930640Y-6652260D01*
X8780780Y-6802120D01*
X8783320Y-7142480D01*
X8783320Y-7383780D01*
X8874760Y-7604760D01*
X9044940Y-7774940D01*
X9268460Y-7866380D01*
X9847580Y-7868920D01*
X9997440Y-7719060D01*
X9997440Y-49679860D01*
X8074660Y-49679860D01*
X8074660Y-35613340D01*
X8074660Y-35384740D01*
X8074660Y-34114740D01*
X8074660Y-33886140D01*
X7988300Y-33675320D01*
X7825740Y-33512760D01*
X7614920Y-33426400D01*
X7538720Y-33426400D01*
X7538720Y-4693920D01*
X7536180Y-3286760D01*
X7002780Y-2006600D01*
X6548120Y-1666240D01*
X6334760Y-1879600D01*
X6334760Y-1452880D01*
X5994400Y-998220D01*
X4693920Y-462280D01*
X3286760Y-464820D01*
X2006600Y-998220D01*
X1666240Y-1452880D01*
X4000500Y-3784600D01*
X6334760Y-1452880D01*
X6334760Y-1879600D01*
X4216400Y-4000500D01*
X6548120Y-6334760D01*
X7002780Y-5994400D01*
X7538720Y-4693920D01*
X7538720Y-33426400D01*
X7386320Y-33426400D01*
X7175500Y-33512760D01*
X7012940Y-33675320D01*
X6926580Y-33886140D01*
X6926580Y-34114740D01*
X7012940Y-34325560D01*
X7175500Y-34488120D01*
X7386320Y-34574480D01*
X7614920Y-34574480D01*
X7825740Y-34488120D01*
X7988300Y-34325560D01*
X8074660Y-34114740D01*
X8074660Y-35384740D01*
X7988300Y-35173920D01*
X7825740Y-35011360D01*
X7614920Y-34925000D01*
X7386320Y-34925000D01*
X7175500Y-35011360D01*
X7012940Y-35173920D01*
X6926580Y-35384740D01*
X6926580Y-35613340D01*
X7012940Y-35824160D01*
X7175500Y-35986720D01*
X7386320Y-36073080D01*
X7614920Y-36073080D01*
X7825740Y-35986720D01*
X7988300Y-35824160D01*
X8074660Y-35613340D01*
X8074660Y-49679860D01*
X7538720Y-49679860D01*
X7538720Y-46692820D01*
X7536180Y-45285660D01*
X7002780Y-44005500D01*
X6548120Y-43665140D01*
X6334760Y-43878500D01*
X6334760Y-43451780D01*
X6334760Y-6548120D01*
X4000500Y-4216400D01*
X3784600Y-4429760D01*
X3784600Y-4000500D01*
X1452880Y-1666240D01*
X998220Y-2006600D01*
X462280Y-3307080D01*
X464820Y-4714240D01*
X998220Y-5994400D01*
X1452880Y-6334760D01*
X3784600Y-4000500D01*
X3784600Y-4429760D01*
X1666240Y-6548120D01*
X2006600Y-7002780D01*
X3307080Y-7538720D01*
X4714240Y-7536180D01*
X5994400Y-7002780D01*
X6334760Y-6548120D01*
X6334760Y-43451780D01*
X5994400Y-42997120D01*
X5773420Y-42905680D01*
X5773420Y-36614100D01*
X5773420Y-36385500D01*
X5687060Y-36174680D01*
X5524500Y-36012120D01*
X5323840Y-35928300D01*
X5323840Y-30614620D01*
X5323840Y-30386020D01*
X5237480Y-30175200D01*
X5074920Y-30012640D01*
X4864100Y-29926280D01*
X4635500Y-29926280D01*
X4424680Y-30012640D01*
X4262120Y-30175200D01*
X4175760Y-30386020D01*
X4175760Y-30614620D01*
X4262120Y-30825440D01*
X4424680Y-30988000D01*
X4635500Y-31074360D01*
X4864100Y-31074360D01*
X5074920Y-30988000D01*
X5237480Y-30825440D01*
X5323840Y-30614620D01*
X5323840Y-35928300D01*
X5313680Y-35925760D01*
X5085080Y-35925760D01*
X4874260Y-36012120D01*
X4711700Y-36174680D01*
X4625340Y-36385500D01*
X4625340Y-36614100D01*
X4711700Y-36824920D01*
X4874260Y-36987480D01*
X5085080Y-37073840D01*
X5313680Y-37073840D01*
X5524500Y-36987480D01*
X5687060Y-36824920D01*
X5773420Y-36614100D01*
X5773420Y-42905680D01*
X4693920Y-42461180D01*
X3774440Y-42461180D01*
X3774440Y-37614860D01*
X3774440Y-37386260D01*
X3688080Y-37175440D01*
X3573780Y-37061140D01*
X3573780Y-13014960D01*
X3573780Y-12786360D01*
X3487420Y-12575540D01*
X3324860Y-12412980D01*
X3114040Y-12326620D01*
X2885440Y-12326620D01*
X2674620Y-12412980D01*
X2512060Y-12575540D01*
X2425700Y-12786360D01*
X2425700Y-13014960D01*
X2512060Y-13225780D01*
X2674620Y-13388340D01*
X2885440Y-13474700D01*
X3114040Y-13474700D01*
X3324860Y-13388340D01*
X3487420Y-13225780D01*
X3573780Y-13014960D01*
X3573780Y-37061140D01*
X3525520Y-37012880D01*
X3314700Y-36926520D01*
X3086100Y-36926520D01*
X2875280Y-37012880D01*
X2712720Y-37175440D01*
X2626360Y-37386260D01*
X2626360Y-37614860D01*
X2712720Y-37825680D01*
X2875280Y-37988240D01*
X3086100Y-38074600D01*
X3314700Y-38074600D01*
X3525520Y-37988240D01*
X3688080Y-37825680D01*
X3774440Y-37614860D01*
X3774440Y-42461180D01*
X3286760Y-42463720D01*
X2006600Y-42997120D01*
X1666240Y-43451780D01*
X4000500Y-45783500D01*
X6334760Y-43451780D01*
X6334760Y-43878500D01*
X4216400Y-45999400D01*
X6548120Y-48333660D01*
X7002780Y-47993300D01*
X7538720Y-46692820D01*
X7538720Y-49679860D01*
X6334760Y-49679860D01*
X6334760Y-48547020D01*
X4000500Y-46215300D01*
X3784600Y-46428660D01*
X3784600Y-45999400D01*
X1452880Y-43665140D01*
X998220Y-44005500D01*
X462280Y-45305980D01*
X464820Y-46713140D01*
X998220Y-47993300D01*
X1452880Y-48333660D01*
X3784600Y-45999400D01*
X3784600Y-46428660D01*
X1666240Y-48547020D01*
X2006600Y-49001680D01*
X3307080Y-49537620D01*
X4714240Y-49535080D01*
X5994400Y-49001680D01*
X6334760Y-48547020D01*
X6334760Y-49679860D01*
X99060Y-49679860D01*
X99060Y-320040D01*
X122679460Y-320040D01*
X122679460Y-49679860D01*
M02*
