G04 (created by PCBNEW-RS274X (2012-01-19 BZR 3256)-stable) date 2012/07/23 17:39:25*
G01*
G70*
G90*
%MOIN*%
G04 Gerber Fmt 3.4, Leading zero omitted, Abs format*
%FSLAX34Y34*%
G04 APERTURE LIST*
%ADD10C,0.006000*%
%ADD11C,0.150800*%
%ADD12C,0.099200*%
%ADD13R,0.124800X0.124800*%
%ADD14R,0.213300X0.252800*%
%ADD15C,0.237000*%
%ADD16R,0.060800X0.060800*%
%ADD17C,0.060800*%
%ADD18C,0.075600*%
%ADD19C,0.044100*%
%ADD20R,0.071700X0.090800*%
%ADD21R,0.032300X0.040200*%
%ADD22R,0.040200X0.032300*%
G04 APERTURE END LIST*
G54D10*
G54D11*
X31102Y-01772D03*
X31102Y-05709D03*
X29134Y-05020D03*
X37795Y-01772D03*
X37795Y-05709D03*
X35827Y-05020D03*
G54D12*
X43306Y-03149D03*
X41653Y-04331D03*
X43307Y-05512D03*
G54D13*
X22677Y-10273D03*
G54D14*
X40551Y-11496D03*
G54D15*
X46850Y-18110D03*
X46850Y-01575D03*
X01575Y-18110D03*
X01575Y-01575D03*
G54D16*
X03996Y-02559D03*
G54D17*
X04996Y-02559D03*
X05996Y-02559D03*
X06996Y-02559D03*
X07996Y-02559D03*
X08996Y-02559D03*
G54D16*
X44201Y-18504D03*
G54D17*
X43201Y-18504D03*
G54D16*
X44201Y-16929D03*
G54D17*
X43201Y-16929D03*
G54D16*
X43291Y-15264D03*
G54D17*
X43291Y-14264D03*
X44291Y-15264D03*
X44291Y-14264D03*
X45291Y-15264D03*
X45291Y-14264D03*
G54D18*
X20669Y-04528D03*
X18701Y-04528D03*
X18504Y-01576D03*
X20866Y-01576D03*
X26181Y-04528D03*
X24213Y-04528D03*
X24016Y-01576D03*
X26378Y-01576D03*
G54D19*
X24606Y-06102D03*
X24606Y-06890D03*
X20669Y-06102D03*
X20669Y-06890D03*
G54D20*
X19354Y-18774D03*
X21354Y-18774D03*
X21354Y-16974D03*
X19354Y-16974D03*
G54D21*
X22402Y-17559D03*
X22402Y-18189D03*
X11024Y-13661D03*
X11024Y-14291D03*
X13386Y-13661D03*
X13386Y-14291D03*
X05906Y-15669D03*
X05906Y-15039D03*
X17677Y-13661D03*
X17677Y-14291D03*
G54D22*
X11929Y-10315D03*
X11299Y-10315D03*
X16614Y-10276D03*
X17244Y-10276D03*
X11929Y-12795D03*
X11299Y-12795D03*
X22795Y-15945D03*
X23425Y-15945D03*
G54D21*
X04724Y-05394D03*
X04724Y-06024D03*
X15630Y-14291D03*
X15630Y-13661D03*
G54D22*
X25748Y-10197D03*
X25118Y-10197D03*
X29764Y-09724D03*
X29134Y-09724D03*
X23386Y-15354D03*
X22756Y-15354D03*
G54D21*
X14016Y-04055D03*
X14016Y-03425D03*
X14331Y-01535D03*
X14331Y-02165D03*
X11811Y-13661D03*
X11811Y-14291D03*
X10906Y-07638D03*
X10906Y-08268D03*
G54D22*
X11929Y-11614D03*
X11299Y-11614D03*
X20197Y-12480D03*
X19567Y-12480D03*
G54D21*
X14055Y-08976D03*
X14055Y-08346D03*
X16417Y-08976D03*
X16417Y-08346D03*
X17205Y-08976D03*
X17205Y-08346D03*
X17795Y-08976D03*
X17795Y-08346D03*
G54D22*
X16614Y-11929D03*
X17244Y-11929D03*
G54D21*
X12795Y-08976D03*
X12795Y-08346D03*
G54D22*
X11929Y-12205D03*
X11299Y-12205D03*
G54D21*
X15079Y-13465D03*
X15079Y-14095D03*
G54D22*
X16614Y-12520D03*
X17244Y-12520D03*
G54D21*
X15748Y-08976D03*
X15748Y-08346D03*
G54D22*
X29134Y-08189D03*
X29764Y-08189D03*
G54D21*
X11614Y-08976D03*
X11614Y-08346D03*
X16850Y-13661D03*
X16850Y-14291D03*
G54D22*
X29764Y-10709D03*
X29134Y-10709D03*
G54D21*
X16260Y-13661D03*
X16260Y-14291D03*
X12204Y-08976D03*
X12204Y-08346D03*
G54D22*
X20512Y-13976D03*
X19882Y-13976D03*
X20512Y-14961D03*
X19882Y-14961D03*
G54D16*
X05075Y-18925D03*
G54D17*
X05075Y-17925D03*
X06075Y-18925D03*
X06075Y-17925D03*
X07075Y-18925D03*
X07075Y-17925D03*
X08075Y-18925D03*
X08075Y-17925D03*
M02*
