G04 (created by PCBNEW-RS274X (2012-01-19 BZR 3256)-stable) date 2012/07/23 17:39:25*
G01*
G70*
G90*
%MOIN*%
G04 Gerber Fmt 3.4, Leading zero omitted, Abs format*
%FSLAX34Y34*%
G04 APERTURE LIST*
%ADD10C,0.006000*%
%ADD11C,0.007900*%
%ADD12C,0.007100*%
%ADD13C,0.015700*%
%ADD14C,0.006300*%
%ADD15C,0.011800*%
%ADD16C,0.000100*%
%ADD17C,0.012000*%
%ADD18C,0.002600*%
%ADD19C,0.008000*%
%ADD20C,0.007800*%
%ADD21C,0.005000*%
%ADD22C,0.005900*%
%ADD23C,0.010000*%
%ADD24C,0.150800*%
%ADD25R,0.118900X0.040200*%
%ADD26C,0.099200*%
%ADD27R,0.050000X0.048100*%
%ADD28R,0.048100X0.050000*%
%ADD29R,0.028400X0.071700*%
%ADD30R,0.079500X0.103200*%
%ADD31R,0.050800X0.015800*%
%ADD32R,0.012600X0.046000*%
%ADD33R,0.046000X0.012600*%
%ADD34R,0.124800X0.124800*%
%ADD35R,0.026400X0.036200*%
%ADD36R,0.020500X0.036200*%
%ADD37R,0.134700X0.040200*%
%ADD38R,0.065800X0.048100*%
%ADD39R,0.040100X0.063700*%
%ADD40R,0.213300X0.252800*%
%ADD41R,0.016500X0.048000*%
%ADD42R,0.063800X0.099200*%
%ADD43C,0.237000*%
%ADD44R,0.087400X0.024400*%
%ADD45R,0.060800X0.060800*%
%ADD46C,0.060800*%
%ADD47R,0.170100X0.048000*%
%ADD48R,0.040200X0.028400*%
%ADD49R,0.030800X0.020800*%
%ADD50R,0.063800X0.063800*%
%ADD51R,0.048000X0.048000*%
%ADD52R,0.060800X0.010800*%
%ADD53R,0.010800X0.060800*%
%ADD54C,0.075600*%
%ADD55R,0.071700X0.090800*%
%ADD56R,0.020800X0.045800*%
%ADD57R,0.045800X0.020800*%
%ADD58R,0.048000X0.016500*%
%ADD59R,0.012600X0.055900*%
%ADD60R,0.118900X0.118900*%
%ADD61R,0.055900X0.012600*%
%ADD62R,0.079500X0.016500*%
%ADD63C,0.044100*%
%ADD64R,0.040200X0.032300*%
%ADD65R,0.032300X0.040200*%
G04 APERTURE END LIST*
G54D10*
G54D11*
X39724Y-07874D02*
X42205Y-07874D01*
X39724Y-06614D02*
X39724Y-07874D01*
X31024Y-12992D02*
X31024Y-14370D01*
X30827Y-12992D02*
X31024Y-12992D01*
X30827Y-12835D02*
X30827Y-12992D01*
X23504Y-18583D02*
X23504Y-19173D01*
X23346Y-18583D02*
X23504Y-18583D01*
X23346Y-17598D02*
X23346Y-18583D01*
X24961Y-17598D02*
X23346Y-17598D01*
X39173Y-13622D02*
X39173Y-13780D01*
X38504Y-13622D02*
X39173Y-13622D01*
X38583Y-15354D02*
X40945Y-15354D01*
X39173Y-14961D02*
X39173Y-15118D01*
X28307Y-14961D02*
X28307Y-14134D01*
X28307Y-14961D02*
X28150Y-14961D01*
X26575Y-14961D02*
X26378Y-14961D01*
X26575Y-14961D02*
X28150Y-14961D01*
X21654Y-08661D02*
X21654Y-07087D01*
X23622Y-08661D02*
X21654Y-08661D01*
X20079Y-12008D02*
X23819Y-12008D01*
X20079Y-13386D02*
X20079Y-12008D01*
X23819Y-11614D02*
X23819Y-12008D01*
X25000Y-11614D02*
X23819Y-11614D01*
X20079Y-13386D02*
X20079Y-13583D01*
X04724Y-07283D02*
X05118Y-07283D01*
X04724Y-06693D02*
X04724Y-07283D01*
X39173Y-14961D02*
X39173Y-13780D01*
X40551Y-18110D02*
X40551Y-18307D01*
X38583Y-16732D02*
X38583Y-15354D01*
X28150Y-14961D02*
X28150Y-17717D01*
X29331Y-15748D02*
X29528Y-15748D01*
X29331Y-14567D02*
X29331Y-15748D01*
X26575Y-16339D02*
X28150Y-16339D01*
X38780Y-07087D02*
X38780Y-08661D01*
X37992Y-07087D02*
X38780Y-07087D01*
X35236Y-06102D02*
X36811Y-06102D01*
X35236Y-08268D02*
X35236Y-06102D01*
X34646Y-06102D02*
X34646Y-09449D01*
X33071Y-06102D02*
X34646Y-06102D01*
X31693Y-19291D02*
X28150Y-19291D01*
X31496Y-16339D02*
X34055Y-16339D01*
X31496Y-17717D02*
X31496Y-16339D01*
X26575Y-17717D02*
X28150Y-17717D01*
X23819Y-09213D02*
X23819Y-07717D01*
X25354Y-09213D02*
X23819Y-09213D01*
X25354Y-07717D02*
X25354Y-09213D01*
X23819Y-07717D02*
X25354Y-07717D01*
X39292Y-18149D02*
X39292Y-19409D01*
X40551Y-18188D02*
X40551Y-19448D01*
X30827Y-12244D02*
X30827Y-12835D01*
X29528Y-12244D02*
X30827Y-12244D01*
X11483Y-03123D02*
X11457Y-03149D01*
X11378Y-03176D01*
X11326Y-03176D01*
X11247Y-03149D01*
X11194Y-03097D01*
X11168Y-03044D01*
X11142Y-02939D01*
X11142Y-02861D01*
X11168Y-02756D01*
X11194Y-02703D01*
X11247Y-02651D01*
X11326Y-02625D01*
X11378Y-02625D01*
X11457Y-02651D01*
X11483Y-02677D01*
X11824Y-02913D02*
X11824Y-03176D01*
X11640Y-02625D02*
X11824Y-02913D01*
X12008Y-02625D01*
X12139Y-02625D02*
X12506Y-02625D01*
X12270Y-03176D01*
X13031Y-03123D02*
X13005Y-03149D01*
X12926Y-03176D01*
X12874Y-03176D01*
X12795Y-03149D01*
X12742Y-03097D01*
X12716Y-03044D01*
X12690Y-02939D01*
X12690Y-02861D01*
X12716Y-02756D01*
X12742Y-02703D01*
X12795Y-02651D01*
X12874Y-02625D01*
X12926Y-02625D01*
X13005Y-02651D01*
X13031Y-02677D01*
X13556Y-03176D02*
X13241Y-03176D01*
X13398Y-03176D02*
X13398Y-02625D01*
X13346Y-02703D01*
X13293Y-02756D01*
X13241Y-02782D01*
X13897Y-02625D02*
X13950Y-02625D01*
X14002Y-02651D01*
X14028Y-02677D01*
X14055Y-02729D01*
X14081Y-02834D01*
X14081Y-02966D01*
X14055Y-03071D01*
X14028Y-03123D01*
X14002Y-03149D01*
X13950Y-03176D01*
X13897Y-03176D01*
X13845Y-03149D01*
X13818Y-03123D01*
X13792Y-03071D01*
X13766Y-02966D01*
X13766Y-02834D01*
X13792Y-02729D01*
X13818Y-02677D01*
X13845Y-02651D01*
X13897Y-02625D01*
X14553Y-02808D02*
X14553Y-03176D01*
X14422Y-02598D02*
X14291Y-02992D01*
X14632Y-02992D01*
X15131Y-03176D02*
X14816Y-03176D01*
X14973Y-03176D02*
X14973Y-02625D01*
X14921Y-02703D01*
X14868Y-02756D01*
X14816Y-02782D01*
X15682Y-03123D02*
X15656Y-03149D01*
X15577Y-03176D01*
X15525Y-03176D01*
X15446Y-03149D01*
X15393Y-03097D01*
X15367Y-03044D01*
X15341Y-02939D01*
X15341Y-02861D01*
X15367Y-02756D01*
X15393Y-02703D01*
X15446Y-02651D01*
X15525Y-02625D01*
X15577Y-02625D01*
X15656Y-02651D01*
X15682Y-02677D01*
X15839Y-02625D02*
X16023Y-03176D01*
X16207Y-02625D01*
X16338Y-02625D02*
X16679Y-02625D01*
X16495Y-02834D01*
X16574Y-02834D01*
X16626Y-02861D01*
X16653Y-02887D01*
X16679Y-02939D01*
X16679Y-03071D01*
X16653Y-03123D01*
X16626Y-03149D01*
X16574Y-03176D01*
X16416Y-03176D01*
X16364Y-03149D01*
X16338Y-03123D01*
X16863Y-02625D02*
X17204Y-02625D01*
X17020Y-02834D01*
X17099Y-02834D01*
X17151Y-02861D01*
X17178Y-02887D01*
X17204Y-02939D01*
X17204Y-03071D01*
X17178Y-03123D01*
X17151Y-03149D01*
X17099Y-03176D01*
X16941Y-03176D01*
X16889Y-03149D01*
X16863Y-03123D01*
X43780Y-16102D02*
X43780Y-15787D01*
X44803Y-16102D02*
X44803Y-15787D01*
X43780Y-16102D02*
X44803Y-16102D01*
X23230Y-16866D02*
X22836Y-16866D01*
X22836Y-16716D01*
X22855Y-16679D01*
X22874Y-16660D01*
X22912Y-16641D01*
X22968Y-16641D01*
X23005Y-16660D01*
X23024Y-16679D01*
X23043Y-16716D01*
X23043Y-16866D01*
X23193Y-16247D02*
X23212Y-16266D01*
X23230Y-16322D01*
X23230Y-16360D01*
X23212Y-16416D01*
X23174Y-16453D01*
X23137Y-16472D01*
X23062Y-16491D01*
X23005Y-16491D01*
X22930Y-16472D01*
X22893Y-16453D01*
X22855Y-16416D01*
X22836Y-16360D01*
X22836Y-16322D01*
X22855Y-16266D01*
X22874Y-16247D01*
X23230Y-16078D02*
X22836Y-16078D01*
X23118Y-15947D01*
X22836Y-15816D01*
X23230Y-15816D01*
X23230Y-15422D02*
X23230Y-15647D01*
X23230Y-15534D02*
X22836Y-15534D01*
X22893Y-15572D01*
X22930Y-15609D01*
X22949Y-15647D01*
X23005Y-15197D02*
X22987Y-15234D01*
X22968Y-15253D01*
X22930Y-15272D01*
X22912Y-15272D01*
X22874Y-15253D01*
X22855Y-15234D01*
X22836Y-15197D01*
X22836Y-15122D01*
X22855Y-15084D01*
X22874Y-15066D01*
X22912Y-15047D01*
X22930Y-15047D01*
X22968Y-15066D01*
X22987Y-15084D01*
X23005Y-15122D01*
X23005Y-15197D01*
X23024Y-15234D01*
X23043Y-15253D01*
X23080Y-15272D01*
X23155Y-15272D01*
X23193Y-15253D01*
X23212Y-15234D01*
X23230Y-15197D01*
X23230Y-15122D01*
X23212Y-15084D01*
X23193Y-15066D01*
X23155Y-15047D01*
X23080Y-15047D01*
X23043Y-15066D01*
X23024Y-15084D01*
X23005Y-15122D01*
X22836Y-14803D02*
X22836Y-14766D01*
X22855Y-14728D01*
X22874Y-14709D01*
X22912Y-14691D01*
X22987Y-14672D01*
X23080Y-14672D01*
X23155Y-14691D01*
X23193Y-14709D01*
X23212Y-14728D01*
X23230Y-14766D01*
X23230Y-14803D01*
X23212Y-14841D01*
X23193Y-14859D01*
X23155Y-14878D01*
X23080Y-14897D01*
X22987Y-14897D01*
X22912Y-14878D01*
X22874Y-14859D01*
X22855Y-14841D01*
X22836Y-14803D01*
X22874Y-14522D02*
X22855Y-14503D01*
X22836Y-14466D01*
X22836Y-14372D01*
X22855Y-14334D01*
X22874Y-14316D01*
X22912Y-14297D01*
X22949Y-14297D01*
X23005Y-14316D01*
X23230Y-14541D01*
X23230Y-14297D01*
X28995Y-10814D02*
X28995Y-11114D01*
X28365Y-11114D01*
X28995Y-10604D02*
X28365Y-10604D01*
X28815Y-10394D01*
X28365Y-10184D01*
X28995Y-10184D01*
X28995Y-09554D02*
X28995Y-09914D01*
X28995Y-09734D02*
X28365Y-09734D01*
X28455Y-09794D01*
X28515Y-09854D01*
X28545Y-09914D01*
X28995Y-09254D02*
X28995Y-09134D01*
X28965Y-09074D01*
X28935Y-09044D01*
X28845Y-08984D01*
X28725Y-08954D01*
X28485Y-08954D01*
X28425Y-08984D01*
X28395Y-09014D01*
X28365Y-09074D01*
X28365Y-09194D01*
X28395Y-09254D01*
X28425Y-09284D01*
X28485Y-09314D01*
X28635Y-09314D01*
X28695Y-09284D01*
X28725Y-09254D01*
X28755Y-09194D01*
X28755Y-09074D01*
X28725Y-09014D01*
X28695Y-08984D01*
X28635Y-08954D01*
X28365Y-08744D02*
X28365Y-08324D01*
X28995Y-08594D01*
X28425Y-08114D02*
X28395Y-08084D01*
X28365Y-08024D01*
X28365Y-07874D01*
X28395Y-07814D01*
X28425Y-07784D01*
X28485Y-07754D01*
X28545Y-07754D01*
X28635Y-07784D01*
X28995Y-08144D01*
X28995Y-07754D01*
X45663Y-05461D02*
X45191Y-05461D01*
X45191Y-05348D01*
X45214Y-05281D01*
X45258Y-05236D01*
X45303Y-05213D01*
X45393Y-05191D01*
X45461Y-05191D01*
X45551Y-05213D01*
X45596Y-05236D01*
X45641Y-05281D01*
X45663Y-05348D01*
X45663Y-05461D01*
X45618Y-04719D02*
X45641Y-04741D01*
X45663Y-04809D01*
X45663Y-04854D01*
X45641Y-04921D01*
X45596Y-04966D01*
X45551Y-04989D01*
X45461Y-05011D01*
X45393Y-05011D01*
X45303Y-04989D01*
X45258Y-04966D01*
X45214Y-04921D01*
X45191Y-04854D01*
X45191Y-04809D01*
X45214Y-04741D01*
X45236Y-04719D01*
X45191Y-04292D02*
X45191Y-04517D01*
X45416Y-04539D01*
X45393Y-04517D01*
X45371Y-04472D01*
X45371Y-04359D01*
X45393Y-04314D01*
X45416Y-04292D01*
X45461Y-04269D01*
X45573Y-04269D01*
X45618Y-04292D01*
X45641Y-04314D01*
X45663Y-04359D01*
X45663Y-04472D01*
X45641Y-04517D01*
X45618Y-04539D01*
X45191Y-04134D02*
X45663Y-03977D01*
X45191Y-03819D01*
X45663Y-03302D02*
X45191Y-03302D01*
X45663Y-03077D02*
X45191Y-03077D01*
X45663Y-02807D01*
X45191Y-02807D01*
X40720Y-03873D02*
X40742Y-03806D01*
X40742Y-03693D01*
X40720Y-03648D01*
X40697Y-03626D01*
X40652Y-03603D01*
X40607Y-03603D01*
X40562Y-03626D01*
X40540Y-03648D01*
X40517Y-03693D01*
X40495Y-03783D01*
X40472Y-03828D01*
X40450Y-03851D01*
X40405Y-03873D01*
X40360Y-03873D01*
X40315Y-03851D01*
X40293Y-03828D01*
X40270Y-03783D01*
X40270Y-03671D01*
X40293Y-03603D01*
X40248Y-03063D02*
X40854Y-03468D01*
X40742Y-02907D02*
X40270Y-02907D01*
X40270Y-02727D01*
X40293Y-02682D01*
X40315Y-02659D01*
X40360Y-02637D01*
X40427Y-02637D01*
X40472Y-02659D01*
X40495Y-02682D01*
X40517Y-02727D01*
X40517Y-02907D01*
X40742Y-02435D02*
X40270Y-02435D01*
X40270Y-02322D01*
X40293Y-02255D01*
X40337Y-02210D01*
X40382Y-02187D01*
X40472Y-02165D01*
X40540Y-02165D01*
X40630Y-02187D01*
X40675Y-02210D01*
X40720Y-02255D01*
X40742Y-02322D01*
X40742Y-02435D01*
X40742Y-01963D02*
X40270Y-01963D01*
X40495Y-01580D02*
X40495Y-01738D01*
X40742Y-01738D02*
X40270Y-01738D01*
X40270Y-01513D01*
X40742Y-00973D02*
X40270Y-00973D01*
X40742Y-00748D02*
X40270Y-00748D01*
X40742Y-00478D01*
X40270Y-00478D01*
X34224Y-04818D02*
X34246Y-04751D01*
X34246Y-04638D01*
X34224Y-04593D01*
X34201Y-04571D01*
X34156Y-04548D01*
X34111Y-04548D01*
X34066Y-04571D01*
X34044Y-04593D01*
X34021Y-04638D01*
X33999Y-04728D01*
X33976Y-04773D01*
X33954Y-04796D01*
X33909Y-04818D01*
X33864Y-04818D01*
X33819Y-04796D01*
X33797Y-04773D01*
X33774Y-04728D01*
X33774Y-04616D01*
X33797Y-04548D01*
X33752Y-04008D02*
X34358Y-04413D01*
X34246Y-03852D02*
X33774Y-03852D01*
X33774Y-03672D01*
X33797Y-03627D01*
X33819Y-03604D01*
X33864Y-03582D01*
X33931Y-03582D01*
X33976Y-03604D01*
X33999Y-03627D01*
X34021Y-03672D01*
X34021Y-03852D01*
X34246Y-03380D02*
X33774Y-03380D01*
X33774Y-03267D01*
X33797Y-03200D01*
X33841Y-03155D01*
X33886Y-03132D01*
X33976Y-03110D01*
X34044Y-03110D01*
X34134Y-03132D01*
X34179Y-03155D01*
X34224Y-03200D01*
X34246Y-03267D01*
X34246Y-03380D01*
X34246Y-02908D02*
X33774Y-02908D01*
X33999Y-02525D02*
X33999Y-02683D01*
X34246Y-02683D02*
X33774Y-02683D01*
X33774Y-02458D01*
X33774Y-01985D02*
X33774Y-01715D01*
X34246Y-01850D02*
X33774Y-01850D01*
X34246Y-01558D02*
X33774Y-01558D01*
X33999Y-01558D02*
X33999Y-01288D01*
X34246Y-01288D02*
X33774Y-01288D01*
X34246Y-00794D02*
X34021Y-00951D01*
X34246Y-01064D02*
X33774Y-01064D01*
X33774Y-00884D01*
X33797Y-00839D01*
X33819Y-00816D01*
X33864Y-00794D01*
X33931Y-00794D01*
X33976Y-00816D01*
X33999Y-00839D01*
X34021Y-00884D01*
X34021Y-01064D01*
X33774Y-00592D02*
X34156Y-00592D01*
X34201Y-00569D01*
X34224Y-00547D01*
X34246Y-00502D01*
X34246Y-00412D01*
X34224Y-00367D01*
X34201Y-00344D01*
X34156Y-00322D01*
X33774Y-00322D01*
X27553Y-02541D02*
X27553Y-02766D01*
X27081Y-02766D01*
X27553Y-02384D02*
X27081Y-02384D01*
X27553Y-02159D02*
X27081Y-02159D01*
X27553Y-01889D01*
X27081Y-01889D01*
X27306Y-01665D02*
X27306Y-01507D01*
X27553Y-01440D02*
X27553Y-01665D01*
X27081Y-01665D01*
X27081Y-01440D01*
X27553Y-00878D02*
X27081Y-00878D01*
X27553Y-00653D02*
X27081Y-00653D01*
X27553Y-00383D01*
X27081Y-00383D01*
X22041Y-03682D02*
X22041Y-03907D01*
X21569Y-03907D01*
X22041Y-03525D02*
X21569Y-03525D01*
X22041Y-03300D02*
X21569Y-03300D01*
X22041Y-03030D01*
X21569Y-03030D01*
X21794Y-02806D02*
X21794Y-02648D01*
X22041Y-02581D02*
X22041Y-02806D01*
X21569Y-02806D01*
X21569Y-02581D01*
X21569Y-02086D02*
X21569Y-01816D01*
X22041Y-01951D02*
X21569Y-01951D01*
X22041Y-01659D02*
X21569Y-01659D01*
X21794Y-01659D02*
X21794Y-01389D01*
X22041Y-01389D02*
X21569Y-01389D01*
X22041Y-00895D02*
X21816Y-01052D01*
X22041Y-01165D02*
X21569Y-01165D01*
X21569Y-00985D01*
X21592Y-00940D01*
X21614Y-00917D01*
X21659Y-00895D01*
X21726Y-00895D01*
X21771Y-00917D01*
X21794Y-00940D01*
X21816Y-00985D01*
X21816Y-01165D01*
X21569Y-00693D02*
X21951Y-00693D01*
X21996Y-00670D01*
X22019Y-00648D01*
X22041Y-00603D01*
X22041Y-00513D01*
X22019Y-00468D01*
X21996Y-00445D01*
X21951Y-00423D01*
X21569Y-00423D01*
G54D12*
X08564Y-03308D02*
X08695Y-03702D01*
X08826Y-03308D01*
X09183Y-03702D02*
X09052Y-03515D01*
X08958Y-03702D02*
X08958Y-03308D01*
X09108Y-03308D01*
X09145Y-03327D01*
X09164Y-03346D01*
X09183Y-03384D01*
X09183Y-03440D01*
X09164Y-03477D01*
X09145Y-03496D01*
X09108Y-03515D01*
X08958Y-03515D01*
X09502Y-03684D02*
X09464Y-03702D01*
X09389Y-03702D01*
X09352Y-03684D01*
X09333Y-03646D01*
X09333Y-03496D01*
X09352Y-03459D01*
X09389Y-03440D01*
X09464Y-03440D01*
X09502Y-03459D01*
X09521Y-03496D01*
X09521Y-03534D01*
X09333Y-03571D01*
X09634Y-03440D02*
X09784Y-03440D01*
X09690Y-03702D02*
X09690Y-03365D01*
X09709Y-03327D01*
X09746Y-03308D01*
X09784Y-03308D01*
X07878Y-03665D02*
X07859Y-03684D01*
X07803Y-03702D01*
X07765Y-03702D01*
X07709Y-03684D01*
X07672Y-03646D01*
X07653Y-03609D01*
X07634Y-03534D01*
X07634Y-03477D01*
X07653Y-03402D01*
X07672Y-03365D01*
X07709Y-03327D01*
X07765Y-03308D01*
X07803Y-03308D01*
X07859Y-03327D01*
X07878Y-03346D01*
X08047Y-03702D02*
X08047Y-03308D01*
X08272Y-03702D02*
X08103Y-03477D01*
X08272Y-03308D02*
X08047Y-03534D01*
X06811Y-03702D02*
X06811Y-03308D01*
X06905Y-03308D01*
X06961Y-03327D01*
X06998Y-03365D01*
X07017Y-03402D01*
X07036Y-03477D01*
X07036Y-03534D01*
X07017Y-03609D01*
X06998Y-03646D01*
X06961Y-03684D01*
X06905Y-03702D01*
X06811Y-03702D01*
X07205Y-03702D02*
X07205Y-03308D01*
X05666Y-03702D02*
X05666Y-03308D01*
X05797Y-03590D01*
X05928Y-03308D01*
X05928Y-03702D01*
X06097Y-03684D02*
X06153Y-03702D01*
X06247Y-03702D01*
X06285Y-03684D01*
X06303Y-03665D01*
X06322Y-03627D01*
X06322Y-03590D01*
X06303Y-03552D01*
X06285Y-03534D01*
X06247Y-03515D01*
X06172Y-03496D01*
X06135Y-03477D01*
X06116Y-03459D01*
X06097Y-03421D01*
X06097Y-03384D01*
X06116Y-03346D01*
X06135Y-03327D01*
X06172Y-03308D01*
X06266Y-03308D01*
X06322Y-03327D01*
X04652Y-03702D02*
X04652Y-03308D01*
X04746Y-03308D01*
X04802Y-03327D01*
X04839Y-03365D01*
X04858Y-03402D01*
X04877Y-03477D01*
X04877Y-03534D01*
X04858Y-03609D01*
X04839Y-03646D01*
X04802Y-03684D01*
X04746Y-03702D01*
X04652Y-03702D01*
X05121Y-03308D02*
X05196Y-03308D01*
X05233Y-03327D01*
X05271Y-03365D01*
X05290Y-03440D01*
X05290Y-03571D01*
X05271Y-03646D01*
X05233Y-03684D01*
X05196Y-03702D01*
X05121Y-03702D01*
X05083Y-03684D01*
X05046Y-03646D01*
X05027Y-03571D01*
X05027Y-03440D01*
X05046Y-03365D01*
X05083Y-03327D01*
X05121Y-03308D01*
X04040Y-03327D02*
X04003Y-03308D01*
X03946Y-03308D01*
X03890Y-03327D01*
X03853Y-03365D01*
X03834Y-03402D01*
X03815Y-03477D01*
X03815Y-03534D01*
X03834Y-03609D01*
X03853Y-03646D01*
X03890Y-03684D01*
X03946Y-03702D01*
X03984Y-03702D01*
X04040Y-03684D01*
X04059Y-03665D01*
X04059Y-03534D01*
X03984Y-03534D01*
G54D11*
X11222Y-11420D02*
X10978Y-11420D01*
X10978Y-10829D01*
X11563Y-11110D02*
X11392Y-11110D01*
X11392Y-11420D02*
X11392Y-10829D01*
X11636Y-10829D01*
X11782Y-10829D02*
X12123Y-11420D01*
X12123Y-10829D02*
X11782Y-11420D01*
X12319Y-11420D02*
X12319Y-10829D01*
X12514Y-10829D01*
X12563Y-10857D01*
X12587Y-10885D01*
X12611Y-10941D01*
X12611Y-11026D01*
X12587Y-11082D01*
X12563Y-11110D01*
X12514Y-11138D01*
X12319Y-11138D01*
X12807Y-10885D02*
X12831Y-10857D01*
X12880Y-10829D01*
X13002Y-10829D01*
X13050Y-10857D01*
X13075Y-10885D01*
X13099Y-10941D01*
X13099Y-10998D01*
X13075Y-11082D01*
X12782Y-11420D01*
X13099Y-11420D01*
X13319Y-11195D02*
X13709Y-11195D01*
X14026Y-11082D02*
X13977Y-11054D01*
X13953Y-11026D01*
X13929Y-10969D01*
X13929Y-10941D01*
X13953Y-10885D01*
X13977Y-10857D01*
X14026Y-10829D01*
X14124Y-10829D01*
X14172Y-10857D01*
X14197Y-10885D01*
X14221Y-10941D01*
X14221Y-10969D01*
X14197Y-11026D01*
X14172Y-11054D01*
X14124Y-11082D01*
X14026Y-11082D01*
X13977Y-11110D01*
X13953Y-11138D01*
X13929Y-11195D01*
X13929Y-11307D01*
X13953Y-11363D01*
X13977Y-11392D01*
X14026Y-11420D01*
X14124Y-11420D01*
X14172Y-11392D01*
X14197Y-11363D01*
X14221Y-11307D01*
X14221Y-11195D01*
X14197Y-11138D01*
X14172Y-11110D01*
X14124Y-11082D01*
X14441Y-11110D02*
X14612Y-11110D01*
X14685Y-11420D02*
X14441Y-11420D01*
X14441Y-10829D01*
X14685Y-10829D01*
X14904Y-11195D02*
X15294Y-11195D01*
X15465Y-10829D02*
X15757Y-10829D01*
X15611Y-11420D02*
X15611Y-10829D01*
X15928Y-11420D02*
X15928Y-10829D01*
X16220Y-11420D01*
X16220Y-10829D01*
X16732Y-11420D02*
X16440Y-11420D01*
X16586Y-11420D02*
X16586Y-10829D01*
X16537Y-10913D01*
X16488Y-10969D01*
X16440Y-10998D01*
X17171Y-11026D02*
X17171Y-11420D01*
X17049Y-10801D02*
X16928Y-11223D01*
X17244Y-11223D01*
X17659Y-11026D02*
X17659Y-11420D01*
X17537Y-10801D02*
X17416Y-11223D01*
X17732Y-11223D01*
X04297Y-18679D02*
X04252Y-18656D01*
X04184Y-18656D01*
X04117Y-18679D01*
X04072Y-18723D01*
X04049Y-18768D01*
X04027Y-18858D01*
X04027Y-18926D01*
X04049Y-19016D01*
X04072Y-19061D01*
X04117Y-19106D01*
X04184Y-19128D01*
X04229Y-19128D01*
X04297Y-19106D01*
X04319Y-19083D01*
X04319Y-18926D01*
X04229Y-18926D01*
G54D13*
X09036Y-07954D02*
X09036Y-08544D01*
X03229Y-08544D02*
X03229Y-07954D01*
X09036Y-08544D02*
X03229Y-08544D01*
X03229Y-07954D02*
X09036Y-07954D01*
G54D14*
X00787Y-06458D02*
X00600Y-06458D01*
X00600Y-06064D01*
X01444Y-06421D02*
X01425Y-06440D01*
X01369Y-06458D01*
X01331Y-06458D01*
X01275Y-06440D01*
X01238Y-06402D01*
X01219Y-06365D01*
X01200Y-06290D01*
X01200Y-06233D01*
X01219Y-06158D01*
X01238Y-06121D01*
X01275Y-06083D01*
X01331Y-06064D01*
X01369Y-06064D01*
X01425Y-06083D01*
X01444Y-06102D01*
X01688Y-06064D02*
X01763Y-06064D01*
X01800Y-06083D01*
X01838Y-06121D01*
X01857Y-06196D01*
X01857Y-06327D01*
X01838Y-06402D01*
X01800Y-06440D01*
X01763Y-06458D01*
X01688Y-06458D01*
X01650Y-06440D01*
X01613Y-06402D01*
X01594Y-06327D01*
X01594Y-06196D01*
X01613Y-06121D01*
X01650Y-06083D01*
X01688Y-06064D01*
X02026Y-06458D02*
X02026Y-06064D01*
X02251Y-06458D01*
X02251Y-06064D01*
X02383Y-06064D02*
X02608Y-06064D01*
X02495Y-06458D02*
X02495Y-06064D01*
X18976Y-17088D02*
X18845Y-16901D01*
X18751Y-17088D02*
X18751Y-16694D01*
X18901Y-16694D01*
X18938Y-16713D01*
X18957Y-16732D01*
X18976Y-16770D01*
X18976Y-16826D01*
X18957Y-16863D01*
X18938Y-16882D01*
X18901Y-16901D01*
X18751Y-16901D01*
X19670Y-17051D02*
X19651Y-17070D01*
X19595Y-17088D01*
X19557Y-17088D01*
X19501Y-17070D01*
X19464Y-17032D01*
X19445Y-16995D01*
X19426Y-16920D01*
X19426Y-16863D01*
X19445Y-16788D01*
X19464Y-16751D01*
X19501Y-16713D01*
X19557Y-16694D01*
X19595Y-16694D01*
X19651Y-16713D01*
X19670Y-16732D01*
X19914Y-16694D02*
X19989Y-16694D01*
X20026Y-16713D01*
X20064Y-16751D01*
X20083Y-16826D01*
X20083Y-16957D01*
X20064Y-17032D01*
X20026Y-17070D01*
X19989Y-17088D01*
X19914Y-17088D01*
X19876Y-17070D01*
X19839Y-17032D01*
X19820Y-16957D01*
X19820Y-16826D01*
X19839Y-16751D01*
X19876Y-16713D01*
X19914Y-16694D01*
X20252Y-17088D02*
X20252Y-16694D01*
X20477Y-17088D01*
X20477Y-16694D01*
X20609Y-16694D02*
X20834Y-16694D01*
X20721Y-17088D02*
X20721Y-16694D01*
G54D13*
X03228Y-12559D02*
X09035Y-12559D01*
X09035Y-13149D02*
X03228Y-13149D01*
X03386Y-11378D02*
X04173Y-11378D01*
X04173Y-10000D02*
X03386Y-10000D01*
X03228Y-13149D02*
X03228Y-12559D01*
X09035Y-12559D02*
X09035Y-13149D01*
X08110Y-11378D02*
X07519Y-11378D01*
X08110Y-10788D02*
X08110Y-11378D01*
X07519Y-10788D02*
X08110Y-10788D01*
X07519Y-10788D02*
X07519Y-11870D01*
X08897Y-11083D02*
X08897Y-10788D01*
X08307Y-11083D02*
X08897Y-11083D01*
X08307Y-10788D02*
X08897Y-10788D01*
X08307Y-11378D02*
X08307Y-10788D01*
X08897Y-11378D02*
X08307Y-11378D01*
X06732Y-10788D02*
X07323Y-10788D01*
X07323Y-11378D02*
X07323Y-10788D01*
X06732Y-11378D02*
X07323Y-11378D01*
X06732Y-10788D02*
X06732Y-11378D01*
X06240Y-10591D02*
X06240Y-11378D01*
X05945Y-10788D02*
X06536Y-10788D01*
X05748Y-10788D02*
X05158Y-10788D01*
X05748Y-11378D02*
X05748Y-10788D01*
X05158Y-11378D02*
X05748Y-11378D01*
X05158Y-10788D02*
X05158Y-11378D01*
X04961Y-11378D02*
X04371Y-11378D01*
X04371Y-10788D02*
X04961Y-11378D01*
X04961Y-10788D02*
X04371Y-10788D01*
X03780Y-10000D02*
X03780Y-11378D01*
G54D14*
X04976Y-12270D02*
X04976Y-11916D01*
X05128Y-12253D02*
X05179Y-12270D01*
X05263Y-12270D01*
X05297Y-12253D01*
X05314Y-12237D01*
X05331Y-12203D01*
X05331Y-12169D01*
X05314Y-12135D01*
X05297Y-12119D01*
X05263Y-12102D01*
X05196Y-12085D01*
X05162Y-12068D01*
X05145Y-12051D01*
X05128Y-12017D01*
X05128Y-11984D01*
X05145Y-11950D01*
X05162Y-11933D01*
X05196Y-11916D01*
X05280Y-11916D01*
X05331Y-11933D01*
X05482Y-12135D02*
X05752Y-12135D01*
X06106Y-12270D02*
X05903Y-12270D01*
X06005Y-12270D02*
X06005Y-11916D01*
X05971Y-11967D01*
X05937Y-12001D01*
X05903Y-12017D01*
X06240Y-12253D02*
X06291Y-12270D01*
X06375Y-12270D01*
X06409Y-12253D01*
X06426Y-12237D01*
X06443Y-12203D01*
X06443Y-12169D01*
X06426Y-12135D01*
X06409Y-12119D01*
X06375Y-12102D01*
X06308Y-12085D01*
X06274Y-12068D01*
X06257Y-12051D01*
X06240Y-12017D01*
X06240Y-11984D01*
X06257Y-11950D01*
X06274Y-11933D01*
X06308Y-11916D01*
X06392Y-11916D01*
X06443Y-11933D01*
X06847Y-11899D02*
X06544Y-12355D01*
X06965Y-12270D02*
X06965Y-11916D01*
X07050Y-11916D01*
X07100Y-11933D01*
X07134Y-11967D01*
X07151Y-12001D01*
X07168Y-12068D01*
X07168Y-12119D01*
X07151Y-12186D01*
X07134Y-12220D01*
X07100Y-12253D01*
X07050Y-12270D01*
X06965Y-12270D01*
G54D11*
X42407Y-18246D02*
X42362Y-18223D01*
X42294Y-18223D01*
X42227Y-18246D01*
X42182Y-18290D01*
X42159Y-18335D01*
X42137Y-18425D01*
X42137Y-18493D01*
X42159Y-18583D01*
X42182Y-18628D01*
X42227Y-18673D01*
X42294Y-18695D01*
X42339Y-18695D01*
X42407Y-18673D01*
X42429Y-18650D01*
X42429Y-18493D01*
X42339Y-18493D01*
X42407Y-16671D02*
X42362Y-16648D01*
X42294Y-16648D01*
X42227Y-16671D01*
X42182Y-16715D01*
X42159Y-16760D01*
X42137Y-16850D01*
X42137Y-16918D01*
X42159Y-17008D01*
X42182Y-17053D01*
X42227Y-17098D01*
X42294Y-17120D01*
X42339Y-17120D01*
X42407Y-17098D01*
X42429Y-17075D01*
X42429Y-16918D01*
X42339Y-16918D01*
G54D14*
X02951Y-09506D02*
X02951Y-09073D01*
X03069Y-09382D01*
X03187Y-09073D01*
X03187Y-09506D01*
X03508Y-09217D02*
X03508Y-09506D01*
X03356Y-09217D02*
X03356Y-09444D01*
X03373Y-09485D01*
X03407Y-09506D01*
X03457Y-09506D01*
X03491Y-09485D01*
X03508Y-09465D01*
X03659Y-09485D02*
X03693Y-09506D01*
X03761Y-09506D01*
X03794Y-09485D01*
X03811Y-09444D01*
X03811Y-09423D01*
X03794Y-09382D01*
X03761Y-09361D01*
X03710Y-09361D01*
X03676Y-09341D01*
X03659Y-09300D01*
X03659Y-09279D01*
X03676Y-09238D01*
X03710Y-09217D01*
X03761Y-09217D01*
X03794Y-09238D01*
X03963Y-09506D02*
X03963Y-09217D01*
X03963Y-09073D02*
X03946Y-09093D01*
X03963Y-09114D01*
X03980Y-09093D01*
X03963Y-09073D01*
X03963Y-09114D01*
X04284Y-09485D02*
X04250Y-09506D01*
X04183Y-09506D01*
X04149Y-09485D01*
X04132Y-09465D01*
X04115Y-09423D01*
X04115Y-09300D01*
X04132Y-09258D01*
X04149Y-09238D01*
X04183Y-09217D01*
X04250Y-09217D01*
X04284Y-09238D01*
X04688Y-09485D02*
X04739Y-09506D01*
X04823Y-09506D01*
X04857Y-09485D01*
X04874Y-09465D01*
X04891Y-09423D01*
X04891Y-09382D01*
X04874Y-09341D01*
X04857Y-09320D01*
X04823Y-09300D01*
X04756Y-09279D01*
X04722Y-09258D01*
X04705Y-09238D01*
X04688Y-09196D01*
X04688Y-09155D01*
X04705Y-09114D01*
X04722Y-09093D01*
X04756Y-09073D01*
X04840Y-09073D01*
X04891Y-09093D01*
X05042Y-09217D02*
X05042Y-09650D01*
X05042Y-09238D02*
X05076Y-09217D01*
X05143Y-09217D01*
X05177Y-09238D01*
X05194Y-09258D01*
X05211Y-09300D01*
X05211Y-09423D01*
X05194Y-09465D01*
X05177Y-09485D01*
X05143Y-09506D01*
X05076Y-09506D01*
X05042Y-09485D01*
X05497Y-09485D02*
X05463Y-09506D01*
X05396Y-09506D01*
X05362Y-09485D01*
X05345Y-09444D01*
X05345Y-09279D01*
X05362Y-09238D01*
X05396Y-09217D01*
X05463Y-09217D01*
X05497Y-09238D01*
X05514Y-09279D01*
X05514Y-09320D01*
X05345Y-09361D01*
X05817Y-09485D02*
X05783Y-09506D01*
X05716Y-09506D01*
X05682Y-09485D01*
X05665Y-09465D01*
X05648Y-09423D01*
X05648Y-09300D01*
X05665Y-09258D01*
X05682Y-09238D01*
X05716Y-09217D01*
X05783Y-09217D01*
X05817Y-09238D01*
X05918Y-09217D02*
X06053Y-09217D01*
X05968Y-09073D02*
X05968Y-09444D01*
X05985Y-09485D01*
X06019Y-09506D01*
X06053Y-09506D01*
X06170Y-09506D02*
X06170Y-09217D01*
X06170Y-09300D02*
X06187Y-09258D01*
X06204Y-09238D01*
X06238Y-09217D01*
X06271Y-09217D01*
X06541Y-09217D02*
X06541Y-09506D01*
X06389Y-09217D02*
X06389Y-09444D01*
X06406Y-09485D01*
X06440Y-09506D01*
X06490Y-09506D01*
X06524Y-09485D01*
X06541Y-09465D01*
X06709Y-09506D02*
X06709Y-09217D01*
X06709Y-09258D02*
X06726Y-09238D01*
X06760Y-09217D01*
X06810Y-09217D01*
X06844Y-09238D01*
X06861Y-09279D01*
X06861Y-09506D01*
X06861Y-09279D02*
X06878Y-09238D01*
X06912Y-09217D01*
X06962Y-09217D01*
X06996Y-09238D01*
X07013Y-09279D01*
X07013Y-09506D01*
X07434Y-09382D02*
X07603Y-09382D01*
X07401Y-09506D02*
X07519Y-09073D01*
X07637Y-09506D01*
X07754Y-09217D02*
X07754Y-09506D01*
X07754Y-09258D02*
X07771Y-09238D01*
X07805Y-09217D01*
X07855Y-09217D01*
X07889Y-09238D01*
X07906Y-09279D01*
X07906Y-09506D01*
X08226Y-09506D02*
X08226Y-09279D01*
X08209Y-09238D01*
X08175Y-09217D01*
X08108Y-09217D01*
X08074Y-09238D01*
X08226Y-09485D02*
X08192Y-09506D01*
X08108Y-09506D01*
X08074Y-09485D01*
X08057Y-09444D01*
X08057Y-09403D01*
X08074Y-09361D01*
X08108Y-09341D01*
X08192Y-09341D01*
X08226Y-09320D01*
X08445Y-09506D02*
X08411Y-09485D01*
X08394Y-09444D01*
X08394Y-09073D01*
X08546Y-09217D02*
X08630Y-09506D01*
X08714Y-09217D02*
X08630Y-09506D01*
X08596Y-09609D01*
X08579Y-09629D01*
X08546Y-09650D01*
X08816Y-09217D02*
X09001Y-09217D01*
X08816Y-09506D01*
X09001Y-09506D01*
X09271Y-09485D02*
X09237Y-09506D01*
X09170Y-09506D01*
X09136Y-09485D01*
X09119Y-09444D01*
X09119Y-09279D01*
X09136Y-09238D01*
X09170Y-09217D01*
X09237Y-09217D01*
X09271Y-09238D01*
X09288Y-09279D01*
X09288Y-09320D01*
X09119Y-09361D01*
X09439Y-09506D02*
X09439Y-09217D01*
X09439Y-09300D02*
X09456Y-09258D01*
X09473Y-09238D01*
X09507Y-09217D01*
X09540Y-09217D01*
G54D15*
X33464Y-05709D02*
X29133Y-05709D01*
X29133Y-05670D02*
X29133Y-04134D01*
X33071Y-00985D02*
X33071Y-00197D01*
X33071Y-00197D02*
X29133Y-00197D01*
X29133Y-00197D02*
X29133Y-00985D01*
G54D16*
X32677Y-00198D02*
X29527Y-00198D01*
X29134Y-05709D02*
X33464Y-05709D01*
X33464Y-05709D02*
X33464Y-04528D01*
X33464Y-04528D02*
X33071Y-04528D01*
G54D15*
X33071Y-00985D02*
X33071Y-04528D01*
G54D17*
X33071Y-04528D02*
X33464Y-04528D01*
G54D15*
X33464Y-04528D02*
X33464Y-05709D01*
X29134Y-04135D02*
X29134Y-00985D01*
X40157Y-05709D02*
X35826Y-05709D01*
X35826Y-05670D02*
X35826Y-04134D01*
X39764Y-00985D02*
X39764Y-00197D01*
X39764Y-00197D02*
X35826Y-00197D01*
X35826Y-00197D02*
X35826Y-00985D01*
G54D16*
X39370Y-00198D02*
X36220Y-00198D01*
X35827Y-05709D02*
X40157Y-05709D01*
X40157Y-05709D02*
X40157Y-04528D01*
X40157Y-04528D02*
X39764Y-04528D01*
G54D15*
X39764Y-00985D02*
X39764Y-04528D01*
G54D17*
X39764Y-04528D02*
X40157Y-04528D01*
G54D15*
X40157Y-04528D02*
X40157Y-05709D01*
X35827Y-04135D02*
X35827Y-00985D01*
X37126Y-15944D02*
X37126Y-14370D01*
X35324Y-16257D02*
X35324Y-14057D01*
X35224Y-14057D02*
X35224Y-16257D01*
X35124Y-16257D02*
X35124Y-14057D01*
X35024Y-14057D02*
X35024Y-16257D01*
X34924Y-16257D02*
X34924Y-14057D01*
X37008Y-15157D02*
X36989Y-15348D01*
X36933Y-15531D01*
X36843Y-15701D01*
X36722Y-15850D01*
X36574Y-15972D01*
X36405Y-16064D01*
X36221Y-16120D01*
X36030Y-16140D01*
X35840Y-16123D01*
X35656Y-16069D01*
X35486Y-15980D01*
X35336Y-15860D01*
X35213Y-15712D01*
X35120Y-15544D01*
X35062Y-15361D01*
X35041Y-15170D01*
X35057Y-14980D01*
X35110Y-14795D01*
X35197Y-14624D01*
X35317Y-14474D01*
X35463Y-14349D01*
X35631Y-14256D01*
X35813Y-14196D01*
X36004Y-14174D01*
X36194Y-14188D01*
X36379Y-14240D01*
X36551Y-14327D01*
X36702Y-14445D01*
X36828Y-14590D01*
X36922Y-14757D01*
X36983Y-14939D01*
X37007Y-15130D01*
X37008Y-15157D01*
X34922Y-14055D02*
X36811Y-14055D01*
X36811Y-14055D02*
X37126Y-14370D01*
X37126Y-15944D02*
X36811Y-16259D01*
X36811Y-16259D02*
X34922Y-16259D01*
X37126Y-18897D02*
X37126Y-17323D01*
X35324Y-19210D02*
X35324Y-17010D01*
X35224Y-17010D02*
X35224Y-19210D01*
X35124Y-19210D02*
X35124Y-17010D01*
X35024Y-17010D02*
X35024Y-19210D01*
X34924Y-19210D02*
X34924Y-17010D01*
X37008Y-18110D02*
X36989Y-18301D01*
X36933Y-18484D01*
X36843Y-18654D01*
X36722Y-18803D01*
X36574Y-18925D01*
X36405Y-19017D01*
X36221Y-19073D01*
X36030Y-19093D01*
X35840Y-19076D01*
X35656Y-19022D01*
X35486Y-18933D01*
X35336Y-18813D01*
X35213Y-18665D01*
X35120Y-18497D01*
X35062Y-18314D01*
X35041Y-18123D01*
X35057Y-17933D01*
X35110Y-17748D01*
X35197Y-17577D01*
X35317Y-17427D01*
X35463Y-17302D01*
X35631Y-17209D01*
X35813Y-17149D01*
X36004Y-17127D01*
X36194Y-17141D01*
X36379Y-17193D01*
X36551Y-17280D01*
X36702Y-17398D01*
X36828Y-17543D01*
X36922Y-17710D01*
X36983Y-17892D01*
X37007Y-18083D01*
X37008Y-18110D01*
X34922Y-17008D02*
X36811Y-17008D01*
X36811Y-17008D02*
X37126Y-17323D01*
X37126Y-18897D02*
X36811Y-19212D01*
X36811Y-19212D02*
X34922Y-19212D01*
X41732Y-05512D02*
X41732Y-00197D01*
X44882Y-05512D02*
X41732Y-05512D01*
X44882Y-05512D02*
X44882Y-00197D01*
X44882Y-00197D02*
X41732Y-00197D01*
G54D11*
X33386Y-14173D02*
X33780Y-14173D01*
X31968Y-13189D02*
X32047Y-13189D01*
X33780Y-14173D02*
X33780Y-13189D01*
X33780Y-13189D02*
X33701Y-13189D01*
X31968Y-13189D02*
X31968Y-14173D01*
X31968Y-14173D02*
X32362Y-14173D01*
X29524Y-16574D02*
X29524Y-17598D01*
X30390Y-16574D02*
X30390Y-17598D01*
X29808Y-16770D02*
X29806Y-16787D01*
X29801Y-16803D01*
X29793Y-16818D01*
X29782Y-16832D01*
X29769Y-16842D01*
X29754Y-16851D01*
X29737Y-16856D01*
X29720Y-16857D01*
X29704Y-16856D01*
X29688Y-16851D01*
X29672Y-16843D01*
X29659Y-16832D01*
X29648Y-16819D01*
X29640Y-16804D01*
X29634Y-16788D01*
X29633Y-16771D01*
X29634Y-16755D01*
X29639Y-16738D01*
X29647Y-16723D01*
X29657Y-16709D01*
X29670Y-16698D01*
X29685Y-16690D01*
X29702Y-16685D01*
X29719Y-16683D01*
X29735Y-16684D01*
X29751Y-16688D01*
X29767Y-16696D01*
X29780Y-16707D01*
X29791Y-16720D01*
X29800Y-16735D01*
X29805Y-16751D01*
X29807Y-16768D01*
X29808Y-16770D01*
X30390Y-17598D02*
X29524Y-17598D01*
X30390Y-16574D02*
X29524Y-16574D01*
X21850Y-11454D02*
X21496Y-11454D01*
X21496Y-11454D02*
X21496Y-11100D01*
X21771Y-11218D02*
X21732Y-11179D01*
X21890Y-11257D02*
X21693Y-11060D01*
X21968Y-11257D02*
X21693Y-10982D01*
X21693Y-09289D02*
X21968Y-09289D01*
X21693Y-10982D02*
X21693Y-11257D01*
X21693Y-11257D02*
X21968Y-11257D01*
X23661Y-11257D02*
X23386Y-11257D01*
X23661Y-11257D02*
X23661Y-10982D01*
X23661Y-09289D02*
X23661Y-09525D01*
X23661Y-09289D02*
X23425Y-09289D01*
X21693Y-09564D02*
X21693Y-09289D01*
G54D15*
X36011Y-13505D02*
X36011Y-10905D01*
X35911Y-10905D02*
X35911Y-13505D01*
X35811Y-13505D02*
X35811Y-10905D01*
X35711Y-10905D02*
X35711Y-13505D01*
X35611Y-13505D02*
X35611Y-10905D01*
X38110Y-11339D02*
X38110Y-13071D01*
X38110Y-13071D02*
X37677Y-13504D01*
X37677Y-13504D02*
X35512Y-13504D01*
X37677Y-10906D02*
X35512Y-10906D01*
X37677Y-10906D02*
X38110Y-11339D01*
X35512Y-13504D02*
X35512Y-10906D01*
X38051Y-12205D02*
X38027Y-12445D01*
X37957Y-12677D01*
X37843Y-12891D01*
X37690Y-13078D01*
X37504Y-13233D01*
X37291Y-13348D01*
X37060Y-13419D01*
X36819Y-13444D01*
X36579Y-13423D01*
X36347Y-13354D01*
X36133Y-13242D01*
X35944Y-13090D01*
X35788Y-12905D01*
X35672Y-12693D01*
X35599Y-12462D01*
X35572Y-12222D01*
X35592Y-11982D01*
X35659Y-11749D01*
X35769Y-11534D01*
X35920Y-11344D01*
X36104Y-11187D01*
X36315Y-11069D01*
X36545Y-10994D01*
X36786Y-10966D01*
X37026Y-10984D01*
X37259Y-11049D01*
X37475Y-11159D01*
X37666Y-11308D01*
X37824Y-11491D01*
X37943Y-11701D01*
X38020Y-11931D01*
X38050Y-12171D01*
X38051Y-12205D01*
G54D11*
X38996Y-17971D02*
X38444Y-17971D01*
X38996Y-17932D02*
X38444Y-17932D01*
X38996Y-17892D02*
X38444Y-17892D01*
X38996Y-17853D02*
X38996Y-18011D01*
X38996Y-18011D02*
X38444Y-18011D01*
X38444Y-18011D02*
X38444Y-17853D01*
X38444Y-17853D02*
X38996Y-17853D01*
G54D18*
X41621Y-08403D02*
X41281Y-08403D01*
X41281Y-08403D02*
X41281Y-09543D01*
X41621Y-09543D02*
X41281Y-09543D01*
X41621Y-08403D02*
X41621Y-09543D01*
X39821Y-08403D02*
X39481Y-08403D01*
X39481Y-08403D02*
X39481Y-09543D01*
X39821Y-09543D02*
X39481Y-09543D01*
X39821Y-08403D02*
X39821Y-09543D01*
X40721Y-09243D02*
X40381Y-09243D01*
X40381Y-09243D02*
X40381Y-09543D01*
X40721Y-09543D02*
X40381Y-09543D01*
X40721Y-09243D02*
X40721Y-09543D01*
G54D19*
X39261Y-11943D02*
X39261Y-09583D01*
X39261Y-09583D02*
X41841Y-09583D01*
X41841Y-09583D02*
X41841Y-11943D01*
X41841Y-11942D02*
X39261Y-11942D01*
X41561Y-11983D02*
X41561Y-12263D01*
X41561Y-12263D02*
X41381Y-12443D01*
X41381Y-12443D02*
X39721Y-12443D01*
X39721Y-12443D02*
X39541Y-12263D01*
X39541Y-12263D02*
X39541Y-11983D01*
X39541Y-11983D02*
X41561Y-11983D01*
G54D20*
X41561Y-11983D02*
X41561Y-12263D01*
X41561Y-12263D02*
X41381Y-12443D01*
X41381Y-12443D02*
X39721Y-12443D01*
X39721Y-12443D02*
X39541Y-12263D01*
X39541Y-12263D02*
X39541Y-11983D01*
X39541Y-11983D02*
X41561Y-11983D01*
G54D11*
X10630Y-00985D02*
X17716Y-00985D01*
X17716Y-00985D02*
X17716Y-04725D01*
X17716Y-04725D02*
X10630Y-04725D01*
X10630Y-04725D02*
X10630Y-00985D01*
X11497Y-04135D02*
X11491Y-04188D01*
X11476Y-04240D01*
X11450Y-04288D01*
X11416Y-04330D01*
X11374Y-04364D01*
X11327Y-04390D01*
X11275Y-04406D01*
X11221Y-04411D01*
X11169Y-04407D01*
X11117Y-04391D01*
X11069Y-04366D01*
X11027Y-04332D01*
X10992Y-04291D01*
X10966Y-04244D01*
X10950Y-04192D01*
X10944Y-04138D01*
X10948Y-04085D01*
X10963Y-04034D01*
X10988Y-03985D01*
X11021Y-03943D01*
X11062Y-03908D01*
X11110Y-03882D01*
X11161Y-03865D01*
X11215Y-03859D01*
X11268Y-03863D01*
X11320Y-03877D01*
X11368Y-03902D01*
X11411Y-03935D01*
X11446Y-03976D01*
X11473Y-04023D01*
X11490Y-04074D01*
X11496Y-04128D01*
X11497Y-04135D01*
G54D15*
X48194Y-18110D02*
X48168Y-18371D01*
X48092Y-18622D01*
X47969Y-18853D01*
X47803Y-19057D01*
X47601Y-19224D01*
X47370Y-19348D01*
X47120Y-19426D01*
X46859Y-19453D01*
X46599Y-19430D01*
X46347Y-19356D01*
X46115Y-19234D01*
X45910Y-19070D01*
X45742Y-18869D01*
X45615Y-18639D01*
X45536Y-18389D01*
X45507Y-18128D01*
X45529Y-17868D01*
X45601Y-17616D01*
X45721Y-17382D01*
X45884Y-17177D01*
X46083Y-17007D01*
X46312Y-16879D01*
X46562Y-16798D01*
X46822Y-16767D01*
X47083Y-16787D01*
X47336Y-16857D01*
X47570Y-16976D01*
X47776Y-17137D01*
X47948Y-17336D01*
X48077Y-17564D01*
X48160Y-17813D01*
X48193Y-18073D01*
X48194Y-18110D01*
X48194Y-01575D02*
X48168Y-01836D01*
X48092Y-02087D01*
X47969Y-02318D01*
X47803Y-02522D01*
X47601Y-02689D01*
X47370Y-02813D01*
X47120Y-02891D01*
X46859Y-02918D01*
X46599Y-02895D01*
X46347Y-02821D01*
X46115Y-02699D01*
X45910Y-02535D01*
X45742Y-02334D01*
X45615Y-02104D01*
X45536Y-01854D01*
X45507Y-01593D01*
X45529Y-01333D01*
X45601Y-01081D01*
X45721Y-00847D01*
X45884Y-00642D01*
X46083Y-00472D01*
X46312Y-00344D01*
X46562Y-00263D01*
X46822Y-00232D01*
X47083Y-00252D01*
X47336Y-00322D01*
X47570Y-00441D01*
X47776Y-00602D01*
X47948Y-00801D01*
X48077Y-01029D01*
X48160Y-01278D01*
X48193Y-01538D01*
X48194Y-01575D01*
X02919Y-18110D02*
X02893Y-18371D01*
X02817Y-18622D01*
X02694Y-18853D01*
X02528Y-19057D01*
X02326Y-19224D01*
X02095Y-19348D01*
X01845Y-19426D01*
X01584Y-19453D01*
X01324Y-19430D01*
X01072Y-19356D01*
X00840Y-19234D01*
X00635Y-19070D01*
X00467Y-18869D01*
X00340Y-18639D01*
X00261Y-18389D01*
X00232Y-18128D01*
X00254Y-17868D01*
X00326Y-17616D01*
X00446Y-17382D01*
X00609Y-17177D01*
X00808Y-17007D01*
X01037Y-16879D01*
X01287Y-16798D01*
X01547Y-16767D01*
X01808Y-16787D01*
X02061Y-16857D01*
X02295Y-16976D01*
X02501Y-17137D01*
X02673Y-17336D01*
X02802Y-17564D01*
X02885Y-17813D01*
X02918Y-18073D01*
X02919Y-18110D01*
X02919Y-01575D02*
X02893Y-01836D01*
X02817Y-02087D01*
X02694Y-02318D01*
X02528Y-02522D01*
X02326Y-02689D01*
X02095Y-02813D01*
X01845Y-02891D01*
X01584Y-02918D01*
X01324Y-02895D01*
X01072Y-02821D01*
X00840Y-02699D01*
X00635Y-02535D01*
X00467Y-02334D01*
X00340Y-02104D01*
X00261Y-01854D01*
X00232Y-01593D01*
X00254Y-01333D01*
X00326Y-01081D01*
X00446Y-00847D01*
X00609Y-00642D01*
X00808Y-00472D01*
X01037Y-00344D01*
X01287Y-00263D01*
X01547Y-00232D01*
X01808Y-00252D01*
X02061Y-00322D01*
X02295Y-00441D01*
X02501Y-00602D01*
X02673Y-00801D01*
X02802Y-01029D01*
X02885Y-01278D01*
X02918Y-01538D01*
X02919Y-01575D01*
X30240Y-06949D02*
X30240Y-11949D01*
X30240Y-11949D02*
X27240Y-11949D01*
X27240Y-11949D02*
X27240Y-06949D01*
X27240Y-06949D02*
X30240Y-06949D01*
X27902Y-07373D02*
X27897Y-07419D01*
X27883Y-07464D01*
X27862Y-07505D01*
X27832Y-07541D01*
X27796Y-07571D01*
X27755Y-07593D01*
X27711Y-07607D01*
X27664Y-07611D01*
X27619Y-07607D01*
X27574Y-07594D01*
X27533Y-07572D01*
X27496Y-07543D01*
X27466Y-07508D01*
X27444Y-07467D01*
X27430Y-07422D01*
X27425Y-07376D01*
X27428Y-07330D01*
X27441Y-07286D01*
X27463Y-07244D01*
X27492Y-07207D01*
X27527Y-07177D01*
X27568Y-07154D01*
X27612Y-07140D01*
X27658Y-07135D01*
X27704Y-07138D01*
X27749Y-07151D01*
X27791Y-07172D01*
X27827Y-07200D01*
X27858Y-07236D01*
X27881Y-07276D01*
X27896Y-07321D01*
X27901Y-07367D01*
X27902Y-07373D01*
G54D18*
X26396Y-07103D02*
X26396Y-07296D01*
X26396Y-07103D02*
X26994Y-07103D01*
X26396Y-07603D02*
X26396Y-07796D01*
X26396Y-07796D02*
X26994Y-07796D01*
X26396Y-07603D02*
X26994Y-07603D01*
X26396Y-08103D02*
X26396Y-08296D01*
X26396Y-08296D02*
X26994Y-08296D01*
X26396Y-08103D02*
X26994Y-08103D01*
X26396Y-08603D02*
X26396Y-08796D01*
X26396Y-08796D02*
X26994Y-08796D01*
X26396Y-08603D02*
X26994Y-08603D01*
X26396Y-09103D02*
X26396Y-09296D01*
X26396Y-09296D02*
X26994Y-09296D01*
X26396Y-09103D02*
X26994Y-09103D01*
X26396Y-09602D02*
X26396Y-09795D01*
X26396Y-09795D02*
X26994Y-09795D01*
X26396Y-09602D02*
X26994Y-09602D01*
X26396Y-10102D02*
X26396Y-10295D01*
X26396Y-10295D02*
X26994Y-10295D01*
X26396Y-10102D02*
X26994Y-10102D01*
X26396Y-10602D02*
X26396Y-10795D01*
X26396Y-10795D02*
X26994Y-10795D01*
X26396Y-10602D02*
X26994Y-10602D01*
X26396Y-11102D02*
X26396Y-11295D01*
X26396Y-11295D02*
X26994Y-11295D01*
X26396Y-11102D02*
X26994Y-11102D01*
X26396Y-11602D02*
X26396Y-11795D01*
X26396Y-11795D02*
X26994Y-11795D01*
X26396Y-11602D02*
X26994Y-11602D01*
X30486Y-11795D02*
X31084Y-11795D01*
X31084Y-11602D02*
X31084Y-11795D01*
X30486Y-11602D02*
X31084Y-11602D01*
X30486Y-11295D02*
X31084Y-11295D01*
X31084Y-11102D02*
X31084Y-11295D01*
X30486Y-11102D02*
X31084Y-11102D01*
X30486Y-10795D02*
X31084Y-10795D01*
X31084Y-10602D02*
X31084Y-10795D01*
X30486Y-10602D02*
X31084Y-10602D01*
X30486Y-10295D02*
X31084Y-10295D01*
X31084Y-10102D02*
X31084Y-10295D01*
X30486Y-10102D02*
X31084Y-10102D01*
X30486Y-09795D02*
X31084Y-09795D01*
X31084Y-09602D02*
X31084Y-09795D01*
X30486Y-09602D02*
X31084Y-09602D01*
X30486Y-09296D02*
X31084Y-09296D01*
X31084Y-09103D02*
X31084Y-09296D01*
X30486Y-09103D02*
X31084Y-09103D01*
X30486Y-08796D02*
X31084Y-08796D01*
X31084Y-08603D02*
X31084Y-08796D01*
X30486Y-08603D02*
X31084Y-08603D01*
X30486Y-08296D02*
X31084Y-08296D01*
X31084Y-08103D02*
X31084Y-08296D01*
X30486Y-08103D02*
X31084Y-08103D01*
X30486Y-07796D02*
X31084Y-07796D01*
X31084Y-07603D02*
X31084Y-07796D01*
X30486Y-07603D02*
X31084Y-07603D01*
X30486Y-07296D02*
X31084Y-07296D01*
X31084Y-07103D02*
X31084Y-07296D01*
X30486Y-07103D02*
X31084Y-07103D01*
G54D17*
X03496Y-03059D02*
X03496Y-02059D01*
X03496Y-02059D02*
X09496Y-02059D01*
X09496Y-02059D02*
X09496Y-03059D01*
X09496Y-03059D02*
X03496Y-03059D01*
X04496Y-03059D02*
X04496Y-02059D01*
G54D10*
X44701Y-18004D02*
X44701Y-19004D01*
X44701Y-19004D02*
X42701Y-19004D01*
X42701Y-19004D02*
X42701Y-18004D01*
X42701Y-18004D02*
X44701Y-18004D01*
X44701Y-16429D02*
X44701Y-17429D01*
X44701Y-17429D02*
X42701Y-17429D01*
X42701Y-17429D02*
X42701Y-16429D01*
X42701Y-16429D02*
X44701Y-16429D01*
G54D19*
X45791Y-15764D02*
X42791Y-15764D01*
X42791Y-13764D02*
X45791Y-13764D01*
X45791Y-13764D02*
X45791Y-15764D01*
X42791Y-15764D02*
X42791Y-13764D01*
G54D11*
X26220Y-12756D02*
X27362Y-12756D01*
X26220Y-14016D02*
X27362Y-14016D01*
X26220Y-14016D02*
X26220Y-12756D01*
X27165Y-14016D02*
X27165Y-12756D01*
X27205Y-12756D02*
X27205Y-14016D01*
X27244Y-14016D02*
X27244Y-12756D01*
X27283Y-12756D02*
X27283Y-14016D01*
X27323Y-14016D02*
X27323Y-12756D01*
X27362Y-12756D02*
X27362Y-14016D01*
X32323Y-10000D02*
X33465Y-10000D01*
X32323Y-11260D02*
X33465Y-11260D01*
X32323Y-11260D02*
X32323Y-10000D01*
X33268Y-11260D02*
X33268Y-10000D01*
X33308Y-10000D02*
X33308Y-11260D01*
X33347Y-11260D02*
X33347Y-10000D01*
X33386Y-10000D02*
X33386Y-11260D01*
X33426Y-11260D02*
X33426Y-10000D01*
X33465Y-10000D02*
X33465Y-11260D01*
G54D15*
X46417Y-07007D02*
X46417Y-10315D01*
X46339Y-10315D02*
X46339Y-07007D01*
X46260Y-07007D02*
X46260Y-10315D01*
X46142Y-10315D02*
X46142Y-07007D01*
X46063Y-07007D02*
X46063Y-10315D01*
X46536Y-07007D02*
X46536Y-10315D01*
X46536Y-07007D02*
X43937Y-07007D01*
X46536Y-10315D02*
X43937Y-10315D01*
X43937Y-10315D02*
X43228Y-09606D01*
X43228Y-09606D02*
X43228Y-07716D01*
X43228Y-07716D02*
X43937Y-07007D01*
X46457Y-08661D02*
X46427Y-08966D01*
X46338Y-09261D01*
X46193Y-09532D01*
X45999Y-09770D01*
X45762Y-09966D01*
X45492Y-10112D01*
X45198Y-10203D01*
X44892Y-10235D01*
X44587Y-10208D01*
X44292Y-10121D01*
X44020Y-09978D01*
X43781Y-09786D01*
X43583Y-09550D01*
X43435Y-09281D01*
X43342Y-08988D01*
X43308Y-08682D01*
X43333Y-08377D01*
X43418Y-08082D01*
X43559Y-07808D01*
X43750Y-07567D01*
X43984Y-07368D01*
X44252Y-07218D01*
X44544Y-07123D01*
X44850Y-07087D01*
X45155Y-07110D01*
X45451Y-07193D01*
X45725Y-07332D01*
X45968Y-07521D01*
X46169Y-07754D01*
X46320Y-08021D01*
X46417Y-08313D01*
X46456Y-08618D01*
X46457Y-08661D01*
G54D21*
X39857Y-14170D02*
X40057Y-13870D01*
X39857Y-14870D02*
X39857Y-13845D01*
X39857Y-13845D02*
X40457Y-13845D01*
X40457Y-13845D02*
X40457Y-14870D01*
X40457Y-14870D02*
X39857Y-14870D01*
X46944Y-11020D02*
X47144Y-10720D01*
X46944Y-11720D02*
X46944Y-10695D01*
X46944Y-10695D02*
X47544Y-10695D01*
X47544Y-10695D02*
X47544Y-11720D01*
X47544Y-11720D02*
X46944Y-11720D01*
X08421Y-16545D02*
X07721Y-16545D01*
X07721Y-16545D02*
X07721Y-15345D01*
X07721Y-15345D02*
X08421Y-15345D01*
X08421Y-15345D02*
X08421Y-16545D01*
X47594Y-14970D02*
X46894Y-14970D01*
X46894Y-14970D02*
X46894Y-13770D01*
X46894Y-13770D02*
X47594Y-13770D01*
X47594Y-13770D02*
X47594Y-14970D01*
X29768Y-13180D02*
X30468Y-13180D01*
X30468Y-13180D02*
X30468Y-14380D01*
X30468Y-14380D02*
X29768Y-14380D01*
X29768Y-14380D02*
X29768Y-13180D01*
X40251Y-18020D02*
X39551Y-18020D01*
X39551Y-18020D02*
X39551Y-16820D01*
X39551Y-16820D02*
X40251Y-16820D01*
X40251Y-16820D02*
X40251Y-18020D01*
G54D15*
X19921Y-19449D02*
X21417Y-19449D01*
X19921Y-17244D02*
X21417Y-17244D01*
X19921Y-17244D02*
X19921Y-19449D01*
X21417Y-19449D02*
X21417Y-17244D01*
X00827Y-05906D02*
X02323Y-05906D01*
X00827Y-03701D02*
X02323Y-03701D01*
X00827Y-03701D02*
X00827Y-05906D01*
X02323Y-05906D02*
X02323Y-03701D01*
X18131Y-14681D02*
X17831Y-14981D01*
X17831Y-14981D02*
X10831Y-14981D01*
X10831Y-14981D02*
X10531Y-14681D01*
X10531Y-14681D02*
X10531Y-07681D01*
X10531Y-07681D02*
X10831Y-07381D01*
X10831Y-07381D02*
X17831Y-07381D01*
X17831Y-07381D02*
X18131Y-07681D01*
X18131Y-07681D02*
X18131Y-14681D01*
G54D17*
X11331Y-07931D02*
X11326Y-07979D01*
X11312Y-08026D01*
X11289Y-08069D01*
X11258Y-08107D01*
X11220Y-08138D01*
X11177Y-08161D01*
X11131Y-08175D01*
X11082Y-08180D01*
X11035Y-08176D01*
X10988Y-08162D01*
X10945Y-08140D01*
X10907Y-08109D01*
X10875Y-08072D01*
X10852Y-08029D01*
X10837Y-07982D01*
X10832Y-07934D01*
X10836Y-07886D01*
X10849Y-07839D01*
X10871Y-07796D01*
X10902Y-07758D01*
X10939Y-07726D01*
X10981Y-07702D01*
X11028Y-07687D01*
X11076Y-07682D01*
X11124Y-07685D01*
X11171Y-07698D01*
X11214Y-07720D01*
X11253Y-07750D01*
X11285Y-07787D01*
X11309Y-07830D01*
X11324Y-07876D01*
X11330Y-07925D01*
X11331Y-07931D01*
G54D15*
X19685Y-00197D02*
X18425Y-00197D01*
X18425Y-00197D02*
X18425Y-05000D01*
X18425Y-05000D02*
X20945Y-05000D01*
X20945Y-05000D02*
X20945Y-00197D01*
X20945Y-00197D02*
X19685Y-00197D01*
X25197Y-00197D02*
X23937Y-00197D01*
X23937Y-00197D02*
X23937Y-05000D01*
X23937Y-05000D02*
X26457Y-05000D01*
X26457Y-05000D02*
X26457Y-00197D01*
X26457Y-00197D02*
X25197Y-00197D01*
X04996Y-05809D02*
X06196Y-05809D01*
X06196Y-05809D02*
X06196Y-06709D01*
X05000Y-06733D02*
X07992Y-06733D01*
X05000Y-04685D02*
X07992Y-04685D01*
X07992Y-04685D02*
X07992Y-06733D01*
X05000Y-04685D02*
X05000Y-06733D01*
X05930Y-15079D02*
X05927Y-15106D01*
X05919Y-15133D01*
X05906Y-15157D01*
X05888Y-15179D01*
X05867Y-15196D01*
X05843Y-15209D01*
X05816Y-15218D01*
X05788Y-15220D01*
X05762Y-15218D01*
X05735Y-15210D01*
X05711Y-15197D01*
X05689Y-15180D01*
X05671Y-15159D01*
X05658Y-15134D01*
X05650Y-15108D01*
X05647Y-15080D01*
X05649Y-15054D01*
X05656Y-15027D01*
X05669Y-15003D01*
X05686Y-14981D01*
X05707Y-14963D01*
X05732Y-14949D01*
X05758Y-14941D01*
X05786Y-14938D01*
X05812Y-14940D01*
X05839Y-14947D01*
X05864Y-14960D01*
X05885Y-14977D01*
X05904Y-14998D01*
X05917Y-15022D01*
X05926Y-15048D01*
X05929Y-15076D01*
X05930Y-15079D01*
X06102Y-15945D02*
X04134Y-15945D01*
X04134Y-15945D02*
X04134Y-14763D01*
X04134Y-14763D02*
X06102Y-14763D01*
X06102Y-14763D02*
X06102Y-15945D01*
X48056Y-05040D02*
X48053Y-05067D01*
X48045Y-05094D01*
X48032Y-05118D01*
X48014Y-05140D01*
X47993Y-05157D01*
X47969Y-05170D01*
X47942Y-05179D01*
X47914Y-05181D01*
X47888Y-05179D01*
X47861Y-05171D01*
X47837Y-05158D01*
X47815Y-05141D01*
X47797Y-05120D01*
X47784Y-05095D01*
X47776Y-05069D01*
X47773Y-05041D01*
X47775Y-05015D01*
X47782Y-04988D01*
X47795Y-04964D01*
X47812Y-04942D01*
X47833Y-04924D01*
X47858Y-04910D01*
X47884Y-04902D01*
X47912Y-04899D01*
X47938Y-04901D01*
X47965Y-04908D01*
X47990Y-04921D01*
X48011Y-04938D01*
X48030Y-04959D01*
X48043Y-04983D01*
X48052Y-05009D01*
X48055Y-05037D01*
X48056Y-05040D01*
X48228Y-05906D02*
X46260Y-05906D01*
X46260Y-05906D02*
X46260Y-04724D01*
X46260Y-04724D02*
X48228Y-04724D01*
X48228Y-04724D02*
X48228Y-05906D01*
X44708Y-12875D02*
X44705Y-12902D01*
X44697Y-12929D01*
X44684Y-12953D01*
X44666Y-12975D01*
X44645Y-12992D01*
X44621Y-13005D01*
X44594Y-13014D01*
X44566Y-13016D01*
X44540Y-13014D01*
X44513Y-13006D01*
X44489Y-12993D01*
X44467Y-12976D01*
X44449Y-12955D01*
X44436Y-12930D01*
X44428Y-12904D01*
X44425Y-12876D01*
X44427Y-12850D01*
X44434Y-12823D01*
X44447Y-12799D01*
X44464Y-12777D01*
X44485Y-12759D01*
X44510Y-12745D01*
X44536Y-12737D01*
X44564Y-12734D01*
X44590Y-12736D01*
X44617Y-12743D01*
X44642Y-12756D01*
X44663Y-12773D01*
X44682Y-12794D01*
X44695Y-12818D01*
X44704Y-12844D01*
X44707Y-12872D01*
X44708Y-12875D01*
X43700Y-13189D02*
X43700Y-11221D01*
X43700Y-11221D02*
X44882Y-11221D01*
X44882Y-11221D02*
X44882Y-13189D01*
X44882Y-13189D02*
X43700Y-13189D01*
X37126Y-10315D02*
X37126Y-08543D01*
X36102Y-08543D02*
X36102Y-10315D01*
X36102Y-08543D02*
X37126Y-08543D01*
X37126Y-10315D02*
X36102Y-10315D01*
G54D11*
X36538Y-08820D02*
X36535Y-08846D01*
X36527Y-08872D01*
X36514Y-08896D01*
X36497Y-08917D01*
X36477Y-08934D01*
X36453Y-08947D01*
X36427Y-08955D01*
X36400Y-08957D01*
X36375Y-08955D01*
X36349Y-08947D01*
X36325Y-08935D01*
X36304Y-08918D01*
X36287Y-08897D01*
X36274Y-08874D01*
X36266Y-08848D01*
X36263Y-08821D01*
X36265Y-08796D01*
X36272Y-08770D01*
X36285Y-08746D01*
X36301Y-08725D01*
X36322Y-08707D01*
X36345Y-08694D01*
X36371Y-08686D01*
X36398Y-08683D01*
X36423Y-08685D01*
X36449Y-08692D01*
X36473Y-08704D01*
X36495Y-08721D01*
X36512Y-08741D01*
X36526Y-08764D01*
X36534Y-08790D01*
X36537Y-08817D01*
X36538Y-08820D01*
G54D15*
X10236Y-17835D02*
X10236Y-19409D01*
X18701Y-17835D02*
X10236Y-17835D01*
X18701Y-19409D02*
X18701Y-17835D01*
X18700Y-19409D02*
X10236Y-19409D01*
X01929Y-07283D02*
X00355Y-07283D01*
X01929Y-15748D02*
X01929Y-07283D01*
X00355Y-15748D02*
X01929Y-15748D01*
X00355Y-15747D02*
X00355Y-07283D01*
X22047Y-14094D02*
X24015Y-14094D01*
X22047Y-17008D02*
X24015Y-17008D01*
X23819Y-16615D02*
X23815Y-16653D01*
X23804Y-16690D01*
X23786Y-16724D01*
X23761Y-16753D01*
X23732Y-16778D01*
X23698Y-16796D01*
X23661Y-16807D01*
X23623Y-16811D01*
X23586Y-16808D01*
X23549Y-16797D01*
X23515Y-16779D01*
X23485Y-16755D01*
X23460Y-16726D01*
X23441Y-16692D01*
X23430Y-16655D01*
X23426Y-16617D01*
X23429Y-16580D01*
X23439Y-16543D01*
X23457Y-16509D01*
X23481Y-16479D01*
X23510Y-16454D01*
X23544Y-16435D01*
X23580Y-16423D01*
X23618Y-16419D01*
X23656Y-16421D01*
X23693Y-16432D01*
X23727Y-16449D01*
X23757Y-16473D01*
X23782Y-16502D01*
X23801Y-16535D01*
X23814Y-16572D01*
X23818Y-16610D01*
X23819Y-16615D01*
X22048Y-17008D02*
X22048Y-14094D01*
X24015Y-14094D02*
X24015Y-17008D01*
G54D11*
X25590Y-06496D02*
X25571Y-06687D01*
X25515Y-06870D01*
X25425Y-07040D01*
X25304Y-07189D01*
X25156Y-07311D01*
X24987Y-07403D01*
X24803Y-07459D01*
X24612Y-07479D01*
X24422Y-07462D01*
X24238Y-07408D01*
X24068Y-07319D01*
X23918Y-07199D01*
X23795Y-07051D01*
X23702Y-06883D01*
X23644Y-06700D01*
X23623Y-06509D01*
X23639Y-06319D01*
X23692Y-06134D01*
X23779Y-05963D01*
X23899Y-05813D01*
X24045Y-05688D01*
X24213Y-05595D01*
X24395Y-05535D01*
X24586Y-05513D01*
X24776Y-05527D01*
X24961Y-05579D01*
X25133Y-05666D01*
X25284Y-05784D01*
X25410Y-05929D01*
X25504Y-06096D01*
X25565Y-06278D01*
X25589Y-06469D01*
X25590Y-06496D01*
X21653Y-06496D02*
X21634Y-06687D01*
X21578Y-06870D01*
X21488Y-07040D01*
X21367Y-07189D01*
X21219Y-07311D01*
X21050Y-07403D01*
X20866Y-07459D01*
X20675Y-07479D01*
X20485Y-07462D01*
X20301Y-07408D01*
X20131Y-07319D01*
X19981Y-07199D01*
X19858Y-07051D01*
X19765Y-06883D01*
X19707Y-06700D01*
X19686Y-06509D01*
X19702Y-06319D01*
X19755Y-06134D01*
X19842Y-05963D01*
X19962Y-05813D01*
X20108Y-05688D01*
X20276Y-05595D01*
X20458Y-05535D01*
X20649Y-05513D01*
X20839Y-05527D01*
X21024Y-05579D01*
X21196Y-05666D01*
X21347Y-05784D01*
X21473Y-05929D01*
X21567Y-06096D01*
X21628Y-06278D01*
X21652Y-06469D01*
X21653Y-06496D01*
G54D17*
X04575Y-17425D02*
X08575Y-17425D01*
X08575Y-17425D02*
X08575Y-19425D01*
X08575Y-19425D02*
X04575Y-19425D01*
X04575Y-19425D02*
X04575Y-17425D01*
G54D11*
X29710Y-06022D02*
X29710Y-06308D01*
X29690Y-06365D01*
X29652Y-06403D01*
X29595Y-06422D01*
X29557Y-06422D01*
X29862Y-06022D02*
X30110Y-06022D01*
X29976Y-06174D01*
X30034Y-06174D01*
X30072Y-06193D01*
X30091Y-06212D01*
X30110Y-06250D01*
X30110Y-06346D01*
X30091Y-06384D01*
X30072Y-06403D01*
X30034Y-06422D01*
X29919Y-06422D01*
X29881Y-06403D01*
X29862Y-06384D01*
X38922Y-05943D02*
X38922Y-06229D01*
X38902Y-06286D01*
X38864Y-06324D01*
X38807Y-06343D01*
X38769Y-06343D01*
X39093Y-05981D02*
X39112Y-05962D01*
X39150Y-05943D01*
X39246Y-05943D01*
X39284Y-05962D01*
X39303Y-05981D01*
X39322Y-06019D01*
X39322Y-06057D01*
X39303Y-06114D01*
X39074Y-06343D01*
X39322Y-06343D01*
G54D17*
X33552Y-16131D02*
X33523Y-16159D01*
X33437Y-16188D01*
X33380Y-16188D01*
X33295Y-16159D01*
X33237Y-16102D01*
X33209Y-16045D01*
X33180Y-15931D01*
X33180Y-15845D01*
X33209Y-15731D01*
X33237Y-15674D01*
X33295Y-15616D01*
X33380Y-15588D01*
X33437Y-15588D01*
X33523Y-15616D01*
X33552Y-15645D01*
X33780Y-15645D02*
X33809Y-15616D01*
X33866Y-15588D01*
X34009Y-15588D01*
X34066Y-15616D01*
X34095Y-15645D01*
X34123Y-15702D01*
X34123Y-15759D01*
X34095Y-15845D01*
X33752Y-16188D01*
X34123Y-16188D01*
X34351Y-15645D02*
X34380Y-15616D01*
X34437Y-15588D01*
X34580Y-15588D01*
X34637Y-15616D01*
X34666Y-15645D01*
X34694Y-15702D01*
X34694Y-15759D01*
X34666Y-15845D01*
X34323Y-16188D01*
X34694Y-16188D01*
X33552Y-19241D02*
X33523Y-19269D01*
X33437Y-19298D01*
X33380Y-19298D01*
X33295Y-19269D01*
X33237Y-19212D01*
X33209Y-19155D01*
X33180Y-19041D01*
X33180Y-18955D01*
X33209Y-18841D01*
X33237Y-18784D01*
X33295Y-18726D01*
X33380Y-18698D01*
X33437Y-18698D01*
X33523Y-18726D01*
X33552Y-18755D01*
X34123Y-19298D02*
X33780Y-19298D01*
X33952Y-19298D02*
X33952Y-18698D01*
X33895Y-18784D01*
X33837Y-18841D01*
X33780Y-18869D01*
X34694Y-19298D02*
X34351Y-19298D01*
X34523Y-19298D02*
X34523Y-18698D01*
X34466Y-18784D01*
X34408Y-18841D01*
X34351Y-18869D01*
G54D11*
X41875Y-05746D02*
X41875Y-06032D01*
X41855Y-06089D01*
X41817Y-06127D01*
X41760Y-06146D01*
X41722Y-06146D01*
X42275Y-06146D02*
X42046Y-06146D01*
X42160Y-06146D02*
X42160Y-05746D01*
X42122Y-05803D01*
X42084Y-05841D01*
X42046Y-05860D01*
X25240Y-12812D02*
X25259Y-12831D01*
X25277Y-12887D01*
X25277Y-12925D01*
X25259Y-12981D01*
X25221Y-13018D01*
X25184Y-13037D01*
X25109Y-13056D01*
X25052Y-13056D01*
X24977Y-13037D01*
X24940Y-13018D01*
X24902Y-12981D01*
X24883Y-12925D01*
X24883Y-12887D01*
X24902Y-12831D01*
X24921Y-12812D01*
X25015Y-12474D02*
X25277Y-12474D01*
X24865Y-12568D02*
X25146Y-12662D01*
X25146Y-12418D01*
X24883Y-12306D02*
X24883Y-12043D01*
X25277Y-12212D01*
X47179Y-16342D02*
X47160Y-16361D01*
X47104Y-16379D01*
X47066Y-16379D01*
X47010Y-16361D01*
X46973Y-16323D01*
X46954Y-16286D01*
X46935Y-16211D01*
X46935Y-16154D01*
X46954Y-16079D01*
X46973Y-16042D01*
X47010Y-16004D01*
X47066Y-15985D01*
X47104Y-15985D01*
X47160Y-16004D01*
X47179Y-16023D01*
X47517Y-15985D02*
X47442Y-15985D01*
X47404Y-16004D01*
X47385Y-16023D01*
X47348Y-16079D01*
X47329Y-16154D01*
X47329Y-16304D01*
X47348Y-16342D01*
X47367Y-16361D01*
X47404Y-16379D01*
X47479Y-16379D01*
X47517Y-16361D01*
X47535Y-16342D01*
X47554Y-16304D01*
X47554Y-16211D01*
X47535Y-16173D01*
X47517Y-16154D01*
X47479Y-16136D01*
X47404Y-16136D01*
X47367Y-16154D01*
X47348Y-16173D01*
X47329Y-16211D01*
X32574Y-14765D02*
X32574Y-15084D01*
X32593Y-15122D01*
X32611Y-15141D01*
X32649Y-15159D01*
X32724Y-15159D01*
X32761Y-15141D01*
X32780Y-15122D01*
X32799Y-15084D01*
X32799Y-14765D01*
X33043Y-14934D02*
X33006Y-14916D01*
X32987Y-14897D01*
X32968Y-14859D01*
X32968Y-14841D01*
X32987Y-14803D01*
X33006Y-14784D01*
X33043Y-14765D01*
X33118Y-14765D01*
X33156Y-14784D01*
X33174Y-14803D01*
X33193Y-14841D01*
X33193Y-14859D01*
X33174Y-14897D01*
X33156Y-14916D01*
X33118Y-14934D01*
X33043Y-14934D01*
X33006Y-14953D01*
X32987Y-14972D01*
X32968Y-15009D01*
X32968Y-15084D01*
X32987Y-15122D01*
X33006Y-15141D01*
X33043Y-15159D01*
X33118Y-15159D01*
X33156Y-15141D01*
X33174Y-15122D01*
X33193Y-15084D01*
X33193Y-15009D01*
X33174Y-14972D01*
X33156Y-14953D01*
X33118Y-14934D01*
G54D10*
X28765Y-15985D02*
X28765Y-16304D01*
X28784Y-16342D01*
X28802Y-16361D01*
X28840Y-16379D01*
X28915Y-16379D01*
X28952Y-16361D01*
X28971Y-16342D01*
X28990Y-16304D01*
X28990Y-15985D01*
X29384Y-16379D02*
X29159Y-16379D01*
X29272Y-16379D02*
X29272Y-15985D01*
X29234Y-16042D01*
X29197Y-16079D01*
X29159Y-16098D01*
X29534Y-16023D02*
X29553Y-16004D01*
X29590Y-15985D01*
X29684Y-15985D01*
X29722Y-16004D01*
X29740Y-16023D01*
X29759Y-16061D01*
X29759Y-16098D01*
X29740Y-16154D01*
X29515Y-16379D01*
X29759Y-16379D01*
G54D22*
X20749Y-10133D02*
X21068Y-10133D01*
X21106Y-10114D01*
X21125Y-10096D01*
X21143Y-10058D01*
X21143Y-09983D01*
X21125Y-09946D01*
X21106Y-09927D01*
X21068Y-09908D01*
X20749Y-09908D01*
X21143Y-09514D02*
X21143Y-09739D01*
X21143Y-09626D02*
X20749Y-09626D01*
X20806Y-09664D01*
X20843Y-09701D01*
X20862Y-09739D01*
X20749Y-09158D02*
X20749Y-09345D01*
X20937Y-09364D01*
X20918Y-09345D01*
X20900Y-09308D01*
X20900Y-09214D01*
X20918Y-09176D01*
X20937Y-09158D01*
X20975Y-09139D01*
X21068Y-09139D01*
X21106Y-09158D01*
X21125Y-09176D01*
X21143Y-09214D01*
X21143Y-09308D01*
X21125Y-09345D01*
X21106Y-09364D01*
G54D11*
X25869Y-08727D02*
X25682Y-08858D01*
X25869Y-08952D02*
X25475Y-08952D01*
X25475Y-08802D01*
X25494Y-08765D01*
X25513Y-08746D01*
X25551Y-08727D01*
X25607Y-08727D01*
X25644Y-08746D01*
X25663Y-08765D01*
X25682Y-08802D01*
X25682Y-08952D01*
X25869Y-08558D02*
X25475Y-08558D01*
X25475Y-08408D01*
X25494Y-08371D01*
X25513Y-08352D01*
X25551Y-08333D01*
X25607Y-08333D01*
X25644Y-08352D01*
X25663Y-08371D01*
X25682Y-08408D01*
X25682Y-08558D01*
X25869Y-07958D02*
X25869Y-08183D01*
X25869Y-08070D02*
X25475Y-08070D01*
X25532Y-08108D01*
X25569Y-08145D01*
X25588Y-08183D01*
G54D17*
X34625Y-13493D02*
X34596Y-13521D01*
X34510Y-13550D01*
X34453Y-13550D01*
X34368Y-13521D01*
X34310Y-13464D01*
X34282Y-13407D01*
X34253Y-13293D01*
X34253Y-13207D01*
X34282Y-13093D01*
X34310Y-13036D01*
X34368Y-12978D01*
X34453Y-12950D01*
X34510Y-12950D01*
X34596Y-12978D01*
X34625Y-13007D01*
X35139Y-13150D02*
X35139Y-13550D01*
X34996Y-12921D02*
X34853Y-13350D01*
X35225Y-13350D01*
G54D14*
X47042Y-12184D02*
X47027Y-12199D01*
X46982Y-12214D01*
X46952Y-12214D01*
X46907Y-12199D01*
X46877Y-12169D01*
X46862Y-12139D01*
X46847Y-12079D01*
X46847Y-12034D01*
X46862Y-11974D01*
X46877Y-11944D01*
X46907Y-11914D01*
X46952Y-11899D01*
X46982Y-11899D01*
X47027Y-11914D01*
X47042Y-11929D01*
X47327Y-11899D02*
X47177Y-11899D01*
X47162Y-12049D01*
X47177Y-12034D01*
X47207Y-12019D01*
X47282Y-12019D01*
X47312Y-12034D01*
X47327Y-12049D01*
X47342Y-12079D01*
X47342Y-12154D01*
X47327Y-12184D01*
X47312Y-12199D01*
X47282Y-12214D01*
X47207Y-12214D01*
X47177Y-12199D01*
X47162Y-12184D01*
X47612Y-11899D02*
X47552Y-11899D01*
X47522Y-11914D01*
X47507Y-11929D01*
X47477Y-11974D01*
X47462Y-12034D01*
X47462Y-12154D01*
X47477Y-12184D01*
X47492Y-12199D01*
X47522Y-12214D01*
X47582Y-12214D01*
X47612Y-12199D01*
X47627Y-12184D01*
X47642Y-12154D01*
X47642Y-12079D01*
X47627Y-12049D01*
X47612Y-12034D01*
X47582Y-12019D01*
X47522Y-12019D01*
X47492Y-12034D01*
X47477Y-12049D01*
X47462Y-12079D01*
G54D22*
X25743Y-14664D02*
X25728Y-14679D01*
X25683Y-14694D01*
X25653Y-14694D01*
X25608Y-14679D01*
X25578Y-14649D01*
X25563Y-14619D01*
X25548Y-14559D01*
X25548Y-14514D01*
X25563Y-14454D01*
X25578Y-14424D01*
X25608Y-14394D01*
X25653Y-14379D01*
X25683Y-14379D01*
X25728Y-14394D01*
X25743Y-14409D01*
X26013Y-14379D02*
X25953Y-14379D01*
X25923Y-14394D01*
X25908Y-14409D01*
X25878Y-14454D01*
X25863Y-14514D01*
X25863Y-14634D01*
X25878Y-14664D01*
X25893Y-14679D01*
X25923Y-14694D01*
X25983Y-14694D01*
X26013Y-14679D01*
X26028Y-14664D01*
X26043Y-14634D01*
X26043Y-14559D01*
X26028Y-14529D01*
X26013Y-14514D01*
X25983Y-14499D01*
X25923Y-14499D01*
X25893Y-14514D01*
X25878Y-14529D01*
X25863Y-14559D01*
X26313Y-14379D02*
X26253Y-14379D01*
X26223Y-14394D01*
X26208Y-14409D01*
X26178Y-14454D01*
X26163Y-14514D01*
X26163Y-14634D01*
X26178Y-14664D01*
X26193Y-14679D01*
X26223Y-14694D01*
X26283Y-14694D01*
X26313Y-14679D01*
X26328Y-14664D01*
X26343Y-14634D01*
X26343Y-14559D01*
X26328Y-14529D01*
X26313Y-14514D01*
X26283Y-14499D01*
X26223Y-14499D01*
X26193Y-14514D01*
X26178Y-14529D01*
X26163Y-14559D01*
G54D11*
X25377Y-18232D02*
X25358Y-18251D01*
X25302Y-18269D01*
X25264Y-18269D01*
X25208Y-18251D01*
X25171Y-18213D01*
X25152Y-18176D01*
X25133Y-18101D01*
X25133Y-18044D01*
X25152Y-17969D01*
X25171Y-17932D01*
X25208Y-17894D01*
X25264Y-17875D01*
X25302Y-17875D01*
X25358Y-17894D01*
X25377Y-17913D01*
X25715Y-17875D02*
X25640Y-17875D01*
X25602Y-17894D01*
X25583Y-17913D01*
X25546Y-17969D01*
X25527Y-18044D01*
X25527Y-18194D01*
X25546Y-18232D01*
X25565Y-18251D01*
X25602Y-18269D01*
X25677Y-18269D01*
X25715Y-18251D01*
X25733Y-18232D01*
X25752Y-18194D01*
X25752Y-18101D01*
X25733Y-18063D01*
X25715Y-18044D01*
X25677Y-18026D01*
X25602Y-18026D01*
X25565Y-18044D01*
X25546Y-18063D01*
X25527Y-18101D01*
X26090Y-18007D02*
X26090Y-18269D01*
X25996Y-17857D02*
X25902Y-18138D01*
X26146Y-18138D01*
X38190Y-18007D02*
X37796Y-18007D01*
X37796Y-17913D01*
X37815Y-17857D01*
X37853Y-17820D01*
X37890Y-17801D01*
X37965Y-17782D01*
X38022Y-17782D01*
X38097Y-17801D01*
X38134Y-17820D01*
X38172Y-17857D01*
X38190Y-17913D01*
X38190Y-18007D01*
X37834Y-17632D02*
X37815Y-17613D01*
X37796Y-17576D01*
X37796Y-17482D01*
X37815Y-17444D01*
X37834Y-17426D01*
X37872Y-17407D01*
X37909Y-17407D01*
X37965Y-17426D01*
X38190Y-17651D01*
X38190Y-17407D01*
X42064Y-10775D02*
X42469Y-10775D01*
X42517Y-10751D01*
X42541Y-10727D01*
X42564Y-10680D01*
X42564Y-10584D01*
X42541Y-10537D01*
X42517Y-10513D01*
X42469Y-10489D01*
X42064Y-10489D01*
X42112Y-10275D02*
X42088Y-10251D01*
X42064Y-10203D01*
X42064Y-10084D01*
X42088Y-10037D01*
X42112Y-10013D01*
X42160Y-09989D01*
X42207Y-09989D01*
X42279Y-10013D01*
X42564Y-10299D01*
X42564Y-09989D01*
X17836Y-03253D02*
X18155Y-03253D01*
X18193Y-03234D01*
X18212Y-03216D01*
X18230Y-03178D01*
X18230Y-03103D01*
X18212Y-03066D01*
X18193Y-03047D01*
X18155Y-03028D01*
X17836Y-03028D01*
X18230Y-02821D02*
X18230Y-02746D01*
X18212Y-02709D01*
X18193Y-02690D01*
X18137Y-02653D01*
X18062Y-02634D01*
X17912Y-02634D01*
X17874Y-02653D01*
X17855Y-02671D01*
X17836Y-02709D01*
X17836Y-02784D01*
X17855Y-02821D01*
X17874Y-02840D01*
X17912Y-02859D01*
X18005Y-02859D01*
X18043Y-02840D01*
X18062Y-02821D01*
X18080Y-02784D01*
X18080Y-02709D01*
X18062Y-02671D01*
X18043Y-02653D01*
X18005Y-02634D01*
X41391Y-16340D02*
X41204Y-16340D01*
X41204Y-15946D01*
X41729Y-16340D02*
X41504Y-16340D01*
X41617Y-16340D02*
X41617Y-15946D01*
X41579Y-16003D01*
X41542Y-16040D01*
X41504Y-16059D01*
X28254Y-06300D02*
X28254Y-06619D01*
X28273Y-06657D01*
X28291Y-06676D01*
X28329Y-06694D01*
X28404Y-06694D01*
X28441Y-06676D01*
X28460Y-06657D01*
X28479Y-06619D01*
X28479Y-06300D01*
X28873Y-06694D02*
X28648Y-06694D01*
X28761Y-06694D02*
X28761Y-06300D01*
X28723Y-06357D01*
X28686Y-06394D01*
X28648Y-06413D01*
X29248Y-06694D02*
X29023Y-06694D01*
X29136Y-06694D02*
X29136Y-06300D01*
X29098Y-06357D01*
X29061Y-06394D01*
X29023Y-06413D01*
G54D19*
X03563Y-01816D02*
X03563Y-01416D01*
X03716Y-01416D01*
X03754Y-01435D01*
X03773Y-01454D01*
X03792Y-01492D01*
X03792Y-01549D01*
X03773Y-01587D01*
X03754Y-01606D01*
X03716Y-01625D01*
X03563Y-01625D01*
X04135Y-01549D02*
X04135Y-01816D01*
X04039Y-01397D02*
X03944Y-01683D01*
X04192Y-01683D01*
G54D10*
X44867Y-18466D02*
X44867Y-18072D01*
X45017Y-18072D01*
X45054Y-18091D01*
X45073Y-18110D01*
X45092Y-18148D01*
X45092Y-18204D01*
X45073Y-18241D01*
X45054Y-18260D01*
X45017Y-18279D01*
X44867Y-18279D01*
X45223Y-18072D02*
X45467Y-18072D01*
X45336Y-18223D01*
X45392Y-18223D01*
X45430Y-18241D01*
X45448Y-18260D01*
X45467Y-18298D01*
X45467Y-18391D01*
X45448Y-18429D01*
X45430Y-18448D01*
X45392Y-18466D01*
X45280Y-18466D01*
X45242Y-18448D01*
X45223Y-18429D01*
X44946Y-16970D02*
X44946Y-16576D01*
X45096Y-16576D01*
X45133Y-16595D01*
X45152Y-16614D01*
X45171Y-16652D01*
X45171Y-16708D01*
X45152Y-16745D01*
X45133Y-16764D01*
X45096Y-16783D01*
X44946Y-16783D01*
X45546Y-16970D02*
X45321Y-16970D01*
X45434Y-16970D02*
X45434Y-16576D01*
X45396Y-16633D01*
X45359Y-16670D01*
X45321Y-16689D01*
G54D19*
X41949Y-15674D02*
X41949Y-15274D01*
X42102Y-15274D01*
X42140Y-15293D01*
X42159Y-15312D01*
X42178Y-15350D01*
X42178Y-15407D01*
X42159Y-15445D01*
X42140Y-15464D01*
X42102Y-15483D01*
X41949Y-15483D01*
X42330Y-15312D02*
X42349Y-15293D01*
X42387Y-15274D01*
X42483Y-15274D01*
X42521Y-15293D01*
X42540Y-15312D01*
X42559Y-15350D01*
X42559Y-15388D01*
X42540Y-15445D01*
X42311Y-15674D01*
X42559Y-15674D01*
G54D11*
X08990Y-14886D02*
X08971Y-14905D01*
X08915Y-14923D01*
X08877Y-14923D01*
X08821Y-14905D01*
X08784Y-14867D01*
X08765Y-14830D01*
X08746Y-14755D01*
X08746Y-14698D01*
X08765Y-14623D01*
X08784Y-14586D01*
X08821Y-14548D01*
X08877Y-14529D01*
X08915Y-14529D01*
X08971Y-14548D01*
X08990Y-14567D01*
X09365Y-14923D02*
X09140Y-14923D01*
X09253Y-14923D02*
X09253Y-14529D01*
X09215Y-14586D01*
X09178Y-14623D01*
X09140Y-14642D01*
X25141Y-13705D02*
X25122Y-13724D01*
X25066Y-13742D01*
X25028Y-13742D01*
X24972Y-13724D01*
X24935Y-13686D01*
X24916Y-13649D01*
X24897Y-13574D01*
X24897Y-13517D01*
X24916Y-13442D01*
X24935Y-13405D01*
X24972Y-13367D01*
X25028Y-13348D01*
X25066Y-13348D01*
X25122Y-13367D01*
X25141Y-13386D01*
X25516Y-13742D02*
X25291Y-13742D01*
X25404Y-13742D02*
X25404Y-13348D01*
X25366Y-13405D01*
X25329Y-13442D01*
X25291Y-13461D01*
X25666Y-13386D02*
X25685Y-13367D01*
X25722Y-13348D01*
X25816Y-13348D01*
X25854Y-13367D01*
X25872Y-13386D01*
X25891Y-13424D01*
X25891Y-13461D01*
X25872Y-13517D01*
X25647Y-13742D01*
X25891Y-13742D01*
G54D22*
X33212Y-09846D02*
X33193Y-09865D01*
X33137Y-09883D01*
X33099Y-09883D01*
X33043Y-09865D01*
X33006Y-09827D01*
X32987Y-09790D01*
X32968Y-09715D01*
X32968Y-09658D01*
X32987Y-09583D01*
X33006Y-09546D01*
X33043Y-09508D01*
X33099Y-09489D01*
X33137Y-09489D01*
X33193Y-09508D01*
X33212Y-09527D01*
X33587Y-09883D02*
X33362Y-09883D01*
X33475Y-09883D02*
X33475Y-09489D01*
X33437Y-09546D01*
X33400Y-09583D01*
X33362Y-09602D01*
X33812Y-09658D02*
X33775Y-09640D01*
X33756Y-09621D01*
X33737Y-09583D01*
X33737Y-09565D01*
X33756Y-09527D01*
X33775Y-09508D01*
X33812Y-09489D01*
X33887Y-09489D01*
X33925Y-09508D01*
X33943Y-09527D01*
X33962Y-09565D01*
X33962Y-09583D01*
X33943Y-09621D01*
X33925Y-09640D01*
X33887Y-09658D01*
X33812Y-09658D01*
X33775Y-09677D01*
X33756Y-09696D01*
X33737Y-09733D01*
X33737Y-09808D01*
X33756Y-09846D01*
X33775Y-09865D01*
X33812Y-09883D01*
X33887Y-09883D01*
X33925Y-09865D01*
X33943Y-09846D01*
X33962Y-09808D01*
X33962Y-09733D01*
X33943Y-09696D01*
X33925Y-09677D01*
X33887Y-09658D01*
G54D17*
X47184Y-07981D02*
X47155Y-08009D01*
X47069Y-08038D01*
X47012Y-08038D01*
X46927Y-08009D01*
X46869Y-07952D01*
X46841Y-07895D01*
X46812Y-07781D01*
X46812Y-07695D01*
X46841Y-07581D01*
X46869Y-07524D01*
X46927Y-07466D01*
X47012Y-07438D01*
X47069Y-07438D01*
X47155Y-07466D01*
X47184Y-07495D01*
X47384Y-07438D02*
X47755Y-07438D01*
X47555Y-07666D01*
X47641Y-07666D01*
X47698Y-07695D01*
X47727Y-07724D01*
X47755Y-07781D01*
X47755Y-07924D01*
X47727Y-07981D01*
X47698Y-08009D01*
X47641Y-08038D01*
X47469Y-08038D01*
X47412Y-08009D01*
X47384Y-07981D01*
G54D14*
X39867Y-13584D02*
X39867Y-13190D01*
X39961Y-13190D01*
X40017Y-13209D01*
X40054Y-13247D01*
X40073Y-13284D01*
X40092Y-13359D01*
X40092Y-13416D01*
X40073Y-13491D01*
X40054Y-13528D01*
X40017Y-13566D01*
X39961Y-13584D01*
X39867Y-13584D01*
X40223Y-13190D02*
X40467Y-13190D01*
X40336Y-13341D01*
X40392Y-13341D01*
X40430Y-13359D01*
X40448Y-13378D01*
X40467Y-13416D01*
X40467Y-13509D01*
X40448Y-13547D01*
X40430Y-13566D01*
X40392Y-13584D01*
X40280Y-13584D01*
X40242Y-13566D01*
X40223Y-13547D01*
G54D22*
X46112Y-11377D02*
X46082Y-11362D01*
X46052Y-11332D01*
X46007Y-11287D01*
X45977Y-11272D01*
X45947Y-11272D01*
X45962Y-11347D02*
X45932Y-11332D01*
X45902Y-11302D01*
X45887Y-11242D01*
X45887Y-11137D01*
X45902Y-11077D01*
X45932Y-11047D01*
X45962Y-11032D01*
X46022Y-11032D01*
X46052Y-11047D01*
X46082Y-11077D01*
X46097Y-11137D01*
X46097Y-11242D01*
X46082Y-11302D01*
X46052Y-11332D01*
X46022Y-11347D01*
X45962Y-11347D01*
X46217Y-11062D02*
X46232Y-11047D01*
X46262Y-11032D01*
X46337Y-11032D01*
X46367Y-11047D01*
X46382Y-11062D01*
X46397Y-11092D01*
X46397Y-11122D01*
X46382Y-11167D01*
X46202Y-11347D01*
X46397Y-11347D01*
X07771Y-16734D02*
X07771Y-17053D01*
X07790Y-17091D01*
X07808Y-17110D01*
X07846Y-17128D01*
X07921Y-17128D01*
X07958Y-17110D01*
X07977Y-17091D01*
X07996Y-17053D01*
X07996Y-16734D01*
X08390Y-17128D02*
X08165Y-17128D01*
X08278Y-17128D02*
X08278Y-16734D01*
X08240Y-16791D01*
X08203Y-16828D01*
X08165Y-16847D01*
X45946Y-14670D02*
X46265Y-14670D01*
X46303Y-14651D01*
X46322Y-14633D01*
X46340Y-14595D01*
X46340Y-14520D01*
X46322Y-14483D01*
X46303Y-14464D01*
X46265Y-14445D01*
X45946Y-14445D01*
X46078Y-14088D02*
X46340Y-14088D01*
X45928Y-14182D02*
X46209Y-14276D01*
X46209Y-14032D01*
X28716Y-13545D02*
X28716Y-13864D01*
X28735Y-13902D01*
X28753Y-13921D01*
X28791Y-13939D01*
X28866Y-13939D01*
X28903Y-13921D01*
X28922Y-13902D01*
X28941Y-13864D01*
X28941Y-13545D01*
X29316Y-13545D02*
X29129Y-13545D01*
X29110Y-13733D01*
X29129Y-13714D01*
X29166Y-13696D01*
X29260Y-13696D01*
X29298Y-13714D01*
X29316Y-13733D01*
X29335Y-13771D01*
X29335Y-13864D01*
X29316Y-13902D01*
X29298Y-13921D01*
X29260Y-13939D01*
X29166Y-13939D01*
X29129Y-13921D01*
X29110Y-13902D01*
G54D14*
X40710Y-18725D02*
X41029Y-18725D01*
X41067Y-18706D01*
X41086Y-18688D01*
X41104Y-18650D01*
X41104Y-18575D01*
X41086Y-18538D01*
X41067Y-18519D01*
X41029Y-18500D01*
X40710Y-18500D01*
X40710Y-18350D02*
X40710Y-18087D01*
X41104Y-18256D01*
G54D11*
X21611Y-19017D02*
X21742Y-19411D01*
X21873Y-19017D01*
X22230Y-19411D02*
X22099Y-19224D01*
X22005Y-19411D02*
X22005Y-19017D01*
X22155Y-19017D01*
X22192Y-19036D01*
X22211Y-19055D01*
X22230Y-19093D01*
X22230Y-19149D01*
X22211Y-19186D01*
X22192Y-19205D01*
X22155Y-19224D01*
X22005Y-19224D01*
X22605Y-19411D02*
X22380Y-19411D01*
X22493Y-19411D02*
X22493Y-19017D01*
X22455Y-19074D01*
X22418Y-19111D01*
X22380Y-19130D01*
X01060Y-03111D02*
X01191Y-03505D01*
X01322Y-03111D01*
X01679Y-03505D02*
X01548Y-03318D01*
X01454Y-03505D02*
X01454Y-03111D01*
X01604Y-03111D01*
X01641Y-03130D01*
X01660Y-03149D01*
X01679Y-03187D01*
X01679Y-03243D01*
X01660Y-03280D01*
X01641Y-03299D01*
X01604Y-03318D01*
X01454Y-03318D01*
X01829Y-03149D02*
X01848Y-03130D01*
X01885Y-03111D01*
X01979Y-03111D01*
X02017Y-03130D01*
X02035Y-03149D01*
X02054Y-03187D01*
X02054Y-03224D01*
X02035Y-03280D01*
X01810Y-03505D01*
X02054Y-03505D01*
G54D23*
X14026Y-11926D02*
X14026Y-12412D01*
X14045Y-12469D01*
X14064Y-12497D01*
X14102Y-12526D01*
X14179Y-12526D01*
X14217Y-12497D01*
X14236Y-12469D01*
X14255Y-12412D01*
X14255Y-11926D01*
X14617Y-11926D02*
X14540Y-11926D01*
X14502Y-11954D01*
X14483Y-11983D01*
X14445Y-12069D01*
X14426Y-12183D01*
X14426Y-12412D01*
X14445Y-12469D01*
X14464Y-12497D01*
X14502Y-12526D01*
X14579Y-12526D01*
X14617Y-12497D01*
X14636Y-12469D01*
X14655Y-12412D01*
X14655Y-12269D01*
X14636Y-12212D01*
X14617Y-12183D01*
X14579Y-12154D01*
X14502Y-12154D01*
X14464Y-12183D01*
X14445Y-12212D01*
X14426Y-12269D01*
G54D11*
X19554Y-05159D02*
X19554Y-05441D01*
X19536Y-05497D01*
X19498Y-05535D01*
X19442Y-05553D01*
X19404Y-05553D01*
X19929Y-05159D02*
X19742Y-05159D01*
X19723Y-05347D01*
X19742Y-05328D01*
X19779Y-05310D01*
X19873Y-05310D01*
X19911Y-05328D01*
X19929Y-05347D01*
X19948Y-05385D01*
X19948Y-05478D01*
X19929Y-05516D01*
X19911Y-05535D01*
X19873Y-05553D01*
X19779Y-05553D01*
X19742Y-05535D01*
X19723Y-05516D01*
X25499Y-05159D02*
X25499Y-05441D01*
X25481Y-05497D01*
X25443Y-05535D01*
X25387Y-05553D01*
X25349Y-05553D01*
X25856Y-05291D02*
X25856Y-05553D01*
X25762Y-05141D02*
X25668Y-05422D01*
X25912Y-05422D01*
X08269Y-06196D02*
X08269Y-05971D01*
X08663Y-06084D02*
X08269Y-06084D01*
X08269Y-05878D02*
X08663Y-05615D01*
X08269Y-05615D02*
X08663Y-05878D01*
X08663Y-05259D02*
X08663Y-05484D01*
X08663Y-05371D02*
X08269Y-05371D01*
X08326Y-05409D01*
X08363Y-05446D01*
X08382Y-05484D01*
G54D10*
X03393Y-15911D02*
X03757Y-15911D01*
X03800Y-15889D01*
X03822Y-15868D01*
X03843Y-15825D01*
X03843Y-15739D01*
X03822Y-15697D01*
X03800Y-15675D01*
X03757Y-15654D01*
X03393Y-15654D01*
X03843Y-15204D02*
X03843Y-15461D01*
X03843Y-15333D02*
X03393Y-15333D01*
X03457Y-15376D01*
X03500Y-15418D01*
X03522Y-15461D01*
X03543Y-14818D02*
X03843Y-14818D01*
X03372Y-14925D02*
X03693Y-15032D01*
X03693Y-14754D01*
X48178Y-03468D02*
X48157Y-03511D01*
X48114Y-03554D01*
X48049Y-03618D01*
X48028Y-03661D01*
X48028Y-03704D01*
X48135Y-03682D02*
X48114Y-03725D01*
X48071Y-03768D01*
X47985Y-03789D01*
X47835Y-03789D01*
X47749Y-03768D01*
X47707Y-03725D01*
X47685Y-03682D01*
X47685Y-03596D01*
X47707Y-03554D01*
X47749Y-03511D01*
X47835Y-03489D01*
X47985Y-03489D01*
X48071Y-03511D01*
X48114Y-03554D01*
X48135Y-03596D01*
X48135Y-03682D01*
X48135Y-03061D02*
X48135Y-03318D01*
X48135Y-03190D02*
X47685Y-03190D01*
X47749Y-03233D01*
X47792Y-03275D01*
X47814Y-03318D01*
X43948Y-10480D02*
X43948Y-10844D01*
X43970Y-10887D01*
X43991Y-10909D01*
X44034Y-10930D01*
X44120Y-10930D01*
X44162Y-10909D01*
X44184Y-10887D01*
X44205Y-10844D01*
X44205Y-10480D01*
X44376Y-10480D02*
X44655Y-10480D01*
X44505Y-10652D01*
X44569Y-10652D01*
X44612Y-10673D01*
X44633Y-10694D01*
X44655Y-10737D01*
X44655Y-10844D01*
X44633Y-10887D01*
X44612Y-10909D01*
X44569Y-10930D01*
X44441Y-10930D01*
X44398Y-10909D01*
X44376Y-10887D01*
G54D11*
X38033Y-09896D02*
X38352Y-09896D01*
X38390Y-09877D01*
X38409Y-09859D01*
X38427Y-09821D01*
X38427Y-09746D01*
X38409Y-09709D01*
X38390Y-09690D01*
X38352Y-09671D01*
X38033Y-09671D01*
X38427Y-09277D02*
X38427Y-09502D01*
X38427Y-09389D02*
X38033Y-09389D01*
X38090Y-09427D01*
X38127Y-09464D01*
X38146Y-09502D01*
X38033Y-09033D02*
X38033Y-08996D01*
X38052Y-08958D01*
X38071Y-08939D01*
X38109Y-08921D01*
X38184Y-08902D01*
X38277Y-08902D01*
X38352Y-08921D01*
X38390Y-08939D01*
X38409Y-08958D01*
X38427Y-08996D01*
X38427Y-09033D01*
X38409Y-09071D01*
X38390Y-09089D01*
X38352Y-09108D01*
X38277Y-09127D01*
X38184Y-09127D01*
X38109Y-09108D01*
X38071Y-09089D01*
X38052Y-09071D01*
X38033Y-09033D01*
X14598Y-18009D02*
X14598Y-18367D01*
X14574Y-18438D01*
X14526Y-18486D01*
X14455Y-18509D01*
X14407Y-18509D01*
X15050Y-18009D02*
X14955Y-18009D01*
X14907Y-18033D01*
X14884Y-18057D01*
X14836Y-18128D01*
X14812Y-18224D01*
X14812Y-18414D01*
X14836Y-18462D01*
X14860Y-18486D01*
X14907Y-18509D01*
X15003Y-18509D01*
X15050Y-18486D01*
X15074Y-18462D01*
X15098Y-18414D01*
X15098Y-18295D01*
X15074Y-18247D01*
X15050Y-18224D01*
X15003Y-18200D01*
X14907Y-18200D01*
X14860Y-18224D01*
X14836Y-18247D01*
X14812Y-18295D01*
X01238Y-11977D02*
X01596Y-11977D01*
X01667Y-12001D01*
X01715Y-12049D01*
X01738Y-12120D01*
X01738Y-12168D01*
X01238Y-11787D02*
X01238Y-11453D01*
X01738Y-11668D01*
G54D21*
X24274Y-16947D02*
X24274Y-17190D01*
X24289Y-17219D01*
X24303Y-17233D01*
X24332Y-17247D01*
X24389Y-17247D01*
X24417Y-17233D01*
X24432Y-17219D01*
X24446Y-17190D01*
X24446Y-16947D01*
X24746Y-17247D02*
X24574Y-17247D01*
X24660Y-17247D02*
X24660Y-16947D01*
X24631Y-16990D01*
X24603Y-17019D01*
X24574Y-17033D01*
X24846Y-16947D02*
X25032Y-16947D01*
X24932Y-17062D01*
X24974Y-17062D01*
X25003Y-17076D01*
X25017Y-17090D01*
X25032Y-17119D01*
X25032Y-17190D01*
X25017Y-17219D01*
X25003Y-17233D01*
X24974Y-17247D01*
X24889Y-17247D01*
X24860Y-17233D01*
X24846Y-17219D01*
G54D11*
X26067Y-06592D02*
X26086Y-06611D01*
X26104Y-06667D01*
X26104Y-06705D01*
X26086Y-06761D01*
X26048Y-06798D01*
X26011Y-06817D01*
X25936Y-06836D01*
X25879Y-06836D01*
X25804Y-06817D01*
X25767Y-06798D01*
X25729Y-06761D01*
X25710Y-06705D01*
X25710Y-06667D01*
X25729Y-06611D01*
X25748Y-06592D01*
X25710Y-06236D02*
X25710Y-06423D01*
X25898Y-06442D01*
X25879Y-06423D01*
X25861Y-06386D01*
X25861Y-06292D01*
X25879Y-06254D01*
X25898Y-06236D01*
X25936Y-06217D01*
X26029Y-06217D01*
X26067Y-06236D01*
X26086Y-06254D01*
X26104Y-06292D01*
X26104Y-06386D01*
X26086Y-06423D01*
X26067Y-06442D01*
X26104Y-05842D02*
X26104Y-06067D01*
X26104Y-05954D02*
X25710Y-05954D01*
X25767Y-05992D01*
X25804Y-06029D01*
X25823Y-06067D01*
X19413Y-06749D02*
X19432Y-06768D01*
X19450Y-06824D01*
X19450Y-06862D01*
X19432Y-06918D01*
X19394Y-06955D01*
X19357Y-06974D01*
X19282Y-06993D01*
X19225Y-06993D01*
X19150Y-06974D01*
X19113Y-06955D01*
X19075Y-06918D01*
X19056Y-06862D01*
X19056Y-06824D01*
X19075Y-06768D01*
X19094Y-06749D01*
X19056Y-06393D02*
X19056Y-06580D01*
X19244Y-06599D01*
X19225Y-06580D01*
X19207Y-06543D01*
X19207Y-06449D01*
X19225Y-06411D01*
X19244Y-06393D01*
X19282Y-06374D01*
X19375Y-06374D01*
X19413Y-06393D01*
X19432Y-06411D01*
X19450Y-06449D01*
X19450Y-06543D01*
X19432Y-06580D01*
X19413Y-06599D01*
X19094Y-06224D02*
X19075Y-06205D01*
X19056Y-06168D01*
X19056Y-06074D01*
X19075Y-06036D01*
X19094Y-06018D01*
X19132Y-05999D01*
X19169Y-05999D01*
X19225Y-06018D01*
X19450Y-06243D01*
X19450Y-05999D01*
G54D14*
X32782Y-07381D02*
X32767Y-07396D01*
X32721Y-07412D01*
X32691Y-07412D01*
X32646Y-07396D01*
X32615Y-07366D01*
X32600Y-07336D01*
X32585Y-07275D01*
X32585Y-07229D01*
X32600Y-07169D01*
X32615Y-07138D01*
X32646Y-07108D01*
X32691Y-07093D01*
X32721Y-07093D01*
X32767Y-07108D01*
X32782Y-07123D01*
X32889Y-07093D02*
X33101Y-07093D01*
X32965Y-07412D01*
X06988Y-15048D02*
X07003Y-15063D01*
X07019Y-15109D01*
X07019Y-15139D01*
X07003Y-15184D01*
X06973Y-15215D01*
X06943Y-15230D01*
X06882Y-15245D01*
X06836Y-15245D01*
X06776Y-15230D01*
X06745Y-15215D01*
X06715Y-15184D01*
X06700Y-15139D01*
X06700Y-15109D01*
X06715Y-15063D01*
X06730Y-15048D01*
X06700Y-14774D02*
X06700Y-14835D01*
X06715Y-14865D01*
X06730Y-14881D01*
X06776Y-14911D01*
X06836Y-14926D01*
X06958Y-14926D01*
X06988Y-14911D01*
X07003Y-14896D01*
X07019Y-14865D01*
X07019Y-14805D01*
X07003Y-14774D01*
X06988Y-14759D01*
X06958Y-14744D01*
X06882Y-14744D01*
X06852Y-14759D01*
X06836Y-14774D01*
X06821Y-14805D01*
X06821Y-14865D01*
X06836Y-14896D01*
X06852Y-14911D01*
X06882Y-14926D01*
X07019Y-14592D02*
X07019Y-14531D01*
X07003Y-14501D01*
X06988Y-14486D01*
X06943Y-14455D01*
X06882Y-14440D01*
X06760Y-14440D01*
X06730Y-14455D01*
X06715Y-14470D01*
X06700Y-14501D01*
X06700Y-14561D01*
X06715Y-14592D01*
X06730Y-14607D01*
X06760Y-14622D01*
X06836Y-14622D01*
X06867Y-14607D01*
X06882Y-14592D01*
X06897Y-14561D01*
X06897Y-14501D01*
X06882Y-14470D01*
X06867Y-14455D01*
X06836Y-14440D01*
X30976Y-15846D02*
X30961Y-15861D01*
X30915Y-15877D01*
X30885Y-15877D01*
X30840Y-15861D01*
X30809Y-15831D01*
X30794Y-15801D01*
X30779Y-15740D01*
X30779Y-15694D01*
X30794Y-15634D01*
X30809Y-15603D01*
X30840Y-15573D01*
X30885Y-15558D01*
X30915Y-15558D01*
X30961Y-15573D01*
X30976Y-15588D01*
X31250Y-15558D02*
X31189Y-15558D01*
X31159Y-15573D01*
X31143Y-15588D01*
X31113Y-15634D01*
X31098Y-15694D01*
X31098Y-15816D01*
X31113Y-15846D01*
X31128Y-15861D01*
X31159Y-15877D01*
X31219Y-15877D01*
X31250Y-15861D01*
X31265Y-15846D01*
X31280Y-15816D01*
X31280Y-15740D01*
X31265Y-15710D01*
X31250Y-15694D01*
X31219Y-15679D01*
X31159Y-15679D01*
X31128Y-15694D01*
X31113Y-15710D01*
X31098Y-15740D01*
X31387Y-15558D02*
X31599Y-15558D01*
X31463Y-15877D01*
X26055Y-15452D02*
X26040Y-15467D01*
X25994Y-15483D01*
X25964Y-15483D01*
X25919Y-15467D01*
X25888Y-15437D01*
X25873Y-15407D01*
X25858Y-15346D01*
X25858Y-15300D01*
X25873Y-15240D01*
X25888Y-15209D01*
X25919Y-15179D01*
X25964Y-15164D01*
X25994Y-15164D01*
X26040Y-15179D01*
X26055Y-15194D01*
X26329Y-15164D02*
X26268Y-15164D01*
X26238Y-15179D01*
X26222Y-15194D01*
X26192Y-15240D01*
X26177Y-15300D01*
X26177Y-15422D01*
X26192Y-15452D01*
X26207Y-15467D01*
X26238Y-15483D01*
X26298Y-15483D01*
X26329Y-15467D01*
X26344Y-15452D01*
X26359Y-15422D01*
X26359Y-15346D01*
X26344Y-15316D01*
X26329Y-15300D01*
X26298Y-15285D01*
X26238Y-15285D01*
X26207Y-15300D01*
X26192Y-15316D01*
X26177Y-15346D01*
X26648Y-15164D02*
X26496Y-15164D01*
X26481Y-15316D01*
X26496Y-15300D01*
X26526Y-15285D01*
X26602Y-15285D01*
X26633Y-15300D01*
X26648Y-15316D01*
X26663Y-15346D01*
X26663Y-15422D01*
X26648Y-15452D01*
X26633Y-15467D01*
X26602Y-15483D01*
X26526Y-15483D01*
X26496Y-15467D01*
X26481Y-15452D01*
X41567Y-07578D02*
X41552Y-07593D01*
X41506Y-07609D01*
X41476Y-07609D01*
X41431Y-07593D01*
X41400Y-07563D01*
X41385Y-07533D01*
X41370Y-07472D01*
X41370Y-07426D01*
X41385Y-07366D01*
X41400Y-07335D01*
X41431Y-07305D01*
X41476Y-07290D01*
X41506Y-07290D01*
X41552Y-07305D01*
X41567Y-07320D01*
X41841Y-07290D02*
X41780Y-07290D01*
X41750Y-07305D01*
X41734Y-07320D01*
X41704Y-07366D01*
X41689Y-07426D01*
X41689Y-07548D01*
X41704Y-07578D01*
X41719Y-07593D01*
X41750Y-07609D01*
X41810Y-07609D01*
X41841Y-07593D01*
X41856Y-07578D01*
X41871Y-07548D01*
X41871Y-07472D01*
X41856Y-07442D01*
X41841Y-07426D01*
X41810Y-07411D01*
X41750Y-07411D01*
X41719Y-07426D01*
X41704Y-07442D01*
X41689Y-07472D01*
X41978Y-07290D02*
X42175Y-07290D01*
X42069Y-07411D01*
X42114Y-07411D01*
X42145Y-07426D01*
X42160Y-07442D01*
X42175Y-07472D01*
X42175Y-07548D01*
X42160Y-07578D01*
X42145Y-07593D01*
X42114Y-07609D01*
X42023Y-07609D01*
X41993Y-07593D01*
X41978Y-07578D01*
X38248Y-14575D02*
X38263Y-14590D01*
X38279Y-14636D01*
X38279Y-14666D01*
X38263Y-14711D01*
X38233Y-14742D01*
X38203Y-14757D01*
X38142Y-14772D01*
X38096Y-14772D01*
X38036Y-14757D01*
X38005Y-14742D01*
X37975Y-14711D01*
X37960Y-14666D01*
X37960Y-14636D01*
X37975Y-14590D01*
X37990Y-14575D01*
X37960Y-14301D02*
X37960Y-14362D01*
X37975Y-14392D01*
X37990Y-14408D01*
X38036Y-14438D01*
X38096Y-14453D01*
X38218Y-14453D01*
X38248Y-14438D01*
X38263Y-14423D01*
X38279Y-14392D01*
X38279Y-14332D01*
X38263Y-14301D01*
X38248Y-14286D01*
X38218Y-14271D01*
X38142Y-14271D01*
X38112Y-14286D01*
X38096Y-14301D01*
X38081Y-14332D01*
X38081Y-14392D01*
X38096Y-14423D01*
X38112Y-14438D01*
X38142Y-14453D01*
X37990Y-14149D02*
X37975Y-14134D01*
X37960Y-14104D01*
X37960Y-14028D01*
X37975Y-13997D01*
X37990Y-13982D01*
X38020Y-13967D01*
X38051Y-13967D01*
X38096Y-13982D01*
X38279Y-14164D01*
X38279Y-13967D01*
X28850Y-15452D02*
X28835Y-15467D01*
X28789Y-15483D01*
X28759Y-15483D01*
X28714Y-15467D01*
X28683Y-15437D01*
X28668Y-15407D01*
X28653Y-15346D01*
X28653Y-15300D01*
X28668Y-15240D01*
X28683Y-15209D01*
X28714Y-15179D01*
X28759Y-15164D01*
X28789Y-15164D01*
X28835Y-15179D01*
X28850Y-15194D01*
X29124Y-15164D02*
X29063Y-15164D01*
X29033Y-15179D01*
X29017Y-15194D01*
X28987Y-15240D01*
X28972Y-15300D01*
X28972Y-15422D01*
X28987Y-15452D01*
X29002Y-15467D01*
X29033Y-15483D01*
X29093Y-15483D01*
X29124Y-15467D01*
X29139Y-15452D01*
X29154Y-15422D01*
X29154Y-15346D01*
X29139Y-15316D01*
X29124Y-15300D01*
X29093Y-15285D01*
X29033Y-15285D01*
X29002Y-15300D01*
X28987Y-15316D01*
X28972Y-15346D01*
X29458Y-15483D02*
X29276Y-15483D01*
X29367Y-15483D02*
X29367Y-15164D01*
X29337Y-15209D01*
X29306Y-15240D01*
X29276Y-15255D01*
X24008Y-19468D02*
X23993Y-19483D01*
X23947Y-19499D01*
X23917Y-19499D01*
X23872Y-19483D01*
X23841Y-19453D01*
X23826Y-19423D01*
X23811Y-19362D01*
X23811Y-19316D01*
X23826Y-19256D01*
X23841Y-19225D01*
X23872Y-19195D01*
X23917Y-19180D01*
X23947Y-19180D01*
X23993Y-19195D01*
X24008Y-19210D01*
X24297Y-19180D02*
X24145Y-19180D01*
X24130Y-19332D01*
X24145Y-19316D01*
X24175Y-19301D01*
X24251Y-19301D01*
X24282Y-19316D01*
X24297Y-19332D01*
X24312Y-19362D01*
X24312Y-19438D01*
X24297Y-19468D01*
X24282Y-19483D01*
X24251Y-19499D01*
X24175Y-19499D01*
X24145Y-19483D01*
X24130Y-19468D01*
X24601Y-19180D02*
X24449Y-19180D01*
X24434Y-19332D01*
X24449Y-19316D01*
X24479Y-19301D01*
X24555Y-19301D01*
X24586Y-19316D01*
X24601Y-19332D01*
X24616Y-19362D01*
X24616Y-19438D01*
X24601Y-19468D01*
X24586Y-19483D01*
X24555Y-19499D01*
X24479Y-19499D01*
X24449Y-19483D01*
X24434Y-19468D01*
X22775Y-06977D02*
X22790Y-06992D01*
X22806Y-07038D01*
X22806Y-07068D01*
X22790Y-07113D01*
X22760Y-07144D01*
X22730Y-07159D01*
X22669Y-07174D01*
X22623Y-07174D01*
X22563Y-07159D01*
X22532Y-07144D01*
X22502Y-07113D01*
X22487Y-07068D01*
X22487Y-07038D01*
X22502Y-06992D01*
X22517Y-06977D01*
X22593Y-06703D02*
X22806Y-06703D01*
X22471Y-06779D02*
X22699Y-06855D01*
X22699Y-06658D01*
X22806Y-06521D02*
X22806Y-06460D01*
X22790Y-06430D01*
X22775Y-06415D01*
X22730Y-06384D01*
X22669Y-06369D01*
X22547Y-06369D01*
X22517Y-06384D01*
X22502Y-06399D01*
X22487Y-06430D01*
X22487Y-06490D01*
X22502Y-06521D01*
X22517Y-06536D01*
X22547Y-06551D01*
X22623Y-06551D01*
X22654Y-06536D01*
X22669Y-06521D01*
X22684Y-06490D01*
X22684Y-06430D01*
X22669Y-06399D01*
X22654Y-06384D01*
X22623Y-06369D01*
X22145Y-06977D02*
X22160Y-06992D01*
X22176Y-07038D01*
X22176Y-07068D01*
X22160Y-07113D01*
X22130Y-07144D01*
X22100Y-07159D01*
X22039Y-07174D01*
X21993Y-07174D01*
X21933Y-07159D01*
X21902Y-07144D01*
X21872Y-07113D01*
X21857Y-07068D01*
X21857Y-07038D01*
X21872Y-06992D01*
X21887Y-06977D01*
X21963Y-06703D02*
X22176Y-06703D01*
X21841Y-06779D02*
X22069Y-06855D01*
X22069Y-06658D01*
X21993Y-06490D02*
X21978Y-06521D01*
X21963Y-06536D01*
X21933Y-06551D01*
X21917Y-06551D01*
X21887Y-06536D01*
X21872Y-06521D01*
X21857Y-06490D01*
X21857Y-06430D01*
X21872Y-06399D01*
X21887Y-06384D01*
X21917Y-06369D01*
X21933Y-06369D01*
X21963Y-06384D01*
X21978Y-06399D01*
X21993Y-06430D01*
X21993Y-06490D01*
X22009Y-06521D01*
X22024Y-06536D01*
X22054Y-06551D01*
X22115Y-06551D01*
X22145Y-06536D01*
X22160Y-06521D01*
X22176Y-06490D01*
X22176Y-06430D01*
X22160Y-06399D01*
X22145Y-06384D01*
X22115Y-06369D01*
X22054Y-06369D01*
X22024Y-06384D01*
X22009Y-06399D01*
X21993Y-06430D01*
G54D22*
X22487Y-13879D02*
X22501Y-13892D01*
X22514Y-13931D01*
X22514Y-13957D01*
X22501Y-13997D01*
X22474Y-14023D01*
X22448Y-14036D01*
X22395Y-14049D01*
X22356Y-14049D01*
X22303Y-14036D01*
X22277Y-14023D01*
X22251Y-13997D01*
X22238Y-13957D01*
X22238Y-13931D01*
X22251Y-13892D01*
X22264Y-13879D01*
X22330Y-13642D02*
X22514Y-13642D01*
X22225Y-13708D02*
X22422Y-13773D01*
X22422Y-13603D01*
X22238Y-13379D02*
X22238Y-13432D01*
X22251Y-13458D01*
X22264Y-13471D01*
X22303Y-13497D01*
X22356Y-13510D01*
X22461Y-13510D01*
X22487Y-13497D01*
X22501Y-13484D01*
X22514Y-13458D01*
X22514Y-13405D01*
X22501Y-13379D01*
X22487Y-13366D01*
X22461Y-13353D01*
X22395Y-13353D01*
X22369Y-13366D01*
X22356Y-13379D01*
X22343Y-13405D01*
X22343Y-13458D01*
X22356Y-13484D01*
X22369Y-13497D01*
X22395Y-13510D01*
G54D14*
X21909Y-13985D02*
X21924Y-14000D01*
X21940Y-14046D01*
X21940Y-14076D01*
X21924Y-14121D01*
X21894Y-14152D01*
X21864Y-14167D01*
X21803Y-14182D01*
X21757Y-14182D01*
X21697Y-14167D01*
X21666Y-14152D01*
X21636Y-14121D01*
X21621Y-14076D01*
X21621Y-14046D01*
X21636Y-14000D01*
X21651Y-13985D01*
X21727Y-13711D02*
X21940Y-13711D01*
X21605Y-13787D02*
X21833Y-13863D01*
X21833Y-13666D01*
X21621Y-13392D02*
X21621Y-13544D01*
X21773Y-13559D01*
X21757Y-13544D01*
X21742Y-13514D01*
X21742Y-13438D01*
X21757Y-13407D01*
X21773Y-13392D01*
X21803Y-13377D01*
X21879Y-13377D01*
X21909Y-13392D01*
X21924Y-13407D01*
X21940Y-13438D01*
X21940Y-13514D01*
X21924Y-13544D01*
X21909Y-13559D01*
X32551Y-08366D02*
X32536Y-08381D01*
X32490Y-08397D01*
X32460Y-08397D01*
X32415Y-08381D01*
X32384Y-08351D01*
X32369Y-08321D01*
X32354Y-08260D01*
X32354Y-08214D01*
X32369Y-08154D01*
X32384Y-08123D01*
X32415Y-08093D01*
X32460Y-08078D01*
X32490Y-08078D01*
X32536Y-08093D01*
X32551Y-08108D01*
X32825Y-08184D02*
X32825Y-08397D01*
X32749Y-08062D02*
X32673Y-08290D01*
X32870Y-08290D01*
X33129Y-08184D02*
X33129Y-08397D01*
X33053Y-08062D02*
X32977Y-08290D01*
X33174Y-08290D01*
X20649Y-14024D02*
X20664Y-14039D01*
X20680Y-14085D01*
X20680Y-14115D01*
X20664Y-14160D01*
X20634Y-14191D01*
X20604Y-14206D01*
X20543Y-14221D01*
X20497Y-14221D01*
X20437Y-14206D01*
X20406Y-14191D01*
X20376Y-14160D01*
X20361Y-14115D01*
X20361Y-14085D01*
X20376Y-14039D01*
X20391Y-14024D01*
X20467Y-13750D02*
X20680Y-13750D01*
X20345Y-13826D02*
X20573Y-13902D01*
X20573Y-13705D01*
X20361Y-13613D02*
X20361Y-13416D01*
X20482Y-13522D01*
X20482Y-13477D01*
X20497Y-13446D01*
X20513Y-13431D01*
X20543Y-13416D01*
X20619Y-13416D01*
X20649Y-13431D01*
X20664Y-13446D01*
X20680Y-13477D01*
X20680Y-13568D01*
X20664Y-13598D01*
X20649Y-13613D01*
X20255Y-11229D02*
X20270Y-11244D01*
X20286Y-11290D01*
X20286Y-11320D01*
X20270Y-11365D01*
X20240Y-11396D01*
X20210Y-11411D01*
X20149Y-11426D01*
X20103Y-11426D01*
X20043Y-11411D01*
X20012Y-11396D01*
X19982Y-11365D01*
X19967Y-11320D01*
X19967Y-11290D01*
X19982Y-11244D01*
X19997Y-11229D01*
X20073Y-10955D02*
X20286Y-10955D01*
X19951Y-11031D02*
X20179Y-11107D01*
X20179Y-10910D01*
X19997Y-10803D02*
X19982Y-10788D01*
X19967Y-10758D01*
X19967Y-10682D01*
X19982Y-10651D01*
X19997Y-10636D01*
X20027Y-10621D01*
X20058Y-10621D01*
X20103Y-10636D01*
X20286Y-10818D01*
X20286Y-10621D01*
X37893Y-08079D02*
X37908Y-08094D01*
X37924Y-08140D01*
X37924Y-08170D01*
X37908Y-08215D01*
X37878Y-08246D01*
X37848Y-08261D01*
X37787Y-08276D01*
X37741Y-08276D01*
X37681Y-08261D01*
X37650Y-08246D01*
X37620Y-08215D01*
X37605Y-08170D01*
X37605Y-08140D01*
X37620Y-08094D01*
X37635Y-08079D01*
X37711Y-07805D02*
X37924Y-07805D01*
X37589Y-07881D02*
X37817Y-07957D01*
X37817Y-07760D01*
X37924Y-07471D02*
X37924Y-07653D01*
X37924Y-07562D02*
X37605Y-07562D01*
X37650Y-07592D01*
X37681Y-07623D01*
X37696Y-07653D01*
X36960Y-07381D02*
X36945Y-07396D01*
X36899Y-07412D01*
X36869Y-07412D01*
X36824Y-07396D01*
X36793Y-07366D01*
X36778Y-07336D01*
X36763Y-07275D01*
X36763Y-07229D01*
X36778Y-07169D01*
X36793Y-07138D01*
X36824Y-07108D01*
X36869Y-07093D01*
X36899Y-07093D01*
X36945Y-07108D01*
X36960Y-07123D01*
X37234Y-07199D02*
X37234Y-07412D01*
X37158Y-07077D02*
X37082Y-07305D01*
X37279Y-07305D01*
X37462Y-07093D02*
X37492Y-07093D01*
X37522Y-07108D01*
X37538Y-07123D01*
X37553Y-07153D01*
X37568Y-07214D01*
X37568Y-07290D01*
X37553Y-07351D01*
X37538Y-07381D01*
X37522Y-07396D01*
X37492Y-07412D01*
X37462Y-07412D01*
X37431Y-07396D01*
X37416Y-07381D01*
X37401Y-07351D01*
X37386Y-07290D01*
X37386Y-07214D01*
X37401Y-07153D01*
X37416Y-07123D01*
X37431Y-07108D01*
X37462Y-07093D01*
X42145Y-14575D02*
X42160Y-14590D01*
X42176Y-14636D01*
X42176Y-14666D01*
X42160Y-14711D01*
X42130Y-14742D01*
X42100Y-14757D01*
X42039Y-14772D01*
X41993Y-14772D01*
X41933Y-14757D01*
X41902Y-14742D01*
X41872Y-14711D01*
X41857Y-14666D01*
X41857Y-14636D01*
X41872Y-14590D01*
X41887Y-14575D01*
X41887Y-14453D02*
X41872Y-14438D01*
X41857Y-14408D01*
X41857Y-14332D01*
X41872Y-14301D01*
X41887Y-14286D01*
X41917Y-14271D01*
X41948Y-14271D01*
X41993Y-14286D01*
X42176Y-14468D01*
X42176Y-14271D01*
X41857Y-14164D02*
X41857Y-13967D01*
X41978Y-14073D01*
X41978Y-14028D01*
X41993Y-13997D01*
X42009Y-13982D01*
X42039Y-13967D01*
X42115Y-13967D01*
X42145Y-13982D01*
X42160Y-13997D01*
X42176Y-14028D01*
X42176Y-14119D01*
X42160Y-14149D01*
X42145Y-14164D01*
X34114Y-17292D02*
X34129Y-17307D01*
X34145Y-17353D01*
X34145Y-17383D01*
X34129Y-17428D01*
X34099Y-17459D01*
X34069Y-17474D01*
X34008Y-17489D01*
X33962Y-17489D01*
X33902Y-17474D01*
X33871Y-17459D01*
X33841Y-17428D01*
X33826Y-17383D01*
X33826Y-17353D01*
X33841Y-17307D01*
X33856Y-17292D01*
X33856Y-17170D02*
X33841Y-17155D01*
X33826Y-17125D01*
X33826Y-17049D01*
X33841Y-17018D01*
X33856Y-17003D01*
X33886Y-16988D01*
X33917Y-16988D01*
X33962Y-17003D01*
X34145Y-17185D01*
X34145Y-16988D01*
X34145Y-16684D02*
X34145Y-16866D01*
X34145Y-16775D02*
X33826Y-16775D01*
X33871Y-16805D01*
X33902Y-16836D01*
X33917Y-16866D01*
X33811Y-11830D02*
X33796Y-11845D01*
X33750Y-11861D01*
X33720Y-11861D01*
X33675Y-11845D01*
X33644Y-11815D01*
X33629Y-11785D01*
X33614Y-11724D01*
X33614Y-11678D01*
X33629Y-11618D01*
X33644Y-11587D01*
X33675Y-11557D01*
X33720Y-11542D01*
X33750Y-11542D01*
X33796Y-11557D01*
X33811Y-11572D01*
X34115Y-11861D02*
X33933Y-11861D01*
X34024Y-11861D02*
X34024Y-11542D01*
X33994Y-11587D01*
X33963Y-11618D01*
X33933Y-11633D01*
X34267Y-11861D02*
X34328Y-11861D01*
X34358Y-11845D01*
X34373Y-11830D01*
X34404Y-11785D01*
X34419Y-11724D01*
X34419Y-11602D01*
X34404Y-11572D01*
X34389Y-11557D01*
X34358Y-11542D01*
X34298Y-11542D01*
X34267Y-11557D01*
X34252Y-11572D01*
X34237Y-11602D01*
X34237Y-11678D01*
X34252Y-11709D01*
X34267Y-11724D01*
X34298Y-11739D01*
X34358Y-11739D01*
X34389Y-11724D01*
X34404Y-11709D01*
X34419Y-11678D01*
X28732Y-12696D02*
X28717Y-12711D01*
X28671Y-12727D01*
X28641Y-12727D01*
X28596Y-12711D01*
X28565Y-12681D01*
X28550Y-12651D01*
X28535Y-12590D01*
X28535Y-12544D01*
X28550Y-12484D01*
X28565Y-12453D01*
X28596Y-12423D01*
X28641Y-12408D01*
X28671Y-12408D01*
X28717Y-12423D01*
X28732Y-12438D01*
X29036Y-12727D02*
X28854Y-12727D01*
X28945Y-12727D02*
X28945Y-12408D01*
X28915Y-12453D01*
X28884Y-12484D01*
X28854Y-12499D01*
X29325Y-12408D02*
X29173Y-12408D01*
X29158Y-12560D01*
X29173Y-12544D01*
X29203Y-12529D01*
X29279Y-12529D01*
X29310Y-12544D01*
X29325Y-12560D01*
X29340Y-12590D01*
X29340Y-12666D01*
X29325Y-12696D01*
X29310Y-12711D01*
X29279Y-12727D01*
X29203Y-12727D01*
X29173Y-12711D01*
X29158Y-12696D01*
X28811Y-14862D02*
X28796Y-14877D01*
X28750Y-14893D01*
X28720Y-14893D01*
X28675Y-14877D01*
X28644Y-14847D01*
X28629Y-14817D01*
X28614Y-14756D01*
X28614Y-14710D01*
X28629Y-14650D01*
X28644Y-14619D01*
X28675Y-14589D01*
X28720Y-14574D01*
X28750Y-14574D01*
X28796Y-14589D01*
X28811Y-14604D01*
X29115Y-14893D02*
X28933Y-14893D01*
X29024Y-14893D02*
X29024Y-14574D01*
X28994Y-14619D01*
X28963Y-14650D01*
X28933Y-14665D01*
X29389Y-14680D02*
X29389Y-14893D01*
X29313Y-14558D02*
X29237Y-14786D01*
X29434Y-14786D01*
X31555Y-12882D02*
X31570Y-12897D01*
X31586Y-12943D01*
X31586Y-12973D01*
X31570Y-13018D01*
X31540Y-13049D01*
X31510Y-13064D01*
X31449Y-13079D01*
X31403Y-13079D01*
X31343Y-13064D01*
X31312Y-13049D01*
X31282Y-13018D01*
X31267Y-12973D01*
X31267Y-12943D01*
X31282Y-12897D01*
X31297Y-12882D01*
X31586Y-12578D02*
X31586Y-12760D01*
X31586Y-12669D02*
X31267Y-12669D01*
X31312Y-12699D01*
X31343Y-12730D01*
X31358Y-12760D01*
X31267Y-12380D02*
X31267Y-12350D01*
X31282Y-12320D01*
X31297Y-12304D01*
X31327Y-12289D01*
X31388Y-12274D01*
X31464Y-12274D01*
X31525Y-12289D01*
X31555Y-12304D01*
X31570Y-12320D01*
X31586Y-12350D01*
X31586Y-12380D01*
X31570Y-12411D01*
X31555Y-12426D01*
X31525Y-12441D01*
X31464Y-12456D01*
X31388Y-12456D01*
X31327Y-12441D01*
X31297Y-12426D01*
X31282Y-12411D01*
X31267Y-12380D01*
X41752Y-17415D02*
X41767Y-17430D01*
X41783Y-17476D01*
X41783Y-17506D01*
X41767Y-17551D01*
X41737Y-17582D01*
X41707Y-17597D01*
X41646Y-17612D01*
X41600Y-17612D01*
X41540Y-17597D01*
X41509Y-17582D01*
X41479Y-17551D01*
X41464Y-17506D01*
X41464Y-17476D01*
X41479Y-17430D01*
X41494Y-17415D01*
X41783Y-17263D02*
X41783Y-17202D01*
X41767Y-17172D01*
X41752Y-17157D01*
X41707Y-17126D01*
X41646Y-17111D01*
X41524Y-17111D01*
X41494Y-17126D01*
X41479Y-17141D01*
X41464Y-17172D01*
X41464Y-17232D01*
X41479Y-17263D01*
X41494Y-17278D01*
X41524Y-17293D01*
X41600Y-17293D01*
X41631Y-17278D01*
X41646Y-17263D01*
X41661Y-17232D01*
X41661Y-17172D01*
X41646Y-17141D01*
X41631Y-17126D01*
X41600Y-17111D01*
X41719Y-06909D02*
X41704Y-06924D01*
X41658Y-06940D01*
X41628Y-06940D01*
X41583Y-06924D01*
X41552Y-06894D01*
X41537Y-06864D01*
X41522Y-06803D01*
X41522Y-06757D01*
X41537Y-06697D01*
X41552Y-06666D01*
X41583Y-06636D01*
X41628Y-06621D01*
X41658Y-06621D01*
X41704Y-06636D01*
X41719Y-06651D01*
X42008Y-06621D02*
X41856Y-06621D01*
X41841Y-06773D01*
X41856Y-06757D01*
X41886Y-06742D01*
X41962Y-06742D01*
X41993Y-06757D01*
X42008Y-06773D01*
X42023Y-06803D01*
X42023Y-06879D01*
X42008Y-06909D01*
X41993Y-06924D01*
X41962Y-06940D01*
X41886Y-06940D01*
X41856Y-06924D01*
X41841Y-06909D01*
X46128Y-13484D02*
X46113Y-13499D01*
X46067Y-13515D01*
X46037Y-13515D01*
X45992Y-13499D01*
X45961Y-13469D01*
X45946Y-13439D01*
X45931Y-13378D01*
X45931Y-13332D01*
X45946Y-13272D01*
X45961Y-13241D01*
X45992Y-13211D01*
X46037Y-13196D01*
X46067Y-13196D01*
X46113Y-13211D01*
X46128Y-13226D01*
X46250Y-13226D02*
X46265Y-13211D01*
X46295Y-13196D01*
X46371Y-13196D01*
X46402Y-13211D01*
X46417Y-13226D01*
X46432Y-13256D01*
X46432Y-13287D01*
X46417Y-13332D01*
X46235Y-13515D01*
X46432Y-13515D01*
X36994Y-08200D02*
X36888Y-08048D01*
X36812Y-08200D02*
X36812Y-07881D01*
X36933Y-07881D01*
X36964Y-07896D01*
X36979Y-07911D01*
X36994Y-07941D01*
X36994Y-07987D01*
X36979Y-08017D01*
X36964Y-08033D01*
X36933Y-08048D01*
X36812Y-08048D01*
X37268Y-07987D02*
X37268Y-08200D01*
X37192Y-07865D02*
X37116Y-08093D01*
X37313Y-08093D01*
X41035Y-19266D02*
X40883Y-19372D01*
X41035Y-19448D02*
X40716Y-19448D01*
X40716Y-19327D01*
X40731Y-19296D01*
X40746Y-19281D01*
X40776Y-19266D01*
X40822Y-19266D01*
X40852Y-19281D01*
X40868Y-19296D01*
X40883Y-19327D01*
X40883Y-19448D01*
X40716Y-19159D02*
X40716Y-18962D01*
X40837Y-19068D01*
X40837Y-19023D01*
X40852Y-18992D01*
X40868Y-18977D01*
X40898Y-18962D01*
X40974Y-18962D01*
X41004Y-18977D01*
X41019Y-18992D01*
X41035Y-19023D01*
X41035Y-19114D01*
X41019Y-19144D01*
X41004Y-19159D01*
X23357Y-06864D02*
X23205Y-06970D01*
X23357Y-07046D02*
X23038Y-07046D01*
X23038Y-06925D01*
X23053Y-06894D01*
X23068Y-06879D01*
X23098Y-06864D01*
X23144Y-06864D01*
X23174Y-06879D01*
X23190Y-06894D01*
X23205Y-06925D01*
X23205Y-07046D01*
X23357Y-06712D02*
X23357Y-06651D01*
X23341Y-06621D01*
X23326Y-06606D01*
X23281Y-06575D01*
X23220Y-06560D01*
X23098Y-06560D01*
X23068Y-06575D01*
X23053Y-06590D01*
X23038Y-06621D01*
X23038Y-06681D01*
X23053Y-06712D01*
X23068Y-06727D01*
X23098Y-06742D01*
X23174Y-06742D01*
X23205Y-06727D01*
X23220Y-06712D01*
X23235Y-06681D01*
X23235Y-06621D01*
X23220Y-06590D01*
X23205Y-06575D01*
X23174Y-06560D01*
X38987Y-19305D02*
X38835Y-19411D01*
X38987Y-19487D02*
X38668Y-19487D01*
X38668Y-19366D01*
X38683Y-19335D01*
X38698Y-19320D01*
X38728Y-19305D01*
X38774Y-19305D01*
X38804Y-19320D01*
X38820Y-19335D01*
X38835Y-19366D01*
X38835Y-19487D01*
X38698Y-19183D02*
X38683Y-19168D01*
X38668Y-19138D01*
X38668Y-19062D01*
X38683Y-19031D01*
X38698Y-19016D01*
X38728Y-19001D01*
X38759Y-19001D01*
X38804Y-19016D01*
X38987Y-19198D01*
X38987Y-19001D01*
X47427Y-09696D02*
X47321Y-09544D01*
X47245Y-09696D02*
X47245Y-09377D01*
X47366Y-09377D01*
X47397Y-09392D01*
X47412Y-09407D01*
X47427Y-09437D01*
X47427Y-09483D01*
X47412Y-09513D01*
X47397Y-09529D01*
X47366Y-09544D01*
X47245Y-09544D01*
X47731Y-09696D02*
X47549Y-09696D01*
X47640Y-09696D02*
X47640Y-09377D01*
X47610Y-09422D01*
X47579Y-09453D01*
X47549Y-09468D01*
X23116Y-13879D02*
X23130Y-13892D01*
X23143Y-13931D01*
X23143Y-13957D01*
X23130Y-13997D01*
X23103Y-14023D01*
X23077Y-14036D01*
X23024Y-14049D01*
X22985Y-14049D01*
X22932Y-14036D01*
X22906Y-14023D01*
X22880Y-13997D01*
X22867Y-13957D01*
X22867Y-13931D01*
X22880Y-13892D01*
X22893Y-13879D01*
X22867Y-13629D02*
X22867Y-13760D01*
X22998Y-13773D01*
X22985Y-13760D01*
X22972Y-13734D01*
X22972Y-13668D01*
X22985Y-13642D01*
X22998Y-13629D01*
X23024Y-13616D01*
X23090Y-13616D01*
X23116Y-13629D01*
X23130Y-13642D01*
X23143Y-13668D01*
X23143Y-13734D01*
X23130Y-13760D01*
X23116Y-13773D01*
X22867Y-13445D02*
X22867Y-13418D01*
X22880Y-13392D01*
X22893Y-13379D01*
X22919Y-13366D01*
X22972Y-13353D01*
X23038Y-13353D01*
X23090Y-13366D01*
X23116Y-13379D01*
X23130Y-13392D01*
X23143Y-13418D01*
X23143Y-13445D01*
X23130Y-13471D01*
X23116Y-13484D01*
X23090Y-13497D01*
X23038Y-13510D01*
X22972Y-13510D01*
X22919Y-13497D01*
X22893Y-13484D01*
X22880Y-13471D01*
X22867Y-13445D01*
X36955Y-06743D02*
X36849Y-06591D01*
X36773Y-06743D02*
X36773Y-06424D01*
X36894Y-06424D01*
X36925Y-06439D01*
X36940Y-06454D01*
X36955Y-06484D01*
X36955Y-06530D01*
X36940Y-06560D01*
X36925Y-06576D01*
X36894Y-06591D01*
X36773Y-06591D01*
X37244Y-06424D02*
X37092Y-06424D01*
X37077Y-06576D01*
X37092Y-06560D01*
X37122Y-06545D01*
X37198Y-06545D01*
X37229Y-06560D01*
X37244Y-06576D01*
X37259Y-06606D01*
X37259Y-06682D01*
X37244Y-06712D01*
X37229Y-06727D01*
X37198Y-06743D01*
X37122Y-06743D01*
X37092Y-06727D01*
X37077Y-06712D01*
X31882Y-18987D02*
X31776Y-18835D01*
X31700Y-18987D02*
X31700Y-18668D01*
X31821Y-18668D01*
X31852Y-18683D01*
X31867Y-18698D01*
X31882Y-18728D01*
X31882Y-18774D01*
X31867Y-18804D01*
X31852Y-18820D01*
X31821Y-18835D01*
X31700Y-18835D01*
X32186Y-18987D02*
X32004Y-18987D01*
X32095Y-18987D02*
X32095Y-18668D01*
X32065Y-18713D01*
X32034Y-18744D01*
X32004Y-18759D01*
X32460Y-18668D02*
X32399Y-18668D01*
X32369Y-18683D01*
X32353Y-18698D01*
X32323Y-18744D01*
X32308Y-18804D01*
X32308Y-18926D01*
X32323Y-18956D01*
X32338Y-18971D01*
X32369Y-18987D01*
X32429Y-18987D01*
X32460Y-18971D01*
X32475Y-18956D01*
X32490Y-18926D01*
X32490Y-18850D01*
X32475Y-18820D01*
X32460Y-18804D01*
X32429Y-18789D01*
X32369Y-18789D01*
X32338Y-18804D01*
X32323Y-18820D01*
X32308Y-18850D01*
X31882Y-18279D02*
X31776Y-18127D01*
X31700Y-18279D02*
X31700Y-17960D01*
X31821Y-17960D01*
X31852Y-17975D01*
X31867Y-17990D01*
X31882Y-18020D01*
X31882Y-18066D01*
X31867Y-18096D01*
X31852Y-18112D01*
X31821Y-18127D01*
X31700Y-18127D01*
X32186Y-18279D02*
X32004Y-18279D01*
X32095Y-18279D02*
X32095Y-17960D01*
X32065Y-18005D01*
X32034Y-18036D01*
X32004Y-18051D01*
X32475Y-17960D02*
X32323Y-17960D01*
X32308Y-18112D01*
X32323Y-18096D01*
X32353Y-18081D01*
X32429Y-18081D01*
X32460Y-18096D01*
X32475Y-18112D01*
X32490Y-18142D01*
X32490Y-18218D01*
X32475Y-18248D01*
X32460Y-18263D01*
X32429Y-18279D01*
X32353Y-18279D01*
X32323Y-18263D01*
X32308Y-18248D01*
X32098Y-16032D02*
X31946Y-16138D01*
X32098Y-16214D02*
X31779Y-16214D01*
X31779Y-16093D01*
X31794Y-16062D01*
X31809Y-16047D01*
X31839Y-16032D01*
X31885Y-16032D01*
X31915Y-16047D01*
X31931Y-16062D01*
X31946Y-16093D01*
X31946Y-16214D01*
X32098Y-15728D02*
X32098Y-15910D01*
X32098Y-15819D02*
X31779Y-15819D01*
X31824Y-15849D01*
X31855Y-15880D01*
X31870Y-15910D01*
X31885Y-15454D02*
X32098Y-15454D01*
X31763Y-15530D02*
X31991Y-15606D01*
X31991Y-15409D01*
X27630Y-18987D02*
X27524Y-18835D01*
X27448Y-18987D02*
X27448Y-18668D01*
X27569Y-18668D01*
X27600Y-18683D01*
X27615Y-18698D01*
X27630Y-18728D01*
X27630Y-18774D01*
X27615Y-18804D01*
X27600Y-18820D01*
X27569Y-18835D01*
X27448Y-18835D01*
X27934Y-18987D02*
X27752Y-18987D01*
X27843Y-18987D02*
X27843Y-18668D01*
X27813Y-18713D01*
X27782Y-18744D01*
X27752Y-18759D01*
X28041Y-18668D02*
X28238Y-18668D01*
X28132Y-18789D01*
X28177Y-18789D01*
X28208Y-18804D01*
X28223Y-18820D01*
X28238Y-18850D01*
X28238Y-18926D01*
X28223Y-18956D01*
X28208Y-18971D01*
X28177Y-18987D01*
X28086Y-18987D01*
X28056Y-18971D01*
X28041Y-18956D01*
X27669Y-18279D02*
X27563Y-18127D01*
X27487Y-18279D02*
X27487Y-17960D01*
X27608Y-17960D01*
X27639Y-17975D01*
X27654Y-17990D01*
X27669Y-18020D01*
X27669Y-18066D01*
X27654Y-18096D01*
X27639Y-18112D01*
X27608Y-18127D01*
X27487Y-18127D01*
X27973Y-18279D02*
X27791Y-18279D01*
X27882Y-18279D02*
X27882Y-17960D01*
X27852Y-18005D01*
X27821Y-18036D01*
X27791Y-18051D01*
X28095Y-17990D02*
X28110Y-17975D01*
X28140Y-17960D01*
X28216Y-17960D01*
X28247Y-17975D01*
X28262Y-17990D01*
X28277Y-18020D01*
X28277Y-18051D01*
X28262Y-18096D01*
X28080Y-18279D01*
X28277Y-18279D01*
X25976Y-17412D02*
X25870Y-17260D01*
X25794Y-17412D02*
X25794Y-17093D01*
X25915Y-17093D01*
X25946Y-17108D01*
X25961Y-17123D01*
X25976Y-17153D01*
X25976Y-17199D01*
X25961Y-17229D01*
X25946Y-17245D01*
X25915Y-17260D01*
X25794Y-17260D01*
X26280Y-17412D02*
X26098Y-17412D01*
X26189Y-17412D02*
X26189Y-17093D01*
X26159Y-17138D01*
X26128Y-17169D01*
X26098Y-17184D01*
X26584Y-17412D02*
X26402Y-17412D01*
X26493Y-17412D02*
X26493Y-17093D01*
X26463Y-17138D01*
X26432Y-17169D01*
X26402Y-17184D01*
X23734Y-13879D02*
X23602Y-13971D01*
X23734Y-14036D02*
X23458Y-14036D01*
X23458Y-13931D01*
X23471Y-13905D01*
X23484Y-13892D01*
X23510Y-13879D01*
X23550Y-13879D01*
X23576Y-13892D01*
X23589Y-13905D01*
X23602Y-13931D01*
X23602Y-14036D01*
X23734Y-13616D02*
X23734Y-13773D01*
X23734Y-13695D02*
X23458Y-13695D01*
X23497Y-13721D01*
X23523Y-13747D01*
X23537Y-13773D01*
X23458Y-13445D02*
X23458Y-13418D01*
X23471Y-13392D01*
X23484Y-13379D01*
X23510Y-13366D01*
X23563Y-13353D01*
X23629Y-13353D01*
X23681Y-13366D01*
X23707Y-13379D01*
X23721Y-13392D01*
X23734Y-13418D01*
X23734Y-13445D01*
X23721Y-13471D01*
X23707Y-13484D01*
X23681Y-13497D01*
X23629Y-13510D01*
X23563Y-13510D01*
X23510Y-13497D01*
X23484Y-13484D01*
X23471Y-13471D01*
X23458Y-13445D01*
X32782Y-06625D02*
X32676Y-06473D01*
X32600Y-06625D02*
X32600Y-06306D01*
X32721Y-06306D01*
X32752Y-06321D01*
X32767Y-06336D01*
X32782Y-06366D01*
X32782Y-06412D01*
X32767Y-06442D01*
X32752Y-06458D01*
X32721Y-06473D01*
X32600Y-06473D01*
X32965Y-06442D02*
X32934Y-06427D01*
X32919Y-06412D01*
X32904Y-06382D01*
X32904Y-06366D01*
X32919Y-06336D01*
X32934Y-06321D01*
X32965Y-06306D01*
X33025Y-06306D01*
X33056Y-06321D01*
X33071Y-06336D01*
X33086Y-06366D01*
X33086Y-06382D01*
X33071Y-06412D01*
X33056Y-06427D01*
X33025Y-06442D01*
X32965Y-06442D01*
X32934Y-06458D01*
X32919Y-06473D01*
X32904Y-06503D01*
X32904Y-06564D01*
X32919Y-06594D01*
X32934Y-06609D01*
X32965Y-06625D01*
X33025Y-06625D01*
X33056Y-06609D01*
X33071Y-06594D01*
X33086Y-06564D01*
X33086Y-06503D01*
X33071Y-06473D01*
X33056Y-06458D01*
X33025Y-06442D01*
X32821Y-09184D02*
X32715Y-09032D01*
X32639Y-09184D02*
X32639Y-08865D01*
X32760Y-08865D01*
X32791Y-08880D01*
X32806Y-08895D01*
X32821Y-08925D01*
X32821Y-08971D01*
X32806Y-09001D01*
X32791Y-09017D01*
X32760Y-09032D01*
X32639Y-09032D01*
X33095Y-08865D02*
X33034Y-08865D01*
X33004Y-08880D01*
X32988Y-08895D01*
X32958Y-08941D01*
X32943Y-09001D01*
X32943Y-09123D01*
X32958Y-09153D01*
X32973Y-09168D01*
X33004Y-09184D01*
X33064Y-09184D01*
X33095Y-09168D01*
X33110Y-09153D01*
X33125Y-09123D01*
X33125Y-09047D01*
X33110Y-09017D01*
X33095Y-09001D01*
X33064Y-08986D01*
X33004Y-08986D01*
X32973Y-09001D01*
X32958Y-09017D01*
X32943Y-09047D01*
X26055Y-16074D02*
X25949Y-15922D01*
X25873Y-16074D02*
X25873Y-15755D01*
X25994Y-15755D01*
X26025Y-15770D01*
X26040Y-15785D01*
X26055Y-15815D01*
X26055Y-15861D01*
X26040Y-15891D01*
X26025Y-15907D01*
X25994Y-15922D01*
X25873Y-15922D01*
X26359Y-16074D02*
X26177Y-16074D01*
X26268Y-16074D02*
X26268Y-15755D01*
X26238Y-15800D01*
X26207Y-15831D01*
X26177Y-15846D01*
X26466Y-15755D02*
X26678Y-15755D01*
X26542Y-16074D01*
X32618Y-16032D02*
X32633Y-16047D01*
X32649Y-16093D01*
X32649Y-16123D01*
X32633Y-16168D01*
X32603Y-16199D01*
X32573Y-16214D01*
X32512Y-16229D01*
X32466Y-16229D01*
X32406Y-16214D01*
X32375Y-16199D01*
X32345Y-16168D01*
X32330Y-16123D01*
X32330Y-16093D01*
X32345Y-16047D01*
X32360Y-16032D01*
X32330Y-15925D02*
X32330Y-15713D01*
X32649Y-15849D01*
X32330Y-15439D02*
X32330Y-15591D01*
X32482Y-15606D01*
X32466Y-15591D01*
X32451Y-15561D01*
X32451Y-15485D01*
X32466Y-15454D01*
X32482Y-15439D01*
X32512Y-15424D01*
X32588Y-15424D01*
X32618Y-15439D01*
X32633Y-15454D01*
X32649Y-15485D01*
X32649Y-15561D01*
X32633Y-15591D01*
X32618Y-15606D01*
X25976Y-16830D02*
X25961Y-16845D01*
X25915Y-16861D01*
X25885Y-16861D01*
X25840Y-16845D01*
X25809Y-16815D01*
X25794Y-16785D01*
X25779Y-16724D01*
X25779Y-16678D01*
X25794Y-16618D01*
X25809Y-16587D01*
X25840Y-16557D01*
X25885Y-16542D01*
X25915Y-16542D01*
X25961Y-16557D01*
X25976Y-16572D01*
X26083Y-16542D02*
X26295Y-16542D01*
X26159Y-16861D01*
X26554Y-16648D02*
X26554Y-16861D01*
X26478Y-16526D02*
X26402Y-16754D01*
X26599Y-16754D01*
X21310Y-13675D02*
X21310Y-13827D01*
X20991Y-13827D01*
X21097Y-13432D02*
X21310Y-13432D01*
X20975Y-13508D02*
X21203Y-13584D01*
X21203Y-13387D01*
G54D19*
X06280Y-17288D02*
X06280Y-16888D01*
X06433Y-16888D01*
X06471Y-16907D01*
X06490Y-16926D01*
X06509Y-16964D01*
X06509Y-17021D01*
X06490Y-17059D01*
X06471Y-17078D01*
X06433Y-17097D01*
X06280Y-17097D01*
X06871Y-16888D02*
X06680Y-16888D01*
X06661Y-17078D01*
X06680Y-17059D01*
X06718Y-17040D01*
X06814Y-17040D01*
X06852Y-17059D01*
X06871Y-17078D01*
X06890Y-17116D01*
X06890Y-17212D01*
X06871Y-17250D01*
X06852Y-17269D01*
X06814Y-17288D01*
X06718Y-17288D01*
X06680Y-17269D01*
X06661Y-17250D01*
%LPC*%
G54D24*
X31102Y-01772D03*
X31102Y-05709D03*
X29134Y-05020D03*
X37795Y-01772D03*
X37795Y-05709D03*
X35827Y-05020D03*
G54D25*
X36969Y-15157D03*
X35079Y-15157D03*
X36969Y-18110D03*
X35079Y-18110D03*
G54D26*
X43306Y-03149D03*
X41653Y-04331D03*
X43307Y-05512D03*
G54D27*
X24370Y-12125D03*
X24370Y-12991D03*
G54D28*
X47677Y-15551D03*
X46811Y-15551D03*
G54D29*
X33465Y-12953D03*
X32874Y-12953D03*
X32283Y-12953D03*
G54D30*
X32874Y-14055D03*
G54D31*
X29107Y-16702D03*
X29107Y-16958D03*
X29107Y-17214D03*
X29107Y-17470D03*
X30807Y-17470D03*
X30807Y-17214D03*
X30807Y-16958D03*
X30807Y-16702D03*
G54D32*
X22087Y-11257D03*
X22284Y-11257D03*
X22481Y-11257D03*
X22677Y-11257D03*
X22873Y-11257D03*
X23070Y-11257D03*
X23267Y-11257D03*
G54D33*
X23661Y-10863D03*
X23661Y-10666D03*
X23661Y-10469D03*
X23661Y-10273D03*
X23661Y-10077D03*
X23661Y-09880D03*
X23661Y-09683D03*
G54D32*
X23267Y-09289D03*
X23070Y-09289D03*
X22873Y-09289D03*
X22677Y-09289D03*
X22481Y-09289D03*
X22284Y-09289D03*
X22087Y-09289D03*
G54D33*
X21693Y-09683D03*
X21693Y-09880D03*
X21693Y-10077D03*
X21693Y-10273D03*
X21693Y-10469D03*
X21693Y-10666D03*
X21693Y-10863D03*
G54D34*
X22677Y-10273D03*
G54D35*
X24135Y-08859D03*
G54D36*
X24450Y-08859D03*
X24765Y-08859D03*
G54D35*
X25080Y-08859D03*
X25080Y-08072D03*
G54D36*
X24765Y-08072D03*
X24450Y-08072D03*
G54D35*
X24135Y-08072D03*
G54D37*
X37835Y-12205D03*
X35787Y-12205D03*
G54D28*
X46811Y-12598D03*
X47677Y-12598D03*
X26929Y-14567D03*
X27795Y-14567D03*
X24646Y-18110D03*
X23780Y-18110D03*
G54D38*
X38720Y-17146D03*
X38720Y-18327D03*
G54D39*
X41448Y-08544D03*
G54D40*
X40551Y-11496D03*
G54D39*
X39654Y-08544D03*
G54D41*
X10866Y-05158D03*
X11181Y-05158D03*
X11496Y-05158D03*
X11811Y-05158D03*
X12126Y-05158D03*
X12441Y-05158D03*
X12756Y-05158D03*
X13071Y-05158D03*
X13386Y-05158D03*
X13701Y-05158D03*
X14016Y-05158D03*
X14331Y-05158D03*
X14646Y-05158D03*
X14960Y-05158D03*
X15275Y-05158D03*
X15590Y-05158D03*
X15905Y-05158D03*
X16220Y-05158D03*
X16535Y-05158D03*
X16850Y-05158D03*
X17165Y-05158D03*
X17480Y-05158D03*
X10866Y-00591D03*
X11181Y-00591D03*
X11496Y-00591D03*
X11811Y-00591D03*
X12126Y-00591D03*
X12441Y-00591D03*
X12756Y-00591D03*
X13071Y-00591D03*
X13386Y-00591D03*
X13701Y-00591D03*
X14016Y-00591D03*
X14331Y-00591D03*
X14646Y-00591D03*
X14961Y-00591D03*
X15275Y-00591D03*
X15590Y-00591D03*
X15905Y-00591D03*
X16220Y-00591D03*
X16535Y-00591D03*
X16850Y-00591D03*
X17165Y-00591D03*
X17480Y-00591D03*
G54D42*
X40609Y-16160D03*
X39271Y-16160D03*
G54D43*
X46850Y-18110D03*
X46850Y-01575D03*
X01575Y-18110D03*
X01575Y-01575D03*
G54D44*
X26679Y-07199D03*
X26679Y-07699D03*
X26679Y-08199D03*
X26679Y-08699D03*
X26679Y-09199D03*
X26679Y-09699D03*
X26679Y-10199D03*
X26679Y-10699D03*
X26679Y-11199D03*
X26679Y-11699D03*
X30801Y-11699D03*
X30801Y-11199D03*
X30801Y-10699D03*
X30801Y-10199D03*
X30801Y-09699D03*
X30801Y-09199D03*
X30801Y-08699D03*
X30801Y-08199D03*
X30801Y-07699D03*
X30801Y-07199D03*
G54D45*
X03996Y-02559D03*
G54D46*
X04996Y-02559D03*
X05996Y-02559D03*
X06996Y-02559D03*
X07996Y-02559D03*
X08996Y-02559D03*
G54D45*
X44201Y-18504D03*
G54D46*
X43201Y-18504D03*
G54D45*
X44201Y-16929D03*
G54D46*
X43201Y-16929D03*
G54D45*
X43291Y-15264D03*
G54D46*
X43291Y-14264D03*
X44291Y-15264D03*
X44291Y-14264D03*
X45291Y-15264D03*
X45291Y-14264D03*
G54D28*
X07480Y-14764D03*
X08346Y-14764D03*
G54D42*
X28031Y-13386D03*
X26693Y-13386D03*
X34134Y-10630D03*
X32796Y-10630D03*
G54D47*
X43425Y-08661D03*
X46339Y-08661D03*
G54D48*
X40657Y-14370D03*
X39657Y-14745D03*
X39657Y-13995D03*
X47744Y-11220D03*
X46744Y-11595D03*
X46744Y-10845D03*
G54D49*
X07571Y-15570D03*
X07571Y-16320D03*
X08571Y-15570D03*
X07571Y-15945D03*
X08571Y-16320D03*
X46744Y-13995D03*
X46744Y-14745D03*
X47744Y-13995D03*
X46744Y-14370D03*
X47744Y-14745D03*
X30618Y-14155D03*
X30618Y-13405D03*
X29618Y-14155D03*
X30618Y-13780D03*
X29618Y-13405D03*
X39401Y-17045D03*
X39401Y-17795D03*
X40401Y-17045D03*
X39401Y-17420D03*
X40401Y-17795D03*
G54D50*
X20669Y-17716D03*
G54D51*
X20275Y-19016D03*
X21063Y-19016D03*
G54D50*
X01575Y-04173D03*
G54D51*
X01181Y-05473D03*
X01969Y-05473D03*
G54D52*
X10006Y-07736D03*
X10006Y-07936D03*
X10006Y-08131D03*
X10006Y-08326D03*
X10006Y-08526D03*
X10006Y-08721D03*
X10006Y-08916D03*
X10006Y-09116D03*
X10006Y-09311D03*
X10006Y-09506D03*
X10006Y-09706D03*
X10006Y-09901D03*
X10006Y-10096D03*
X10006Y-10296D03*
X10006Y-10491D03*
X10006Y-10686D03*
X10006Y-10886D03*
X10006Y-11081D03*
X10006Y-11281D03*
X10006Y-11476D03*
X10006Y-11676D03*
X10006Y-11871D03*
X10006Y-12066D03*
X10006Y-12266D03*
X10006Y-12461D03*
X10006Y-12656D03*
X10006Y-12856D03*
X10006Y-13051D03*
X10006Y-13246D03*
X10006Y-13446D03*
X10006Y-13641D03*
X10006Y-13836D03*
X10006Y-14036D03*
X10006Y-14231D03*
X10006Y-14426D03*
X10006Y-14626D03*
G54D53*
X16596Y-15506D03*
X16791Y-15506D03*
X16986Y-15506D03*
X17186Y-15506D03*
X17381Y-15506D03*
X17576Y-15506D03*
X17776Y-15506D03*
X16791Y-06856D03*
X16596Y-06856D03*
X16396Y-06856D03*
X16201Y-06856D03*
X16006Y-06856D03*
X15806Y-06856D03*
X15611Y-06856D03*
X15416Y-06856D03*
X15216Y-06856D03*
X15021Y-06856D03*
X14826Y-06856D03*
X14626Y-06856D03*
X14431Y-06856D03*
X14231Y-06856D03*
X14036Y-06856D03*
X13836Y-06856D03*
X13641Y-06856D03*
X13446Y-06856D03*
X13246Y-06856D03*
X13051Y-06856D03*
X12856Y-06856D03*
X12656Y-06856D03*
X12461Y-06856D03*
X12266Y-06856D03*
X12066Y-06856D03*
X11871Y-06856D03*
X11676Y-06856D03*
X11476Y-06856D03*
X11281Y-06856D03*
X11086Y-06856D03*
X10886Y-06856D03*
X10886Y-15506D03*
X11086Y-15506D03*
X11281Y-15506D03*
X11476Y-15506D03*
X11676Y-15506D03*
X11871Y-15506D03*
X12066Y-15506D03*
X12266Y-15506D03*
X12461Y-15506D03*
X12656Y-15506D03*
X12856Y-15506D03*
X13051Y-15506D03*
X13246Y-15506D03*
X13446Y-15506D03*
X13641Y-15506D03*
X13836Y-15506D03*
X14036Y-15506D03*
X14231Y-15506D03*
X14431Y-15506D03*
X14626Y-15506D03*
X14826Y-15506D03*
X15021Y-15506D03*
X15216Y-15506D03*
X15416Y-15506D03*
X15611Y-15506D03*
X15806Y-15506D03*
X16006Y-15506D03*
X16201Y-15506D03*
X16396Y-15506D03*
G54D52*
X18656Y-13641D03*
X18656Y-13446D03*
X18656Y-13246D03*
X18656Y-13051D03*
X18656Y-12856D03*
X18656Y-12656D03*
X18656Y-12461D03*
X18656Y-12266D03*
X18656Y-12066D03*
X18656Y-11871D03*
X18656Y-11676D03*
X18656Y-11476D03*
X18656Y-11281D03*
X18656Y-11081D03*
X18656Y-10886D03*
X18656Y-10686D03*
X18656Y-10491D03*
X18656Y-10296D03*
X18656Y-10096D03*
X18656Y-09901D03*
X18656Y-09706D03*
X18656Y-09506D03*
X18656Y-09311D03*
X18656Y-09116D03*
X18656Y-08916D03*
X18656Y-08721D03*
X18656Y-08526D03*
X18656Y-08326D03*
X18656Y-08131D03*
X18656Y-07936D03*
X18656Y-07736D03*
X18656Y-14626D03*
X18656Y-14426D03*
X18656Y-14231D03*
X18656Y-14036D03*
X18656Y-13836D03*
G54D53*
X17776Y-06856D03*
X17576Y-06856D03*
X17381Y-06856D03*
X17186Y-06856D03*
X16986Y-06856D03*
G54D54*
X20669Y-04528D03*
X18701Y-04528D03*
X18504Y-01576D03*
X20866Y-01576D03*
X26181Y-04528D03*
X24213Y-04528D03*
X24016Y-01576D03*
X26378Y-01576D03*
G54D55*
X07496Y-06609D03*
X05496Y-06609D03*
X05496Y-04809D03*
X07496Y-04809D03*
G54D56*
X05868Y-16404D03*
X05868Y-14304D03*
X05368Y-16404D03*
X04868Y-16404D03*
X04368Y-16404D03*
X05368Y-14304D03*
X04868Y-14304D03*
X04368Y-14304D03*
X47994Y-06365D03*
X47994Y-04265D03*
X47494Y-06365D03*
X46994Y-06365D03*
X46494Y-06365D03*
X47494Y-04265D03*
X46994Y-04265D03*
X46494Y-04265D03*
G54D57*
X43241Y-12955D03*
X45341Y-12955D03*
X43241Y-12455D03*
X43241Y-11955D03*
X43241Y-11455D03*
X45341Y-12455D03*
X45341Y-11955D03*
X45341Y-11455D03*
G54D58*
X35721Y-08699D03*
X35721Y-09199D03*
X35721Y-09699D03*
X35721Y-10199D03*
X37508Y-08699D03*
X37508Y-09199D03*
X37508Y-09699D03*
X37508Y-10199D03*
G54D59*
X11025Y-17324D03*
G54D60*
X18701Y-18307D03*
X10236Y-18307D03*
G54D59*
X11222Y-17324D03*
X11419Y-17324D03*
X11616Y-17324D03*
X11812Y-17324D03*
X12009Y-17324D03*
X12206Y-17324D03*
X12403Y-17324D03*
X12600Y-17324D03*
X12797Y-17324D03*
X13191Y-17324D03*
X13387Y-17324D03*
X13584Y-17324D03*
X13781Y-17324D03*
X13978Y-17324D03*
X14175Y-17324D03*
X14372Y-17324D03*
X14568Y-17324D03*
X14765Y-17324D03*
X14962Y-17324D03*
X15159Y-17324D03*
X15356Y-17324D03*
X15553Y-17324D03*
X15750Y-17324D03*
X15946Y-17324D03*
X16143Y-17324D03*
X16340Y-17324D03*
X16537Y-17324D03*
X16734Y-17324D03*
X16931Y-17324D03*
X17128Y-17324D03*
X17324Y-17324D03*
X17521Y-17324D03*
X17718Y-17324D03*
X17915Y-17324D03*
G54D10*
G36*
X12930Y-17044D02*
X13056Y-17044D01*
X13056Y-17602D01*
X12930Y-17602D01*
X12930Y-17044D01*
X12930Y-17044D01*
G37*
G54D61*
X02440Y-08072D03*
G54D60*
X01457Y-15748D03*
X01457Y-07283D03*
G54D61*
X02440Y-08269D03*
X02440Y-08466D03*
X02440Y-08663D03*
X02440Y-08859D03*
X02440Y-09056D03*
X02440Y-09253D03*
X02440Y-09450D03*
X02440Y-09647D03*
X02440Y-09844D03*
X02440Y-10238D03*
X02440Y-10434D03*
X02440Y-10631D03*
X02440Y-10828D03*
X02440Y-11025D03*
X02440Y-11222D03*
X02440Y-11419D03*
X02440Y-11615D03*
X02440Y-11812D03*
X02440Y-12009D03*
X02440Y-12206D03*
X02440Y-12403D03*
X02440Y-12600D03*
X02440Y-12797D03*
X02440Y-12993D03*
X02440Y-13190D03*
X02440Y-13387D03*
X02440Y-13584D03*
X02440Y-13781D03*
X02440Y-13978D03*
X02440Y-14175D03*
X02440Y-14371D03*
X02440Y-14568D03*
X02440Y-14765D03*
X02440Y-14962D03*
G54D10*
G36*
X02720Y-09977D02*
X02720Y-10103D01*
X02162Y-10103D01*
X02162Y-09977D01*
X02720Y-09977D01*
X02720Y-09977D01*
G37*
G54D62*
X24624Y-16703D03*
X24624Y-16447D03*
X24624Y-16191D03*
X24624Y-15935D03*
X24624Y-15679D03*
X24624Y-15423D03*
X24624Y-15167D03*
X24624Y-14911D03*
X24624Y-14655D03*
X24624Y-14399D03*
X21437Y-16702D03*
X21437Y-16447D03*
X21437Y-16191D03*
X21437Y-15935D03*
X21437Y-15679D03*
X21437Y-15423D03*
X21437Y-15167D03*
X21437Y-14911D03*
X21437Y-14655D03*
X21437Y-14399D03*
G54D63*
X24606Y-06102D03*
X24606Y-06890D03*
X20669Y-06102D03*
X20669Y-06890D03*
G54D64*
X33543Y-07283D03*
X34173Y-07283D03*
G54D65*
X06850Y-16260D03*
X06850Y-15630D03*
G54D64*
X30906Y-16220D03*
X30276Y-16220D03*
X27047Y-15354D03*
X27677Y-15354D03*
X40236Y-07480D03*
X40866Y-07480D03*
G54D65*
X38780Y-14685D03*
X38780Y-14055D03*
G54D64*
X30433Y-15354D03*
X29803Y-15354D03*
X24528Y-18858D03*
X23898Y-18858D03*
G54D65*
X22638Y-07559D03*
X22638Y-08189D03*
X22047Y-07559D03*
X22047Y-08189D03*
X22362Y-13030D03*
X22362Y-12400D03*
X21772Y-13030D03*
X21772Y-12400D03*
G54D64*
X34173Y-08267D03*
X33543Y-08267D03*
G54D65*
X20551Y-13032D03*
X20551Y-12402D03*
X20669Y-11339D03*
X20669Y-10709D03*
X38386Y-07559D03*
X38386Y-08189D03*
G54D64*
X36339Y-07283D03*
X35709Y-07283D03*
G54D65*
X41339Y-14685D03*
X41339Y-14055D03*
X33465Y-17402D03*
X33465Y-16772D03*
G54D64*
X33189Y-11732D03*
X32559Y-11732D03*
X29803Y-12598D03*
X30433Y-12598D03*
X29803Y-14764D03*
X30433Y-14764D03*
G54D65*
X31417Y-14095D03*
X31417Y-13465D03*
X41121Y-17696D03*
X41121Y-17066D03*
G54D64*
X40866Y-06811D03*
X40236Y-06811D03*
X46929Y-13386D03*
X47559Y-13386D03*
X36339Y-08071D03*
X35709Y-08071D03*
G54D65*
X40176Y-18483D03*
X40176Y-19113D03*
X23228Y-08189D03*
X23228Y-07559D03*
X39665Y-19113D03*
X39665Y-18483D03*
G54D64*
X47165Y-10079D03*
X47795Y-10079D03*
G54D65*
X23031Y-13030D03*
X23031Y-12400D03*
G54D64*
X36339Y-06496D03*
X35709Y-06496D03*
X31260Y-18858D03*
X30630Y-18858D03*
X31257Y-18149D03*
X30627Y-18149D03*
G54D65*
X31969Y-17402D03*
X31969Y-16772D03*
G54D64*
X28701Y-18858D03*
X29331Y-18858D03*
X28701Y-18150D03*
X29331Y-18150D03*
X27677Y-17323D03*
X27047Y-17323D03*
G54D65*
X23622Y-12400D03*
X23622Y-13030D03*
G54D64*
X34173Y-06496D03*
X33543Y-06496D03*
X34173Y-09055D03*
X33543Y-09055D03*
X27677Y-15945D03*
X27047Y-15945D03*
G54D65*
X32520Y-17402D03*
X32520Y-16772D03*
G54D64*
X27677Y-16732D03*
X27047Y-16732D03*
G54D65*
X21181Y-12400D03*
X21181Y-13030D03*
G54D45*
X05075Y-18925D03*
G54D46*
X05075Y-17925D03*
X06075Y-18925D03*
X06075Y-17925D03*
X07075Y-18925D03*
X07075Y-17925D03*
X08075Y-18925D03*
X08075Y-17925D03*
M02*
