G04 (created by PCBNEW-RS274X (2012-01-19 BZR 3256)-stable) date 2012/07/23 17:39:25*
G01*
G70*
G90*
%MOIN*%
G04 Gerber Fmt 3.4, Leading zero omitted, Abs format*
%FSLAX34Y34*%
G04 APERTURE LIST*
%ADD10C,0.006000*%
%ADD11C,0.150000*%
%ADD12C,0.098400*%
%ADD13R,0.124000X0.124000*%
%ADD14R,0.212500X0.252000*%
%ADD15C,0.236200*%
%ADD16R,0.060000X0.060000*%
%ADD17C,0.060000*%
%ADD18C,0.074800*%
%ADD19C,0.043300*%
%ADD20C,0.020000*%
%ADD21C,0.035400*%
%ADD22C,0.007900*%
%ADD23C,0.010000*%
G04 APERTURE END LIST*
G54D10*
G54D11*
X31102Y-01772D03*
X31102Y-05709D03*
X29134Y-05020D03*
X37795Y-01772D03*
X37795Y-05709D03*
X35827Y-05020D03*
G54D12*
X43306Y-03149D03*
X41653Y-04331D03*
X43307Y-05512D03*
G54D13*
X22677Y-10273D03*
G54D14*
X40551Y-11496D03*
G54D15*
X46850Y-18110D03*
X46850Y-01575D03*
X01575Y-18110D03*
X01575Y-01575D03*
G54D16*
X03996Y-02559D03*
G54D17*
X04996Y-02559D03*
X05996Y-02559D03*
X06996Y-02559D03*
X07996Y-02559D03*
X08996Y-02559D03*
G54D16*
X44201Y-18504D03*
G54D17*
X43201Y-18504D03*
G54D16*
X44201Y-16929D03*
G54D17*
X43201Y-16929D03*
G54D16*
X43291Y-15264D03*
G54D17*
X43291Y-14264D03*
X44291Y-15264D03*
X44291Y-14264D03*
X45291Y-15264D03*
X45291Y-14264D03*
G54D18*
X20669Y-04528D03*
X18701Y-04528D03*
X18504Y-01576D03*
X20866Y-01576D03*
X26181Y-04528D03*
X24213Y-04528D03*
X24016Y-01576D03*
X26378Y-01576D03*
G54D19*
X24606Y-06102D03*
X24606Y-06890D03*
X20669Y-06102D03*
X20669Y-06890D03*
G54D16*
X05075Y-18925D03*
G54D17*
X05075Y-17925D03*
X06075Y-18925D03*
X06075Y-17925D03*
X07075Y-18925D03*
X07075Y-17925D03*
X08075Y-18925D03*
X08075Y-17925D03*
G54D20*
X15748Y-07992D03*
X10945Y-12205D03*
G54D21*
X08780Y-14764D03*
X08346Y-15197D03*
G54D20*
X15079Y-14488D03*
X17598Y-12520D03*
X10512Y-10315D03*
G54D21*
X40157Y-09173D03*
X38425Y-11614D03*
G54D20*
X16417Y-07598D03*
G54D21*
X37795Y-11614D03*
X14016Y-04528D03*
X39646Y-07953D03*
G54D20*
X16260Y-14882D03*
G54D21*
X38858Y-10354D03*
X37283Y-11614D03*
G54D20*
X22047Y-15945D03*
G54D21*
X14331Y-01260D03*
G54D20*
X10551Y-08307D03*
X04764Y-04843D03*
X18031Y-14213D03*
X12205Y-07480D03*
X22559Y-08622D03*
X12559Y-07480D03*
G54D21*
X39646Y-09173D03*
G54D20*
X15551Y-14843D03*
X19882Y-14449D03*
X23228Y-07244D03*
X22362Y-16102D03*
X10551Y-12598D03*
X13386Y-14843D03*
G54D21*
X21181Y-13030D03*
G54D20*
X05866Y-14685D03*
X19213Y-12480D03*
X18150Y-08346D03*
G54D21*
X40157Y-08543D03*
G54D20*
X10551Y-11969D03*
X24764Y-07756D03*
X14016Y-07598D03*
X15906Y-14843D03*
X24213Y-10512D03*
G54D21*
X08937Y-16220D03*
G54D20*
X18031Y-12205D03*
G54D21*
X07165Y-15315D03*
G54D20*
X11024Y-14843D03*
G54D21*
X39173Y-08543D03*
G54D20*
X11850Y-14882D03*
X17165Y-07598D03*
X17992Y-10315D03*
X22283Y-08622D03*
G54D21*
X46811Y-12165D03*
X47244Y-13995D03*
G54D20*
X47795Y-09724D03*
G54D21*
X45354Y-06890D03*
X43583Y-07992D03*
G54D20*
X01181Y-05118D03*
X14016Y-16890D03*
X20787Y-17126D03*
X02953Y-13976D03*
X02953Y-13386D03*
X12008Y-16890D03*
G54D21*
X45984Y-06890D03*
X40748Y-17047D03*
X45984Y-06378D03*
G54D20*
X12598Y-16929D03*
G54D21*
X42126Y-08661D03*
X45984Y-07480D03*
X40394Y-17402D03*
G54D20*
X02992Y-11969D03*
X30157Y-09724D03*
X23780Y-15669D03*
X30157Y-10709D03*
G54D21*
X36457Y-19173D03*
G54D20*
X01260Y-14764D03*
X11220Y-19055D03*
G54D21*
X35866Y-19173D03*
X31417Y-15315D03*
X36969Y-19173D03*
G54D20*
X30157Y-08189D03*
X26102Y-10197D03*
G54D21*
X35079Y-15945D03*
G54D20*
X11457Y-18110D03*
G54D21*
X35079Y-16457D03*
G54D20*
X02047Y-14370D03*
G54D21*
X47756Y-14370D03*
G54D20*
X20630Y-15394D03*
X12480Y-16614D03*
X24409Y-09803D03*
X21929Y-08858D03*
X24488Y-10394D03*
X20000Y-10787D03*
X23189Y-11772D03*
X20236Y-10551D03*
X15039Y-04409D03*
X14764Y-06063D03*
X14764Y-04646D03*
X14567Y-06299D03*
X13661Y-04252D03*
X14291Y-05630D03*
X13386Y-04528D03*
X14055Y-05906D03*
X13740Y-06063D03*
X13071Y-04488D03*
X10748Y-08740D03*
X10709Y-09016D03*
X11181Y-08819D03*
X10709Y-09449D03*
X42717Y-11614D03*
X19370Y-10906D03*
X18110Y-11063D03*
X42638Y-11890D03*
X09843Y-06890D03*
X08701Y-06850D03*
X19370Y-16299D03*
X28622Y-12638D03*
X27638Y-12638D03*
G54D21*
X40551Y-19134D03*
G54D20*
X20669Y-11614D03*
X22008Y-19016D03*
X25354Y-15354D03*
X01969Y-05118D03*
X22362Y-15354D03*
X23346Y-16260D03*
G54D21*
X26142Y-13386D03*
G54D20*
X21260Y-09567D03*
X22402Y-18583D03*
G54D21*
X30866Y-12598D03*
G54D20*
X09449Y-12638D03*
X34173Y-17402D03*
X16614Y-17835D03*
G54D21*
X24370Y-11772D03*
G54D20*
X36220Y-10197D03*
G54D21*
X41102Y-18189D03*
G54D20*
X17520Y-17835D03*
G54D21*
X39252Y-14724D03*
G54D20*
X19252Y-14213D03*
G54D21*
X29882Y-16220D03*
G54D20*
X14449Y-07441D03*
X18110Y-07992D03*
X17913Y-17835D03*
X28740Y-08189D03*
X03031Y-10591D03*
X45315Y-11220D03*
X13701Y-14921D03*
X17244Y-06299D03*
G54D21*
X33701Y-11693D03*
G54D20*
X15591Y-17835D03*
X09488Y-08189D03*
X11535Y-14921D03*
X28740Y-09724D03*
X31457Y-07717D03*
X24134Y-10945D03*
G54D21*
X34134Y-11260D03*
G54D20*
X26142Y-09685D03*
G54D21*
X45157Y-08661D03*
G54D20*
X27323Y-07205D03*
X03031Y-07992D03*
G54D21*
X33465Y-12402D03*
G54D20*
X10669Y-07362D03*
X31457Y-10197D03*
X26181Y-08189D03*
G54D21*
X20551Y-13032D03*
G54D20*
X22087Y-15039D03*
X26102Y-10709D03*
X10512Y-09921D03*
X29528Y-15354D03*
G54D21*
X31417Y-13071D03*
X07283Y-15945D03*
X36969Y-15591D03*
X30906Y-14764D03*
G54D20*
X04370Y-16024D03*
X12244Y-11614D03*
G54D21*
X46811Y-15984D03*
G54D20*
X14764Y-13701D03*
X15866Y-13661D03*
X12244Y-12205D03*
X12244Y-12795D03*
X26142Y-09173D03*
G54D21*
X28268Y-14567D03*
G54D20*
X13386Y-13346D03*
G54D21*
X35787Y-12717D03*
X46339Y-09213D03*
G54D20*
X17008Y-17835D03*
X12795Y-17835D03*
X11732Y-06260D03*
X25354Y-14921D03*
X11024Y-13346D03*
X29567Y-17480D03*
G54D21*
X30984Y-13780D03*
G54D20*
X33543Y-06142D03*
X41299Y-06811D03*
X22638Y-07205D03*
X35709Y-06142D03*
X40236Y-07835D03*
X11929Y-11024D03*
X22047Y-07205D03*
X07480Y-07205D03*
G54D21*
X39843Y-17402D03*
X07047Y-14764D03*
X23346Y-18110D03*
G54D20*
X12480Y-06299D03*
X11811Y-13346D03*
X12205Y-17835D03*
X16339Y-12520D03*
X16339Y-10276D03*
X16417Y-09331D03*
X17126Y-13701D03*
X16142Y-16024D03*
X16339Y-11929D03*
X03071Y-09213D03*
X12047Y-01063D03*
G54D21*
X47677Y-12165D03*
G54D20*
X11417Y-16850D03*
X12795Y-09331D03*
X17795Y-09331D03*
G54D21*
X35906Y-18110D03*
G54D20*
X20709Y-16102D03*
X14016Y-01063D03*
X17205Y-14882D03*
X19646Y-18071D03*
X12441Y-05512D03*
X09449Y-14055D03*
X14055Y-09331D03*
X17402Y-13701D03*
G54D21*
X27677Y-15079D03*
G54D20*
X01890Y-10433D03*
G54D21*
X35079Y-17638D03*
G54D20*
X17205Y-09331D03*
X01890Y-09055D03*
X10709Y-17480D03*
G54D21*
X47244Y-14803D03*
G54D20*
X18110Y-11850D03*
X14173Y-17835D03*
X15197Y-17835D03*
G54D21*
X35787Y-11693D03*
X47598Y-08622D03*
G54D20*
X18110Y-09882D03*
X15748Y-09331D03*
X12165Y-09449D03*
X28740Y-10709D03*
X46378Y-11575D03*
X01890Y-11850D03*
G54D21*
X22677Y-13030D03*
G54D20*
X12480Y-01063D03*
X01890Y-08465D03*
X01890Y-13898D03*
X11811Y-17913D03*
X14331Y-04685D03*
X46969Y-03661D03*
X46969Y-09685D03*
X11614Y-07480D03*
X16811Y-14921D03*
X27087Y-17835D03*
X32835Y-17835D03*
X31339Y-17520D03*
X31378Y-16693D03*
X21929Y-11772D03*
X19646Y-09055D03*
X28268Y-17205D03*
X27638Y-09409D03*
X20630Y-14409D03*
X20709Y-14803D03*
G54D10*
G36*
X41103Y-10118D02*
X40454Y-10118D01*
X40454Y-07879D01*
X40454Y-07792D01*
X40421Y-07712D01*
X40360Y-07650D01*
X40280Y-07617D01*
X40193Y-07617D01*
X40113Y-07650D01*
X40051Y-07711D01*
X40018Y-07791D01*
X40018Y-07878D01*
X40051Y-07958D01*
X40112Y-08020D01*
X40192Y-08053D01*
X40279Y-08053D01*
X40359Y-08020D01*
X40421Y-07959D01*
X40454Y-07879D01*
X40454Y-10118D01*
X39841Y-10118D01*
X39841Y-01882D01*
X39841Y-01663D01*
X39757Y-01461D01*
X39603Y-01306D01*
X39401Y-01222D01*
X39182Y-01222D01*
X38980Y-01306D01*
X38825Y-01460D01*
X38741Y-01662D01*
X38741Y-01881D01*
X38825Y-02083D01*
X38979Y-02238D01*
X39181Y-02322D01*
X39400Y-02322D01*
X39602Y-02238D01*
X39757Y-02084D01*
X39841Y-01882D01*
X39841Y-10118D01*
X39466Y-10118D01*
X39423Y-10136D01*
X39389Y-10169D01*
X39371Y-10212D01*
X39371Y-10259D01*
X39371Y-12559D01*
X38663Y-12559D01*
X38663Y-05882D01*
X38663Y-05537D01*
X38663Y-01945D01*
X38663Y-01600D01*
X38531Y-01281D01*
X38287Y-01037D01*
X37968Y-00904D01*
X37623Y-00904D01*
X37304Y-01036D01*
X37060Y-01280D01*
X36927Y-01599D01*
X36927Y-01944D01*
X37059Y-02263D01*
X37303Y-02507D01*
X37622Y-02640D01*
X37967Y-02640D01*
X38286Y-02508D01*
X38530Y-02264D01*
X38663Y-01945D01*
X38663Y-05537D01*
X38531Y-05218D01*
X38345Y-05032D01*
X38345Y-04323D01*
X38345Y-04104D01*
X38261Y-03902D01*
X38107Y-03747D01*
X37905Y-03663D01*
X37686Y-03663D01*
X37484Y-03747D01*
X37329Y-03901D01*
X37245Y-04103D01*
X37245Y-04322D01*
X37329Y-04524D01*
X37483Y-04679D01*
X37685Y-04763D01*
X37904Y-04763D01*
X38106Y-04679D01*
X38261Y-04525D01*
X38345Y-04323D01*
X38345Y-05032D01*
X38287Y-04974D01*
X37968Y-04841D01*
X37623Y-04841D01*
X37304Y-04973D01*
X37060Y-05217D01*
X36927Y-05536D01*
X36927Y-05881D01*
X37059Y-06200D01*
X37303Y-06444D01*
X37622Y-06577D01*
X37967Y-06577D01*
X38286Y-06445D01*
X38530Y-06201D01*
X38663Y-05882D01*
X38663Y-12559D01*
X36849Y-12559D01*
X36849Y-01882D01*
X36849Y-01663D01*
X36765Y-01461D01*
X36611Y-01306D01*
X36409Y-01222D01*
X36190Y-01222D01*
X35988Y-01306D01*
X35833Y-01460D01*
X35749Y-01662D01*
X35749Y-01881D01*
X35833Y-02083D01*
X35987Y-02238D01*
X36189Y-02322D01*
X36408Y-02322D01*
X36610Y-02238D01*
X36765Y-02084D01*
X36849Y-01882D01*
X36849Y-12559D01*
X36695Y-12559D01*
X36695Y-05193D01*
X36695Y-04848D01*
X36563Y-04529D01*
X36319Y-04285D01*
X36000Y-04152D01*
X35655Y-04152D01*
X35336Y-04284D01*
X35092Y-04528D01*
X34959Y-04847D01*
X34959Y-05192D01*
X35091Y-05511D01*
X35335Y-05755D01*
X35654Y-05888D01*
X35999Y-05888D01*
X36318Y-05756D01*
X36562Y-05512D01*
X36695Y-05193D01*
X36695Y-12559D01*
X36438Y-12559D01*
X36438Y-10241D01*
X36438Y-10154D01*
X36405Y-10074D01*
X36344Y-10012D01*
X36264Y-09979D01*
X36177Y-09979D01*
X36097Y-10012D01*
X36035Y-10073D01*
X36002Y-10153D01*
X36002Y-10240D01*
X36035Y-10320D01*
X36096Y-10382D01*
X36176Y-10415D01*
X36263Y-10415D01*
X36343Y-10382D01*
X36405Y-10321D01*
X36438Y-10241D01*
X36438Y-12559D01*
X36081Y-12559D01*
X36081Y-11752D01*
X36081Y-11635D01*
X36036Y-11527D01*
X35954Y-11444D01*
X35927Y-11432D01*
X35927Y-06186D01*
X35927Y-06099D01*
X35894Y-06019D01*
X35833Y-05957D01*
X35753Y-05924D01*
X35666Y-05924D01*
X35586Y-05957D01*
X35524Y-06018D01*
X35491Y-06098D01*
X35491Y-06185D01*
X35524Y-06265D01*
X35585Y-06327D01*
X35665Y-06360D01*
X35752Y-06360D01*
X35832Y-06327D01*
X35894Y-06266D01*
X35927Y-06186D01*
X35927Y-11432D01*
X35846Y-11399D01*
X35729Y-11399D01*
X35621Y-11444D01*
X35538Y-11526D01*
X35493Y-11634D01*
X35493Y-11751D01*
X35538Y-11859D01*
X35620Y-11942D01*
X35728Y-11987D01*
X35845Y-11987D01*
X35953Y-11942D01*
X36036Y-11860D01*
X36081Y-11752D01*
X36081Y-12559D01*
X36039Y-12559D01*
X36036Y-12551D01*
X35954Y-12468D01*
X35846Y-12423D01*
X35729Y-12423D01*
X35621Y-12468D01*
X35538Y-12550D01*
X35534Y-12559D01*
X34428Y-12559D01*
X34428Y-11319D01*
X34428Y-11202D01*
X34383Y-11094D01*
X34301Y-11011D01*
X34193Y-10966D01*
X34076Y-10966D01*
X33968Y-11011D01*
X33885Y-11093D01*
X33840Y-11201D01*
X33840Y-11318D01*
X33885Y-11426D01*
X33967Y-11509D01*
X34075Y-11554D01*
X34192Y-11554D01*
X34300Y-11509D01*
X34383Y-11427D01*
X34428Y-11319D01*
X34428Y-12559D01*
X33995Y-12559D01*
X33995Y-11752D01*
X33995Y-11635D01*
X33950Y-11527D01*
X33868Y-11444D01*
X33761Y-11399D01*
X33761Y-06186D01*
X33761Y-06099D01*
X33728Y-06019D01*
X33667Y-05957D01*
X33587Y-05924D01*
X33500Y-05924D01*
X33420Y-05957D01*
X33358Y-06018D01*
X33325Y-06098D01*
X33325Y-06185D01*
X33358Y-06265D01*
X33419Y-06327D01*
X33499Y-06360D01*
X33586Y-06360D01*
X33666Y-06327D01*
X33728Y-06266D01*
X33761Y-06186D01*
X33761Y-11399D01*
X33760Y-11399D01*
X33643Y-11399D01*
X33535Y-11444D01*
X33452Y-11526D01*
X33407Y-11634D01*
X33407Y-11751D01*
X33452Y-11859D01*
X33534Y-11942D01*
X33642Y-11987D01*
X33759Y-11987D01*
X33867Y-11942D01*
X33950Y-11860D01*
X33995Y-11752D01*
X33995Y-12559D01*
X33718Y-12559D01*
X33759Y-12461D01*
X33759Y-12344D01*
X33714Y-12236D01*
X33632Y-12153D01*
X33524Y-12108D01*
X33407Y-12108D01*
X33299Y-12153D01*
X33216Y-12235D01*
X33171Y-12343D01*
X33171Y-12460D01*
X33212Y-12559D01*
X33148Y-12559D01*
X33148Y-01882D01*
X33148Y-01663D01*
X33064Y-01461D01*
X32910Y-01306D01*
X32708Y-01222D01*
X32489Y-01222D01*
X32287Y-01306D01*
X32132Y-01460D01*
X32048Y-01662D01*
X32048Y-01881D01*
X32132Y-02083D01*
X32286Y-02238D01*
X32488Y-02322D01*
X32707Y-02322D01*
X32909Y-02238D01*
X33064Y-02084D01*
X33148Y-01882D01*
X33148Y-12559D01*
X31970Y-12559D01*
X31970Y-05882D01*
X31970Y-05537D01*
X31970Y-01945D01*
X31970Y-01600D01*
X31838Y-01281D01*
X31594Y-01037D01*
X31275Y-00904D01*
X30930Y-00904D01*
X30611Y-01036D01*
X30367Y-01280D01*
X30234Y-01599D01*
X30234Y-01944D01*
X30366Y-02263D01*
X30610Y-02507D01*
X30929Y-02640D01*
X31274Y-02640D01*
X31593Y-02508D01*
X31837Y-02264D01*
X31970Y-01945D01*
X31970Y-05537D01*
X31838Y-05218D01*
X31652Y-05032D01*
X31652Y-04323D01*
X31652Y-04104D01*
X31568Y-03902D01*
X31414Y-03747D01*
X31212Y-03663D01*
X30993Y-03663D01*
X30791Y-03747D01*
X30636Y-03901D01*
X30552Y-04103D01*
X30552Y-04322D01*
X30636Y-04524D01*
X30790Y-04679D01*
X30992Y-04763D01*
X31211Y-04763D01*
X31413Y-04679D01*
X31568Y-04525D01*
X31652Y-04323D01*
X31652Y-05032D01*
X31594Y-04974D01*
X31275Y-04841D01*
X30930Y-04841D01*
X30611Y-04973D01*
X30367Y-05217D01*
X30234Y-05536D01*
X30234Y-05881D01*
X30366Y-06200D01*
X30610Y-06444D01*
X30929Y-06577D01*
X31274Y-06577D01*
X31593Y-06445D01*
X31837Y-06201D01*
X31970Y-05882D01*
X31970Y-12559D01*
X31675Y-12559D01*
X31675Y-10241D01*
X31675Y-10154D01*
X31675Y-07761D01*
X31675Y-07674D01*
X31642Y-07594D01*
X31581Y-07532D01*
X31501Y-07499D01*
X31414Y-07499D01*
X31334Y-07532D01*
X31272Y-07593D01*
X31239Y-07673D01*
X31239Y-07760D01*
X31272Y-07840D01*
X31333Y-07902D01*
X31413Y-07935D01*
X31500Y-07935D01*
X31580Y-07902D01*
X31642Y-07841D01*
X31675Y-07761D01*
X31675Y-10154D01*
X31642Y-10074D01*
X31581Y-10012D01*
X31501Y-09979D01*
X31414Y-09979D01*
X31334Y-10012D01*
X31272Y-10073D01*
X31239Y-10153D01*
X31239Y-10240D01*
X31272Y-10320D01*
X31333Y-10382D01*
X31413Y-10415D01*
X31500Y-10415D01*
X31580Y-10382D01*
X31642Y-10321D01*
X31675Y-10241D01*
X31675Y-12559D01*
X31654Y-12559D01*
X31654Y-12892D01*
X31584Y-12822D01*
X31476Y-12777D01*
X31359Y-12777D01*
X31251Y-12822D01*
X31168Y-12904D01*
X31160Y-12923D01*
X31160Y-12657D01*
X31160Y-12540D01*
X31115Y-12432D01*
X31033Y-12349D01*
X30925Y-12304D01*
X30808Y-12304D01*
X30700Y-12349D01*
X30617Y-12431D01*
X30572Y-12539D01*
X30572Y-12656D01*
X30617Y-12764D01*
X30699Y-12847D01*
X30807Y-12892D01*
X30924Y-12892D01*
X31032Y-12847D01*
X31115Y-12765D01*
X31160Y-12657D01*
X31160Y-12923D01*
X31123Y-13012D01*
X31123Y-13129D01*
X31168Y-13237D01*
X31250Y-13320D01*
X31358Y-13365D01*
X31475Y-13365D01*
X31583Y-13320D01*
X31654Y-13249D01*
X31654Y-15136D01*
X31584Y-15066D01*
X31476Y-15021D01*
X31359Y-15021D01*
X31278Y-15054D01*
X31278Y-13839D01*
X31278Y-13722D01*
X31233Y-13614D01*
X31151Y-13531D01*
X31043Y-13486D01*
X30926Y-13486D01*
X30818Y-13531D01*
X30735Y-13613D01*
X30690Y-13721D01*
X30690Y-13838D01*
X30735Y-13946D01*
X30817Y-14029D01*
X30925Y-14074D01*
X31042Y-14074D01*
X31150Y-14029D01*
X31233Y-13947D01*
X31278Y-13839D01*
X31278Y-15054D01*
X31251Y-15066D01*
X31200Y-15116D01*
X31200Y-14823D01*
X31200Y-14706D01*
X31155Y-14598D01*
X31073Y-14515D01*
X30965Y-14470D01*
X30848Y-14470D01*
X30740Y-14515D01*
X30657Y-14597D01*
X30612Y-14705D01*
X30612Y-14822D01*
X30657Y-14930D01*
X30739Y-15013D01*
X30847Y-15058D01*
X30964Y-15058D01*
X31072Y-15013D01*
X31155Y-14931D01*
X31200Y-14823D01*
X31200Y-15116D01*
X31168Y-15148D01*
X31123Y-15256D01*
X31123Y-15373D01*
X31168Y-15481D01*
X31250Y-15564D01*
X31358Y-15609D01*
X31475Y-15609D01*
X31583Y-15564D01*
X31654Y-15493D01*
X31654Y-16103D01*
X30375Y-16103D01*
X30375Y-10753D01*
X30375Y-10666D01*
X30375Y-09768D01*
X30375Y-09681D01*
X30375Y-08233D01*
X30375Y-08146D01*
X30342Y-08066D01*
X30281Y-08004D01*
X30201Y-07971D01*
X30156Y-07971D01*
X30156Y-01882D01*
X30156Y-01663D01*
X30072Y-01461D01*
X29918Y-01306D01*
X29716Y-01222D01*
X29497Y-01222D01*
X29295Y-01306D01*
X29140Y-01460D01*
X29056Y-01662D01*
X29056Y-01881D01*
X29140Y-02083D01*
X29294Y-02238D01*
X29496Y-02322D01*
X29715Y-02322D01*
X29917Y-02238D01*
X30072Y-02084D01*
X30156Y-01882D01*
X30156Y-07971D01*
X30114Y-07971D01*
X30034Y-08004D01*
X30002Y-08035D01*
X30002Y-05193D01*
X30002Y-04848D01*
X29870Y-04529D01*
X29626Y-04285D01*
X29307Y-04152D01*
X28962Y-04152D01*
X28643Y-04284D01*
X28399Y-04528D01*
X28266Y-04847D01*
X28266Y-05192D01*
X28398Y-05511D01*
X28642Y-05755D01*
X28961Y-05888D01*
X29306Y-05888D01*
X29625Y-05756D01*
X29869Y-05512D01*
X30002Y-05193D01*
X30002Y-08035D01*
X29972Y-08065D01*
X29939Y-08145D01*
X29939Y-08232D01*
X29972Y-08312D01*
X30033Y-08374D01*
X30113Y-08407D01*
X30200Y-08407D01*
X30280Y-08374D01*
X30342Y-08313D01*
X30375Y-08233D01*
X30375Y-09681D01*
X30342Y-09601D01*
X30281Y-09539D01*
X30201Y-09506D01*
X30114Y-09506D01*
X30034Y-09539D01*
X29972Y-09600D01*
X29939Y-09680D01*
X29939Y-09767D01*
X29972Y-09847D01*
X30033Y-09909D01*
X30113Y-09942D01*
X30200Y-09942D01*
X30280Y-09909D01*
X30342Y-09848D01*
X30375Y-09768D01*
X30375Y-10666D01*
X30342Y-10586D01*
X30281Y-10524D01*
X30201Y-10491D01*
X30114Y-10491D01*
X30034Y-10524D01*
X29972Y-10585D01*
X29939Y-10665D01*
X29939Y-10752D01*
X29972Y-10832D01*
X30033Y-10894D01*
X30113Y-10927D01*
X30200Y-10927D01*
X30280Y-10894D01*
X30342Y-10833D01*
X30375Y-10753D01*
X30375Y-16103D01*
X30151Y-16103D01*
X30131Y-16054D01*
X30049Y-15971D01*
X29941Y-15926D01*
X29824Y-15926D01*
X29746Y-15958D01*
X29746Y-15398D01*
X29746Y-15311D01*
X29713Y-15231D01*
X29652Y-15169D01*
X29572Y-15136D01*
X29485Y-15136D01*
X29405Y-15169D01*
X29343Y-15230D01*
X29310Y-15310D01*
X29310Y-15397D01*
X29343Y-15477D01*
X29404Y-15539D01*
X29484Y-15572D01*
X29571Y-15572D01*
X29651Y-15539D01*
X29713Y-15478D01*
X29746Y-15398D01*
X29746Y-15958D01*
X29716Y-15971D01*
X29633Y-16053D01*
X29612Y-16103D01*
X28958Y-16103D01*
X28958Y-10753D01*
X28958Y-10666D01*
X28958Y-09768D01*
X28958Y-09681D01*
X28958Y-08233D01*
X28958Y-08146D01*
X28925Y-08066D01*
X28864Y-08004D01*
X28784Y-07971D01*
X28697Y-07971D01*
X28617Y-08004D01*
X28555Y-08065D01*
X28522Y-08145D01*
X28522Y-08232D01*
X28555Y-08312D01*
X28616Y-08374D01*
X28696Y-08407D01*
X28783Y-08407D01*
X28863Y-08374D01*
X28925Y-08313D01*
X28958Y-08233D01*
X28958Y-09681D01*
X28925Y-09601D01*
X28864Y-09539D01*
X28784Y-09506D01*
X28697Y-09506D01*
X28617Y-09539D01*
X28555Y-09600D01*
X28522Y-09680D01*
X28522Y-09767D01*
X28555Y-09847D01*
X28616Y-09909D01*
X28696Y-09942D01*
X28783Y-09942D01*
X28863Y-09909D01*
X28925Y-09848D01*
X28958Y-09768D01*
X28958Y-10666D01*
X28925Y-10586D01*
X28864Y-10524D01*
X28784Y-10491D01*
X28697Y-10491D01*
X28617Y-10524D01*
X28555Y-10585D01*
X28522Y-10665D01*
X28522Y-10752D01*
X28555Y-10832D01*
X28616Y-10894D01*
X28696Y-10927D01*
X28783Y-10927D01*
X28863Y-10894D01*
X28925Y-10833D01*
X28958Y-10753D01*
X28958Y-16103D01*
X28840Y-16103D01*
X28840Y-12682D01*
X28840Y-12595D01*
X28807Y-12515D01*
X28746Y-12453D01*
X28666Y-12420D01*
X28579Y-12420D01*
X28499Y-12453D01*
X28437Y-12514D01*
X28404Y-12594D01*
X28404Y-12681D01*
X28437Y-12761D01*
X28498Y-12823D01*
X28578Y-12856D01*
X28665Y-12856D01*
X28745Y-12823D01*
X28807Y-12762D01*
X28840Y-12682D01*
X28840Y-16103D01*
X28562Y-16103D01*
X28562Y-14626D01*
X28562Y-14509D01*
X28517Y-14401D01*
X28435Y-14318D01*
X28327Y-14273D01*
X28210Y-14273D01*
X28102Y-14318D01*
X28019Y-14400D01*
X27974Y-14508D01*
X27974Y-14625D01*
X28019Y-14733D01*
X28101Y-14816D01*
X28209Y-14861D01*
X28326Y-14861D01*
X28434Y-14816D01*
X28517Y-14734D01*
X28562Y-14626D01*
X28562Y-16103D01*
X27971Y-16103D01*
X27971Y-15138D01*
X27971Y-15021D01*
X27926Y-14913D01*
X27856Y-14842D01*
X27856Y-12682D01*
X27856Y-12595D01*
X27856Y-09453D01*
X27856Y-09366D01*
X27823Y-09286D01*
X27762Y-09224D01*
X27682Y-09191D01*
X27595Y-09191D01*
X27541Y-09213D01*
X27541Y-07249D01*
X27541Y-07162D01*
X27508Y-07082D01*
X27447Y-07020D01*
X27367Y-06987D01*
X27280Y-06987D01*
X27200Y-07020D01*
X27138Y-07081D01*
X27105Y-07161D01*
X27105Y-07248D01*
X27138Y-07328D01*
X27199Y-07390D01*
X27279Y-07423D01*
X27366Y-07423D01*
X27446Y-07390D01*
X27508Y-07329D01*
X27541Y-07249D01*
X27541Y-09213D01*
X27515Y-09224D01*
X27453Y-09285D01*
X27420Y-09365D01*
X27420Y-09452D01*
X27453Y-09532D01*
X27514Y-09594D01*
X27594Y-09627D01*
X27681Y-09627D01*
X27761Y-09594D01*
X27823Y-09533D01*
X27856Y-09453D01*
X27856Y-12595D01*
X27823Y-12515D01*
X27762Y-12453D01*
X27682Y-12420D01*
X27595Y-12420D01*
X27515Y-12453D01*
X27453Y-12514D01*
X27420Y-12594D01*
X27420Y-12681D01*
X27453Y-12761D01*
X27514Y-12823D01*
X27594Y-12856D01*
X27681Y-12856D01*
X27761Y-12823D01*
X27823Y-12762D01*
X27856Y-12682D01*
X27856Y-14842D01*
X27844Y-14830D01*
X27736Y-14785D01*
X27619Y-14785D01*
X27511Y-14830D01*
X27428Y-14912D01*
X27383Y-15020D01*
X27383Y-15137D01*
X27428Y-15245D01*
X27510Y-15328D01*
X27618Y-15373D01*
X27735Y-15373D01*
X27843Y-15328D01*
X27926Y-15246D01*
X27971Y-15138D01*
X27971Y-16103D01*
X26869Y-16103D01*
X26869Y-01674D01*
X26869Y-01479D01*
X26795Y-01298D01*
X26657Y-01160D01*
X26476Y-01085D01*
X26281Y-01085D01*
X26100Y-01159D01*
X25962Y-01297D01*
X25887Y-01478D01*
X25887Y-01673D01*
X25961Y-01854D01*
X26099Y-01992D01*
X26280Y-02067D01*
X26475Y-02067D01*
X26656Y-01993D01*
X26794Y-01855D01*
X26869Y-01674D01*
X26869Y-16103D01*
X26672Y-16103D01*
X26672Y-04626D01*
X26672Y-04431D01*
X26598Y-04250D01*
X26515Y-04167D01*
X26515Y-03021D01*
X26515Y-02888D01*
X26464Y-02765D01*
X26371Y-02671D01*
X26248Y-02620D01*
X26115Y-02620D01*
X25992Y-02671D01*
X25898Y-02764D01*
X25847Y-02887D01*
X25847Y-03020D01*
X25898Y-03143D01*
X25991Y-03237D01*
X26114Y-03288D01*
X26247Y-03288D01*
X26370Y-03237D01*
X26464Y-03144D01*
X26515Y-03021D01*
X26515Y-04167D01*
X26460Y-04112D01*
X26279Y-04037D01*
X26084Y-04037D01*
X25903Y-04111D01*
X25765Y-04249D01*
X25690Y-04430D01*
X25690Y-04625D01*
X25764Y-04806D01*
X25902Y-04944D01*
X26083Y-05019D01*
X26278Y-05019D01*
X26459Y-04945D01*
X26597Y-04807D01*
X26672Y-04626D01*
X26672Y-16103D01*
X26436Y-16103D01*
X26436Y-13445D01*
X26436Y-13328D01*
X26399Y-13239D01*
X26399Y-08233D01*
X26399Y-08146D01*
X26366Y-08066D01*
X26305Y-08004D01*
X26225Y-07971D01*
X26138Y-07971D01*
X26058Y-08004D01*
X25996Y-08065D01*
X25963Y-08145D01*
X25963Y-08232D01*
X25996Y-08312D01*
X26057Y-08374D01*
X26137Y-08407D01*
X26224Y-08407D01*
X26304Y-08374D01*
X26366Y-08313D01*
X26399Y-08233D01*
X26399Y-13239D01*
X26391Y-13220D01*
X26360Y-13188D01*
X26360Y-09729D01*
X26360Y-09642D01*
X26360Y-09217D01*
X26360Y-09130D01*
X26327Y-09050D01*
X26266Y-08988D01*
X26186Y-08955D01*
X26099Y-08955D01*
X26019Y-08988D01*
X25957Y-09049D01*
X25924Y-09129D01*
X25924Y-09216D01*
X25957Y-09296D01*
X26018Y-09358D01*
X26098Y-09391D01*
X26185Y-09391D01*
X26265Y-09358D01*
X26327Y-09297D01*
X26360Y-09217D01*
X26360Y-09642D01*
X26327Y-09562D01*
X26266Y-09500D01*
X26186Y-09467D01*
X26099Y-09467D01*
X26019Y-09500D01*
X25957Y-09561D01*
X25924Y-09641D01*
X25924Y-09728D01*
X25957Y-09808D01*
X26018Y-09870D01*
X26098Y-09903D01*
X26185Y-09903D01*
X26265Y-09870D01*
X26327Y-09809D01*
X26360Y-09729D01*
X26360Y-13188D01*
X26320Y-13148D01*
X26320Y-10753D01*
X26320Y-10666D01*
X26320Y-10241D01*
X26320Y-10154D01*
X26287Y-10074D01*
X26226Y-10012D01*
X26146Y-09979D01*
X26059Y-09979D01*
X25979Y-10012D01*
X25917Y-10073D01*
X25884Y-10153D01*
X25884Y-10240D01*
X25917Y-10320D01*
X25978Y-10382D01*
X26058Y-10415D01*
X26145Y-10415D01*
X26225Y-10382D01*
X26287Y-10321D01*
X26320Y-10241D01*
X26320Y-10666D01*
X26287Y-10586D01*
X26226Y-10524D01*
X26146Y-10491D01*
X26059Y-10491D01*
X25979Y-10524D01*
X25917Y-10585D01*
X25884Y-10665D01*
X25884Y-10752D01*
X25917Y-10832D01*
X25978Y-10894D01*
X26058Y-10927D01*
X26145Y-10927D01*
X26225Y-10894D01*
X26287Y-10833D01*
X26320Y-10753D01*
X26320Y-13148D01*
X26309Y-13137D01*
X26201Y-13092D01*
X26084Y-13092D01*
X25976Y-13137D01*
X25893Y-13219D01*
X25848Y-13327D01*
X25848Y-13444D01*
X25893Y-13552D01*
X25975Y-13635D01*
X26083Y-13680D01*
X26200Y-13680D01*
X26308Y-13635D01*
X26391Y-13553D01*
X26436Y-13445D01*
X26436Y-16103D01*
X25572Y-16103D01*
X25572Y-15398D01*
X25572Y-15311D01*
X25539Y-15231D01*
X25478Y-15169D01*
X25401Y-15137D01*
X25477Y-15106D01*
X25539Y-15045D01*
X25572Y-14965D01*
X25572Y-14878D01*
X25539Y-14798D01*
X25478Y-14736D01*
X25398Y-14703D01*
X25311Y-14703D01*
X25231Y-14736D01*
X25169Y-14797D01*
X25136Y-14877D01*
X25136Y-14964D01*
X25169Y-15044D01*
X25230Y-15106D01*
X25306Y-15137D01*
X25231Y-15169D01*
X25169Y-15230D01*
X25136Y-15310D01*
X25136Y-15397D01*
X25169Y-15477D01*
X25230Y-15539D01*
X25310Y-15572D01*
X25397Y-15572D01*
X25477Y-15539D01*
X25539Y-15478D01*
X25572Y-15398D01*
X25572Y-16103D01*
X24940Y-16103D01*
X24940Y-06957D01*
X24940Y-06824D01*
X24940Y-06169D01*
X24940Y-06036D01*
X24889Y-05913D01*
X24796Y-05819D01*
X24704Y-05780D01*
X24704Y-04626D01*
X24704Y-04431D01*
X24630Y-04250D01*
X24547Y-04167D01*
X24547Y-03021D01*
X24547Y-02888D01*
X24507Y-02791D01*
X24507Y-01674D01*
X24507Y-01479D01*
X24433Y-01298D01*
X24295Y-01160D01*
X24114Y-01085D01*
X23919Y-01085D01*
X23738Y-01159D01*
X23600Y-01297D01*
X23525Y-01478D01*
X23525Y-01673D01*
X23599Y-01854D01*
X23737Y-01992D01*
X23918Y-02067D01*
X24113Y-02067D01*
X24294Y-01993D01*
X24432Y-01855D01*
X24507Y-01674D01*
X24507Y-02791D01*
X24496Y-02765D01*
X24403Y-02671D01*
X24280Y-02620D01*
X24147Y-02620D01*
X24024Y-02671D01*
X23930Y-02764D01*
X23879Y-02887D01*
X23879Y-03020D01*
X23930Y-03143D01*
X24023Y-03237D01*
X24146Y-03288D01*
X24279Y-03288D01*
X24402Y-03237D01*
X24496Y-03144D01*
X24547Y-03021D01*
X24547Y-04167D01*
X24492Y-04112D01*
X24311Y-04037D01*
X24116Y-04037D01*
X23935Y-04111D01*
X23797Y-04249D01*
X23722Y-04430D01*
X23722Y-04625D01*
X23796Y-04806D01*
X23934Y-04944D01*
X24115Y-05019D01*
X24310Y-05019D01*
X24491Y-04945D01*
X24629Y-04807D01*
X24704Y-04626D01*
X24704Y-05780D01*
X24673Y-05768D01*
X24540Y-05768D01*
X24417Y-05819D01*
X24323Y-05912D01*
X24272Y-06035D01*
X24272Y-06168D01*
X24323Y-06291D01*
X24416Y-06385D01*
X24539Y-06436D01*
X24672Y-06436D01*
X24795Y-06385D01*
X24889Y-06292D01*
X24940Y-06169D01*
X24940Y-06824D01*
X24889Y-06701D01*
X24796Y-06607D01*
X24673Y-06556D01*
X24540Y-06556D01*
X24417Y-06607D01*
X24323Y-06700D01*
X24272Y-06823D01*
X24272Y-06956D01*
X24323Y-07079D01*
X24416Y-07173D01*
X24539Y-07224D01*
X24672Y-07224D01*
X24795Y-07173D01*
X24889Y-07080D01*
X24940Y-06957D01*
X24940Y-16103D01*
X24706Y-16103D01*
X24706Y-10438D01*
X24706Y-10351D01*
X24673Y-10271D01*
X24627Y-10224D01*
X24627Y-09847D01*
X24627Y-09760D01*
X24594Y-09680D01*
X24533Y-09618D01*
X24453Y-09585D01*
X24366Y-09585D01*
X24286Y-09618D01*
X24224Y-09679D01*
X24191Y-09759D01*
X24191Y-09846D01*
X24224Y-09926D01*
X24285Y-09988D01*
X24365Y-10021D01*
X24452Y-10021D01*
X24532Y-09988D01*
X24594Y-09927D01*
X24627Y-09847D01*
X24627Y-10224D01*
X24612Y-10209D01*
X24532Y-10176D01*
X24445Y-10176D01*
X24365Y-10209D01*
X24303Y-10270D01*
X24270Y-10350D01*
X24270Y-10437D01*
X24303Y-10517D01*
X24364Y-10579D01*
X24444Y-10612D01*
X24531Y-10612D01*
X24611Y-10579D01*
X24673Y-10518D01*
X24706Y-10438D01*
X24706Y-16103D01*
X24664Y-16103D01*
X24664Y-11831D01*
X24664Y-11714D01*
X24619Y-11606D01*
X24537Y-11523D01*
X24429Y-11478D01*
X24352Y-11478D01*
X24352Y-10989D01*
X24352Y-10902D01*
X24319Y-10822D01*
X24258Y-10760D01*
X24178Y-10727D01*
X24091Y-10727D01*
X24011Y-10760D01*
X23949Y-10821D01*
X23916Y-10901D01*
X23916Y-10988D01*
X23949Y-11068D01*
X24010Y-11130D01*
X24090Y-11163D01*
X24177Y-11163D01*
X24257Y-11130D01*
X24319Y-11069D01*
X24352Y-10989D01*
X24352Y-11478D01*
X24312Y-11478D01*
X24204Y-11523D01*
X24121Y-11605D01*
X24076Y-11713D01*
X24076Y-11830D01*
X24121Y-11938D01*
X24203Y-12021D01*
X24311Y-12066D01*
X24428Y-12066D01*
X24536Y-12021D01*
X24619Y-11939D01*
X24664Y-11831D01*
X24664Y-16103D01*
X23998Y-16103D01*
X23998Y-15713D01*
X23998Y-15626D01*
X23965Y-15546D01*
X23904Y-15484D01*
X23824Y-15451D01*
X23737Y-15451D01*
X23657Y-15484D01*
X23595Y-15545D01*
X23562Y-15625D01*
X23562Y-15712D01*
X23595Y-15792D01*
X23656Y-15854D01*
X23736Y-15887D01*
X23823Y-15887D01*
X23903Y-15854D01*
X23965Y-15793D01*
X23998Y-15713D01*
X23998Y-16103D01*
X23497Y-16103D01*
X23470Y-16075D01*
X23415Y-16052D01*
X23415Y-10917D01*
X23415Y-10870D01*
X23415Y-09630D01*
X23397Y-09587D01*
X23364Y-09553D01*
X23321Y-09535D01*
X23274Y-09535D01*
X22856Y-09535D01*
X22856Y-07249D01*
X22856Y-07162D01*
X22823Y-07082D01*
X22762Y-07020D01*
X22682Y-06987D01*
X22595Y-06987D01*
X22515Y-07020D01*
X22453Y-07081D01*
X22420Y-07161D01*
X22420Y-07248D01*
X22453Y-07328D01*
X22514Y-07390D01*
X22594Y-07423D01*
X22681Y-07423D01*
X22761Y-07390D01*
X22823Y-07329D01*
X22856Y-07249D01*
X22856Y-09535D01*
X22265Y-09535D01*
X22265Y-07249D01*
X22265Y-07162D01*
X22232Y-07082D01*
X22171Y-07020D01*
X22091Y-06987D01*
X22004Y-06987D01*
X21924Y-07020D01*
X21862Y-07081D01*
X21829Y-07161D01*
X21829Y-07248D01*
X21862Y-07328D01*
X21923Y-07390D01*
X22003Y-07423D01*
X22090Y-07423D01*
X22170Y-07390D01*
X22232Y-07329D01*
X22265Y-07249D01*
X22265Y-09535D01*
X22147Y-09535D01*
X22147Y-08902D01*
X22147Y-08815D01*
X22114Y-08735D01*
X22053Y-08673D01*
X21973Y-08640D01*
X21886Y-08640D01*
X21806Y-08673D01*
X21744Y-08734D01*
X21711Y-08814D01*
X21711Y-08901D01*
X21744Y-08981D01*
X21805Y-09043D01*
X21885Y-09076D01*
X21972Y-09076D01*
X22052Y-09043D01*
X22114Y-08982D01*
X22147Y-08902D01*
X22147Y-09535D01*
X22034Y-09535D01*
X21991Y-09553D01*
X21957Y-09586D01*
X21939Y-09629D01*
X21939Y-09676D01*
X21939Y-10916D01*
X21957Y-10959D01*
X21990Y-10993D01*
X22033Y-11011D01*
X22080Y-11011D01*
X23320Y-11011D01*
X23363Y-10993D01*
X23397Y-10960D01*
X23415Y-10917D01*
X23415Y-16052D01*
X23407Y-16049D01*
X23407Y-11816D01*
X23407Y-11729D01*
X23374Y-11649D01*
X23313Y-11587D01*
X23233Y-11554D01*
X23146Y-11554D01*
X23066Y-11587D01*
X23004Y-11648D01*
X22971Y-11728D01*
X22971Y-11815D01*
X23004Y-11895D01*
X23065Y-11957D01*
X23145Y-11990D01*
X23232Y-11990D01*
X23312Y-11957D01*
X23374Y-11896D01*
X23407Y-11816D01*
X23407Y-16049D01*
X23390Y-16042D01*
X23303Y-16042D01*
X23223Y-16075D01*
X23194Y-16103D01*
X22971Y-16103D01*
X22971Y-13089D01*
X22971Y-12972D01*
X22926Y-12864D01*
X22844Y-12781D01*
X22736Y-12736D01*
X22619Y-12736D01*
X22511Y-12781D01*
X22428Y-12863D01*
X22383Y-12971D01*
X22383Y-13088D01*
X22428Y-13196D01*
X22510Y-13279D01*
X22618Y-13324D01*
X22735Y-13324D01*
X22843Y-13279D01*
X22926Y-13197D01*
X22971Y-13089D01*
X22971Y-16103D01*
X22580Y-16103D01*
X22580Y-15398D01*
X22580Y-15311D01*
X22547Y-15231D01*
X22486Y-15169D01*
X22406Y-15136D01*
X22319Y-15136D01*
X22275Y-15153D01*
X22305Y-15083D01*
X22305Y-14996D01*
X22272Y-14916D01*
X22211Y-14854D01*
X22147Y-14827D01*
X22147Y-11816D01*
X22147Y-11729D01*
X22114Y-11649D01*
X22053Y-11587D01*
X21973Y-11554D01*
X21886Y-11554D01*
X21806Y-11587D01*
X21744Y-11648D01*
X21711Y-11728D01*
X21711Y-11815D01*
X21744Y-11895D01*
X21805Y-11957D01*
X21885Y-11990D01*
X21972Y-11990D01*
X22052Y-11957D01*
X22114Y-11896D01*
X22147Y-11816D01*
X22147Y-14827D01*
X22131Y-14821D01*
X22044Y-14821D01*
X21964Y-14854D01*
X21902Y-14915D01*
X21869Y-14995D01*
X21869Y-15082D01*
X21902Y-15162D01*
X21963Y-15224D01*
X22043Y-15257D01*
X22130Y-15257D01*
X22173Y-15239D01*
X22144Y-15310D01*
X22144Y-15397D01*
X22177Y-15477D01*
X22238Y-15539D01*
X22318Y-15572D01*
X22405Y-15572D01*
X22485Y-15539D01*
X22547Y-15478D01*
X22580Y-15398D01*
X22580Y-16103D01*
X21478Y-16103D01*
X21478Y-09611D01*
X21478Y-09524D01*
X21445Y-09444D01*
X21384Y-09382D01*
X21357Y-09370D01*
X21357Y-01674D01*
X21357Y-01479D01*
X21283Y-01298D01*
X21145Y-01160D01*
X20964Y-01085D01*
X20769Y-01085D01*
X20588Y-01159D01*
X20450Y-01297D01*
X20375Y-01478D01*
X20375Y-01673D01*
X20449Y-01854D01*
X20587Y-01992D01*
X20768Y-02067D01*
X20963Y-02067D01*
X21144Y-01993D01*
X21282Y-01855D01*
X21357Y-01674D01*
X21357Y-09370D01*
X21304Y-09349D01*
X21217Y-09349D01*
X21160Y-09372D01*
X21160Y-04626D01*
X21160Y-04431D01*
X21086Y-04250D01*
X21003Y-04167D01*
X21003Y-03021D01*
X21003Y-02888D01*
X20952Y-02765D01*
X20859Y-02671D01*
X20736Y-02620D01*
X20603Y-02620D01*
X20480Y-02671D01*
X20386Y-02764D01*
X20335Y-02887D01*
X20335Y-03020D01*
X20386Y-03143D01*
X20479Y-03237D01*
X20602Y-03288D01*
X20735Y-03288D01*
X20858Y-03237D01*
X20952Y-03144D01*
X21003Y-03021D01*
X21003Y-04167D01*
X20948Y-04112D01*
X20767Y-04037D01*
X20572Y-04037D01*
X20391Y-04111D01*
X20253Y-04249D01*
X20178Y-04430D01*
X20178Y-04625D01*
X20252Y-04806D01*
X20390Y-04944D01*
X20571Y-05019D01*
X20766Y-05019D01*
X20947Y-04945D01*
X21085Y-04807D01*
X21160Y-04626D01*
X21160Y-09372D01*
X21137Y-09382D01*
X21075Y-09443D01*
X21042Y-09523D01*
X21042Y-09610D01*
X21075Y-09690D01*
X21136Y-09752D01*
X21216Y-09785D01*
X21303Y-09785D01*
X21383Y-09752D01*
X21445Y-09691D01*
X21478Y-09611D01*
X21478Y-16103D01*
X21003Y-16103D01*
X21003Y-06957D01*
X21003Y-06824D01*
X21003Y-06169D01*
X21003Y-06036D01*
X20952Y-05913D01*
X20859Y-05819D01*
X20736Y-05768D01*
X20603Y-05768D01*
X20480Y-05819D01*
X20386Y-05912D01*
X20335Y-06035D01*
X20335Y-06168D01*
X20386Y-06291D01*
X20479Y-06385D01*
X20602Y-06436D01*
X20735Y-06436D01*
X20858Y-06385D01*
X20952Y-06292D01*
X21003Y-06169D01*
X21003Y-06824D01*
X20952Y-06701D01*
X20859Y-06607D01*
X20736Y-06556D01*
X20603Y-06556D01*
X20480Y-06607D01*
X20386Y-06700D01*
X20335Y-06823D01*
X20335Y-06956D01*
X20386Y-07079D01*
X20479Y-07173D01*
X20602Y-07224D01*
X20735Y-07224D01*
X20858Y-07173D01*
X20952Y-07080D01*
X21003Y-06957D01*
X21003Y-16103D01*
X20927Y-16103D01*
X20927Y-16059D01*
X20927Y-14847D01*
X20927Y-14760D01*
X20894Y-14680D01*
X20887Y-14672D01*
X20887Y-11658D01*
X20887Y-11571D01*
X20854Y-11491D01*
X20793Y-11429D01*
X20713Y-11396D01*
X20626Y-11396D01*
X20546Y-11429D01*
X20484Y-11490D01*
X20454Y-11562D01*
X20454Y-10595D01*
X20454Y-10508D01*
X20421Y-10428D01*
X20360Y-10366D01*
X20280Y-10333D01*
X20193Y-10333D01*
X20113Y-10366D01*
X20051Y-10427D01*
X20018Y-10507D01*
X20018Y-10569D01*
X19957Y-10569D01*
X19877Y-10602D01*
X19864Y-10614D01*
X19864Y-09099D01*
X19864Y-09012D01*
X19831Y-08932D01*
X19770Y-08870D01*
X19690Y-08837D01*
X19603Y-08837D01*
X19523Y-08870D01*
X19461Y-08931D01*
X19428Y-09011D01*
X19428Y-09098D01*
X19461Y-09178D01*
X19522Y-09240D01*
X19602Y-09273D01*
X19689Y-09273D01*
X19769Y-09240D01*
X19831Y-09179D01*
X19864Y-09099D01*
X19864Y-10614D01*
X19815Y-10663D01*
X19782Y-10743D01*
X19782Y-10830D01*
X19815Y-10910D01*
X19876Y-10972D01*
X19956Y-11005D01*
X20043Y-11005D01*
X20123Y-10972D01*
X20185Y-10911D01*
X20218Y-10831D01*
X20218Y-10769D01*
X20279Y-10769D01*
X20359Y-10736D01*
X20421Y-10675D01*
X20454Y-10595D01*
X20454Y-11562D01*
X20451Y-11570D01*
X20451Y-11657D01*
X20484Y-11737D01*
X20545Y-11799D01*
X20625Y-11832D01*
X20712Y-11832D01*
X20792Y-11799D01*
X20854Y-11738D01*
X20887Y-11658D01*
X20887Y-14672D01*
X20833Y-14618D01*
X20759Y-14587D01*
X20815Y-14533D01*
X20848Y-14453D01*
X20848Y-14366D01*
X20845Y-14358D01*
X20845Y-13091D01*
X20845Y-12974D01*
X20800Y-12866D01*
X20718Y-12783D01*
X20610Y-12738D01*
X20493Y-12738D01*
X20385Y-12783D01*
X20302Y-12865D01*
X20257Y-12973D01*
X20257Y-13090D01*
X20302Y-13198D01*
X20384Y-13281D01*
X20492Y-13326D01*
X20609Y-13326D01*
X20717Y-13281D01*
X20800Y-13199D01*
X20845Y-13091D01*
X20845Y-14358D01*
X20815Y-14286D01*
X20754Y-14224D01*
X20674Y-14191D01*
X20587Y-14191D01*
X20507Y-14224D01*
X20445Y-14285D01*
X20412Y-14365D01*
X20412Y-14452D01*
X20445Y-14532D01*
X20506Y-14594D01*
X20579Y-14624D01*
X20524Y-14679D01*
X20491Y-14759D01*
X20491Y-14846D01*
X20524Y-14926D01*
X20585Y-14988D01*
X20665Y-15021D01*
X20752Y-15021D01*
X20832Y-14988D01*
X20894Y-14927D01*
X20927Y-14847D01*
X20927Y-16059D01*
X20894Y-15979D01*
X20848Y-15932D01*
X20848Y-15438D01*
X20848Y-15351D01*
X20815Y-15271D01*
X20754Y-15209D01*
X20674Y-15176D01*
X20587Y-15176D01*
X20507Y-15209D01*
X20445Y-15270D01*
X20412Y-15350D01*
X20412Y-15437D01*
X20445Y-15517D01*
X20506Y-15579D01*
X20586Y-15612D01*
X20673Y-15612D01*
X20753Y-15579D01*
X20815Y-15518D01*
X20848Y-15438D01*
X20848Y-15932D01*
X20833Y-15917D01*
X20753Y-15884D01*
X20666Y-15884D01*
X20586Y-15917D01*
X20524Y-15978D01*
X20491Y-16058D01*
X20491Y-16103D01*
X19588Y-16103D01*
X19588Y-10950D01*
X19588Y-10863D01*
X19555Y-10783D01*
X19494Y-10721D01*
X19414Y-10688D01*
X19327Y-10688D01*
X19247Y-10721D01*
X19192Y-10775D01*
X19192Y-04626D01*
X19192Y-04431D01*
X19118Y-04250D01*
X19035Y-04167D01*
X19035Y-03021D01*
X19035Y-02888D01*
X18995Y-02791D01*
X18995Y-01674D01*
X18995Y-01479D01*
X18921Y-01298D01*
X18783Y-01160D01*
X18602Y-01085D01*
X18407Y-01085D01*
X18226Y-01159D01*
X18088Y-01297D01*
X18013Y-01478D01*
X18013Y-01673D01*
X18087Y-01854D01*
X18225Y-01992D01*
X18406Y-02067D01*
X18601Y-02067D01*
X18782Y-01993D01*
X18920Y-01855D01*
X18995Y-01674D01*
X18995Y-02791D01*
X18984Y-02765D01*
X18891Y-02671D01*
X18768Y-02620D01*
X18635Y-02620D01*
X18512Y-02671D01*
X18418Y-02764D01*
X18367Y-02887D01*
X18367Y-03020D01*
X18418Y-03143D01*
X18511Y-03237D01*
X18634Y-03288D01*
X18767Y-03288D01*
X18890Y-03237D01*
X18984Y-03144D01*
X19035Y-03021D01*
X19035Y-04167D01*
X18980Y-04112D01*
X18799Y-04037D01*
X18604Y-04037D01*
X18423Y-04111D01*
X18285Y-04249D01*
X18210Y-04430D01*
X18210Y-04625D01*
X18284Y-04806D01*
X18422Y-04944D01*
X18603Y-05019D01*
X18798Y-05019D01*
X18979Y-04945D01*
X19117Y-04807D01*
X19192Y-04626D01*
X19192Y-10775D01*
X19185Y-10782D01*
X19152Y-10862D01*
X19152Y-10949D01*
X19185Y-11029D01*
X19246Y-11091D01*
X19326Y-11124D01*
X19413Y-11124D01*
X19493Y-11091D01*
X19555Y-11030D01*
X19588Y-10950D01*
X19588Y-16103D01*
X19470Y-16103D01*
X19470Y-14257D01*
X19470Y-14170D01*
X19437Y-14090D01*
X19376Y-14028D01*
X19296Y-13995D01*
X19209Y-13995D01*
X19129Y-14028D01*
X19067Y-14089D01*
X19034Y-14169D01*
X19034Y-14256D01*
X19067Y-14336D01*
X19128Y-14398D01*
X19208Y-14431D01*
X19295Y-14431D01*
X19375Y-14398D01*
X19437Y-14337D01*
X19470Y-14257D01*
X19470Y-16103D01*
X19467Y-16103D01*
X19414Y-16081D01*
X19327Y-16081D01*
X19273Y-16103D01*
X18328Y-16103D01*
X18328Y-11894D01*
X18328Y-11807D01*
X18328Y-11107D01*
X18328Y-11020D01*
X18328Y-09926D01*
X18328Y-09839D01*
X18328Y-08036D01*
X18328Y-07949D01*
X18295Y-07869D01*
X18234Y-07807D01*
X18154Y-07774D01*
X18067Y-07774D01*
X17987Y-07807D01*
X17925Y-07868D01*
X17892Y-07948D01*
X17892Y-08035D01*
X17925Y-08115D01*
X17986Y-08177D01*
X18066Y-08210D01*
X18153Y-08210D01*
X18233Y-08177D01*
X18295Y-08116D01*
X18328Y-08036D01*
X18328Y-09839D01*
X18295Y-09759D01*
X18234Y-09697D01*
X18154Y-09664D01*
X18067Y-09664D01*
X18013Y-09686D01*
X18013Y-09375D01*
X18013Y-09288D01*
X17980Y-09208D01*
X17919Y-09146D01*
X17839Y-09113D01*
X17752Y-09113D01*
X17672Y-09146D01*
X17610Y-09207D01*
X17577Y-09287D01*
X17577Y-09374D01*
X17610Y-09454D01*
X17671Y-09516D01*
X17751Y-09549D01*
X17838Y-09549D01*
X17918Y-09516D01*
X17980Y-09455D01*
X18013Y-09375D01*
X18013Y-09686D01*
X17987Y-09697D01*
X17925Y-09758D01*
X17892Y-09838D01*
X17892Y-09925D01*
X17925Y-10005D01*
X17986Y-10067D01*
X18066Y-10100D01*
X18153Y-10100D01*
X18233Y-10067D01*
X18295Y-10006D01*
X18328Y-09926D01*
X18328Y-11020D01*
X18295Y-10940D01*
X18234Y-10878D01*
X18154Y-10845D01*
X18067Y-10845D01*
X17987Y-10878D01*
X17925Y-10939D01*
X17892Y-11019D01*
X17892Y-11106D01*
X17925Y-11186D01*
X17986Y-11248D01*
X18066Y-11281D01*
X18153Y-11281D01*
X18233Y-11248D01*
X18295Y-11187D01*
X18328Y-11107D01*
X18328Y-11807D01*
X18295Y-11727D01*
X18234Y-11665D01*
X18154Y-11632D01*
X18067Y-11632D01*
X17987Y-11665D01*
X17925Y-11726D01*
X17892Y-11806D01*
X17892Y-11893D01*
X17925Y-11973D01*
X17986Y-12035D01*
X18066Y-12068D01*
X18153Y-12068D01*
X18233Y-12035D01*
X18295Y-11974D01*
X18328Y-11894D01*
X18328Y-16103D01*
X17960Y-16103D01*
X17960Y-12650D01*
X17462Y-11380D01*
X17462Y-06343D01*
X17462Y-06256D01*
X17429Y-06176D01*
X17368Y-06114D01*
X17288Y-06081D01*
X17201Y-06081D01*
X17121Y-06114D01*
X17059Y-06175D01*
X17026Y-06255D01*
X17026Y-06342D01*
X17059Y-06422D01*
X17120Y-06484D01*
X17200Y-06517D01*
X17287Y-06517D01*
X17367Y-06484D01*
X17429Y-06423D01*
X17462Y-06343D01*
X17462Y-11380D01*
X17423Y-11281D01*
X17423Y-09375D01*
X17423Y-09288D01*
X17390Y-09208D01*
X17329Y-09146D01*
X17249Y-09113D01*
X17162Y-09113D01*
X17082Y-09146D01*
X17020Y-09207D01*
X16987Y-09287D01*
X16987Y-09374D01*
X17020Y-09454D01*
X17081Y-09516D01*
X17161Y-09549D01*
X17248Y-09549D01*
X17328Y-09516D01*
X17390Y-09455D01*
X17423Y-09375D01*
X17423Y-11281D01*
X15922Y-07455D01*
X15257Y-08024D01*
X15257Y-04453D01*
X15257Y-04366D01*
X15224Y-04286D01*
X15163Y-04224D01*
X15083Y-04191D01*
X14996Y-04191D01*
X14916Y-04224D01*
X14854Y-04285D01*
X14821Y-04365D01*
X14821Y-04433D01*
X14808Y-04428D01*
X14721Y-04428D01*
X14641Y-04461D01*
X14579Y-04522D01*
X14546Y-04602D01*
X14546Y-04634D01*
X14516Y-04562D01*
X14455Y-04500D01*
X14375Y-04467D01*
X14288Y-04467D01*
X14234Y-04489D01*
X14234Y-01107D01*
X14234Y-01020D01*
X14201Y-00940D01*
X14140Y-00878D01*
X14060Y-00845D01*
X13973Y-00845D01*
X13893Y-00878D01*
X13831Y-00939D01*
X13798Y-01019D01*
X13798Y-01106D01*
X13831Y-01186D01*
X13892Y-01248D01*
X13972Y-01281D01*
X14059Y-01281D01*
X14139Y-01248D01*
X14201Y-01187D01*
X14234Y-01107D01*
X14234Y-04489D01*
X14208Y-04500D01*
X14146Y-04561D01*
X14113Y-04641D01*
X14113Y-04728D01*
X14146Y-04808D01*
X14207Y-04870D01*
X14287Y-04903D01*
X14374Y-04903D01*
X14454Y-04870D01*
X14516Y-04809D01*
X14549Y-04729D01*
X14549Y-04696D01*
X14579Y-04769D01*
X14640Y-04831D01*
X14720Y-04864D01*
X14807Y-04864D01*
X14887Y-04831D01*
X14949Y-04770D01*
X14982Y-04690D01*
X14982Y-04621D01*
X14995Y-04627D01*
X15082Y-04627D01*
X15162Y-04594D01*
X15224Y-04533D01*
X15257Y-04453D01*
X15257Y-08024D01*
X14982Y-08259D01*
X14982Y-06107D01*
X14982Y-06020D01*
X14949Y-05940D01*
X14888Y-05878D01*
X14808Y-05845D01*
X14721Y-05845D01*
X14641Y-05878D01*
X14579Y-05939D01*
X14546Y-06019D01*
X14546Y-06081D01*
X14524Y-06081D01*
X14509Y-06087D01*
X14509Y-05674D01*
X14509Y-05587D01*
X14476Y-05507D01*
X14415Y-05445D01*
X14335Y-05412D01*
X14248Y-05412D01*
X14168Y-05445D01*
X14106Y-05506D01*
X14073Y-05586D01*
X14073Y-05673D01*
X14079Y-05688D01*
X14012Y-05688D01*
X13932Y-05721D01*
X13879Y-05773D01*
X13879Y-04296D01*
X13879Y-04209D01*
X13846Y-04129D01*
X13785Y-04067D01*
X13705Y-04034D01*
X13618Y-04034D01*
X13538Y-04067D01*
X13476Y-04128D01*
X13443Y-04208D01*
X13443Y-04295D01*
X13453Y-04319D01*
X13430Y-04310D01*
X13343Y-04310D01*
X13263Y-04343D01*
X13248Y-04357D01*
X13195Y-04303D01*
X13115Y-04270D01*
X13028Y-04270D01*
X12948Y-04303D01*
X12886Y-04364D01*
X12853Y-04444D01*
X12853Y-04531D01*
X12886Y-04611D01*
X12947Y-04673D01*
X13027Y-04706D01*
X13114Y-04706D01*
X13194Y-04673D01*
X13208Y-04658D01*
X13262Y-04713D01*
X13342Y-04746D01*
X13429Y-04746D01*
X13509Y-04713D01*
X13571Y-04652D01*
X13604Y-04572D01*
X13604Y-04485D01*
X13593Y-04460D01*
X13617Y-04470D01*
X13704Y-04470D01*
X13784Y-04437D01*
X13846Y-04376D01*
X13879Y-04296D01*
X13879Y-05773D01*
X13870Y-05782D01*
X13837Y-05862D01*
X13837Y-05866D01*
X13784Y-05845D01*
X13697Y-05845D01*
X13617Y-05878D01*
X13555Y-05939D01*
X13522Y-06019D01*
X13522Y-06106D01*
X13555Y-06186D01*
X13616Y-06248D01*
X13696Y-06281D01*
X13783Y-06281D01*
X13863Y-06248D01*
X13925Y-06187D01*
X13958Y-06107D01*
X13958Y-06102D01*
X14011Y-06124D01*
X14098Y-06124D01*
X14178Y-06091D01*
X14240Y-06030D01*
X14273Y-05950D01*
X14273Y-05863D01*
X14266Y-05848D01*
X14334Y-05848D01*
X14414Y-05815D01*
X14476Y-05754D01*
X14509Y-05674D01*
X14509Y-06087D01*
X14444Y-06114D01*
X14382Y-06175D01*
X14349Y-06255D01*
X14349Y-06342D01*
X14382Y-06422D01*
X14443Y-06484D01*
X14523Y-06517D01*
X14610Y-06517D01*
X14690Y-06484D01*
X14752Y-06423D01*
X14785Y-06343D01*
X14785Y-06281D01*
X14807Y-06281D01*
X14887Y-06248D01*
X14949Y-06187D01*
X14982Y-06107D01*
X14982Y-08259D01*
X14667Y-08528D01*
X14667Y-07485D01*
X14667Y-07398D01*
X14634Y-07318D01*
X14573Y-07256D01*
X14493Y-07223D01*
X14406Y-07223D01*
X14326Y-07256D01*
X14264Y-07317D01*
X14231Y-07397D01*
X14231Y-07484D01*
X14264Y-07564D01*
X14325Y-07626D01*
X14405Y-07659D01*
X14492Y-07659D01*
X14572Y-07626D01*
X14634Y-07565D01*
X14667Y-07485D01*
X14667Y-08528D01*
X13960Y-09134D01*
X13932Y-09146D01*
X13870Y-09207D01*
X13867Y-09214D01*
X13013Y-09944D01*
X13013Y-09375D01*
X13013Y-09288D01*
X12980Y-09208D01*
X12919Y-09146D01*
X12839Y-09113D01*
X12752Y-09113D01*
X12698Y-09135D01*
X12698Y-06343D01*
X12698Y-06256D01*
X12698Y-01107D01*
X12698Y-01020D01*
X12665Y-00940D01*
X12604Y-00878D01*
X12524Y-00845D01*
X12437Y-00845D01*
X12357Y-00878D01*
X12295Y-00939D01*
X12263Y-01015D01*
X12232Y-00940D01*
X12171Y-00878D01*
X12091Y-00845D01*
X12004Y-00845D01*
X11924Y-00878D01*
X11862Y-00939D01*
X11829Y-01019D01*
X11829Y-01106D01*
X11862Y-01186D01*
X11923Y-01248D01*
X12003Y-01281D01*
X12090Y-01281D01*
X12170Y-01248D01*
X12232Y-01187D01*
X12263Y-01110D01*
X12295Y-01186D01*
X12356Y-01248D01*
X12436Y-01281D01*
X12523Y-01281D01*
X12603Y-01248D01*
X12665Y-01187D01*
X12698Y-01107D01*
X12698Y-06256D01*
X12665Y-06176D01*
X12659Y-06169D01*
X12659Y-05556D01*
X12659Y-05469D01*
X12626Y-05389D01*
X12565Y-05327D01*
X12485Y-05294D01*
X12398Y-05294D01*
X12318Y-05327D01*
X12256Y-05388D01*
X12223Y-05468D01*
X12223Y-05555D01*
X12256Y-05635D01*
X12317Y-05697D01*
X12397Y-05730D01*
X12484Y-05730D01*
X12564Y-05697D01*
X12626Y-05636D01*
X12659Y-05556D01*
X12659Y-06169D01*
X12604Y-06114D01*
X12524Y-06081D01*
X12437Y-06081D01*
X12357Y-06114D01*
X12295Y-06175D01*
X12262Y-06255D01*
X12262Y-06342D01*
X12295Y-06422D01*
X12356Y-06484D01*
X12436Y-06517D01*
X12523Y-06517D01*
X12603Y-06484D01*
X12665Y-06423D01*
X12698Y-06343D01*
X12698Y-09135D01*
X12672Y-09146D01*
X12610Y-09207D01*
X12577Y-09287D01*
X12577Y-09374D01*
X12610Y-09454D01*
X12671Y-09516D01*
X12751Y-09549D01*
X12838Y-09549D01*
X12918Y-09516D01*
X12980Y-09455D01*
X13013Y-09375D01*
X13013Y-09944D01*
X12383Y-10483D01*
X12383Y-09493D01*
X12383Y-09406D01*
X12350Y-09326D01*
X12289Y-09264D01*
X12209Y-09231D01*
X12122Y-09231D01*
X12042Y-09264D01*
X11980Y-09325D01*
X11950Y-09397D01*
X11950Y-06304D01*
X11950Y-06217D01*
X11917Y-06137D01*
X11856Y-06075D01*
X11776Y-06042D01*
X11689Y-06042D01*
X11609Y-06075D01*
X11547Y-06136D01*
X11514Y-06216D01*
X11514Y-06303D01*
X11547Y-06383D01*
X11608Y-06445D01*
X11688Y-06478D01*
X11775Y-06478D01*
X11855Y-06445D01*
X11917Y-06384D01*
X11950Y-06304D01*
X11950Y-09397D01*
X11947Y-09405D01*
X11947Y-09492D01*
X11980Y-09572D01*
X12041Y-09634D01*
X12121Y-09667D01*
X12208Y-09667D01*
X12288Y-09634D01*
X12350Y-09573D01*
X12383Y-09493D01*
X12383Y-10483D01*
X11996Y-10815D01*
X11973Y-10806D01*
X11886Y-10806D01*
X11832Y-10828D01*
X11832Y-07524D01*
X11832Y-07437D01*
X11799Y-07357D01*
X11738Y-07295D01*
X11658Y-07262D01*
X11571Y-07262D01*
X11491Y-07295D01*
X11429Y-07356D01*
X11396Y-07436D01*
X11396Y-07523D01*
X11429Y-07603D01*
X11490Y-07665D01*
X11570Y-07698D01*
X11657Y-07698D01*
X11737Y-07665D01*
X11799Y-07604D01*
X11832Y-07524D01*
X11832Y-10828D01*
X11806Y-10839D01*
X11744Y-10900D01*
X11711Y-10980D01*
X11711Y-11059D01*
X11399Y-11326D01*
X11399Y-08863D01*
X11399Y-08776D01*
X11366Y-08696D01*
X11305Y-08634D01*
X11225Y-08601D01*
X11138Y-08601D01*
X11058Y-08634D01*
X10996Y-08695D01*
X10966Y-08767D01*
X10966Y-08697D01*
X10933Y-08617D01*
X10887Y-08570D01*
X10887Y-07406D01*
X10887Y-07319D01*
X10854Y-07239D01*
X10793Y-07177D01*
X10713Y-07144D01*
X10626Y-07144D01*
X10546Y-07177D01*
X10484Y-07238D01*
X10451Y-07318D01*
X10451Y-07405D01*
X10484Y-07485D01*
X10545Y-07547D01*
X10625Y-07580D01*
X10712Y-07580D01*
X10792Y-07547D01*
X10854Y-07486D01*
X10887Y-07406D01*
X10887Y-08570D01*
X10872Y-08555D01*
X10792Y-08522D01*
X10705Y-08522D01*
X10625Y-08555D01*
X10563Y-08616D01*
X10530Y-08696D01*
X10530Y-08783D01*
X10560Y-08856D01*
X10524Y-08892D01*
X10491Y-08972D01*
X10491Y-09059D01*
X10524Y-09139D01*
X10585Y-09201D01*
X10661Y-09232D01*
X10586Y-09264D01*
X10524Y-09325D01*
X10491Y-09405D01*
X10491Y-09492D01*
X10524Y-09572D01*
X10585Y-09634D01*
X10665Y-09667D01*
X10752Y-09667D01*
X10832Y-09634D01*
X10894Y-09573D01*
X10927Y-09493D01*
X10927Y-09406D01*
X10894Y-09326D01*
X10833Y-09264D01*
X10756Y-09232D01*
X10832Y-09201D01*
X10894Y-09140D01*
X10927Y-09060D01*
X10927Y-08973D01*
X10896Y-08899D01*
X10933Y-08864D01*
X10963Y-08791D01*
X10963Y-08862D01*
X10996Y-08942D01*
X11057Y-09004D01*
X11137Y-09037D01*
X11224Y-09037D01*
X11304Y-09004D01*
X11366Y-08943D01*
X11399Y-08863D01*
X11399Y-11326D01*
X10730Y-11899D01*
X10730Y-09965D01*
X10730Y-09878D01*
X10697Y-09798D01*
X10636Y-09736D01*
X10556Y-09703D01*
X10469Y-09703D01*
X10389Y-09736D01*
X10327Y-09797D01*
X10294Y-09877D01*
X10294Y-09964D01*
X10327Y-10044D01*
X10388Y-10106D01*
X10468Y-10139D01*
X10555Y-10139D01*
X10635Y-10106D01*
X10697Y-10045D01*
X10730Y-09965D01*
X10730Y-11899D01*
X10670Y-11951D01*
X10670Y-12890D01*
X10061Y-13220D01*
X10061Y-06934D01*
X10061Y-06847D01*
X10028Y-06767D01*
X09967Y-06705D01*
X09887Y-06672D01*
X09800Y-06672D01*
X09720Y-06705D01*
X09658Y-06766D01*
X09625Y-06846D01*
X09625Y-06933D01*
X09658Y-07013D01*
X09719Y-07075D01*
X09799Y-07108D01*
X09886Y-07108D01*
X09966Y-07075D01*
X10028Y-07014D01*
X10061Y-06934D01*
X10061Y-13220D01*
X09706Y-13413D01*
X09706Y-08233D01*
X09706Y-08146D01*
X09673Y-08066D01*
X09612Y-08004D01*
X09532Y-07971D01*
X09531Y-07971D01*
X09531Y-02625D01*
X09515Y-02416D01*
X09464Y-02293D01*
X09375Y-02265D01*
X09290Y-02350D01*
X09290Y-02180D01*
X09262Y-02091D01*
X09062Y-02024D01*
X08853Y-02040D01*
X08730Y-02091D01*
X08702Y-02180D01*
X08996Y-02474D01*
X09290Y-02180D01*
X09290Y-02350D01*
X09081Y-02559D01*
X09375Y-02853D01*
X09464Y-02825D01*
X09531Y-02625D01*
X09531Y-07971D01*
X09445Y-07971D01*
X09365Y-08004D01*
X09303Y-08065D01*
X09290Y-08096D01*
X09290Y-02938D01*
X08996Y-02644D01*
X08911Y-02729D01*
X08911Y-02559D01*
X08617Y-02265D01*
X08528Y-02293D01*
X08461Y-02493D01*
X08477Y-02702D01*
X08528Y-02825D01*
X08617Y-02853D01*
X08911Y-02559D01*
X08911Y-02729D01*
X08702Y-02938D01*
X08730Y-03027D01*
X08930Y-03094D01*
X09139Y-03078D01*
X09262Y-03027D01*
X09290Y-02938D01*
X09290Y-08096D01*
X09270Y-08145D01*
X09270Y-08232D01*
X09303Y-08312D01*
X09364Y-08374D01*
X09444Y-08407D01*
X09531Y-08407D01*
X09611Y-08374D01*
X09673Y-08313D01*
X09706Y-08233D01*
X09706Y-13413D01*
X09667Y-13434D01*
X09667Y-12682D01*
X09667Y-12595D01*
X09634Y-12515D01*
X09573Y-12453D01*
X09493Y-12420D01*
X09406Y-12420D01*
X09326Y-12453D01*
X09264Y-12514D01*
X09231Y-12594D01*
X09231Y-12681D01*
X09264Y-12761D01*
X09325Y-12823D01*
X09405Y-12856D01*
X09492Y-12856D01*
X09572Y-12823D01*
X09634Y-12762D01*
X09667Y-12682D01*
X09667Y-13434D01*
X08919Y-13840D01*
X08919Y-06894D01*
X08919Y-06807D01*
X08886Y-06727D01*
X08825Y-06665D01*
X08745Y-06632D01*
X08658Y-06632D01*
X08578Y-06665D01*
X08516Y-06726D01*
X08483Y-06806D01*
X08483Y-06893D01*
X08516Y-06973D01*
X08577Y-07035D01*
X08657Y-07068D01*
X08744Y-07068D01*
X08824Y-07035D01*
X08886Y-06974D01*
X08919Y-06894D01*
X08919Y-13840D01*
X08414Y-14114D01*
X08414Y-02642D01*
X08414Y-02476D01*
X08350Y-02322D01*
X08233Y-02205D01*
X08079Y-02141D01*
X07913Y-02141D01*
X07759Y-02205D01*
X07642Y-02322D01*
X07578Y-02476D01*
X07578Y-02642D01*
X07642Y-02796D01*
X07759Y-02913D01*
X07913Y-02977D01*
X08079Y-02977D01*
X08233Y-02913D01*
X08350Y-02796D01*
X08414Y-02642D01*
X08414Y-14114D01*
X07914Y-14386D01*
X07914Y-15472D01*
X08241Y-15472D01*
X08287Y-15491D01*
X08404Y-15491D01*
X08449Y-15472D01*
X08864Y-15472D01*
X10833Y-14803D01*
X11347Y-14803D01*
X11317Y-14877D01*
X11317Y-14964D01*
X11350Y-15044D01*
X11411Y-15106D01*
X11491Y-15139D01*
X11578Y-15139D01*
X11658Y-15106D01*
X11720Y-15045D01*
X11753Y-14965D01*
X11753Y-14878D01*
X11722Y-14803D01*
X13513Y-14803D01*
X13483Y-14877D01*
X13483Y-14964D01*
X13516Y-15044D01*
X13577Y-15106D01*
X13657Y-15139D01*
X13744Y-15139D01*
X13824Y-15106D01*
X13886Y-15045D01*
X13919Y-14965D01*
X13919Y-14878D01*
X13888Y-14803D01*
X15408Y-14803D01*
X17960Y-12650D01*
X17960Y-16103D01*
X17620Y-16103D01*
X17620Y-13745D01*
X17620Y-13658D01*
X17587Y-13578D01*
X17526Y-13516D01*
X17446Y-13483D01*
X17359Y-13483D01*
X17279Y-13516D01*
X17264Y-13530D01*
X17250Y-13516D01*
X17170Y-13483D01*
X17083Y-13483D01*
X17003Y-13516D01*
X16941Y-13577D01*
X16908Y-13657D01*
X16908Y-13744D01*
X16941Y-13824D01*
X17002Y-13886D01*
X17082Y-13919D01*
X17169Y-13919D01*
X17249Y-13886D01*
X17263Y-13871D01*
X17278Y-13886D01*
X17358Y-13919D01*
X17445Y-13919D01*
X17525Y-13886D01*
X17587Y-13825D01*
X17620Y-13745D01*
X17620Y-16103D01*
X17423Y-16103D01*
X17423Y-14926D01*
X17423Y-14839D01*
X17390Y-14759D01*
X17329Y-14697D01*
X17249Y-14664D01*
X17162Y-14664D01*
X17082Y-14697D01*
X17020Y-14758D01*
X16999Y-14807D01*
X16996Y-14798D01*
X16935Y-14736D01*
X16855Y-14703D01*
X16768Y-14703D01*
X16688Y-14736D01*
X16626Y-14797D01*
X16593Y-14877D01*
X16593Y-14964D01*
X16626Y-15044D01*
X16687Y-15106D01*
X16767Y-15139D01*
X16854Y-15139D01*
X16934Y-15106D01*
X16996Y-15045D01*
X17016Y-14995D01*
X17020Y-15005D01*
X17081Y-15067D01*
X17161Y-15100D01*
X17248Y-15100D01*
X17328Y-15067D01*
X17390Y-15006D01*
X17423Y-14926D01*
X17423Y-16103D01*
X16345Y-16103D01*
X16360Y-16068D01*
X16360Y-15981D01*
X16327Y-15901D01*
X16266Y-15839D01*
X16186Y-15806D01*
X16099Y-15806D01*
X16019Y-15839D01*
X15957Y-15900D01*
X15924Y-15980D01*
X15924Y-16067D01*
X15938Y-16103D01*
X07953Y-16103D01*
X07698Y-16103D01*
X07698Y-07249D01*
X07698Y-07162D01*
X07665Y-07082D01*
X07604Y-07020D01*
X07524Y-06987D01*
X07437Y-06987D01*
X07414Y-06996D01*
X07414Y-02642D01*
X07414Y-02476D01*
X07350Y-02322D01*
X07233Y-02205D01*
X07079Y-02141D01*
X06913Y-02141D01*
X06759Y-02205D01*
X06642Y-02322D01*
X06578Y-02476D01*
X06578Y-02642D01*
X06642Y-02796D01*
X06759Y-02913D01*
X06913Y-02977D01*
X07079Y-02977D01*
X07233Y-02913D01*
X07350Y-02796D01*
X07414Y-02642D01*
X07414Y-06996D01*
X07357Y-07020D01*
X07295Y-07081D01*
X07262Y-07161D01*
X07262Y-07248D01*
X07295Y-07328D01*
X07356Y-07390D01*
X07436Y-07423D01*
X07523Y-07423D01*
X07603Y-07390D01*
X07665Y-07329D01*
X07698Y-07249D01*
X07698Y-16103D01*
X07535Y-16103D01*
X07577Y-16004D01*
X07577Y-15887D01*
X07532Y-15779D01*
X07450Y-15696D01*
X07342Y-15651D01*
X07341Y-15651D01*
X07341Y-14823D01*
X07341Y-14706D01*
X07296Y-14598D01*
X07214Y-14515D01*
X07106Y-14470D01*
X06989Y-14470D01*
X06881Y-14515D01*
X06798Y-14597D01*
X06753Y-14705D01*
X06753Y-14822D01*
X06798Y-14930D01*
X06880Y-15013D01*
X06988Y-15058D01*
X07105Y-15058D01*
X07213Y-15013D01*
X07296Y-14931D01*
X07341Y-14823D01*
X07341Y-15651D01*
X07225Y-15651D01*
X07117Y-15696D01*
X07034Y-15778D01*
X06989Y-15886D01*
X06989Y-16003D01*
X07030Y-16103D01*
X06414Y-16103D01*
X06414Y-02642D01*
X06414Y-02476D01*
X06350Y-02322D01*
X06233Y-02205D01*
X06079Y-02141D01*
X05913Y-02141D01*
X05759Y-02205D01*
X05642Y-02322D01*
X05578Y-02476D01*
X05578Y-02642D01*
X05642Y-02796D01*
X05759Y-02913D01*
X05913Y-02977D01*
X06079Y-02977D01*
X06233Y-02913D01*
X06350Y-02796D01*
X06414Y-02642D01*
X06414Y-16103D01*
X06319Y-16103D01*
X05414Y-14868D01*
X05414Y-02642D01*
X05414Y-02476D01*
X05350Y-02322D01*
X05233Y-02205D01*
X05079Y-02141D01*
X04913Y-02141D01*
X04759Y-02205D01*
X04642Y-02322D01*
X04578Y-02476D01*
X04578Y-02642D01*
X04642Y-02796D01*
X04759Y-02913D01*
X04913Y-02977D01*
X05079Y-02977D01*
X05233Y-02913D01*
X05350Y-02796D01*
X05414Y-02642D01*
X05414Y-14868D01*
X04414Y-13504D01*
X04414Y-02883D01*
X04414Y-02836D01*
X04414Y-02236D01*
X04396Y-02193D01*
X04363Y-02159D01*
X04320Y-02141D01*
X04273Y-02141D01*
X03673Y-02141D01*
X03630Y-02159D01*
X03596Y-02192D01*
X03578Y-02235D01*
X03578Y-02282D01*
X03578Y-02882D01*
X03596Y-02925D01*
X03629Y-02959D01*
X03672Y-02977D01*
X03719Y-02977D01*
X04319Y-02977D01*
X04362Y-02959D01*
X04396Y-02926D01*
X04414Y-02883D01*
X04414Y-13504D01*
X04173Y-13176D01*
X04173Y-04489D01*
X02874Y-04489D01*
X02874Y-01318D01*
X02677Y-00840D01*
X02312Y-00475D01*
X01835Y-00277D01*
X01318Y-00276D01*
X00840Y-00473D01*
X00475Y-00838D01*
X00277Y-01315D01*
X00276Y-01832D01*
X00473Y-02310D01*
X00838Y-02675D01*
X01315Y-02873D01*
X01832Y-02874D01*
X02310Y-02677D01*
X02675Y-02312D01*
X02873Y-01835D01*
X02874Y-01318D01*
X02874Y-04489D01*
X00039Y-04489D01*
X00039Y-00118D01*
X41103Y-00118D01*
X41103Y-04067D01*
X41044Y-04210D01*
X41044Y-04452D01*
X41103Y-04594D01*
X41103Y-06713D01*
X41081Y-06767D01*
X41081Y-06854D01*
X41103Y-06907D01*
X41103Y-10118D01*
X41103Y-10118D01*
G37*
G54D22*
X41103Y-10118D02*
X40454Y-10118D01*
X40454Y-07879D01*
X40454Y-07792D01*
X40421Y-07712D01*
X40360Y-07650D01*
X40280Y-07617D01*
X40193Y-07617D01*
X40113Y-07650D01*
X40051Y-07711D01*
X40018Y-07791D01*
X40018Y-07878D01*
X40051Y-07958D01*
X40112Y-08020D01*
X40192Y-08053D01*
X40279Y-08053D01*
X40359Y-08020D01*
X40421Y-07959D01*
X40454Y-07879D01*
X40454Y-10118D01*
X39841Y-10118D01*
X39841Y-01882D01*
X39841Y-01663D01*
X39757Y-01461D01*
X39603Y-01306D01*
X39401Y-01222D01*
X39182Y-01222D01*
X38980Y-01306D01*
X38825Y-01460D01*
X38741Y-01662D01*
X38741Y-01881D01*
X38825Y-02083D01*
X38979Y-02238D01*
X39181Y-02322D01*
X39400Y-02322D01*
X39602Y-02238D01*
X39757Y-02084D01*
X39841Y-01882D01*
X39841Y-10118D01*
X39466Y-10118D01*
X39423Y-10136D01*
X39389Y-10169D01*
X39371Y-10212D01*
X39371Y-10259D01*
X39371Y-12559D01*
X38663Y-12559D01*
X38663Y-05882D01*
X38663Y-05537D01*
X38663Y-01945D01*
X38663Y-01600D01*
X38531Y-01281D01*
X38287Y-01037D01*
X37968Y-00904D01*
X37623Y-00904D01*
X37304Y-01036D01*
X37060Y-01280D01*
X36927Y-01599D01*
X36927Y-01944D01*
X37059Y-02263D01*
X37303Y-02507D01*
X37622Y-02640D01*
X37967Y-02640D01*
X38286Y-02508D01*
X38530Y-02264D01*
X38663Y-01945D01*
X38663Y-05537D01*
X38531Y-05218D01*
X38345Y-05032D01*
X38345Y-04323D01*
X38345Y-04104D01*
X38261Y-03902D01*
X38107Y-03747D01*
X37905Y-03663D01*
X37686Y-03663D01*
X37484Y-03747D01*
X37329Y-03901D01*
X37245Y-04103D01*
X37245Y-04322D01*
X37329Y-04524D01*
X37483Y-04679D01*
X37685Y-04763D01*
X37904Y-04763D01*
X38106Y-04679D01*
X38261Y-04525D01*
X38345Y-04323D01*
X38345Y-05032D01*
X38287Y-04974D01*
X37968Y-04841D01*
X37623Y-04841D01*
X37304Y-04973D01*
X37060Y-05217D01*
X36927Y-05536D01*
X36927Y-05881D01*
X37059Y-06200D01*
X37303Y-06444D01*
X37622Y-06577D01*
X37967Y-06577D01*
X38286Y-06445D01*
X38530Y-06201D01*
X38663Y-05882D01*
X38663Y-12559D01*
X36849Y-12559D01*
X36849Y-01882D01*
X36849Y-01663D01*
X36765Y-01461D01*
X36611Y-01306D01*
X36409Y-01222D01*
X36190Y-01222D01*
X35988Y-01306D01*
X35833Y-01460D01*
X35749Y-01662D01*
X35749Y-01881D01*
X35833Y-02083D01*
X35987Y-02238D01*
X36189Y-02322D01*
X36408Y-02322D01*
X36610Y-02238D01*
X36765Y-02084D01*
X36849Y-01882D01*
X36849Y-12559D01*
X36695Y-12559D01*
X36695Y-05193D01*
X36695Y-04848D01*
X36563Y-04529D01*
X36319Y-04285D01*
X36000Y-04152D01*
X35655Y-04152D01*
X35336Y-04284D01*
X35092Y-04528D01*
X34959Y-04847D01*
X34959Y-05192D01*
X35091Y-05511D01*
X35335Y-05755D01*
X35654Y-05888D01*
X35999Y-05888D01*
X36318Y-05756D01*
X36562Y-05512D01*
X36695Y-05193D01*
X36695Y-12559D01*
X36438Y-12559D01*
X36438Y-10241D01*
X36438Y-10154D01*
X36405Y-10074D01*
X36344Y-10012D01*
X36264Y-09979D01*
X36177Y-09979D01*
X36097Y-10012D01*
X36035Y-10073D01*
X36002Y-10153D01*
X36002Y-10240D01*
X36035Y-10320D01*
X36096Y-10382D01*
X36176Y-10415D01*
X36263Y-10415D01*
X36343Y-10382D01*
X36405Y-10321D01*
X36438Y-10241D01*
X36438Y-12559D01*
X36081Y-12559D01*
X36081Y-11752D01*
X36081Y-11635D01*
X36036Y-11527D01*
X35954Y-11444D01*
X35927Y-11432D01*
X35927Y-06186D01*
X35927Y-06099D01*
X35894Y-06019D01*
X35833Y-05957D01*
X35753Y-05924D01*
X35666Y-05924D01*
X35586Y-05957D01*
X35524Y-06018D01*
X35491Y-06098D01*
X35491Y-06185D01*
X35524Y-06265D01*
X35585Y-06327D01*
X35665Y-06360D01*
X35752Y-06360D01*
X35832Y-06327D01*
X35894Y-06266D01*
X35927Y-06186D01*
X35927Y-11432D01*
X35846Y-11399D01*
X35729Y-11399D01*
X35621Y-11444D01*
X35538Y-11526D01*
X35493Y-11634D01*
X35493Y-11751D01*
X35538Y-11859D01*
X35620Y-11942D01*
X35728Y-11987D01*
X35845Y-11987D01*
X35953Y-11942D01*
X36036Y-11860D01*
X36081Y-11752D01*
X36081Y-12559D01*
X36039Y-12559D01*
X36036Y-12551D01*
X35954Y-12468D01*
X35846Y-12423D01*
X35729Y-12423D01*
X35621Y-12468D01*
X35538Y-12550D01*
X35534Y-12559D01*
X34428Y-12559D01*
X34428Y-11319D01*
X34428Y-11202D01*
X34383Y-11094D01*
X34301Y-11011D01*
X34193Y-10966D01*
X34076Y-10966D01*
X33968Y-11011D01*
X33885Y-11093D01*
X33840Y-11201D01*
X33840Y-11318D01*
X33885Y-11426D01*
X33967Y-11509D01*
X34075Y-11554D01*
X34192Y-11554D01*
X34300Y-11509D01*
X34383Y-11427D01*
X34428Y-11319D01*
X34428Y-12559D01*
X33995Y-12559D01*
X33995Y-11752D01*
X33995Y-11635D01*
X33950Y-11527D01*
X33868Y-11444D01*
X33761Y-11399D01*
X33761Y-06186D01*
X33761Y-06099D01*
X33728Y-06019D01*
X33667Y-05957D01*
X33587Y-05924D01*
X33500Y-05924D01*
X33420Y-05957D01*
X33358Y-06018D01*
X33325Y-06098D01*
X33325Y-06185D01*
X33358Y-06265D01*
X33419Y-06327D01*
X33499Y-06360D01*
X33586Y-06360D01*
X33666Y-06327D01*
X33728Y-06266D01*
X33761Y-06186D01*
X33761Y-11399D01*
X33760Y-11399D01*
X33643Y-11399D01*
X33535Y-11444D01*
X33452Y-11526D01*
X33407Y-11634D01*
X33407Y-11751D01*
X33452Y-11859D01*
X33534Y-11942D01*
X33642Y-11987D01*
X33759Y-11987D01*
X33867Y-11942D01*
X33950Y-11860D01*
X33995Y-11752D01*
X33995Y-12559D01*
X33718Y-12559D01*
X33759Y-12461D01*
X33759Y-12344D01*
X33714Y-12236D01*
X33632Y-12153D01*
X33524Y-12108D01*
X33407Y-12108D01*
X33299Y-12153D01*
X33216Y-12235D01*
X33171Y-12343D01*
X33171Y-12460D01*
X33212Y-12559D01*
X33148Y-12559D01*
X33148Y-01882D01*
X33148Y-01663D01*
X33064Y-01461D01*
X32910Y-01306D01*
X32708Y-01222D01*
X32489Y-01222D01*
X32287Y-01306D01*
X32132Y-01460D01*
X32048Y-01662D01*
X32048Y-01881D01*
X32132Y-02083D01*
X32286Y-02238D01*
X32488Y-02322D01*
X32707Y-02322D01*
X32909Y-02238D01*
X33064Y-02084D01*
X33148Y-01882D01*
X33148Y-12559D01*
X31970Y-12559D01*
X31970Y-05882D01*
X31970Y-05537D01*
X31970Y-01945D01*
X31970Y-01600D01*
X31838Y-01281D01*
X31594Y-01037D01*
X31275Y-00904D01*
X30930Y-00904D01*
X30611Y-01036D01*
X30367Y-01280D01*
X30234Y-01599D01*
X30234Y-01944D01*
X30366Y-02263D01*
X30610Y-02507D01*
X30929Y-02640D01*
X31274Y-02640D01*
X31593Y-02508D01*
X31837Y-02264D01*
X31970Y-01945D01*
X31970Y-05537D01*
X31838Y-05218D01*
X31652Y-05032D01*
X31652Y-04323D01*
X31652Y-04104D01*
X31568Y-03902D01*
X31414Y-03747D01*
X31212Y-03663D01*
X30993Y-03663D01*
X30791Y-03747D01*
X30636Y-03901D01*
X30552Y-04103D01*
X30552Y-04322D01*
X30636Y-04524D01*
X30790Y-04679D01*
X30992Y-04763D01*
X31211Y-04763D01*
X31413Y-04679D01*
X31568Y-04525D01*
X31652Y-04323D01*
X31652Y-05032D01*
X31594Y-04974D01*
X31275Y-04841D01*
X30930Y-04841D01*
X30611Y-04973D01*
X30367Y-05217D01*
X30234Y-05536D01*
X30234Y-05881D01*
X30366Y-06200D01*
X30610Y-06444D01*
X30929Y-06577D01*
X31274Y-06577D01*
X31593Y-06445D01*
X31837Y-06201D01*
X31970Y-05882D01*
X31970Y-12559D01*
X31675Y-12559D01*
X31675Y-10241D01*
X31675Y-10154D01*
X31675Y-07761D01*
X31675Y-07674D01*
X31642Y-07594D01*
X31581Y-07532D01*
X31501Y-07499D01*
X31414Y-07499D01*
X31334Y-07532D01*
X31272Y-07593D01*
X31239Y-07673D01*
X31239Y-07760D01*
X31272Y-07840D01*
X31333Y-07902D01*
X31413Y-07935D01*
X31500Y-07935D01*
X31580Y-07902D01*
X31642Y-07841D01*
X31675Y-07761D01*
X31675Y-10154D01*
X31642Y-10074D01*
X31581Y-10012D01*
X31501Y-09979D01*
X31414Y-09979D01*
X31334Y-10012D01*
X31272Y-10073D01*
X31239Y-10153D01*
X31239Y-10240D01*
X31272Y-10320D01*
X31333Y-10382D01*
X31413Y-10415D01*
X31500Y-10415D01*
X31580Y-10382D01*
X31642Y-10321D01*
X31675Y-10241D01*
X31675Y-12559D01*
X31654Y-12559D01*
X31654Y-12892D01*
X31584Y-12822D01*
X31476Y-12777D01*
X31359Y-12777D01*
X31251Y-12822D01*
X31168Y-12904D01*
X31160Y-12923D01*
X31160Y-12657D01*
X31160Y-12540D01*
X31115Y-12432D01*
X31033Y-12349D01*
X30925Y-12304D01*
X30808Y-12304D01*
X30700Y-12349D01*
X30617Y-12431D01*
X30572Y-12539D01*
X30572Y-12656D01*
X30617Y-12764D01*
X30699Y-12847D01*
X30807Y-12892D01*
X30924Y-12892D01*
X31032Y-12847D01*
X31115Y-12765D01*
X31160Y-12657D01*
X31160Y-12923D01*
X31123Y-13012D01*
X31123Y-13129D01*
X31168Y-13237D01*
X31250Y-13320D01*
X31358Y-13365D01*
X31475Y-13365D01*
X31583Y-13320D01*
X31654Y-13249D01*
X31654Y-15136D01*
X31584Y-15066D01*
X31476Y-15021D01*
X31359Y-15021D01*
X31278Y-15054D01*
X31278Y-13839D01*
X31278Y-13722D01*
X31233Y-13614D01*
X31151Y-13531D01*
X31043Y-13486D01*
X30926Y-13486D01*
X30818Y-13531D01*
X30735Y-13613D01*
X30690Y-13721D01*
X30690Y-13838D01*
X30735Y-13946D01*
X30817Y-14029D01*
X30925Y-14074D01*
X31042Y-14074D01*
X31150Y-14029D01*
X31233Y-13947D01*
X31278Y-13839D01*
X31278Y-15054D01*
X31251Y-15066D01*
X31200Y-15116D01*
X31200Y-14823D01*
X31200Y-14706D01*
X31155Y-14598D01*
X31073Y-14515D01*
X30965Y-14470D01*
X30848Y-14470D01*
X30740Y-14515D01*
X30657Y-14597D01*
X30612Y-14705D01*
X30612Y-14822D01*
X30657Y-14930D01*
X30739Y-15013D01*
X30847Y-15058D01*
X30964Y-15058D01*
X31072Y-15013D01*
X31155Y-14931D01*
X31200Y-14823D01*
X31200Y-15116D01*
X31168Y-15148D01*
X31123Y-15256D01*
X31123Y-15373D01*
X31168Y-15481D01*
X31250Y-15564D01*
X31358Y-15609D01*
X31475Y-15609D01*
X31583Y-15564D01*
X31654Y-15493D01*
X31654Y-16103D01*
X30375Y-16103D01*
X30375Y-10753D01*
X30375Y-10666D01*
X30375Y-09768D01*
X30375Y-09681D01*
X30375Y-08233D01*
X30375Y-08146D01*
X30342Y-08066D01*
X30281Y-08004D01*
X30201Y-07971D01*
X30156Y-07971D01*
X30156Y-01882D01*
X30156Y-01663D01*
X30072Y-01461D01*
X29918Y-01306D01*
X29716Y-01222D01*
X29497Y-01222D01*
X29295Y-01306D01*
X29140Y-01460D01*
X29056Y-01662D01*
X29056Y-01881D01*
X29140Y-02083D01*
X29294Y-02238D01*
X29496Y-02322D01*
X29715Y-02322D01*
X29917Y-02238D01*
X30072Y-02084D01*
X30156Y-01882D01*
X30156Y-07971D01*
X30114Y-07971D01*
X30034Y-08004D01*
X30002Y-08035D01*
X30002Y-05193D01*
X30002Y-04848D01*
X29870Y-04529D01*
X29626Y-04285D01*
X29307Y-04152D01*
X28962Y-04152D01*
X28643Y-04284D01*
X28399Y-04528D01*
X28266Y-04847D01*
X28266Y-05192D01*
X28398Y-05511D01*
X28642Y-05755D01*
X28961Y-05888D01*
X29306Y-05888D01*
X29625Y-05756D01*
X29869Y-05512D01*
X30002Y-05193D01*
X30002Y-08035D01*
X29972Y-08065D01*
X29939Y-08145D01*
X29939Y-08232D01*
X29972Y-08312D01*
X30033Y-08374D01*
X30113Y-08407D01*
X30200Y-08407D01*
X30280Y-08374D01*
X30342Y-08313D01*
X30375Y-08233D01*
X30375Y-09681D01*
X30342Y-09601D01*
X30281Y-09539D01*
X30201Y-09506D01*
X30114Y-09506D01*
X30034Y-09539D01*
X29972Y-09600D01*
X29939Y-09680D01*
X29939Y-09767D01*
X29972Y-09847D01*
X30033Y-09909D01*
X30113Y-09942D01*
X30200Y-09942D01*
X30280Y-09909D01*
X30342Y-09848D01*
X30375Y-09768D01*
X30375Y-10666D01*
X30342Y-10586D01*
X30281Y-10524D01*
X30201Y-10491D01*
X30114Y-10491D01*
X30034Y-10524D01*
X29972Y-10585D01*
X29939Y-10665D01*
X29939Y-10752D01*
X29972Y-10832D01*
X30033Y-10894D01*
X30113Y-10927D01*
X30200Y-10927D01*
X30280Y-10894D01*
X30342Y-10833D01*
X30375Y-10753D01*
X30375Y-16103D01*
X30151Y-16103D01*
X30131Y-16054D01*
X30049Y-15971D01*
X29941Y-15926D01*
X29824Y-15926D01*
X29746Y-15958D01*
X29746Y-15398D01*
X29746Y-15311D01*
X29713Y-15231D01*
X29652Y-15169D01*
X29572Y-15136D01*
X29485Y-15136D01*
X29405Y-15169D01*
X29343Y-15230D01*
X29310Y-15310D01*
X29310Y-15397D01*
X29343Y-15477D01*
X29404Y-15539D01*
X29484Y-15572D01*
X29571Y-15572D01*
X29651Y-15539D01*
X29713Y-15478D01*
X29746Y-15398D01*
X29746Y-15958D01*
X29716Y-15971D01*
X29633Y-16053D01*
X29612Y-16103D01*
X28958Y-16103D01*
X28958Y-10753D01*
X28958Y-10666D01*
X28958Y-09768D01*
X28958Y-09681D01*
X28958Y-08233D01*
X28958Y-08146D01*
X28925Y-08066D01*
X28864Y-08004D01*
X28784Y-07971D01*
X28697Y-07971D01*
X28617Y-08004D01*
X28555Y-08065D01*
X28522Y-08145D01*
X28522Y-08232D01*
X28555Y-08312D01*
X28616Y-08374D01*
X28696Y-08407D01*
X28783Y-08407D01*
X28863Y-08374D01*
X28925Y-08313D01*
X28958Y-08233D01*
X28958Y-09681D01*
X28925Y-09601D01*
X28864Y-09539D01*
X28784Y-09506D01*
X28697Y-09506D01*
X28617Y-09539D01*
X28555Y-09600D01*
X28522Y-09680D01*
X28522Y-09767D01*
X28555Y-09847D01*
X28616Y-09909D01*
X28696Y-09942D01*
X28783Y-09942D01*
X28863Y-09909D01*
X28925Y-09848D01*
X28958Y-09768D01*
X28958Y-10666D01*
X28925Y-10586D01*
X28864Y-10524D01*
X28784Y-10491D01*
X28697Y-10491D01*
X28617Y-10524D01*
X28555Y-10585D01*
X28522Y-10665D01*
X28522Y-10752D01*
X28555Y-10832D01*
X28616Y-10894D01*
X28696Y-10927D01*
X28783Y-10927D01*
X28863Y-10894D01*
X28925Y-10833D01*
X28958Y-10753D01*
X28958Y-16103D01*
X28840Y-16103D01*
X28840Y-12682D01*
X28840Y-12595D01*
X28807Y-12515D01*
X28746Y-12453D01*
X28666Y-12420D01*
X28579Y-12420D01*
X28499Y-12453D01*
X28437Y-12514D01*
X28404Y-12594D01*
X28404Y-12681D01*
X28437Y-12761D01*
X28498Y-12823D01*
X28578Y-12856D01*
X28665Y-12856D01*
X28745Y-12823D01*
X28807Y-12762D01*
X28840Y-12682D01*
X28840Y-16103D01*
X28562Y-16103D01*
X28562Y-14626D01*
X28562Y-14509D01*
X28517Y-14401D01*
X28435Y-14318D01*
X28327Y-14273D01*
X28210Y-14273D01*
X28102Y-14318D01*
X28019Y-14400D01*
X27974Y-14508D01*
X27974Y-14625D01*
X28019Y-14733D01*
X28101Y-14816D01*
X28209Y-14861D01*
X28326Y-14861D01*
X28434Y-14816D01*
X28517Y-14734D01*
X28562Y-14626D01*
X28562Y-16103D01*
X27971Y-16103D01*
X27971Y-15138D01*
X27971Y-15021D01*
X27926Y-14913D01*
X27856Y-14842D01*
X27856Y-12682D01*
X27856Y-12595D01*
X27856Y-09453D01*
X27856Y-09366D01*
X27823Y-09286D01*
X27762Y-09224D01*
X27682Y-09191D01*
X27595Y-09191D01*
X27541Y-09213D01*
X27541Y-07249D01*
X27541Y-07162D01*
X27508Y-07082D01*
X27447Y-07020D01*
X27367Y-06987D01*
X27280Y-06987D01*
X27200Y-07020D01*
X27138Y-07081D01*
X27105Y-07161D01*
X27105Y-07248D01*
X27138Y-07328D01*
X27199Y-07390D01*
X27279Y-07423D01*
X27366Y-07423D01*
X27446Y-07390D01*
X27508Y-07329D01*
X27541Y-07249D01*
X27541Y-09213D01*
X27515Y-09224D01*
X27453Y-09285D01*
X27420Y-09365D01*
X27420Y-09452D01*
X27453Y-09532D01*
X27514Y-09594D01*
X27594Y-09627D01*
X27681Y-09627D01*
X27761Y-09594D01*
X27823Y-09533D01*
X27856Y-09453D01*
X27856Y-12595D01*
X27823Y-12515D01*
X27762Y-12453D01*
X27682Y-12420D01*
X27595Y-12420D01*
X27515Y-12453D01*
X27453Y-12514D01*
X27420Y-12594D01*
X27420Y-12681D01*
X27453Y-12761D01*
X27514Y-12823D01*
X27594Y-12856D01*
X27681Y-12856D01*
X27761Y-12823D01*
X27823Y-12762D01*
X27856Y-12682D01*
X27856Y-14842D01*
X27844Y-14830D01*
X27736Y-14785D01*
X27619Y-14785D01*
X27511Y-14830D01*
X27428Y-14912D01*
X27383Y-15020D01*
X27383Y-15137D01*
X27428Y-15245D01*
X27510Y-15328D01*
X27618Y-15373D01*
X27735Y-15373D01*
X27843Y-15328D01*
X27926Y-15246D01*
X27971Y-15138D01*
X27971Y-16103D01*
X26869Y-16103D01*
X26869Y-01674D01*
X26869Y-01479D01*
X26795Y-01298D01*
X26657Y-01160D01*
X26476Y-01085D01*
X26281Y-01085D01*
X26100Y-01159D01*
X25962Y-01297D01*
X25887Y-01478D01*
X25887Y-01673D01*
X25961Y-01854D01*
X26099Y-01992D01*
X26280Y-02067D01*
X26475Y-02067D01*
X26656Y-01993D01*
X26794Y-01855D01*
X26869Y-01674D01*
X26869Y-16103D01*
X26672Y-16103D01*
X26672Y-04626D01*
X26672Y-04431D01*
X26598Y-04250D01*
X26515Y-04167D01*
X26515Y-03021D01*
X26515Y-02888D01*
X26464Y-02765D01*
X26371Y-02671D01*
X26248Y-02620D01*
X26115Y-02620D01*
X25992Y-02671D01*
X25898Y-02764D01*
X25847Y-02887D01*
X25847Y-03020D01*
X25898Y-03143D01*
X25991Y-03237D01*
X26114Y-03288D01*
X26247Y-03288D01*
X26370Y-03237D01*
X26464Y-03144D01*
X26515Y-03021D01*
X26515Y-04167D01*
X26460Y-04112D01*
X26279Y-04037D01*
X26084Y-04037D01*
X25903Y-04111D01*
X25765Y-04249D01*
X25690Y-04430D01*
X25690Y-04625D01*
X25764Y-04806D01*
X25902Y-04944D01*
X26083Y-05019D01*
X26278Y-05019D01*
X26459Y-04945D01*
X26597Y-04807D01*
X26672Y-04626D01*
X26672Y-16103D01*
X26436Y-16103D01*
X26436Y-13445D01*
X26436Y-13328D01*
X26399Y-13239D01*
X26399Y-08233D01*
X26399Y-08146D01*
X26366Y-08066D01*
X26305Y-08004D01*
X26225Y-07971D01*
X26138Y-07971D01*
X26058Y-08004D01*
X25996Y-08065D01*
X25963Y-08145D01*
X25963Y-08232D01*
X25996Y-08312D01*
X26057Y-08374D01*
X26137Y-08407D01*
X26224Y-08407D01*
X26304Y-08374D01*
X26366Y-08313D01*
X26399Y-08233D01*
X26399Y-13239D01*
X26391Y-13220D01*
X26360Y-13188D01*
X26360Y-09729D01*
X26360Y-09642D01*
X26360Y-09217D01*
X26360Y-09130D01*
X26327Y-09050D01*
X26266Y-08988D01*
X26186Y-08955D01*
X26099Y-08955D01*
X26019Y-08988D01*
X25957Y-09049D01*
X25924Y-09129D01*
X25924Y-09216D01*
X25957Y-09296D01*
X26018Y-09358D01*
X26098Y-09391D01*
X26185Y-09391D01*
X26265Y-09358D01*
X26327Y-09297D01*
X26360Y-09217D01*
X26360Y-09642D01*
X26327Y-09562D01*
X26266Y-09500D01*
X26186Y-09467D01*
X26099Y-09467D01*
X26019Y-09500D01*
X25957Y-09561D01*
X25924Y-09641D01*
X25924Y-09728D01*
X25957Y-09808D01*
X26018Y-09870D01*
X26098Y-09903D01*
X26185Y-09903D01*
X26265Y-09870D01*
X26327Y-09809D01*
X26360Y-09729D01*
X26360Y-13188D01*
X26320Y-13148D01*
X26320Y-10753D01*
X26320Y-10666D01*
X26320Y-10241D01*
X26320Y-10154D01*
X26287Y-10074D01*
X26226Y-10012D01*
X26146Y-09979D01*
X26059Y-09979D01*
X25979Y-10012D01*
X25917Y-10073D01*
X25884Y-10153D01*
X25884Y-10240D01*
X25917Y-10320D01*
X25978Y-10382D01*
X26058Y-10415D01*
X26145Y-10415D01*
X26225Y-10382D01*
X26287Y-10321D01*
X26320Y-10241D01*
X26320Y-10666D01*
X26287Y-10586D01*
X26226Y-10524D01*
X26146Y-10491D01*
X26059Y-10491D01*
X25979Y-10524D01*
X25917Y-10585D01*
X25884Y-10665D01*
X25884Y-10752D01*
X25917Y-10832D01*
X25978Y-10894D01*
X26058Y-10927D01*
X26145Y-10927D01*
X26225Y-10894D01*
X26287Y-10833D01*
X26320Y-10753D01*
X26320Y-13148D01*
X26309Y-13137D01*
X26201Y-13092D01*
X26084Y-13092D01*
X25976Y-13137D01*
X25893Y-13219D01*
X25848Y-13327D01*
X25848Y-13444D01*
X25893Y-13552D01*
X25975Y-13635D01*
X26083Y-13680D01*
X26200Y-13680D01*
X26308Y-13635D01*
X26391Y-13553D01*
X26436Y-13445D01*
X26436Y-16103D01*
X25572Y-16103D01*
X25572Y-15398D01*
X25572Y-15311D01*
X25539Y-15231D01*
X25478Y-15169D01*
X25401Y-15137D01*
X25477Y-15106D01*
X25539Y-15045D01*
X25572Y-14965D01*
X25572Y-14878D01*
X25539Y-14798D01*
X25478Y-14736D01*
X25398Y-14703D01*
X25311Y-14703D01*
X25231Y-14736D01*
X25169Y-14797D01*
X25136Y-14877D01*
X25136Y-14964D01*
X25169Y-15044D01*
X25230Y-15106D01*
X25306Y-15137D01*
X25231Y-15169D01*
X25169Y-15230D01*
X25136Y-15310D01*
X25136Y-15397D01*
X25169Y-15477D01*
X25230Y-15539D01*
X25310Y-15572D01*
X25397Y-15572D01*
X25477Y-15539D01*
X25539Y-15478D01*
X25572Y-15398D01*
X25572Y-16103D01*
X24940Y-16103D01*
X24940Y-06957D01*
X24940Y-06824D01*
X24940Y-06169D01*
X24940Y-06036D01*
X24889Y-05913D01*
X24796Y-05819D01*
X24704Y-05780D01*
X24704Y-04626D01*
X24704Y-04431D01*
X24630Y-04250D01*
X24547Y-04167D01*
X24547Y-03021D01*
X24547Y-02888D01*
X24507Y-02791D01*
X24507Y-01674D01*
X24507Y-01479D01*
X24433Y-01298D01*
X24295Y-01160D01*
X24114Y-01085D01*
X23919Y-01085D01*
X23738Y-01159D01*
X23600Y-01297D01*
X23525Y-01478D01*
X23525Y-01673D01*
X23599Y-01854D01*
X23737Y-01992D01*
X23918Y-02067D01*
X24113Y-02067D01*
X24294Y-01993D01*
X24432Y-01855D01*
X24507Y-01674D01*
X24507Y-02791D01*
X24496Y-02765D01*
X24403Y-02671D01*
X24280Y-02620D01*
X24147Y-02620D01*
X24024Y-02671D01*
X23930Y-02764D01*
X23879Y-02887D01*
X23879Y-03020D01*
X23930Y-03143D01*
X24023Y-03237D01*
X24146Y-03288D01*
X24279Y-03288D01*
X24402Y-03237D01*
X24496Y-03144D01*
X24547Y-03021D01*
X24547Y-04167D01*
X24492Y-04112D01*
X24311Y-04037D01*
X24116Y-04037D01*
X23935Y-04111D01*
X23797Y-04249D01*
X23722Y-04430D01*
X23722Y-04625D01*
X23796Y-04806D01*
X23934Y-04944D01*
X24115Y-05019D01*
X24310Y-05019D01*
X24491Y-04945D01*
X24629Y-04807D01*
X24704Y-04626D01*
X24704Y-05780D01*
X24673Y-05768D01*
X24540Y-05768D01*
X24417Y-05819D01*
X24323Y-05912D01*
X24272Y-06035D01*
X24272Y-06168D01*
X24323Y-06291D01*
X24416Y-06385D01*
X24539Y-06436D01*
X24672Y-06436D01*
X24795Y-06385D01*
X24889Y-06292D01*
X24940Y-06169D01*
X24940Y-06824D01*
X24889Y-06701D01*
X24796Y-06607D01*
X24673Y-06556D01*
X24540Y-06556D01*
X24417Y-06607D01*
X24323Y-06700D01*
X24272Y-06823D01*
X24272Y-06956D01*
X24323Y-07079D01*
X24416Y-07173D01*
X24539Y-07224D01*
X24672Y-07224D01*
X24795Y-07173D01*
X24889Y-07080D01*
X24940Y-06957D01*
X24940Y-16103D01*
X24706Y-16103D01*
X24706Y-10438D01*
X24706Y-10351D01*
X24673Y-10271D01*
X24627Y-10224D01*
X24627Y-09847D01*
X24627Y-09760D01*
X24594Y-09680D01*
X24533Y-09618D01*
X24453Y-09585D01*
X24366Y-09585D01*
X24286Y-09618D01*
X24224Y-09679D01*
X24191Y-09759D01*
X24191Y-09846D01*
X24224Y-09926D01*
X24285Y-09988D01*
X24365Y-10021D01*
X24452Y-10021D01*
X24532Y-09988D01*
X24594Y-09927D01*
X24627Y-09847D01*
X24627Y-10224D01*
X24612Y-10209D01*
X24532Y-10176D01*
X24445Y-10176D01*
X24365Y-10209D01*
X24303Y-10270D01*
X24270Y-10350D01*
X24270Y-10437D01*
X24303Y-10517D01*
X24364Y-10579D01*
X24444Y-10612D01*
X24531Y-10612D01*
X24611Y-10579D01*
X24673Y-10518D01*
X24706Y-10438D01*
X24706Y-16103D01*
X24664Y-16103D01*
X24664Y-11831D01*
X24664Y-11714D01*
X24619Y-11606D01*
X24537Y-11523D01*
X24429Y-11478D01*
X24352Y-11478D01*
X24352Y-10989D01*
X24352Y-10902D01*
X24319Y-10822D01*
X24258Y-10760D01*
X24178Y-10727D01*
X24091Y-10727D01*
X24011Y-10760D01*
X23949Y-10821D01*
X23916Y-10901D01*
X23916Y-10988D01*
X23949Y-11068D01*
X24010Y-11130D01*
X24090Y-11163D01*
X24177Y-11163D01*
X24257Y-11130D01*
X24319Y-11069D01*
X24352Y-10989D01*
X24352Y-11478D01*
X24312Y-11478D01*
X24204Y-11523D01*
X24121Y-11605D01*
X24076Y-11713D01*
X24076Y-11830D01*
X24121Y-11938D01*
X24203Y-12021D01*
X24311Y-12066D01*
X24428Y-12066D01*
X24536Y-12021D01*
X24619Y-11939D01*
X24664Y-11831D01*
X24664Y-16103D01*
X23998Y-16103D01*
X23998Y-15713D01*
X23998Y-15626D01*
X23965Y-15546D01*
X23904Y-15484D01*
X23824Y-15451D01*
X23737Y-15451D01*
X23657Y-15484D01*
X23595Y-15545D01*
X23562Y-15625D01*
X23562Y-15712D01*
X23595Y-15792D01*
X23656Y-15854D01*
X23736Y-15887D01*
X23823Y-15887D01*
X23903Y-15854D01*
X23965Y-15793D01*
X23998Y-15713D01*
X23998Y-16103D01*
X23497Y-16103D01*
X23470Y-16075D01*
X23415Y-16052D01*
X23415Y-10917D01*
X23415Y-10870D01*
X23415Y-09630D01*
X23397Y-09587D01*
X23364Y-09553D01*
X23321Y-09535D01*
X23274Y-09535D01*
X22856Y-09535D01*
X22856Y-07249D01*
X22856Y-07162D01*
X22823Y-07082D01*
X22762Y-07020D01*
X22682Y-06987D01*
X22595Y-06987D01*
X22515Y-07020D01*
X22453Y-07081D01*
X22420Y-07161D01*
X22420Y-07248D01*
X22453Y-07328D01*
X22514Y-07390D01*
X22594Y-07423D01*
X22681Y-07423D01*
X22761Y-07390D01*
X22823Y-07329D01*
X22856Y-07249D01*
X22856Y-09535D01*
X22265Y-09535D01*
X22265Y-07249D01*
X22265Y-07162D01*
X22232Y-07082D01*
X22171Y-07020D01*
X22091Y-06987D01*
X22004Y-06987D01*
X21924Y-07020D01*
X21862Y-07081D01*
X21829Y-07161D01*
X21829Y-07248D01*
X21862Y-07328D01*
X21923Y-07390D01*
X22003Y-07423D01*
X22090Y-07423D01*
X22170Y-07390D01*
X22232Y-07329D01*
X22265Y-07249D01*
X22265Y-09535D01*
X22147Y-09535D01*
X22147Y-08902D01*
X22147Y-08815D01*
X22114Y-08735D01*
X22053Y-08673D01*
X21973Y-08640D01*
X21886Y-08640D01*
X21806Y-08673D01*
X21744Y-08734D01*
X21711Y-08814D01*
X21711Y-08901D01*
X21744Y-08981D01*
X21805Y-09043D01*
X21885Y-09076D01*
X21972Y-09076D01*
X22052Y-09043D01*
X22114Y-08982D01*
X22147Y-08902D01*
X22147Y-09535D01*
X22034Y-09535D01*
X21991Y-09553D01*
X21957Y-09586D01*
X21939Y-09629D01*
X21939Y-09676D01*
X21939Y-10916D01*
X21957Y-10959D01*
X21990Y-10993D01*
X22033Y-11011D01*
X22080Y-11011D01*
X23320Y-11011D01*
X23363Y-10993D01*
X23397Y-10960D01*
X23415Y-10917D01*
X23415Y-16052D01*
X23407Y-16049D01*
X23407Y-11816D01*
X23407Y-11729D01*
X23374Y-11649D01*
X23313Y-11587D01*
X23233Y-11554D01*
X23146Y-11554D01*
X23066Y-11587D01*
X23004Y-11648D01*
X22971Y-11728D01*
X22971Y-11815D01*
X23004Y-11895D01*
X23065Y-11957D01*
X23145Y-11990D01*
X23232Y-11990D01*
X23312Y-11957D01*
X23374Y-11896D01*
X23407Y-11816D01*
X23407Y-16049D01*
X23390Y-16042D01*
X23303Y-16042D01*
X23223Y-16075D01*
X23194Y-16103D01*
X22971Y-16103D01*
X22971Y-13089D01*
X22971Y-12972D01*
X22926Y-12864D01*
X22844Y-12781D01*
X22736Y-12736D01*
X22619Y-12736D01*
X22511Y-12781D01*
X22428Y-12863D01*
X22383Y-12971D01*
X22383Y-13088D01*
X22428Y-13196D01*
X22510Y-13279D01*
X22618Y-13324D01*
X22735Y-13324D01*
X22843Y-13279D01*
X22926Y-13197D01*
X22971Y-13089D01*
X22971Y-16103D01*
X22580Y-16103D01*
X22580Y-15398D01*
X22580Y-15311D01*
X22547Y-15231D01*
X22486Y-15169D01*
X22406Y-15136D01*
X22319Y-15136D01*
X22275Y-15153D01*
X22305Y-15083D01*
X22305Y-14996D01*
X22272Y-14916D01*
X22211Y-14854D01*
X22147Y-14827D01*
X22147Y-11816D01*
X22147Y-11729D01*
X22114Y-11649D01*
X22053Y-11587D01*
X21973Y-11554D01*
X21886Y-11554D01*
X21806Y-11587D01*
X21744Y-11648D01*
X21711Y-11728D01*
X21711Y-11815D01*
X21744Y-11895D01*
X21805Y-11957D01*
X21885Y-11990D01*
X21972Y-11990D01*
X22052Y-11957D01*
X22114Y-11896D01*
X22147Y-11816D01*
X22147Y-14827D01*
X22131Y-14821D01*
X22044Y-14821D01*
X21964Y-14854D01*
X21902Y-14915D01*
X21869Y-14995D01*
X21869Y-15082D01*
X21902Y-15162D01*
X21963Y-15224D01*
X22043Y-15257D01*
X22130Y-15257D01*
X22173Y-15239D01*
X22144Y-15310D01*
X22144Y-15397D01*
X22177Y-15477D01*
X22238Y-15539D01*
X22318Y-15572D01*
X22405Y-15572D01*
X22485Y-15539D01*
X22547Y-15478D01*
X22580Y-15398D01*
X22580Y-16103D01*
X21478Y-16103D01*
X21478Y-09611D01*
X21478Y-09524D01*
X21445Y-09444D01*
X21384Y-09382D01*
X21357Y-09370D01*
X21357Y-01674D01*
X21357Y-01479D01*
X21283Y-01298D01*
X21145Y-01160D01*
X20964Y-01085D01*
X20769Y-01085D01*
X20588Y-01159D01*
X20450Y-01297D01*
X20375Y-01478D01*
X20375Y-01673D01*
X20449Y-01854D01*
X20587Y-01992D01*
X20768Y-02067D01*
X20963Y-02067D01*
X21144Y-01993D01*
X21282Y-01855D01*
X21357Y-01674D01*
X21357Y-09370D01*
X21304Y-09349D01*
X21217Y-09349D01*
X21160Y-09372D01*
X21160Y-04626D01*
X21160Y-04431D01*
X21086Y-04250D01*
X21003Y-04167D01*
X21003Y-03021D01*
X21003Y-02888D01*
X20952Y-02765D01*
X20859Y-02671D01*
X20736Y-02620D01*
X20603Y-02620D01*
X20480Y-02671D01*
X20386Y-02764D01*
X20335Y-02887D01*
X20335Y-03020D01*
X20386Y-03143D01*
X20479Y-03237D01*
X20602Y-03288D01*
X20735Y-03288D01*
X20858Y-03237D01*
X20952Y-03144D01*
X21003Y-03021D01*
X21003Y-04167D01*
X20948Y-04112D01*
X20767Y-04037D01*
X20572Y-04037D01*
X20391Y-04111D01*
X20253Y-04249D01*
X20178Y-04430D01*
X20178Y-04625D01*
X20252Y-04806D01*
X20390Y-04944D01*
X20571Y-05019D01*
X20766Y-05019D01*
X20947Y-04945D01*
X21085Y-04807D01*
X21160Y-04626D01*
X21160Y-09372D01*
X21137Y-09382D01*
X21075Y-09443D01*
X21042Y-09523D01*
X21042Y-09610D01*
X21075Y-09690D01*
X21136Y-09752D01*
X21216Y-09785D01*
X21303Y-09785D01*
X21383Y-09752D01*
X21445Y-09691D01*
X21478Y-09611D01*
X21478Y-16103D01*
X21003Y-16103D01*
X21003Y-06957D01*
X21003Y-06824D01*
X21003Y-06169D01*
X21003Y-06036D01*
X20952Y-05913D01*
X20859Y-05819D01*
X20736Y-05768D01*
X20603Y-05768D01*
X20480Y-05819D01*
X20386Y-05912D01*
X20335Y-06035D01*
X20335Y-06168D01*
X20386Y-06291D01*
X20479Y-06385D01*
X20602Y-06436D01*
X20735Y-06436D01*
X20858Y-06385D01*
X20952Y-06292D01*
X21003Y-06169D01*
X21003Y-06824D01*
X20952Y-06701D01*
X20859Y-06607D01*
X20736Y-06556D01*
X20603Y-06556D01*
X20480Y-06607D01*
X20386Y-06700D01*
X20335Y-06823D01*
X20335Y-06956D01*
X20386Y-07079D01*
X20479Y-07173D01*
X20602Y-07224D01*
X20735Y-07224D01*
X20858Y-07173D01*
X20952Y-07080D01*
X21003Y-06957D01*
X21003Y-16103D01*
X20927Y-16103D01*
X20927Y-16059D01*
X20927Y-14847D01*
X20927Y-14760D01*
X20894Y-14680D01*
X20887Y-14672D01*
X20887Y-11658D01*
X20887Y-11571D01*
X20854Y-11491D01*
X20793Y-11429D01*
X20713Y-11396D01*
X20626Y-11396D01*
X20546Y-11429D01*
X20484Y-11490D01*
X20454Y-11562D01*
X20454Y-10595D01*
X20454Y-10508D01*
X20421Y-10428D01*
X20360Y-10366D01*
X20280Y-10333D01*
X20193Y-10333D01*
X20113Y-10366D01*
X20051Y-10427D01*
X20018Y-10507D01*
X20018Y-10569D01*
X19957Y-10569D01*
X19877Y-10602D01*
X19864Y-10614D01*
X19864Y-09099D01*
X19864Y-09012D01*
X19831Y-08932D01*
X19770Y-08870D01*
X19690Y-08837D01*
X19603Y-08837D01*
X19523Y-08870D01*
X19461Y-08931D01*
X19428Y-09011D01*
X19428Y-09098D01*
X19461Y-09178D01*
X19522Y-09240D01*
X19602Y-09273D01*
X19689Y-09273D01*
X19769Y-09240D01*
X19831Y-09179D01*
X19864Y-09099D01*
X19864Y-10614D01*
X19815Y-10663D01*
X19782Y-10743D01*
X19782Y-10830D01*
X19815Y-10910D01*
X19876Y-10972D01*
X19956Y-11005D01*
X20043Y-11005D01*
X20123Y-10972D01*
X20185Y-10911D01*
X20218Y-10831D01*
X20218Y-10769D01*
X20279Y-10769D01*
X20359Y-10736D01*
X20421Y-10675D01*
X20454Y-10595D01*
X20454Y-11562D01*
X20451Y-11570D01*
X20451Y-11657D01*
X20484Y-11737D01*
X20545Y-11799D01*
X20625Y-11832D01*
X20712Y-11832D01*
X20792Y-11799D01*
X20854Y-11738D01*
X20887Y-11658D01*
X20887Y-14672D01*
X20833Y-14618D01*
X20759Y-14587D01*
X20815Y-14533D01*
X20848Y-14453D01*
X20848Y-14366D01*
X20845Y-14358D01*
X20845Y-13091D01*
X20845Y-12974D01*
X20800Y-12866D01*
X20718Y-12783D01*
X20610Y-12738D01*
X20493Y-12738D01*
X20385Y-12783D01*
X20302Y-12865D01*
X20257Y-12973D01*
X20257Y-13090D01*
X20302Y-13198D01*
X20384Y-13281D01*
X20492Y-13326D01*
X20609Y-13326D01*
X20717Y-13281D01*
X20800Y-13199D01*
X20845Y-13091D01*
X20845Y-14358D01*
X20815Y-14286D01*
X20754Y-14224D01*
X20674Y-14191D01*
X20587Y-14191D01*
X20507Y-14224D01*
X20445Y-14285D01*
X20412Y-14365D01*
X20412Y-14452D01*
X20445Y-14532D01*
X20506Y-14594D01*
X20579Y-14624D01*
X20524Y-14679D01*
X20491Y-14759D01*
X20491Y-14846D01*
X20524Y-14926D01*
X20585Y-14988D01*
X20665Y-15021D01*
X20752Y-15021D01*
X20832Y-14988D01*
X20894Y-14927D01*
X20927Y-14847D01*
X20927Y-16059D01*
X20894Y-15979D01*
X20848Y-15932D01*
X20848Y-15438D01*
X20848Y-15351D01*
X20815Y-15271D01*
X20754Y-15209D01*
X20674Y-15176D01*
X20587Y-15176D01*
X20507Y-15209D01*
X20445Y-15270D01*
X20412Y-15350D01*
X20412Y-15437D01*
X20445Y-15517D01*
X20506Y-15579D01*
X20586Y-15612D01*
X20673Y-15612D01*
X20753Y-15579D01*
X20815Y-15518D01*
X20848Y-15438D01*
X20848Y-15932D01*
X20833Y-15917D01*
X20753Y-15884D01*
X20666Y-15884D01*
X20586Y-15917D01*
X20524Y-15978D01*
X20491Y-16058D01*
X20491Y-16103D01*
X19588Y-16103D01*
X19588Y-10950D01*
X19588Y-10863D01*
X19555Y-10783D01*
X19494Y-10721D01*
X19414Y-10688D01*
X19327Y-10688D01*
X19247Y-10721D01*
X19192Y-10775D01*
X19192Y-04626D01*
X19192Y-04431D01*
X19118Y-04250D01*
X19035Y-04167D01*
X19035Y-03021D01*
X19035Y-02888D01*
X18995Y-02791D01*
X18995Y-01674D01*
X18995Y-01479D01*
X18921Y-01298D01*
X18783Y-01160D01*
X18602Y-01085D01*
X18407Y-01085D01*
X18226Y-01159D01*
X18088Y-01297D01*
X18013Y-01478D01*
X18013Y-01673D01*
X18087Y-01854D01*
X18225Y-01992D01*
X18406Y-02067D01*
X18601Y-02067D01*
X18782Y-01993D01*
X18920Y-01855D01*
X18995Y-01674D01*
X18995Y-02791D01*
X18984Y-02765D01*
X18891Y-02671D01*
X18768Y-02620D01*
X18635Y-02620D01*
X18512Y-02671D01*
X18418Y-02764D01*
X18367Y-02887D01*
X18367Y-03020D01*
X18418Y-03143D01*
X18511Y-03237D01*
X18634Y-03288D01*
X18767Y-03288D01*
X18890Y-03237D01*
X18984Y-03144D01*
X19035Y-03021D01*
X19035Y-04167D01*
X18980Y-04112D01*
X18799Y-04037D01*
X18604Y-04037D01*
X18423Y-04111D01*
X18285Y-04249D01*
X18210Y-04430D01*
X18210Y-04625D01*
X18284Y-04806D01*
X18422Y-04944D01*
X18603Y-05019D01*
X18798Y-05019D01*
X18979Y-04945D01*
X19117Y-04807D01*
X19192Y-04626D01*
X19192Y-10775D01*
X19185Y-10782D01*
X19152Y-10862D01*
X19152Y-10949D01*
X19185Y-11029D01*
X19246Y-11091D01*
X19326Y-11124D01*
X19413Y-11124D01*
X19493Y-11091D01*
X19555Y-11030D01*
X19588Y-10950D01*
X19588Y-16103D01*
X19470Y-16103D01*
X19470Y-14257D01*
X19470Y-14170D01*
X19437Y-14090D01*
X19376Y-14028D01*
X19296Y-13995D01*
X19209Y-13995D01*
X19129Y-14028D01*
X19067Y-14089D01*
X19034Y-14169D01*
X19034Y-14256D01*
X19067Y-14336D01*
X19128Y-14398D01*
X19208Y-14431D01*
X19295Y-14431D01*
X19375Y-14398D01*
X19437Y-14337D01*
X19470Y-14257D01*
X19470Y-16103D01*
X19467Y-16103D01*
X19414Y-16081D01*
X19327Y-16081D01*
X19273Y-16103D01*
X18328Y-16103D01*
X18328Y-11894D01*
X18328Y-11807D01*
X18328Y-11107D01*
X18328Y-11020D01*
X18328Y-09926D01*
X18328Y-09839D01*
X18328Y-08036D01*
X18328Y-07949D01*
X18295Y-07869D01*
X18234Y-07807D01*
X18154Y-07774D01*
X18067Y-07774D01*
X17987Y-07807D01*
X17925Y-07868D01*
X17892Y-07948D01*
X17892Y-08035D01*
X17925Y-08115D01*
X17986Y-08177D01*
X18066Y-08210D01*
X18153Y-08210D01*
X18233Y-08177D01*
X18295Y-08116D01*
X18328Y-08036D01*
X18328Y-09839D01*
X18295Y-09759D01*
X18234Y-09697D01*
X18154Y-09664D01*
X18067Y-09664D01*
X18013Y-09686D01*
X18013Y-09375D01*
X18013Y-09288D01*
X17980Y-09208D01*
X17919Y-09146D01*
X17839Y-09113D01*
X17752Y-09113D01*
X17672Y-09146D01*
X17610Y-09207D01*
X17577Y-09287D01*
X17577Y-09374D01*
X17610Y-09454D01*
X17671Y-09516D01*
X17751Y-09549D01*
X17838Y-09549D01*
X17918Y-09516D01*
X17980Y-09455D01*
X18013Y-09375D01*
X18013Y-09686D01*
X17987Y-09697D01*
X17925Y-09758D01*
X17892Y-09838D01*
X17892Y-09925D01*
X17925Y-10005D01*
X17986Y-10067D01*
X18066Y-10100D01*
X18153Y-10100D01*
X18233Y-10067D01*
X18295Y-10006D01*
X18328Y-09926D01*
X18328Y-11020D01*
X18295Y-10940D01*
X18234Y-10878D01*
X18154Y-10845D01*
X18067Y-10845D01*
X17987Y-10878D01*
X17925Y-10939D01*
X17892Y-11019D01*
X17892Y-11106D01*
X17925Y-11186D01*
X17986Y-11248D01*
X18066Y-11281D01*
X18153Y-11281D01*
X18233Y-11248D01*
X18295Y-11187D01*
X18328Y-11107D01*
X18328Y-11807D01*
X18295Y-11727D01*
X18234Y-11665D01*
X18154Y-11632D01*
X18067Y-11632D01*
X17987Y-11665D01*
X17925Y-11726D01*
X17892Y-11806D01*
X17892Y-11893D01*
X17925Y-11973D01*
X17986Y-12035D01*
X18066Y-12068D01*
X18153Y-12068D01*
X18233Y-12035D01*
X18295Y-11974D01*
X18328Y-11894D01*
X18328Y-16103D01*
X17960Y-16103D01*
X17960Y-12650D01*
X17462Y-11380D01*
X17462Y-06343D01*
X17462Y-06256D01*
X17429Y-06176D01*
X17368Y-06114D01*
X17288Y-06081D01*
X17201Y-06081D01*
X17121Y-06114D01*
X17059Y-06175D01*
X17026Y-06255D01*
X17026Y-06342D01*
X17059Y-06422D01*
X17120Y-06484D01*
X17200Y-06517D01*
X17287Y-06517D01*
X17367Y-06484D01*
X17429Y-06423D01*
X17462Y-06343D01*
X17462Y-11380D01*
X17423Y-11281D01*
X17423Y-09375D01*
X17423Y-09288D01*
X17390Y-09208D01*
X17329Y-09146D01*
X17249Y-09113D01*
X17162Y-09113D01*
X17082Y-09146D01*
X17020Y-09207D01*
X16987Y-09287D01*
X16987Y-09374D01*
X17020Y-09454D01*
X17081Y-09516D01*
X17161Y-09549D01*
X17248Y-09549D01*
X17328Y-09516D01*
X17390Y-09455D01*
X17423Y-09375D01*
X17423Y-11281D01*
X15922Y-07455D01*
X15257Y-08024D01*
X15257Y-04453D01*
X15257Y-04366D01*
X15224Y-04286D01*
X15163Y-04224D01*
X15083Y-04191D01*
X14996Y-04191D01*
X14916Y-04224D01*
X14854Y-04285D01*
X14821Y-04365D01*
X14821Y-04433D01*
X14808Y-04428D01*
X14721Y-04428D01*
X14641Y-04461D01*
X14579Y-04522D01*
X14546Y-04602D01*
X14546Y-04634D01*
X14516Y-04562D01*
X14455Y-04500D01*
X14375Y-04467D01*
X14288Y-04467D01*
X14234Y-04489D01*
X14234Y-01107D01*
X14234Y-01020D01*
X14201Y-00940D01*
X14140Y-00878D01*
X14060Y-00845D01*
X13973Y-00845D01*
X13893Y-00878D01*
X13831Y-00939D01*
X13798Y-01019D01*
X13798Y-01106D01*
X13831Y-01186D01*
X13892Y-01248D01*
X13972Y-01281D01*
X14059Y-01281D01*
X14139Y-01248D01*
X14201Y-01187D01*
X14234Y-01107D01*
X14234Y-04489D01*
X14208Y-04500D01*
X14146Y-04561D01*
X14113Y-04641D01*
X14113Y-04728D01*
X14146Y-04808D01*
X14207Y-04870D01*
X14287Y-04903D01*
X14374Y-04903D01*
X14454Y-04870D01*
X14516Y-04809D01*
X14549Y-04729D01*
X14549Y-04696D01*
X14579Y-04769D01*
X14640Y-04831D01*
X14720Y-04864D01*
X14807Y-04864D01*
X14887Y-04831D01*
X14949Y-04770D01*
X14982Y-04690D01*
X14982Y-04621D01*
X14995Y-04627D01*
X15082Y-04627D01*
X15162Y-04594D01*
X15224Y-04533D01*
X15257Y-04453D01*
X15257Y-08024D01*
X14982Y-08259D01*
X14982Y-06107D01*
X14982Y-06020D01*
X14949Y-05940D01*
X14888Y-05878D01*
X14808Y-05845D01*
X14721Y-05845D01*
X14641Y-05878D01*
X14579Y-05939D01*
X14546Y-06019D01*
X14546Y-06081D01*
X14524Y-06081D01*
X14509Y-06087D01*
X14509Y-05674D01*
X14509Y-05587D01*
X14476Y-05507D01*
X14415Y-05445D01*
X14335Y-05412D01*
X14248Y-05412D01*
X14168Y-05445D01*
X14106Y-05506D01*
X14073Y-05586D01*
X14073Y-05673D01*
X14079Y-05688D01*
X14012Y-05688D01*
X13932Y-05721D01*
X13879Y-05773D01*
X13879Y-04296D01*
X13879Y-04209D01*
X13846Y-04129D01*
X13785Y-04067D01*
X13705Y-04034D01*
X13618Y-04034D01*
X13538Y-04067D01*
X13476Y-04128D01*
X13443Y-04208D01*
X13443Y-04295D01*
X13453Y-04319D01*
X13430Y-04310D01*
X13343Y-04310D01*
X13263Y-04343D01*
X13248Y-04357D01*
X13195Y-04303D01*
X13115Y-04270D01*
X13028Y-04270D01*
X12948Y-04303D01*
X12886Y-04364D01*
X12853Y-04444D01*
X12853Y-04531D01*
X12886Y-04611D01*
X12947Y-04673D01*
X13027Y-04706D01*
X13114Y-04706D01*
X13194Y-04673D01*
X13208Y-04658D01*
X13262Y-04713D01*
X13342Y-04746D01*
X13429Y-04746D01*
X13509Y-04713D01*
X13571Y-04652D01*
X13604Y-04572D01*
X13604Y-04485D01*
X13593Y-04460D01*
X13617Y-04470D01*
X13704Y-04470D01*
X13784Y-04437D01*
X13846Y-04376D01*
X13879Y-04296D01*
X13879Y-05773D01*
X13870Y-05782D01*
X13837Y-05862D01*
X13837Y-05866D01*
X13784Y-05845D01*
X13697Y-05845D01*
X13617Y-05878D01*
X13555Y-05939D01*
X13522Y-06019D01*
X13522Y-06106D01*
X13555Y-06186D01*
X13616Y-06248D01*
X13696Y-06281D01*
X13783Y-06281D01*
X13863Y-06248D01*
X13925Y-06187D01*
X13958Y-06107D01*
X13958Y-06102D01*
X14011Y-06124D01*
X14098Y-06124D01*
X14178Y-06091D01*
X14240Y-06030D01*
X14273Y-05950D01*
X14273Y-05863D01*
X14266Y-05848D01*
X14334Y-05848D01*
X14414Y-05815D01*
X14476Y-05754D01*
X14509Y-05674D01*
X14509Y-06087D01*
X14444Y-06114D01*
X14382Y-06175D01*
X14349Y-06255D01*
X14349Y-06342D01*
X14382Y-06422D01*
X14443Y-06484D01*
X14523Y-06517D01*
X14610Y-06517D01*
X14690Y-06484D01*
X14752Y-06423D01*
X14785Y-06343D01*
X14785Y-06281D01*
X14807Y-06281D01*
X14887Y-06248D01*
X14949Y-06187D01*
X14982Y-06107D01*
X14982Y-08259D01*
X14667Y-08528D01*
X14667Y-07485D01*
X14667Y-07398D01*
X14634Y-07318D01*
X14573Y-07256D01*
X14493Y-07223D01*
X14406Y-07223D01*
X14326Y-07256D01*
X14264Y-07317D01*
X14231Y-07397D01*
X14231Y-07484D01*
X14264Y-07564D01*
X14325Y-07626D01*
X14405Y-07659D01*
X14492Y-07659D01*
X14572Y-07626D01*
X14634Y-07565D01*
X14667Y-07485D01*
X14667Y-08528D01*
X13960Y-09134D01*
X13932Y-09146D01*
X13870Y-09207D01*
X13867Y-09214D01*
X13013Y-09944D01*
X13013Y-09375D01*
X13013Y-09288D01*
X12980Y-09208D01*
X12919Y-09146D01*
X12839Y-09113D01*
X12752Y-09113D01*
X12698Y-09135D01*
X12698Y-06343D01*
X12698Y-06256D01*
X12698Y-01107D01*
X12698Y-01020D01*
X12665Y-00940D01*
X12604Y-00878D01*
X12524Y-00845D01*
X12437Y-00845D01*
X12357Y-00878D01*
X12295Y-00939D01*
X12263Y-01015D01*
X12232Y-00940D01*
X12171Y-00878D01*
X12091Y-00845D01*
X12004Y-00845D01*
X11924Y-00878D01*
X11862Y-00939D01*
X11829Y-01019D01*
X11829Y-01106D01*
X11862Y-01186D01*
X11923Y-01248D01*
X12003Y-01281D01*
X12090Y-01281D01*
X12170Y-01248D01*
X12232Y-01187D01*
X12263Y-01110D01*
X12295Y-01186D01*
X12356Y-01248D01*
X12436Y-01281D01*
X12523Y-01281D01*
X12603Y-01248D01*
X12665Y-01187D01*
X12698Y-01107D01*
X12698Y-06256D01*
X12665Y-06176D01*
X12659Y-06169D01*
X12659Y-05556D01*
X12659Y-05469D01*
X12626Y-05389D01*
X12565Y-05327D01*
X12485Y-05294D01*
X12398Y-05294D01*
X12318Y-05327D01*
X12256Y-05388D01*
X12223Y-05468D01*
X12223Y-05555D01*
X12256Y-05635D01*
X12317Y-05697D01*
X12397Y-05730D01*
X12484Y-05730D01*
X12564Y-05697D01*
X12626Y-05636D01*
X12659Y-05556D01*
X12659Y-06169D01*
X12604Y-06114D01*
X12524Y-06081D01*
X12437Y-06081D01*
X12357Y-06114D01*
X12295Y-06175D01*
X12262Y-06255D01*
X12262Y-06342D01*
X12295Y-06422D01*
X12356Y-06484D01*
X12436Y-06517D01*
X12523Y-06517D01*
X12603Y-06484D01*
X12665Y-06423D01*
X12698Y-06343D01*
X12698Y-09135D01*
X12672Y-09146D01*
X12610Y-09207D01*
X12577Y-09287D01*
X12577Y-09374D01*
X12610Y-09454D01*
X12671Y-09516D01*
X12751Y-09549D01*
X12838Y-09549D01*
X12918Y-09516D01*
X12980Y-09455D01*
X13013Y-09375D01*
X13013Y-09944D01*
X12383Y-10483D01*
X12383Y-09493D01*
X12383Y-09406D01*
X12350Y-09326D01*
X12289Y-09264D01*
X12209Y-09231D01*
X12122Y-09231D01*
X12042Y-09264D01*
X11980Y-09325D01*
X11950Y-09397D01*
X11950Y-06304D01*
X11950Y-06217D01*
X11917Y-06137D01*
X11856Y-06075D01*
X11776Y-06042D01*
X11689Y-06042D01*
X11609Y-06075D01*
X11547Y-06136D01*
X11514Y-06216D01*
X11514Y-06303D01*
X11547Y-06383D01*
X11608Y-06445D01*
X11688Y-06478D01*
X11775Y-06478D01*
X11855Y-06445D01*
X11917Y-06384D01*
X11950Y-06304D01*
X11950Y-09397D01*
X11947Y-09405D01*
X11947Y-09492D01*
X11980Y-09572D01*
X12041Y-09634D01*
X12121Y-09667D01*
X12208Y-09667D01*
X12288Y-09634D01*
X12350Y-09573D01*
X12383Y-09493D01*
X12383Y-10483D01*
X11996Y-10815D01*
X11973Y-10806D01*
X11886Y-10806D01*
X11832Y-10828D01*
X11832Y-07524D01*
X11832Y-07437D01*
X11799Y-07357D01*
X11738Y-07295D01*
X11658Y-07262D01*
X11571Y-07262D01*
X11491Y-07295D01*
X11429Y-07356D01*
X11396Y-07436D01*
X11396Y-07523D01*
X11429Y-07603D01*
X11490Y-07665D01*
X11570Y-07698D01*
X11657Y-07698D01*
X11737Y-07665D01*
X11799Y-07604D01*
X11832Y-07524D01*
X11832Y-10828D01*
X11806Y-10839D01*
X11744Y-10900D01*
X11711Y-10980D01*
X11711Y-11059D01*
X11399Y-11326D01*
X11399Y-08863D01*
X11399Y-08776D01*
X11366Y-08696D01*
X11305Y-08634D01*
X11225Y-08601D01*
X11138Y-08601D01*
X11058Y-08634D01*
X10996Y-08695D01*
X10966Y-08767D01*
X10966Y-08697D01*
X10933Y-08617D01*
X10887Y-08570D01*
X10887Y-07406D01*
X10887Y-07319D01*
X10854Y-07239D01*
X10793Y-07177D01*
X10713Y-07144D01*
X10626Y-07144D01*
X10546Y-07177D01*
X10484Y-07238D01*
X10451Y-07318D01*
X10451Y-07405D01*
X10484Y-07485D01*
X10545Y-07547D01*
X10625Y-07580D01*
X10712Y-07580D01*
X10792Y-07547D01*
X10854Y-07486D01*
X10887Y-07406D01*
X10887Y-08570D01*
X10872Y-08555D01*
X10792Y-08522D01*
X10705Y-08522D01*
X10625Y-08555D01*
X10563Y-08616D01*
X10530Y-08696D01*
X10530Y-08783D01*
X10560Y-08856D01*
X10524Y-08892D01*
X10491Y-08972D01*
X10491Y-09059D01*
X10524Y-09139D01*
X10585Y-09201D01*
X10661Y-09232D01*
X10586Y-09264D01*
X10524Y-09325D01*
X10491Y-09405D01*
X10491Y-09492D01*
X10524Y-09572D01*
X10585Y-09634D01*
X10665Y-09667D01*
X10752Y-09667D01*
X10832Y-09634D01*
X10894Y-09573D01*
X10927Y-09493D01*
X10927Y-09406D01*
X10894Y-09326D01*
X10833Y-09264D01*
X10756Y-09232D01*
X10832Y-09201D01*
X10894Y-09140D01*
X10927Y-09060D01*
X10927Y-08973D01*
X10896Y-08899D01*
X10933Y-08864D01*
X10963Y-08791D01*
X10963Y-08862D01*
X10996Y-08942D01*
X11057Y-09004D01*
X11137Y-09037D01*
X11224Y-09037D01*
X11304Y-09004D01*
X11366Y-08943D01*
X11399Y-08863D01*
X11399Y-11326D01*
X10730Y-11899D01*
X10730Y-09965D01*
X10730Y-09878D01*
X10697Y-09798D01*
X10636Y-09736D01*
X10556Y-09703D01*
X10469Y-09703D01*
X10389Y-09736D01*
X10327Y-09797D01*
X10294Y-09877D01*
X10294Y-09964D01*
X10327Y-10044D01*
X10388Y-10106D01*
X10468Y-10139D01*
X10555Y-10139D01*
X10635Y-10106D01*
X10697Y-10045D01*
X10730Y-09965D01*
X10730Y-11899D01*
X10670Y-11951D01*
X10670Y-12890D01*
X10061Y-13220D01*
X10061Y-06934D01*
X10061Y-06847D01*
X10028Y-06767D01*
X09967Y-06705D01*
X09887Y-06672D01*
X09800Y-06672D01*
X09720Y-06705D01*
X09658Y-06766D01*
X09625Y-06846D01*
X09625Y-06933D01*
X09658Y-07013D01*
X09719Y-07075D01*
X09799Y-07108D01*
X09886Y-07108D01*
X09966Y-07075D01*
X10028Y-07014D01*
X10061Y-06934D01*
X10061Y-13220D01*
X09706Y-13413D01*
X09706Y-08233D01*
X09706Y-08146D01*
X09673Y-08066D01*
X09612Y-08004D01*
X09532Y-07971D01*
X09531Y-07971D01*
X09531Y-02625D01*
X09515Y-02416D01*
X09464Y-02293D01*
X09375Y-02265D01*
X09290Y-02350D01*
X09290Y-02180D01*
X09262Y-02091D01*
X09062Y-02024D01*
X08853Y-02040D01*
X08730Y-02091D01*
X08702Y-02180D01*
X08996Y-02474D01*
X09290Y-02180D01*
X09290Y-02350D01*
X09081Y-02559D01*
X09375Y-02853D01*
X09464Y-02825D01*
X09531Y-02625D01*
X09531Y-07971D01*
X09445Y-07971D01*
X09365Y-08004D01*
X09303Y-08065D01*
X09290Y-08096D01*
X09290Y-02938D01*
X08996Y-02644D01*
X08911Y-02729D01*
X08911Y-02559D01*
X08617Y-02265D01*
X08528Y-02293D01*
X08461Y-02493D01*
X08477Y-02702D01*
X08528Y-02825D01*
X08617Y-02853D01*
X08911Y-02559D01*
X08911Y-02729D01*
X08702Y-02938D01*
X08730Y-03027D01*
X08930Y-03094D01*
X09139Y-03078D01*
X09262Y-03027D01*
X09290Y-02938D01*
X09290Y-08096D01*
X09270Y-08145D01*
X09270Y-08232D01*
X09303Y-08312D01*
X09364Y-08374D01*
X09444Y-08407D01*
X09531Y-08407D01*
X09611Y-08374D01*
X09673Y-08313D01*
X09706Y-08233D01*
X09706Y-13413D01*
X09667Y-13434D01*
X09667Y-12682D01*
X09667Y-12595D01*
X09634Y-12515D01*
X09573Y-12453D01*
X09493Y-12420D01*
X09406Y-12420D01*
X09326Y-12453D01*
X09264Y-12514D01*
X09231Y-12594D01*
X09231Y-12681D01*
X09264Y-12761D01*
X09325Y-12823D01*
X09405Y-12856D01*
X09492Y-12856D01*
X09572Y-12823D01*
X09634Y-12762D01*
X09667Y-12682D01*
X09667Y-13434D01*
X08919Y-13840D01*
X08919Y-06894D01*
X08919Y-06807D01*
X08886Y-06727D01*
X08825Y-06665D01*
X08745Y-06632D01*
X08658Y-06632D01*
X08578Y-06665D01*
X08516Y-06726D01*
X08483Y-06806D01*
X08483Y-06893D01*
X08516Y-06973D01*
X08577Y-07035D01*
X08657Y-07068D01*
X08744Y-07068D01*
X08824Y-07035D01*
X08886Y-06974D01*
X08919Y-06894D01*
X08919Y-13840D01*
X08414Y-14114D01*
X08414Y-02642D01*
X08414Y-02476D01*
X08350Y-02322D01*
X08233Y-02205D01*
X08079Y-02141D01*
X07913Y-02141D01*
X07759Y-02205D01*
X07642Y-02322D01*
X07578Y-02476D01*
X07578Y-02642D01*
X07642Y-02796D01*
X07759Y-02913D01*
X07913Y-02977D01*
X08079Y-02977D01*
X08233Y-02913D01*
X08350Y-02796D01*
X08414Y-02642D01*
X08414Y-14114D01*
X07914Y-14386D01*
X07914Y-15472D01*
X08241Y-15472D01*
X08287Y-15491D01*
X08404Y-15491D01*
X08449Y-15472D01*
X08864Y-15472D01*
X10833Y-14803D01*
X11347Y-14803D01*
X11317Y-14877D01*
X11317Y-14964D01*
X11350Y-15044D01*
X11411Y-15106D01*
X11491Y-15139D01*
X11578Y-15139D01*
X11658Y-15106D01*
X11720Y-15045D01*
X11753Y-14965D01*
X11753Y-14878D01*
X11722Y-14803D01*
X13513Y-14803D01*
X13483Y-14877D01*
X13483Y-14964D01*
X13516Y-15044D01*
X13577Y-15106D01*
X13657Y-15139D01*
X13744Y-15139D01*
X13824Y-15106D01*
X13886Y-15045D01*
X13919Y-14965D01*
X13919Y-14878D01*
X13888Y-14803D01*
X15408Y-14803D01*
X17960Y-12650D01*
X17960Y-16103D01*
X17620Y-16103D01*
X17620Y-13745D01*
X17620Y-13658D01*
X17587Y-13578D01*
X17526Y-13516D01*
X17446Y-13483D01*
X17359Y-13483D01*
X17279Y-13516D01*
X17264Y-13530D01*
X17250Y-13516D01*
X17170Y-13483D01*
X17083Y-13483D01*
X17003Y-13516D01*
X16941Y-13577D01*
X16908Y-13657D01*
X16908Y-13744D01*
X16941Y-13824D01*
X17002Y-13886D01*
X17082Y-13919D01*
X17169Y-13919D01*
X17249Y-13886D01*
X17263Y-13871D01*
X17278Y-13886D01*
X17358Y-13919D01*
X17445Y-13919D01*
X17525Y-13886D01*
X17587Y-13825D01*
X17620Y-13745D01*
X17620Y-16103D01*
X17423Y-16103D01*
X17423Y-14926D01*
X17423Y-14839D01*
X17390Y-14759D01*
X17329Y-14697D01*
X17249Y-14664D01*
X17162Y-14664D01*
X17082Y-14697D01*
X17020Y-14758D01*
X16999Y-14807D01*
X16996Y-14798D01*
X16935Y-14736D01*
X16855Y-14703D01*
X16768Y-14703D01*
X16688Y-14736D01*
X16626Y-14797D01*
X16593Y-14877D01*
X16593Y-14964D01*
X16626Y-15044D01*
X16687Y-15106D01*
X16767Y-15139D01*
X16854Y-15139D01*
X16934Y-15106D01*
X16996Y-15045D01*
X17016Y-14995D01*
X17020Y-15005D01*
X17081Y-15067D01*
X17161Y-15100D01*
X17248Y-15100D01*
X17328Y-15067D01*
X17390Y-15006D01*
X17423Y-14926D01*
X17423Y-16103D01*
X16345Y-16103D01*
X16360Y-16068D01*
X16360Y-15981D01*
X16327Y-15901D01*
X16266Y-15839D01*
X16186Y-15806D01*
X16099Y-15806D01*
X16019Y-15839D01*
X15957Y-15900D01*
X15924Y-15980D01*
X15924Y-16067D01*
X15938Y-16103D01*
X07953Y-16103D01*
X07698Y-16103D01*
X07698Y-07249D01*
X07698Y-07162D01*
X07665Y-07082D01*
X07604Y-07020D01*
X07524Y-06987D01*
X07437Y-06987D01*
X07414Y-06996D01*
X07414Y-02642D01*
X07414Y-02476D01*
X07350Y-02322D01*
X07233Y-02205D01*
X07079Y-02141D01*
X06913Y-02141D01*
X06759Y-02205D01*
X06642Y-02322D01*
X06578Y-02476D01*
X06578Y-02642D01*
X06642Y-02796D01*
X06759Y-02913D01*
X06913Y-02977D01*
X07079Y-02977D01*
X07233Y-02913D01*
X07350Y-02796D01*
X07414Y-02642D01*
X07414Y-06996D01*
X07357Y-07020D01*
X07295Y-07081D01*
X07262Y-07161D01*
X07262Y-07248D01*
X07295Y-07328D01*
X07356Y-07390D01*
X07436Y-07423D01*
X07523Y-07423D01*
X07603Y-07390D01*
X07665Y-07329D01*
X07698Y-07249D01*
X07698Y-16103D01*
X07535Y-16103D01*
X07577Y-16004D01*
X07577Y-15887D01*
X07532Y-15779D01*
X07450Y-15696D01*
X07342Y-15651D01*
X07341Y-15651D01*
X07341Y-14823D01*
X07341Y-14706D01*
X07296Y-14598D01*
X07214Y-14515D01*
X07106Y-14470D01*
X06989Y-14470D01*
X06881Y-14515D01*
X06798Y-14597D01*
X06753Y-14705D01*
X06753Y-14822D01*
X06798Y-14930D01*
X06880Y-15013D01*
X06988Y-15058D01*
X07105Y-15058D01*
X07213Y-15013D01*
X07296Y-14931D01*
X07341Y-14823D01*
X07341Y-15651D01*
X07225Y-15651D01*
X07117Y-15696D01*
X07034Y-15778D01*
X06989Y-15886D01*
X06989Y-16003D01*
X07030Y-16103D01*
X06414Y-16103D01*
X06414Y-02642D01*
X06414Y-02476D01*
X06350Y-02322D01*
X06233Y-02205D01*
X06079Y-02141D01*
X05913Y-02141D01*
X05759Y-02205D01*
X05642Y-02322D01*
X05578Y-02476D01*
X05578Y-02642D01*
X05642Y-02796D01*
X05759Y-02913D01*
X05913Y-02977D01*
X06079Y-02977D01*
X06233Y-02913D01*
X06350Y-02796D01*
X06414Y-02642D01*
X06414Y-16103D01*
X06319Y-16103D01*
X05414Y-14868D01*
X05414Y-02642D01*
X05414Y-02476D01*
X05350Y-02322D01*
X05233Y-02205D01*
X05079Y-02141D01*
X04913Y-02141D01*
X04759Y-02205D01*
X04642Y-02322D01*
X04578Y-02476D01*
X04578Y-02642D01*
X04642Y-02796D01*
X04759Y-02913D01*
X04913Y-02977D01*
X05079Y-02977D01*
X05233Y-02913D01*
X05350Y-02796D01*
X05414Y-02642D01*
X05414Y-14868D01*
X04414Y-13504D01*
X04414Y-02883D01*
X04414Y-02836D01*
X04414Y-02236D01*
X04396Y-02193D01*
X04363Y-02159D01*
X04320Y-02141D01*
X04273Y-02141D01*
X03673Y-02141D01*
X03630Y-02159D01*
X03596Y-02192D01*
X03578Y-02235D01*
X03578Y-02282D01*
X03578Y-02882D01*
X03596Y-02925D01*
X03629Y-02959D01*
X03672Y-02977D01*
X03719Y-02977D01*
X04319Y-02977D01*
X04362Y-02959D01*
X04396Y-02926D01*
X04414Y-02883D01*
X04414Y-13504D01*
X04173Y-13176D01*
X04173Y-04489D01*
X02874Y-04489D01*
X02874Y-01318D01*
X02677Y-00840D01*
X02312Y-00475D01*
X01835Y-00277D01*
X01318Y-00276D01*
X00840Y-00473D01*
X00475Y-00838D01*
X00277Y-01315D01*
X00276Y-01832D01*
X00473Y-02310D01*
X00838Y-02675D01*
X01315Y-02873D01*
X01832Y-02874D01*
X02310Y-02677D01*
X02675Y-02312D01*
X02873Y-01835D01*
X02874Y-01318D01*
X02874Y-04489D01*
X00039Y-04489D01*
X00039Y-00118D01*
X41103Y-00118D01*
X41103Y-04067D01*
X41044Y-04210D01*
X41044Y-04452D01*
X41103Y-04594D01*
X41103Y-06713D01*
X41081Y-06767D01*
X41081Y-06854D01*
X41103Y-06907D01*
X41103Y-10118D01*
G54D10*
G36*
X17748Y-12586D02*
X16557Y-13585D01*
X16557Y-12564D01*
X16557Y-12477D01*
X16557Y-11973D01*
X16557Y-11886D01*
X16557Y-10320D01*
X16557Y-10233D01*
X16524Y-10153D01*
X16463Y-10091D01*
X16383Y-10058D01*
X16296Y-10058D01*
X16216Y-10091D01*
X16154Y-10152D01*
X16121Y-10232D01*
X16121Y-10319D01*
X16154Y-10399D01*
X16215Y-10461D01*
X16295Y-10494D01*
X16382Y-10494D01*
X16462Y-10461D01*
X16524Y-10400D01*
X16557Y-10320D01*
X16557Y-11886D01*
X16524Y-11806D01*
X16463Y-11744D01*
X16383Y-11711D01*
X16296Y-11711D01*
X16216Y-11744D01*
X16154Y-11805D01*
X16121Y-11885D01*
X16121Y-11972D01*
X16154Y-12052D01*
X16215Y-12114D01*
X16295Y-12147D01*
X16382Y-12147D01*
X16462Y-12114D01*
X16524Y-12053D01*
X16557Y-11973D01*
X16557Y-12477D01*
X16524Y-12397D01*
X16463Y-12335D01*
X16383Y-12302D01*
X16296Y-12302D01*
X16216Y-12335D01*
X16154Y-12396D01*
X16121Y-12476D01*
X16121Y-12563D01*
X16154Y-12643D01*
X16215Y-12705D01*
X16295Y-12738D01*
X16382Y-12738D01*
X16462Y-12705D01*
X16524Y-12644D01*
X16557Y-12564D01*
X16557Y-13585D01*
X16084Y-13982D01*
X16084Y-13705D01*
X16084Y-13618D01*
X16051Y-13538D01*
X15990Y-13476D01*
X15966Y-13466D01*
X15966Y-09375D01*
X15966Y-09288D01*
X15933Y-09208D01*
X15872Y-09146D01*
X15792Y-09113D01*
X15705Y-09113D01*
X15625Y-09146D01*
X15563Y-09207D01*
X15530Y-09287D01*
X15530Y-09374D01*
X15563Y-09454D01*
X15624Y-09516D01*
X15704Y-09549D01*
X15791Y-09549D01*
X15871Y-09516D01*
X15933Y-09455D01*
X15966Y-09375D01*
X15966Y-13466D01*
X15910Y-13443D01*
X15823Y-13443D01*
X15743Y-13476D01*
X15681Y-13537D01*
X15648Y-13617D01*
X15648Y-13704D01*
X15681Y-13784D01*
X15742Y-13846D01*
X15822Y-13879D01*
X15909Y-13879D01*
X15989Y-13846D01*
X16051Y-13785D01*
X16084Y-13705D01*
X16084Y-13982D01*
X15340Y-14607D01*
X14982Y-14607D01*
X14982Y-13745D01*
X14982Y-13658D01*
X14949Y-13578D01*
X14888Y-13516D01*
X14808Y-13483D01*
X14721Y-13483D01*
X14641Y-13516D01*
X14579Y-13577D01*
X14546Y-13657D01*
X14546Y-13744D01*
X14579Y-13824D01*
X14640Y-13886D01*
X14720Y-13919D01*
X14807Y-13919D01*
X14887Y-13886D01*
X14949Y-13825D01*
X14982Y-13745D01*
X14982Y-14607D01*
X13604Y-14607D01*
X13604Y-13390D01*
X13604Y-13303D01*
X13571Y-13223D01*
X13510Y-13161D01*
X13430Y-13128D01*
X13343Y-13128D01*
X13263Y-13161D01*
X13201Y-13222D01*
X13168Y-13302D01*
X13168Y-13389D01*
X13201Y-13469D01*
X13262Y-13531D01*
X13342Y-13564D01*
X13429Y-13564D01*
X13509Y-13531D01*
X13571Y-13470D01*
X13604Y-13390D01*
X13604Y-14607D01*
X12462Y-14607D01*
X12462Y-12839D01*
X12462Y-12752D01*
X12462Y-12249D01*
X12462Y-12162D01*
X12462Y-11658D01*
X12462Y-11571D01*
X12429Y-11491D01*
X12368Y-11429D01*
X12288Y-11396D01*
X12201Y-11396D01*
X12121Y-11429D01*
X12059Y-11490D01*
X12026Y-11570D01*
X12026Y-11657D01*
X12059Y-11737D01*
X12120Y-11799D01*
X12200Y-11832D01*
X12287Y-11832D01*
X12367Y-11799D01*
X12429Y-11738D01*
X12462Y-11658D01*
X12462Y-12162D01*
X12429Y-12082D01*
X12368Y-12020D01*
X12288Y-11987D01*
X12201Y-11987D01*
X12121Y-12020D01*
X12059Y-12081D01*
X12026Y-12161D01*
X12026Y-12248D01*
X12059Y-12328D01*
X12120Y-12390D01*
X12200Y-12423D01*
X12287Y-12423D01*
X12367Y-12390D01*
X12429Y-12329D01*
X12462Y-12249D01*
X12462Y-12752D01*
X12429Y-12672D01*
X12368Y-12610D01*
X12288Y-12577D01*
X12201Y-12577D01*
X12121Y-12610D01*
X12059Y-12671D01*
X12026Y-12751D01*
X12026Y-12838D01*
X12059Y-12918D01*
X12120Y-12980D01*
X12200Y-13013D01*
X12287Y-13013D01*
X12367Y-12980D01*
X12429Y-12919D01*
X12462Y-12839D01*
X12462Y-14607D01*
X12029Y-14607D01*
X12029Y-13390D01*
X12029Y-13303D01*
X11996Y-13223D01*
X11935Y-13161D01*
X11855Y-13128D01*
X11768Y-13128D01*
X11688Y-13161D01*
X11626Y-13222D01*
X11593Y-13302D01*
X11593Y-13389D01*
X11626Y-13469D01*
X11687Y-13531D01*
X11767Y-13564D01*
X11854Y-13564D01*
X11934Y-13531D01*
X11996Y-13470D01*
X12029Y-13390D01*
X12029Y-14607D01*
X11242Y-14607D01*
X11242Y-13390D01*
X11242Y-13303D01*
X11209Y-13223D01*
X11148Y-13161D01*
X11068Y-13128D01*
X10981Y-13128D01*
X10901Y-13161D01*
X10839Y-13222D01*
X10806Y-13302D01*
X10806Y-13389D01*
X10839Y-13469D01*
X10900Y-13531D01*
X10980Y-13564D01*
X11067Y-13564D01*
X11147Y-13531D01*
X11209Y-13470D01*
X11242Y-13390D01*
X11242Y-14607D01*
X10821Y-14607D01*
X08655Y-15315D01*
X08110Y-15315D01*
X08110Y-14551D01*
X09318Y-13877D01*
X09264Y-13931D01*
X09231Y-14011D01*
X09231Y-14098D01*
X09264Y-14178D01*
X09325Y-14240D01*
X09405Y-14273D01*
X09492Y-14273D01*
X09572Y-14240D01*
X09634Y-14179D01*
X09667Y-14099D01*
X09667Y-14012D01*
X09634Y-13932D01*
X09573Y-13870D01*
X09493Y-13837D01*
X09406Y-13837D01*
X09348Y-13860D01*
X10866Y-13015D01*
X10866Y-12065D01*
X11837Y-11222D01*
X11885Y-11242D01*
X11972Y-11242D01*
X12052Y-11209D01*
X12114Y-11148D01*
X12147Y-11068D01*
X12147Y-10981D01*
X12138Y-10961D01*
X13873Y-09457D01*
X13931Y-09516D01*
X14011Y-09549D01*
X14098Y-09549D01*
X14178Y-09516D01*
X14240Y-09455D01*
X14273Y-09375D01*
X14273Y-09288D01*
X14240Y-09208D01*
X14203Y-09170D01*
X15850Y-07743D01*
X16386Y-09113D01*
X16374Y-09113D01*
X16294Y-09146D01*
X16232Y-09207D01*
X16199Y-09287D01*
X16199Y-09374D01*
X16232Y-09454D01*
X16293Y-09516D01*
X16373Y-09549D01*
X16460Y-09549D01*
X16540Y-09516D01*
X16543Y-09512D01*
X17748Y-12586D01*
X17748Y-12586D01*
G37*
G54D22*
X17748Y-12586D02*
X16557Y-13585D01*
X16557Y-12564D01*
X16557Y-12477D01*
X16557Y-11973D01*
X16557Y-11886D01*
X16557Y-10320D01*
X16557Y-10233D01*
X16524Y-10153D01*
X16463Y-10091D01*
X16383Y-10058D01*
X16296Y-10058D01*
X16216Y-10091D01*
X16154Y-10152D01*
X16121Y-10232D01*
X16121Y-10319D01*
X16154Y-10399D01*
X16215Y-10461D01*
X16295Y-10494D01*
X16382Y-10494D01*
X16462Y-10461D01*
X16524Y-10400D01*
X16557Y-10320D01*
X16557Y-11886D01*
X16524Y-11806D01*
X16463Y-11744D01*
X16383Y-11711D01*
X16296Y-11711D01*
X16216Y-11744D01*
X16154Y-11805D01*
X16121Y-11885D01*
X16121Y-11972D01*
X16154Y-12052D01*
X16215Y-12114D01*
X16295Y-12147D01*
X16382Y-12147D01*
X16462Y-12114D01*
X16524Y-12053D01*
X16557Y-11973D01*
X16557Y-12477D01*
X16524Y-12397D01*
X16463Y-12335D01*
X16383Y-12302D01*
X16296Y-12302D01*
X16216Y-12335D01*
X16154Y-12396D01*
X16121Y-12476D01*
X16121Y-12563D01*
X16154Y-12643D01*
X16215Y-12705D01*
X16295Y-12738D01*
X16382Y-12738D01*
X16462Y-12705D01*
X16524Y-12644D01*
X16557Y-12564D01*
X16557Y-13585D01*
X16084Y-13982D01*
X16084Y-13705D01*
X16084Y-13618D01*
X16051Y-13538D01*
X15990Y-13476D01*
X15966Y-13466D01*
X15966Y-09375D01*
X15966Y-09288D01*
X15933Y-09208D01*
X15872Y-09146D01*
X15792Y-09113D01*
X15705Y-09113D01*
X15625Y-09146D01*
X15563Y-09207D01*
X15530Y-09287D01*
X15530Y-09374D01*
X15563Y-09454D01*
X15624Y-09516D01*
X15704Y-09549D01*
X15791Y-09549D01*
X15871Y-09516D01*
X15933Y-09455D01*
X15966Y-09375D01*
X15966Y-13466D01*
X15910Y-13443D01*
X15823Y-13443D01*
X15743Y-13476D01*
X15681Y-13537D01*
X15648Y-13617D01*
X15648Y-13704D01*
X15681Y-13784D01*
X15742Y-13846D01*
X15822Y-13879D01*
X15909Y-13879D01*
X15989Y-13846D01*
X16051Y-13785D01*
X16084Y-13705D01*
X16084Y-13982D01*
X15340Y-14607D01*
X14982Y-14607D01*
X14982Y-13745D01*
X14982Y-13658D01*
X14949Y-13578D01*
X14888Y-13516D01*
X14808Y-13483D01*
X14721Y-13483D01*
X14641Y-13516D01*
X14579Y-13577D01*
X14546Y-13657D01*
X14546Y-13744D01*
X14579Y-13824D01*
X14640Y-13886D01*
X14720Y-13919D01*
X14807Y-13919D01*
X14887Y-13886D01*
X14949Y-13825D01*
X14982Y-13745D01*
X14982Y-14607D01*
X13604Y-14607D01*
X13604Y-13390D01*
X13604Y-13303D01*
X13571Y-13223D01*
X13510Y-13161D01*
X13430Y-13128D01*
X13343Y-13128D01*
X13263Y-13161D01*
X13201Y-13222D01*
X13168Y-13302D01*
X13168Y-13389D01*
X13201Y-13469D01*
X13262Y-13531D01*
X13342Y-13564D01*
X13429Y-13564D01*
X13509Y-13531D01*
X13571Y-13470D01*
X13604Y-13390D01*
X13604Y-14607D01*
X12462Y-14607D01*
X12462Y-12839D01*
X12462Y-12752D01*
X12462Y-12249D01*
X12462Y-12162D01*
X12462Y-11658D01*
X12462Y-11571D01*
X12429Y-11491D01*
X12368Y-11429D01*
X12288Y-11396D01*
X12201Y-11396D01*
X12121Y-11429D01*
X12059Y-11490D01*
X12026Y-11570D01*
X12026Y-11657D01*
X12059Y-11737D01*
X12120Y-11799D01*
X12200Y-11832D01*
X12287Y-11832D01*
X12367Y-11799D01*
X12429Y-11738D01*
X12462Y-11658D01*
X12462Y-12162D01*
X12429Y-12082D01*
X12368Y-12020D01*
X12288Y-11987D01*
X12201Y-11987D01*
X12121Y-12020D01*
X12059Y-12081D01*
X12026Y-12161D01*
X12026Y-12248D01*
X12059Y-12328D01*
X12120Y-12390D01*
X12200Y-12423D01*
X12287Y-12423D01*
X12367Y-12390D01*
X12429Y-12329D01*
X12462Y-12249D01*
X12462Y-12752D01*
X12429Y-12672D01*
X12368Y-12610D01*
X12288Y-12577D01*
X12201Y-12577D01*
X12121Y-12610D01*
X12059Y-12671D01*
X12026Y-12751D01*
X12026Y-12838D01*
X12059Y-12918D01*
X12120Y-12980D01*
X12200Y-13013D01*
X12287Y-13013D01*
X12367Y-12980D01*
X12429Y-12919D01*
X12462Y-12839D01*
X12462Y-14607D01*
X12029Y-14607D01*
X12029Y-13390D01*
X12029Y-13303D01*
X11996Y-13223D01*
X11935Y-13161D01*
X11855Y-13128D01*
X11768Y-13128D01*
X11688Y-13161D01*
X11626Y-13222D01*
X11593Y-13302D01*
X11593Y-13389D01*
X11626Y-13469D01*
X11687Y-13531D01*
X11767Y-13564D01*
X11854Y-13564D01*
X11934Y-13531D01*
X11996Y-13470D01*
X12029Y-13390D01*
X12029Y-14607D01*
X11242Y-14607D01*
X11242Y-13390D01*
X11242Y-13303D01*
X11209Y-13223D01*
X11148Y-13161D01*
X11068Y-13128D01*
X10981Y-13128D01*
X10901Y-13161D01*
X10839Y-13222D01*
X10806Y-13302D01*
X10806Y-13389D01*
X10839Y-13469D01*
X10900Y-13531D01*
X10980Y-13564D01*
X11067Y-13564D01*
X11147Y-13531D01*
X11209Y-13470D01*
X11242Y-13390D01*
X11242Y-14607D01*
X10821Y-14607D01*
X08655Y-15315D01*
X08110Y-15315D01*
X08110Y-14551D01*
X09318Y-13877D01*
X09264Y-13931D01*
X09231Y-14011D01*
X09231Y-14098D01*
X09264Y-14178D01*
X09325Y-14240D01*
X09405Y-14273D01*
X09492Y-14273D01*
X09572Y-14240D01*
X09634Y-14179D01*
X09667Y-14099D01*
X09667Y-14012D01*
X09634Y-13932D01*
X09573Y-13870D01*
X09493Y-13837D01*
X09406Y-13837D01*
X09348Y-13860D01*
X10866Y-13015D01*
X10866Y-12065D01*
X11837Y-11222D01*
X11885Y-11242D01*
X11972Y-11242D01*
X12052Y-11209D01*
X12114Y-11148D01*
X12147Y-11068D01*
X12147Y-10981D01*
X12138Y-10961D01*
X13873Y-09457D01*
X13931Y-09516D01*
X14011Y-09549D01*
X14098Y-09549D01*
X14178Y-09516D01*
X14240Y-09455D01*
X14273Y-09375D01*
X14273Y-09288D01*
X14240Y-09208D01*
X14203Y-09170D01*
X15850Y-07743D01*
X16386Y-09113D01*
X16374Y-09113D01*
X16294Y-09146D01*
X16232Y-09207D01*
X16199Y-09287D01*
X16199Y-09374D01*
X16232Y-09454D01*
X16293Y-09516D01*
X16373Y-09549D01*
X16460Y-09549D01*
X16540Y-09516D01*
X16543Y-09512D01*
X17748Y-12586D01*
G54D10*
G36*
X48316Y-19576D02*
X48151Y-19576D01*
X48151Y-18370D01*
X48151Y-17852D01*
X47953Y-17374D01*
X47588Y-17008D01*
X47110Y-16809D01*
X47107Y-16809D01*
X47107Y-16043D01*
X47107Y-15925D01*
X47062Y-15816D01*
X46979Y-15733D01*
X46870Y-15688D01*
X46752Y-15688D01*
X46643Y-15733D01*
X46560Y-15816D01*
X46515Y-15925D01*
X46515Y-16043D01*
X46560Y-16152D01*
X46643Y-16235D01*
X46752Y-16280D01*
X46870Y-16280D01*
X46979Y-16235D01*
X47062Y-16152D01*
X47107Y-16043D01*
X47107Y-16809D01*
X46592Y-16809D01*
X46114Y-17007D01*
X45748Y-17372D01*
X45711Y-17460D01*
X45711Y-15348D01*
X45711Y-15181D01*
X45711Y-14348D01*
X45711Y-14181D01*
X45647Y-14027D01*
X45535Y-13914D01*
X45535Y-11264D01*
X45535Y-11176D01*
X45501Y-11095D01*
X45453Y-11047D01*
X45453Y-08720D01*
X45453Y-08602D01*
X45408Y-08493D01*
X45325Y-08410D01*
X45216Y-08365D01*
X45098Y-08365D01*
X44989Y-08410D01*
X44906Y-08493D01*
X44861Y-08602D01*
X44861Y-08720D01*
X44906Y-08829D01*
X44989Y-08912D01*
X45098Y-08957D01*
X45216Y-08957D01*
X45325Y-08912D01*
X45408Y-08829D01*
X45453Y-08720D01*
X45453Y-11047D01*
X45439Y-11033D01*
X45359Y-11000D01*
X45271Y-11000D01*
X45190Y-11034D01*
X45128Y-11096D01*
X45095Y-11176D01*
X45095Y-11264D01*
X45129Y-11345D01*
X45191Y-11407D01*
X45271Y-11440D01*
X45359Y-11440D01*
X45440Y-11406D01*
X45502Y-11344D01*
X45535Y-11264D01*
X45535Y-13914D01*
X45529Y-13908D01*
X45375Y-13844D01*
X45208Y-13844D01*
X45054Y-13908D01*
X44935Y-14026D01*
X44871Y-14180D01*
X44871Y-14347D01*
X44935Y-14501D01*
X45053Y-14620D01*
X45207Y-14684D01*
X45374Y-14684D01*
X45528Y-14620D01*
X45647Y-14502D01*
X45711Y-14348D01*
X45711Y-15181D01*
X45647Y-15027D01*
X45529Y-14908D01*
X45375Y-14844D01*
X45208Y-14844D01*
X45054Y-14908D01*
X44935Y-15026D01*
X44871Y-15180D01*
X44871Y-15347D01*
X44935Y-15501D01*
X45053Y-15620D01*
X45207Y-15684D01*
X45374Y-15684D01*
X45528Y-15620D01*
X45647Y-15502D01*
X45711Y-15348D01*
X45711Y-17460D01*
X45549Y-17850D01*
X45549Y-18368D01*
X45747Y-18846D01*
X46112Y-19212D01*
X46590Y-19411D01*
X47108Y-19411D01*
X47586Y-19213D01*
X47952Y-18848D01*
X48151Y-18370D01*
X48151Y-19576D01*
X44751Y-19576D01*
X44751Y-18616D01*
X44751Y-18392D01*
X44751Y-17041D01*
X44751Y-16817D01*
X44750Y-16678D01*
X44750Y-16579D01*
X44712Y-16488D01*
X44711Y-16487D01*
X44711Y-15348D01*
X44711Y-15181D01*
X44711Y-14348D01*
X44711Y-14181D01*
X44647Y-14027D01*
X44529Y-13908D01*
X44375Y-13844D01*
X44208Y-13844D01*
X44054Y-13908D01*
X43935Y-14026D01*
X43871Y-14180D01*
X43871Y-14347D01*
X43935Y-14501D01*
X44053Y-14620D01*
X44207Y-14684D01*
X44374Y-14684D01*
X44528Y-14620D01*
X44647Y-14502D01*
X44711Y-14348D01*
X44711Y-15181D01*
X44647Y-15027D01*
X44529Y-14908D01*
X44375Y-14844D01*
X44208Y-14844D01*
X44054Y-14908D01*
X43935Y-15026D01*
X43871Y-15180D01*
X43871Y-15347D01*
X43935Y-15501D01*
X44053Y-15620D01*
X44207Y-15684D01*
X44374Y-15684D01*
X44528Y-15620D01*
X44647Y-15502D01*
X44711Y-15348D01*
X44711Y-16487D01*
X44642Y-16418D01*
X44550Y-16380D01*
X44313Y-16379D01*
X44251Y-16441D01*
X44251Y-16879D01*
X44689Y-16879D01*
X44751Y-16817D01*
X44751Y-17041D01*
X44689Y-16979D01*
X44251Y-16979D01*
X44251Y-17417D01*
X44313Y-17479D01*
X44550Y-17478D01*
X44642Y-17440D01*
X44712Y-17370D01*
X44750Y-17279D01*
X44750Y-17180D01*
X44751Y-17041D01*
X44751Y-18392D01*
X44750Y-18253D01*
X44750Y-18154D01*
X44712Y-18063D01*
X44642Y-17993D01*
X44550Y-17955D01*
X44313Y-17954D01*
X44251Y-18016D01*
X44251Y-18454D01*
X44689Y-18454D01*
X44751Y-18392D01*
X44751Y-18616D01*
X44689Y-18554D01*
X44251Y-18554D01*
X44251Y-18992D01*
X44313Y-19054D01*
X44550Y-19053D01*
X44642Y-19015D01*
X44712Y-18945D01*
X44750Y-18854D01*
X44750Y-18755D01*
X44751Y-18616D01*
X44751Y-19576D01*
X44151Y-19576D01*
X44151Y-18992D01*
X44151Y-18554D01*
X44151Y-18454D01*
X44151Y-18016D01*
X44151Y-17417D01*
X44151Y-16979D01*
X44151Y-16879D01*
X44151Y-16441D01*
X44089Y-16379D01*
X43852Y-16380D01*
X43760Y-16418D01*
X43711Y-16467D01*
X43711Y-15588D01*
X43711Y-15540D01*
X43711Y-14940D01*
X43711Y-14348D01*
X43711Y-14181D01*
X43647Y-14027D01*
X43529Y-13908D01*
X43375Y-13844D01*
X43208Y-13844D01*
X43054Y-13908D01*
X42937Y-14024D01*
X42937Y-11658D01*
X42937Y-11570D01*
X42903Y-11489D01*
X42841Y-11427D01*
X42761Y-11394D01*
X42673Y-11394D01*
X42592Y-11428D01*
X42530Y-11490D01*
X42497Y-11570D01*
X42497Y-11658D01*
X42515Y-11702D01*
X42513Y-11704D01*
X42451Y-11766D01*
X42418Y-11846D01*
X42418Y-11934D01*
X42452Y-12015D01*
X42514Y-12077D01*
X42594Y-12110D01*
X42682Y-12110D01*
X42763Y-12076D01*
X42825Y-12014D01*
X42858Y-11934D01*
X42858Y-11846D01*
X42839Y-11801D01*
X42842Y-11800D01*
X42904Y-11738D01*
X42937Y-11658D01*
X42937Y-14024D01*
X42935Y-14026D01*
X42871Y-14180D01*
X42871Y-14347D01*
X42935Y-14501D01*
X43053Y-14620D01*
X43207Y-14684D01*
X43374Y-14684D01*
X43528Y-14620D01*
X43647Y-14502D01*
X43711Y-14348D01*
X43711Y-14940D01*
X43693Y-14896D01*
X43659Y-14862D01*
X43615Y-14844D01*
X43567Y-14844D01*
X42967Y-14844D01*
X42923Y-14862D01*
X42889Y-14896D01*
X42871Y-14940D01*
X42871Y-14988D01*
X42871Y-15588D01*
X42889Y-15632D01*
X42923Y-15666D01*
X42967Y-15684D01*
X43015Y-15684D01*
X43615Y-15684D01*
X43659Y-15666D01*
X43693Y-15632D01*
X43711Y-15588D01*
X43711Y-16467D01*
X43690Y-16488D01*
X43652Y-16579D01*
X43652Y-16678D01*
X43651Y-16817D01*
X43713Y-16879D01*
X44151Y-16879D01*
X44151Y-16979D01*
X43713Y-16979D01*
X43651Y-17041D01*
X43652Y-17180D01*
X43652Y-17279D01*
X43690Y-17370D01*
X43760Y-17440D01*
X43852Y-17478D01*
X44089Y-17479D01*
X44151Y-17417D01*
X44151Y-18016D01*
X44089Y-17954D01*
X43852Y-17955D01*
X43760Y-17993D01*
X43690Y-18063D01*
X43652Y-18154D01*
X43652Y-18253D01*
X43651Y-18392D01*
X43713Y-18454D01*
X44151Y-18454D01*
X44151Y-18554D01*
X43713Y-18554D01*
X43651Y-18616D01*
X43652Y-18755D01*
X43652Y-18854D01*
X43690Y-18945D01*
X43760Y-19015D01*
X43852Y-19053D01*
X44089Y-19054D01*
X44151Y-18992D01*
X44151Y-19576D01*
X43621Y-19576D01*
X43621Y-18588D01*
X43621Y-18421D01*
X43621Y-17013D01*
X43621Y-16846D01*
X43557Y-16692D01*
X43439Y-16573D01*
X43285Y-16509D01*
X43118Y-16509D01*
X42964Y-16573D01*
X42845Y-16691D01*
X42781Y-16845D01*
X42781Y-17012D01*
X42845Y-17166D01*
X42963Y-17285D01*
X43117Y-17349D01*
X43284Y-17349D01*
X43438Y-17285D01*
X43557Y-17167D01*
X43621Y-17013D01*
X43621Y-18421D01*
X43557Y-18267D01*
X43439Y-18148D01*
X43285Y-18084D01*
X43118Y-18084D01*
X42964Y-18148D01*
X42845Y-18266D01*
X42781Y-18420D01*
X42781Y-18587D01*
X42845Y-18741D01*
X42963Y-18860D01*
X43117Y-18924D01*
X43284Y-18924D01*
X43438Y-18860D01*
X43557Y-18742D01*
X43621Y-18588D01*
X43621Y-19576D01*
X41398Y-19576D01*
X41398Y-18248D01*
X41398Y-18130D01*
X41353Y-18021D01*
X41270Y-17938D01*
X41161Y-17893D01*
X41043Y-17893D01*
X40934Y-17938D01*
X40851Y-18021D01*
X40806Y-18130D01*
X40806Y-18248D01*
X40851Y-18357D01*
X40934Y-18440D01*
X41043Y-18485D01*
X41161Y-18485D01*
X41270Y-18440D01*
X41353Y-18357D01*
X41398Y-18248D01*
X41398Y-19576D01*
X40847Y-19576D01*
X40847Y-19193D01*
X40847Y-19075D01*
X40802Y-18966D01*
X40719Y-18883D01*
X40610Y-18838D01*
X40492Y-18838D01*
X40383Y-18883D01*
X40300Y-18966D01*
X40255Y-19075D01*
X40255Y-19193D01*
X40300Y-19302D01*
X40383Y-19385D01*
X40492Y-19430D01*
X40610Y-19430D01*
X40719Y-19385D01*
X40802Y-19302D01*
X40847Y-19193D01*
X40847Y-19576D01*
X40139Y-19576D01*
X40139Y-17461D01*
X40139Y-17343D01*
X40094Y-17234D01*
X40011Y-17151D01*
X39902Y-17106D01*
X39784Y-17106D01*
X39675Y-17151D01*
X39592Y-17234D01*
X39548Y-17340D01*
X39548Y-14783D01*
X39548Y-14665D01*
X39503Y-14556D01*
X39420Y-14473D01*
X39311Y-14428D01*
X39193Y-14428D01*
X39084Y-14473D01*
X39001Y-14556D01*
X38956Y-14665D01*
X38956Y-14783D01*
X39001Y-14892D01*
X39084Y-14975D01*
X39193Y-15020D01*
X39311Y-15020D01*
X39420Y-14975D01*
X39503Y-14892D01*
X39548Y-14783D01*
X39548Y-17340D01*
X39547Y-17343D01*
X39547Y-17461D01*
X39592Y-17570D01*
X39675Y-17653D01*
X39784Y-17698D01*
X39902Y-17698D01*
X40011Y-17653D01*
X40094Y-17570D01*
X40139Y-17461D01*
X40139Y-19576D01*
X39420Y-19576D01*
X39420Y-18651D01*
X37265Y-18651D01*
X37265Y-15650D01*
X37265Y-15532D01*
X37220Y-15423D01*
X37137Y-15340D01*
X37028Y-15295D01*
X36910Y-15295D01*
X36801Y-15340D01*
X36718Y-15423D01*
X36673Y-15532D01*
X36673Y-15650D01*
X36718Y-15759D01*
X36801Y-15842D01*
X36910Y-15887D01*
X37028Y-15887D01*
X37137Y-15842D01*
X37220Y-15759D01*
X37265Y-15650D01*
X37265Y-18651D01*
X35877Y-18651D01*
X35877Y-18406D01*
X35965Y-18406D01*
X36074Y-18361D01*
X36157Y-18278D01*
X36202Y-18169D01*
X36202Y-18051D01*
X36157Y-17942D01*
X36074Y-17859D01*
X35965Y-17814D01*
X35877Y-17814D01*
X35877Y-15501D01*
X34005Y-15501D01*
X34005Y-17259D01*
X33986Y-17278D01*
X33953Y-17358D01*
X33953Y-17446D01*
X33963Y-17470D01*
X31598Y-17470D01*
X31598Y-16737D01*
X31598Y-16649D01*
X31564Y-16568D01*
X31502Y-16506D01*
X31422Y-16473D01*
X31334Y-16473D01*
X31253Y-16507D01*
X31191Y-16569D01*
X31158Y-16649D01*
X31158Y-16737D01*
X31192Y-16818D01*
X31254Y-16880D01*
X31334Y-16913D01*
X31422Y-16913D01*
X31503Y-16879D01*
X31565Y-16817D01*
X31598Y-16737D01*
X31598Y-17470D01*
X31556Y-17470D01*
X31525Y-17395D01*
X31463Y-17333D01*
X31383Y-17300D01*
X31295Y-17300D01*
X31214Y-17334D01*
X31152Y-17396D01*
X31121Y-17470D01*
X29787Y-17470D01*
X29787Y-17436D01*
X29753Y-17355D01*
X29691Y-17293D01*
X29611Y-17260D01*
X29523Y-17260D01*
X29442Y-17294D01*
X29380Y-17356D01*
X29347Y-17436D01*
X29347Y-17470D01*
X28488Y-17470D01*
X28488Y-17249D01*
X28488Y-17161D01*
X28454Y-17080D01*
X28392Y-17018D01*
X28312Y-16985D01*
X28224Y-16985D01*
X28143Y-17019D01*
X28081Y-17081D01*
X28048Y-17161D01*
X28048Y-17249D01*
X28082Y-17330D01*
X28144Y-17392D01*
X28224Y-17425D01*
X28312Y-17425D01*
X28393Y-17391D01*
X28455Y-17329D01*
X28488Y-17249D01*
X28488Y-17470D01*
X12700Y-17470D01*
X12700Y-16658D01*
X12700Y-16570D01*
X12666Y-16489D01*
X12604Y-16427D01*
X12524Y-16394D01*
X12436Y-16394D01*
X12355Y-16428D01*
X12293Y-16490D01*
X12260Y-16570D01*
X12260Y-16658D01*
X12294Y-16739D01*
X12356Y-16801D01*
X12436Y-16834D01*
X12524Y-16834D01*
X12605Y-16800D01*
X12667Y-16738D01*
X12700Y-16658D01*
X12700Y-17470D01*
X11637Y-17470D01*
X11637Y-16894D01*
X11637Y-16806D01*
X11603Y-16725D01*
X11541Y-16663D01*
X11461Y-16630D01*
X11373Y-16630D01*
X11292Y-16664D01*
X11230Y-16726D01*
X11197Y-16806D01*
X11197Y-16894D01*
X11231Y-16975D01*
X11293Y-17037D01*
X11373Y-17070D01*
X11461Y-17070D01*
X11542Y-17036D01*
X11604Y-16974D01*
X11637Y-16894D01*
X11637Y-17470D01*
X10929Y-17470D01*
X10929Y-17436D01*
X10895Y-17355D01*
X10833Y-17293D01*
X10753Y-17260D01*
X10665Y-17260D01*
X10584Y-17294D01*
X10522Y-17356D01*
X10489Y-17436D01*
X10489Y-17470D01*
X05222Y-17470D01*
X04310Y-16237D01*
X04326Y-16244D01*
X04414Y-16244D01*
X04495Y-16210D01*
X04557Y-16148D01*
X04590Y-16068D01*
X04590Y-15980D01*
X04556Y-15899D01*
X04494Y-15837D01*
X04414Y-15804D01*
X04326Y-15804D01*
X04245Y-15838D01*
X04183Y-15900D01*
X04150Y-15980D01*
X04150Y-16020D01*
X03780Y-15520D01*
X03291Y-14918D01*
X03291Y-09257D01*
X03291Y-09169D01*
X03257Y-09088D01*
X03251Y-09082D01*
X03251Y-08036D01*
X03251Y-07948D01*
X03217Y-07867D01*
X03155Y-07805D01*
X03075Y-07772D01*
X02987Y-07772D01*
X02906Y-07806D01*
X02844Y-07868D01*
X02811Y-07948D01*
X02811Y-08036D01*
X02845Y-08117D01*
X02907Y-08179D01*
X02987Y-08212D01*
X03075Y-08212D01*
X03156Y-08178D01*
X03218Y-08116D01*
X03251Y-08036D01*
X03251Y-09082D01*
X03195Y-09026D01*
X03115Y-08993D01*
X03027Y-08993D01*
X02946Y-09027D01*
X02884Y-09089D01*
X02851Y-09169D01*
X02851Y-09257D01*
X02885Y-09338D01*
X02947Y-09400D01*
X03027Y-09433D01*
X03115Y-09433D01*
X03196Y-09399D01*
X03258Y-09337D01*
X03291Y-09257D01*
X03291Y-14918D01*
X03251Y-14868D01*
X03251Y-10635D01*
X03251Y-10547D01*
X03217Y-10466D01*
X03155Y-10404D01*
X03075Y-10371D01*
X02987Y-10371D01*
X02906Y-10405D01*
X02844Y-10467D01*
X02811Y-10547D01*
X02811Y-10635D01*
X02845Y-10716D01*
X02907Y-10778D01*
X02987Y-10811D01*
X03075Y-10811D01*
X03156Y-10777D01*
X03218Y-10715D01*
X03251Y-10635D01*
X03251Y-14868D01*
X02485Y-13926D01*
X02189Y-13926D01*
X02189Y-05162D01*
X02189Y-05074D01*
X02155Y-04993D01*
X02093Y-04931D01*
X02013Y-04898D01*
X01925Y-04898D01*
X01844Y-04932D01*
X01782Y-04994D01*
X01749Y-05074D01*
X01749Y-05162D01*
X01783Y-05243D01*
X01845Y-05305D01*
X01925Y-05338D01*
X02013Y-05338D01*
X02094Y-05304D01*
X02156Y-05242D01*
X02189Y-05162D01*
X02189Y-13926D01*
X02110Y-13926D01*
X02110Y-13854D01*
X02110Y-11894D01*
X02110Y-11806D01*
X02110Y-10477D01*
X02110Y-10389D01*
X02110Y-09099D01*
X02110Y-09011D01*
X02110Y-08509D01*
X02110Y-08421D01*
X02076Y-08340D01*
X02014Y-08278D01*
X01934Y-08245D01*
X01846Y-08245D01*
X01765Y-08279D01*
X01703Y-08341D01*
X01670Y-08421D01*
X01670Y-08509D01*
X01704Y-08590D01*
X01766Y-08652D01*
X01846Y-08685D01*
X01934Y-08685D01*
X02015Y-08651D01*
X02077Y-08589D01*
X02110Y-08509D01*
X02110Y-09011D01*
X02076Y-08930D01*
X02014Y-08868D01*
X01934Y-08835D01*
X01846Y-08835D01*
X01765Y-08869D01*
X01703Y-08931D01*
X01670Y-09011D01*
X01670Y-09099D01*
X01704Y-09180D01*
X01766Y-09242D01*
X01846Y-09275D01*
X01934Y-09275D01*
X02015Y-09241D01*
X02077Y-09179D01*
X02110Y-09099D01*
X02110Y-10389D01*
X02076Y-10308D01*
X02014Y-10246D01*
X01934Y-10213D01*
X01846Y-10213D01*
X01765Y-10247D01*
X01703Y-10309D01*
X01670Y-10389D01*
X01670Y-10477D01*
X01704Y-10558D01*
X01766Y-10620D01*
X01846Y-10653D01*
X01934Y-10653D01*
X02015Y-10619D01*
X02077Y-10557D01*
X02110Y-10477D01*
X02110Y-11806D01*
X02076Y-11725D01*
X02014Y-11663D01*
X01934Y-11630D01*
X01846Y-11630D01*
X01765Y-11664D01*
X01703Y-11726D01*
X01670Y-11806D01*
X01670Y-11894D01*
X01704Y-11975D01*
X01766Y-12037D01*
X01846Y-12070D01*
X01934Y-12070D01*
X02015Y-12036D01*
X02077Y-11974D01*
X02110Y-11894D01*
X02110Y-13854D01*
X02076Y-13773D01*
X02014Y-13711D01*
X01934Y-13678D01*
X01846Y-13678D01*
X01765Y-13712D01*
X01703Y-13774D01*
X01670Y-13854D01*
X01670Y-13926D01*
X00050Y-13926D01*
X00050Y-04774D01*
X03887Y-04774D01*
X03887Y-13205D01*
X06194Y-16389D01*
X08687Y-16389D01*
X08769Y-16471D01*
X08878Y-16516D01*
X08996Y-16516D01*
X09105Y-16471D01*
X09187Y-16389D01*
X19169Y-16389D01*
X19184Y-16424D01*
X19246Y-16486D01*
X19326Y-16519D01*
X19414Y-16519D01*
X19495Y-16485D01*
X19557Y-16423D01*
X19571Y-16389D01*
X23164Y-16389D01*
X23222Y-16447D01*
X23302Y-16480D01*
X23390Y-16480D01*
X23471Y-16446D01*
X23528Y-16389D01*
X29632Y-16389D01*
X29714Y-16471D01*
X29823Y-16516D01*
X29941Y-16516D01*
X30050Y-16471D01*
X30132Y-16389D01*
X31940Y-16389D01*
X31940Y-12845D01*
X35519Y-12845D01*
X35536Y-12885D01*
X35619Y-12968D01*
X35728Y-13013D01*
X35846Y-13013D01*
X35955Y-12968D01*
X36038Y-12885D01*
X36054Y-12845D01*
X39408Y-12845D01*
X39421Y-12858D01*
X39465Y-12876D01*
X39513Y-12876D01*
X41637Y-12876D01*
X41681Y-12858D01*
X41715Y-12824D01*
X41733Y-12780D01*
X41733Y-12732D01*
X41733Y-10212D01*
X41715Y-10168D01*
X41681Y-10134D01*
X41637Y-10116D01*
X41589Y-10116D01*
X41389Y-10116D01*
X41389Y-07011D01*
X41424Y-06997D01*
X41486Y-06935D01*
X41519Y-06855D01*
X41519Y-06767D01*
X41485Y-06686D01*
X41423Y-06624D01*
X41389Y-06609D01*
X41389Y-05956D01*
X42887Y-05956D01*
X42961Y-06030D01*
X43185Y-06123D01*
X43428Y-06123D01*
X43653Y-06030D01*
X43727Y-05956D01*
X46407Y-05956D01*
X46407Y-08920D01*
X46398Y-08917D01*
X46280Y-08917D01*
X46171Y-08962D01*
X46088Y-09045D01*
X46043Y-09154D01*
X46043Y-09272D01*
X46088Y-09381D01*
X46171Y-09464D01*
X46280Y-09509D01*
X46398Y-09509D01*
X46407Y-09505D01*
X46407Y-11355D01*
X46334Y-11355D01*
X46253Y-11389D01*
X46191Y-11451D01*
X46158Y-11531D01*
X46158Y-11619D01*
X46192Y-11700D01*
X46254Y-11762D01*
X46334Y-11795D01*
X46407Y-11795D01*
X46407Y-14814D01*
X46948Y-14814D01*
X46948Y-14862D01*
X46993Y-14971D01*
X47076Y-15054D01*
X47185Y-15099D01*
X47303Y-15099D01*
X47412Y-15054D01*
X47495Y-14971D01*
X47540Y-14862D01*
X47540Y-14814D01*
X48316Y-14814D01*
X48316Y-19576D01*
X48316Y-19576D01*
G37*
G54D23*
X48316Y-19576D02*
X48151Y-19576D01*
X48151Y-18370D01*
X48151Y-17852D01*
X47953Y-17374D01*
X47588Y-17008D01*
X47110Y-16809D01*
X47107Y-16809D01*
X47107Y-16043D01*
X47107Y-15925D01*
X47062Y-15816D01*
X46979Y-15733D01*
X46870Y-15688D01*
X46752Y-15688D01*
X46643Y-15733D01*
X46560Y-15816D01*
X46515Y-15925D01*
X46515Y-16043D01*
X46560Y-16152D01*
X46643Y-16235D01*
X46752Y-16280D01*
X46870Y-16280D01*
X46979Y-16235D01*
X47062Y-16152D01*
X47107Y-16043D01*
X47107Y-16809D01*
X46592Y-16809D01*
X46114Y-17007D01*
X45748Y-17372D01*
X45711Y-17460D01*
X45711Y-15348D01*
X45711Y-15181D01*
X45711Y-14348D01*
X45711Y-14181D01*
X45647Y-14027D01*
X45535Y-13914D01*
X45535Y-11264D01*
X45535Y-11176D01*
X45501Y-11095D01*
X45453Y-11047D01*
X45453Y-08720D01*
X45453Y-08602D01*
X45408Y-08493D01*
X45325Y-08410D01*
X45216Y-08365D01*
X45098Y-08365D01*
X44989Y-08410D01*
X44906Y-08493D01*
X44861Y-08602D01*
X44861Y-08720D01*
X44906Y-08829D01*
X44989Y-08912D01*
X45098Y-08957D01*
X45216Y-08957D01*
X45325Y-08912D01*
X45408Y-08829D01*
X45453Y-08720D01*
X45453Y-11047D01*
X45439Y-11033D01*
X45359Y-11000D01*
X45271Y-11000D01*
X45190Y-11034D01*
X45128Y-11096D01*
X45095Y-11176D01*
X45095Y-11264D01*
X45129Y-11345D01*
X45191Y-11407D01*
X45271Y-11440D01*
X45359Y-11440D01*
X45440Y-11406D01*
X45502Y-11344D01*
X45535Y-11264D01*
X45535Y-13914D01*
X45529Y-13908D01*
X45375Y-13844D01*
X45208Y-13844D01*
X45054Y-13908D01*
X44935Y-14026D01*
X44871Y-14180D01*
X44871Y-14347D01*
X44935Y-14501D01*
X45053Y-14620D01*
X45207Y-14684D01*
X45374Y-14684D01*
X45528Y-14620D01*
X45647Y-14502D01*
X45711Y-14348D01*
X45711Y-15181D01*
X45647Y-15027D01*
X45529Y-14908D01*
X45375Y-14844D01*
X45208Y-14844D01*
X45054Y-14908D01*
X44935Y-15026D01*
X44871Y-15180D01*
X44871Y-15347D01*
X44935Y-15501D01*
X45053Y-15620D01*
X45207Y-15684D01*
X45374Y-15684D01*
X45528Y-15620D01*
X45647Y-15502D01*
X45711Y-15348D01*
X45711Y-17460D01*
X45549Y-17850D01*
X45549Y-18368D01*
X45747Y-18846D01*
X46112Y-19212D01*
X46590Y-19411D01*
X47108Y-19411D01*
X47586Y-19213D01*
X47952Y-18848D01*
X48151Y-18370D01*
X48151Y-19576D01*
X44751Y-19576D01*
X44751Y-18616D01*
X44751Y-18392D01*
X44751Y-17041D01*
X44751Y-16817D01*
X44750Y-16678D01*
X44750Y-16579D01*
X44712Y-16488D01*
X44711Y-16487D01*
X44711Y-15348D01*
X44711Y-15181D01*
X44711Y-14348D01*
X44711Y-14181D01*
X44647Y-14027D01*
X44529Y-13908D01*
X44375Y-13844D01*
X44208Y-13844D01*
X44054Y-13908D01*
X43935Y-14026D01*
X43871Y-14180D01*
X43871Y-14347D01*
X43935Y-14501D01*
X44053Y-14620D01*
X44207Y-14684D01*
X44374Y-14684D01*
X44528Y-14620D01*
X44647Y-14502D01*
X44711Y-14348D01*
X44711Y-15181D01*
X44647Y-15027D01*
X44529Y-14908D01*
X44375Y-14844D01*
X44208Y-14844D01*
X44054Y-14908D01*
X43935Y-15026D01*
X43871Y-15180D01*
X43871Y-15347D01*
X43935Y-15501D01*
X44053Y-15620D01*
X44207Y-15684D01*
X44374Y-15684D01*
X44528Y-15620D01*
X44647Y-15502D01*
X44711Y-15348D01*
X44711Y-16487D01*
X44642Y-16418D01*
X44550Y-16380D01*
X44313Y-16379D01*
X44251Y-16441D01*
X44251Y-16879D01*
X44689Y-16879D01*
X44751Y-16817D01*
X44751Y-17041D01*
X44689Y-16979D01*
X44251Y-16979D01*
X44251Y-17417D01*
X44313Y-17479D01*
X44550Y-17478D01*
X44642Y-17440D01*
X44712Y-17370D01*
X44750Y-17279D01*
X44750Y-17180D01*
X44751Y-17041D01*
X44751Y-18392D01*
X44750Y-18253D01*
X44750Y-18154D01*
X44712Y-18063D01*
X44642Y-17993D01*
X44550Y-17955D01*
X44313Y-17954D01*
X44251Y-18016D01*
X44251Y-18454D01*
X44689Y-18454D01*
X44751Y-18392D01*
X44751Y-18616D01*
X44689Y-18554D01*
X44251Y-18554D01*
X44251Y-18992D01*
X44313Y-19054D01*
X44550Y-19053D01*
X44642Y-19015D01*
X44712Y-18945D01*
X44750Y-18854D01*
X44750Y-18755D01*
X44751Y-18616D01*
X44751Y-19576D01*
X44151Y-19576D01*
X44151Y-18992D01*
X44151Y-18554D01*
X44151Y-18454D01*
X44151Y-18016D01*
X44151Y-17417D01*
X44151Y-16979D01*
X44151Y-16879D01*
X44151Y-16441D01*
X44089Y-16379D01*
X43852Y-16380D01*
X43760Y-16418D01*
X43711Y-16467D01*
X43711Y-15588D01*
X43711Y-15540D01*
X43711Y-14940D01*
X43711Y-14348D01*
X43711Y-14181D01*
X43647Y-14027D01*
X43529Y-13908D01*
X43375Y-13844D01*
X43208Y-13844D01*
X43054Y-13908D01*
X42937Y-14024D01*
X42937Y-11658D01*
X42937Y-11570D01*
X42903Y-11489D01*
X42841Y-11427D01*
X42761Y-11394D01*
X42673Y-11394D01*
X42592Y-11428D01*
X42530Y-11490D01*
X42497Y-11570D01*
X42497Y-11658D01*
X42515Y-11702D01*
X42513Y-11704D01*
X42451Y-11766D01*
X42418Y-11846D01*
X42418Y-11934D01*
X42452Y-12015D01*
X42514Y-12077D01*
X42594Y-12110D01*
X42682Y-12110D01*
X42763Y-12076D01*
X42825Y-12014D01*
X42858Y-11934D01*
X42858Y-11846D01*
X42839Y-11801D01*
X42842Y-11800D01*
X42904Y-11738D01*
X42937Y-11658D01*
X42937Y-14024D01*
X42935Y-14026D01*
X42871Y-14180D01*
X42871Y-14347D01*
X42935Y-14501D01*
X43053Y-14620D01*
X43207Y-14684D01*
X43374Y-14684D01*
X43528Y-14620D01*
X43647Y-14502D01*
X43711Y-14348D01*
X43711Y-14940D01*
X43693Y-14896D01*
X43659Y-14862D01*
X43615Y-14844D01*
X43567Y-14844D01*
X42967Y-14844D01*
X42923Y-14862D01*
X42889Y-14896D01*
X42871Y-14940D01*
X42871Y-14988D01*
X42871Y-15588D01*
X42889Y-15632D01*
X42923Y-15666D01*
X42967Y-15684D01*
X43015Y-15684D01*
X43615Y-15684D01*
X43659Y-15666D01*
X43693Y-15632D01*
X43711Y-15588D01*
X43711Y-16467D01*
X43690Y-16488D01*
X43652Y-16579D01*
X43652Y-16678D01*
X43651Y-16817D01*
X43713Y-16879D01*
X44151Y-16879D01*
X44151Y-16979D01*
X43713Y-16979D01*
X43651Y-17041D01*
X43652Y-17180D01*
X43652Y-17279D01*
X43690Y-17370D01*
X43760Y-17440D01*
X43852Y-17478D01*
X44089Y-17479D01*
X44151Y-17417D01*
X44151Y-18016D01*
X44089Y-17954D01*
X43852Y-17955D01*
X43760Y-17993D01*
X43690Y-18063D01*
X43652Y-18154D01*
X43652Y-18253D01*
X43651Y-18392D01*
X43713Y-18454D01*
X44151Y-18454D01*
X44151Y-18554D01*
X43713Y-18554D01*
X43651Y-18616D01*
X43652Y-18755D01*
X43652Y-18854D01*
X43690Y-18945D01*
X43760Y-19015D01*
X43852Y-19053D01*
X44089Y-19054D01*
X44151Y-18992D01*
X44151Y-19576D01*
X43621Y-19576D01*
X43621Y-18588D01*
X43621Y-18421D01*
X43621Y-17013D01*
X43621Y-16846D01*
X43557Y-16692D01*
X43439Y-16573D01*
X43285Y-16509D01*
X43118Y-16509D01*
X42964Y-16573D01*
X42845Y-16691D01*
X42781Y-16845D01*
X42781Y-17012D01*
X42845Y-17166D01*
X42963Y-17285D01*
X43117Y-17349D01*
X43284Y-17349D01*
X43438Y-17285D01*
X43557Y-17167D01*
X43621Y-17013D01*
X43621Y-18421D01*
X43557Y-18267D01*
X43439Y-18148D01*
X43285Y-18084D01*
X43118Y-18084D01*
X42964Y-18148D01*
X42845Y-18266D01*
X42781Y-18420D01*
X42781Y-18587D01*
X42845Y-18741D01*
X42963Y-18860D01*
X43117Y-18924D01*
X43284Y-18924D01*
X43438Y-18860D01*
X43557Y-18742D01*
X43621Y-18588D01*
X43621Y-19576D01*
X41398Y-19576D01*
X41398Y-18248D01*
X41398Y-18130D01*
X41353Y-18021D01*
X41270Y-17938D01*
X41161Y-17893D01*
X41043Y-17893D01*
X40934Y-17938D01*
X40851Y-18021D01*
X40806Y-18130D01*
X40806Y-18248D01*
X40851Y-18357D01*
X40934Y-18440D01*
X41043Y-18485D01*
X41161Y-18485D01*
X41270Y-18440D01*
X41353Y-18357D01*
X41398Y-18248D01*
X41398Y-19576D01*
X40847Y-19576D01*
X40847Y-19193D01*
X40847Y-19075D01*
X40802Y-18966D01*
X40719Y-18883D01*
X40610Y-18838D01*
X40492Y-18838D01*
X40383Y-18883D01*
X40300Y-18966D01*
X40255Y-19075D01*
X40255Y-19193D01*
X40300Y-19302D01*
X40383Y-19385D01*
X40492Y-19430D01*
X40610Y-19430D01*
X40719Y-19385D01*
X40802Y-19302D01*
X40847Y-19193D01*
X40847Y-19576D01*
X40139Y-19576D01*
X40139Y-17461D01*
X40139Y-17343D01*
X40094Y-17234D01*
X40011Y-17151D01*
X39902Y-17106D01*
X39784Y-17106D01*
X39675Y-17151D01*
X39592Y-17234D01*
X39548Y-17340D01*
X39548Y-14783D01*
X39548Y-14665D01*
X39503Y-14556D01*
X39420Y-14473D01*
X39311Y-14428D01*
X39193Y-14428D01*
X39084Y-14473D01*
X39001Y-14556D01*
X38956Y-14665D01*
X38956Y-14783D01*
X39001Y-14892D01*
X39084Y-14975D01*
X39193Y-15020D01*
X39311Y-15020D01*
X39420Y-14975D01*
X39503Y-14892D01*
X39548Y-14783D01*
X39548Y-17340D01*
X39547Y-17343D01*
X39547Y-17461D01*
X39592Y-17570D01*
X39675Y-17653D01*
X39784Y-17698D01*
X39902Y-17698D01*
X40011Y-17653D01*
X40094Y-17570D01*
X40139Y-17461D01*
X40139Y-19576D01*
X39420Y-19576D01*
X39420Y-18651D01*
X37265Y-18651D01*
X37265Y-15650D01*
X37265Y-15532D01*
X37220Y-15423D01*
X37137Y-15340D01*
X37028Y-15295D01*
X36910Y-15295D01*
X36801Y-15340D01*
X36718Y-15423D01*
X36673Y-15532D01*
X36673Y-15650D01*
X36718Y-15759D01*
X36801Y-15842D01*
X36910Y-15887D01*
X37028Y-15887D01*
X37137Y-15842D01*
X37220Y-15759D01*
X37265Y-15650D01*
X37265Y-18651D01*
X35877Y-18651D01*
X35877Y-18406D01*
X35965Y-18406D01*
X36074Y-18361D01*
X36157Y-18278D01*
X36202Y-18169D01*
X36202Y-18051D01*
X36157Y-17942D01*
X36074Y-17859D01*
X35965Y-17814D01*
X35877Y-17814D01*
X35877Y-15501D01*
X34005Y-15501D01*
X34005Y-17259D01*
X33986Y-17278D01*
X33953Y-17358D01*
X33953Y-17446D01*
X33963Y-17470D01*
X31598Y-17470D01*
X31598Y-16737D01*
X31598Y-16649D01*
X31564Y-16568D01*
X31502Y-16506D01*
X31422Y-16473D01*
X31334Y-16473D01*
X31253Y-16507D01*
X31191Y-16569D01*
X31158Y-16649D01*
X31158Y-16737D01*
X31192Y-16818D01*
X31254Y-16880D01*
X31334Y-16913D01*
X31422Y-16913D01*
X31503Y-16879D01*
X31565Y-16817D01*
X31598Y-16737D01*
X31598Y-17470D01*
X31556Y-17470D01*
X31525Y-17395D01*
X31463Y-17333D01*
X31383Y-17300D01*
X31295Y-17300D01*
X31214Y-17334D01*
X31152Y-17396D01*
X31121Y-17470D01*
X29787Y-17470D01*
X29787Y-17436D01*
X29753Y-17355D01*
X29691Y-17293D01*
X29611Y-17260D01*
X29523Y-17260D01*
X29442Y-17294D01*
X29380Y-17356D01*
X29347Y-17436D01*
X29347Y-17470D01*
X28488Y-17470D01*
X28488Y-17249D01*
X28488Y-17161D01*
X28454Y-17080D01*
X28392Y-17018D01*
X28312Y-16985D01*
X28224Y-16985D01*
X28143Y-17019D01*
X28081Y-17081D01*
X28048Y-17161D01*
X28048Y-17249D01*
X28082Y-17330D01*
X28144Y-17392D01*
X28224Y-17425D01*
X28312Y-17425D01*
X28393Y-17391D01*
X28455Y-17329D01*
X28488Y-17249D01*
X28488Y-17470D01*
X12700Y-17470D01*
X12700Y-16658D01*
X12700Y-16570D01*
X12666Y-16489D01*
X12604Y-16427D01*
X12524Y-16394D01*
X12436Y-16394D01*
X12355Y-16428D01*
X12293Y-16490D01*
X12260Y-16570D01*
X12260Y-16658D01*
X12294Y-16739D01*
X12356Y-16801D01*
X12436Y-16834D01*
X12524Y-16834D01*
X12605Y-16800D01*
X12667Y-16738D01*
X12700Y-16658D01*
X12700Y-17470D01*
X11637Y-17470D01*
X11637Y-16894D01*
X11637Y-16806D01*
X11603Y-16725D01*
X11541Y-16663D01*
X11461Y-16630D01*
X11373Y-16630D01*
X11292Y-16664D01*
X11230Y-16726D01*
X11197Y-16806D01*
X11197Y-16894D01*
X11231Y-16975D01*
X11293Y-17037D01*
X11373Y-17070D01*
X11461Y-17070D01*
X11542Y-17036D01*
X11604Y-16974D01*
X11637Y-16894D01*
X11637Y-17470D01*
X10929Y-17470D01*
X10929Y-17436D01*
X10895Y-17355D01*
X10833Y-17293D01*
X10753Y-17260D01*
X10665Y-17260D01*
X10584Y-17294D01*
X10522Y-17356D01*
X10489Y-17436D01*
X10489Y-17470D01*
X05222Y-17470D01*
X04310Y-16237D01*
X04326Y-16244D01*
X04414Y-16244D01*
X04495Y-16210D01*
X04557Y-16148D01*
X04590Y-16068D01*
X04590Y-15980D01*
X04556Y-15899D01*
X04494Y-15837D01*
X04414Y-15804D01*
X04326Y-15804D01*
X04245Y-15838D01*
X04183Y-15900D01*
X04150Y-15980D01*
X04150Y-16020D01*
X03780Y-15520D01*
X03291Y-14918D01*
X03291Y-09257D01*
X03291Y-09169D01*
X03257Y-09088D01*
X03251Y-09082D01*
X03251Y-08036D01*
X03251Y-07948D01*
X03217Y-07867D01*
X03155Y-07805D01*
X03075Y-07772D01*
X02987Y-07772D01*
X02906Y-07806D01*
X02844Y-07868D01*
X02811Y-07948D01*
X02811Y-08036D01*
X02845Y-08117D01*
X02907Y-08179D01*
X02987Y-08212D01*
X03075Y-08212D01*
X03156Y-08178D01*
X03218Y-08116D01*
X03251Y-08036D01*
X03251Y-09082D01*
X03195Y-09026D01*
X03115Y-08993D01*
X03027Y-08993D01*
X02946Y-09027D01*
X02884Y-09089D01*
X02851Y-09169D01*
X02851Y-09257D01*
X02885Y-09338D01*
X02947Y-09400D01*
X03027Y-09433D01*
X03115Y-09433D01*
X03196Y-09399D01*
X03258Y-09337D01*
X03291Y-09257D01*
X03291Y-14918D01*
X03251Y-14868D01*
X03251Y-10635D01*
X03251Y-10547D01*
X03217Y-10466D01*
X03155Y-10404D01*
X03075Y-10371D01*
X02987Y-10371D01*
X02906Y-10405D01*
X02844Y-10467D01*
X02811Y-10547D01*
X02811Y-10635D01*
X02845Y-10716D01*
X02907Y-10778D01*
X02987Y-10811D01*
X03075Y-10811D01*
X03156Y-10777D01*
X03218Y-10715D01*
X03251Y-10635D01*
X03251Y-14868D01*
X02485Y-13926D01*
X02189Y-13926D01*
X02189Y-05162D01*
X02189Y-05074D01*
X02155Y-04993D01*
X02093Y-04931D01*
X02013Y-04898D01*
X01925Y-04898D01*
X01844Y-04932D01*
X01782Y-04994D01*
X01749Y-05074D01*
X01749Y-05162D01*
X01783Y-05243D01*
X01845Y-05305D01*
X01925Y-05338D01*
X02013Y-05338D01*
X02094Y-05304D01*
X02156Y-05242D01*
X02189Y-05162D01*
X02189Y-13926D01*
X02110Y-13926D01*
X02110Y-13854D01*
X02110Y-11894D01*
X02110Y-11806D01*
X02110Y-10477D01*
X02110Y-10389D01*
X02110Y-09099D01*
X02110Y-09011D01*
X02110Y-08509D01*
X02110Y-08421D01*
X02076Y-08340D01*
X02014Y-08278D01*
X01934Y-08245D01*
X01846Y-08245D01*
X01765Y-08279D01*
X01703Y-08341D01*
X01670Y-08421D01*
X01670Y-08509D01*
X01704Y-08590D01*
X01766Y-08652D01*
X01846Y-08685D01*
X01934Y-08685D01*
X02015Y-08651D01*
X02077Y-08589D01*
X02110Y-08509D01*
X02110Y-09011D01*
X02076Y-08930D01*
X02014Y-08868D01*
X01934Y-08835D01*
X01846Y-08835D01*
X01765Y-08869D01*
X01703Y-08931D01*
X01670Y-09011D01*
X01670Y-09099D01*
X01704Y-09180D01*
X01766Y-09242D01*
X01846Y-09275D01*
X01934Y-09275D01*
X02015Y-09241D01*
X02077Y-09179D01*
X02110Y-09099D01*
X02110Y-10389D01*
X02076Y-10308D01*
X02014Y-10246D01*
X01934Y-10213D01*
X01846Y-10213D01*
X01765Y-10247D01*
X01703Y-10309D01*
X01670Y-10389D01*
X01670Y-10477D01*
X01704Y-10558D01*
X01766Y-10620D01*
X01846Y-10653D01*
X01934Y-10653D01*
X02015Y-10619D01*
X02077Y-10557D01*
X02110Y-10477D01*
X02110Y-11806D01*
X02076Y-11725D01*
X02014Y-11663D01*
X01934Y-11630D01*
X01846Y-11630D01*
X01765Y-11664D01*
X01703Y-11726D01*
X01670Y-11806D01*
X01670Y-11894D01*
X01704Y-11975D01*
X01766Y-12037D01*
X01846Y-12070D01*
X01934Y-12070D01*
X02015Y-12036D01*
X02077Y-11974D01*
X02110Y-11894D01*
X02110Y-13854D01*
X02076Y-13773D01*
X02014Y-13711D01*
X01934Y-13678D01*
X01846Y-13678D01*
X01765Y-13712D01*
X01703Y-13774D01*
X01670Y-13854D01*
X01670Y-13926D01*
X00050Y-13926D01*
X00050Y-04774D01*
X03887Y-04774D01*
X03887Y-13205D01*
X06194Y-16389D01*
X08687Y-16389D01*
X08769Y-16471D01*
X08878Y-16516D01*
X08996Y-16516D01*
X09105Y-16471D01*
X09187Y-16389D01*
X19169Y-16389D01*
X19184Y-16424D01*
X19246Y-16486D01*
X19326Y-16519D01*
X19414Y-16519D01*
X19495Y-16485D01*
X19557Y-16423D01*
X19571Y-16389D01*
X23164Y-16389D01*
X23222Y-16447D01*
X23302Y-16480D01*
X23390Y-16480D01*
X23471Y-16446D01*
X23528Y-16389D01*
X29632Y-16389D01*
X29714Y-16471D01*
X29823Y-16516D01*
X29941Y-16516D01*
X30050Y-16471D01*
X30132Y-16389D01*
X31940Y-16389D01*
X31940Y-12845D01*
X35519Y-12845D01*
X35536Y-12885D01*
X35619Y-12968D01*
X35728Y-13013D01*
X35846Y-13013D01*
X35955Y-12968D01*
X36038Y-12885D01*
X36054Y-12845D01*
X39408Y-12845D01*
X39421Y-12858D01*
X39465Y-12876D01*
X39513Y-12876D01*
X41637Y-12876D01*
X41681Y-12858D01*
X41715Y-12824D01*
X41733Y-12780D01*
X41733Y-12732D01*
X41733Y-10212D01*
X41715Y-10168D01*
X41681Y-10134D01*
X41637Y-10116D01*
X41589Y-10116D01*
X41389Y-10116D01*
X41389Y-07011D01*
X41424Y-06997D01*
X41486Y-06935D01*
X41519Y-06855D01*
X41519Y-06767D01*
X41485Y-06686D01*
X41423Y-06624D01*
X41389Y-06609D01*
X41389Y-05956D01*
X42887Y-05956D01*
X42961Y-06030D01*
X43185Y-06123D01*
X43428Y-06123D01*
X43653Y-06030D01*
X43727Y-05956D01*
X46407Y-05956D01*
X46407Y-08920D01*
X46398Y-08917D01*
X46280Y-08917D01*
X46171Y-08962D01*
X46088Y-09045D01*
X46043Y-09154D01*
X46043Y-09272D01*
X46088Y-09381D01*
X46171Y-09464D01*
X46280Y-09509D01*
X46398Y-09509D01*
X46407Y-09505D01*
X46407Y-11355D01*
X46334Y-11355D01*
X46253Y-11389D01*
X46191Y-11451D01*
X46158Y-11531D01*
X46158Y-11619D01*
X46192Y-11700D01*
X46254Y-11762D01*
X46334Y-11795D01*
X46407Y-11795D01*
X46407Y-14814D01*
X46948Y-14814D01*
X46948Y-14862D01*
X46993Y-14971D01*
X47076Y-15054D01*
X47185Y-15099D01*
X47303Y-15099D01*
X47412Y-15054D01*
X47495Y-14971D01*
X47540Y-14862D01*
X47540Y-14814D01*
X48316Y-14814D01*
X48316Y-19576D01*
G54D10*
G36*
X35591Y-18662D02*
X35373Y-18662D01*
X35373Y-17697D01*
X35373Y-17580D01*
X35328Y-17472D01*
X35246Y-17389D01*
X35138Y-17344D01*
X35021Y-17344D01*
X34913Y-17389D01*
X34830Y-17471D01*
X34785Y-17579D01*
X34785Y-17696D01*
X34830Y-17804D01*
X34912Y-17887D01*
X35020Y-17932D01*
X35137Y-17932D01*
X35245Y-17887D01*
X35328Y-17805D01*
X35373Y-17697D01*
X35373Y-18662D01*
X23640Y-18662D01*
X23640Y-18169D01*
X23640Y-18052D01*
X23595Y-17944D01*
X23513Y-17861D01*
X23405Y-17816D01*
X23288Y-17816D01*
X23180Y-17861D01*
X23097Y-17943D01*
X23052Y-18051D01*
X23052Y-18168D01*
X23097Y-18276D01*
X23179Y-18359D01*
X23287Y-18404D01*
X23404Y-18404D01*
X23512Y-18359D01*
X23595Y-18277D01*
X23640Y-18169D01*
X23640Y-18662D01*
X22605Y-18662D01*
X22620Y-18627D01*
X22620Y-18540D01*
X22587Y-18460D01*
X22526Y-18398D01*
X22446Y-18365D01*
X22359Y-18365D01*
X22279Y-18398D01*
X22217Y-18459D01*
X22184Y-18539D01*
X22184Y-18626D01*
X22198Y-18662D01*
X19864Y-18662D01*
X19864Y-18115D01*
X19864Y-18028D01*
X19831Y-17948D01*
X19770Y-17886D01*
X19690Y-17853D01*
X19603Y-17853D01*
X19523Y-17886D01*
X19461Y-17947D01*
X19428Y-18027D01*
X19428Y-18114D01*
X19461Y-18194D01*
X19522Y-18256D01*
X19602Y-18289D01*
X19689Y-18289D01*
X19769Y-18256D01*
X19831Y-18195D01*
X19864Y-18115D01*
X19864Y-18662D01*
X08403Y-18662D01*
X08312Y-18571D01*
X08158Y-18507D01*
X07992Y-18507D01*
X07838Y-18571D01*
X07747Y-18662D01*
X07403Y-18662D01*
X07312Y-18571D01*
X07158Y-18507D01*
X06992Y-18507D01*
X06838Y-18571D01*
X06747Y-18662D01*
X06403Y-18662D01*
X06312Y-18571D01*
X06158Y-18507D01*
X05992Y-18507D01*
X05838Y-18571D01*
X05747Y-18662D01*
X05493Y-18662D01*
X05493Y-18602D01*
X05475Y-18559D01*
X05442Y-18525D01*
X05399Y-18507D01*
X05352Y-18507D01*
X04752Y-18507D01*
X04709Y-18525D01*
X04675Y-18558D01*
X04657Y-18601D01*
X04657Y-18648D01*
X04657Y-18662D01*
X04548Y-18662D01*
X01258Y-14212D01*
X02422Y-14212D01*
X04930Y-17532D01*
X04838Y-17571D01*
X04721Y-17688D01*
X04657Y-17842D01*
X04657Y-18008D01*
X04721Y-18162D01*
X04838Y-18279D01*
X04992Y-18343D01*
X05158Y-18343D01*
X05312Y-18279D01*
X05429Y-18162D01*
X05493Y-18008D01*
X05493Y-17842D01*
X05457Y-17756D01*
X05692Y-17756D01*
X05657Y-17842D01*
X05657Y-18008D01*
X05721Y-18162D01*
X05838Y-18279D01*
X05992Y-18343D01*
X06158Y-18343D01*
X06312Y-18279D01*
X06429Y-18162D01*
X06493Y-18008D01*
X06493Y-17842D01*
X06457Y-17756D01*
X06692Y-17756D01*
X06657Y-17842D01*
X06657Y-18008D01*
X06721Y-18162D01*
X06838Y-18279D01*
X06992Y-18343D01*
X07158Y-18343D01*
X07312Y-18279D01*
X07429Y-18162D01*
X07493Y-18008D01*
X07493Y-17842D01*
X07457Y-17756D01*
X07692Y-17756D01*
X07657Y-17842D01*
X07657Y-18008D01*
X07721Y-18162D01*
X07838Y-18279D01*
X07992Y-18343D01*
X08158Y-18343D01*
X08312Y-18279D01*
X08429Y-18162D01*
X08493Y-18008D01*
X08493Y-17842D01*
X08457Y-17756D01*
X11659Y-17756D01*
X11626Y-17789D01*
X11593Y-17869D01*
X11593Y-17956D01*
X11626Y-18036D01*
X11687Y-18098D01*
X11767Y-18131D01*
X11854Y-18131D01*
X11934Y-18098D01*
X11996Y-18037D01*
X12026Y-17964D01*
X12081Y-18020D01*
X12161Y-18053D01*
X12248Y-18053D01*
X12328Y-18020D01*
X12390Y-17959D01*
X12423Y-17879D01*
X12423Y-17792D01*
X12408Y-17756D01*
X12591Y-17756D01*
X12577Y-17791D01*
X12577Y-17878D01*
X12610Y-17958D01*
X12671Y-18020D01*
X12751Y-18053D01*
X12838Y-18053D01*
X12918Y-18020D01*
X12980Y-17959D01*
X13013Y-17879D01*
X13013Y-17792D01*
X12998Y-17756D01*
X13969Y-17756D01*
X13955Y-17791D01*
X13955Y-17878D01*
X13988Y-17958D01*
X14049Y-18020D01*
X14129Y-18053D01*
X14216Y-18053D01*
X14296Y-18020D01*
X14358Y-17959D01*
X14391Y-17879D01*
X14391Y-17792D01*
X14376Y-17756D01*
X14993Y-17756D01*
X14979Y-17791D01*
X14979Y-17878D01*
X15012Y-17958D01*
X15073Y-18020D01*
X15153Y-18053D01*
X15240Y-18053D01*
X15320Y-18020D01*
X15382Y-17959D01*
X15394Y-17929D01*
X15406Y-17958D01*
X15467Y-18020D01*
X15547Y-18053D01*
X15634Y-18053D01*
X15714Y-18020D01*
X15776Y-17959D01*
X15809Y-17879D01*
X15809Y-17792D01*
X15794Y-17756D01*
X16410Y-17756D01*
X16396Y-17791D01*
X16396Y-17878D01*
X16429Y-17958D01*
X16490Y-18020D01*
X16570Y-18053D01*
X16657Y-18053D01*
X16737Y-18020D01*
X16799Y-17959D01*
X16811Y-17929D01*
X16823Y-17958D01*
X16884Y-18020D01*
X16964Y-18053D01*
X17051Y-18053D01*
X17131Y-18020D01*
X17193Y-17959D01*
X17226Y-17879D01*
X17226Y-17792D01*
X17211Y-17756D01*
X17316Y-17756D01*
X17302Y-17791D01*
X17302Y-17878D01*
X17335Y-17958D01*
X17396Y-18020D01*
X17476Y-18053D01*
X17563Y-18053D01*
X17643Y-18020D01*
X17705Y-17959D01*
X17716Y-17930D01*
X17728Y-17958D01*
X17789Y-18020D01*
X17869Y-18053D01*
X17956Y-18053D01*
X18036Y-18020D01*
X18098Y-17959D01*
X18131Y-17879D01*
X18131Y-17792D01*
X18116Y-17756D01*
X26883Y-17756D01*
X26869Y-17791D01*
X26869Y-17878D01*
X26902Y-17958D01*
X26963Y-18020D01*
X27043Y-18053D01*
X27130Y-18053D01*
X27210Y-18020D01*
X27272Y-17959D01*
X27305Y-17879D01*
X27305Y-17792D01*
X27290Y-17756D01*
X32631Y-17756D01*
X32617Y-17791D01*
X32617Y-17878D01*
X32650Y-17958D01*
X32711Y-18020D01*
X32791Y-18053D01*
X32878Y-18053D01*
X32958Y-18020D01*
X33020Y-17959D01*
X33053Y-17879D01*
X33053Y-17792D01*
X33038Y-17756D01*
X34291Y-17756D01*
X34291Y-17589D01*
X34296Y-17587D01*
X34358Y-17526D01*
X34391Y-17446D01*
X34391Y-17359D01*
X34358Y-17279D01*
X34297Y-17217D01*
X34291Y-17214D01*
X34291Y-15787D01*
X35591Y-15787D01*
X35591Y-18662D01*
X35591Y-18662D01*
G37*
G54D22*
X35591Y-18662D02*
X35373Y-18662D01*
X35373Y-17697D01*
X35373Y-17580D01*
X35328Y-17472D01*
X35246Y-17389D01*
X35138Y-17344D01*
X35021Y-17344D01*
X34913Y-17389D01*
X34830Y-17471D01*
X34785Y-17579D01*
X34785Y-17696D01*
X34830Y-17804D01*
X34912Y-17887D01*
X35020Y-17932D01*
X35137Y-17932D01*
X35245Y-17887D01*
X35328Y-17805D01*
X35373Y-17697D01*
X35373Y-18662D01*
X23640Y-18662D01*
X23640Y-18169D01*
X23640Y-18052D01*
X23595Y-17944D01*
X23513Y-17861D01*
X23405Y-17816D01*
X23288Y-17816D01*
X23180Y-17861D01*
X23097Y-17943D01*
X23052Y-18051D01*
X23052Y-18168D01*
X23097Y-18276D01*
X23179Y-18359D01*
X23287Y-18404D01*
X23404Y-18404D01*
X23512Y-18359D01*
X23595Y-18277D01*
X23640Y-18169D01*
X23640Y-18662D01*
X22605Y-18662D01*
X22620Y-18627D01*
X22620Y-18540D01*
X22587Y-18460D01*
X22526Y-18398D01*
X22446Y-18365D01*
X22359Y-18365D01*
X22279Y-18398D01*
X22217Y-18459D01*
X22184Y-18539D01*
X22184Y-18626D01*
X22198Y-18662D01*
X19864Y-18662D01*
X19864Y-18115D01*
X19864Y-18028D01*
X19831Y-17948D01*
X19770Y-17886D01*
X19690Y-17853D01*
X19603Y-17853D01*
X19523Y-17886D01*
X19461Y-17947D01*
X19428Y-18027D01*
X19428Y-18114D01*
X19461Y-18194D01*
X19522Y-18256D01*
X19602Y-18289D01*
X19689Y-18289D01*
X19769Y-18256D01*
X19831Y-18195D01*
X19864Y-18115D01*
X19864Y-18662D01*
X08403Y-18662D01*
X08312Y-18571D01*
X08158Y-18507D01*
X07992Y-18507D01*
X07838Y-18571D01*
X07747Y-18662D01*
X07403Y-18662D01*
X07312Y-18571D01*
X07158Y-18507D01*
X06992Y-18507D01*
X06838Y-18571D01*
X06747Y-18662D01*
X06403Y-18662D01*
X06312Y-18571D01*
X06158Y-18507D01*
X05992Y-18507D01*
X05838Y-18571D01*
X05747Y-18662D01*
X05493Y-18662D01*
X05493Y-18602D01*
X05475Y-18559D01*
X05442Y-18525D01*
X05399Y-18507D01*
X05352Y-18507D01*
X04752Y-18507D01*
X04709Y-18525D01*
X04675Y-18558D01*
X04657Y-18601D01*
X04657Y-18648D01*
X04657Y-18662D01*
X04548Y-18662D01*
X01258Y-14212D01*
X02422Y-14212D01*
X04930Y-17532D01*
X04838Y-17571D01*
X04721Y-17688D01*
X04657Y-17842D01*
X04657Y-18008D01*
X04721Y-18162D01*
X04838Y-18279D01*
X04992Y-18343D01*
X05158Y-18343D01*
X05312Y-18279D01*
X05429Y-18162D01*
X05493Y-18008D01*
X05493Y-17842D01*
X05457Y-17756D01*
X05692Y-17756D01*
X05657Y-17842D01*
X05657Y-18008D01*
X05721Y-18162D01*
X05838Y-18279D01*
X05992Y-18343D01*
X06158Y-18343D01*
X06312Y-18279D01*
X06429Y-18162D01*
X06493Y-18008D01*
X06493Y-17842D01*
X06457Y-17756D01*
X06692Y-17756D01*
X06657Y-17842D01*
X06657Y-18008D01*
X06721Y-18162D01*
X06838Y-18279D01*
X06992Y-18343D01*
X07158Y-18343D01*
X07312Y-18279D01*
X07429Y-18162D01*
X07493Y-18008D01*
X07493Y-17842D01*
X07457Y-17756D01*
X07692Y-17756D01*
X07657Y-17842D01*
X07657Y-18008D01*
X07721Y-18162D01*
X07838Y-18279D01*
X07992Y-18343D01*
X08158Y-18343D01*
X08312Y-18279D01*
X08429Y-18162D01*
X08493Y-18008D01*
X08493Y-17842D01*
X08457Y-17756D01*
X11659Y-17756D01*
X11626Y-17789D01*
X11593Y-17869D01*
X11593Y-17956D01*
X11626Y-18036D01*
X11687Y-18098D01*
X11767Y-18131D01*
X11854Y-18131D01*
X11934Y-18098D01*
X11996Y-18037D01*
X12026Y-17964D01*
X12081Y-18020D01*
X12161Y-18053D01*
X12248Y-18053D01*
X12328Y-18020D01*
X12390Y-17959D01*
X12423Y-17879D01*
X12423Y-17792D01*
X12408Y-17756D01*
X12591Y-17756D01*
X12577Y-17791D01*
X12577Y-17878D01*
X12610Y-17958D01*
X12671Y-18020D01*
X12751Y-18053D01*
X12838Y-18053D01*
X12918Y-18020D01*
X12980Y-17959D01*
X13013Y-17879D01*
X13013Y-17792D01*
X12998Y-17756D01*
X13969Y-17756D01*
X13955Y-17791D01*
X13955Y-17878D01*
X13988Y-17958D01*
X14049Y-18020D01*
X14129Y-18053D01*
X14216Y-18053D01*
X14296Y-18020D01*
X14358Y-17959D01*
X14391Y-17879D01*
X14391Y-17792D01*
X14376Y-17756D01*
X14993Y-17756D01*
X14979Y-17791D01*
X14979Y-17878D01*
X15012Y-17958D01*
X15073Y-18020D01*
X15153Y-18053D01*
X15240Y-18053D01*
X15320Y-18020D01*
X15382Y-17959D01*
X15394Y-17929D01*
X15406Y-17958D01*
X15467Y-18020D01*
X15547Y-18053D01*
X15634Y-18053D01*
X15714Y-18020D01*
X15776Y-17959D01*
X15809Y-17879D01*
X15809Y-17792D01*
X15794Y-17756D01*
X16410Y-17756D01*
X16396Y-17791D01*
X16396Y-17878D01*
X16429Y-17958D01*
X16490Y-18020D01*
X16570Y-18053D01*
X16657Y-18053D01*
X16737Y-18020D01*
X16799Y-17959D01*
X16811Y-17929D01*
X16823Y-17958D01*
X16884Y-18020D01*
X16964Y-18053D01*
X17051Y-18053D01*
X17131Y-18020D01*
X17193Y-17959D01*
X17226Y-17879D01*
X17226Y-17792D01*
X17211Y-17756D01*
X17316Y-17756D01*
X17302Y-17791D01*
X17302Y-17878D01*
X17335Y-17958D01*
X17396Y-18020D01*
X17476Y-18053D01*
X17563Y-18053D01*
X17643Y-18020D01*
X17705Y-17959D01*
X17716Y-17930D01*
X17728Y-17958D01*
X17789Y-18020D01*
X17869Y-18053D01*
X17956Y-18053D01*
X18036Y-18020D01*
X18098Y-17959D01*
X18131Y-17879D01*
X18131Y-17792D01*
X18116Y-17756D01*
X26883Y-17756D01*
X26869Y-17791D01*
X26869Y-17878D01*
X26902Y-17958D01*
X26963Y-18020D01*
X27043Y-18053D01*
X27130Y-18053D01*
X27210Y-18020D01*
X27272Y-17959D01*
X27305Y-17879D01*
X27305Y-17792D01*
X27290Y-17756D01*
X32631Y-17756D01*
X32617Y-17791D01*
X32617Y-17878D01*
X32650Y-17958D01*
X32711Y-18020D01*
X32791Y-18053D01*
X32878Y-18053D01*
X32958Y-18020D01*
X33020Y-17959D01*
X33053Y-17879D01*
X33053Y-17792D01*
X33038Y-17756D01*
X34291Y-17756D01*
X34291Y-17589D01*
X34296Y-17587D01*
X34358Y-17526D01*
X34391Y-17446D01*
X34391Y-17359D01*
X34358Y-17279D01*
X34297Y-17217D01*
X34291Y-17214D01*
X34291Y-15787D01*
X35591Y-15787D01*
X35591Y-18662D01*
G54D10*
G36*
X39134Y-19567D02*
X02874Y-19567D01*
X02874Y-17853D01*
X02677Y-17375D01*
X02312Y-17010D01*
X01835Y-16812D01*
X01318Y-16811D01*
X00840Y-17008D01*
X00475Y-17373D01*
X00277Y-17850D01*
X00276Y-18367D01*
X00473Y-18845D01*
X00838Y-19210D01*
X01315Y-19408D01*
X01832Y-19409D01*
X02310Y-19212D01*
X02675Y-18847D01*
X02873Y-18370D01*
X02874Y-17853D01*
X02874Y-19567D01*
X00039Y-19567D01*
X00039Y-14212D01*
X00964Y-14212D01*
X04468Y-18937D01*
X04657Y-18937D01*
X04657Y-19248D01*
X04675Y-19291D01*
X04708Y-19325D01*
X04751Y-19343D01*
X04798Y-19343D01*
X05398Y-19343D01*
X05441Y-19325D01*
X05475Y-19292D01*
X05493Y-19249D01*
X05493Y-19202D01*
X05493Y-18937D01*
X05657Y-18937D01*
X05657Y-19008D01*
X05721Y-19162D01*
X05838Y-19279D01*
X05992Y-19343D01*
X06158Y-19343D01*
X06312Y-19279D01*
X06429Y-19162D01*
X06493Y-19008D01*
X06493Y-18937D01*
X06657Y-18937D01*
X06657Y-19008D01*
X06721Y-19162D01*
X06838Y-19279D01*
X06992Y-19343D01*
X07158Y-19343D01*
X07312Y-19279D01*
X07429Y-19162D01*
X07493Y-19008D01*
X07493Y-18937D01*
X07657Y-18937D01*
X07657Y-19008D01*
X07721Y-19162D01*
X07838Y-19279D01*
X07992Y-19343D01*
X08158Y-19343D01*
X08312Y-19279D01*
X08429Y-19162D01*
X08493Y-19008D01*
X08493Y-18937D01*
X21804Y-18937D01*
X21790Y-18972D01*
X21790Y-19059D01*
X21823Y-19139D01*
X21884Y-19201D01*
X21964Y-19234D01*
X22051Y-19234D01*
X22131Y-19201D01*
X22193Y-19140D01*
X22226Y-19060D01*
X22226Y-18973D01*
X22211Y-18937D01*
X39134Y-18937D01*
X39134Y-19567D01*
X39134Y-19567D01*
G37*
G54D22*
X39134Y-19567D02*
X02874Y-19567D01*
X02874Y-17853D01*
X02677Y-17375D01*
X02312Y-17010D01*
X01835Y-16812D01*
X01318Y-16811D01*
X00840Y-17008D01*
X00475Y-17373D01*
X00277Y-17850D01*
X00276Y-18367D01*
X00473Y-18845D01*
X00838Y-19210D01*
X01315Y-19408D01*
X01832Y-19409D01*
X02310Y-19212D01*
X02675Y-18847D01*
X02873Y-18370D01*
X02874Y-17853D01*
X02874Y-19567D01*
X00039Y-19567D01*
X00039Y-14212D01*
X00964Y-14212D01*
X04468Y-18937D01*
X04657Y-18937D01*
X04657Y-19248D01*
X04675Y-19291D01*
X04708Y-19325D01*
X04751Y-19343D01*
X04798Y-19343D01*
X05398Y-19343D01*
X05441Y-19325D01*
X05475Y-19292D01*
X05493Y-19249D01*
X05493Y-19202D01*
X05493Y-18937D01*
X05657Y-18937D01*
X05657Y-19008D01*
X05721Y-19162D01*
X05838Y-19279D01*
X05992Y-19343D01*
X06158Y-19343D01*
X06312Y-19279D01*
X06429Y-19162D01*
X06493Y-19008D01*
X06493Y-18937D01*
X06657Y-18937D01*
X06657Y-19008D01*
X06721Y-19162D01*
X06838Y-19279D01*
X06992Y-19343D01*
X07158Y-19343D01*
X07312Y-19279D01*
X07429Y-19162D01*
X07493Y-19008D01*
X07493Y-18937D01*
X07657Y-18937D01*
X07657Y-19008D01*
X07721Y-19162D01*
X07838Y-19279D01*
X07992Y-19343D01*
X08158Y-19343D01*
X08312Y-19279D01*
X08429Y-19162D01*
X08493Y-19008D01*
X08493Y-18937D01*
X21804Y-18937D01*
X21790Y-18972D01*
X21790Y-19059D01*
X21823Y-19139D01*
X21884Y-19201D01*
X21964Y-19234D01*
X22051Y-19234D01*
X22131Y-19201D01*
X22193Y-19140D01*
X22226Y-19060D01*
X22226Y-18973D01*
X22211Y-18937D01*
X39134Y-18937D01*
X39134Y-19567D01*
G54D10*
G36*
X48307Y-14528D02*
X48149Y-14528D01*
X48149Y-01318D01*
X47952Y-00840D01*
X47587Y-00475D01*
X47110Y-00277D01*
X46593Y-00276D01*
X46115Y-00473D01*
X45750Y-00838D01*
X45552Y-01315D01*
X45551Y-01832D01*
X45748Y-02310D01*
X46113Y-02675D01*
X46590Y-02873D01*
X47107Y-02874D01*
X47585Y-02677D01*
X47950Y-02312D01*
X48148Y-01835D01*
X48149Y-01318D01*
X48149Y-14528D01*
X48008Y-14528D01*
X48050Y-14429D01*
X48050Y-14312D01*
X48005Y-14204D01*
X47971Y-14169D01*
X47971Y-12224D01*
X47971Y-12107D01*
X47926Y-11999D01*
X47892Y-11964D01*
X47892Y-08681D01*
X47892Y-08564D01*
X47847Y-08456D01*
X47765Y-08373D01*
X47657Y-08328D01*
X47540Y-08328D01*
X47432Y-08373D01*
X47349Y-08455D01*
X47304Y-08563D01*
X47304Y-08680D01*
X47349Y-08788D01*
X47431Y-08871D01*
X47539Y-08916D01*
X47656Y-08916D01*
X47764Y-08871D01*
X47847Y-08789D01*
X47892Y-08681D01*
X47892Y-11964D01*
X47844Y-11916D01*
X47736Y-11871D01*
X47619Y-11871D01*
X47511Y-11916D01*
X47428Y-11998D01*
X47383Y-12106D01*
X47383Y-12223D01*
X47428Y-12331D01*
X47510Y-12414D01*
X47618Y-12459D01*
X47735Y-12459D01*
X47843Y-12414D01*
X47926Y-12332D01*
X47971Y-12224D01*
X47971Y-14169D01*
X47923Y-14121D01*
X47815Y-14076D01*
X47698Y-14076D01*
X47590Y-14121D01*
X47507Y-14203D01*
X47462Y-14311D01*
X47462Y-14428D01*
X47503Y-14528D01*
X47348Y-14528D01*
X47303Y-14509D01*
X47187Y-14509D01*
X47187Y-09729D01*
X47187Y-09642D01*
X47187Y-03705D01*
X47187Y-03618D01*
X47154Y-03538D01*
X47093Y-03476D01*
X47013Y-03443D01*
X46926Y-03443D01*
X46846Y-03476D01*
X46784Y-03537D01*
X46751Y-03617D01*
X46751Y-03704D01*
X46784Y-03784D01*
X46845Y-03846D01*
X46925Y-03879D01*
X47012Y-03879D01*
X47092Y-03846D01*
X47154Y-03785D01*
X47187Y-03705D01*
X47187Y-09642D01*
X47154Y-09562D01*
X47093Y-09500D01*
X47013Y-09467D01*
X46926Y-09467D01*
X46846Y-09500D01*
X46784Y-09561D01*
X46751Y-09641D01*
X46751Y-09728D01*
X46784Y-09808D01*
X46845Y-09870D01*
X46925Y-09903D01*
X47012Y-09903D01*
X47092Y-09870D01*
X47154Y-09809D01*
X47187Y-09729D01*
X47187Y-14509D01*
X47186Y-14509D01*
X47140Y-14528D01*
X46693Y-14528D01*
X46693Y-05670D01*
X44013Y-05670D01*
X44030Y-05624D01*
X44018Y-05339D01*
X43931Y-05132D01*
X43915Y-05124D01*
X43915Y-03270D01*
X43915Y-03028D01*
X43822Y-02804D01*
X43651Y-02633D01*
X43427Y-02540D01*
X43185Y-02540D01*
X42961Y-02633D01*
X42790Y-02804D01*
X42697Y-03028D01*
X42697Y-03270D01*
X42790Y-03494D01*
X42961Y-03665D01*
X43185Y-03758D01*
X43427Y-03758D01*
X43651Y-03665D01*
X43822Y-03494D01*
X43915Y-03270D01*
X43915Y-05124D01*
X43822Y-05081D01*
X43738Y-05165D01*
X43738Y-04997D01*
X43687Y-04888D01*
X43419Y-04789D01*
X43134Y-04801D01*
X42927Y-04888D01*
X42876Y-04997D01*
X43307Y-05427D01*
X43738Y-04997D01*
X43738Y-05165D01*
X43392Y-05512D01*
X43307Y-05597D01*
X43222Y-05512D01*
X43194Y-05484D01*
X42792Y-05081D01*
X42683Y-05132D01*
X42584Y-05400D01*
X42595Y-05670D01*
X41378Y-05670D01*
X41378Y-04876D01*
X41532Y-04940D01*
X41774Y-04940D01*
X41998Y-04847D01*
X42169Y-04676D01*
X42262Y-04452D01*
X42262Y-04210D01*
X42169Y-03986D01*
X41998Y-03815D01*
X41774Y-03722D01*
X41532Y-03722D01*
X41378Y-03785D01*
X41378Y-00118D01*
X48307Y-00118D01*
X48307Y-14528D01*
X48307Y-14528D01*
G37*
G54D22*
X48307Y-14528D02*
X48149Y-14528D01*
X48149Y-01318D01*
X47952Y-00840D01*
X47587Y-00475D01*
X47110Y-00277D01*
X46593Y-00276D01*
X46115Y-00473D01*
X45750Y-00838D01*
X45552Y-01315D01*
X45551Y-01832D01*
X45748Y-02310D01*
X46113Y-02675D01*
X46590Y-02873D01*
X47107Y-02874D01*
X47585Y-02677D01*
X47950Y-02312D01*
X48148Y-01835D01*
X48149Y-01318D01*
X48149Y-14528D01*
X48008Y-14528D01*
X48050Y-14429D01*
X48050Y-14312D01*
X48005Y-14204D01*
X47971Y-14169D01*
X47971Y-12224D01*
X47971Y-12107D01*
X47926Y-11999D01*
X47892Y-11964D01*
X47892Y-08681D01*
X47892Y-08564D01*
X47847Y-08456D01*
X47765Y-08373D01*
X47657Y-08328D01*
X47540Y-08328D01*
X47432Y-08373D01*
X47349Y-08455D01*
X47304Y-08563D01*
X47304Y-08680D01*
X47349Y-08788D01*
X47431Y-08871D01*
X47539Y-08916D01*
X47656Y-08916D01*
X47764Y-08871D01*
X47847Y-08789D01*
X47892Y-08681D01*
X47892Y-11964D01*
X47844Y-11916D01*
X47736Y-11871D01*
X47619Y-11871D01*
X47511Y-11916D01*
X47428Y-11998D01*
X47383Y-12106D01*
X47383Y-12223D01*
X47428Y-12331D01*
X47510Y-12414D01*
X47618Y-12459D01*
X47735Y-12459D01*
X47843Y-12414D01*
X47926Y-12332D01*
X47971Y-12224D01*
X47971Y-14169D01*
X47923Y-14121D01*
X47815Y-14076D01*
X47698Y-14076D01*
X47590Y-14121D01*
X47507Y-14203D01*
X47462Y-14311D01*
X47462Y-14428D01*
X47503Y-14528D01*
X47348Y-14528D01*
X47303Y-14509D01*
X47187Y-14509D01*
X47187Y-09729D01*
X47187Y-09642D01*
X47187Y-03705D01*
X47187Y-03618D01*
X47154Y-03538D01*
X47093Y-03476D01*
X47013Y-03443D01*
X46926Y-03443D01*
X46846Y-03476D01*
X46784Y-03537D01*
X46751Y-03617D01*
X46751Y-03704D01*
X46784Y-03784D01*
X46845Y-03846D01*
X46925Y-03879D01*
X47012Y-03879D01*
X47092Y-03846D01*
X47154Y-03785D01*
X47187Y-03705D01*
X47187Y-09642D01*
X47154Y-09562D01*
X47093Y-09500D01*
X47013Y-09467D01*
X46926Y-09467D01*
X46846Y-09500D01*
X46784Y-09561D01*
X46751Y-09641D01*
X46751Y-09728D01*
X46784Y-09808D01*
X46845Y-09870D01*
X46925Y-09903D01*
X47012Y-09903D01*
X47092Y-09870D01*
X47154Y-09809D01*
X47187Y-09729D01*
X47187Y-14509D01*
X47186Y-14509D01*
X47140Y-14528D01*
X46693Y-14528D01*
X46693Y-05670D01*
X44013Y-05670D01*
X44030Y-05624D01*
X44018Y-05339D01*
X43931Y-05132D01*
X43915Y-05124D01*
X43915Y-03270D01*
X43915Y-03028D01*
X43822Y-02804D01*
X43651Y-02633D01*
X43427Y-02540D01*
X43185Y-02540D01*
X42961Y-02633D01*
X42790Y-02804D01*
X42697Y-03028D01*
X42697Y-03270D01*
X42790Y-03494D01*
X42961Y-03665D01*
X43185Y-03758D01*
X43427Y-03758D01*
X43651Y-03665D01*
X43822Y-03494D01*
X43915Y-03270D01*
X43915Y-05124D01*
X43822Y-05081D01*
X43738Y-05165D01*
X43738Y-04997D01*
X43687Y-04888D01*
X43419Y-04789D01*
X43134Y-04801D01*
X42927Y-04888D01*
X42876Y-04997D01*
X43307Y-05427D01*
X43738Y-04997D01*
X43738Y-05165D01*
X43392Y-05512D01*
X43307Y-05597D01*
X43222Y-05512D01*
X43194Y-05484D01*
X42792Y-05081D01*
X42683Y-05132D01*
X42584Y-05400D01*
X42595Y-05670D01*
X41378Y-05670D01*
X41378Y-04876D01*
X41532Y-04940D01*
X41774Y-04940D01*
X41998Y-04847D01*
X42169Y-04676D01*
X42262Y-04452D01*
X42262Y-04210D01*
X42169Y-03986D01*
X41998Y-03815D01*
X41774Y-03722D01*
X41532Y-03722D01*
X41378Y-03785D01*
X41378Y-00118D01*
X48307Y-00118D01*
X48307Y-14528D01*
M02*
