M48
;DRILL file {Pcbnew (2012-01-19 BZR 3256)-stable} date 2012/07/23 17:39:33
;FORMAT={-:-/ absolute / metric / decimal}
FMAT,2
METRIC,TZ
T1C0.305
T2C0.500
T3C0.599
T4C1.016
T5C1.100
T6C1.199
T7C1.400
T8C1.999
T9C2.200
T10C2.499
T11C3.000
T12C3.200
%
G90
G05
M71
T1
X3.000Y-13.000
X3.200Y-37.501
X4.801Y-21.501
X4.801Y-23.000
X4.801Y-26.500
X4.801Y-30.099
X4.801Y-35.301
X5.001Y-13.000
X5.199Y-36.500
X7.501Y-34.000
X7.501Y-35.499
X7.600Y-30.401
X7.699Y-20.300
X7.699Y-26.901
X7.800Y-23.401
X11.100Y-40.701
X12.101Y-12.301
X14.900Y-37.300
X18.999Y-18.301
X22.101Y-17.399
X24.000Y-32.101
X24.000Y-35.700
X24.100Y-20.800
X25.001Y-17.501
X26.700Y-25.199
X26.700Y-26.200
X26.800Y-21.100
X26.800Y-30.401
X26.800Y-31.999
X27.099Y-18.699
X27.201Y-22.901
X27.201Y-24.000
X27.201Y-44.399
X27.300Y-22.200
X27.800Y-31.001
X28.001Y-33.899
X28.001Y-37.701
X28.400Y-22.400
X28.499Y-48.400
X28.999Y-42.799
X29.101Y-45.999
X29.299Y-37.899
X29.500Y-18.999
X29.799Y-15.900
X30.000Y-33.899
X30.000Y-45.499
X30.099Y-37.800
X30.300Y-28.001
X30.500Y-42.901
X30.599Y-2.700
X30.899Y-24.000
X31.001Y-18.999
X31.001Y-45.301
X31.100Y-29.500
X31.100Y-31.001
X31.100Y-32.499
X31.600Y-14.000
X31.699Y-2.700
X31.699Y-15.999
X31.699Y-42.200
X31.900Y-18.999
X31.999Y-43.000
X32.499Y-23.701
X32.499Y-45.301
X33.200Y-11.400
X34.000Y-11.501
X34.000Y-33.899
X34.000Y-37.701
X34.699Y-10.800
X34.801Y-37.899
X34.900Y-15.400
X35.601Y-2.700
X35.601Y-19.299
X35.601Y-42.901
X35.700Y-15.001
X35.700Y-23.701
X35.999Y-45.301
X36.299Y-14.300
X36.401Y-11.900
X36.700Y-18.900
X37.000Y-15.999
X37.501Y-11.801
X37.501Y-15.400
X37.501Y-34.801
X38.199Y-11.199
X38.301Y-36.800
X38.600Y-45.301
X39.500Y-37.701
X39.601Y-45.301
X40.000Y-20.300
X40.000Y-23.701
X40.300Y-34.699
X40.401Y-37.701
X41.001Y-40.701
X41.300Y-37.800
X41.501Y-26.101
X41.501Y-30.300
X41.501Y-31.801
X41.699Y-19.299
X41.699Y-23.701
X42.200Y-45.301
X42.700Y-37.899
X43.200Y-45.301
X43.500Y-34.801
X43.599Y-19.299
X43.701Y-23.701
X43.701Y-37.800
X43.800Y-15.999
X44.201Y-34.801
X44.501Y-45.301
X44.699Y-31.801
X45.199Y-23.701
X45.499Y-45.301
X45.700Y-26.200
X45.799Y-31.001
X45.799Y-36.101
X45.999Y-20.300
X45.999Y-25.100
X45.999Y-28.100
X45.999Y-30.099
X46.101Y-21.199
X48.801Y-31.699
X48.900Y-36.101
X49.200Y-27.701
X49.200Y-41.399
X49.901Y-23.000
X49.901Y-45.900
X50.500Y-36.700
X50.800Y-27.399
X51.399Y-26.800
X52.400Y-36.599
X52.400Y-39.101
X52.499Y-29.500
X52.601Y-37.600
X52.601Y-40.899
X52.799Y-43.500
X54.000Y-24.300
X55.700Y-22.499
X55.700Y-29.901
X55.900Y-48.301
X55.999Y-18.301
X55.999Y-40.500
X56.101Y-38.199
X56.599Y-21.900
X56.799Y-38.999
X56.799Y-40.899
X56.901Y-47.201
X57.300Y-21.900
X57.501Y-18.301
X58.900Y-29.901
X58.999Y-18.400
X59.299Y-41.300
X60.401Y-39.799
X61.300Y-27.800
X61.501Y-26.700
X61.999Y-24.900
X62.200Y-26.401
X62.901Y-19.700
X64.399Y-37.899
X64.399Y-38.999
X66.299Y-25.900
X66.299Y-27.201
X66.401Y-23.299
X66.401Y-24.600
X66.500Y-20.800
X68.801Y-45.301
X69.400Y-18.301
X70.201Y-23.899
X70.201Y-32.101
X71.801Y-43.701
X72.700Y-32.101
X73.000Y-20.800
X73.000Y-24.699
X73.000Y-27.201
X75.001Y-38.999
X75.100Y-44.399
X76.599Y-20.800
X76.599Y-24.699
X76.599Y-27.201
X79.601Y-44.501
X79.700Y-42.400
X79.901Y-19.601
X79.901Y-25.900
X83.401Y-45.301
X85.199Y-15.601
X86.799Y-44.201
X90.701Y-15.601
X91.999Y-25.900
X102.199Y-19.901
X104.899Y-17.300
X108.301Y-30.201
X108.501Y-29.500
X115.100Y-28.499
X117.800Y-29.401
X119.301Y-9.299
X119.301Y-24.600
X121.399Y-24.699
T2
X17.899Y-37.501
X18.199Y-38.900
X18.499Y-40.500
X21.199Y-38.600
X22.301Y-37.501
X22.700Y-41.199
X35.601Y-11.501
X36.401Y-3.200
X52.200Y-33.101
X53.800Y-33.096
X57.600Y-33.096
X59.299Y-45.999
X61.900Y-29.901
X66.401Y-34.000
X70.300Y-38.301
X71.801Y-37.000
X75.900Y-41.199
X78.400Y-31.999
X78.501Y-37.501
X78.699Y-35.001
X79.799Y-33.200
X79.799Y-38.900
X85.001Y-31.501
X85.601Y-29.700
X86.700Y-28.600
X89.101Y-40.500
X89.101Y-41.801
X89.101Y-44.801
X90.899Y-29.700
X90.899Y-32.301
X91.100Y-48.699
X91.201Y-45.999
X92.601Y-48.699
X93.901Y-39.601
X93.901Y-48.699
X94.699Y-29.500
X95.999Y-29.500
X97.600Y-29.500
X98.699Y-26.299
X99.499Y-21.699
X99.700Y-37.399
X100.701Y-20.201
X100.701Y-23.299
X101.201Y-44.201
X101.999Y-21.699
X101.999Y-23.299
X102.601Y-44.201
X103.000Y-48.600
X103.500Y-43.299
X104.399Y-46.200
X107.000Y-21.999
X110.701Y-20.300
X114.699Y-21.999
X115.199Y-17.501
X116.799Y-16.200
X116.799Y-17.501
X116.799Y-18.999
X117.701Y-23.401
X118.900Y-30.899
X118.900Y-40.599
X120.000Y-35.547
X120.000Y-37.600
X120.899Y-21.900
X121.100Y-30.899
X121.300Y-36.500
T3
X52.499Y-15.499
X52.499Y-17.501
X62.499Y-15.499
X62.499Y-17.501
T4
X10.150Y-6.500
X12.690Y-6.500
X12.891Y-45.530
X12.891Y-48.070
X15.230Y-6.500
X15.431Y-45.530
X15.431Y-48.070
X17.770Y-6.500
X17.971Y-45.530
X17.971Y-48.070
X20.310Y-6.500
X20.511Y-45.530
X20.511Y-48.070
X22.850Y-6.500
X109.731Y-43.000
X109.731Y-47.000
X109.959Y-36.231
X109.959Y-38.771
X112.271Y-43.000
X112.271Y-47.000
X112.499Y-36.231
X112.499Y-38.771
X115.039Y-36.231
X115.039Y-38.771
T5
X47.501Y-7.503
X52.499Y-7.503
X61.501Y-7.503
X66.500Y-7.503
T6
X47.000Y-4.003
X47.501Y-11.501
X52.499Y-11.501
X53.000Y-4.003
X61.001Y-4.003
X61.501Y-11.501
X66.500Y-11.501
X67.000Y-4.003
T7
X105.799Y-11.001
X109.997Y-7.998
X110.000Y-14.000
T8
X57.600Y-26.093
T9
X75.199Y-4.501
X78.999Y-10.701
X82.799Y-4.501
X92.199Y-4.501
X95.999Y-10.701
X99.799Y-4.501
T10
X74.000Y-12.751
X78.999Y-4.501
X78.999Y-14.501
X91.001Y-12.751
X95.999Y-4.501
X95.999Y-14.501
T11
X103.000Y-29.200
T12
X4.001Y-4.001
X4.001Y-45.999
X118.999Y-4.001
X118.999Y-45.999
T0
M30
